G04 #@! TF.GenerationSoftware,KiCad,Pcbnew,(6.0.0)*
G04 #@! TF.CreationDate,2023-02-12T16:32:33+01:00*
G04 #@! TF.ProjectId,Ampli_0_5W,416d706c-695f-4305-9f35-572e6b696361,rev?*
G04 #@! TF.SameCoordinates,Original*
G04 #@! TF.FileFunction,Paste,Top*
G04 #@! TF.FilePolarity,Positive*
%FSLAX46Y46*%
G04 Gerber Fmt 4.6, Leading zero omitted, Abs format (unit mm)*
G04 Created by KiCad (PCBNEW (6.0.0)) date 2023-02-12 16:32:33*
%MOMM*%
%LPD*%
G01*
G04 APERTURE LIST*
G04 Aperture macros list*
%AMRoundRect*
0 Rectangle with rounded corners*
0 $1 Rounding radius*
0 $2 $3 $4 $5 $6 $7 $8 $9 X,Y pos of 4 corners*
0 Add a 4 corners polygon primitive as box body*
4,1,4,$2,$3,$4,$5,$6,$7,$8,$9,$2,$3,0*
0 Add four circle primitives for the rounded corners*
1,1,$1+$1,$2,$3*
1,1,$1+$1,$4,$5*
1,1,$1+$1,$6,$7*
1,1,$1+$1,$8,$9*
0 Add four rect primitives between the rounded corners*
20,1,$1+$1,$2,$3,$4,$5,0*
20,1,$1+$1,$4,$5,$6,$7,0*
20,1,$1+$1,$6,$7,$8,$9,0*
20,1,$1+$1,$8,$9,$2,$3,0*%
G04 Aperture macros list end*
%ADD10RoundRect,0.250000X0.337500X0.475000X-0.337500X0.475000X-0.337500X-0.475000X0.337500X-0.475000X0*%
%ADD11RoundRect,0.625000X-1.375000X-0.625000X1.375000X-0.625000X1.375000X0.625000X-1.375000X0.625000X0*%
%ADD12RoundRect,0.250000X0.350000X0.450000X-0.350000X0.450000X-0.350000X-0.450000X0.350000X-0.450000X0*%
%ADD13RoundRect,0.250000X-0.337500X-0.475000X0.337500X-0.475000X0.337500X0.475000X-0.337500X0.475000X0*%
%ADD14RoundRect,0.500000X0.500000X1.500000X-0.500000X1.500000X-0.500000X-1.500000X0.500000X-1.500000X0*%
%ADD15RoundRect,0.500000X1.500000X-0.500000X1.500000X0.500000X-1.500000X0.500000X-1.500000X-0.500000X0*%
%ADD16R,2.700000X4.320000*%
%ADD17RoundRect,0.250000X-0.400000X-1.450000X0.400000X-1.450000X0.400000X1.450000X-0.400000X1.450000X0*%
%ADD18R,2.750000X3.050000*%
%ADD19R,1.200000X2.200000*%
%ADD20RoundRect,0.250000X0.875000X1.025000X-0.875000X1.025000X-0.875000X-1.025000X0.875000X-1.025000X0*%
%ADD21RoundRect,0.500000X-0.500000X-1.500000X0.500000X-1.500000X0.500000X1.500000X-0.500000X1.500000X0*%
%ADD22RoundRect,0.250000X-0.475000X0.337500X-0.475000X-0.337500X0.475000X-0.337500X0.475000X0.337500X0*%
%ADD23R,0.800000X1.900000*%
%ADD24RoundRect,0.250000X0.450000X-0.350000X0.450000X0.350000X-0.450000X0.350000X-0.450000X-0.350000X0*%
%ADD25RoundRect,0.250000X-0.450000X0.350000X-0.450000X-0.350000X0.450000X-0.350000X0.450000X0.350000X0*%
%ADD26RoundRect,0.250000X-1.625000X0.675000X-1.625000X-0.675000X1.625000X-0.675000X1.625000X0.675000X0*%
%ADD27RoundRect,0.250000X1.350000X1.975000X-1.350000X1.975000X-1.350000X-1.975000X1.350000X-1.975000X0*%
%ADD28RoundRect,0.250000X-0.350000X-0.450000X0.350000X-0.450000X0.350000X0.450000X-0.350000X0.450000X0*%
%ADD29RoundRect,0.250000X0.650000X-0.412500X0.650000X0.412500X-0.650000X0.412500X-0.650000X-0.412500X0*%
%ADD30R,2.500000X2.000000*%
%ADD31R,3.000000X3.000000*%
%ADD32RoundRect,0.250000X0.925000X-0.875000X0.925000X0.875000X-0.925000X0.875000X-0.925000X-0.875000X0*%
%ADD33RoundRect,1.000000X2.500000X-1.000000X2.500000X1.000000X-2.500000X1.000000X-2.500000X-1.000000X0*%
G04 APERTURE END LIST*
D10*
X96037500Y-81000000D03*
X93962500Y-81000000D03*
D11*
X101500000Y-84000000D03*
X101500000Y-79000000D03*
X101500000Y-73500000D03*
X112500000Y-73500000D03*
X112500000Y-79000000D03*
X112500000Y-84000000D03*
D12*
X115500000Y-75900000D03*
X113500000Y-75900000D03*
D13*
X97462500Y-101250000D03*
X99537500Y-101250000D03*
D12*
X96000000Y-83000000D03*
X94000000Y-83000000D03*
D14*
X101250000Y-101750000D03*
D15*
X107750000Y-95250000D03*
D14*
X101250000Y-88750000D03*
D16*
X117900000Y-76500000D03*
X117900000Y-81900000D03*
X129700000Y-81900000D03*
X129700000Y-76500000D03*
D17*
X99775000Y-35000000D03*
X104225000Y-35000000D03*
D18*
X94525000Y-49575000D03*
X91475000Y-46225000D03*
X91475000Y-49575000D03*
X94525000Y-46225000D03*
D19*
X90720000Y-54200000D03*
X95280000Y-54200000D03*
D20*
X96700000Y-71500000D03*
X90300000Y-71500000D03*
D21*
X85000000Y-90000000D03*
X88000000Y-90000000D03*
X91000000Y-90000000D03*
D10*
X109400000Y-79000000D03*
X107325000Y-79000000D03*
D22*
X130000000Y-40462500D03*
X130000000Y-42537500D03*
D23*
X126950000Y-39000000D03*
X125050000Y-39000000D03*
X126000000Y-42000000D03*
D24*
X132000000Y-42500000D03*
X132000000Y-40500000D03*
D12*
X115500000Y-81600000D03*
X113500000Y-81600000D03*
D13*
X101462500Y-67000000D03*
X103537500Y-67000000D03*
D25*
X119000000Y-40000000D03*
X119000000Y-42000000D03*
D12*
X96000000Y-79000000D03*
X94000000Y-79000000D03*
D13*
X87962500Y-85000000D03*
X90037500Y-85000000D03*
D12*
X96000000Y-85000000D03*
X94000000Y-85000000D03*
D26*
X108500000Y-64725000D03*
X108500000Y-69275000D03*
D27*
X131100000Y-89500000D03*
X114000000Y-89500000D03*
D28*
X94000000Y-87000000D03*
X96000000Y-87000000D03*
D12*
X105250000Y-101250000D03*
X103250000Y-101250000D03*
D25*
X109000000Y-75000000D03*
X109000000Y-77000000D03*
D18*
X108975000Y-46325000D03*
X108975000Y-49675000D03*
X112025000Y-46325000D03*
X112025000Y-49675000D03*
D19*
X112780000Y-41700000D03*
X108220000Y-41700000D03*
D29*
X117300000Y-73762500D03*
X117300000Y-70637500D03*
D27*
X131100000Y-69000000D03*
X114000000Y-69000000D03*
D22*
X85000000Y-82962500D03*
X85000000Y-85037500D03*
D30*
X94000000Y-62300000D03*
D31*
X95500000Y-59050000D03*
D30*
X97000000Y-62300000D03*
D28*
X130000000Y-38500000D03*
X132000000Y-38500000D03*
D22*
X116500000Y-39962500D03*
X116500000Y-42037500D03*
D32*
X90000000Y-62550000D03*
X90000000Y-57450000D03*
D33*
X134500000Y-72750000D03*
X134500000Y-85750000D03*
X167500000Y-85750000D03*
X167500000Y-72750000D03*
D20*
X96700000Y-66500000D03*
X90300000Y-66500000D03*
D24*
X101000000Y-71000000D03*
X101000000Y-69000000D03*
D29*
X117400000Y-87762500D03*
X117400000Y-84637500D03*
D12*
X123000000Y-42000000D03*
X121000000Y-42000000D03*
G36*
X179942121Y-30020002D02*
G01*
X179988614Y-30073658D01*
X180000000Y-30126000D01*
X180000000Y-129874000D01*
X179979998Y-129942121D01*
X179926342Y-129988614D01*
X179874000Y-130000000D01*
X129126000Y-130000000D01*
X129057879Y-129979998D01*
X129011386Y-129926342D01*
X129000000Y-129874000D01*
X129000000Y-127626000D01*
X129020002Y-127557879D01*
X129073658Y-127511386D01*
X129126000Y-127500000D01*
X176981885Y-127500000D01*
X176997124Y-127495525D01*
X176998329Y-127494135D01*
X177000000Y-127486452D01*
X177000000Y-32018115D01*
X176995525Y-32002876D01*
X176994135Y-32001671D01*
X176986452Y-32000000D01*
X82018115Y-32000000D01*
X82002876Y-32004475D01*
X82001671Y-32005865D01*
X82000000Y-32013548D01*
X82000000Y-127481885D01*
X82004475Y-127497124D01*
X82005865Y-127498329D01*
X82013548Y-127500000D01*
X119374000Y-127500000D01*
X119442121Y-127520002D01*
X119488614Y-127573658D01*
X119500000Y-127626000D01*
X119500000Y-129874000D01*
X119479998Y-129942121D01*
X119426342Y-129988614D01*
X119374000Y-130000000D01*
X80126000Y-130000000D01*
X80057879Y-129979998D01*
X80011386Y-129926342D01*
X80000000Y-129874000D01*
X80000000Y-30126000D01*
X80020002Y-30057879D01*
X80073658Y-30011386D01*
X80126000Y-30000000D01*
X179874000Y-30000000D01*
X179942121Y-30020002D01*
G37*
G36*
X81910040Y-107358426D02*
G01*
X81969593Y-107397077D01*
X81998797Y-107461790D01*
X82000000Y-107479162D01*
X82000000Y-107481885D01*
X82004475Y-107497124D01*
X82005865Y-107498329D01*
X82013548Y-107500000D01*
X119374000Y-107500000D01*
X119442121Y-107520002D01*
X119488614Y-107573658D01*
X119500000Y-107626000D01*
X119500000Y-109374000D01*
X119479998Y-109442121D01*
X119426342Y-109488614D01*
X119374000Y-109500000D01*
X82018115Y-109500000D01*
X82002876Y-109504475D01*
X82001671Y-109505865D01*
X82000000Y-109513548D01*
X82000000Y-109520838D01*
X81979998Y-109588959D01*
X81926342Y-109635452D01*
X81856068Y-109645556D01*
X81791488Y-109616062D01*
X81753104Y-109556336D01*
X81749364Y-109539329D01*
X81748131Y-109531018D01*
X81746919Y-109518709D01*
X81746152Y-109503094D01*
X81746000Y-109496912D01*
X81746000Y-107503088D01*
X81746152Y-107496906D01*
X81746919Y-107481291D01*
X81748131Y-107468982D01*
X81749364Y-107460671D01*
X81779146Y-107396223D01*
X81839044Y-107358108D01*
X81910040Y-107358426D01*
G37*
G36*
X177208512Y-107383938D02*
G01*
X177246896Y-107443664D01*
X177250636Y-107460671D01*
X177251869Y-107468982D01*
X177253081Y-107481291D01*
X177253848Y-107496906D01*
X177254000Y-107503088D01*
X177254000Y-109496912D01*
X177253848Y-109503094D01*
X177253081Y-109518709D01*
X177251869Y-109531018D01*
X177250636Y-109539329D01*
X177220854Y-109603777D01*
X177160956Y-109641892D01*
X177089960Y-109641574D01*
X177030407Y-109602923D01*
X177001203Y-109538210D01*
X177000000Y-109520838D01*
X177000000Y-109518115D01*
X176995525Y-109502876D01*
X176994135Y-109501671D01*
X176986452Y-109500000D01*
X129126000Y-109500000D01*
X129057879Y-109479998D01*
X129011386Y-109426342D01*
X129000000Y-109374000D01*
X129000000Y-107626000D01*
X129020002Y-107557879D01*
X129073658Y-107511386D01*
X129126000Y-107500000D01*
X176981885Y-107500000D01*
X176997124Y-107495525D01*
X176998329Y-107494135D01*
X177000000Y-107486452D01*
X177000000Y-107479162D01*
X177020002Y-107411041D01*
X177073658Y-107364548D01*
X177143932Y-107354444D01*
X177208512Y-107383938D01*
G37*
M02*
