M48
; DRILL file {KiCad (7.0.0)} date Tue Feb 14 12:16:25 2023
; FORMAT={-:-/ absolute / metric / decimal}
; #@! TF.CreationDate,2023-02-14T12:16:25+01:00
; #@! TF.GenerationSoftware,Kicad,Pcbnew,(7.0.0)
; #@! TF.FileFunction,Plated,1,2,PTH
FMAT,2
METRIC
; #@! TA.AperFunction,Plated,PTH,ViaDrill
T1C0.400
; #@! TA.AperFunction,Plated,PTH,ComponentDrill
T2C1.190
; #@! TA.AperFunction,Plated,PTH,ComponentDrill
T3C1.300
; #@! TA.AperFunction,Plated,PTH,ComponentDrill
T4C1.500
; #@! TA.AperFunction,Plated,PTH,ComponentDrill
T5C3.200
%
G90
G05
T1
X81.5Y-31.5
X81.5Y-36.5
X81.5Y-41.5
X81.5Y-46.5
X81.5Y-51.5
X81.5Y-56.5
X81.5Y-61.5
X81.5Y-66.5
X81.5Y-71.5
X81.5Y-86.5
X81.5Y-91.5
X81.5Y-96.5
X81.5Y-101.5
X81.5Y-111.5
X81.5Y-116.5
X81.5Y-121.5
X82.0Y-128.0
X86.5Y-31.5
X87.0Y-56.5
X87.0Y-61.5
X87.0Y-66.5
X87.0Y-71.5
X87.0Y-96.5
X87.0Y-101.5
X87.0Y-128.0
X88.0Y-45.5
X88.0Y-48.5
X89.0Y-42.0
X91.0Y-46.0
X91.0Y-49.0
X91.5Y-31.5
X92.0Y-96.5
X92.0Y-101.5
X92.0Y-108.5
X92.0Y-128.0
X92.5Y-42.0
X92.5Y-47.5
X92.5Y-50.5
X94.0Y-46.0
X94.0Y-49.0
X95.5Y-47.5
X95.5Y-50.5
X96.0Y-42.0
X96.5Y-31.5
X97.0Y-96.5
X97.0Y-108.5
X97.0Y-128.0
X98.0Y-45.5
X98.0Y-48.5
X98.0Y-51.0
X101.5Y-31.5
X102.0Y-108.5
X102.0Y-128.0
X105.0Y-56.5
X105.0Y-61.5
X105.0Y-66.5
X105.0Y-71.5
X106.5Y-31.5
X106.5Y-80.5
X106.5Y-83.5
X106.5Y-86.5
X106.5Y-89.0
X106.5Y-91.5
X107.0Y-101.5
X107.0Y-108.5
X107.0Y-128.0
X111.5Y-31.5
X112.0Y-96.5
X112.0Y-101.5
X112.0Y-108.5
X112.0Y-128.0
X116.5Y-31.5
X116.5Y-46.5
X116.5Y-51.5
X116.5Y-56.5
X117.0Y-96.5
X117.0Y-101.5
X117.0Y-108.5
X117.0Y-128.0
X121.5Y-31.5
X121.5Y-46.5
X121.5Y-56.5
X126.5Y-31.5
X126.5Y-46.5
X126.5Y-56.5
X131.5Y-31.5
X131.5Y-46.5
X131.5Y-56.5
X132.0Y-96.5
X132.0Y-101.5
X132.0Y-108.5
X132.0Y-128.0
X136.5Y-31.5
X136.5Y-46.5
X136.5Y-56.5
X137.0Y-96.5
X137.0Y-108.5
X137.0Y-128.0
X139.5Y-72.5
X139.5Y-86.5
X141.5Y-31.5
X141.5Y-46.5
X141.5Y-51.5
X141.5Y-56.5
X141.5Y-86.5
X142.0Y-72.5
X142.0Y-96.5
X142.0Y-108.5
X142.0Y-128.0
X143.5Y-59.0
X143.5Y-61.0
X143.5Y-63.0
X143.5Y-65.0
X143.5Y-67.0
X143.5Y-69.0
X143.5Y-71.5
X143.5Y-86.5
X145.5Y-86.5
X147.0Y-31.5
X147.0Y-91.5
X147.0Y-96.5
X147.0Y-108.5
X147.0Y-128.0
X147.5Y-86.5
X149.5Y-85.5
X151.0Y-84.0
X152.0Y-91.5
X152.0Y-108.5
X152.0Y-128.0
X152.5Y-31.5
X152.5Y-82.5
X153.5Y-81.0
X155.0Y-80.0
X156.5Y-78.5
X157.0Y-31.5
X157.0Y-91.5
X157.0Y-108.5
X157.0Y-128.0
X157.5Y-77.0
X158.0Y-59.0
X158.0Y-61.0
X158.0Y-63.0
X158.0Y-65.0
X158.0Y-67.0
X158.0Y-69.0
X158.0Y-71.0
X158.0Y-73.0
X158.0Y-75.0
X161.5Y-31.5
X162.0Y-108.5
X162.0Y-128.0
X162.5Y-41.5
X162.5Y-46.5
X162.5Y-51.5
X162.5Y-56.5
X163.0Y-61.5
X163.0Y-66.5
X163.0Y-91.5
X166.5Y-31.5
X167.0Y-108.5
X167.0Y-128.0
X167.5Y-41.5
X168.0Y-66.5
X168.0Y-91.5
X171.5Y-31.5
X172.0Y-128.0
X172.5Y-41.5
X173.0Y-66.5
X173.0Y-91.5
X177.0Y-128.0
X177.5Y-41.5
X177.5Y-46.5
X177.5Y-51.5
X177.5Y-56.5
X177.5Y-61.5
X177.5Y-66.5
X177.5Y-81.5
X177.5Y-86.5
X177.5Y-91.5
X177.5Y-96.5
X177.5Y-101.5
X177.5Y-106.5
X177.5Y-111.5
X177.5Y-116.5
X177.5Y-121.5
T2
X100.73Y-41.02
X103.27Y-41.02
X135.73Y-41.02
X138.27Y-41.02
T3
X82.46Y-75.46
X82.46Y-80.54
X85.0Y-78.0
X87.54Y-75.46
X87.54Y-80.54
X172.46Y-70.26
X172.46Y-75.34
X175.0Y-72.8
X177.54Y-70.26
X177.54Y-75.34
T4
X134.232Y-77.25
X134.232Y-81.25
T5
X85.0Y-35.0
X85.0Y-106.0
X151.0Y-49.0
X169.0Y-49.0
X175.0Y-35.0
X175.0Y-106.0
T0
M30
