G04 #@! TF.GenerationSoftware,KiCad,Pcbnew,(7.0.0)*
G04 #@! TF.CreationDate,2023-03-31T08:32:28+02:00*
G04 #@! TF.ProjectId,Ampli_0_5W,416d706c-695f-4305-9f35-572e6b696361,rev?*
G04 #@! TF.SameCoordinates,Original*
G04 #@! TF.FileFunction,Soldermask,Bot*
G04 #@! TF.FilePolarity,Negative*
%FSLAX46Y46*%
G04 Gerber Fmt 4.6, Leading zero omitted, Abs format (unit mm)*
G04 Created by KiCad (PCBNEW (7.0.0)) date 2023-03-31 08:32:28*
%MOMM*%
%LPD*%
G01*
G04 APERTURE LIST*
G04 Aperture macros list*
%AMRoundRect*
0 Rectangle with rounded corners*
0 $1 Rounding radius*
0 $2 $3 $4 $5 $6 $7 $8 $9 X,Y pos of 4 corners*
0 Add a 4 corners polygon primitive as box body*
4,1,4,$2,$3,$4,$5,$6,$7,$8,$9,$2,$3,0*
0 Add four circle primitives for the rounded corners*
1,1,$1+$1,$2,$3*
1,1,$1+$1,$4,$5*
1,1,$1+$1,$6,$7*
1,1,$1+$1,$8,$9*
0 Add four rect primitives between the rounded corners*
20,1,$1+$1,$2,$3,$4,$5,0*
20,1,$1+$1,$4,$5,$6,$7,0*
20,1,$1+$1,$6,$7,$8,$9,0*
20,1,$1+$1,$8,$9,$2,$3,0*%
G04 Aperture macros list end*
%ADD10C,5.600000*%
%ADD11C,8.000000*%
%ADD12RoundRect,0.250000X-0.620000X-0.845000X0.620000X-0.845000X0.620000X0.845000X-0.620000X0.845000X0*%
%ADD13O,1.740000X2.190000*%
%ADD14O,4.000000X3.000000*%
%ADD15C,1.998980*%
%ADD16C,2.499360*%
%ADD17RoundRect,0.250000X1.069499X0.486136X0.486136X1.069499X-1.069499X-0.486136X-0.486136X-1.069499X0*%
%ADD18RoundRect,0.250000X1.100000X-0.412500X1.100000X0.412500X-1.100000X0.412500X-1.100000X-0.412500X0*%
%ADD19RoundRect,0.250000X-1.100000X0.412500X-1.100000X-0.412500X1.100000X-0.412500X1.100000X0.412500X0*%
%ADD20RoundRect,0.250000X0.412500X1.100000X-0.412500X1.100000X-0.412500X-1.100000X0.412500X-1.100000X0*%
%ADD21RoundRect,0.250000X-0.412500X-1.100000X0.412500X-1.100000X0.412500X1.100000X-0.412500X1.100000X0*%
%ADD22RoundRect,0.250000X-1.069499X-0.486136X-0.486136X-1.069499X1.069499X0.486136X0.486136X1.069499X0*%
G04 APERTURE END LIST*
D10*
X85000000Y-35000000D03*
X85000000Y-105000000D03*
D11*
X169000000Y-49000000D03*
D10*
X175000000Y-105000000D03*
D12*
X100730000Y-41020000D03*
D13*
X103269999Y-41019999D03*
D11*
X151000000Y-49000000D03*
D10*
X175000000Y-35000000D03*
D14*
X134232499Y-81249999D03*
X134232499Y-77249999D03*
D12*
X135730000Y-41020000D03*
D13*
X138269999Y-41019999D03*
D15*
X85000000Y-78000000D03*
D16*
X87540000Y-75460000D03*
X82460000Y-75460000D03*
X87540000Y-80540000D03*
X82460000Y-80540000D03*
D15*
X175000000Y-72800000D03*
D16*
X172460000Y-75340000D03*
X177540000Y-75340000D03*
X172460000Y-70260000D03*
X177540000Y-70260000D03*
D17*
X149604854Y-82854854D03*
X147395146Y-80645146D03*
D18*
X144250000Y-84812500D03*
X144250000Y-81687500D03*
D19*
X141000000Y-73937500D03*
X141000000Y-77062500D03*
X137750000Y-73937500D03*
X137750000Y-77062500D03*
D20*
X156562500Y-72600000D03*
X153437500Y-72600000D03*
D21*
X145237500Y-62200000D03*
X148362500Y-62200000D03*
D18*
X141000000Y-84812500D03*
X141000000Y-81687500D03*
D20*
X156562500Y-66200000D03*
X153437500Y-66200000D03*
D18*
X137750000Y-84812500D03*
X137750000Y-81687500D03*
D17*
X154304854Y-78104854D03*
X152095146Y-75895146D03*
D21*
X145237500Y-68800000D03*
X148362500Y-68800000D03*
D20*
X156562500Y-69400000D03*
X153437500Y-69400000D03*
D22*
X144395146Y-72895146D03*
X146604854Y-75104854D03*
D21*
X145237500Y-65400000D03*
X148362500Y-65400000D03*
D20*
X156562500Y-63000000D03*
X153437500Y-63000000D03*
D17*
X151854854Y-80604854D03*
X149645146Y-78395146D03*
M02*
