M48
; DRILL file {KiCad (6.0.0)} date Tue Sep 27 14:15:45 2022
; FORMAT={-:-/ absolute / metric / decimal}
; #@! TF.CreationDate,2022-09-27T14:15:45+02:00
; #@! TF.GenerationSoftware,Kicad,Pcbnew,(6.0.0)
; #@! TF.FileFunction,Plated,1,2,PTH
FMAT,2
METRIC
; #@! TA.AperFunction,Plated,PTH,ViaDrill
T1C0.400
; #@! TA.AperFunction,Plated,PTH,ComponentDrill
T2C1.190
; #@! TA.AperFunction,Plated,PTH,ComponentDrill
T3C1.300
; #@! TA.AperFunction,Plated,PTH,ComponentDrill
T4C2.000
; #@! TA.AperFunction,Plated,PTH,ComponentDrill
T5C3.200
%
G90
G05
T1
X82.0Y-83.0
X82.0Y-88.0
X82.0Y-93.0
X82.0Y-98.0
X85.0Y-40.0
X85.0Y-45.0
X85.0Y-50.0
X85.0Y-55.0
X85.0Y-60.0
X85.0Y-65.0
X85.0Y-70.0
X85.0Y-100.0
X90.0Y-35.0
X90.0Y-40.0
X90.0Y-45.0
X90.0Y-50.0
X90.0Y-55.0
X90.0Y-60.0
X90.0Y-65.0
X90.0Y-70.0
X90.0Y-100.0
X90.0Y-105.0
X90.0Y-110.0
X91.0Y-75.0
X91.0Y-79.0
X91.0Y-83.0
X95.0Y-35.0
X95.0Y-50.75
X95.0Y-52.0
X95.0Y-53.25
X95.0Y-54.5
X95.0Y-55.75
X95.0Y-57.0
X95.0Y-65.0
X95.0Y-70.0
X95.0Y-75.0
X95.0Y-105.0
X95.0Y-110.0
X98.0Y-70.0
X98.0Y-75.0
X98.0Y-82.0
X98.0Y-86.0
X100.0Y-35.0
X100.0Y-105.0
X100.0Y-110.0
X100.25Y-50.75
X100.25Y-52.0
X100.25Y-53.25
X100.25Y-55.75
X100.25Y-57.0
X100.25Y-58.25
X105.0Y-65.0
X105.0Y-70.0
X105.0Y-74.0
X105.0Y-75.5
X105.0Y-77.0
X105.0Y-78.5
X105.0Y-80.0
X105.0Y-81.5
X105.0Y-83.0
X105.0Y-87.0
X105.0Y-105.0
X105.0Y-110.0
X110.0Y-45.0
X110.0Y-50.0
X110.0Y-55.0
X110.0Y-87.0
X110.0Y-100.0
X110.0Y-105.0
X110.0Y-110.0
X113.0Y-90.0
X113.0Y-95.0
X115.0Y-55.0
X115.0Y-60.0
X115.0Y-100.0
X115.0Y-105.0
X115.0Y-110.0
X115.5Y-61.6
X115.5Y-63.0
X115.5Y-65.0
X115.5Y-66.5
X115.5Y-68.0
X115.5Y-69.5
X115.5Y-71.0
X115.5Y-72.5
X115.5Y-74.0
X115.5Y-83.5
X115.5Y-85.0
X115.5Y-86.5
X115.5Y-88.0
X115.5Y-89.5
X115.5Y-91.0
X115.5Y-92.5
X115.5Y-94.0
X115.5Y-95.5
X115.5Y-96.8
X117.0Y-61.6
X117.0Y-96.8
X118.5Y-61.6
X118.5Y-96.8
X120.0Y-55.0
X120.0Y-60.0
X120.0Y-61.6
X120.0Y-96.8
X120.0Y-105.0
X120.0Y-110.0
X121.5Y-61.6
X121.5Y-96.8
X123.1Y-61.6
X123.1Y-96.8
X124.6Y-61.6
X124.6Y-96.8
X125.0Y-35.0
X125.0Y-105.0
X125.0Y-110.0
X126.1Y-61.6
X126.1Y-96.8
X127.8Y-61.6
X127.8Y-96.8
X128.75Y-95.5
X129.75Y-62.5
X130.0Y-35.0
X130.0Y-40.0
X130.0Y-96.2
X130.0Y-100.0
X130.0Y-105.0
X130.0Y-110.0
X130.25Y-94.0
X131.2Y-54.8
X131.2Y-60.0
X131.2Y-64.2
X131.75Y-92.25
X133.0Y-66.25
X133.0Y-90.6
X134.5Y-90.6
X135.0Y-50.0
X135.0Y-92.6
X135.0Y-96.2
X135.0Y-100.0
X135.0Y-105.0
X135.0Y-110.0
X135.131Y-54.869
X135.25Y-60.0
X135.25Y-64.2
X135.25Y-68.0
X136.0Y-90.6
X137.6Y-90.6
X139.1Y-90.6
X139.25Y-50.0
X140.0Y-55.0
X140.0Y-60.0
X140.0Y-64.2
X140.0Y-68.0
X140.0Y-92.6
X140.0Y-96.2
X140.0Y-100.0
X140.0Y-105.0
X140.0Y-110.0
X140.5Y-72.3
X140.6Y-86.4
X140.6Y-90.6
X141.0Y-71.2
X141.4Y-87.6
X141.4Y-89.2
X142.0Y-72.3
X142.1Y-86.4
X142.5Y-71.2
X142.9Y-87.6
X143.5Y-72.3
X143.6Y-61.6
X143.6Y-63.6
X143.6Y-65.4
X143.6Y-67.2
X143.6Y-68.8
X143.6Y-70.2
X143.6Y-86.4
X144.0Y-71.2
X144.4Y-87.6
X145.0Y-51.25
X145.0Y-55.0
X145.0Y-60.0
X145.0Y-72.3
X145.0Y-92.6
X145.0Y-96.2
X145.0Y-100.0
X145.0Y-105.0
X145.0Y-110.0
X145.1Y-86.4
X145.5Y-71.2
X145.9Y-87.6
X146.6Y-86.4
X147.4Y-87.6
X148.1Y-86.4
X148.9Y-87.6
X149.6Y-86.4
X150.0Y-89.0
X150.0Y-92.6
X150.0Y-96.2
X150.0Y-100.0
X150.0Y-105.0
X150.0Y-110.0
X155.0Y-85.0
X155.0Y-89.0
X155.0Y-92.6
X155.0Y-96.2
X155.0Y-100.0
X155.0Y-105.0
X155.0Y-110.0
X157.2Y-45.0
X157.2Y-50.0
X157.25Y-55.0
X157.25Y-60.0
X160.0Y-40.0
X160.0Y-45.0
X160.0Y-50.0
X160.0Y-55.0
X160.0Y-60.0
X160.0Y-64.5
X160.0Y-69.0
X160.0Y-72.8
X160.0Y-76.6
X160.0Y-80.2
X160.0Y-85.0
X160.0Y-89.0
X160.0Y-92.6
X160.0Y-96.2
X160.0Y-100.0
X160.0Y-105.0
X160.0Y-110.0
X165.0Y-40.0
X165.0Y-45.0
X165.0Y-50.0
X165.0Y-55.0
X165.0Y-60.0
X165.0Y-65.0
X165.0Y-69.0
X165.0Y-76.6
X165.0Y-80.0
X165.0Y-85.0
X165.0Y-90.0
X165.0Y-95.0
X165.0Y-100.0
X165.0Y-105.0
X165.0Y-110.0
X170.0Y-40.0
X170.0Y-45.0
X170.0Y-50.0
X170.0Y-55.0
X170.0Y-60.0
X170.0Y-65.0
X170.0Y-69.0
X170.0Y-76.6
X170.0Y-80.0
X170.0Y-90.0
X170.0Y-95.0
X170.0Y-100.0
X170.0Y-105.0
X170.0Y-110.0
X175.0Y-40.0
X175.0Y-45.0
X175.0Y-50.0
X175.0Y-55.0
X175.0Y-60.0
X175.0Y-65.0
X175.0Y-80.0
X175.0Y-85.0
X175.0Y-90.0
X175.0Y-95.0
X175.0Y-100.0
T2
X115.0Y-34.9
X117.54Y-34.9
X135.5Y-35.0
X138.04Y-35.0
T3
X82.46Y-75.46
X82.46Y-80.54
X85.0Y-78.0
X87.54Y-75.46
X87.54Y-80.54
X173.46Y-70.26
X173.46Y-75.34
X176.0Y-72.8
X178.54Y-70.26
X178.54Y-75.34
T4
X134.232Y-77.25
X134.232Y-81.25
T5
X85.0Y-35.0
X85.0Y-106.0
X124.0Y-57.5
X124.0Y-100.5
X151.0Y-35.5
X163.0Y-35.0
X175.0Y-35.0
X175.0Y-106.0
T0
M30
