G04 #@! TF.GenerationSoftware,KiCad,Pcbnew,(7.0.0)*
G04 #@! TF.CreationDate,2023-03-31T08:32:28+02:00*
G04 #@! TF.ProjectId,Ampli_0_5W,416d706c-695f-4305-9f35-572e6b696361,rev?*
G04 #@! TF.SameCoordinates,Original*
G04 #@! TF.FileFunction,Legend,Top*
G04 #@! TF.FilePolarity,Positive*
%FSLAX46Y46*%
G04 Gerber Fmt 4.6, Leading zero omitted, Abs format (unit mm)*
G04 Created by KiCad (PCBNEW (7.0.0)) date 2023-03-31 08:32:28*
%MOMM*%
%LPD*%
G01*
G04 APERTURE LIST*
G04 Aperture macros list*
%AMRoundRect*
0 Rectangle with rounded corners*
0 $1 Rounding radius*
0 $2 $3 $4 $5 $6 $7 $8 $9 X,Y pos of 4 corners*
0 Add a 4 corners polygon primitive as box body*
4,1,4,$2,$3,$4,$5,$6,$7,$8,$9,$2,$3,0*
0 Add four circle primitives for the rounded corners*
1,1,$1+$1,$2,$3*
1,1,$1+$1,$4,$5*
1,1,$1+$1,$6,$7*
1,1,$1+$1,$8,$9*
0 Add four rect primitives between the rounded corners*
20,1,$1+$1,$2,$3,$4,$5,0*
20,1,$1+$1,$4,$5,$6,$7,0*
20,1,$1+$1,$6,$7,$8,$9,0*
20,1,$1+$1,$8,$9,$2,$3,0*%
%AMFreePoly0*
4,1,9,3.862500,-0.866500,0.737500,-0.866500,0.737500,-0.450000,-0.737500,-0.450000,-0.737500,0.450000,0.737500,0.450000,0.737500,0.866500,3.862500,0.866500,3.862500,-0.866500,3.862500,-0.866500,$1*%
G04 Aperture macros list end*
%ADD10C,0.150000*%
%ADD11C,0.300000*%
%ADD12C,0.400000*%
%ADD13C,0.175000*%
%ADD14C,0.100000*%
%ADD15C,0.120000*%
%ADD16C,0.381000*%
%ADD17C,0.099060*%
%ADD18C,1.998980*%
%ADD19C,2.499360*%
%ADD20RoundRect,0.237500X0.300000X0.237500X-0.300000X0.237500X-0.300000X-0.237500X0.300000X-0.237500X0*%
%ADD21RoundRect,0.237500X0.250000X0.237500X-0.250000X0.237500X-0.250000X-0.237500X0.250000X-0.237500X0*%
%ADD22C,5.600000*%
%ADD23RoundRect,0.250000X0.337500X0.475000X-0.337500X0.475000X-0.337500X-0.475000X0.337500X-0.475000X0*%
%ADD24RoundRect,0.625000X-1.375000X-0.625000X1.375000X-0.625000X1.375000X0.625000X-1.375000X0.625000X0*%
%ADD25RoundRect,0.250000X0.350000X0.450000X-0.350000X0.450000X-0.350000X-0.450000X0.350000X-0.450000X0*%
%ADD26RoundRect,0.250000X-0.337500X-0.475000X0.337500X-0.475000X0.337500X0.475000X-0.337500X0.475000X0*%
%ADD27C,8.000000*%
%ADD28RoundRect,0.500000X0.500000X1.500000X-0.500000X1.500000X-0.500000X-1.500000X0.500000X-1.500000X0*%
%ADD29RoundRect,0.500000X1.500000X-0.500000X1.500000X0.500000X-1.500000X0.500000X-1.500000X-0.500000X0*%
%ADD30RoundRect,1.000000X1.000000X1.500000X-1.000000X1.500000X-1.000000X-1.500000X1.000000X-1.500000X0*%
%ADD31R,2.700000X4.320000*%
%ADD32RoundRect,0.250000X-0.400000X-1.450000X0.400000X-1.450000X0.400000X1.450000X-0.400000X1.450000X0*%
%ADD33R,1.200000X2.200000*%
%ADD34R,5.800000X6.400000*%
%ADD35RoundRect,0.250000X0.875000X1.025000X-0.875000X1.025000X-0.875000X-1.025000X0.875000X-1.025000X0*%
%ADD36R,0.900000X1.300000*%
%ADD37FreePoly0,90.000000*%
%ADD38RoundRect,0.500000X-0.500000X-1.500000X0.500000X-1.500000X0.500000X1.500000X-0.500000X1.500000X0*%
%ADD39RoundRect,0.250000X-0.620000X-0.845000X0.620000X-0.845000X0.620000X0.845000X-0.620000X0.845000X0*%
%ADD40O,1.740000X2.190000*%
%ADD41RoundRect,0.250000X-0.475000X0.337500X-0.475000X-0.337500X0.475000X-0.337500X0.475000X0.337500X0*%
%ADD42R,0.800000X1.900000*%
%ADD43RoundRect,0.250000X0.450000X-0.350000X0.450000X0.350000X-0.450000X0.350000X-0.450000X-0.350000X0*%
%ADD44RoundRect,0.250000X-0.450000X0.350000X-0.450000X-0.350000X0.450000X-0.350000X0.450000X0.350000X0*%
%ADD45RoundRect,0.506757X-1.368243X1.368243X-1.368243X-1.368243X1.368243X-1.368243X1.368243X1.368243X0*%
%ADD46RoundRect,0.250000X1.350000X1.975000X-1.350000X1.975000X-1.350000X-1.975000X1.350000X-1.975000X0*%
%ADD47RoundRect,0.250000X-0.350000X-0.450000X0.350000X-0.450000X0.350000X0.450000X-0.350000X0.450000X0*%
%ADD48RoundRect,0.250000X0.650000X-0.412500X0.650000X0.412500X-0.650000X0.412500X-0.650000X-0.412500X0*%
%ADD49O,4.000000X3.000000*%
%ADD50R,2.500000X2.000000*%
%ADD51R,3.000000X3.000000*%
%ADD52RoundRect,0.250000X0.925000X-0.875000X0.925000X0.875000X-0.925000X0.875000X-0.925000X-0.875000X0*%
%ADD53RoundRect,1.000000X2.500000X-1.000000X2.500000X1.000000X-2.500000X1.000000X-2.500000X-1.000000X0*%
G04 APERTURE END LIST*
D10*
X80000000Y-110000000D02*
X180000000Y-110000000D01*
X153595238Y-33782380D02*
X154166666Y-33782380D01*
X153880952Y-34782380D02*
X153880952Y-33782380D01*
X154404762Y-33782380D02*
X155071428Y-34782380D01*
X155071428Y-33782380D02*
X154404762Y-34782380D01*
X156004762Y-34496666D02*
X156480952Y-34496666D01*
X155909524Y-34782380D02*
X156242857Y-33782380D01*
X156242857Y-33782380D02*
X156576190Y-34782380D01*
X157338095Y-34734761D02*
X157242857Y-34782380D01*
X157242857Y-34782380D02*
X157052381Y-34782380D01*
X157052381Y-34782380D02*
X156957143Y-34734761D01*
X156957143Y-34734761D02*
X156909524Y-34687142D01*
X156909524Y-34687142D02*
X156861905Y-34591904D01*
X156861905Y-34591904D02*
X156861905Y-34306190D01*
X156861905Y-34306190D02*
X156909524Y-34210952D01*
X156909524Y-34210952D02*
X156957143Y-34163333D01*
X156957143Y-34163333D02*
X157052381Y-34115714D01*
X157052381Y-34115714D02*
X157242857Y-34115714D01*
X157242857Y-34115714D02*
X157338095Y-34163333D01*
X157623810Y-34115714D02*
X158004762Y-34115714D01*
X157766667Y-33782380D02*
X157766667Y-34639523D01*
X157766667Y-34639523D02*
X157814286Y-34734761D01*
X157814286Y-34734761D02*
X157909524Y-34782380D01*
X157909524Y-34782380D02*
X158004762Y-34782380D01*
X158338096Y-34782380D02*
X158338096Y-34115714D01*
X158338096Y-33782380D02*
X158290477Y-33830000D01*
X158290477Y-33830000D02*
X158338096Y-33877619D01*
X158338096Y-33877619D02*
X158385715Y-33830000D01*
X158385715Y-33830000D02*
X158338096Y-33782380D01*
X158338096Y-33782380D02*
X158338096Y-33877619D01*
X158719048Y-34115714D02*
X158957143Y-34782380D01*
X158957143Y-34782380D02*
X159195238Y-34115714D01*
X159957143Y-34734761D02*
X159861905Y-34782380D01*
X159861905Y-34782380D02*
X159671429Y-34782380D01*
X159671429Y-34782380D02*
X159576191Y-34734761D01*
X159576191Y-34734761D02*
X159528572Y-34639523D01*
X159528572Y-34639523D02*
X159528572Y-34258571D01*
X159528572Y-34258571D02*
X159576191Y-34163333D01*
X159576191Y-34163333D02*
X159671429Y-34115714D01*
X159671429Y-34115714D02*
X159861905Y-34115714D01*
X159861905Y-34115714D02*
X159957143Y-34163333D01*
X159957143Y-34163333D02*
X160004762Y-34258571D01*
X160004762Y-34258571D02*
X160004762Y-34353809D01*
X160004762Y-34353809D02*
X159528572Y-34449047D01*
X161033334Y-34258571D02*
X161795239Y-34258571D01*
X161795239Y-34544285D02*
X161033334Y-34544285D01*
X162871429Y-34782380D02*
X162871429Y-33782380D01*
X163300000Y-34782380D02*
X163300000Y-34258571D01*
X163300000Y-34258571D02*
X163252381Y-34163333D01*
X163252381Y-34163333D02*
X163157143Y-34115714D01*
X163157143Y-34115714D02*
X163014286Y-34115714D01*
X163014286Y-34115714D02*
X162919048Y-34163333D01*
X162919048Y-34163333D02*
X162871429Y-34210952D01*
X163776191Y-34782380D02*
X163776191Y-34115714D01*
X163776191Y-33782380D02*
X163728572Y-33830000D01*
X163728572Y-33830000D02*
X163776191Y-33877619D01*
X163776191Y-33877619D02*
X163823810Y-33830000D01*
X163823810Y-33830000D02*
X163776191Y-33782380D01*
X163776191Y-33782380D02*
X163776191Y-33877619D01*
X164680952Y-34115714D02*
X164680952Y-34925238D01*
X164680952Y-34925238D02*
X164633333Y-35020476D01*
X164633333Y-35020476D02*
X164585714Y-35068095D01*
X164585714Y-35068095D02*
X164490476Y-35115714D01*
X164490476Y-35115714D02*
X164347619Y-35115714D01*
X164347619Y-35115714D02*
X164252381Y-35068095D01*
X164680952Y-34734761D02*
X164585714Y-34782380D01*
X164585714Y-34782380D02*
X164395238Y-34782380D01*
X164395238Y-34782380D02*
X164300000Y-34734761D01*
X164300000Y-34734761D02*
X164252381Y-34687142D01*
X164252381Y-34687142D02*
X164204762Y-34591904D01*
X164204762Y-34591904D02*
X164204762Y-34306190D01*
X164204762Y-34306190D02*
X164252381Y-34210952D01*
X164252381Y-34210952D02*
X164300000Y-34163333D01*
X164300000Y-34163333D02*
X164395238Y-34115714D01*
X164395238Y-34115714D02*
X164585714Y-34115714D01*
X164585714Y-34115714D02*
X164680952Y-34163333D01*
X165157143Y-34782380D02*
X165157143Y-33782380D01*
X165585714Y-34782380D02*
X165585714Y-34258571D01*
X165585714Y-34258571D02*
X165538095Y-34163333D01*
X165538095Y-34163333D02*
X165442857Y-34115714D01*
X165442857Y-34115714D02*
X165300000Y-34115714D01*
X165300000Y-34115714D02*
X165204762Y-34163333D01*
X165204762Y-34163333D02*
X165157143Y-34210952D01*
X171666666Y-67615714D02*
X171666666Y-68282380D01*
X171428571Y-67234761D02*
X171190476Y-67949047D01*
X171190476Y-67949047D02*
X171809523Y-67949047D01*
X172095238Y-67282380D02*
X172761904Y-67282380D01*
X172761904Y-67282380D02*
X172333333Y-68282380D01*
X174171428Y-68282380D02*
X174171428Y-67282380D01*
X174171428Y-68234761D02*
X174076190Y-68282380D01*
X174076190Y-68282380D02*
X173885714Y-68282380D01*
X173885714Y-68282380D02*
X173790476Y-68234761D01*
X173790476Y-68234761D02*
X173742857Y-68187142D01*
X173742857Y-68187142D02*
X173695238Y-68091904D01*
X173695238Y-68091904D02*
X173695238Y-67806190D01*
X173695238Y-67806190D02*
X173742857Y-67710952D01*
X173742857Y-67710952D02*
X173790476Y-67663333D01*
X173790476Y-67663333D02*
X173885714Y-67615714D01*
X173885714Y-67615714D02*
X174076190Y-67615714D01*
X174076190Y-67615714D02*
X174171428Y-67663333D01*
X174980952Y-67758571D02*
X175123809Y-67806190D01*
X175123809Y-67806190D02*
X175171428Y-67853809D01*
X175171428Y-67853809D02*
X175219047Y-67949047D01*
X175219047Y-67949047D02*
X175219047Y-68091904D01*
X175219047Y-68091904D02*
X175171428Y-68187142D01*
X175171428Y-68187142D02*
X175123809Y-68234761D01*
X175123809Y-68234761D02*
X175028571Y-68282380D01*
X175028571Y-68282380D02*
X174647619Y-68282380D01*
X174647619Y-68282380D02*
X174647619Y-67282380D01*
X174647619Y-67282380D02*
X174980952Y-67282380D01*
X174980952Y-67282380D02*
X175076190Y-67330000D01*
X175076190Y-67330000D02*
X175123809Y-67377619D01*
X175123809Y-67377619D02*
X175171428Y-67472857D01*
X175171428Y-67472857D02*
X175171428Y-67568095D01*
X175171428Y-67568095D02*
X175123809Y-67663333D01*
X175123809Y-67663333D02*
X175076190Y-67710952D01*
X175076190Y-67710952D02*
X174980952Y-67758571D01*
X174980952Y-67758571D02*
X174647619Y-67758571D01*
X175647619Y-68282380D02*
X175647619Y-67615714D01*
X175647619Y-67710952D02*
X175695238Y-67663333D01*
X175695238Y-67663333D02*
X175790476Y-67615714D01*
X175790476Y-67615714D02*
X175933333Y-67615714D01*
X175933333Y-67615714D02*
X176028571Y-67663333D01*
X176028571Y-67663333D02*
X176076190Y-67758571D01*
X176076190Y-67758571D02*
X176076190Y-68282380D01*
X176076190Y-67758571D02*
X176123809Y-67663333D01*
X176123809Y-67663333D02*
X176219047Y-67615714D01*
X176219047Y-67615714D02*
X176361904Y-67615714D01*
X176361904Y-67615714D02*
X176457143Y-67663333D01*
X176457143Y-67663333D02*
X176504762Y-67758571D01*
X176504762Y-67758571D02*
X176504762Y-68282380D01*
D11*
X142400000Y-37173571D02*
X141257142Y-37602142D01*
X141257142Y-37602142D02*
X142400000Y-38030714D01*
X144014285Y-38173571D02*
X144014285Y-36673571D01*
X144014285Y-36673571D02*
X144585714Y-36673571D01*
X144585714Y-36673571D02*
X144728571Y-36745000D01*
X144728571Y-36745000D02*
X144800000Y-36816428D01*
X144800000Y-36816428D02*
X144871428Y-36959285D01*
X144871428Y-36959285D02*
X144871428Y-37173571D01*
X144871428Y-37173571D02*
X144800000Y-37316428D01*
X144800000Y-37316428D02*
X144728571Y-37387857D01*
X144728571Y-37387857D02*
X144585714Y-37459285D01*
X144585714Y-37459285D02*
X144014285Y-37459285D01*
X145300000Y-36673571D02*
X146157143Y-36673571D01*
X145728571Y-38173571D02*
X145728571Y-36673571D01*
X146442857Y-36673571D02*
X147300000Y-36673571D01*
X146871428Y-38173571D02*
X146871428Y-36673571D01*
X148699999Y-38173571D02*
X148699999Y-36673571D01*
X149414285Y-37173571D02*
X149414285Y-38173571D01*
X149414285Y-37316428D02*
X149485714Y-37245000D01*
X149485714Y-37245000D02*
X149628571Y-37173571D01*
X149628571Y-37173571D02*
X149842857Y-37173571D01*
X149842857Y-37173571D02*
X149985714Y-37245000D01*
X149985714Y-37245000D02*
X150057143Y-37387857D01*
X150057143Y-37387857D02*
X150057143Y-38173571D01*
D10*
X108283333Y-90857166D02*
X108283333Y-90157166D01*
X108283333Y-90157166D02*
X108450000Y-90157166D01*
X108450000Y-90157166D02*
X108550000Y-90190500D01*
X108550000Y-90190500D02*
X108616667Y-90257166D01*
X108616667Y-90257166D02*
X108650000Y-90323833D01*
X108650000Y-90323833D02*
X108683333Y-90457166D01*
X108683333Y-90457166D02*
X108683333Y-90557166D01*
X108683333Y-90557166D02*
X108650000Y-90690500D01*
X108650000Y-90690500D02*
X108616667Y-90757166D01*
X108616667Y-90757166D02*
X108550000Y-90823833D01*
X108550000Y-90823833D02*
X108450000Y-90857166D01*
X108450000Y-90857166D02*
X108283333Y-90857166D01*
X109350000Y-90857166D02*
X108950000Y-90857166D01*
X109150000Y-90857166D02*
X109150000Y-90157166D01*
X109150000Y-90157166D02*
X109083333Y-90257166D01*
X109083333Y-90257166D02*
X109016667Y-90323833D01*
X109016667Y-90323833D02*
X108950000Y-90357166D01*
X89282380Y-82357142D02*
X89282380Y-81690476D01*
X89282380Y-81690476D02*
X90282380Y-82119047D01*
X90282380Y-80880952D02*
X89282380Y-80880952D01*
X90234761Y-80880952D02*
X90282380Y-80976190D01*
X90282380Y-80976190D02*
X90282380Y-81166666D01*
X90282380Y-81166666D02*
X90234761Y-81261904D01*
X90234761Y-81261904D02*
X90187142Y-81309523D01*
X90187142Y-81309523D02*
X90091904Y-81357142D01*
X90091904Y-81357142D02*
X89806190Y-81357142D01*
X89806190Y-81357142D02*
X89710952Y-81309523D01*
X89710952Y-81309523D02*
X89663333Y-81261904D01*
X89663333Y-81261904D02*
X89615714Y-81166666D01*
X89615714Y-81166666D02*
X89615714Y-80976190D01*
X89615714Y-80976190D02*
X89663333Y-80880952D01*
X89758571Y-80071428D02*
X89806190Y-79928571D01*
X89806190Y-79928571D02*
X89853809Y-79880952D01*
X89853809Y-79880952D02*
X89949047Y-79833333D01*
X89949047Y-79833333D02*
X90091904Y-79833333D01*
X90091904Y-79833333D02*
X90187142Y-79880952D01*
X90187142Y-79880952D02*
X90234761Y-79928571D01*
X90234761Y-79928571D02*
X90282380Y-80023809D01*
X90282380Y-80023809D02*
X90282380Y-80404761D01*
X90282380Y-80404761D02*
X89282380Y-80404761D01*
X89282380Y-80404761D02*
X89282380Y-80071428D01*
X89282380Y-80071428D02*
X89330000Y-79976190D01*
X89330000Y-79976190D02*
X89377619Y-79928571D01*
X89377619Y-79928571D02*
X89472857Y-79880952D01*
X89472857Y-79880952D02*
X89568095Y-79880952D01*
X89568095Y-79880952D02*
X89663333Y-79928571D01*
X89663333Y-79928571D02*
X89710952Y-79976190D01*
X89710952Y-79976190D02*
X89758571Y-80071428D01*
X89758571Y-80071428D02*
X89758571Y-80404761D01*
X90282380Y-79404761D02*
X89615714Y-79404761D01*
X89710952Y-79404761D02*
X89663333Y-79357142D01*
X89663333Y-79357142D02*
X89615714Y-79261904D01*
X89615714Y-79261904D02*
X89615714Y-79119047D01*
X89615714Y-79119047D02*
X89663333Y-79023809D01*
X89663333Y-79023809D02*
X89758571Y-78976190D01*
X89758571Y-78976190D02*
X90282380Y-78976190D01*
X89758571Y-78976190D02*
X89663333Y-78928571D01*
X89663333Y-78928571D02*
X89615714Y-78833333D01*
X89615714Y-78833333D02*
X89615714Y-78690476D01*
X89615714Y-78690476D02*
X89663333Y-78595237D01*
X89663333Y-78595237D02*
X89758571Y-78547618D01*
X89758571Y-78547618D02*
X90282380Y-78547618D01*
X90282380Y-77471428D02*
X89615714Y-77471428D01*
X89710952Y-77471428D02*
X89663333Y-77423809D01*
X89663333Y-77423809D02*
X89615714Y-77328571D01*
X89615714Y-77328571D02*
X89615714Y-77185714D01*
X89615714Y-77185714D02*
X89663333Y-77090476D01*
X89663333Y-77090476D02*
X89758571Y-77042857D01*
X89758571Y-77042857D02*
X90282380Y-77042857D01*
X89758571Y-77042857D02*
X89663333Y-76995238D01*
X89663333Y-76995238D02*
X89615714Y-76900000D01*
X89615714Y-76900000D02*
X89615714Y-76757143D01*
X89615714Y-76757143D02*
X89663333Y-76661904D01*
X89663333Y-76661904D02*
X89758571Y-76614285D01*
X89758571Y-76614285D02*
X90282380Y-76614285D01*
X90282380Y-75709524D02*
X89758571Y-75709524D01*
X89758571Y-75709524D02*
X89663333Y-75757143D01*
X89663333Y-75757143D02*
X89615714Y-75852381D01*
X89615714Y-75852381D02*
X89615714Y-76042857D01*
X89615714Y-76042857D02*
X89663333Y-76138095D01*
X90234761Y-75709524D02*
X90282380Y-75804762D01*
X90282380Y-75804762D02*
X90282380Y-76042857D01*
X90282380Y-76042857D02*
X90234761Y-76138095D01*
X90234761Y-76138095D02*
X90139523Y-76185714D01*
X90139523Y-76185714D02*
X90044285Y-76185714D01*
X90044285Y-76185714D02*
X89949047Y-76138095D01*
X89949047Y-76138095D02*
X89901428Y-76042857D01*
X89901428Y-76042857D02*
X89901428Y-75804762D01*
X89901428Y-75804762D02*
X89853809Y-75709524D01*
X90282380Y-75328571D02*
X89615714Y-74804762D01*
X89615714Y-75328571D02*
X90282380Y-74804762D01*
D11*
X106485714Y-37366071D02*
X105342856Y-37794642D01*
X105342856Y-37794642D02*
X106485714Y-38223214D01*
X107199999Y-38366071D02*
X107199999Y-36866071D01*
X107199999Y-36866071D02*
X107771428Y-36866071D01*
X107771428Y-36866071D02*
X107914285Y-36937500D01*
X107914285Y-36937500D02*
X107985714Y-37008928D01*
X107985714Y-37008928D02*
X108057142Y-37151785D01*
X108057142Y-37151785D02*
X108057142Y-37366071D01*
X108057142Y-37366071D02*
X107985714Y-37508928D01*
X107985714Y-37508928D02*
X107914285Y-37580357D01*
X107914285Y-37580357D02*
X107771428Y-37651785D01*
X107771428Y-37651785D02*
X107199999Y-37651785D01*
X108485714Y-36866071D02*
X109342857Y-36866071D01*
X108914285Y-38366071D02*
X108914285Y-36866071D01*
X109628571Y-36866071D02*
X110485714Y-36866071D01*
X110057142Y-38366071D02*
X110057142Y-36866071D01*
X112171428Y-36866071D02*
X112457142Y-36866071D01*
X112457142Y-36866071D02*
X112599999Y-36937500D01*
X112599999Y-36937500D02*
X112742856Y-37080357D01*
X112742856Y-37080357D02*
X112814285Y-37366071D01*
X112814285Y-37366071D02*
X112814285Y-37866071D01*
X112814285Y-37866071D02*
X112742856Y-38151785D01*
X112742856Y-38151785D02*
X112599999Y-38294642D01*
X112599999Y-38294642D02*
X112457142Y-38366071D01*
X112457142Y-38366071D02*
X112171428Y-38366071D01*
X112171428Y-38366071D02*
X112028571Y-38294642D01*
X112028571Y-38294642D02*
X111885713Y-38151785D01*
X111885713Y-38151785D02*
X111814285Y-37866071D01*
X111814285Y-37866071D02*
X111814285Y-37366071D01*
X111814285Y-37366071D02*
X111885713Y-37080357D01*
X111885713Y-37080357D02*
X112028571Y-36937500D01*
X112028571Y-36937500D02*
X112171428Y-36866071D01*
X114100000Y-37366071D02*
X114100000Y-38366071D01*
X113457142Y-37366071D02*
X113457142Y-38151785D01*
X113457142Y-38151785D02*
X113528571Y-38294642D01*
X113528571Y-38294642D02*
X113671428Y-38366071D01*
X113671428Y-38366071D02*
X113885714Y-38366071D01*
X113885714Y-38366071D02*
X114028571Y-38294642D01*
X114028571Y-38294642D02*
X114100000Y-38223214D01*
X114600000Y-37366071D02*
X115171428Y-37366071D01*
X114814285Y-36866071D02*
X114814285Y-38151785D01*
X114814285Y-38151785D02*
X114885714Y-38294642D01*
X114885714Y-38294642D02*
X115028571Y-38366071D01*
X115028571Y-38366071D02*
X115171428Y-38366071D01*
D12*
X174265238Y-78638095D02*
X175217619Y-77971428D01*
X174265238Y-77495238D02*
X176265238Y-77495238D01*
X176265238Y-77495238D02*
X176265238Y-78257143D01*
X176265238Y-78257143D02*
X176170000Y-78447619D01*
X176170000Y-78447619D02*
X176074761Y-78542857D01*
X176074761Y-78542857D02*
X175884285Y-78638095D01*
X175884285Y-78638095D02*
X175598571Y-78638095D01*
X175598571Y-78638095D02*
X175408095Y-78542857D01*
X175408095Y-78542857D02*
X175312857Y-78447619D01*
X175312857Y-78447619D02*
X175217619Y-78257143D01*
X175217619Y-78257143D02*
X175217619Y-77495238D01*
X175312857Y-80161905D02*
X175312857Y-79495238D01*
X174265238Y-79495238D02*
X176265238Y-79495238D01*
X176265238Y-79495238D02*
X176265238Y-80447619D01*
X176265238Y-82790476D02*
X176265238Y-83171429D01*
X176265238Y-83171429D02*
X176170000Y-83361905D01*
X176170000Y-83361905D02*
X175979523Y-83552381D01*
X175979523Y-83552381D02*
X175598571Y-83647619D01*
X175598571Y-83647619D02*
X174931904Y-83647619D01*
X174931904Y-83647619D02*
X174550952Y-83552381D01*
X174550952Y-83552381D02*
X174360476Y-83361905D01*
X174360476Y-83361905D02*
X174265238Y-83171429D01*
X174265238Y-83171429D02*
X174265238Y-82790476D01*
X174265238Y-82790476D02*
X174360476Y-82600000D01*
X174360476Y-82600000D02*
X174550952Y-82409524D01*
X174550952Y-82409524D02*
X174931904Y-82314286D01*
X174931904Y-82314286D02*
X175598571Y-82314286D01*
X175598571Y-82314286D02*
X175979523Y-82409524D01*
X175979523Y-82409524D02*
X176170000Y-82600000D01*
X176170000Y-82600000D02*
X176265238Y-82790476D01*
X175598571Y-85361905D02*
X174265238Y-85361905D01*
X175598571Y-84504762D02*
X174550952Y-84504762D01*
X174550952Y-84504762D02*
X174360476Y-84600000D01*
X174360476Y-84600000D02*
X174265238Y-84790476D01*
X174265238Y-84790476D02*
X174265238Y-85076191D01*
X174265238Y-85076191D02*
X174360476Y-85266667D01*
X174360476Y-85266667D02*
X174455714Y-85361905D01*
X175598571Y-86028572D02*
X175598571Y-86790476D01*
X176265238Y-86314286D02*
X174550952Y-86314286D01*
X174550952Y-86314286D02*
X174360476Y-86409524D01*
X174360476Y-86409524D02*
X174265238Y-86600000D01*
X174265238Y-86600000D02*
X174265238Y-86790476D01*
D11*
X108285714Y-63445000D02*
X109000000Y-63445000D01*
X108142857Y-63873571D02*
X108642857Y-62373571D01*
X108642857Y-62373571D02*
X109142857Y-63873571D01*
X109642856Y-62873571D02*
X109642856Y-63873571D01*
X109642856Y-63016428D02*
X109714285Y-62945000D01*
X109714285Y-62945000D02*
X109857142Y-62873571D01*
X109857142Y-62873571D02*
X110071428Y-62873571D01*
X110071428Y-62873571D02*
X110214285Y-62945000D01*
X110214285Y-62945000D02*
X110285714Y-63087857D01*
X110285714Y-63087857D02*
X110285714Y-63873571D01*
X108357142Y-93173571D02*
X108357142Y-91673571D01*
X109214285Y-93173571D02*
X108571428Y-92316428D01*
X109214285Y-91673571D02*
X108357142Y-92530714D01*
X110500000Y-93173571D02*
X110500000Y-92387857D01*
X110500000Y-92387857D02*
X110428571Y-92245000D01*
X110428571Y-92245000D02*
X110285714Y-92173571D01*
X110285714Y-92173571D02*
X110000000Y-92173571D01*
X110000000Y-92173571D02*
X109857142Y-92245000D01*
X110500000Y-93102142D02*
X110357142Y-93173571D01*
X110357142Y-93173571D02*
X110000000Y-93173571D01*
X110000000Y-93173571D02*
X109857142Y-93102142D01*
X109857142Y-93102142D02*
X109785714Y-92959285D01*
X109785714Y-92959285D02*
X109785714Y-92816428D01*
X109785714Y-92816428D02*
X109857142Y-92673571D01*
X109857142Y-92673571D02*
X110000000Y-92602142D01*
X110000000Y-92602142D02*
X110357142Y-92602142D01*
X110357142Y-92602142D02*
X110500000Y-92530714D01*
D12*
X147828571Y-115494761D02*
X149161904Y-117494761D01*
X149161904Y-115494761D02*
X147828571Y-117494761D01*
X151257142Y-117685238D02*
X151066666Y-117590000D01*
X151066666Y-117590000D02*
X150876190Y-117399523D01*
X150876190Y-117399523D02*
X150590476Y-117113809D01*
X150590476Y-117113809D02*
X150399999Y-117018571D01*
X150399999Y-117018571D02*
X150209523Y-117018571D01*
X150304761Y-117494761D02*
X150114285Y-117399523D01*
X150114285Y-117399523D02*
X149923809Y-117209047D01*
X149923809Y-117209047D02*
X149828571Y-116828095D01*
X149828571Y-116828095D02*
X149828571Y-116161428D01*
X149828571Y-116161428D02*
X149923809Y-115780476D01*
X149923809Y-115780476D02*
X150114285Y-115590000D01*
X150114285Y-115590000D02*
X150304761Y-115494761D01*
X150304761Y-115494761D02*
X150685714Y-115494761D01*
X150685714Y-115494761D02*
X150876190Y-115590000D01*
X150876190Y-115590000D02*
X151066666Y-115780476D01*
X151066666Y-115780476D02*
X151161904Y-116161428D01*
X151161904Y-116161428D02*
X151161904Y-116828095D01*
X151161904Y-116828095D02*
X151066666Y-117209047D01*
X151066666Y-117209047D02*
X150876190Y-117399523D01*
X150876190Y-117399523D02*
X150685714Y-117494761D01*
X150685714Y-117494761D02*
X150304761Y-117494761D01*
X152876190Y-115494761D02*
X152495237Y-115494761D01*
X152495237Y-115494761D02*
X152304761Y-115590000D01*
X152304761Y-115590000D02*
X152209523Y-115685238D01*
X152209523Y-115685238D02*
X152019047Y-115970952D01*
X152019047Y-115970952D02*
X151923809Y-116351904D01*
X151923809Y-116351904D02*
X151923809Y-117113809D01*
X151923809Y-117113809D02*
X152019047Y-117304285D01*
X152019047Y-117304285D02*
X152114285Y-117399523D01*
X152114285Y-117399523D02*
X152304761Y-117494761D01*
X152304761Y-117494761D02*
X152685714Y-117494761D01*
X152685714Y-117494761D02*
X152876190Y-117399523D01*
X152876190Y-117399523D02*
X152971428Y-117304285D01*
X152971428Y-117304285D02*
X153066666Y-117113809D01*
X153066666Y-117113809D02*
X153066666Y-116637619D01*
X153066666Y-116637619D02*
X152971428Y-116447142D01*
X152971428Y-116447142D02*
X152876190Y-116351904D01*
X152876190Y-116351904D02*
X152685714Y-116256666D01*
X152685714Y-116256666D02*
X152304761Y-116256666D01*
X152304761Y-116256666D02*
X152114285Y-116351904D01*
X152114285Y-116351904D02*
X152019047Y-116447142D01*
X152019047Y-116447142D02*
X151923809Y-116637619D01*
X154590476Y-116447142D02*
X153923809Y-116447142D01*
X153923809Y-117494761D02*
X153923809Y-115494761D01*
X153923809Y-115494761D02*
X154876190Y-115494761D01*
X156019047Y-115494761D02*
X156400000Y-115494761D01*
X156400000Y-115494761D02*
X156590476Y-115590000D01*
X156590476Y-115590000D02*
X156780952Y-115780476D01*
X156780952Y-115780476D02*
X156876190Y-116161428D01*
X156876190Y-116161428D02*
X156876190Y-116828095D01*
X156876190Y-116828095D02*
X156780952Y-117209047D01*
X156780952Y-117209047D02*
X156590476Y-117399523D01*
X156590476Y-117399523D02*
X156400000Y-117494761D01*
X156400000Y-117494761D02*
X156019047Y-117494761D01*
X156019047Y-117494761D02*
X155828571Y-117399523D01*
X155828571Y-117399523D02*
X155638095Y-117209047D01*
X155638095Y-117209047D02*
X155542857Y-116828095D01*
X155542857Y-116828095D02*
X155542857Y-116161428D01*
X155542857Y-116161428D02*
X155638095Y-115780476D01*
X155638095Y-115780476D02*
X155828571Y-115590000D01*
X155828571Y-115590000D02*
X156019047Y-115494761D01*
X157733333Y-117494761D02*
X157733333Y-115494761D01*
X157733333Y-115494761D02*
X158209523Y-115494761D01*
X158209523Y-115494761D02*
X158495238Y-115590000D01*
X158495238Y-115590000D02*
X158685714Y-115780476D01*
X158685714Y-115780476D02*
X158780952Y-115970952D01*
X158780952Y-115970952D02*
X158876190Y-116351904D01*
X158876190Y-116351904D02*
X158876190Y-116637619D01*
X158876190Y-116637619D02*
X158780952Y-117018571D01*
X158780952Y-117018571D02*
X158685714Y-117209047D01*
X158685714Y-117209047D02*
X158495238Y-117399523D01*
X158495238Y-117399523D02*
X158209523Y-117494761D01*
X158209523Y-117494761D02*
X157733333Y-117494761D01*
X143723809Y-118734761D02*
X142771428Y-118734761D01*
X142771428Y-118734761D02*
X142676190Y-119687142D01*
X142676190Y-119687142D02*
X142771428Y-119591904D01*
X142771428Y-119591904D02*
X142961904Y-119496666D01*
X142961904Y-119496666D02*
X143438095Y-119496666D01*
X143438095Y-119496666D02*
X143628571Y-119591904D01*
X143628571Y-119591904D02*
X143723809Y-119687142D01*
X143723809Y-119687142D02*
X143819047Y-119877619D01*
X143819047Y-119877619D02*
X143819047Y-120353809D01*
X143819047Y-120353809D02*
X143723809Y-120544285D01*
X143723809Y-120544285D02*
X143628571Y-120639523D01*
X143628571Y-120639523D02*
X143438095Y-120734761D01*
X143438095Y-120734761D02*
X142961904Y-120734761D01*
X142961904Y-120734761D02*
X142771428Y-120639523D01*
X142771428Y-120639523D02*
X142676190Y-120544285D01*
X145057142Y-118734761D02*
X145247619Y-118734761D01*
X145247619Y-118734761D02*
X145438095Y-118830000D01*
X145438095Y-118830000D02*
X145533333Y-118925238D01*
X145533333Y-118925238D02*
X145628571Y-119115714D01*
X145628571Y-119115714D02*
X145723809Y-119496666D01*
X145723809Y-119496666D02*
X145723809Y-119972857D01*
X145723809Y-119972857D02*
X145628571Y-120353809D01*
X145628571Y-120353809D02*
X145533333Y-120544285D01*
X145533333Y-120544285D02*
X145438095Y-120639523D01*
X145438095Y-120639523D02*
X145247619Y-120734761D01*
X145247619Y-120734761D02*
X145057142Y-120734761D01*
X145057142Y-120734761D02*
X144866666Y-120639523D01*
X144866666Y-120639523D02*
X144771428Y-120544285D01*
X144771428Y-120544285D02*
X144676190Y-120353809D01*
X144676190Y-120353809D02*
X144580952Y-119972857D01*
X144580952Y-119972857D02*
X144580952Y-119496666D01*
X144580952Y-119496666D02*
X144676190Y-119115714D01*
X144676190Y-119115714D02*
X144771428Y-118925238D01*
X144771428Y-118925238D02*
X144866666Y-118830000D01*
X144866666Y-118830000D02*
X145057142Y-118734761D01*
X146390476Y-118734761D02*
X146866666Y-120734761D01*
X146866666Y-120734761D02*
X147247619Y-119306190D01*
X147247619Y-119306190D02*
X147628571Y-120734761D01*
X147628571Y-120734761D02*
X148104762Y-118734761D01*
X151019047Y-120734761D02*
X150066666Y-120734761D01*
X150066666Y-120734761D02*
X150066666Y-118734761D01*
X151685714Y-120734761D02*
X151685714Y-118734761D01*
X151685714Y-118734761D02*
X152161904Y-118734761D01*
X152161904Y-118734761D02*
X152447619Y-118830000D01*
X152447619Y-118830000D02*
X152638095Y-119020476D01*
X152638095Y-119020476D02*
X152733333Y-119210952D01*
X152733333Y-119210952D02*
X152828571Y-119591904D01*
X152828571Y-119591904D02*
X152828571Y-119877619D01*
X152828571Y-119877619D02*
X152733333Y-120258571D01*
X152733333Y-120258571D02*
X152638095Y-120449047D01*
X152638095Y-120449047D02*
X152447619Y-120639523D01*
X152447619Y-120639523D02*
X152161904Y-120734761D01*
X152161904Y-120734761D02*
X151685714Y-120734761D01*
X153685714Y-120734761D02*
X153685714Y-118734761D01*
X153685714Y-118734761D02*
X154352381Y-120163333D01*
X154352381Y-120163333D02*
X155019047Y-118734761D01*
X155019047Y-118734761D02*
X155019047Y-120734761D01*
X156352380Y-118734761D02*
X156733333Y-118734761D01*
X156733333Y-118734761D02*
X156923809Y-118830000D01*
X156923809Y-118830000D02*
X157114285Y-119020476D01*
X157114285Y-119020476D02*
X157209523Y-119401428D01*
X157209523Y-119401428D02*
X157209523Y-120068095D01*
X157209523Y-120068095D02*
X157114285Y-120449047D01*
X157114285Y-120449047D02*
X156923809Y-120639523D01*
X156923809Y-120639523D02*
X156733333Y-120734761D01*
X156733333Y-120734761D02*
X156352380Y-120734761D01*
X156352380Y-120734761D02*
X156161904Y-120639523D01*
X156161904Y-120639523D02*
X155971428Y-120449047D01*
X155971428Y-120449047D02*
X155876190Y-120068095D01*
X155876190Y-120068095D02*
X155876190Y-119401428D01*
X155876190Y-119401428D02*
X155971428Y-119020476D01*
X155971428Y-119020476D02*
X156161904Y-118830000D01*
X156161904Y-118830000D02*
X156352380Y-118734761D01*
X157971428Y-120639523D02*
X158257142Y-120734761D01*
X158257142Y-120734761D02*
X158733333Y-120734761D01*
X158733333Y-120734761D02*
X158923809Y-120639523D01*
X158923809Y-120639523D02*
X159019047Y-120544285D01*
X159019047Y-120544285D02*
X159114285Y-120353809D01*
X159114285Y-120353809D02*
X159114285Y-120163333D01*
X159114285Y-120163333D02*
X159019047Y-119972857D01*
X159019047Y-119972857D02*
X158923809Y-119877619D01*
X158923809Y-119877619D02*
X158733333Y-119782380D01*
X158733333Y-119782380D02*
X158352380Y-119687142D01*
X158352380Y-119687142D02*
X158161904Y-119591904D01*
X158161904Y-119591904D02*
X158066666Y-119496666D01*
X158066666Y-119496666D02*
X157971428Y-119306190D01*
X157971428Y-119306190D02*
X157971428Y-119115714D01*
X157971428Y-119115714D02*
X158066666Y-118925238D01*
X158066666Y-118925238D02*
X158161904Y-118830000D01*
X158161904Y-118830000D02*
X158352380Y-118734761D01*
X158352380Y-118734761D02*
X158828571Y-118734761D01*
X158828571Y-118734761D02*
X159114285Y-118830000D01*
X161171428Y-120734761D02*
X161171428Y-118734761D01*
X161171428Y-119687142D02*
X162314285Y-119687142D01*
X162314285Y-120734761D02*
X162314285Y-118734761D01*
X163933333Y-119687142D02*
X163266666Y-119687142D01*
X163266666Y-120734761D02*
X163266666Y-118734761D01*
X163266666Y-118734761D02*
X164219047Y-118734761D01*
X143638094Y-123974761D02*
X142685713Y-123974761D01*
X142685713Y-123974761D02*
X142685713Y-121974761D01*
X144304761Y-123974761D02*
X144304761Y-122641428D01*
X144304761Y-121974761D02*
X144209523Y-122070000D01*
X144209523Y-122070000D02*
X144304761Y-122165238D01*
X144304761Y-122165238D02*
X144399999Y-122070000D01*
X144399999Y-122070000D02*
X144304761Y-121974761D01*
X144304761Y-121974761D02*
X144304761Y-122165238D01*
X145257142Y-122641428D02*
X145257142Y-123974761D01*
X145257142Y-122831904D02*
X145352380Y-122736666D01*
X145352380Y-122736666D02*
X145542856Y-122641428D01*
X145542856Y-122641428D02*
X145828571Y-122641428D01*
X145828571Y-122641428D02*
X146019047Y-122736666D01*
X146019047Y-122736666D02*
X146114285Y-122927142D01*
X146114285Y-122927142D02*
X146114285Y-123974761D01*
X147828571Y-123879523D02*
X147638095Y-123974761D01*
X147638095Y-123974761D02*
X147257142Y-123974761D01*
X147257142Y-123974761D02*
X147066666Y-123879523D01*
X147066666Y-123879523D02*
X146971428Y-123689047D01*
X146971428Y-123689047D02*
X146971428Y-122927142D01*
X146971428Y-122927142D02*
X147066666Y-122736666D01*
X147066666Y-122736666D02*
X147257142Y-122641428D01*
X147257142Y-122641428D02*
X147638095Y-122641428D01*
X147638095Y-122641428D02*
X147828571Y-122736666D01*
X147828571Y-122736666D02*
X147923809Y-122927142D01*
X147923809Y-122927142D02*
X147923809Y-123117619D01*
X147923809Y-123117619D02*
X146971428Y-123308095D01*
X149638095Y-123974761D02*
X149638095Y-122927142D01*
X149638095Y-122927142D02*
X149542857Y-122736666D01*
X149542857Y-122736666D02*
X149352381Y-122641428D01*
X149352381Y-122641428D02*
X148971428Y-122641428D01*
X148971428Y-122641428D02*
X148780952Y-122736666D01*
X149638095Y-123879523D02*
X149447619Y-123974761D01*
X149447619Y-123974761D02*
X148971428Y-123974761D01*
X148971428Y-123974761D02*
X148780952Y-123879523D01*
X148780952Y-123879523D02*
X148685714Y-123689047D01*
X148685714Y-123689047D02*
X148685714Y-123498571D01*
X148685714Y-123498571D02*
X148780952Y-123308095D01*
X148780952Y-123308095D02*
X148971428Y-123212857D01*
X148971428Y-123212857D02*
X149447619Y-123212857D01*
X149447619Y-123212857D02*
X149638095Y-123117619D01*
X150590476Y-123974761D02*
X150590476Y-122641428D01*
X150590476Y-123022380D02*
X150685714Y-122831904D01*
X150685714Y-122831904D02*
X150780952Y-122736666D01*
X150780952Y-122736666D02*
X150971428Y-122641428D01*
X150971428Y-122641428D02*
X151161905Y-122641428D01*
X152933333Y-123403333D02*
X153885714Y-123403333D01*
X152742857Y-123974761D02*
X153409523Y-121974761D01*
X153409523Y-121974761D02*
X154076190Y-123974761D01*
X154742857Y-123974761D02*
X154742857Y-122641428D01*
X154742857Y-122831904D02*
X154838095Y-122736666D01*
X154838095Y-122736666D02*
X155028571Y-122641428D01*
X155028571Y-122641428D02*
X155314286Y-122641428D01*
X155314286Y-122641428D02*
X155504762Y-122736666D01*
X155504762Y-122736666D02*
X155600000Y-122927142D01*
X155600000Y-122927142D02*
X155600000Y-123974761D01*
X155600000Y-122927142D02*
X155695238Y-122736666D01*
X155695238Y-122736666D02*
X155885714Y-122641428D01*
X155885714Y-122641428D02*
X156171428Y-122641428D01*
X156171428Y-122641428D02*
X156361905Y-122736666D01*
X156361905Y-122736666D02*
X156457143Y-122927142D01*
X156457143Y-122927142D02*
X156457143Y-123974761D01*
X157409524Y-122641428D02*
X157409524Y-124641428D01*
X157409524Y-122736666D02*
X157600000Y-122641428D01*
X157600000Y-122641428D02*
X157980953Y-122641428D01*
X157980953Y-122641428D02*
X158171429Y-122736666D01*
X158171429Y-122736666D02*
X158266667Y-122831904D01*
X158266667Y-122831904D02*
X158361905Y-123022380D01*
X158361905Y-123022380D02*
X158361905Y-123593809D01*
X158361905Y-123593809D02*
X158266667Y-123784285D01*
X158266667Y-123784285D02*
X158171429Y-123879523D01*
X158171429Y-123879523D02*
X157980953Y-123974761D01*
X157980953Y-123974761D02*
X157600000Y-123974761D01*
X157600000Y-123974761D02*
X157409524Y-123879523D01*
X159504762Y-123974761D02*
X159314286Y-123879523D01*
X159314286Y-123879523D02*
X159219048Y-123689047D01*
X159219048Y-123689047D02*
X159219048Y-121974761D01*
X160266667Y-123974761D02*
X160266667Y-122641428D01*
X160266667Y-121974761D02*
X160171429Y-122070000D01*
X160171429Y-122070000D02*
X160266667Y-122165238D01*
X160266667Y-122165238D02*
X160361905Y-122070000D01*
X160361905Y-122070000D02*
X160266667Y-121974761D01*
X160266667Y-121974761D02*
X160266667Y-122165238D01*
X160933334Y-122641428D02*
X161695238Y-122641428D01*
X161219048Y-123974761D02*
X161219048Y-122260476D01*
X161219048Y-122260476D02*
X161314286Y-122070000D01*
X161314286Y-122070000D02*
X161504762Y-121974761D01*
X161504762Y-121974761D02*
X161695238Y-121974761D01*
X162361905Y-123974761D02*
X162361905Y-122641428D01*
X162361905Y-121974761D02*
X162266667Y-122070000D01*
X162266667Y-122070000D02*
X162361905Y-122165238D01*
X162361905Y-122165238D02*
X162457143Y-122070000D01*
X162457143Y-122070000D02*
X162361905Y-121974761D01*
X162361905Y-121974761D02*
X162361905Y-122165238D01*
X164076191Y-123879523D02*
X163885715Y-123974761D01*
X163885715Y-123974761D02*
X163504762Y-123974761D01*
X163504762Y-123974761D02*
X163314286Y-123879523D01*
X163314286Y-123879523D02*
X163219048Y-123689047D01*
X163219048Y-123689047D02*
X163219048Y-122927142D01*
X163219048Y-122927142D02*
X163314286Y-122736666D01*
X163314286Y-122736666D02*
X163504762Y-122641428D01*
X163504762Y-122641428D02*
X163885715Y-122641428D01*
X163885715Y-122641428D02*
X164076191Y-122736666D01*
X164076191Y-122736666D02*
X164171429Y-122927142D01*
X164171429Y-122927142D02*
X164171429Y-123117619D01*
X164171429Y-123117619D02*
X163219048Y-123308095D01*
X165028572Y-123974761D02*
X165028572Y-122641428D01*
X165028572Y-123022380D02*
X165123810Y-122831904D01*
X165123810Y-122831904D02*
X165219048Y-122736666D01*
X165219048Y-122736666D02*
X165409524Y-122641428D01*
X165409524Y-122641428D02*
X165600001Y-122641428D01*
D10*
X153571428Y-36518571D02*
X153238095Y-36518571D01*
X153238095Y-37042380D02*
X153238095Y-36042380D01*
X153238095Y-36042380D02*
X153714285Y-36042380D01*
X154095238Y-37042380D02*
X154095238Y-36375714D01*
X154095238Y-36566190D02*
X154142857Y-36470952D01*
X154142857Y-36470952D02*
X154190476Y-36423333D01*
X154190476Y-36423333D02*
X154285714Y-36375714D01*
X154285714Y-36375714D02*
X154380952Y-36375714D01*
X154857143Y-37042380D02*
X154761905Y-36994761D01*
X154761905Y-36994761D02*
X154714286Y-36947142D01*
X154714286Y-36947142D02*
X154666667Y-36851904D01*
X154666667Y-36851904D02*
X154666667Y-36566190D01*
X154666667Y-36566190D02*
X154714286Y-36470952D01*
X154714286Y-36470952D02*
X154761905Y-36423333D01*
X154761905Y-36423333D02*
X154857143Y-36375714D01*
X154857143Y-36375714D02*
X155000000Y-36375714D01*
X155000000Y-36375714D02*
X155095238Y-36423333D01*
X155095238Y-36423333D02*
X155142857Y-36470952D01*
X155142857Y-36470952D02*
X155190476Y-36566190D01*
X155190476Y-36566190D02*
X155190476Y-36851904D01*
X155190476Y-36851904D02*
X155142857Y-36947142D01*
X155142857Y-36947142D02*
X155095238Y-36994761D01*
X155095238Y-36994761D02*
X155000000Y-37042380D01*
X155000000Y-37042380D02*
X154857143Y-37042380D01*
X155619048Y-37042380D02*
X155619048Y-36375714D01*
X155619048Y-36470952D02*
X155666667Y-36423333D01*
X155666667Y-36423333D02*
X155761905Y-36375714D01*
X155761905Y-36375714D02*
X155904762Y-36375714D01*
X155904762Y-36375714D02*
X156000000Y-36423333D01*
X156000000Y-36423333D02*
X156047619Y-36518571D01*
X156047619Y-36518571D02*
X156047619Y-37042380D01*
X156047619Y-36518571D02*
X156095238Y-36423333D01*
X156095238Y-36423333D02*
X156190476Y-36375714D01*
X156190476Y-36375714D02*
X156333333Y-36375714D01*
X156333333Y-36375714D02*
X156428572Y-36423333D01*
X156428572Y-36423333D02*
X156476191Y-36518571D01*
X156476191Y-36518571D02*
X156476191Y-37042380D01*
X158123809Y-37042380D02*
X157790476Y-36566190D01*
X157552381Y-37042380D02*
X157552381Y-36042380D01*
X157552381Y-36042380D02*
X157933333Y-36042380D01*
X157933333Y-36042380D02*
X158028571Y-36090000D01*
X158028571Y-36090000D02*
X158076190Y-36137619D01*
X158076190Y-36137619D02*
X158123809Y-36232857D01*
X158123809Y-36232857D02*
X158123809Y-36375714D01*
X158123809Y-36375714D02*
X158076190Y-36470952D01*
X158076190Y-36470952D02*
X158028571Y-36518571D01*
X158028571Y-36518571D02*
X157933333Y-36566190D01*
X157933333Y-36566190D02*
X157552381Y-36566190D01*
X158933333Y-36994761D02*
X158838095Y-37042380D01*
X158838095Y-37042380D02*
X158647619Y-37042380D01*
X158647619Y-37042380D02*
X158552381Y-36994761D01*
X158552381Y-36994761D02*
X158504762Y-36899523D01*
X158504762Y-36899523D02*
X158504762Y-36518571D01*
X158504762Y-36518571D02*
X158552381Y-36423333D01*
X158552381Y-36423333D02*
X158647619Y-36375714D01*
X158647619Y-36375714D02*
X158838095Y-36375714D01*
X158838095Y-36375714D02*
X158933333Y-36423333D01*
X158933333Y-36423333D02*
X158980952Y-36518571D01*
X158980952Y-36518571D02*
X158980952Y-36613809D01*
X158980952Y-36613809D02*
X158504762Y-36709047D01*
X159838095Y-37042380D02*
X159838095Y-36042380D01*
X159838095Y-36994761D02*
X159742857Y-37042380D01*
X159742857Y-37042380D02*
X159552381Y-37042380D01*
X159552381Y-37042380D02*
X159457143Y-36994761D01*
X159457143Y-36994761D02*
X159409524Y-36947142D01*
X159409524Y-36947142D02*
X159361905Y-36851904D01*
X159361905Y-36851904D02*
X159361905Y-36566190D01*
X159361905Y-36566190D02*
X159409524Y-36470952D01*
X159409524Y-36470952D02*
X159457143Y-36423333D01*
X159457143Y-36423333D02*
X159552381Y-36375714D01*
X159552381Y-36375714D02*
X159742857Y-36375714D01*
X159742857Y-36375714D02*
X159838095Y-36423333D01*
X160914286Y-37042380D02*
X160914286Y-36042380D01*
X160914286Y-36042380D02*
X161295238Y-36042380D01*
X161295238Y-36042380D02*
X161390476Y-36090000D01*
X161390476Y-36090000D02*
X161438095Y-36137619D01*
X161438095Y-36137619D02*
X161485714Y-36232857D01*
X161485714Y-36232857D02*
X161485714Y-36375714D01*
X161485714Y-36375714D02*
X161438095Y-36470952D01*
X161438095Y-36470952D02*
X161390476Y-36518571D01*
X161390476Y-36518571D02*
X161295238Y-36566190D01*
X161295238Y-36566190D02*
X160914286Y-36566190D01*
X161914286Y-37042380D02*
X161914286Y-36375714D01*
X161914286Y-36042380D02*
X161866667Y-36090000D01*
X161866667Y-36090000D02*
X161914286Y-36137619D01*
X161914286Y-36137619D02*
X161961905Y-36090000D01*
X161961905Y-36090000D02*
X161914286Y-36042380D01*
X161914286Y-36042380D02*
X161914286Y-36137619D01*
X162247619Y-36375714D02*
X162628571Y-36375714D01*
X162390476Y-36042380D02*
X162390476Y-36899523D01*
X162390476Y-36899523D02*
X162438095Y-36994761D01*
X162438095Y-36994761D02*
X162533333Y-37042380D01*
X162533333Y-37042380D02*
X162628571Y-37042380D01*
X163390476Y-37042380D02*
X163390476Y-36518571D01*
X163390476Y-36518571D02*
X163342857Y-36423333D01*
X163342857Y-36423333D02*
X163247619Y-36375714D01*
X163247619Y-36375714D02*
X163057143Y-36375714D01*
X163057143Y-36375714D02*
X162961905Y-36423333D01*
X163390476Y-36994761D02*
X163295238Y-37042380D01*
X163295238Y-37042380D02*
X163057143Y-37042380D01*
X163057143Y-37042380D02*
X162961905Y-36994761D01*
X162961905Y-36994761D02*
X162914286Y-36899523D01*
X162914286Y-36899523D02*
X162914286Y-36804285D01*
X162914286Y-36804285D02*
X162961905Y-36709047D01*
X162961905Y-36709047D02*
X163057143Y-36661428D01*
X163057143Y-36661428D02*
X163295238Y-36661428D01*
X163295238Y-36661428D02*
X163390476Y-36613809D01*
X163771429Y-36375714D02*
X164009524Y-37042380D01*
X164247619Y-36375714D02*
X164009524Y-37042380D01*
X164009524Y-37042380D02*
X163914286Y-37280476D01*
X163914286Y-37280476D02*
X163866667Y-37328095D01*
X163866667Y-37328095D02*
X163771429Y-37375714D01*
X165057143Y-37042380D02*
X165057143Y-36518571D01*
X165057143Y-36518571D02*
X165009524Y-36423333D01*
X165009524Y-36423333D02*
X164914286Y-36375714D01*
X164914286Y-36375714D02*
X164723810Y-36375714D01*
X164723810Y-36375714D02*
X164628572Y-36423333D01*
X165057143Y-36994761D02*
X164961905Y-37042380D01*
X164961905Y-37042380D02*
X164723810Y-37042380D01*
X164723810Y-37042380D02*
X164628572Y-36994761D01*
X164628572Y-36994761D02*
X164580953Y-36899523D01*
X164580953Y-36899523D02*
X164580953Y-36804285D01*
X164580953Y-36804285D02*
X164628572Y-36709047D01*
X164628572Y-36709047D02*
X164723810Y-36661428D01*
X164723810Y-36661428D02*
X164961905Y-36661428D01*
X164961905Y-36661428D02*
X165057143Y-36613809D01*
X153238095Y-38281428D02*
X154000000Y-38281428D01*
X154933333Y-37662380D02*
X155504761Y-37662380D01*
X155219047Y-38662380D02*
X155219047Y-37662380D01*
X155742857Y-37662380D02*
X156409523Y-38662380D01*
X156409523Y-37662380D02*
X155742857Y-38662380D01*
X157504761Y-37614761D02*
X156647619Y-38900476D01*
X158409523Y-38662380D02*
X158076190Y-38186190D01*
X157838095Y-38662380D02*
X157838095Y-37662380D01*
X157838095Y-37662380D02*
X158219047Y-37662380D01*
X158219047Y-37662380D02*
X158314285Y-37710000D01*
X158314285Y-37710000D02*
X158361904Y-37757619D01*
X158361904Y-37757619D02*
X158409523Y-37852857D01*
X158409523Y-37852857D02*
X158409523Y-37995714D01*
X158409523Y-37995714D02*
X158361904Y-38090952D01*
X158361904Y-38090952D02*
X158314285Y-38138571D01*
X158314285Y-38138571D02*
X158219047Y-38186190D01*
X158219047Y-38186190D02*
X157838095Y-38186190D01*
X158742857Y-37662380D02*
X159409523Y-38662380D01*
X159409523Y-37662380D02*
X158742857Y-38662380D01*
X160390476Y-38138571D02*
X160723809Y-38138571D01*
X160866666Y-38662380D02*
X160390476Y-38662380D01*
X160390476Y-38662380D02*
X160390476Y-37662380D01*
X160390476Y-37662380D02*
X160866666Y-37662380D01*
X161819047Y-38662380D02*
X161247619Y-38662380D01*
X161533333Y-38662380D02*
X161533333Y-37662380D01*
X161533333Y-37662380D02*
X161438095Y-37805238D01*
X161438095Y-37805238D02*
X161342857Y-37900476D01*
X161342857Y-37900476D02*
X161247619Y-37948095D01*
X162247619Y-38281428D02*
X163009524Y-38281428D01*
X163390476Y-37662380D02*
X164009523Y-37662380D01*
X164009523Y-37662380D02*
X163676190Y-38043333D01*
X163676190Y-38043333D02*
X163819047Y-38043333D01*
X163819047Y-38043333D02*
X163914285Y-38090952D01*
X163914285Y-38090952D02*
X163961904Y-38138571D01*
X163961904Y-38138571D02*
X164009523Y-38233809D01*
X164009523Y-38233809D02*
X164009523Y-38471904D01*
X164009523Y-38471904D02*
X163961904Y-38567142D01*
X163961904Y-38567142D02*
X163914285Y-38614761D01*
X163914285Y-38614761D02*
X163819047Y-38662380D01*
X163819047Y-38662380D02*
X163533333Y-38662380D01*
X163533333Y-38662380D02*
X163438095Y-38614761D01*
X163438095Y-38614761D02*
X163390476Y-38567142D01*
X153238095Y-39901428D02*
X154000000Y-39901428D01*
X155599999Y-39330000D02*
X155504761Y-39282380D01*
X155504761Y-39282380D02*
X155361904Y-39282380D01*
X155361904Y-39282380D02*
X155219047Y-39330000D01*
X155219047Y-39330000D02*
X155123809Y-39425238D01*
X155123809Y-39425238D02*
X155076190Y-39520476D01*
X155076190Y-39520476D02*
X155028571Y-39710952D01*
X155028571Y-39710952D02*
X155028571Y-39853809D01*
X155028571Y-39853809D02*
X155076190Y-40044285D01*
X155076190Y-40044285D02*
X155123809Y-40139523D01*
X155123809Y-40139523D02*
X155219047Y-40234761D01*
X155219047Y-40234761D02*
X155361904Y-40282380D01*
X155361904Y-40282380D02*
X155457142Y-40282380D01*
X155457142Y-40282380D02*
X155599999Y-40234761D01*
X155599999Y-40234761D02*
X155647618Y-40187142D01*
X155647618Y-40187142D02*
X155647618Y-39853809D01*
X155647618Y-39853809D02*
X155457142Y-39853809D01*
X156076190Y-39615714D02*
X156076190Y-40282380D01*
X156076190Y-39710952D02*
X156123809Y-39663333D01*
X156123809Y-39663333D02*
X156219047Y-39615714D01*
X156219047Y-39615714D02*
X156361904Y-39615714D01*
X156361904Y-39615714D02*
X156457142Y-39663333D01*
X156457142Y-39663333D02*
X156504761Y-39758571D01*
X156504761Y-39758571D02*
X156504761Y-40282380D01*
X157409523Y-40282380D02*
X157409523Y-39282380D01*
X157409523Y-40234761D02*
X157314285Y-40282380D01*
X157314285Y-40282380D02*
X157123809Y-40282380D01*
X157123809Y-40282380D02*
X157028571Y-40234761D01*
X157028571Y-40234761D02*
X156980952Y-40187142D01*
X156980952Y-40187142D02*
X156933333Y-40091904D01*
X156933333Y-40091904D02*
X156933333Y-39806190D01*
X156933333Y-39806190D02*
X156980952Y-39710952D01*
X156980952Y-39710952D02*
X157028571Y-39663333D01*
X157028571Y-39663333D02*
X157123809Y-39615714D01*
X157123809Y-39615714D02*
X157314285Y-39615714D01*
X157314285Y-39615714D02*
X157409523Y-39663333D01*
X158485714Y-39758571D02*
X158819047Y-39758571D01*
X158961904Y-40282380D02*
X158485714Y-40282380D01*
X158485714Y-40282380D02*
X158485714Y-39282380D01*
X158485714Y-39282380D02*
X158961904Y-39282380D01*
X159914285Y-40282380D02*
X159342857Y-40282380D01*
X159628571Y-40282380D02*
X159628571Y-39282380D01*
X159628571Y-39282380D02*
X159533333Y-39425238D01*
X159533333Y-39425238D02*
X159438095Y-39520476D01*
X159438095Y-39520476D02*
X159342857Y-39568095D01*
X160895238Y-39377619D02*
X160942857Y-39330000D01*
X160942857Y-39330000D02*
X161038095Y-39282380D01*
X161038095Y-39282380D02*
X161276190Y-39282380D01*
X161276190Y-39282380D02*
X161371428Y-39330000D01*
X161371428Y-39330000D02*
X161419047Y-39377619D01*
X161419047Y-39377619D02*
X161466666Y-39472857D01*
X161466666Y-39472857D02*
X161466666Y-39568095D01*
X161466666Y-39568095D02*
X161419047Y-39710952D01*
X161419047Y-39710952D02*
X160847619Y-40282380D01*
X160847619Y-40282380D02*
X161466666Y-40282380D01*
X162371428Y-39282380D02*
X161895238Y-39282380D01*
X161895238Y-39282380D02*
X161847619Y-39758571D01*
X161847619Y-39758571D02*
X161895238Y-39710952D01*
X161895238Y-39710952D02*
X161990476Y-39663333D01*
X161990476Y-39663333D02*
X162228571Y-39663333D01*
X162228571Y-39663333D02*
X162323809Y-39710952D01*
X162323809Y-39710952D02*
X162371428Y-39758571D01*
X162371428Y-39758571D02*
X162419047Y-39853809D01*
X162419047Y-39853809D02*
X162419047Y-40091904D01*
X162419047Y-40091904D02*
X162371428Y-40187142D01*
X162371428Y-40187142D02*
X162323809Y-40234761D01*
X162323809Y-40234761D02*
X162228571Y-40282380D01*
X162228571Y-40282380D02*
X161990476Y-40282380D01*
X161990476Y-40282380D02*
X161895238Y-40234761D01*
X161895238Y-40234761D02*
X161847619Y-40187142D01*
X163561904Y-39234761D02*
X162704762Y-40520476D01*
X163847619Y-39377619D02*
X163895238Y-39330000D01*
X163895238Y-39330000D02*
X163990476Y-39282380D01*
X163990476Y-39282380D02*
X164228571Y-39282380D01*
X164228571Y-39282380D02*
X164323809Y-39330000D01*
X164323809Y-39330000D02*
X164371428Y-39377619D01*
X164371428Y-39377619D02*
X164419047Y-39472857D01*
X164419047Y-39472857D02*
X164419047Y-39568095D01*
X164419047Y-39568095D02*
X164371428Y-39710952D01*
X164371428Y-39710952D02*
X163800000Y-40282380D01*
X163800000Y-40282380D02*
X164419047Y-40282380D01*
X165276190Y-39282380D02*
X165085714Y-39282380D01*
X165085714Y-39282380D02*
X164990476Y-39330000D01*
X164990476Y-39330000D02*
X164942857Y-39377619D01*
X164942857Y-39377619D02*
X164847619Y-39520476D01*
X164847619Y-39520476D02*
X164800000Y-39710952D01*
X164800000Y-39710952D02*
X164800000Y-40091904D01*
X164800000Y-40091904D02*
X164847619Y-40187142D01*
X164847619Y-40187142D02*
X164895238Y-40234761D01*
X164895238Y-40234761D02*
X164990476Y-40282380D01*
X164990476Y-40282380D02*
X165180952Y-40282380D01*
X165180952Y-40282380D02*
X165276190Y-40234761D01*
X165276190Y-40234761D02*
X165323809Y-40187142D01*
X165323809Y-40187142D02*
X165371428Y-40091904D01*
X165371428Y-40091904D02*
X165371428Y-39853809D01*
X165371428Y-39853809D02*
X165323809Y-39758571D01*
X165323809Y-39758571D02*
X165276190Y-39710952D01*
X165276190Y-39710952D02*
X165180952Y-39663333D01*
X165180952Y-39663333D02*
X164990476Y-39663333D01*
X164990476Y-39663333D02*
X164895238Y-39710952D01*
X164895238Y-39710952D02*
X164847619Y-39758571D01*
X164847619Y-39758571D02*
X164800000Y-39853809D01*
X106614286Y-110227857D02*
X106661905Y-110180238D01*
X106661905Y-110180238D02*
X106804762Y-110132619D01*
X106804762Y-110132619D02*
X106900000Y-110132619D01*
X106900000Y-110132619D02*
X107042857Y-110180238D01*
X107042857Y-110180238D02*
X107138095Y-110275476D01*
X107138095Y-110275476D02*
X107185714Y-110370714D01*
X107185714Y-110370714D02*
X107233333Y-110561190D01*
X107233333Y-110561190D02*
X107233333Y-110704047D01*
X107233333Y-110704047D02*
X107185714Y-110894523D01*
X107185714Y-110894523D02*
X107138095Y-110989761D01*
X107138095Y-110989761D02*
X107042857Y-111085000D01*
X107042857Y-111085000D02*
X106900000Y-111132619D01*
X106900000Y-111132619D02*
X106804762Y-111132619D01*
X106804762Y-111132619D02*
X106661905Y-111085000D01*
X106661905Y-111085000D02*
X106614286Y-111037380D01*
X105757143Y-110799285D02*
X105757143Y-110132619D01*
X106185714Y-110799285D02*
X106185714Y-110275476D01*
X106185714Y-110275476D02*
X106138095Y-110180238D01*
X106138095Y-110180238D02*
X106042857Y-110132619D01*
X106042857Y-110132619D02*
X105900000Y-110132619D01*
X105900000Y-110132619D02*
X105804762Y-110180238D01*
X105804762Y-110180238D02*
X105757143Y-110227857D01*
X105423809Y-110799285D02*
X105042857Y-110799285D01*
X105280952Y-111132619D02*
X105280952Y-110275476D01*
X105280952Y-110275476D02*
X105233333Y-110180238D01*
X105233333Y-110180238D02*
X105138095Y-110132619D01*
X105138095Y-110132619D02*
X105042857Y-110132619D01*
X104109523Y-110132619D02*
X104109523Y-111132619D01*
X103680952Y-110132619D02*
X103680952Y-110656428D01*
X103680952Y-110656428D02*
X103728571Y-110751666D01*
X103728571Y-110751666D02*
X103823809Y-110799285D01*
X103823809Y-110799285D02*
X103966666Y-110799285D01*
X103966666Y-110799285D02*
X104061904Y-110751666D01*
X104061904Y-110751666D02*
X104109523Y-110704047D01*
X102823809Y-110180238D02*
X102919047Y-110132619D01*
X102919047Y-110132619D02*
X103109523Y-110132619D01*
X103109523Y-110132619D02*
X103204761Y-110180238D01*
X103204761Y-110180238D02*
X103252380Y-110275476D01*
X103252380Y-110275476D02*
X103252380Y-110656428D01*
X103252380Y-110656428D02*
X103204761Y-110751666D01*
X103204761Y-110751666D02*
X103109523Y-110799285D01*
X103109523Y-110799285D02*
X102919047Y-110799285D01*
X102919047Y-110799285D02*
X102823809Y-110751666D01*
X102823809Y-110751666D02*
X102776190Y-110656428D01*
X102776190Y-110656428D02*
X102776190Y-110561190D01*
X102776190Y-110561190D02*
X103252380Y-110465952D01*
X102347618Y-110132619D02*
X102347618Y-110799285D01*
X102347618Y-110608809D02*
X102299999Y-110704047D01*
X102299999Y-110704047D02*
X102252380Y-110751666D01*
X102252380Y-110751666D02*
X102157142Y-110799285D01*
X102157142Y-110799285D02*
X102061904Y-110799285D01*
X101347618Y-110180238D02*
X101442856Y-110132619D01*
X101442856Y-110132619D02*
X101633332Y-110132619D01*
X101633332Y-110132619D02*
X101728570Y-110180238D01*
X101728570Y-110180238D02*
X101776189Y-110275476D01*
X101776189Y-110275476D02*
X101776189Y-110656428D01*
X101776189Y-110656428D02*
X101728570Y-110751666D01*
X101728570Y-110751666D02*
X101633332Y-110799285D01*
X101633332Y-110799285D02*
X101442856Y-110799285D01*
X101442856Y-110799285D02*
X101347618Y-110751666D01*
X101347618Y-110751666D02*
X101299999Y-110656428D01*
X101299999Y-110656428D02*
X101299999Y-110561190D01*
X101299999Y-110561190D02*
X101776189Y-110465952D01*
X100271427Y-110132619D02*
X100271427Y-110799285D01*
X100271427Y-111132619D02*
X100319046Y-111085000D01*
X100319046Y-111085000D02*
X100271427Y-111037380D01*
X100271427Y-111037380D02*
X100223808Y-111085000D01*
X100223808Y-111085000D02*
X100271427Y-111132619D01*
X100271427Y-111132619D02*
X100271427Y-111037380D01*
X99938094Y-110799285D02*
X99557142Y-110799285D01*
X99795237Y-110132619D02*
X99795237Y-110989761D01*
X99795237Y-110989761D02*
X99747618Y-111085000D01*
X99747618Y-111085000D02*
X99652380Y-111132619D01*
X99652380Y-111132619D02*
X99557142Y-111132619D01*
X98623808Y-110799285D02*
X98623808Y-110132619D01*
X98623808Y-110704047D02*
X98576189Y-110751666D01*
X98576189Y-110751666D02*
X98480951Y-110799285D01*
X98480951Y-110799285D02*
X98338094Y-110799285D01*
X98338094Y-110799285D02*
X98242856Y-110751666D01*
X98242856Y-110751666D02*
X98195237Y-110656428D01*
X98195237Y-110656428D02*
X98195237Y-110132619D01*
X97338094Y-110180238D02*
X97433332Y-110132619D01*
X97433332Y-110132619D02*
X97623808Y-110132619D01*
X97623808Y-110132619D02*
X97719046Y-110180238D01*
X97719046Y-110180238D02*
X97766665Y-110275476D01*
X97766665Y-110275476D02*
X97766665Y-110656428D01*
X97766665Y-110656428D02*
X97719046Y-110751666D01*
X97719046Y-110751666D02*
X97623808Y-110799285D01*
X97623808Y-110799285D02*
X97433332Y-110799285D01*
X97433332Y-110799285D02*
X97338094Y-110751666D01*
X97338094Y-110751666D02*
X97290475Y-110656428D01*
X97290475Y-110656428D02*
X97290475Y-110561190D01*
X97290475Y-110561190D02*
X97766665Y-110465952D01*
X96480951Y-110180238D02*
X96576189Y-110132619D01*
X96576189Y-110132619D02*
X96766665Y-110132619D01*
X96766665Y-110132619D02*
X96861903Y-110180238D01*
X96861903Y-110180238D02*
X96909522Y-110275476D01*
X96909522Y-110275476D02*
X96909522Y-110656428D01*
X96909522Y-110656428D02*
X96861903Y-110751666D01*
X96861903Y-110751666D02*
X96766665Y-110799285D01*
X96766665Y-110799285D02*
X96576189Y-110799285D01*
X96576189Y-110799285D02*
X96480951Y-110751666D01*
X96480951Y-110751666D02*
X96433332Y-110656428D01*
X96433332Y-110656428D02*
X96433332Y-110561190D01*
X96433332Y-110561190D02*
X96909522Y-110465952D01*
X95576189Y-110132619D02*
X95576189Y-111132619D01*
X95576189Y-110180238D02*
X95671427Y-110132619D01*
X95671427Y-110132619D02*
X95861903Y-110132619D01*
X95861903Y-110132619D02*
X95957141Y-110180238D01*
X95957141Y-110180238D02*
X96004760Y-110227857D01*
X96004760Y-110227857D02*
X96052379Y-110323095D01*
X96052379Y-110323095D02*
X96052379Y-110608809D01*
X96052379Y-110608809D02*
X96004760Y-110704047D01*
X96004760Y-110704047D02*
X95957141Y-110751666D01*
X95957141Y-110751666D02*
X95861903Y-110799285D01*
X95861903Y-110799285D02*
X95671427Y-110799285D01*
X95671427Y-110799285D02*
X95576189Y-110751666D01*
X94719046Y-110180238D02*
X94814284Y-110132619D01*
X94814284Y-110132619D02*
X95004760Y-110132619D01*
X95004760Y-110132619D02*
X95099998Y-110180238D01*
X95099998Y-110180238D02*
X95147617Y-110275476D01*
X95147617Y-110275476D02*
X95147617Y-110656428D01*
X95147617Y-110656428D02*
X95099998Y-110751666D01*
X95099998Y-110751666D02*
X95004760Y-110799285D01*
X95004760Y-110799285D02*
X94814284Y-110799285D01*
X94814284Y-110799285D02*
X94719046Y-110751666D01*
X94719046Y-110751666D02*
X94671427Y-110656428D01*
X94671427Y-110656428D02*
X94671427Y-110561190D01*
X94671427Y-110561190D02*
X95147617Y-110465952D01*
X93814284Y-110132619D02*
X93814284Y-111132619D01*
X93814284Y-110180238D02*
X93909522Y-110132619D01*
X93909522Y-110132619D02*
X94099998Y-110132619D01*
X94099998Y-110132619D02*
X94195236Y-110180238D01*
X94195236Y-110180238D02*
X94242855Y-110227857D01*
X94242855Y-110227857D02*
X94290474Y-110323095D01*
X94290474Y-110323095D02*
X94290474Y-110608809D01*
X94290474Y-110608809D02*
X94242855Y-110704047D01*
X94242855Y-110704047D02*
X94195236Y-110751666D01*
X94195236Y-110751666D02*
X94099998Y-110799285D01*
X94099998Y-110799285D02*
X93909522Y-110799285D01*
X93909522Y-110799285D02*
X93814284Y-110751666D01*
X114049999Y-66257166D02*
X113816666Y-65923833D01*
X113649999Y-66257166D02*
X113649999Y-65557166D01*
X113649999Y-65557166D02*
X113916666Y-65557166D01*
X113916666Y-65557166D02*
X113983333Y-65590500D01*
X113983333Y-65590500D02*
X114016666Y-65623833D01*
X114016666Y-65623833D02*
X114049999Y-65690500D01*
X114049999Y-65690500D02*
X114049999Y-65790500D01*
X114049999Y-65790500D02*
X114016666Y-65857166D01*
X114016666Y-65857166D02*
X113983333Y-65890500D01*
X113983333Y-65890500D02*
X113916666Y-65923833D01*
X113916666Y-65923833D02*
X113649999Y-65923833D01*
X114716666Y-66257166D02*
X114316666Y-66257166D01*
X114516666Y-66257166D02*
X114516666Y-65557166D01*
X114516666Y-65557166D02*
X114449999Y-65657166D01*
X114449999Y-65657166D02*
X114383333Y-65723833D01*
X114383333Y-65723833D02*
X114316666Y-65757166D01*
X115316666Y-65790500D02*
X115316666Y-66257166D01*
X115150000Y-65523833D02*
X114983333Y-66023833D01*
X114983333Y-66023833D02*
X115416666Y-66023833D01*
D12*
X84734761Y-72219047D02*
X83782380Y-72885714D01*
X84734761Y-73361904D02*
X82734761Y-73361904D01*
X82734761Y-73361904D02*
X82734761Y-72599999D01*
X82734761Y-72599999D02*
X82830000Y-72409523D01*
X82830000Y-72409523D02*
X82925238Y-72314285D01*
X82925238Y-72314285D02*
X83115714Y-72219047D01*
X83115714Y-72219047D02*
X83401428Y-72219047D01*
X83401428Y-72219047D02*
X83591904Y-72314285D01*
X83591904Y-72314285D02*
X83687142Y-72409523D01*
X83687142Y-72409523D02*
X83782380Y-72599999D01*
X83782380Y-72599999D02*
X83782380Y-73361904D01*
X83687142Y-70695237D02*
X83687142Y-71361904D01*
X84734761Y-71361904D02*
X82734761Y-71361904D01*
X82734761Y-71361904D02*
X82734761Y-70409523D01*
X84734761Y-68447618D02*
X82734761Y-68447618D01*
X83401428Y-67495237D02*
X84734761Y-67495237D01*
X83591904Y-67495237D02*
X83496666Y-67399999D01*
X83496666Y-67399999D02*
X83401428Y-67209523D01*
X83401428Y-67209523D02*
X83401428Y-66923808D01*
X83401428Y-66923808D02*
X83496666Y-66733332D01*
X83496666Y-66733332D02*
X83687142Y-66638094D01*
X83687142Y-66638094D02*
X84734761Y-66638094D01*
X149047618Y-57734761D02*
X147904761Y-57734761D01*
X148476189Y-57734761D02*
X148476189Y-55734761D01*
X148476189Y-55734761D02*
X148285713Y-56020476D01*
X148285713Y-56020476D02*
X148095237Y-56210952D01*
X148095237Y-56210952D02*
X147904761Y-56306190D01*
X149809523Y-55925238D02*
X149904761Y-55830000D01*
X149904761Y-55830000D02*
X150095237Y-55734761D01*
X150095237Y-55734761D02*
X150571428Y-55734761D01*
X150571428Y-55734761D02*
X150761904Y-55830000D01*
X150761904Y-55830000D02*
X150857142Y-55925238D01*
X150857142Y-55925238D02*
X150952380Y-56115714D01*
X150952380Y-56115714D02*
X150952380Y-56306190D01*
X150952380Y-56306190D02*
X150857142Y-56591904D01*
X150857142Y-56591904D02*
X149714285Y-57734761D01*
X149714285Y-57734761D02*
X150952380Y-57734761D01*
X151523809Y-55734761D02*
X152190475Y-57734761D01*
X152190475Y-57734761D02*
X152857142Y-55734761D01*
X154380952Y-57639523D02*
X154190476Y-57734761D01*
X154190476Y-57734761D02*
X153809523Y-57734761D01*
X153809523Y-57734761D02*
X153619047Y-57639523D01*
X153619047Y-57639523D02*
X153523809Y-57544285D01*
X153523809Y-57544285D02*
X153428571Y-57353809D01*
X153428571Y-57353809D02*
X153428571Y-56782380D01*
X153428571Y-56782380D02*
X153523809Y-56591904D01*
X153523809Y-56591904D02*
X153619047Y-56496666D01*
X153619047Y-56496666D02*
X153809523Y-56401428D01*
X153809523Y-56401428D02*
X154190476Y-56401428D01*
X154190476Y-56401428D02*
X154380952Y-56496666D01*
X156095238Y-57639523D02*
X155904762Y-57734761D01*
X155904762Y-57734761D02*
X155523809Y-57734761D01*
X155523809Y-57734761D02*
X155333333Y-57639523D01*
X155333333Y-57639523D02*
X155238095Y-57544285D01*
X155238095Y-57544285D02*
X155142857Y-57353809D01*
X155142857Y-57353809D02*
X155142857Y-56782380D01*
X155142857Y-56782380D02*
X155238095Y-56591904D01*
X155238095Y-56591904D02*
X155333333Y-56496666D01*
X155333333Y-56496666D02*
X155523809Y-56401428D01*
X155523809Y-56401428D02*
X155904762Y-56401428D01*
X155904762Y-56401428D02*
X156095238Y-56496666D01*
D10*
X113549999Y-92757166D02*
X113316666Y-92423833D01*
X113149999Y-92757166D02*
X113149999Y-92057166D01*
X113149999Y-92057166D02*
X113416666Y-92057166D01*
X113416666Y-92057166D02*
X113483333Y-92090500D01*
X113483333Y-92090500D02*
X113516666Y-92123833D01*
X113516666Y-92123833D02*
X113549999Y-92190500D01*
X113549999Y-92190500D02*
X113549999Y-92290500D01*
X113549999Y-92290500D02*
X113516666Y-92357166D01*
X113516666Y-92357166D02*
X113483333Y-92390500D01*
X113483333Y-92390500D02*
X113416666Y-92423833D01*
X113416666Y-92423833D02*
X113149999Y-92423833D01*
X114216666Y-92757166D02*
X113816666Y-92757166D01*
X114016666Y-92757166D02*
X114016666Y-92057166D01*
X114016666Y-92057166D02*
X113949999Y-92157166D01*
X113949999Y-92157166D02*
X113883333Y-92223833D01*
X113883333Y-92223833D02*
X113816666Y-92257166D01*
X114850000Y-92057166D02*
X114516666Y-92057166D01*
X114516666Y-92057166D02*
X114483333Y-92390500D01*
X114483333Y-92390500D02*
X114516666Y-92357166D01*
X114516666Y-92357166D02*
X114583333Y-92323833D01*
X114583333Y-92323833D02*
X114750000Y-92323833D01*
X114750000Y-92323833D02*
X114816666Y-92357166D01*
X114816666Y-92357166D02*
X114850000Y-92390500D01*
X114850000Y-92390500D02*
X114883333Y-92457166D01*
X114883333Y-92457166D02*
X114883333Y-92623833D01*
X114883333Y-92623833D02*
X114850000Y-92690500D01*
X114850000Y-92690500D02*
X114816666Y-92723833D01*
X114816666Y-92723833D02*
X114750000Y-92757166D01*
X114750000Y-92757166D02*
X114583333Y-92757166D01*
X114583333Y-92757166D02*
X114516666Y-92723833D01*
X114516666Y-92723833D02*
X114483333Y-92690500D01*
X163114286Y-110227857D02*
X163161905Y-110180238D01*
X163161905Y-110180238D02*
X163304762Y-110132619D01*
X163304762Y-110132619D02*
X163400000Y-110132619D01*
X163400000Y-110132619D02*
X163542857Y-110180238D01*
X163542857Y-110180238D02*
X163638095Y-110275476D01*
X163638095Y-110275476D02*
X163685714Y-110370714D01*
X163685714Y-110370714D02*
X163733333Y-110561190D01*
X163733333Y-110561190D02*
X163733333Y-110704047D01*
X163733333Y-110704047D02*
X163685714Y-110894523D01*
X163685714Y-110894523D02*
X163638095Y-110989761D01*
X163638095Y-110989761D02*
X163542857Y-111085000D01*
X163542857Y-111085000D02*
X163400000Y-111132619D01*
X163400000Y-111132619D02*
X163304762Y-111132619D01*
X163304762Y-111132619D02*
X163161905Y-111085000D01*
X163161905Y-111085000D02*
X163114286Y-111037380D01*
X162257143Y-110799285D02*
X162257143Y-110132619D01*
X162685714Y-110799285D02*
X162685714Y-110275476D01*
X162685714Y-110275476D02*
X162638095Y-110180238D01*
X162638095Y-110180238D02*
X162542857Y-110132619D01*
X162542857Y-110132619D02*
X162400000Y-110132619D01*
X162400000Y-110132619D02*
X162304762Y-110180238D01*
X162304762Y-110180238D02*
X162257143Y-110227857D01*
X161923809Y-110799285D02*
X161542857Y-110799285D01*
X161780952Y-111132619D02*
X161780952Y-110275476D01*
X161780952Y-110275476D02*
X161733333Y-110180238D01*
X161733333Y-110180238D02*
X161638095Y-110132619D01*
X161638095Y-110132619D02*
X161542857Y-110132619D01*
X160609523Y-110132619D02*
X160609523Y-111132619D01*
X160180952Y-110132619D02*
X160180952Y-110656428D01*
X160180952Y-110656428D02*
X160228571Y-110751666D01*
X160228571Y-110751666D02*
X160323809Y-110799285D01*
X160323809Y-110799285D02*
X160466666Y-110799285D01*
X160466666Y-110799285D02*
X160561904Y-110751666D01*
X160561904Y-110751666D02*
X160609523Y-110704047D01*
X159323809Y-110180238D02*
X159419047Y-110132619D01*
X159419047Y-110132619D02*
X159609523Y-110132619D01*
X159609523Y-110132619D02*
X159704761Y-110180238D01*
X159704761Y-110180238D02*
X159752380Y-110275476D01*
X159752380Y-110275476D02*
X159752380Y-110656428D01*
X159752380Y-110656428D02*
X159704761Y-110751666D01*
X159704761Y-110751666D02*
X159609523Y-110799285D01*
X159609523Y-110799285D02*
X159419047Y-110799285D01*
X159419047Y-110799285D02*
X159323809Y-110751666D01*
X159323809Y-110751666D02*
X159276190Y-110656428D01*
X159276190Y-110656428D02*
X159276190Y-110561190D01*
X159276190Y-110561190D02*
X159752380Y-110465952D01*
X158847618Y-110132619D02*
X158847618Y-110799285D01*
X158847618Y-110608809D02*
X158799999Y-110704047D01*
X158799999Y-110704047D02*
X158752380Y-110751666D01*
X158752380Y-110751666D02*
X158657142Y-110799285D01*
X158657142Y-110799285D02*
X158561904Y-110799285D01*
X157847618Y-110180238D02*
X157942856Y-110132619D01*
X157942856Y-110132619D02*
X158133332Y-110132619D01*
X158133332Y-110132619D02*
X158228570Y-110180238D01*
X158228570Y-110180238D02*
X158276189Y-110275476D01*
X158276189Y-110275476D02*
X158276189Y-110656428D01*
X158276189Y-110656428D02*
X158228570Y-110751666D01*
X158228570Y-110751666D02*
X158133332Y-110799285D01*
X158133332Y-110799285D02*
X157942856Y-110799285D01*
X157942856Y-110799285D02*
X157847618Y-110751666D01*
X157847618Y-110751666D02*
X157799999Y-110656428D01*
X157799999Y-110656428D02*
X157799999Y-110561190D01*
X157799999Y-110561190D02*
X158276189Y-110465952D01*
X156771427Y-110132619D02*
X156771427Y-110799285D01*
X156771427Y-111132619D02*
X156819046Y-111085000D01*
X156819046Y-111085000D02*
X156771427Y-111037380D01*
X156771427Y-111037380D02*
X156723808Y-111085000D01*
X156723808Y-111085000D02*
X156771427Y-111132619D01*
X156771427Y-111132619D02*
X156771427Y-111037380D01*
X156438094Y-110799285D02*
X156057142Y-110799285D01*
X156295237Y-110132619D02*
X156295237Y-110989761D01*
X156295237Y-110989761D02*
X156247618Y-111085000D01*
X156247618Y-111085000D02*
X156152380Y-111132619D01*
X156152380Y-111132619D02*
X156057142Y-111132619D01*
X155123808Y-110799285D02*
X155123808Y-110132619D01*
X155123808Y-110704047D02*
X155076189Y-110751666D01*
X155076189Y-110751666D02*
X154980951Y-110799285D01*
X154980951Y-110799285D02*
X154838094Y-110799285D01*
X154838094Y-110799285D02*
X154742856Y-110751666D01*
X154742856Y-110751666D02*
X154695237Y-110656428D01*
X154695237Y-110656428D02*
X154695237Y-110132619D01*
X153838094Y-110180238D02*
X153933332Y-110132619D01*
X153933332Y-110132619D02*
X154123808Y-110132619D01*
X154123808Y-110132619D02*
X154219046Y-110180238D01*
X154219046Y-110180238D02*
X154266665Y-110275476D01*
X154266665Y-110275476D02*
X154266665Y-110656428D01*
X154266665Y-110656428D02*
X154219046Y-110751666D01*
X154219046Y-110751666D02*
X154123808Y-110799285D01*
X154123808Y-110799285D02*
X153933332Y-110799285D01*
X153933332Y-110799285D02*
X153838094Y-110751666D01*
X153838094Y-110751666D02*
X153790475Y-110656428D01*
X153790475Y-110656428D02*
X153790475Y-110561190D01*
X153790475Y-110561190D02*
X154266665Y-110465952D01*
X152980951Y-110180238D02*
X153076189Y-110132619D01*
X153076189Y-110132619D02*
X153266665Y-110132619D01*
X153266665Y-110132619D02*
X153361903Y-110180238D01*
X153361903Y-110180238D02*
X153409522Y-110275476D01*
X153409522Y-110275476D02*
X153409522Y-110656428D01*
X153409522Y-110656428D02*
X153361903Y-110751666D01*
X153361903Y-110751666D02*
X153266665Y-110799285D01*
X153266665Y-110799285D02*
X153076189Y-110799285D01*
X153076189Y-110799285D02*
X152980951Y-110751666D01*
X152980951Y-110751666D02*
X152933332Y-110656428D01*
X152933332Y-110656428D02*
X152933332Y-110561190D01*
X152933332Y-110561190D02*
X153409522Y-110465952D01*
X152076189Y-110132619D02*
X152076189Y-111132619D01*
X152076189Y-110180238D02*
X152171427Y-110132619D01*
X152171427Y-110132619D02*
X152361903Y-110132619D01*
X152361903Y-110132619D02*
X152457141Y-110180238D01*
X152457141Y-110180238D02*
X152504760Y-110227857D01*
X152504760Y-110227857D02*
X152552379Y-110323095D01*
X152552379Y-110323095D02*
X152552379Y-110608809D01*
X152552379Y-110608809D02*
X152504760Y-110704047D01*
X152504760Y-110704047D02*
X152457141Y-110751666D01*
X152457141Y-110751666D02*
X152361903Y-110799285D01*
X152361903Y-110799285D02*
X152171427Y-110799285D01*
X152171427Y-110799285D02*
X152076189Y-110751666D01*
X151219046Y-110180238D02*
X151314284Y-110132619D01*
X151314284Y-110132619D02*
X151504760Y-110132619D01*
X151504760Y-110132619D02*
X151599998Y-110180238D01*
X151599998Y-110180238D02*
X151647617Y-110275476D01*
X151647617Y-110275476D02*
X151647617Y-110656428D01*
X151647617Y-110656428D02*
X151599998Y-110751666D01*
X151599998Y-110751666D02*
X151504760Y-110799285D01*
X151504760Y-110799285D02*
X151314284Y-110799285D01*
X151314284Y-110799285D02*
X151219046Y-110751666D01*
X151219046Y-110751666D02*
X151171427Y-110656428D01*
X151171427Y-110656428D02*
X151171427Y-110561190D01*
X151171427Y-110561190D02*
X151647617Y-110465952D01*
X150314284Y-110132619D02*
X150314284Y-111132619D01*
X150314284Y-110180238D02*
X150409522Y-110132619D01*
X150409522Y-110132619D02*
X150599998Y-110132619D01*
X150599998Y-110132619D02*
X150695236Y-110180238D01*
X150695236Y-110180238D02*
X150742855Y-110227857D01*
X150742855Y-110227857D02*
X150790474Y-110323095D01*
X150790474Y-110323095D02*
X150790474Y-110608809D01*
X150790474Y-110608809D02*
X150742855Y-110704047D01*
X150742855Y-110704047D02*
X150695236Y-110751666D01*
X150695236Y-110751666D02*
X150599998Y-110799285D01*
X150599998Y-110799285D02*
X150409522Y-110799285D01*
X150409522Y-110799285D02*
X150314284Y-110751666D01*
D12*
X130523808Y-106234761D02*
X131190474Y-104234761D01*
X131190474Y-104234761D02*
X131857141Y-106234761D01*
X131857141Y-106234761D02*
X130523808Y-106234761D01*
X132523808Y-104901428D02*
X132523808Y-105949047D01*
X132523808Y-105949047D02*
X132619046Y-106139523D01*
X132619046Y-106139523D02*
X132809522Y-106234761D01*
X133857141Y-106234761D02*
X133666665Y-106139523D01*
X133666665Y-106139523D02*
X133571427Y-106044285D01*
X133571427Y-106044285D02*
X133476189Y-105853809D01*
X133476189Y-105853809D02*
X133476189Y-105282380D01*
X133476189Y-105282380D02*
X133571427Y-105091904D01*
X133571427Y-105091904D02*
X133666665Y-104996666D01*
X133666665Y-104996666D02*
X133857141Y-104901428D01*
X133857141Y-104901428D02*
X134142856Y-104901428D01*
X134142856Y-104901428D02*
X134333332Y-104996666D01*
X134333332Y-104996666D02*
X134428570Y-105091904D01*
X134428570Y-105091904D02*
X134523808Y-105282380D01*
X134523808Y-105282380D02*
X134523808Y-105853809D01*
X134523808Y-105853809D02*
X134428570Y-106044285D01*
X134428570Y-106044285D02*
X134333332Y-106139523D01*
X134333332Y-106139523D02*
X134142856Y-106234761D01*
X134142856Y-106234761D02*
X133857141Y-106234761D01*
X135380951Y-104901428D02*
X135380951Y-106901428D01*
X136333332Y-105949047D02*
X136428570Y-106139523D01*
X136428570Y-106139523D02*
X136619046Y-106234761D01*
X135380951Y-105949047D02*
X135476189Y-106139523D01*
X135476189Y-106139523D02*
X135666665Y-106234761D01*
X135666665Y-106234761D02*
X136047618Y-106234761D01*
X136047618Y-106234761D02*
X136238094Y-106139523D01*
X136238094Y-106139523D02*
X136333332Y-105949047D01*
X136333332Y-105949047D02*
X136333332Y-104901428D01*
X137476189Y-104901428D02*
X137476189Y-106234761D01*
X137476189Y-105091904D02*
X137571427Y-104996666D01*
X137571427Y-104996666D02*
X137761903Y-104901428D01*
X137761903Y-104901428D02*
X138047618Y-104901428D01*
X138047618Y-104901428D02*
X138238094Y-104996666D01*
X138238094Y-104996666D02*
X138333332Y-105187142D01*
X138333332Y-105187142D02*
X138333332Y-106901428D01*
X138047618Y-104139523D02*
X137761903Y-104425238D01*
X139857142Y-104901428D02*
X139571427Y-104901428D01*
X139571427Y-104901428D02*
X139380951Y-104996666D01*
X139380951Y-104996666D02*
X139285713Y-105091904D01*
X139285713Y-105091904D02*
X139190475Y-105282380D01*
X139190475Y-105282380D02*
X139190475Y-105853809D01*
X139190475Y-105853809D02*
X139285713Y-106044285D01*
X139285713Y-106044285D02*
X139380951Y-106139523D01*
X139380951Y-106139523D02*
X139571427Y-106234761D01*
X139571427Y-106234761D02*
X139857142Y-106234761D01*
X139857142Y-106234761D02*
X140047618Y-106139523D01*
X140047618Y-106139523D02*
X140142856Y-106044285D01*
X140142856Y-106044285D02*
X140238094Y-105853809D01*
X140238094Y-105853809D02*
X140238094Y-105282380D01*
X140238094Y-105282380D02*
X140142856Y-105091904D01*
X140142856Y-105091904D02*
X140047618Y-104996666D01*
X140047618Y-104996666D02*
X139857142Y-104901428D01*
X139857142Y-104901428D02*
X139571427Y-104806190D01*
X139571427Y-104806190D02*
X139380951Y-104710952D01*
X139380951Y-104710952D02*
X139285713Y-104520476D01*
X139285713Y-104520476D02*
X139380951Y-104330000D01*
X139380951Y-104330000D02*
X139571427Y-104234761D01*
X139571427Y-104234761D02*
X139952380Y-104234761D01*
X139952380Y-104234761D02*
X140142856Y-104330000D01*
X141095237Y-104901428D02*
X141095237Y-106234761D01*
X141095237Y-105091904D02*
X141190475Y-104996666D01*
X141190475Y-104996666D02*
X141380951Y-104901428D01*
X141380951Y-104901428D02*
X141666666Y-104901428D01*
X141666666Y-104901428D02*
X141857142Y-104996666D01*
X141857142Y-104996666D02*
X141952380Y-105187142D01*
X141952380Y-105187142D02*
X141952380Y-106901428D01*
X143761904Y-104996666D02*
X143571428Y-104901428D01*
X143571428Y-104901428D02*
X143190475Y-104901428D01*
X143190475Y-104901428D02*
X142999999Y-104996666D01*
X142999999Y-104996666D02*
X142904761Y-105091904D01*
X142904761Y-105091904D02*
X142809523Y-105282380D01*
X142809523Y-105282380D02*
X142809523Y-105853809D01*
X142809523Y-105853809D02*
X142904761Y-106044285D01*
X142904761Y-106044285D02*
X142999999Y-106139523D01*
X142999999Y-106139523D02*
X143190475Y-106234761D01*
X143190475Y-106234761D02*
X143476190Y-106234761D01*
X143476190Y-106234761D02*
X143666666Y-106330000D01*
X143666666Y-106330000D02*
X143761904Y-106520476D01*
X143761904Y-106520476D02*
X143761904Y-106615714D01*
X143761904Y-106615714D02*
X143666666Y-106806190D01*
X143666666Y-106806190D02*
X143476190Y-106901428D01*
X149419047Y-106234761D02*
X149419047Y-104234761D01*
X149419047Y-104234761D02*
X149895237Y-104234761D01*
X149895237Y-104234761D02*
X150180952Y-104330000D01*
X150180952Y-104330000D02*
X150371428Y-104520476D01*
X150371428Y-104520476D02*
X150466666Y-104710952D01*
X150466666Y-104710952D02*
X150561904Y-105091904D01*
X150561904Y-105091904D02*
X150561904Y-105377619D01*
X150561904Y-105377619D02*
X150466666Y-105758571D01*
X150466666Y-105758571D02*
X150371428Y-105949047D01*
X150371428Y-105949047D02*
X150180952Y-106139523D01*
X150180952Y-106139523D02*
X149895237Y-106234761D01*
X149895237Y-106234761D02*
X149419047Y-106234761D01*
X151419047Y-106234761D02*
X151419047Y-104901428D01*
X151419047Y-104234761D02*
X151323809Y-104330000D01*
X151323809Y-104330000D02*
X151419047Y-104425238D01*
X151419047Y-104425238D02*
X151514285Y-104330000D01*
X151514285Y-104330000D02*
X151419047Y-104234761D01*
X151419047Y-104234761D02*
X151419047Y-104425238D01*
X152657142Y-106234761D02*
X152466666Y-106139523D01*
X152466666Y-106139523D02*
X152371428Y-106044285D01*
X152371428Y-106044285D02*
X152276190Y-105853809D01*
X152276190Y-105853809D02*
X152276190Y-105282380D01*
X152276190Y-105282380D02*
X152371428Y-105091904D01*
X152371428Y-105091904D02*
X152466666Y-104996666D01*
X152466666Y-104996666D02*
X152657142Y-104901428D01*
X152657142Y-104901428D02*
X152942857Y-104901428D01*
X152942857Y-104901428D02*
X153133333Y-104996666D01*
X153133333Y-104996666D02*
X153228571Y-105091904D01*
X153228571Y-105091904D02*
X153323809Y-105282380D01*
X153323809Y-105282380D02*
X153323809Y-105853809D01*
X153323809Y-105853809D02*
X153228571Y-106044285D01*
X153228571Y-106044285D02*
X153133333Y-106139523D01*
X153133333Y-106139523D02*
X152942857Y-106234761D01*
X152942857Y-106234761D02*
X152657142Y-106234761D01*
X154180952Y-106234761D02*
X154180952Y-104901428D01*
X154180952Y-105091904D02*
X154276190Y-104996666D01*
X154276190Y-104996666D02*
X154466666Y-104901428D01*
X154466666Y-104901428D02*
X154752381Y-104901428D01*
X154752381Y-104901428D02*
X154942857Y-104996666D01*
X154942857Y-104996666D02*
X155038095Y-105187142D01*
X155038095Y-105187142D02*
X155038095Y-106234761D01*
X155038095Y-105187142D02*
X155133333Y-104996666D01*
X155133333Y-104996666D02*
X155323809Y-104901428D01*
X155323809Y-104901428D02*
X155609523Y-104901428D01*
X155609523Y-104901428D02*
X155800000Y-104996666D01*
X155800000Y-104996666D02*
X155895238Y-105187142D01*
X155895238Y-105187142D02*
X155895238Y-106234761D01*
X157609524Y-106139523D02*
X157419048Y-106234761D01*
X157419048Y-106234761D02*
X157038095Y-106234761D01*
X157038095Y-106234761D02*
X156847619Y-106139523D01*
X156847619Y-106139523D02*
X156752381Y-105949047D01*
X156752381Y-105949047D02*
X156752381Y-105187142D01*
X156752381Y-105187142D02*
X156847619Y-104996666D01*
X156847619Y-104996666D02*
X157038095Y-104901428D01*
X157038095Y-104901428D02*
X157419048Y-104901428D01*
X157419048Y-104901428D02*
X157609524Y-104996666D01*
X157609524Y-104996666D02*
X157704762Y-105187142D01*
X157704762Y-105187142D02*
X157704762Y-105377619D01*
X157704762Y-105377619D02*
X156752381Y-105568095D01*
X159419048Y-106234761D02*
X159419048Y-104234761D01*
X159419048Y-106139523D02*
X159228572Y-106234761D01*
X159228572Y-106234761D02*
X158847619Y-106234761D01*
X158847619Y-106234761D02*
X158657143Y-106139523D01*
X158657143Y-106139523D02*
X158561905Y-106044285D01*
X158561905Y-106044285D02*
X158466667Y-105853809D01*
X158466667Y-105853809D02*
X158466667Y-105282380D01*
X158466667Y-105282380D02*
X158561905Y-105091904D01*
X158561905Y-105091904D02*
X158657143Y-104996666D01*
X158657143Y-104996666D02*
X158847619Y-104901428D01*
X158847619Y-104901428D02*
X159228572Y-104901428D01*
X159228572Y-104901428D02*
X159419048Y-104996666D01*
X161133334Y-106139523D02*
X160942858Y-106234761D01*
X160942858Y-106234761D02*
X160561905Y-106234761D01*
X160561905Y-106234761D02*
X160371429Y-106139523D01*
X160371429Y-106139523D02*
X160276191Y-105949047D01*
X160276191Y-105949047D02*
X160276191Y-105187142D01*
X160276191Y-105187142D02*
X160371429Y-104996666D01*
X160371429Y-104996666D02*
X160561905Y-104901428D01*
X160561905Y-104901428D02*
X160942858Y-104901428D01*
X160942858Y-104901428D02*
X161133334Y-104996666D01*
X161133334Y-104996666D02*
X161228572Y-105187142D01*
X161228572Y-105187142D02*
X161228572Y-105377619D01*
X161228572Y-105377619D02*
X160276191Y-105568095D01*
X161990477Y-106139523D02*
X162180953Y-106234761D01*
X162180953Y-106234761D02*
X162561905Y-106234761D01*
X162561905Y-106234761D02*
X162752382Y-106139523D01*
X162752382Y-106139523D02*
X162847620Y-105949047D01*
X162847620Y-105949047D02*
X162847620Y-105853809D01*
X162847620Y-105853809D02*
X162752382Y-105663333D01*
X162752382Y-105663333D02*
X162561905Y-105568095D01*
X162561905Y-105568095D02*
X162276191Y-105568095D01*
X162276191Y-105568095D02*
X162085715Y-105472857D01*
X162085715Y-105472857D02*
X161990477Y-105282380D01*
X161990477Y-105282380D02*
X161990477Y-105187142D01*
X161990477Y-105187142D02*
X162085715Y-104996666D01*
X162085715Y-104996666D02*
X162276191Y-104901428D01*
X162276191Y-104901428D02*
X162561905Y-104901428D01*
X162561905Y-104901428D02*
X162752382Y-104996666D01*
X164714287Y-104901428D02*
X165190477Y-106234761D01*
X165190477Y-106234761D02*
X165666668Y-104901428D01*
X166428573Y-106044285D02*
X166523811Y-106139523D01*
X166523811Y-106139523D02*
X166428573Y-106234761D01*
X166428573Y-106234761D02*
X166333335Y-106139523D01*
X166333335Y-106139523D02*
X166428573Y-106044285D01*
X166428573Y-106044285D02*
X166428573Y-106234761D01*
X167285716Y-104425238D02*
X167380954Y-104330000D01*
X167380954Y-104330000D02*
X167571430Y-104234761D01*
X167571430Y-104234761D02*
X168047621Y-104234761D01*
X168047621Y-104234761D02*
X168238097Y-104330000D01*
X168238097Y-104330000D02*
X168333335Y-104425238D01*
X168333335Y-104425238D02*
X168428573Y-104615714D01*
X168428573Y-104615714D02*
X168428573Y-104806190D01*
X168428573Y-104806190D02*
X168333335Y-105091904D01*
X168333335Y-105091904D02*
X167190478Y-106234761D01*
X167190478Y-106234761D02*
X168428573Y-106234761D01*
X169285716Y-106044285D02*
X169380954Y-106139523D01*
X169380954Y-106139523D02*
X169285716Y-106234761D01*
X169285716Y-106234761D02*
X169190478Y-106139523D01*
X169190478Y-106139523D02*
X169285716Y-106044285D01*
X169285716Y-106044285D02*
X169285716Y-106234761D01*
X170619049Y-104234761D02*
X170809526Y-104234761D01*
X170809526Y-104234761D02*
X171000002Y-104330000D01*
X171000002Y-104330000D02*
X171095240Y-104425238D01*
X171095240Y-104425238D02*
X171190478Y-104615714D01*
X171190478Y-104615714D02*
X171285716Y-104996666D01*
X171285716Y-104996666D02*
X171285716Y-105472857D01*
X171285716Y-105472857D02*
X171190478Y-105853809D01*
X171190478Y-105853809D02*
X171095240Y-106044285D01*
X171095240Y-106044285D02*
X171000002Y-106139523D01*
X171000002Y-106139523D02*
X170809526Y-106234761D01*
X170809526Y-106234761D02*
X170619049Y-106234761D01*
X170619049Y-106234761D02*
X170428573Y-106139523D01*
X170428573Y-106139523D02*
X170333335Y-106044285D01*
X170333335Y-106044285D02*
X170238097Y-105853809D01*
X170238097Y-105853809D02*
X170142859Y-105472857D01*
X170142859Y-105472857D02*
X170142859Y-104996666D01*
X170142859Y-104996666D02*
X170238097Y-104615714D01*
X170238097Y-104615714D02*
X170333335Y-104425238D01*
X170333335Y-104425238D02*
X170428573Y-104330000D01*
X170428573Y-104330000D02*
X170619049Y-104234761D01*
X167976190Y-55830000D02*
X167785714Y-55734761D01*
X167785714Y-55734761D02*
X167500000Y-55734761D01*
X167500000Y-55734761D02*
X167214285Y-55830000D01*
X167214285Y-55830000D02*
X167023809Y-56020476D01*
X167023809Y-56020476D02*
X166928571Y-56210952D01*
X166928571Y-56210952D02*
X166833333Y-56591904D01*
X166833333Y-56591904D02*
X166833333Y-56877619D01*
X166833333Y-56877619D02*
X166928571Y-57258571D01*
X166928571Y-57258571D02*
X167023809Y-57449047D01*
X167023809Y-57449047D02*
X167214285Y-57639523D01*
X167214285Y-57639523D02*
X167500000Y-57734761D01*
X167500000Y-57734761D02*
X167690476Y-57734761D01*
X167690476Y-57734761D02*
X167976190Y-57639523D01*
X167976190Y-57639523D02*
X168071428Y-57544285D01*
X168071428Y-57544285D02*
X168071428Y-56877619D01*
X168071428Y-56877619D02*
X167690476Y-56877619D01*
X168928571Y-57734761D02*
X168928571Y-55734761D01*
X168928571Y-55734761D02*
X170071428Y-57734761D01*
X170071428Y-57734761D02*
X170071428Y-55734761D01*
X171023809Y-57734761D02*
X171023809Y-55734761D01*
X171023809Y-55734761D02*
X171499999Y-55734761D01*
X171499999Y-55734761D02*
X171785714Y-55830000D01*
X171785714Y-55830000D02*
X171976190Y-56020476D01*
X171976190Y-56020476D02*
X172071428Y-56210952D01*
X172071428Y-56210952D02*
X172166666Y-56591904D01*
X172166666Y-56591904D02*
X172166666Y-56877619D01*
X172166666Y-56877619D02*
X172071428Y-57258571D01*
X172071428Y-57258571D02*
X171976190Y-57449047D01*
X171976190Y-57449047D02*
X171785714Y-57639523D01*
X171785714Y-57639523D02*
X171499999Y-57734761D01*
X171499999Y-57734761D02*
X171023809Y-57734761D01*
D10*
X103857142Y-94272142D02*
X103809523Y-94319761D01*
X103809523Y-94319761D02*
X103666666Y-94367380D01*
X103666666Y-94367380D02*
X103571428Y-94367380D01*
X103571428Y-94367380D02*
X103428571Y-94319761D01*
X103428571Y-94319761D02*
X103333333Y-94224523D01*
X103333333Y-94224523D02*
X103285714Y-94129285D01*
X103285714Y-94129285D02*
X103238095Y-93938809D01*
X103238095Y-93938809D02*
X103238095Y-93795952D01*
X103238095Y-93795952D02*
X103285714Y-93605476D01*
X103285714Y-93605476D02*
X103333333Y-93510238D01*
X103333333Y-93510238D02*
X103428571Y-93415000D01*
X103428571Y-93415000D02*
X103571428Y-93367380D01*
X103571428Y-93367380D02*
X103666666Y-93367380D01*
X103666666Y-93367380D02*
X103809523Y-93415000D01*
X103809523Y-93415000D02*
X103857142Y-93462619D01*
X104190476Y-93367380D02*
X104809523Y-93367380D01*
X104809523Y-93367380D02*
X104476190Y-93748333D01*
X104476190Y-93748333D02*
X104619047Y-93748333D01*
X104619047Y-93748333D02*
X104714285Y-93795952D01*
X104714285Y-93795952D02*
X104761904Y-93843571D01*
X104761904Y-93843571D02*
X104809523Y-93938809D01*
X104809523Y-93938809D02*
X104809523Y-94176904D01*
X104809523Y-94176904D02*
X104761904Y-94272142D01*
X104761904Y-94272142D02*
X104714285Y-94319761D01*
X104714285Y-94319761D02*
X104619047Y-94367380D01*
X104619047Y-94367380D02*
X104333333Y-94367380D01*
X104333333Y-94367380D02*
X104238095Y-94319761D01*
X104238095Y-94319761D02*
X104190476Y-94272142D01*
X105428571Y-93367380D02*
X105523809Y-93367380D01*
X105523809Y-93367380D02*
X105619047Y-93415000D01*
X105619047Y-93415000D02*
X105666666Y-93462619D01*
X105666666Y-93462619D02*
X105714285Y-93557857D01*
X105714285Y-93557857D02*
X105761904Y-93748333D01*
X105761904Y-93748333D02*
X105761904Y-93986428D01*
X105761904Y-93986428D02*
X105714285Y-94176904D01*
X105714285Y-94176904D02*
X105666666Y-94272142D01*
X105666666Y-94272142D02*
X105619047Y-94319761D01*
X105619047Y-94319761D02*
X105523809Y-94367380D01*
X105523809Y-94367380D02*
X105428571Y-94367380D01*
X105428571Y-94367380D02*
X105333333Y-94319761D01*
X105333333Y-94319761D02*
X105285714Y-94272142D01*
X105285714Y-94272142D02*
X105238095Y-94176904D01*
X105238095Y-94176904D02*
X105190476Y-93986428D01*
X105190476Y-93986428D02*
X105190476Y-93748333D01*
X105190476Y-93748333D02*
X105238095Y-93557857D01*
X105238095Y-93557857D02*
X105285714Y-93462619D01*
X105285714Y-93462619D02*
X105333333Y-93415000D01*
X105333333Y-93415000D02*
X105428571Y-93367380D01*
X104357142Y-89867380D02*
X104023809Y-89391190D01*
X103785714Y-89867380D02*
X103785714Y-88867380D01*
X103785714Y-88867380D02*
X104166666Y-88867380D01*
X104166666Y-88867380D02*
X104261904Y-88915000D01*
X104261904Y-88915000D02*
X104309523Y-88962619D01*
X104309523Y-88962619D02*
X104357142Y-89057857D01*
X104357142Y-89057857D02*
X104357142Y-89200714D01*
X104357142Y-89200714D02*
X104309523Y-89295952D01*
X104309523Y-89295952D02*
X104261904Y-89343571D01*
X104261904Y-89343571D02*
X104166666Y-89391190D01*
X104166666Y-89391190D02*
X103785714Y-89391190D01*
X105309523Y-89867380D02*
X104738095Y-89867380D01*
X105023809Y-89867380D02*
X105023809Y-88867380D01*
X105023809Y-88867380D02*
X104928571Y-89010238D01*
X104928571Y-89010238D02*
X104833333Y-89105476D01*
X104833333Y-89105476D02*
X104738095Y-89153095D01*
X106166666Y-88867380D02*
X105976190Y-88867380D01*
X105976190Y-88867380D02*
X105880952Y-88915000D01*
X105880952Y-88915000D02*
X105833333Y-88962619D01*
X105833333Y-88962619D02*
X105738095Y-89105476D01*
X105738095Y-89105476D02*
X105690476Y-89295952D01*
X105690476Y-89295952D02*
X105690476Y-89676904D01*
X105690476Y-89676904D02*
X105738095Y-89772142D01*
X105738095Y-89772142D02*
X105785714Y-89819761D01*
X105785714Y-89819761D02*
X105880952Y-89867380D01*
X105880952Y-89867380D02*
X106071428Y-89867380D01*
X106071428Y-89867380D02*
X106166666Y-89819761D01*
X106166666Y-89819761D02*
X106214285Y-89772142D01*
X106214285Y-89772142D02*
X106261904Y-89676904D01*
X106261904Y-89676904D02*
X106261904Y-89438809D01*
X106261904Y-89438809D02*
X106214285Y-89343571D01*
X106214285Y-89343571D02*
X106166666Y-89295952D01*
X106166666Y-89295952D02*
X106071428Y-89248333D01*
X106071428Y-89248333D02*
X105880952Y-89248333D01*
X105880952Y-89248333D02*
X105785714Y-89295952D01*
X105785714Y-89295952D02*
X105738095Y-89343571D01*
X105738095Y-89343571D02*
X105690476Y-89438809D01*
X91883333Y-81190500D02*
X91850000Y-81223833D01*
X91850000Y-81223833D02*
X91750000Y-81257166D01*
X91750000Y-81257166D02*
X91683333Y-81257166D01*
X91683333Y-81257166D02*
X91583333Y-81223833D01*
X91583333Y-81223833D02*
X91516667Y-81157166D01*
X91516667Y-81157166D02*
X91483333Y-81090500D01*
X91483333Y-81090500D02*
X91450000Y-80957166D01*
X91450000Y-80957166D02*
X91450000Y-80857166D01*
X91450000Y-80857166D02*
X91483333Y-80723833D01*
X91483333Y-80723833D02*
X91516667Y-80657166D01*
X91516667Y-80657166D02*
X91583333Y-80590500D01*
X91583333Y-80590500D02*
X91683333Y-80557166D01*
X91683333Y-80557166D02*
X91750000Y-80557166D01*
X91750000Y-80557166D02*
X91850000Y-80590500D01*
X91850000Y-80590500D02*
X91883333Y-80623833D01*
X92483333Y-80557166D02*
X92350000Y-80557166D01*
X92350000Y-80557166D02*
X92283333Y-80590500D01*
X92283333Y-80590500D02*
X92250000Y-80623833D01*
X92250000Y-80623833D02*
X92183333Y-80723833D01*
X92183333Y-80723833D02*
X92150000Y-80857166D01*
X92150000Y-80857166D02*
X92150000Y-81123833D01*
X92150000Y-81123833D02*
X92183333Y-81190500D01*
X92183333Y-81190500D02*
X92216667Y-81223833D01*
X92216667Y-81223833D02*
X92283333Y-81257166D01*
X92283333Y-81257166D02*
X92416667Y-81257166D01*
X92416667Y-81257166D02*
X92483333Y-81223833D01*
X92483333Y-81223833D02*
X92516667Y-81190500D01*
X92516667Y-81190500D02*
X92550000Y-81123833D01*
X92550000Y-81123833D02*
X92550000Y-80957166D01*
X92550000Y-80957166D02*
X92516667Y-80890500D01*
X92516667Y-80890500D02*
X92483333Y-80857166D01*
X92483333Y-80857166D02*
X92416667Y-80823833D01*
X92416667Y-80823833D02*
X92283333Y-80823833D01*
X92283333Y-80823833D02*
X92216667Y-80857166D01*
X92216667Y-80857166D02*
X92183333Y-80890500D01*
X92183333Y-80890500D02*
X92150000Y-80957166D01*
D13*
X105116666Y-70557166D02*
X105516666Y-70557166D01*
X105316666Y-71257166D02*
X105316666Y-70557166D01*
X106149999Y-71257166D02*
X105916666Y-70923833D01*
X105749999Y-71257166D02*
X105749999Y-70557166D01*
X105749999Y-70557166D02*
X106016666Y-70557166D01*
X106016666Y-70557166D02*
X106083333Y-70590500D01*
X106083333Y-70590500D02*
X106116666Y-70623833D01*
X106116666Y-70623833D02*
X106149999Y-70690500D01*
X106149999Y-70690500D02*
X106149999Y-70790500D01*
X106149999Y-70790500D02*
X106116666Y-70857166D01*
X106116666Y-70857166D02*
X106083333Y-70890500D01*
X106083333Y-70890500D02*
X106016666Y-70923833D01*
X106016666Y-70923833D02*
X105749999Y-70923833D01*
X106816666Y-71257166D02*
X106416666Y-71257166D01*
X106616666Y-71257166D02*
X106616666Y-70557166D01*
X106616666Y-70557166D02*
X106549999Y-70657166D01*
X106549999Y-70657166D02*
X106483333Y-70723833D01*
X106483333Y-70723833D02*
X106416666Y-70757166D01*
D10*
X111049999Y-76257166D02*
X110816666Y-75923833D01*
X110649999Y-76257166D02*
X110649999Y-75557166D01*
X110649999Y-75557166D02*
X110916666Y-75557166D01*
X110916666Y-75557166D02*
X110983333Y-75590500D01*
X110983333Y-75590500D02*
X111016666Y-75623833D01*
X111016666Y-75623833D02*
X111049999Y-75690500D01*
X111049999Y-75690500D02*
X111049999Y-75790500D01*
X111049999Y-75790500D02*
X111016666Y-75857166D01*
X111016666Y-75857166D02*
X110983333Y-75890500D01*
X110983333Y-75890500D02*
X110916666Y-75923833D01*
X110916666Y-75923833D02*
X110649999Y-75923833D01*
X111716666Y-76257166D02*
X111316666Y-76257166D01*
X111516666Y-76257166D02*
X111516666Y-75557166D01*
X111516666Y-75557166D02*
X111449999Y-75657166D01*
X111449999Y-75657166D02*
X111383333Y-75723833D01*
X111383333Y-75723833D02*
X111316666Y-75757166D01*
X111983333Y-75623833D02*
X112016666Y-75590500D01*
X112016666Y-75590500D02*
X112083333Y-75557166D01*
X112083333Y-75557166D02*
X112250000Y-75557166D01*
X112250000Y-75557166D02*
X112316666Y-75590500D01*
X112316666Y-75590500D02*
X112350000Y-75623833D01*
X112350000Y-75623833D02*
X112383333Y-75690500D01*
X112383333Y-75690500D02*
X112383333Y-75757166D01*
X112383333Y-75757166D02*
X112350000Y-75857166D01*
X112350000Y-75857166D02*
X111950000Y-76257166D01*
X111950000Y-76257166D02*
X112383333Y-76257166D01*
X98383333Y-103190500D02*
X98350000Y-103223833D01*
X98350000Y-103223833D02*
X98250000Y-103257166D01*
X98250000Y-103257166D02*
X98183333Y-103257166D01*
X98183333Y-103257166D02*
X98083333Y-103223833D01*
X98083333Y-103223833D02*
X98016667Y-103157166D01*
X98016667Y-103157166D02*
X97983333Y-103090500D01*
X97983333Y-103090500D02*
X97950000Y-102957166D01*
X97950000Y-102957166D02*
X97950000Y-102857166D01*
X97950000Y-102857166D02*
X97983333Y-102723833D01*
X97983333Y-102723833D02*
X98016667Y-102657166D01*
X98016667Y-102657166D02*
X98083333Y-102590500D01*
X98083333Y-102590500D02*
X98183333Y-102557166D01*
X98183333Y-102557166D02*
X98250000Y-102557166D01*
X98250000Y-102557166D02*
X98350000Y-102590500D01*
X98350000Y-102590500D02*
X98383333Y-102623833D01*
X98616667Y-102557166D02*
X99083333Y-102557166D01*
X99083333Y-102557166D02*
X98783333Y-103257166D01*
X91883333Y-82757166D02*
X91650000Y-82423833D01*
X91483333Y-82757166D02*
X91483333Y-82057166D01*
X91483333Y-82057166D02*
X91750000Y-82057166D01*
X91750000Y-82057166D02*
X91816667Y-82090500D01*
X91816667Y-82090500D02*
X91850000Y-82123833D01*
X91850000Y-82123833D02*
X91883333Y-82190500D01*
X91883333Y-82190500D02*
X91883333Y-82290500D01*
X91883333Y-82290500D02*
X91850000Y-82357166D01*
X91850000Y-82357166D02*
X91816667Y-82390500D01*
X91816667Y-82390500D02*
X91750000Y-82423833D01*
X91750000Y-82423833D02*
X91483333Y-82423833D01*
X92483333Y-82057166D02*
X92350000Y-82057166D01*
X92350000Y-82057166D02*
X92283333Y-82090500D01*
X92283333Y-82090500D02*
X92250000Y-82123833D01*
X92250000Y-82123833D02*
X92183333Y-82223833D01*
X92183333Y-82223833D02*
X92150000Y-82357166D01*
X92150000Y-82357166D02*
X92150000Y-82623833D01*
X92150000Y-82623833D02*
X92183333Y-82690500D01*
X92183333Y-82690500D02*
X92216667Y-82723833D01*
X92216667Y-82723833D02*
X92283333Y-82757166D01*
X92283333Y-82757166D02*
X92416667Y-82757166D01*
X92416667Y-82757166D02*
X92483333Y-82723833D01*
X92483333Y-82723833D02*
X92516667Y-82690500D01*
X92516667Y-82690500D02*
X92550000Y-82623833D01*
X92550000Y-82623833D02*
X92550000Y-82457166D01*
X92550000Y-82457166D02*
X92516667Y-82390500D01*
X92516667Y-82390500D02*
X92483333Y-82357166D01*
X92483333Y-82357166D02*
X92416667Y-82323833D01*
X92416667Y-82323833D02*
X92283333Y-82323833D01*
X92283333Y-82323833D02*
X92216667Y-82357166D01*
X92216667Y-82357166D02*
X92183333Y-82390500D01*
X92183333Y-82390500D02*
X92150000Y-82457166D01*
X101573833Y-95276666D02*
X101540500Y-95343333D01*
X101540500Y-95343333D02*
X101473833Y-95410000D01*
X101473833Y-95410000D02*
X101373833Y-95510000D01*
X101373833Y-95510000D02*
X101340500Y-95576666D01*
X101340500Y-95576666D02*
X101340500Y-95643333D01*
X101507166Y-95610000D02*
X101473833Y-95676666D01*
X101473833Y-95676666D02*
X101407166Y-95743333D01*
X101407166Y-95743333D02*
X101273833Y-95776666D01*
X101273833Y-95776666D02*
X101040500Y-95776666D01*
X101040500Y-95776666D02*
X100907166Y-95743333D01*
X100907166Y-95743333D02*
X100840500Y-95676666D01*
X100840500Y-95676666D02*
X100807166Y-95610000D01*
X100807166Y-95610000D02*
X100807166Y-95476666D01*
X100807166Y-95476666D02*
X100840500Y-95410000D01*
X100840500Y-95410000D02*
X100907166Y-95343333D01*
X100907166Y-95343333D02*
X101040500Y-95310000D01*
X101040500Y-95310000D02*
X101273833Y-95310000D01*
X101273833Y-95310000D02*
X101407166Y-95343333D01*
X101407166Y-95343333D02*
X101473833Y-95410000D01*
X101473833Y-95410000D02*
X101507166Y-95476666D01*
X101507166Y-95476666D02*
X101507166Y-95610000D01*
X100807166Y-95076667D02*
X100807166Y-94643333D01*
X100807166Y-94643333D02*
X101073833Y-94876667D01*
X101073833Y-94876667D02*
X101073833Y-94776667D01*
X101073833Y-94776667D02*
X101107166Y-94710000D01*
X101107166Y-94710000D02*
X101140500Y-94676667D01*
X101140500Y-94676667D02*
X101207166Y-94643333D01*
X101207166Y-94643333D02*
X101373833Y-94643333D01*
X101373833Y-94643333D02*
X101440500Y-94676667D01*
X101440500Y-94676667D02*
X101473833Y-94710000D01*
X101473833Y-94710000D02*
X101507166Y-94776667D01*
X101507166Y-94776667D02*
X101507166Y-94976667D01*
X101507166Y-94976667D02*
X101473833Y-95043333D01*
X101473833Y-95043333D02*
X101440500Y-95076667D01*
D13*
X125683333Y-69573833D02*
X125616666Y-69540500D01*
X125616666Y-69540500D02*
X125550000Y-69473833D01*
X125550000Y-69473833D02*
X125450000Y-69373833D01*
X125450000Y-69373833D02*
X125383333Y-69340500D01*
X125383333Y-69340500D02*
X125316666Y-69340500D01*
X125350000Y-69507166D02*
X125283333Y-69473833D01*
X125283333Y-69473833D02*
X125216666Y-69407166D01*
X125216666Y-69407166D02*
X125183333Y-69273833D01*
X125183333Y-69273833D02*
X125183333Y-69040500D01*
X125183333Y-69040500D02*
X125216666Y-68907166D01*
X125216666Y-68907166D02*
X125283333Y-68840500D01*
X125283333Y-68840500D02*
X125350000Y-68807166D01*
X125350000Y-68807166D02*
X125483333Y-68807166D01*
X125483333Y-68807166D02*
X125550000Y-68840500D01*
X125550000Y-68840500D02*
X125616666Y-68907166D01*
X125616666Y-68907166D02*
X125650000Y-69040500D01*
X125650000Y-69040500D02*
X125650000Y-69273833D01*
X125650000Y-69273833D02*
X125616666Y-69407166D01*
X125616666Y-69407166D02*
X125550000Y-69473833D01*
X125550000Y-69473833D02*
X125483333Y-69507166D01*
X125483333Y-69507166D02*
X125350000Y-69507166D01*
X126249999Y-69040500D02*
X126249999Y-69507166D01*
X126083333Y-68773833D02*
X125916666Y-69273833D01*
X125916666Y-69273833D02*
X126349999Y-69273833D01*
D10*
X97083333Y-35457166D02*
X97083333Y-34757166D01*
X97083333Y-34757166D02*
X97250000Y-34757166D01*
X97250000Y-34757166D02*
X97350000Y-34790500D01*
X97350000Y-34790500D02*
X97416667Y-34857166D01*
X97416667Y-34857166D02*
X97450000Y-34923833D01*
X97450000Y-34923833D02*
X97483333Y-35057166D01*
X97483333Y-35057166D02*
X97483333Y-35157166D01*
X97483333Y-35157166D02*
X97450000Y-35290500D01*
X97450000Y-35290500D02*
X97416667Y-35357166D01*
X97416667Y-35357166D02*
X97350000Y-35423833D01*
X97350000Y-35423833D02*
X97250000Y-35457166D01*
X97250000Y-35457166D02*
X97083333Y-35457166D01*
X97750000Y-34823833D02*
X97783333Y-34790500D01*
X97783333Y-34790500D02*
X97850000Y-34757166D01*
X97850000Y-34757166D02*
X98016667Y-34757166D01*
X98016667Y-34757166D02*
X98083333Y-34790500D01*
X98083333Y-34790500D02*
X98116667Y-34823833D01*
X98116667Y-34823833D02*
X98150000Y-34890500D01*
X98150000Y-34890500D02*
X98150000Y-34957166D01*
X98150000Y-34957166D02*
X98116667Y-35057166D01*
X98116667Y-35057166D02*
X97716667Y-35457166D01*
X97716667Y-35457166D02*
X98150000Y-35457166D01*
X92238095Y-42867380D02*
X92238095Y-43676904D01*
X92238095Y-43676904D02*
X92285714Y-43772142D01*
X92285714Y-43772142D02*
X92333333Y-43819761D01*
X92333333Y-43819761D02*
X92428571Y-43867380D01*
X92428571Y-43867380D02*
X92619047Y-43867380D01*
X92619047Y-43867380D02*
X92714285Y-43819761D01*
X92714285Y-43819761D02*
X92761904Y-43772142D01*
X92761904Y-43772142D02*
X92809523Y-43676904D01*
X92809523Y-43676904D02*
X92809523Y-42867380D01*
X93809523Y-43867380D02*
X93238095Y-43867380D01*
X93523809Y-43867380D02*
X93523809Y-42867380D01*
X93523809Y-42867380D02*
X93428571Y-43010238D01*
X93428571Y-43010238D02*
X93333333Y-43105476D01*
X93333333Y-43105476D02*
X93238095Y-43153095D01*
X87883333Y-71190500D02*
X87850000Y-71223833D01*
X87850000Y-71223833D02*
X87750000Y-71257166D01*
X87750000Y-71257166D02*
X87683333Y-71257166D01*
X87683333Y-71257166D02*
X87583333Y-71223833D01*
X87583333Y-71223833D02*
X87516667Y-71157166D01*
X87516667Y-71157166D02*
X87483333Y-71090500D01*
X87483333Y-71090500D02*
X87450000Y-70957166D01*
X87450000Y-70957166D02*
X87450000Y-70857166D01*
X87450000Y-70857166D02*
X87483333Y-70723833D01*
X87483333Y-70723833D02*
X87516667Y-70657166D01*
X87516667Y-70657166D02*
X87583333Y-70590500D01*
X87583333Y-70590500D02*
X87683333Y-70557166D01*
X87683333Y-70557166D02*
X87750000Y-70557166D01*
X87750000Y-70557166D02*
X87850000Y-70590500D01*
X87850000Y-70590500D02*
X87883333Y-70623833D01*
X88216667Y-71257166D02*
X88350000Y-71257166D01*
X88350000Y-71257166D02*
X88416667Y-71223833D01*
X88416667Y-71223833D02*
X88450000Y-71190500D01*
X88450000Y-71190500D02*
X88516667Y-71090500D01*
X88516667Y-71090500D02*
X88550000Y-70957166D01*
X88550000Y-70957166D02*
X88550000Y-70690500D01*
X88550000Y-70690500D02*
X88516667Y-70623833D01*
X88516667Y-70623833D02*
X88483333Y-70590500D01*
X88483333Y-70590500D02*
X88416667Y-70557166D01*
X88416667Y-70557166D02*
X88283333Y-70557166D01*
X88283333Y-70557166D02*
X88216667Y-70590500D01*
X88216667Y-70590500D02*
X88183333Y-70623833D01*
X88183333Y-70623833D02*
X88150000Y-70690500D01*
X88150000Y-70690500D02*
X88150000Y-70857166D01*
X88150000Y-70857166D02*
X88183333Y-70923833D01*
X88183333Y-70923833D02*
X88216667Y-70957166D01*
X88216667Y-70957166D02*
X88283333Y-70990500D01*
X88283333Y-70990500D02*
X88416667Y-70990500D01*
X88416667Y-70990500D02*
X88483333Y-70957166D01*
X88483333Y-70957166D02*
X88516667Y-70923833D01*
X88516667Y-70923833D02*
X88550000Y-70857166D01*
X97962619Y-90732738D02*
X97915000Y-90827976D01*
X97915000Y-90827976D02*
X97819761Y-90923214D01*
X97819761Y-90923214D02*
X97676904Y-91066071D01*
X97676904Y-91066071D02*
X97629285Y-91161309D01*
X97629285Y-91161309D02*
X97629285Y-91256547D01*
X97867380Y-91208928D02*
X97819761Y-91304166D01*
X97819761Y-91304166D02*
X97724523Y-91399404D01*
X97724523Y-91399404D02*
X97534047Y-91447023D01*
X97534047Y-91447023D02*
X97200714Y-91447023D01*
X97200714Y-91447023D02*
X97010238Y-91399404D01*
X97010238Y-91399404D02*
X96915000Y-91304166D01*
X96915000Y-91304166D02*
X96867380Y-91208928D01*
X96867380Y-91208928D02*
X96867380Y-91018452D01*
X96867380Y-91018452D02*
X96915000Y-90923214D01*
X96915000Y-90923214D02*
X97010238Y-90827976D01*
X97010238Y-90827976D02*
X97200714Y-90780357D01*
X97200714Y-90780357D02*
X97534047Y-90780357D01*
X97534047Y-90780357D02*
X97724523Y-90827976D01*
X97724523Y-90827976D02*
X97819761Y-90923214D01*
X97819761Y-90923214D02*
X97867380Y-91018452D01*
X97867380Y-91018452D02*
X97867380Y-91208928D01*
X96867380Y-89875595D02*
X96867380Y-90351785D01*
X96867380Y-90351785D02*
X97343571Y-90399404D01*
X97343571Y-90399404D02*
X97295952Y-90351785D01*
X97295952Y-90351785D02*
X97248333Y-90256547D01*
X97248333Y-90256547D02*
X97248333Y-90018452D01*
X97248333Y-90018452D02*
X97295952Y-89923214D01*
X97295952Y-89923214D02*
X97343571Y-89875595D01*
X97343571Y-89875595D02*
X97438809Y-89827976D01*
X97438809Y-89827976D02*
X97676904Y-89827976D01*
X97676904Y-89827976D02*
X97772142Y-89875595D01*
X97772142Y-89875595D02*
X97819761Y-89923214D01*
X97819761Y-89923214D02*
X97867380Y-90018452D01*
X97867380Y-90018452D02*
X97867380Y-90256547D01*
X97867380Y-90256547D02*
X97819761Y-90351785D01*
X97819761Y-90351785D02*
X97772142Y-90399404D01*
D13*
X87466666Y-99557166D02*
X87866666Y-99557166D01*
X87666666Y-100257166D02*
X87666666Y-99557166D01*
X88466666Y-100257166D02*
X88066666Y-100257166D01*
X88266666Y-100257166D02*
X88266666Y-99557166D01*
X88266666Y-99557166D02*
X88199999Y-99657166D01*
X88199999Y-99657166D02*
X88133333Y-99723833D01*
X88133333Y-99723833D02*
X88066666Y-99757166D01*
D10*
X102786666Y-44557166D02*
X102786666Y-45057166D01*
X102786666Y-45057166D02*
X102753333Y-45157166D01*
X102753333Y-45157166D02*
X102686666Y-45223833D01*
X102686666Y-45223833D02*
X102586666Y-45257166D01*
X102586666Y-45257166D02*
X102520000Y-45257166D01*
X103053333Y-44557166D02*
X103486666Y-44557166D01*
X103486666Y-44557166D02*
X103253333Y-44823833D01*
X103253333Y-44823833D02*
X103353333Y-44823833D01*
X103353333Y-44823833D02*
X103419999Y-44857166D01*
X103419999Y-44857166D02*
X103453333Y-44890500D01*
X103453333Y-44890500D02*
X103486666Y-44957166D01*
X103486666Y-44957166D02*
X103486666Y-45123833D01*
X103486666Y-45123833D02*
X103453333Y-45190500D01*
X103453333Y-45190500D02*
X103419999Y-45223833D01*
X103419999Y-45223833D02*
X103353333Y-45257166D01*
X103353333Y-45257166D02*
X103153333Y-45257166D01*
X103153333Y-45257166D02*
X103086666Y-45223833D01*
X103086666Y-45223833D02*
X103053333Y-45190500D01*
X108049999Y-80690500D02*
X108016666Y-80723833D01*
X108016666Y-80723833D02*
X107916666Y-80757166D01*
X107916666Y-80757166D02*
X107849999Y-80757166D01*
X107849999Y-80757166D02*
X107749999Y-80723833D01*
X107749999Y-80723833D02*
X107683333Y-80657166D01*
X107683333Y-80657166D02*
X107649999Y-80590500D01*
X107649999Y-80590500D02*
X107616666Y-80457166D01*
X107616666Y-80457166D02*
X107616666Y-80357166D01*
X107616666Y-80357166D02*
X107649999Y-80223833D01*
X107649999Y-80223833D02*
X107683333Y-80157166D01*
X107683333Y-80157166D02*
X107749999Y-80090500D01*
X107749999Y-80090500D02*
X107849999Y-80057166D01*
X107849999Y-80057166D02*
X107916666Y-80057166D01*
X107916666Y-80057166D02*
X108016666Y-80090500D01*
X108016666Y-80090500D02*
X108049999Y-80123833D01*
X108716666Y-80757166D02*
X108316666Y-80757166D01*
X108516666Y-80757166D02*
X108516666Y-80057166D01*
X108516666Y-80057166D02*
X108449999Y-80157166D01*
X108449999Y-80157166D02*
X108383333Y-80223833D01*
X108383333Y-80223833D02*
X108316666Y-80257166D01*
X109383333Y-80757166D02*
X108983333Y-80757166D01*
X109183333Y-80757166D02*
X109183333Y-80057166D01*
X109183333Y-80057166D02*
X109116666Y-80157166D01*
X109116666Y-80157166D02*
X109050000Y-80223833D01*
X109050000Y-80223833D02*
X108983333Y-80257166D01*
X130190500Y-44116666D02*
X130223833Y-44149999D01*
X130223833Y-44149999D02*
X130257166Y-44249999D01*
X130257166Y-44249999D02*
X130257166Y-44316666D01*
X130257166Y-44316666D02*
X130223833Y-44416666D01*
X130223833Y-44416666D02*
X130157166Y-44483333D01*
X130157166Y-44483333D02*
X130090500Y-44516666D01*
X130090500Y-44516666D02*
X129957166Y-44549999D01*
X129957166Y-44549999D02*
X129857166Y-44549999D01*
X129857166Y-44549999D02*
X129723833Y-44516666D01*
X129723833Y-44516666D02*
X129657166Y-44483333D01*
X129657166Y-44483333D02*
X129590500Y-44416666D01*
X129590500Y-44416666D02*
X129557166Y-44316666D01*
X129557166Y-44316666D02*
X129557166Y-44249999D01*
X129557166Y-44249999D02*
X129590500Y-44149999D01*
X129590500Y-44149999D02*
X129623833Y-44116666D01*
X129623833Y-43849999D02*
X129590500Y-43816666D01*
X129590500Y-43816666D02*
X129557166Y-43749999D01*
X129557166Y-43749999D02*
X129557166Y-43583333D01*
X129557166Y-43583333D02*
X129590500Y-43516666D01*
X129590500Y-43516666D02*
X129623833Y-43483333D01*
X129623833Y-43483333D02*
X129690500Y-43449999D01*
X129690500Y-43449999D02*
X129757166Y-43449999D01*
X129757166Y-43449999D02*
X129857166Y-43483333D01*
X129857166Y-43483333D02*
X130257166Y-43883333D01*
X130257166Y-43883333D02*
X130257166Y-43449999D01*
X126323833Y-44066666D02*
X126290500Y-44133333D01*
X126290500Y-44133333D02*
X126223833Y-44200000D01*
X126223833Y-44200000D02*
X126123833Y-44300000D01*
X126123833Y-44300000D02*
X126090500Y-44366666D01*
X126090500Y-44366666D02*
X126090500Y-44433333D01*
X126257166Y-44400000D02*
X126223833Y-44466666D01*
X126223833Y-44466666D02*
X126157166Y-44533333D01*
X126157166Y-44533333D02*
X126023833Y-44566666D01*
X126023833Y-44566666D02*
X125790500Y-44566666D01*
X125790500Y-44566666D02*
X125657166Y-44533333D01*
X125657166Y-44533333D02*
X125590500Y-44466666D01*
X125590500Y-44466666D02*
X125557166Y-44400000D01*
X125557166Y-44400000D02*
X125557166Y-44266666D01*
X125557166Y-44266666D02*
X125590500Y-44200000D01*
X125590500Y-44200000D02*
X125657166Y-44133333D01*
X125657166Y-44133333D02*
X125790500Y-44100000D01*
X125790500Y-44100000D02*
X126023833Y-44100000D01*
X126023833Y-44100000D02*
X126157166Y-44133333D01*
X126157166Y-44133333D02*
X126223833Y-44200000D01*
X126223833Y-44200000D02*
X126257166Y-44266666D01*
X126257166Y-44266666D02*
X126257166Y-44400000D01*
X126257166Y-43433333D02*
X126257166Y-43833333D01*
X126257166Y-43633333D02*
X125557166Y-43633333D01*
X125557166Y-43633333D02*
X125657166Y-43700000D01*
X125657166Y-43700000D02*
X125723833Y-43766667D01*
X125723833Y-43766667D02*
X125757166Y-43833333D01*
X132257166Y-44116666D02*
X131923833Y-44349999D01*
X132257166Y-44516666D02*
X131557166Y-44516666D01*
X131557166Y-44516666D02*
X131557166Y-44249999D01*
X131557166Y-44249999D02*
X131590500Y-44183333D01*
X131590500Y-44183333D02*
X131623833Y-44149999D01*
X131623833Y-44149999D02*
X131690500Y-44116666D01*
X131690500Y-44116666D02*
X131790500Y-44116666D01*
X131790500Y-44116666D02*
X131857166Y-44149999D01*
X131857166Y-44149999D02*
X131890500Y-44183333D01*
X131890500Y-44183333D02*
X131923833Y-44249999D01*
X131923833Y-44249999D02*
X131923833Y-44516666D01*
X132257166Y-43449999D02*
X132257166Y-43849999D01*
X132257166Y-43649999D02*
X131557166Y-43649999D01*
X131557166Y-43649999D02*
X131657166Y-43716666D01*
X131657166Y-43716666D02*
X131723833Y-43783333D01*
X131723833Y-43783333D02*
X131757166Y-43849999D01*
X111049999Y-82007166D02*
X110816666Y-81673833D01*
X110649999Y-82007166D02*
X110649999Y-81307166D01*
X110649999Y-81307166D02*
X110916666Y-81307166D01*
X110916666Y-81307166D02*
X110983333Y-81340500D01*
X110983333Y-81340500D02*
X111016666Y-81373833D01*
X111016666Y-81373833D02*
X111049999Y-81440500D01*
X111049999Y-81440500D02*
X111049999Y-81540500D01*
X111049999Y-81540500D02*
X111016666Y-81607166D01*
X111016666Y-81607166D02*
X110983333Y-81640500D01*
X110983333Y-81640500D02*
X110916666Y-81673833D01*
X110916666Y-81673833D02*
X110649999Y-81673833D01*
X111716666Y-82007166D02*
X111316666Y-82007166D01*
X111516666Y-82007166D02*
X111516666Y-81307166D01*
X111516666Y-81307166D02*
X111449999Y-81407166D01*
X111449999Y-81407166D02*
X111383333Y-81473833D01*
X111383333Y-81473833D02*
X111316666Y-81507166D01*
X111950000Y-81307166D02*
X112383333Y-81307166D01*
X112383333Y-81307166D02*
X112150000Y-81573833D01*
X112150000Y-81573833D02*
X112250000Y-81573833D01*
X112250000Y-81573833D02*
X112316666Y-81607166D01*
X112316666Y-81607166D02*
X112350000Y-81640500D01*
X112350000Y-81640500D02*
X112383333Y-81707166D01*
X112383333Y-81707166D02*
X112383333Y-81873833D01*
X112383333Y-81873833D02*
X112350000Y-81940500D01*
X112350000Y-81940500D02*
X112316666Y-81973833D01*
X112316666Y-81973833D02*
X112250000Y-82007166D01*
X112250000Y-82007166D02*
X112050000Y-82007166D01*
X112050000Y-82007166D02*
X111983333Y-81973833D01*
X111983333Y-81973833D02*
X111950000Y-81940500D01*
X102383333Y-65690500D02*
X102350000Y-65723833D01*
X102350000Y-65723833D02*
X102250000Y-65757166D01*
X102250000Y-65757166D02*
X102183333Y-65757166D01*
X102183333Y-65757166D02*
X102083333Y-65723833D01*
X102083333Y-65723833D02*
X102016667Y-65657166D01*
X102016667Y-65657166D02*
X101983333Y-65590500D01*
X101983333Y-65590500D02*
X101950000Y-65457166D01*
X101950000Y-65457166D02*
X101950000Y-65357166D01*
X101950000Y-65357166D02*
X101983333Y-65223833D01*
X101983333Y-65223833D02*
X102016667Y-65157166D01*
X102016667Y-65157166D02*
X102083333Y-65090500D01*
X102083333Y-65090500D02*
X102183333Y-65057166D01*
X102183333Y-65057166D02*
X102250000Y-65057166D01*
X102250000Y-65057166D02*
X102350000Y-65090500D01*
X102350000Y-65090500D02*
X102383333Y-65123833D01*
X103016667Y-65057166D02*
X102683333Y-65057166D01*
X102683333Y-65057166D02*
X102650000Y-65390500D01*
X102650000Y-65390500D02*
X102683333Y-65357166D01*
X102683333Y-65357166D02*
X102750000Y-65323833D01*
X102750000Y-65323833D02*
X102916667Y-65323833D01*
X102916667Y-65323833D02*
X102983333Y-65357166D01*
X102983333Y-65357166D02*
X103016667Y-65390500D01*
X103016667Y-65390500D02*
X103050000Y-65457166D01*
X103050000Y-65457166D02*
X103050000Y-65623833D01*
X103050000Y-65623833D02*
X103016667Y-65690500D01*
X103016667Y-65690500D02*
X102983333Y-65723833D01*
X102983333Y-65723833D02*
X102916667Y-65757166D01*
X102916667Y-65757166D02*
X102750000Y-65757166D01*
X102750000Y-65757166D02*
X102683333Y-65723833D01*
X102683333Y-65723833D02*
X102650000Y-65690500D01*
X119257166Y-43616666D02*
X118923833Y-43849999D01*
X119257166Y-44016666D02*
X118557166Y-44016666D01*
X118557166Y-44016666D02*
X118557166Y-43749999D01*
X118557166Y-43749999D02*
X118590500Y-43683333D01*
X118590500Y-43683333D02*
X118623833Y-43649999D01*
X118623833Y-43649999D02*
X118690500Y-43616666D01*
X118690500Y-43616666D02*
X118790500Y-43616666D01*
X118790500Y-43616666D02*
X118857166Y-43649999D01*
X118857166Y-43649999D02*
X118890500Y-43683333D01*
X118890500Y-43683333D02*
X118923833Y-43749999D01*
X118923833Y-43749999D02*
X118923833Y-44016666D01*
X118557166Y-43383333D02*
X118557166Y-42949999D01*
X118557166Y-42949999D02*
X118823833Y-43183333D01*
X118823833Y-43183333D02*
X118823833Y-43083333D01*
X118823833Y-43083333D02*
X118857166Y-43016666D01*
X118857166Y-43016666D02*
X118890500Y-42983333D01*
X118890500Y-42983333D02*
X118957166Y-42949999D01*
X118957166Y-42949999D02*
X119123833Y-42949999D01*
X119123833Y-42949999D02*
X119190500Y-42983333D01*
X119190500Y-42983333D02*
X119223833Y-43016666D01*
X119223833Y-43016666D02*
X119257166Y-43083333D01*
X119257166Y-43083333D02*
X119257166Y-43283333D01*
X119257166Y-43283333D02*
X119223833Y-43349999D01*
X119223833Y-43349999D02*
X119190500Y-43383333D01*
X91883333Y-79257166D02*
X91650000Y-78923833D01*
X91483333Y-79257166D02*
X91483333Y-78557166D01*
X91483333Y-78557166D02*
X91750000Y-78557166D01*
X91750000Y-78557166D02*
X91816667Y-78590500D01*
X91816667Y-78590500D02*
X91850000Y-78623833D01*
X91850000Y-78623833D02*
X91883333Y-78690500D01*
X91883333Y-78690500D02*
X91883333Y-78790500D01*
X91883333Y-78790500D02*
X91850000Y-78857166D01*
X91850000Y-78857166D02*
X91816667Y-78890500D01*
X91816667Y-78890500D02*
X91750000Y-78923833D01*
X91750000Y-78923833D02*
X91483333Y-78923833D01*
X92216667Y-79257166D02*
X92350000Y-79257166D01*
X92350000Y-79257166D02*
X92416667Y-79223833D01*
X92416667Y-79223833D02*
X92450000Y-79190500D01*
X92450000Y-79190500D02*
X92516667Y-79090500D01*
X92516667Y-79090500D02*
X92550000Y-78957166D01*
X92550000Y-78957166D02*
X92550000Y-78690500D01*
X92550000Y-78690500D02*
X92516667Y-78623833D01*
X92516667Y-78623833D02*
X92483333Y-78590500D01*
X92483333Y-78590500D02*
X92416667Y-78557166D01*
X92416667Y-78557166D02*
X92283333Y-78557166D01*
X92283333Y-78557166D02*
X92216667Y-78590500D01*
X92216667Y-78590500D02*
X92183333Y-78623833D01*
X92183333Y-78623833D02*
X92150000Y-78690500D01*
X92150000Y-78690500D02*
X92150000Y-78857166D01*
X92150000Y-78857166D02*
X92183333Y-78923833D01*
X92183333Y-78923833D02*
X92216667Y-78957166D01*
X92216667Y-78957166D02*
X92283333Y-78990500D01*
X92283333Y-78990500D02*
X92416667Y-78990500D01*
X92416667Y-78990500D02*
X92483333Y-78957166D01*
X92483333Y-78957166D02*
X92516667Y-78923833D01*
X92516667Y-78923833D02*
X92550000Y-78857166D01*
X86383333Y-85190500D02*
X86350000Y-85223833D01*
X86350000Y-85223833D02*
X86250000Y-85257166D01*
X86250000Y-85257166D02*
X86183333Y-85257166D01*
X86183333Y-85257166D02*
X86083333Y-85223833D01*
X86083333Y-85223833D02*
X86016667Y-85157166D01*
X86016667Y-85157166D02*
X85983333Y-85090500D01*
X85983333Y-85090500D02*
X85950000Y-84957166D01*
X85950000Y-84957166D02*
X85950000Y-84857166D01*
X85950000Y-84857166D02*
X85983333Y-84723833D01*
X85983333Y-84723833D02*
X86016667Y-84657166D01*
X86016667Y-84657166D02*
X86083333Y-84590500D01*
X86083333Y-84590500D02*
X86183333Y-84557166D01*
X86183333Y-84557166D02*
X86250000Y-84557166D01*
X86250000Y-84557166D02*
X86350000Y-84590500D01*
X86350000Y-84590500D02*
X86383333Y-84623833D01*
X86616667Y-84557166D02*
X87050000Y-84557166D01*
X87050000Y-84557166D02*
X86816667Y-84823833D01*
X86816667Y-84823833D02*
X86916667Y-84823833D01*
X86916667Y-84823833D02*
X86983333Y-84857166D01*
X86983333Y-84857166D02*
X87016667Y-84890500D01*
X87016667Y-84890500D02*
X87050000Y-84957166D01*
X87050000Y-84957166D02*
X87050000Y-85123833D01*
X87050000Y-85123833D02*
X87016667Y-85190500D01*
X87016667Y-85190500D02*
X86983333Y-85223833D01*
X86983333Y-85223833D02*
X86916667Y-85257166D01*
X86916667Y-85257166D02*
X86716667Y-85257166D01*
X86716667Y-85257166D02*
X86650000Y-85223833D01*
X86650000Y-85223833D02*
X86616667Y-85190500D01*
X91883333Y-85257166D02*
X91650000Y-84923833D01*
X91483333Y-85257166D02*
X91483333Y-84557166D01*
X91483333Y-84557166D02*
X91750000Y-84557166D01*
X91750000Y-84557166D02*
X91816667Y-84590500D01*
X91816667Y-84590500D02*
X91850000Y-84623833D01*
X91850000Y-84623833D02*
X91883333Y-84690500D01*
X91883333Y-84690500D02*
X91883333Y-84790500D01*
X91883333Y-84790500D02*
X91850000Y-84857166D01*
X91850000Y-84857166D02*
X91816667Y-84890500D01*
X91816667Y-84890500D02*
X91750000Y-84923833D01*
X91750000Y-84923833D02*
X91483333Y-84923833D01*
X92516667Y-84557166D02*
X92183333Y-84557166D01*
X92183333Y-84557166D02*
X92150000Y-84890500D01*
X92150000Y-84890500D02*
X92183333Y-84857166D01*
X92183333Y-84857166D02*
X92250000Y-84823833D01*
X92250000Y-84823833D02*
X92416667Y-84823833D01*
X92416667Y-84823833D02*
X92483333Y-84857166D01*
X92483333Y-84857166D02*
X92516667Y-84890500D01*
X92516667Y-84890500D02*
X92550000Y-84957166D01*
X92550000Y-84957166D02*
X92550000Y-85123833D01*
X92550000Y-85123833D02*
X92516667Y-85190500D01*
X92516667Y-85190500D02*
X92483333Y-85223833D01*
X92483333Y-85223833D02*
X92416667Y-85257166D01*
X92416667Y-85257166D02*
X92250000Y-85257166D01*
X92250000Y-85257166D02*
X92183333Y-85223833D01*
X92183333Y-85223833D02*
X92150000Y-85190500D01*
X108483333Y-66457166D02*
X108483333Y-65757166D01*
X108483333Y-65757166D02*
X108650000Y-65757166D01*
X108650000Y-65757166D02*
X108750000Y-65790500D01*
X108750000Y-65790500D02*
X108816667Y-65857166D01*
X108816667Y-65857166D02*
X108850000Y-65923833D01*
X108850000Y-65923833D02*
X108883333Y-66057166D01*
X108883333Y-66057166D02*
X108883333Y-66157166D01*
X108883333Y-66157166D02*
X108850000Y-66290500D01*
X108850000Y-66290500D02*
X108816667Y-66357166D01*
X108816667Y-66357166D02*
X108750000Y-66423833D01*
X108750000Y-66423833D02*
X108650000Y-66457166D01*
X108650000Y-66457166D02*
X108483333Y-66457166D01*
X109550000Y-66457166D02*
X109150000Y-66457166D01*
X109350000Y-66457166D02*
X109350000Y-65757166D01*
X109350000Y-65757166D02*
X109283333Y-65857166D01*
X109283333Y-65857166D02*
X109216667Y-65923833D01*
X109216667Y-65923833D02*
X109150000Y-65957166D01*
X130549999Y-92757166D02*
X130316666Y-92423833D01*
X130149999Y-92757166D02*
X130149999Y-92057166D01*
X130149999Y-92057166D02*
X130416666Y-92057166D01*
X130416666Y-92057166D02*
X130483333Y-92090500D01*
X130483333Y-92090500D02*
X130516666Y-92123833D01*
X130516666Y-92123833D02*
X130549999Y-92190500D01*
X130549999Y-92190500D02*
X130549999Y-92290500D01*
X130549999Y-92290500D02*
X130516666Y-92357166D01*
X130516666Y-92357166D02*
X130483333Y-92390500D01*
X130483333Y-92390500D02*
X130416666Y-92423833D01*
X130416666Y-92423833D02*
X130149999Y-92423833D01*
X131216666Y-92757166D02*
X130816666Y-92757166D01*
X131016666Y-92757166D02*
X131016666Y-92057166D01*
X131016666Y-92057166D02*
X130949999Y-92157166D01*
X130949999Y-92157166D02*
X130883333Y-92223833D01*
X130883333Y-92223833D02*
X130816666Y-92257166D01*
X131850000Y-92057166D02*
X131516666Y-92057166D01*
X131516666Y-92057166D02*
X131483333Y-92390500D01*
X131483333Y-92390500D02*
X131516666Y-92357166D01*
X131516666Y-92357166D02*
X131583333Y-92323833D01*
X131583333Y-92323833D02*
X131750000Y-92323833D01*
X131750000Y-92323833D02*
X131816666Y-92357166D01*
X131816666Y-92357166D02*
X131850000Y-92390500D01*
X131850000Y-92390500D02*
X131883333Y-92457166D01*
X131883333Y-92457166D02*
X131883333Y-92623833D01*
X131883333Y-92623833D02*
X131850000Y-92690500D01*
X131850000Y-92690500D02*
X131816666Y-92723833D01*
X131816666Y-92723833D02*
X131750000Y-92757166D01*
X131750000Y-92757166D02*
X131583333Y-92757166D01*
X131583333Y-92757166D02*
X131516666Y-92723833D01*
X131516666Y-92723833D02*
X131483333Y-92690500D01*
X91883333Y-87257166D02*
X91650000Y-86923833D01*
X91483333Y-87257166D02*
X91483333Y-86557166D01*
X91483333Y-86557166D02*
X91750000Y-86557166D01*
X91750000Y-86557166D02*
X91816667Y-86590500D01*
X91816667Y-86590500D02*
X91850000Y-86623833D01*
X91850000Y-86623833D02*
X91883333Y-86690500D01*
X91883333Y-86690500D02*
X91883333Y-86790500D01*
X91883333Y-86790500D02*
X91850000Y-86857166D01*
X91850000Y-86857166D02*
X91816667Y-86890500D01*
X91816667Y-86890500D02*
X91750000Y-86923833D01*
X91750000Y-86923833D02*
X91483333Y-86923833D01*
X92116667Y-86557166D02*
X92583333Y-86557166D01*
X92583333Y-86557166D02*
X92283333Y-87257166D01*
X103549999Y-103257166D02*
X103316666Y-102923833D01*
X103149999Y-103257166D02*
X103149999Y-102557166D01*
X103149999Y-102557166D02*
X103416666Y-102557166D01*
X103416666Y-102557166D02*
X103483333Y-102590500D01*
X103483333Y-102590500D02*
X103516666Y-102623833D01*
X103516666Y-102623833D02*
X103549999Y-102690500D01*
X103549999Y-102690500D02*
X103549999Y-102790500D01*
X103549999Y-102790500D02*
X103516666Y-102857166D01*
X103516666Y-102857166D02*
X103483333Y-102890500D01*
X103483333Y-102890500D02*
X103416666Y-102923833D01*
X103416666Y-102923833D02*
X103149999Y-102923833D01*
X104216666Y-103257166D02*
X103816666Y-103257166D01*
X104016666Y-103257166D02*
X104016666Y-102557166D01*
X104016666Y-102557166D02*
X103949999Y-102657166D01*
X103949999Y-102657166D02*
X103883333Y-102723833D01*
X103883333Y-102723833D02*
X103816666Y-102757166D01*
X104650000Y-102557166D02*
X104716666Y-102557166D01*
X104716666Y-102557166D02*
X104783333Y-102590500D01*
X104783333Y-102590500D02*
X104816666Y-102623833D01*
X104816666Y-102623833D02*
X104850000Y-102690500D01*
X104850000Y-102690500D02*
X104883333Y-102823833D01*
X104883333Y-102823833D02*
X104883333Y-102990500D01*
X104883333Y-102990500D02*
X104850000Y-103123833D01*
X104850000Y-103123833D02*
X104816666Y-103190500D01*
X104816666Y-103190500D02*
X104783333Y-103223833D01*
X104783333Y-103223833D02*
X104716666Y-103257166D01*
X104716666Y-103257166D02*
X104650000Y-103257166D01*
X104650000Y-103257166D02*
X104583333Y-103223833D01*
X104583333Y-103223833D02*
X104550000Y-103190500D01*
X104550000Y-103190500D02*
X104516666Y-103123833D01*
X104516666Y-103123833D02*
X104483333Y-102990500D01*
X104483333Y-102990500D02*
X104483333Y-102823833D01*
X104483333Y-102823833D02*
X104516666Y-102690500D01*
X104516666Y-102690500D02*
X104550000Y-102623833D01*
X104550000Y-102623833D02*
X104583333Y-102590500D01*
X104583333Y-102590500D02*
X104650000Y-102557166D01*
X107757166Y-75450000D02*
X107423833Y-75683333D01*
X107757166Y-75850000D02*
X107057166Y-75850000D01*
X107057166Y-75850000D02*
X107057166Y-75583333D01*
X107057166Y-75583333D02*
X107090500Y-75516667D01*
X107090500Y-75516667D02*
X107123833Y-75483333D01*
X107123833Y-75483333D02*
X107190500Y-75450000D01*
X107190500Y-75450000D02*
X107290500Y-75450000D01*
X107290500Y-75450000D02*
X107357166Y-75483333D01*
X107357166Y-75483333D02*
X107390500Y-75516667D01*
X107390500Y-75516667D02*
X107423833Y-75583333D01*
X107423833Y-75583333D02*
X107423833Y-75850000D01*
X107757166Y-74783333D02*
X107757166Y-75183333D01*
X107757166Y-74983333D02*
X107057166Y-74983333D01*
X107057166Y-74983333D02*
X107157166Y-75050000D01*
X107157166Y-75050000D02*
X107223833Y-75116667D01*
X107223833Y-75116667D02*
X107257166Y-75183333D01*
X107757166Y-74116666D02*
X107757166Y-74516666D01*
X107757166Y-74316666D02*
X107057166Y-74316666D01*
X107057166Y-74316666D02*
X107157166Y-74383333D01*
X107157166Y-74383333D02*
X107223833Y-74450000D01*
X107223833Y-74450000D02*
X107257166Y-74516666D01*
X110433333Y-52323833D02*
X110366666Y-52290500D01*
X110366666Y-52290500D02*
X110300000Y-52223833D01*
X110300000Y-52223833D02*
X110200000Y-52123833D01*
X110200000Y-52123833D02*
X110133333Y-52090500D01*
X110133333Y-52090500D02*
X110066666Y-52090500D01*
X110100000Y-52257166D02*
X110033333Y-52223833D01*
X110033333Y-52223833D02*
X109966666Y-52157166D01*
X109966666Y-52157166D02*
X109933333Y-52023833D01*
X109933333Y-52023833D02*
X109933333Y-51790500D01*
X109933333Y-51790500D02*
X109966666Y-51657166D01*
X109966666Y-51657166D02*
X110033333Y-51590500D01*
X110033333Y-51590500D02*
X110100000Y-51557166D01*
X110100000Y-51557166D02*
X110233333Y-51557166D01*
X110233333Y-51557166D02*
X110300000Y-51590500D01*
X110300000Y-51590500D02*
X110366666Y-51657166D01*
X110366666Y-51657166D02*
X110400000Y-51790500D01*
X110400000Y-51790500D02*
X110400000Y-52023833D01*
X110400000Y-52023833D02*
X110366666Y-52157166D01*
X110366666Y-52157166D02*
X110300000Y-52223833D01*
X110300000Y-52223833D02*
X110233333Y-52257166D01*
X110233333Y-52257166D02*
X110100000Y-52257166D01*
X110666666Y-51623833D02*
X110699999Y-51590500D01*
X110699999Y-51590500D02*
X110766666Y-51557166D01*
X110766666Y-51557166D02*
X110933333Y-51557166D01*
X110933333Y-51557166D02*
X110999999Y-51590500D01*
X110999999Y-51590500D02*
X111033333Y-51623833D01*
X111033333Y-51623833D02*
X111066666Y-51690500D01*
X111066666Y-51690500D02*
X111066666Y-51757166D01*
X111066666Y-51757166D02*
X111033333Y-51857166D01*
X111033333Y-51857166D02*
X110633333Y-52257166D01*
X110633333Y-52257166D02*
X111066666Y-52257166D01*
X117272142Y-68642857D02*
X117319761Y-68690476D01*
X117319761Y-68690476D02*
X117367380Y-68833333D01*
X117367380Y-68833333D02*
X117367380Y-68928571D01*
X117367380Y-68928571D02*
X117319761Y-69071428D01*
X117319761Y-69071428D02*
X117224523Y-69166666D01*
X117224523Y-69166666D02*
X117129285Y-69214285D01*
X117129285Y-69214285D02*
X116938809Y-69261904D01*
X116938809Y-69261904D02*
X116795952Y-69261904D01*
X116795952Y-69261904D02*
X116605476Y-69214285D01*
X116605476Y-69214285D02*
X116510238Y-69166666D01*
X116510238Y-69166666D02*
X116415000Y-69071428D01*
X116415000Y-69071428D02*
X116367380Y-68928571D01*
X116367380Y-68928571D02*
X116367380Y-68833333D01*
X116367380Y-68833333D02*
X116415000Y-68690476D01*
X116415000Y-68690476D02*
X116462619Y-68642857D01*
X117367380Y-67690476D02*
X117367380Y-68261904D01*
X117367380Y-67976190D02*
X116367380Y-67976190D01*
X116367380Y-67976190D02*
X116510238Y-68071428D01*
X116510238Y-68071428D02*
X116605476Y-68166666D01*
X116605476Y-68166666D02*
X116653095Y-68261904D01*
X116462619Y-67309523D02*
X116415000Y-67261904D01*
X116415000Y-67261904D02*
X116367380Y-67166666D01*
X116367380Y-67166666D02*
X116367380Y-66928571D01*
X116367380Y-66928571D02*
X116415000Y-66833333D01*
X116415000Y-66833333D02*
X116462619Y-66785714D01*
X116462619Y-66785714D02*
X116557857Y-66738095D01*
X116557857Y-66738095D02*
X116653095Y-66738095D01*
X116653095Y-66738095D02*
X116795952Y-66785714D01*
X116795952Y-66785714D02*
X117367380Y-67357142D01*
X117367380Y-67357142D02*
X117367380Y-66738095D01*
X130549999Y-66257166D02*
X130316666Y-65923833D01*
X130149999Y-66257166D02*
X130149999Y-65557166D01*
X130149999Y-65557166D02*
X130416666Y-65557166D01*
X130416666Y-65557166D02*
X130483333Y-65590500D01*
X130483333Y-65590500D02*
X130516666Y-65623833D01*
X130516666Y-65623833D02*
X130549999Y-65690500D01*
X130549999Y-65690500D02*
X130549999Y-65790500D01*
X130549999Y-65790500D02*
X130516666Y-65857166D01*
X130516666Y-65857166D02*
X130483333Y-65890500D01*
X130483333Y-65890500D02*
X130416666Y-65923833D01*
X130416666Y-65923833D02*
X130149999Y-65923833D01*
X131216666Y-66257166D02*
X130816666Y-66257166D01*
X131016666Y-66257166D02*
X131016666Y-65557166D01*
X131016666Y-65557166D02*
X130949999Y-65657166D01*
X130949999Y-65657166D02*
X130883333Y-65723833D01*
X130883333Y-65723833D02*
X130816666Y-65757166D01*
X131816666Y-65790500D02*
X131816666Y-66257166D01*
X131650000Y-65523833D02*
X131483333Y-66023833D01*
X131483333Y-66023833D02*
X131916666Y-66023833D01*
D13*
X142699166Y-77907166D02*
X143099166Y-77907166D01*
X142899166Y-78607166D02*
X142899166Y-77907166D01*
X143299166Y-77973833D02*
X143332499Y-77940500D01*
X143332499Y-77940500D02*
X143399166Y-77907166D01*
X143399166Y-77907166D02*
X143565833Y-77907166D01*
X143565833Y-77907166D02*
X143632499Y-77940500D01*
X143632499Y-77940500D02*
X143665833Y-77973833D01*
X143665833Y-77973833D02*
X143699166Y-78040500D01*
X143699166Y-78040500D02*
X143699166Y-78107166D01*
X143699166Y-78107166D02*
X143665833Y-78207166D01*
X143665833Y-78207166D02*
X143265833Y-78607166D01*
X143265833Y-78607166D02*
X143699166Y-78607166D01*
D10*
X83690500Y-84116666D02*
X83723833Y-84149999D01*
X83723833Y-84149999D02*
X83757166Y-84249999D01*
X83757166Y-84249999D02*
X83757166Y-84316666D01*
X83757166Y-84316666D02*
X83723833Y-84416666D01*
X83723833Y-84416666D02*
X83657166Y-84483333D01*
X83657166Y-84483333D02*
X83590500Y-84516666D01*
X83590500Y-84516666D02*
X83457166Y-84549999D01*
X83457166Y-84549999D02*
X83357166Y-84549999D01*
X83357166Y-84549999D02*
X83223833Y-84516666D01*
X83223833Y-84516666D02*
X83157166Y-84483333D01*
X83157166Y-84483333D02*
X83090500Y-84416666D01*
X83090500Y-84416666D02*
X83057166Y-84316666D01*
X83057166Y-84316666D02*
X83057166Y-84249999D01*
X83057166Y-84249999D02*
X83090500Y-84149999D01*
X83090500Y-84149999D02*
X83123833Y-84116666D01*
X83757166Y-83449999D02*
X83757166Y-83849999D01*
X83757166Y-83649999D02*
X83057166Y-83649999D01*
X83057166Y-83649999D02*
X83157166Y-83716666D01*
X83157166Y-83716666D02*
X83223833Y-83783333D01*
X83223833Y-83783333D02*
X83257166Y-83849999D01*
X137766666Y-44557166D02*
X137766666Y-45057166D01*
X137766666Y-45057166D02*
X137733333Y-45157166D01*
X137733333Y-45157166D02*
X137666666Y-45223833D01*
X137666666Y-45223833D02*
X137566666Y-45257166D01*
X137566666Y-45257166D02*
X137500000Y-45257166D01*
X138066666Y-44623833D02*
X138099999Y-44590500D01*
X138099999Y-44590500D02*
X138166666Y-44557166D01*
X138166666Y-44557166D02*
X138333333Y-44557166D01*
X138333333Y-44557166D02*
X138399999Y-44590500D01*
X138399999Y-44590500D02*
X138433333Y-44623833D01*
X138433333Y-44623833D02*
X138466666Y-44690500D01*
X138466666Y-44690500D02*
X138466666Y-44757166D01*
X138466666Y-44757166D02*
X138433333Y-44857166D01*
X138433333Y-44857166D02*
X138033333Y-45257166D01*
X138033333Y-45257166D02*
X138466666Y-45257166D01*
X98757166Y-59916666D02*
X98423833Y-60149999D01*
X98757166Y-60316666D02*
X98057166Y-60316666D01*
X98057166Y-60316666D02*
X98057166Y-60049999D01*
X98057166Y-60049999D02*
X98090500Y-59983333D01*
X98090500Y-59983333D02*
X98123833Y-59949999D01*
X98123833Y-59949999D02*
X98190500Y-59916666D01*
X98190500Y-59916666D02*
X98290500Y-59916666D01*
X98290500Y-59916666D02*
X98357166Y-59949999D01*
X98357166Y-59949999D02*
X98390500Y-59983333D01*
X98390500Y-59983333D02*
X98423833Y-60049999D01*
X98423833Y-60049999D02*
X98423833Y-60316666D01*
X98057166Y-59716666D02*
X98757166Y-59483333D01*
X98757166Y-59483333D02*
X98057166Y-59249999D01*
X98757166Y-58649999D02*
X98757166Y-59049999D01*
X98757166Y-58849999D02*
X98057166Y-58849999D01*
X98057166Y-58849999D02*
X98157166Y-58916666D01*
X98157166Y-58916666D02*
X98223833Y-58983333D01*
X98223833Y-58983333D02*
X98257166Y-59049999D01*
X130883333Y-37107166D02*
X130650000Y-36773833D01*
X130483333Y-37107166D02*
X130483333Y-36407166D01*
X130483333Y-36407166D02*
X130750000Y-36407166D01*
X130750000Y-36407166D02*
X130816667Y-36440500D01*
X130816667Y-36440500D02*
X130850000Y-36473833D01*
X130850000Y-36473833D02*
X130883333Y-36540500D01*
X130883333Y-36540500D02*
X130883333Y-36640500D01*
X130883333Y-36640500D02*
X130850000Y-36707166D01*
X130850000Y-36707166D02*
X130816667Y-36740500D01*
X130816667Y-36740500D02*
X130750000Y-36773833D01*
X130750000Y-36773833D02*
X130483333Y-36773833D01*
X131150000Y-36473833D02*
X131183333Y-36440500D01*
X131183333Y-36440500D02*
X131250000Y-36407166D01*
X131250000Y-36407166D02*
X131416667Y-36407166D01*
X131416667Y-36407166D02*
X131483333Y-36440500D01*
X131483333Y-36440500D02*
X131516667Y-36473833D01*
X131516667Y-36473833D02*
X131550000Y-36540500D01*
X131550000Y-36540500D02*
X131550000Y-36607166D01*
X131550000Y-36607166D02*
X131516667Y-36707166D01*
X131516667Y-36707166D02*
X131116667Y-37107166D01*
X131116667Y-37107166D02*
X131550000Y-37107166D01*
X116690500Y-43616666D02*
X116723833Y-43649999D01*
X116723833Y-43649999D02*
X116757166Y-43749999D01*
X116757166Y-43749999D02*
X116757166Y-43816666D01*
X116757166Y-43816666D02*
X116723833Y-43916666D01*
X116723833Y-43916666D02*
X116657166Y-43983333D01*
X116657166Y-43983333D02*
X116590500Y-44016666D01*
X116590500Y-44016666D02*
X116457166Y-44049999D01*
X116457166Y-44049999D02*
X116357166Y-44049999D01*
X116357166Y-44049999D02*
X116223833Y-44016666D01*
X116223833Y-44016666D02*
X116157166Y-43983333D01*
X116157166Y-43983333D02*
X116090500Y-43916666D01*
X116090500Y-43916666D02*
X116057166Y-43816666D01*
X116057166Y-43816666D02*
X116057166Y-43749999D01*
X116057166Y-43749999D02*
X116090500Y-43649999D01*
X116090500Y-43649999D02*
X116123833Y-43616666D01*
X116290500Y-43016666D02*
X116757166Y-43016666D01*
X116023833Y-43183333D02*
X116523833Y-43349999D01*
X116523833Y-43349999D02*
X116523833Y-42916666D01*
X87690500Y-60116666D02*
X87723833Y-60149999D01*
X87723833Y-60149999D02*
X87757166Y-60249999D01*
X87757166Y-60249999D02*
X87757166Y-60316666D01*
X87757166Y-60316666D02*
X87723833Y-60416666D01*
X87723833Y-60416666D02*
X87657166Y-60483333D01*
X87657166Y-60483333D02*
X87590500Y-60516666D01*
X87590500Y-60516666D02*
X87457166Y-60549999D01*
X87457166Y-60549999D02*
X87357166Y-60549999D01*
X87357166Y-60549999D02*
X87223833Y-60516666D01*
X87223833Y-60516666D02*
X87157166Y-60483333D01*
X87157166Y-60483333D02*
X87090500Y-60416666D01*
X87090500Y-60416666D02*
X87057166Y-60316666D01*
X87057166Y-60316666D02*
X87057166Y-60249999D01*
X87057166Y-60249999D02*
X87090500Y-60149999D01*
X87090500Y-60149999D02*
X87123833Y-60116666D01*
X87357166Y-59716666D02*
X87323833Y-59783333D01*
X87323833Y-59783333D02*
X87290500Y-59816666D01*
X87290500Y-59816666D02*
X87223833Y-59849999D01*
X87223833Y-59849999D02*
X87190500Y-59849999D01*
X87190500Y-59849999D02*
X87123833Y-59816666D01*
X87123833Y-59816666D02*
X87090500Y-59783333D01*
X87090500Y-59783333D02*
X87057166Y-59716666D01*
X87057166Y-59716666D02*
X87057166Y-59583333D01*
X87057166Y-59583333D02*
X87090500Y-59516666D01*
X87090500Y-59516666D02*
X87123833Y-59483333D01*
X87123833Y-59483333D02*
X87190500Y-59449999D01*
X87190500Y-59449999D02*
X87223833Y-59449999D01*
X87223833Y-59449999D02*
X87290500Y-59483333D01*
X87290500Y-59483333D02*
X87323833Y-59516666D01*
X87323833Y-59516666D02*
X87357166Y-59583333D01*
X87357166Y-59583333D02*
X87357166Y-59716666D01*
X87357166Y-59716666D02*
X87390500Y-59783333D01*
X87390500Y-59783333D02*
X87423833Y-59816666D01*
X87423833Y-59816666D02*
X87490500Y-59849999D01*
X87490500Y-59849999D02*
X87623833Y-59849999D01*
X87623833Y-59849999D02*
X87690500Y-59816666D01*
X87690500Y-59816666D02*
X87723833Y-59783333D01*
X87723833Y-59783333D02*
X87757166Y-59716666D01*
X87757166Y-59716666D02*
X87757166Y-59583333D01*
X87757166Y-59583333D02*
X87723833Y-59516666D01*
X87723833Y-59516666D02*
X87690500Y-59483333D01*
X87690500Y-59483333D02*
X87623833Y-59449999D01*
X87623833Y-59449999D02*
X87490500Y-59449999D01*
X87490500Y-59449999D02*
X87423833Y-59483333D01*
X87423833Y-59483333D02*
X87390500Y-59516666D01*
X87390500Y-59516666D02*
X87357166Y-59583333D01*
D13*
X150157166Y-79783333D02*
X150157166Y-79383333D01*
X150857166Y-79583333D02*
X150157166Y-79583333D01*
X150157166Y-79216667D02*
X150157166Y-78783333D01*
X150157166Y-78783333D02*
X150423833Y-79016667D01*
X150423833Y-79016667D02*
X150423833Y-78916667D01*
X150423833Y-78916667D02*
X150457166Y-78850000D01*
X150457166Y-78850000D02*
X150490500Y-78816667D01*
X150490500Y-78816667D02*
X150557166Y-78783333D01*
X150557166Y-78783333D02*
X150723833Y-78783333D01*
X150723833Y-78783333D02*
X150790500Y-78816667D01*
X150790500Y-78816667D02*
X150823833Y-78850000D01*
X150823833Y-78850000D02*
X150857166Y-78916667D01*
X150857166Y-78916667D02*
X150857166Y-79116667D01*
X150857166Y-79116667D02*
X150823833Y-79183333D01*
X150823833Y-79183333D02*
X150790500Y-79216667D01*
D10*
X87049999Y-67190500D02*
X87016666Y-67223833D01*
X87016666Y-67223833D02*
X86916666Y-67257166D01*
X86916666Y-67257166D02*
X86849999Y-67257166D01*
X86849999Y-67257166D02*
X86749999Y-67223833D01*
X86749999Y-67223833D02*
X86683333Y-67157166D01*
X86683333Y-67157166D02*
X86649999Y-67090500D01*
X86649999Y-67090500D02*
X86616666Y-66957166D01*
X86616666Y-66957166D02*
X86616666Y-66857166D01*
X86616666Y-66857166D02*
X86649999Y-66723833D01*
X86649999Y-66723833D02*
X86683333Y-66657166D01*
X86683333Y-66657166D02*
X86749999Y-66590500D01*
X86749999Y-66590500D02*
X86849999Y-66557166D01*
X86849999Y-66557166D02*
X86916666Y-66557166D01*
X86916666Y-66557166D02*
X87016666Y-66590500D01*
X87016666Y-66590500D02*
X87049999Y-66623833D01*
X87716666Y-67257166D02*
X87316666Y-67257166D01*
X87516666Y-67257166D02*
X87516666Y-66557166D01*
X87516666Y-66557166D02*
X87449999Y-66657166D01*
X87449999Y-66657166D02*
X87383333Y-66723833D01*
X87383333Y-66723833D02*
X87316666Y-66757166D01*
X88150000Y-66557166D02*
X88216666Y-66557166D01*
X88216666Y-66557166D02*
X88283333Y-66590500D01*
X88283333Y-66590500D02*
X88316666Y-66623833D01*
X88316666Y-66623833D02*
X88350000Y-66690500D01*
X88350000Y-66690500D02*
X88383333Y-66823833D01*
X88383333Y-66823833D02*
X88383333Y-66990500D01*
X88383333Y-66990500D02*
X88350000Y-67123833D01*
X88350000Y-67123833D02*
X88316666Y-67190500D01*
X88316666Y-67190500D02*
X88283333Y-67223833D01*
X88283333Y-67223833D02*
X88216666Y-67257166D01*
X88216666Y-67257166D02*
X88150000Y-67257166D01*
X88150000Y-67257166D02*
X88083333Y-67223833D01*
X88083333Y-67223833D02*
X88050000Y-67190500D01*
X88050000Y-67190500D02*
X88016666Y-67123833D01*
X88016666Y-67123833D02*
X87983333Y-66990500D01*
X87983333Y-66990500D02*
X87983333Y-66823833D01*
X87983333Y-66823833D02*
X88016666Y-66690500D01*
X88016666Y-66690500D02*
X88050000Y-66623833D01*
X88050000Y-66623833D02*
X88083333Y-66590500D01*
X88083333Y-66590500D02*
X88150000Y-66557166D01*
X99757166Y-70116666D02*
X99423833Y-70349999D01*
X99757166Y-70516666D02*
X99057166Y-70516666D01*
X99057166Y-70516666D02*
X99057166Y-70249999D01*
X99057166Y-70249999D02*
X99090500Y-70183333D01*
X99090500Y-70183333D02*
X99123833Y-70149999D01*
X99123833Y-70149999D02*
X99190500Y-70116666D01*
X99190500Y-70116666D02*
X99290500Y-70116666D01*
X99290500Y-70116666D02*
X99357166Y-70149999D01*
X99357166Y-70149999D02*
X99390500Y-70183333D01*
X99390500Y-70183333D02*
X99423833Y-70249999D01*
X99423833Y-70249999D02*
X99423833Y-70516666D01*
X99357166Y-69716666D02*
X99323833Y-69783333D01*
X99323833Y-69783333D02*
X99290500Y-69816666D01*
X99290500Y-69816666D02*
X99223833Y-69849999D01*
X99223833Y-69849999D02*
X99190500Y-69849999D01*
X99190500Y-69849999D02*
X99123833Y-69816666D01*
X99123833Y-69816666D02*
X99090500Y-69783333D01*
X99090500Y-69783333D02*
X99057166Y-69716666D01*
X99057166Y-69716666D02*
X99057166Y-69583333D01*
X99057166Y-69583333D02*
X99090500Y-69516666D01*
X99090500Y-69516666D02*
X99123833Y-69483333D01*
X99123833Y-69483333D02*
X99190500Y-69449999D01*
X99190500Y-69449999D02*
X99223833Y-69449999D01*
X99223833Y-69449999D02*
X99290500Y-69483333D01*
X99290500Y-69483333D02*
X99323833Y-69516666D01*
X99323833Y-69516666D02*
X99357166Y-69583333D01*
X99357166Y-69583333D02*
X99357166Y-69716666D01*
X99357166Y-69716666D02*
X99390500Y-69783333D01*
X99390500Y-69783333D02*
X99423833Y-69816666D01*
X99423833Y-69816666D02*
X99490500Y-69849999D01*
X99490500Y-69849999D02*
X99623833Y-69849999D01*
X99623833Y-69849999D02*
X99690500Y-69816666D01*
X99690500Y-69816666D02*
X99723833Y-69783333D01*
X99723833Y-69783333D02*
X99757166Y-69716666D01*
X99757166Y-69716666D02*
X99757166Y-69583333D01*
X99757166Y-69583333D02*
X99723833Y-69516666D01*
X99723833Y-69516666D02*
X99690500Y-69483333D01*
X99690500Y-69483333D02*
X99623833Y-69449999D01*
X99623833Y-69449999D02*
X99490500Y-69449999D01*
X99490500Y-69449999D02*
X99423833Y-69483333D01*
X99423833Y-69483333D02*
X99390500Y-69516666D01*
X99390500Y-69516666D02*
X99357166Y-69583333D01*
X117772142Y-91142857D02*
X117819761Y-91190476D01*
X117819761Y-91190476D02*
X117867380Y-91333333D01*
X117867380Y-91333333D02*
X117867380Y-91428571D01*
X117867380Y-91428571D02*
X117819761Y-91571428D01*
X117819761Y-91571428D02*
X117724523Y-91666666D01*
X117724523Y-91666666D02*
X117629285Y-91714285D01*
X117629285Y-91714285D02*
X117438809Y-91761904D01*
X117438809Y-91761904D02*
X117295952Y-91761904D01*
X117295952Y-91761904D02*
X117105476Y-91714285D01*
X117105476Y-91714285D02*
X117010238Y-91666666D01*
X117010238Y-91666666D02*
X116915000Y-91571428D01*
X116915000Y-91571428D02*
X116867380Y-91428571D01*
X116867380Y-91428571D02*
X116867380Y-91333333D01*
X116867380Y-91333333D02*
X116915000Y-91190476D01*
X116915000Y-91190476D02*
X116962619Y-91142857D01*
X117867380Y-90190476D02*
X117867380Y-90761904D01*
X117867380Y-90476190D02*
X116867380Y-90476190D01*
X116867380Y-90476190D02*
X117010238Y-90571428D01*
X117010238Y-90571428D02*
X117105476Y-90666666D01*
X117105476Y-90666666D02*
X117153095Y-90761904D01*
X116867380Y-89857142D02*
X116867380Y-89238095D01*
X116867380Y-89238095D02*
X117248333Y-89571428D01*
X117248333Y-89571428D02*
X117248333Y-89428571D01*
X117248333Y-89428571D02*
X117295952Y-89333333D01*
X117295952Y-89333333D02*
X117343571Y-89285714D01*
X117343571Y-89285714D02*
X117438809Y-89238095D01*
X117438809Y-89238095D02*
X117676904Y-89238095D01*
X117676904Y-89238095D02*
X117772142Y-89285714D01*
X117772142Y-89285714D02*
X117819761Y-89333333D01*
X117819761Y-89333333D02*
X117867380Y-89428571D01*
X117867380Y-89428571D02*
X117867380Y-89714285D01*
X117867380Y-89714285D02*
X117819761Y-89809523D01*
X117819761Y-89809523D02*
X117772142Y-89857142D01*
X121883333Y-43907166D02*
X121650000Y-43573833D01*
X121483333Y-43907166D02*
X121483333Y-43207166D01*
X121483333Y-43207166D02*
X121750000Y-43207166D01*
X121750000Y-43207166D02*
X121816667Y-43240500D01*
X121816667Y-43240500D02*
X121850000Y-43273833D01*
X121850000Y-43273833D02*
X121883333Y-43340500D01*
X121883333Y-43340500D02*
X121883333Y-43440500D01*
X121883333Y-43440500D02*
X121850000Y-43507166D01*
X121850000Y-43507166D02*
X121816667Y-43540500D01*
X121816667Y-43540500D02*
X121750000Y-43573833D01*
X121750000Y-43573833D02*
X121483333Y-43573833D01*
X122483333Y-43440500D02*
X122483333Y-43907166D01*
X122316667Y-43173833D02*
X122150000Y-43673833D01*
X122150000Y-43673833D02*
X122583333Y-43673833D01*
D14*
X179433690Y-72966666D02*
X179790833Y-72966666D01*
X179790833Y-72966666D02*
X179862261Y-72990475D01*
X179862261Y-72990475D02*
X179909880Y-73038094D01*
X179909880Y-73038094D02*
X179933690Y-73109523D01*
X179933690Y-73109523D02*
X179933690Y-73157142D01*
X179600357Y-72514285D02*
X179933690Y-72514285D01*
X179409880Y-72633333D02*
X179767023Y-72752380D01*
X179767023Y-72752380D02*
X179767023Y-72442857D01*
D15*
X105646267Y-93010000D02*
X105353733Y-93010000D01*
X105646267Y-91990000D02*
X105353733Y-91990000D01*
X105754724Y-91522500D02*
X105245276Y-91522500D01*
X105754724Y-90477500D02*
X105245276Y-90477500D01*
X95261252Y-81735000D02*
X94738748Y-81735000D01*
X95261252Y-80265000D02*
X94738748Y-80265000D01*
X110000000Y-85500000D02*
X104000000Y-85500000D01*
X104000000Y-85500000D02*
X104000000Y-72000000D01*
X104000000Y-72000000D02*
X110000000Y-72000000D01*
X110000000Y-72000000D02*
X110000000Y-85500000D01*
X114727064Y-76635000D02*
X114272936Y-76635000D01*
X114727064Y-75165000D02*
X114272936Y-75165000D01*
X98238748Y-100515000D02*
X98761252Y-100515000D01*
X98238748Y-101985000D02*
X98761252Y-101985000D01*
X95227064Y-83735000D02*
X94772936Y-83735000D01*
X95227064Y-82265000D02*
X94772936Y-82265000D01*
X97361961Y-99875856D02*
X98252916Y-98984902D01*
X96584144Y-99098039D02*
X97361961Y-99875856D01*
X97475098Y-98207084D02*
X96584144Y-99098039D01*
X98252629Y-98984673D02*
G75*
G03*
X97475099Y-98207084I2997371J3774673D01*
G01*
X128300000Y-70450000D02*
X119300000Y-70450000D01*
X119300000Y-70450000D02*
X119300000Y-87950000D01*
X119300000Y-87950000D02*
X128300000Y-87950000D01*
X128300000Y-87950000D02*
X128300000Y-70450000D01*
X125300000Y-87450000D02*
X122300000Y-87450000D01*
X122300000Y-87450000D02*
X122300000Y-88450000D01*
X122300000Y-88450000D02*
X125300000Y-88450000D01*
X125300000Y-88450000D02*
X125300000Y-87450000D01*
X125300000Y-69950000D02*
X122300000Y-69950000D01*
X122300000Y-69950000D02*
X122300000Y-70950000D01*
X122300000Y-70950000D02*
X125300000Y-70950000D01*
X125300000Y-70950000D02*
X125300000Y-69950000D01*
X127800000Y-85450000D02*
G75*
G03*
X127800000Y-85450000I-500000J0D01*
G01*
X126800000Y-72950000D02*
G75*
G03*
X126800000Y-72950000I-500000J0D01*
G01*
X121800000Y-85450000D02*
G75*
G03*
X121800000Y-85450000I-500000J0D01*
G01*
X98865000Y-33040000D02*
X98865000Y-36960000D01*
X98865000Y-36960000D02*
X104250000Y-36960000D01*
X104250000Y-33040000D02*
X98865000Y-33040000D01*
X89550000Y-52470000D02*
X89820000Y-52470000D01*
X89820000Y-52470000D02*
X89820000Y-55300000D01*
X96180000Y-52470000D02*
X96180000Y-53570000D01*
X96450000Y-52470000D02*
X96180000Y-52470000D01*
X89550000Y-50970000D02*
X89550000Y-52470000D01*
X96450000Y-50970000D02*
X96450000Y-52470000D01*
X98085000Y-73760000D02*
X98085000Y-69240000D01*
X98085000Y-69240000D02*
X89850000Y-69240000D01*
X89850000Y-73760000D02*
X98085000Y-73760000D01*
X98870000Y-93137500D02*
X98870000Y-91997500D01*
X98640000Y-91997500D02*
X98870000Y-91997500D01*
X98640000Y-91997500D02*
X98640000Y-89277500D01*
X103360000Y-91997500D02*
X103130000Y-91997500D01*
X98640000Y-89277500D02*
X99950000Y-89277500D01*
X102050000Y-89277500D02*
X103360000Y-89277500D01*
X103360000Y-89277500D02*
X103360000Y-91997500D01*
X91500000Y-98000000D02*
X84500000Y-98000000D01*
X84500000Y-98000000D02*
X84500000Y-92000000D01*
X84500000Y-92000000D02*
X91500000Y-92000000D01*
X91500000Y-92000000D02*
X91500000Y-98000000D01*
X99060000Y-39020000D02*
X99060000Y-43020000D01*
X99350000Y-37990000D02*
X99350000Y-44010000D01*
X99350000Y-44010000D02*
X104650000Y-44010000D01*
X99930000Y-37990000D02*
X99930000Y-38590000D01*
X99930000Y-38590000D02*
X101530000Y-38590000D01*
X100730000Y-43010000D02*
X100980000Y-42480000D01*
X100730000Y-43010000D02*
X103270000Y-43010000D01*
X100730000Y-44010000D02*
X100730000Y-43010000D01*
X100980000Y-42480000D02*
X103020000Y-42480000D01*
X100980000Y-44010000D02*
X100980000Y-43010000D01*
X101530000Y-38590000D02*
X101530000Y-37990000D01*
X102470000Y-37990000D02*
X102470000Y-38590000D01*
X102470000Y-38590000D02*
X104070000Y-38590000D01*
X103020000Y-42480000D02*
X103270000Y-43010000D01*
X103020000Y-44010000D02*
X103020000Y-43010000D01*
X103270000Y-43010000D02*
X103270000Y-44010000D01*
X104070000Y-38590000D02*
X104070000Y-37990000D01*
X104650000Y-37990000D02*
X99350000Y-37990000D01*
X104650000Y-44010000D02*
X104650000Y-37990000D01*
X108623752Y-79735000D02*
X108101248Y-79735000D01*
X108623752Y-78265000D02*
X108101248Y-78265000D01*
X130735000Y-41238748D02*
X130735000Y-41761252D01*
X129265000Y-41238748D02*
X129265000Y-41761252D01*
X127580000Y-41260000D02*
X127580000Y-38100000D01*
X127580000Y-41260000D02*
X126650000Y-41260000D01*
X124420000Y-41260000D02*
X124420000Y-39800000D01*
X124420000Y-41260000D02*
X125350000Y-41260000D01*
X131265000Y-41727064D02*
X131265000Y-41272936D01*
X132735000Y-41727064D02*
X132735000Y-41272936D01*
X114727064Y-82335000D02*
X114272936Y-82335000D01*
X114727064Y-80865000D02*
X114272936Y-80865000D01*
X102238748Y-66265000D02*
X102761252Y-66265000D01*
X102238748Y-67735000D02*
X102761252Y-67735000D01*
X119735000Y-40772936D02*
X119735000Y-41227064D01*
X118265000Y-40772936D02*
X118265000Y-41227064D01*
X95227064Y-79735000D02*
X94772936Y-79735000D01*
X95227064Y-78265000D02*
X94772936Y-78265000D01*
X88738748Y-84265000D02*
X89261252Y-84265000D01*
X88738748Y-85735000D02*
X89261252Y-85735000D01*
X95227064Y-85735000D02*
X94772936Y-85735000D01*
X95227064Y-84265000D02*
X94772936Y-84265000D01*
X111135000Y-64415000D02*
X106865000Y-64415000D01*
X106865000Y-64415000D02*
X106865000Y-70475000D01*
X111135000Y-70475000D02*
X111135000Y-64415000D01*
X129297369Y-91710000D02*
X127702631Y-91710000D01*
X129297369Y-87290000D02*
X127702631Y-87290000D01*
X94772936Y-86265000D02*
X95227064Y-86265000D01*
X94772936Y-87735000D02*
X95227064Y-87735000D01*
X104477064Y-101985000D02*
X104022936Y-101985000D01*
X104477064Y-100515000D02*
X104022936Y-100515000D01*
X109735000Y-75772936D02*
X109735000Y-76227064D01*
X108265000Y-75772936D02*
X108265000Y-76227064D01*
X113950000Y-43430000D02*
X113680000Y-43430000D01*
X113680000Y-43430000D02*
X113680000Y-40600000D01*
X107320000Y-43430000D02*
X107320000Y-42330000D01*
X107050000Y-43430000D02*
X107320000Y-43430000D01*
X113950000Y-44930000D02*
X113950000Y-43430000D01*
X107050000Y-44930000D02*
X107050000Y-43430000D01*
X116390000Y-72911252D02*
X116390000Y-71488748D01*
X118210000Y-72911252D02*
X118210000Y-71488748D01*
X129297369Y-71210000D02*
X127702631Y-71210000D01*
X129297369Y-66790000D02*
X127702631Y-66790000D01*
X150232500Y-86750000D02*
X136232500Y-86750000D01*
X136232500Y-86750000D02*
X136232500Y-73250000D01*
X136232500Y-73250000D02*
X150232500Y-73250000D01*
X150232500Y-73250000D02*
X150232500Y-86750000D01*
X85735000Y-83738748D02*
X85735000Y-84261252D01*
X84265000Y-83738748D02*
X84265000Y-84261252D01*
X134060000Y-39020000D02*
X134060000Y-43020000D01*
X134350000Y-37990000D02*
X134350000Y-44010000D01*
X134350000Y-44010000D02*
X139650000Y-44010000D01*
X134930000Y-37990000D02*
X134930000Y-38590000D01*
X134930000Y-38590000D02*
X136530000Y-38590000D01*
X135730000Y-43010000D02*
X135980000Y-42480000D01*
X135730000Y-43010000D02*
X138270000Y-43010000D01*
X135730000Y-44010000D02*
X135730000Y-43010000D01*
X135980000Y-42480000D02*
X138020000Y-42480000D01*
X135980000Y-44010000D02*
X135980000Y-43010000D01*
X136530000Y-38590000D02*
X136530000Y-37990000D01*
X137470000Y-37990000D02*
X137470000Y-38590000D01*
X137470000Y-38590000D02*
X139070000Y-38590000D01*
X138020000Y-42480000D02*
X138270000Y-43010000D01*
X138020000Y-44010000D02*
X138020000Y-43010000D01*
X138270000Y-43010000D02*
X138270000Y-44010000D01*
X139070000Y-38590000D02*
X139070000Y-37990000D01*
X139650000Y-37990000D02*
X134350000Y-37990000D01*
X139650000Y-44010000D02*
X139650000Y-37990000D01*
X93700000Y-63100000D02*
X94400000Y-63100000D01*
X95300000Y-62600000D02*
X95700000Y-62600000D01*
X93700000Y-62400000D02*
X93700000Y-63100000D01*
X93900000Y-61500000D02*
X93900000Y-58600000D01*
X97100000Y-61500000D02*
X97100000Y-58600000D01*
X93900000Y-58600000D02*
X94500000Y-58600000D01*
X97100000Y-58600000D02*
X96500000Y-58600000D01*
X130772936Y-37765000D02*
X131227064Y-37765000D01*
X130772936Y-39235000D02*
X131227064Y-39235000D01*
D16*
X87999740Y-75000260D02*
X87999740Y-80999740D01*
X82000260Y-75000260D02*
X87999740Y-75000260D01*
X87999740Y-80999740D02*
X82000260Y-80999740D01*
X82000260Y-80999740D02*
X82000260Y-75000260D01*
D17*
X85500380Y-78000000D02*
G75*
G03*
X85500380Y-78000000I-500380J0D01*
G01*
X86501140Y-78000000D02*
G75*
G03*
X86501140Y-78000000I-1501140J0D01*
G01*
D16*
X87371904Y-78000000D02*
G75*
G03*
X87371904Y-78000000I-2371904J0D01*
G01*
X87548957Y-78000000D02*
G75*
G03*
X87548957Y-78000000I-2548957J0D01*
G01*
D15*
X117235000Y-40738748D02*
X117235000Y-41261252D01*
X115765000Y-40738748D02*
X115765000Y-41261252D01*
X88290000Y-63935000D02*
X91710000Y-63935000D01*
X91710000Y-63935000D02*
X91710000Y-57000000D01*
X88290000Y-57000000D02*
X88290000Y-63935000D01*
X164000000Y-92250000D02*
X138000000Y-92250000D01*
X138000000Y-92250000D02*
X138000000Y-79750000D01*
X138000000Y-79750000D02*
X164000000Y-79750000D01*
X164000000Y-79750000D02*
X164000000Y-92250000D01*
X164000000Y-78750000D02*
X138000000Y-78750000D01*
X138000000Y-78750000D02*
X138000000Y-66250000D01*
X138000000Y-66250000D02*
X164000000Y-66250000D01*
X164000000Y-66250000D02*
X164000000Y-78750000D01*
X98085000Y-68760000D02*
X98085000Y-64240000D01*
X98085000Y-64240000D02*
X89850000Y-64240000D01*
X89850000Y-68760000D02*
X98085000Y-68760000D01*
X100265000Y-70227064D02*
X100265000Y-69772936D01*
X101735000Y-70227064D02*
X101735000Y-69772936D01*
X116490000Y-86911252D02*
X116490000Y-85488748D01*
X118310000Y-86911252D02*
X118310000Y-85488748D01*
X122227064Y-42735000D02*
X121772936Y-42735000D01*
X122227064Y-41265000D02*
X121772936Y-41265000D01*
D16*
X172000260Y-75799740D02*
X172000260Y-69800260D01*
X177999740Y-75799740D02*
X172000260Y-75799740D01*
X172000260Y-69800260D02*
X177999740Y-69800260D01*
X177999740Y-69800260D02*
X177999740Y-75799740D01*
D17*
X175500380Y-72800000D02*
G75*
G03*
X175500380Y-72800000I-500380J0D01*
G01*
X176501140Y-72800000D02*
G75*
G03*
X176501140Y-72800000I-1501140J0D01*
G01*
D16*
X177371904Y-72800000D02*
G75*
G03*
X177371904Y-72800000I-2371904J0D01*
G01*
X177548957Y-72800000D02*
G75*
G03*
X177548957Y-72800000I-2548957J0D01*
G01*
D18*
X85000000Y-78000000D03*
D19*
X87540000Y-75460000D03*
X82460000Y-75460000D03*
X87540000Y-80540000D03*
X82460000Y-80540000D03*
D18*
X175000000Y-72800000D03*
D19*
X172460000Y-75340000D03*
X177540000Y-75340000D03*
X172460000Y-70260000D03*
X177540000Y-70260000D03*
%LPC*%
D20*
X106362500Y-92500000D03*
X104637500Y-92500000D03*
D21*
X106412500Y-91000000D03*
X104587500Y-91000000D03*
D22*
X85000000Y-35000000D03*
D23*
X96037500Y-81000000D03*
X93962500Y-81000000D03*
D24*
X101500000Y-84000000D03*
X101500000Y-79000000D03*
X101500000Y-73500000D03*
X112500000Y-73500000D03*
X112500000Y-79000000D03*
X112500000Y-84000000D03*
D25*
X115500000Y-75900000D03*
X113500000Y-75900000D03*
D26*
X97462500Y-101250000D03*
X99537500Y-101250000D03*
D25*
X96000000Y-83000000D03*
X94000000Y-83000000D03*
D22*
X85000000Y-105000000D03*
D27*
X169000000Y-49000000D03*
D28*
X101250000Y-101750000D03*
D29*
X107750000Y-95250000D03*
D30*
X101250000Y-88750000D03*
D31*
X117899999Y-76499999D03*
X117899999Y-81899999D03*
X129699999Y-81899999D03*
X129699999Y-76499999D03*
D32*
X99775000Y-35000000D03*
X104225000Y-35000000D03*
D33*
X90719999Y-54199999D03*
D34*
X92999999Y-47899999D03*
D33*
X95279999Y-54199999D03*
D35*
X96700000Y-71500000D03*
X90300000Y-71500000D03*
D36*
X99499999Y-92587499D03*
D37*
X101000000Y-92500000D03*
D36*
X102499999Y-92587499D03*
D38*
X85000000Y-90000000D03*
X88000000Y-90000000D03*
X91000000Y-90000000D03*
D22*
X175000000Y-105000000D03*
D39*
X100730000Y-41020000D03*
D40*
X103269999Y-41019999D03*
D23*
X109400000Y-79000000D03*
X107325000Y-79000000D03*
D41*
X130000000Y-40462500D03*
X130000000Y-42537500D03*
D42*
X126949999Y-38999999D03*
X125049999Y-38999999D03*
X125999999Y-41999999D03*
D43*
X132000000Y-42500000D03*
X132000000Y-40500000D03*
D27*
X151000000Y-49000000D03*
D25*
X115500000Y-81600000D03*
X113500000Y-81600000D03*
D26*
X101462500Y-67000000D03*
X103537500Y-67000000D03*
D44*
X119000000Y-40000000D03*
X119000000Y-42000000D03*
D25*
X96000000Y-79000000D03*
X94000000Y-79000000D03*
D26*
X87962500Y-85000000D03*
X90037500Y-85000000D03*
D25*
X96000000Y-85000000D03*
X94000000Y-85000000D03*
D22*
X175000000Y-35000000D03*
D45*
X109000000Y-88000000D03*
X109000000Y-69000000D03*
D46*
X131100000Y-89500000D03*
X114000000Y-89500000D03*
D47*
X94000000Y-87000000D03*
X96000000Y-87000000D03*
D25*
X105250000Y-101250000D03*
X103250000Y-101250000D03*
D44*
X109000000Y-75000000D03*
X109000000Y-77000000D03*
D33*
X112779999Y-41699999D03*
D34*
X110499999Y-47999999D03*
D33*
X108219999Y-41699999D03*
D48*
X117300000Y-73762500D03*
X117300000Y-70637500D03*
D46*
X131100000Y-69000000D03*
X114000000Y-69000000D03*
D49*
X134232499Y-81249999D03*
X134232499Y-77249999D03*
D41*
X85000000Y-82962500D03*
X85000000Y-85037500D03*
D39*
X135730000Y-41020000D03*
D40*
X138269999Y-41019999D03*
D50*
X93999999Y-62299999D03*
D51*
X95499999Y-59049999D03*
D50*
X96999999Y-62299999D03*
D47*
X130000000Y-38500000D03*
X132000000Y-38500000D03*
D18*
X85000000Y-78000000D03*
D19*
X87540000Y-75460000D03*
X82460000Y-75460000D03*
X87540000Y-80540000D03*
X82460000Y-80540000D03*
D41*
X116500000Y-39962500D03*
X116500000Y-42037500D03*
D52*
X90000000Y-62550000D03*
X90000000Y-57450000D03*
D53*
X134500000Y-72750000D03*
X134500000Y-85750000D03*
X167500000Y-85750000D03*
X167500000Y-72750000D03*
D35*
X96700000Y-66500000D03*
X90300000Y-66500000D03*
D43*
X101000000Y-71000000D03*
X101000000Y-69000000D03*
D48*
X117400000Y-87762500D03*
X117400000Y-84637500D03*
D25*
X123000000Y-42000000D03*
X121000000Y-42000000D03*
D18*
X175000000Y-72800000D03*
D19*
X172460000Y-75340000D03*
X177540000Y-75340000D03*
X172460000Y-70260000D03*
X177540000Y-70260000D03*
M02*
