%TF.GenerationSoftware,KiCad,Pcbnew,(7.0.0)*%
%TF.CreationDate,2023-03-31T08:32:34+02:00*%
%TF.ProjectId,Ampli_0_5W,416d706c-695f-4305-9f35-572e6b696361,rev?*%
%TF.SameCoordinates,Original*%
%TF.FileFunction,Drillmap*%
%TF.FilePolarity,Positive*%
%FSLAX45Y45*%
G04 Gerber Fmt 4.5, Leading zero omitted, Abs format (unit mm)*
G04 Created by KiCad (PCBNEW (7.0.0)) date 2023-03-31 08:32:34*
%MOMM*%
%LPD*%
G01*
G04 APERTURE LIST*
%ADD10C,0.100000*%
%ADD11C,0.200000*%
%ADD12C,0.040000*%
%ADD13C,0.119000*%
%ADD14C,0.130048*%
%ADD15C,0.150000*%
%ADD16C,0.320000*%
G04 APERTURE END LIST*
D10*
X11950000Y-13000000D02*
X11950000Y-6000000D01*
X18000000Y-13000000D02*
X12900000Y-13000000D01*
X8000000Y-13000000D02*
X8000000Y-3000000D01*
X12900000Y-6000000D02*
X12900000Y-13000000D01*
X18000000Y-3000000D02*
X18000000Y-13000000D01*
X11950000Y-13000000D02*
X8000000Y-13000000D01*
X8000000Y-3000000D02*
X18000000Y-3000000D01*
X12900000Y-6000000D02*
X11950000Y-6000000D01*
D11*
D12*
X8130000Y-3130000D02*
X8170000Y-3170000D01*
X8170000Y-3130000D02*
X8130000Y-3170000D01*
X8130000Y-3630000D02*
X8170000Y-3670000D01*
X8170000Y-3630000D02*
X8130000Y-3670000D01*
X8130000Y-4130000D02*
X8170000Y-4170000D01*
X8170000Y-4130000D02*
X8130000Y-4170000D01*
X8130000Y-4630000D02*
X8170000Y-4670000D01*
X8170000Y-4630000D02*
X8130000Y-4670000D01*
X8130000Y-5130000D02*
X8170000Y-5170000D01*
X8170000Y-5130000D02*
X8130000Y-5170000D01*
X8130000Y-5630000D02*
X8170000Y-5670000D01*
X8170000Y-5630000D02*
X8130000Y-5670000D01*
X8130000Y-6130000D02*
X8170000Y-6170000D01*
X8170000Y-6130000D02*
X8130000Y-6170000D01*
X8130000Y-6630000D02*
X8170000Y-6670000D01*
X8170000Y-6630000D02*
X8130000Y-6670000D01*
X8130000Y-7130000D02*
X8170000Y-7170000D01*
X8170000Y-7130000D02*
X8130000Y-7170000D01*
X8130000Y-8630000D02*
X8170000Y-8670000D01*
X8170000Y-8630000D02*
X8130000Y-8670000D01*
X8130000Y-9130000D02*
X8170000Y-9170000D01*
X8170000Y-9130000D02*
X8130000Y-9170000D01*
X8130000Y-9630000D02*
X8170000Y-9670000D01*
X8170000Y-9630000D02*
X8130000Y-9670000D01*
X8130000Y-10130000D02*
X8170000Y-10170000D01*
X8170000Y-10130000D02*
X8130000Y-10170000D01*
X8130000Y-11130000D02*
X8170000Y-11170000D01*
X8170000Y-11130000D02*
X8130000Y-11170000D01*
X8130000Y-11630000D02*
X8170000Y-11670000D01*
X8170000Y-11630000D02*
X8130000Y-11670000D01*
X8130000Y-12130000D02*
X8170000Y-12170000D01*
X8170000Y-12130000D02*
X8130000Y-12170000D01*
X8180000Y-12780000D02*
X8220000Y-12820000D01*
X8220000Y-12780000D02*
X8180000Y-12820000D01*
X8630000Y-3130000D02*
X8670000Y-3170000D01*
X8670000Y-3130000D02*
X8630000Y-3170000D01*
X8680000Y-5630000D02*
X8720000Y-5670000D01*
X8720000Y-5630000D02*
X8680000Y-5670000D01*
X8680000Y-6130000D02*
X8720000Y-6170000D01*
X8720000Y-6130000D02*
X8680000Y-6170000D01*
X8680000Y-6630000D02*
X8720000Y-6670000D01*
X8720000Y-6630000D02*
X8680000Y-6670000D01*
X8680000Y-7130000D02*
X8720000Y-7170000D01*
X8720000Y-7130000D02*
X8680000Y-7170000D01*
X8680000Y-9630000D02*
X8720000Y-9670000D01*
X8720000Y-9630000D02*
X8680000Y-9670000D01*
X8680000Y-10130000D02*
X8720000Y-10170000D01*
X8720000Y-10130000D02*
X8680000Y-10170000D01*
X8680000Y-12780000D02*
X8720000Y-12820000D01*
X8720000Y-12780000D02*
X8680000Y-12820000D01*
X8780000Y-4530000D02*
X8820000Y-4570000D01*
X8820000Y-4530000D02*
X8780000Y-4570000D01*
X8780000Y-4830000D02*
X8820000Y-4870000D01*
X8820000Y-4830000D02*
X8780000Y-4870000D01*
X8880000Y-4180000D02*
X8920000Y-4220000D01*
X8920000Y-4180000D02*
X8880000Y-4220000D01*
X9080000Y-4580000D02*
X9120000Y-4620000D01*
X9120000Y-4580000D02*
X9080000Y-4620000D01*
X9080000Y-4880000D02*
X9120000Y-4920000D01*
X9120000Y-4880000D02*
X9080000Y-4920000D01*
X9130000Y-3130000D02*
X9170000Y-3170000D01*
X9170000Y-3130000D02*
X9130000Y-3170000D01*
X9180000Y-9630000D02*
X9220000Y-9670000D01*
X9220000Y-9630000D02*
X9180000Y-9670000D01*
X9180000Y-10130000D02*
X9220000Y-10170000D01*
X9220000Y-10130000D02*
X9180000Y-10170000D01*
X9180000Y-10830000D02*
X9220000Y-10870000D01*
X9220000Y-10830000D02*
X9180000Y-10870000D01*
X9180000Y-12780000D02*
X9220000Y-12820000D01*
X9220000Y-12780000D02*
X9180000Y-12820000D01*
X9230000Y-4180000D02*
X9270000Y-4220000D01*
X9270000Y-4180000D02*
X9230000Y-4220000D01*
X9230000Y-4730000D02*
X9270000Y-4770000D01*
X9270000Y-4730000D02*
X9230000Y-4770000D01*
X9230000Y-5030000D02*
X9270000Y-5070000D01*
X9270000Y-5030000D02*
X9230000Y-5070000D01*
X9380000Y-4580000D02*
X9420000Y-4620000D01*
X9420000Y-4580000D02*
X9380000Y-4620000D01*
X9380000Y-4880000D02*
X9420000Y-4920000D01*
X9420000Y-4880000D02*
X9380000Y-4920000D01*
X9530000Y-4730000D02*
X9570000Y-4770000D01*
X9570000Y-4730000D02*
X9530000Y-4770000D01*
X9530000Y-5030000D02*
X9570000Y-5070000D01*
X9570000Y-5030000D02*
X9530000Y-5070000D01*
X9580000Y-4180000D02*
X9620000Y-4220000D01*
X9620000Y-4180000D02*
X9580000Y-4220000D01*
X9630000Y-3130000D02*
X9670000Y-3170000D01*
X9670000Y-3130000D02*
X9630000Y-3170000D01*
X9680000Y-10830000D02*
X9720000Y-10870000D01*
X9720000Y-10830000D02*
X9680000Y-10870000D01*
X9680000Y-12780000D02*
X9720000Y-12820000D01*
X9720000Y-12780000D02*
X9680000Y-12820000D01*
X9780000Y-4530000D02*
X9820000Y-4570000D01*
X9820000Y-4530000D02*
X9780000Y-4570000D01*
X9780000Y-4830000D02*
X9820000Y-4870000D01*
X9820000Y-4830000D02*
X9780000Y-4870000D01*
X9780000Y-5080000D02*
X9820000Y-5120000D01*
X9820000Y-5080000D02*
X9780000Y-5120000D01*
X10105000Y-9755000D02*
X10145000Y-9795000D01*
X10145000Y-9755000D02*
X10105000Y-9795000D01*
X10130000Y-3130000D02*
X10170000Y-3170000D01*
X10170000Y-3130000D02*
X10130000Y-3170000D01*
X10180000Y-10830000D02*
X10220000Y-10870000D01*
X10220000Y-10830000D02*
X10180000Y-10870000D01*
X10180000Y-12780000D02*
X10220000Y-12820000D01*
X10220000Y-12780000D02*
X10180000Y-12820000D01*
X10480000Y-5630000D02*
X10520000Y-5670000D01*
X10520000Y-5630000D02*
X10480000Y-5670000D01*
X10480000Y-6130000D02*
X10520000Y-6170000D01*
X10520000Y-6130000D02*
X10480000Y-6170000D01*
X10480000Y-6630000D02*
X10520000Y-6670000D01*
X10520000Y-6630000D02*
X10480000Y-6670000D01*
X10480000Y-7130000D02*
X10520000Y-7170000D01*
X10520000Y-7130000D02*
X10480000Y-7170000D01*
X10630000Y-3130000D02*
X10670000Y-3170000D01*
X10670000Y-3130000D02*
X10630000Y-3170000D01*
X10630000Y-8030000D02*
X10670000Y-8070000D01*
X10670000Y-8030000D02*
X10630000Y-8070000D01*
X10630000Y-8330000D02*
X10670000Y-8370000D01*
X10670000Y-8330000D02*
X10630000Y-8370000D01*
X10630000Y-8630000D02*
X10670000Y-8670000D01*
X10670000Y-8630000D02*
X10630000Y-8670000D01*
X10630000Y-8880000D02*
X10670000Y-8920000D01*
X10670000Y-8880000D02*
X10630000Y-8920000D01*
X10680000Y-10130000D02*
X10720000Y-10170000D01*
X10720000Y-10130000D02*
X10680000Y-10170000D01*
X10680000Y-10830000D02*
X10720000Y-10870000D01*
X10720000Y-10830000D02*
X10680000Y-10870000D01*
X10680000Y-12780000D02*
X10720000Y-12820000D01*
X10720000Y-12780000D02*
X10680000Y-12820000D01*
X10730000Y-9080000D02*
X10770000Y-9120000D01*
X10770000Y-9080000D02*
X10730000Y-9120000D01*
X10730000Y-9230000D02*
X10770000Y-9270000D01*
X10770000Y-9230000D02*
X10730000Y-9270000D01*
X11130000Y-3130000D02*
X11170000Y-3170000D01*
X11170000Y-3130000D02*
X11130000Y-3170000D01*
X11180000Y-9630000D02*
X11220000Y-9670000D01*
X11220000Y-9630000D02*
X11180000Y-9670000D01*
X11180000Y-10130000D02*
X11220000Y-10170000D01*
X11220000Y-10130000D02*
X11180000Y-10170000D01*
X11180000Y-10830000D02*
X11220000Y-10870000D01*
X11220000Y-10830000D02*
X11180000Y-10870000D01*
X11180000Y-12780000D02*
X11220000Y-12820000D01*
X11220000Y-12780000D02*
X11180000Y-12820000D01*
X11630000Y-3130000D02*
X11670000Y-3170000D01*
X11670000Y-3130000D02*
X11630000Y-3170000D01*
X11630000Y-4630000D02*
X11670000Y-4670000D01*
X11670000Y-4630000D02*
X11630000Y-4670000D01*
X11630000Y-5130000D02*
X11670000Y-5170000D01*
X11670000Y-5130000D02*
X11630000Y-5170000D01*
X11630000Y-5630000D02*
X11670000Y-5670000D01*
X11670000Y-5630000D02*
X11630000Y-5670000D01*
X11680000Y-9630000D02*
X11720000Y-9670000D01*
X11720000Y-9630000D02*
X11680000Y-9670000D01*
X11680000Y-10130000D02*
X11720000Y-10170000D01*
X11720000Y-10130000D02*
X11680000Y-10170000D01*
X11680000Y-10830000D02*
X11720000Y-10870000D01*
X11720000Y-10830000D02*
X11680000Y-10870000D01*
X11680000Y-12780000D02*
X11720000Y-12820000D01*
X11720000Y-12780000D02*
X11680000Y-12820000D01*
X11880000Y-6080000D02*
X11920000Y-6120000D01*
X11920000Y-6080000D02*
X11880000Y-6120000D01*
X11880000Y-6280000D02*
X11920000Y-6320000D01*
X11920000Y-6280000D02*
X11880000Y-6320000D01*
X11880000Y-6480000D02*
X11920000Y-6520000D01*
X11920000Y-6480000D02*
X11880000Y-6520000D01*
X11880000Y-6680000D02*
X11920000Y-6720000D01*
X11920000Y-6680000D02*
X11880000Y-6720000D01*
X11880000Y-6880000D02*
X11920000Y-6920000D01*
X11920000Y-6880000D02*
X11880000Y-6920000D01*
X11880000Y-7080000D02*
X11920000Y-7120000D01*
X11920000Y-7080000D02*
X11880000Y-7120000D01*
X11880000Y-7280000D02*
X11920000Y-7320000D01*
X11920000Y-7280000D02*
X11880000Y-7320000D01*
X11880000Y-8580000D02*
X11920000Y-8620000D01*
X11920000Y-8580000D02*
X11880000Y-8620000D01*
X11880000Y-8780000D02*
X11920000Y-8820000D01*
X11920000Y-8780000D02*
X11880000Y-8820000D01*
X11880000Y-8980000D02*
X11920000Y-9020000D01*
X11920000Y-8980000D02*
X11880000Y-9020000D01*
X11880000Y-9180000D02*
X11920000Y-9220000D01*
X11920000Y-9180000D02*
X11880000Y-9220000D01*
X11880000Y-9380000D02*
X11920000Y-9420000D01*
X11920000Y-9380000D02*
X11880000Y-9420000D01*
X11880000Y-9580000D02*
X11920000Y-9620000D01*
X11920000Y-9580000D02*
X11880000Y-9620000D01*
X11880000Y-9780000D02*
X11920000Y-9820000D01*
X11920000Y-9780000D02*
X11880000Y-9820000D01*
X11880000Y-9980000D02*
X11920000Y-10020000D01*
X11920000Y-9980000D02*
X11880000Y-10020000D01*
X11980000Y-5880000D02*
X12020000Y-5920000D01*
X12020000Y-5880000D02*
X11980000Y-5920000D01*
X12130000Y-3130000D02*
X12170000Y-3170000D01*
X12170000Y-3130000D02*
X12130000Y-3170000D01*
X12130000Y-4630000D02*
X12170000Y-4670000D01*
X12170000Y-4630000D02*
X12130000Y-4670000D01*
X12130000Y-5630000D02*
X12170000Y-5670000D01*
X12170000Y-5630000D02*
X12130000Y-5670000D01*
X12180000Y-5880000D02*
X12220000Y-5920000D01*
X12220000Y-5880000D02*
X12180000Y-5920000D01*
X12380000Y-5880000D02*
X12420000Y-5920000D01*
X12420000Y-5880000D02*
X12380000Y-5920000D01*
X12580000Y-5880000D02*
X12620000Y-5920000D01*
X12620000Y-5880000D02*
X12580000Y-5920000D01*
X12630000Y-3130000D02*
X12670000Y-3170000D01*
X12670000Y-3130000D02*
X12630000Y-3170000D01*
X12630000Y-4630000D02*
X12670000Y-4670000D01*
X12670000Y-4630000D02*
X12630000Y-4670000D01*
X12630000Y-5630000D02*
X12670000Y-5670000D01*
X12670000Y-5630000D02*
X12630000Y-5670000D01*
X12780000Y-5880000D02*
X12820000Y-5920000D01*
X12820000Y-5880000D02*
X12780000Y-5920000D01*
X12980000Y-6080000D02*
X13020000Y-6120000D01*
X13020000Y-6080000D02*
X12980000Y-6120000D01*
X12980000Y-6280000D02*
X13020000Y-6320000D01*
X13020000Y-6280000D02*
X12980000Y-6320000D01*
X12980000Y-6480000D02*
X13020000Y-6520000D01*
X13020000Y-6480000D02*
X12980000Y-6520000D01*
X12980000Y-9380000D02*
X13020000Y-9420000D01*
X13020000Y-9380000D02*
X12980000Y-9420000D01*
X12980000Y-9580000D02*
X13020000Y-9620000D01*
X13020000Y-9580000D02*
X12980000Y-9620000D01*
X12980000Y-9780000D02*
X13020000Y-9820000D01*
X13020000Y-9780000D02*
X12980000Y-9820000D01*
X12980000Y-9980000D02*
X13020000Y-10020000D01*
X13020000Y-9980000D02*
X12980000Y-10020000D01*
X13130000Y-3130000D02*
X13170000Y-3170000D01*
X13170000Y-3130000D02*
X13130000Y-3170000D01*
X13130000Y-4630000D02*
X13170000Y-4670000D01*
X13170000Y-4630000D02*
X13130000Y-4670000D01*
X13130000Y-5630000D02*
X13170000Y-5670000D01*
X13170000Y-5630000D02*
X13130000Y-5670000D01*
X13180000Y-9630000D02*
X13220000Y-9670000D01*
X13220000Y-9630000D02*
X13180000Y-9670000D01*
X13180000Y-10130000D02*
X13220000Y-10170000D01*
X13220000Y-10130000D02*
X13180000Y-10170000D01*
X13180000Y-10830000D02*
X13220000Y-10870000D01*
X13220000Y-10830000D02*
X13180000Y-10870000D01*
X13180000Y-12780000D02*
X13220000Y-12820000D01*
X13220000Y-12780000D02*
X13180000Y-12820000D01*
X13630000Y-3130000D02*
X13670000Y-3170000D01*
X13670000Y-3130000D02*
X13630000Y-3170000D01*
X13630000Y-4630000D02*
X13670000Y-4670000D01*
X13670000Y-4630000D02*
X13630000Y-4670000D01*
X13630000Y-5630000D02*
X13670000Y-5670000D01*
X13670000Y-5630000D02*
X13630000Y-5670000D01*
X13680000Y-9630000D02*
X13720000Y-9670000D01*
X13720000Y-9630000D02*
X13680000Y-9670000D01*
X13680000Y-10830000D02*
X13720000Y-10870000D01*
X13720000Y-10830000D02*
X13680000Y-10870000D01*
X13680000Y-12780000D02*
X13720000Y-12820000D01*
X13720000Y-12780000D02*
X13680000Y-12820000D01*
X13930000Y-7230000D02*
X13970000Y-7270000D01*
X13970000Y-7230000D02*
X13930000Y-7270000D01*
X13930000Y-8630000D02*
X13970000Y-8670000D01*
X13970000Y-8630000D02*
X13930000Y-8670000D01*
X14130000Y-3130000D02*
X14170000Y-3170000D01*
X14170000Y-3130000D02*
X14130000Y-3170000D01*
X14130000Y-4630000D02*
X14170000Y-4670000D01*
X14170000Y-4630000D02*
X14130000Y-4670000D01*
X14130000Y-5130000D02*
X14170000Y-5170000D01*
X14170000Y-5130000D02*
X14130000Y-5170000D01*
X14130000Y-5630000D02*
X14170000Y-5670000D01*
X14170000Y-5630000D02*
X14130000Y-5670000D01*
X14130000Y-8630000D02*
X14170000Y-8670000D01*
X14170000Y-8630000D02*
X14130000Y-8670000D01*
X14180000Y-7230000D02*
X14220000Y-7270000D01*
X14220000Y-7230000D02*
X14180000Y-7270000D01*
X14180000Y-9630000D02*
X14220000Y-9670000D01*
X14220000Y-9630000D02*
X14180000Y-9670000D01*
X14180000Y-10830000D02*
X14220000Y-10870000D01*
X14220000Y-10830000D02*
X14180000Y-10870000D01*
X14180000Y-12780000D02*
X14220000Y-12820000D01*
X14220000Y-12780000D02*
X14180000Y-12820000D01*
X14330000Y-5880000D02*
X14370000Y-5920000D01*
X14370000Y-5880000D02*
X14330000Y-5920000D01*
X14330000Y-6080000D02*
X14370000Y-6120000D01*
X14370000Y-6080000D02*
X14330000Y-6120000D01*
X14330000Y-6280000D02*
X14370000Y-6320000D01*
X14370000Y-6280000D02*
X14330000Y-6320000D01*
X14330000Y-6480000D02*
X14370000Y-6520000D01*
X14370000Y-6480000D02*
X14330000Y-6520000D01*
X14330000Y-6680000D02*
X14370000Y-6720000D01*
X14370000Y-6680000D02*
X14330000Y-6720000D01*
X14330000Y-6880000D02*
X14370000Y-6920000D01*
X14370000Y-6880000D02*
X14330000Y-6920000D01*
X14330000Y-7130000D02*
X14370000Y-7170000D01*
X14370000Y-7130000D02*
X14330000Y-7170000D01*
X14330000Y-8630000D02*
X14370000Y-8670000D01*
X14370000Y-8630000D02*
X14330000Y-8670000D01*
X14530000Y-8630000D02*
X14570000Y-8670000D01*
X14570000Y-8630000D02*
X14530000Y-8670000D01*
X14680000Y-3130000D02*
X14720000Y-3170000D01*
X14720000Y-3130000D02*
X14680000Y-3170000D01*
X14680000Y-9130000D02*
X14720000Y-9170000D01*
X14720000Y-9130000D02*
X14680000Y-9170000D01*
X14680000Y-9630000D02*
X14720000Y-9670000D01*
X14720000Y-9630000D02*
X14680000Y-9670000D01*
X14680000Y-10830000D02*
X14720000Y-10870000D01*
X14720000Y-10830000D02*
X14680000Y-10870000D01*
X14680000Y-12780000D02*
X14720000Y-12820000D01*
X14720000Y-12780000D02*
X14680000Y-12820000D01*
X14730000Y-8630000D02*
X14770000Y-8670000D01*
X14770000Y-8630000D02*
X14730000Y-8670000D01*
X14930000Y-8530000D02*
X14970000Y-8570000D01*
X14970000Y-8530000D02*
X14930000Y-8570000D01*
X15080000Y-8380000D02*
X15120000Y-8420000D01*
X15120000Y-8380000D02*
X15080000Y-8420000D01*
X15180000Y-9130000D02*
X15220000Y-9170000D01*
X15220000Y-9130000D02*
X15180000Y-9170000D01*
X15180000Y-10830000D02*
X15220000Y-10870000D01*
X15220000Y-10830000D02*
X15180000Y-10870000D01*
X15180000Y-12780000D02*
X15220000Y-12820000D01*
X15220000Y-12780000D02*
X15180000Y-12820000D01*
X15230000Y-3130000D02*
X15270000Y-3170000D01*
X15270000Y-3130000D02*
X15230000Y-3170000D01*
X15230000Y-8230000D02*
X15270000Y-8270000D01*
X15270000Y-8230000D02*
X15230000Y-8270000D01*
X15330000Y-8080000D02*
X15370000Y-8120000D01*
X15370000Y-8080000D02*
X15330000Y-8120000D01*
X15480000Y-7980000D02*
X15520000Y-8020000D01*
X15520000Y-7980000D02*
X15480000Y-8020000D01*
X15630000Y-7830000D02*
X15670000Y-7870000D01*
X15670000Y-7830000D02*
X15630000Y-7870000D01*
X15680000Y-3130000D02*
X15720000Y-3170000D01*
X15720000Y-3130000D02*
X15680000Y-3170000D01*
X15680000Y-9130000D02*
X15720000Y-9170000D01*
X15720000Y-9130000D02*
X15680000Y-9170000D01*
X15680000Y-10830000D02*
X15720000Y-10870000D01*
X15720000Y-10830000D02*
X15680000Y-10870000D01*
X15680000Y-12780000D02*
X15720000Y-12820000D01*
X15720000Y-12780000D02*
X15680000Y-12820000D01*
X15730000Y-7680000D02*
X15770000Y-7720000D01*
X15770000Y-7680000D02*
X15730000Y-7720000D01*
X15780000Y-5880000D02*
X15820000Y-5920000D01*
X15820000Y-5880000D02*
X15780000Y-5920000D01*
X15780000Y-6080000D02*
X15820000Y-6120000D01*
X15820000Y-6080000D02*
X15780000Y-6120000D01*
X15780000Y-6280000D02*
X15820000Y-6320000D01*
X15820000Y-6280000D02*
X15780000Y-6320000D01*
X15780000Y-6480000D02*
X15820000Y-6520000D01*
X15820000Y-6480000D02*
X15780000Y-6520000D01*
X15780000Y-6680000D02*
X15820000Y-6720000D01*
X15820000Y-6680000D02*
X15780000Y-6720000D01*
X15780000Y-6880000D02*
X15820000Y-6920000D01*
X15820000Y-6880000D02*
X15780000Y-6920000D01*
X15780000Y-7080000D02*
X15820000Y-7120000D01*
X15820000Y-7080000D02*
X15780000Y-7120000D01*
X15780000Y-7280000D02*
X15820000Y-7320000D01*
X15820000Y-7280000D02*
X15780000Y-7320000D01*
X15780000Y-7480000D02*
X15820000Y-7520000D01*
X15820000Y-7480000D02*
X15780000Y-7520000D01*
X16130000Y-3130000D02*
X16170000Y-3170000D01*
X16170000Y-3130000D02*
X16130000Y-3170000D01*
X16180000Y-10830000D02*
X16220000Y-10870000D01*
X16220000Y-10830000D02*
X16180000Y-10870000D01*
X16180000Y-12780000D02*
X16220000Y-12820000D01*
X16220000Y-12780000D02*
X16180000Y-12820000D01*
X16230000Y-4130000D02*
X16270000Y-4170000D01*
X16270000Y-4130000D02*
X16230000Y-4170000D01*
X16230000Y-4630000D02*
X16270000Y-4670000D01*
X16270000Y-4630000D02*
X16230000Y-4670000D01*
X16230000Y-5130000D02*
X16270000Y-5170000D01*
X16270000Y-5130000D02*
X16230000Y-5170000D01*
X16230000Y-5630000D02*
X16270000Y-5670000D01*
X16270000Y-5630000D02*
X16230000Y-5670000D01*
X16280000Y-6130000D02*
X16320000Y-6170000D01*
X16320000Y-6130000D02*
X16280000Y-6170000D01*
X16280000Y-6630000D02*
X16320000Y-6670000D01*
X16320000Y-6630000D02*
X16280000Y-6670000D01*
X16280000Y-9130000D02*
X16320000Y-9170000D01*
X16320000Y-9130000D02*
X16280000Y-9170000D01*
X16630000Y-3130000D02*
X16670000Y-3170000D01*
X16670000Y-3130000D02*
X16630000Y-3170000D01*
X16680000Y-10830000D02*
X16720000Y-10870000D01*
X16720000Y-10830000D02*
X16680000Y-10870000D01*
X16680000Y-12780000D02*
X16720000Y-12820000D01*
X16720000Y-12780000D02*
X16680000Y-12820000D01*
X16730000Y-4130000D02*
X16770000Y-4170000D01*
X16770000Y-4130000D02*
X16730000Y-4170000D01*
X16780000Y-6630000D02*
X16820000Y-6670000D01*
X16820000Y-6630000D02*
X16780000Y-6670000D01*
X16780000Y-9130000D02*
X16820000Y-9170000D01*
X16820000Y-9130000D02*
X16780000Y-9170000D01*
X17130000Y-3130000D02*
X17170000Y-3170000D01*
X17170000Y-3130000D02*
X17130000Y-3170000D01*
X17180000Y-12780000D02*
X17220000Y-12820000D01*
X17220000Y-12780000D02*
X17180000Y-12820000D01*
X17230000Y-4130000D02*
X17270000Y-4170000D01*
X17270000Y-4130000D02*
X17230000Y-4170000D01*
X17280000Y-6630000D02*
X17320000Y-6670000D01*
X17320000Y-6630000D02*
X17280000Y-6670000D01*
X17280000Y-9130000D02*
X17320000Y-9170000D01*
X17320000Y-9130000D02*
X17280000Y-9170000D01*
X17680000Y-12780000D02*
X17720000Y-12820000D01*
X17720000Y-12780000D02*
X17680000Y-12820000D01*
X17730000Y-4130000D02*
X17770000Y-4170000D01*
X17770000Y-4130000D02*
X17730000Y-4170000D01*
X17730000Y-4630000D02*
X17770000Y-4670000D01*
X17770000Y-4630000D02*
X17730000Y-4670000D01*
X17730000Y-5130000D02*
X17770000Y-5170000D01*
X17770000Y-5130000D02*
X17730000Y-5170000D01*
X17730000Y-5630000D02*
X17770000Y-5670000D01*
X17770000Y-5630000D02*
X17730000Y-5670000D01*
X17730000Y-6130000D02*
X17770000Y-6170000D01*
X17770000Y-6130000D02*
X17730000Y-6170000D01*
X17730000Y-6630000D02*
X17770000Y-6670000D01*
X17770000Y-6630000D02*
X17730000Y-6670000D01*
X17730000Y-8130000D02*
X17770000Y-8170000D01*
X17770000Y-8130000D02*
X17730000Y-8170000D01*
X17730000Y-8630000D02*
X17770000Y-8670000D01*
X17770000Y-8630000D02*
X17730000Y-8670000D01*
X17730000Y-9130000D02*
X17770000Y-9170000D01*
X17770000Y-9130000D02*
X17730000Y-9170000D01*
X17730000Y-9630000D02*
X17770000Y-9670000D01*
X17770000Y-9630000D02*
X17730000Y-9670000D01*
X17730000Y-10130000D02*
X17770000Y-10170000D01*
X17770000Y-10130000D02*
X17730000Y-10170000D01*
X17730000Y-10630000D02*
X17770000Y-10670000D01*
X17770000Y-10630000D02*
X17730000Y-10670000D01*
X17730000Y-11130000D02*
X17770000Y-11170000D01*
X17770000Y-11130000D02*
X17730000Y-11170000D01*
X17730000Y-11630000D02*
X17770000Y-11670000D01*
X17770000Y-11630000D02*
X17730000Y-11670000D01*
X17730000Y-12130000D02*
X17770000Y-12170000D01*
X17770000Y-12130000D02*
X17730000Y-12170000D01*
D13*
X10132500Y-4102000D02*
G75*
G03*
X10132500Y-4102000I-59500J0D01*
G01*
X10386500Y-4102000D02*
G75*
G03*
X10386500Y-4102000I-59500J0D01*
G01*
X13632500Y-4102000D02*
G75*
G03*
X13632500Y-4102000I-59500J0D01*
G01*
X13886500Y-4102000D02*
G75*
G03*
X13886500Y-4102000I-59500J0D01*
G01*
D14*
X8246000Y-7480976D02*
X8246000Y-7611024D01*
X8180976Y-7546000D02*
X8311024Y-7546000D01*
X8246000Y-7988976D02*
X8246000Y-8119024D01*
X8180976Y-8054000D02*
X8311024Y-8054000D01*
X8500000Y-7734976D02*
X8500000Y-7865024D01*
X8434976Y-7800000D02*
X8565024Y-7800000D01*
X8754000Y-7480976D02*
X8754000Y-7611024D01*
X8688976Y-7546000D02*
X8819024Y-7546000D01*
X8754000Y-7988976D02*
X8754000Y-8119024D01*
X8688976Y-8054000D02*
X8819024Y-8054000D01*
X17246000Y-6960976D02*
X17246000Y-7091024D01*
X17180976Y-7026000D02*
X17311024Y-7026000D01*
X17246000Y-7468976D02*
X17246000Y-7599024D01*
X17180976Y-7534000D02*
X17311024Y-7534000D01*
X17500000Y-7214976D02*
X17500000Y-7345024D01*
X17434976Y-7280000D02*
X17565024Y-7280000D01*
X17754000Y-6960976D02*
X17754000Y-7091024D01*
X17688976Y-7026000D02*
X17819024Y-7026000D01*
X17754000Y-7468976D02*
X17754000Y-7599024D01*
X17688976Y-7534000D02*
X17819024Y-7534000D01*
D15*
X13476283Y-7778033D02*
X13476283Y-7671966D01*
X13370216Y-7671966D01*
X13370216Y-7778033D01*
X13476283Y-7778033D01*
X13476283Y-8178033D02*
X13476283Y-8071966D01*
X13370216Y-8071966D01*
X13370216Y-8178033D01*
X13476283Y-8178033D01*
D16*
X8500000Y-3660000D02*
X8660000Y-3500000D01*
X8500000Y-3340000D01*
X8340000Y-3500000D01*
X8500000Y-3660000D01*
X8500000Y-10660000D02*
X8660000Y-10500000D01*
X8500000Y-10340000D01*
X8340000Y-10500000D01*
X8500000Y-10660000D01*
X15100000Y-5060000D02*
X15260000Y-4900000D01*
X15100000Y-4740000D01*
X14940000Y-4900000D01*
X15100000Y-5060000D01*
X16900000Y-5060000D02*
X17060000Y-4900000D01*
X16900000Y-4740000D01*
X16740000Y-4900000D01*
X16900000Y-5060000D01*
X17500000Y-3660000D02*
X17660000Y-3500000D01*
X17500000Y-3340000D01*
X17340000Y-3500000D01*
X17500000Y-3660000D01*
X17500000Y-10660000D02*
X17660000Y-10500000D01*
X17500000Y-10340000D01*
X17340000Y-10500000D01*
X17500000Y-10660000D01*
D11*
X8242619Y-13298476D02*
X8242619Y-13098476D01*
X8242619Y-13098476D02*
X8290238Y-13098476D01*
X8290238Y-13098476D02*
X8318809Y-13108000D01*
X8318809Y-13108000D02*
X8337857Y-13127048D01*
X8337857Y-13127048D02*
X8347381Y-13146095D01*
X8347381Y-13146095D02*
X8356905Y-13184190D01*
X8356905Y-13184190D02*
X8356905Y-13212762D01*
X8356905Y-13212762D02*
X8347381Y-13250857D01*
X8347381Y-13250857D02*
X8337857Y-13269905D01*
X8337857Y-13269905D02*
X8318809Y-13288952D01*
X8318809Y-13288952D02*
X8290238Y-13298476D01*
X8290238Y-13298476D02*
X8242619Y-13298476D01*
X8442619Y-13298476D02*
X8442619Y-13165143D01*
X8442619Y-13203238D02*
X8452143Y-13184190D01*
X8452143Y-13184190D02*
X8461667Y-13174667D01*
X8461667Y-13174667D02*
X8480714Y-13165143D01*
X8480714Y-13165143D02*
X8499762Y-13165143D01*
X8566429Y-13298476D02*
X8566429Y-13165143D01*
X8566429Y-13098476D02*
X8556905Y-13108000D01*
X8556905Y-13108000D02*
X8566429Y-13117524D01*
X8566429Y-13117524D02*
X8575952Y-13108000D01*
X8575952Y-13108000D02*
X8566429Y-13098476D01*
X8566429Y-13098476D02*
X8566429Y-13117524D01*
X8690238Y-13298476D02*
X8671190Y-13288952D01*
X8671190Y-13288952D02*
X8661667Y-13269905D01*
X8661667Y-13269905D02*
X8661667Y-13098476D01*
X8795000Y-13298476D02*
X8775952Y-13288952D01*
X8775952Y-13288952D02*
X8766429Y-13269905D01*
X8766429Y-13269905D02*
X8766429Y-13098476D01*
X8991190Y-13298476D02*
X8991190Y-13098476D01*
X8991190Y-13098476D02*
X9057857Y-13241333D01*
X9057857Y-13241333D02*
X9124524Y-13098476D01*
X9124524Y-13098476D02*
X9124524Y-13298476D01*
X9305476Y-13298476D02*
X9305476Y-13193714D01*
X9305476Y-13193714D02*
X9295952Y-13174667D01*
X9295952Y-13174667D02*
X9276905Y-13165143D01*
X9276905Y-13165143D02*
X9238809Y-13165143D01*
X9238809Y-13165143D02*
X9219762Y-13174667D01*
X9305476Y-13288952D02*
X9286429Y-13298476D01*
X9286429Y-13298476D02*
X9238809Y-13298476D01*
X9238809Y-13298476D02*
X9219762Y-13288952D01*
X9219762Y-13288952D02*
X9210238Y-13269905D01*
X9210238Y-13269905D02*
X9210238Y-13250857D01*
X9210238Y-13250857D02*
X9219762Y-13231809D01*
X9219762Y-13231809D02*
X9238809Y-13222286D01*
X9238809Y-13222286D02*
X9286429Y-13222286D01*
X9286429Y-13222286D02*
X9305476Y-13212762D01*
X9400714Y-13165143D02*
X9400714Y-13365143D01*
X9400714Y-13174667D02*
X9419762Y-13165143D01*
X9419762Y-13165143D02*
X9457857Y-13165143D01*
X9457857Y-13165143D02*
X9476905Y-13174667D01*
X9476905Y-13174667D02*
X9486429Y-13184190D01*
X9486429Y-13184190D02*
X9495952Y-13203238D01*
X9495952Y-13203238D02*
X9495952Y-13260381D01*
X9495952Y-13260381D02*
X9486429Y-13279428D01*
X9486429Y-13279428D02*
X9476905Y-13288952D01*
X9476905Y-13288952D02*
X9457857Y-13298476D01*
X9457857Y-13298476D02*
X9419762Y-13298476D01*
X9419762Y-13298476D02*
X9400714Y-13288952D01*
X9581667Y-13279428D02*
X9591190Y-13288952D01*
X9591190Y-13288952D02*
X9581667Y-13298476D01*
X9581667Y-13298476D02*
X9572143Y-13288952D01*
X9572143Y-13288952D02*
X9581667Y-13279428D01*
X9581667Y-13279428D02*
X9581667Y-13298476D01*
X9581667Y-13174667D02*
X9591190Y-13184190D01*
X9591190Y-13184190D02*
X9581667Y-13193714D01*
X9581667Y-13193714D02*
X9572143Y-13184190D01*
X9572143Y-13184190D02*
X9581667Y-13174667D01*
X9581667Y-13174667D02*
X9581667Y-13193714D01*
D12*
X7955000Y-13625000D02*
X7995000Y-13665000D01*
X7995000Y-13625000D02*
X7955000Y-13665000D01*
D11*
X8280714Y-13518476D02*
X8299762Y-13518476D01*
X8299762Y-13518476D02*
X8318809Y-13528000D01*
X8318809Y-13528000D02*
X8328333Y-13537524D01*
X8328333Y-13537524D02*
X8337857Y-13556571D01*
X8337857Y-13556571D02*
X8347381Y-13594667D01*
X8347381Y-13594667D02*
X8347381Y-13642286D01*
X8347381Y-13642286D02*
X8337857Y-13680381D01*
X8337857Y-13680381D02*
X8328333Y-13699428D01*
X8328333Y-13699428D02*
X8318809Y-13708952D01*
X8318809Y-13708952D02*
X8299762Y-13718476D01*
X8299762Y-13718476D02*
X8280714Y-13718476D01*
X8280714Y-13718476D02*
X8261667Y-13708952D01*
X8261667Y-13708952D02*
X8252143Y-13699428D01*
X8252143Y-13699428D02*
X8242619Y-13680381D01*
X8242619Y-13680381D02*
X8233095Y-13642286D01*
X8233095Y-13642286D02*
X8233095Y-13594667D01*
X8233095Y-13594667D02*
X8242619Y-13556571D01*
X8242619Y-13556571D02*
X8252143Y-13537524D01*
X8252143Y-13537524D02*
X8261667Y-13528000D01*
X8261667Y-13528000D02*
X8280714Y-13518476D01*
X8433095Y-13699428D02*
X8442619Y-13708952D01*
X8442619Y-13708952D02*
X8433095Y-13718476D01*
X8433095Y-13718476D02*
X8423571Y-13708952D01*
X8423571Y-13708952D02*
X8433095Y-13699428D01*
X8433095Y-13699428D02*
X8433095Y-13718476D01*
X8614048Y-13585143D02*
X8614048Y-13718476D01*
X8566429Y-13508952D02*
X8518810Y-13651809D01*
X8518810Y-13651809D02*
X8642619Y-13651809D01*
X8756905Y-13518476D02*
X8775952Y-13518476D01*
X8775952Y-13518476D02*
X8795000Y-13528000D01*
X8795000Y-13528000D02*
X8804524Y-13537524D01*
X8804524Y-13537524D02*
X8814048Y-13556571D01*
X8814048Y-13556571D02*
X8823571Y-13594667D01*
X8823571Y-13594667D02*
X8823571Y-13642286D01*
X8823571Y-13642286D02*
X8814048Y-13680381D01*
X8814048Y-13680381D02*
X8804524Y-13699428D01*
X8804524Y-13699428D02*
X8795000Y-13708952D01*
X8795000Y-13708952D02*
X8775952Y-13718476D01*
X8775952Y-13718476D02*
X8756905Y-13718476D01*
X8756905Y-13718476D02*
X8737857Y-13708952D01*
X8737857Y-13708952D02*
X8728333Y-13699428D01*
X8728333Y-13699428D02*
X8718810Y-13680381D01*
X8718810Y-13680381D02*
X8709286Y-13642286D01*
X8709286Y-13642286D02*
X8709286Y-13594667D01*
X8709286Y-13594667D02*
X8718810Y-13556571D01*
X8718810Y-13556571D02*
X8728333Y-13537524D01*
X8728333Y-13537524D02*
X8737857Y-13528000D01*
X8737857Y-13528000D02*
X8756905Y-13518476D01*
X8947381Y-13518476D02*
X8966429Y-13518476D01*
X8966429Y-13518476D02*
X8985476Y-13528000D01*
X8985476Y-13528000D02*
X8995000Y-13537524D01*
X8995000Y-13537524D02*
X9004524Y-13556571D01*
X9004524Y-13556571D02*
X9014048Y-13594667D01*
X9014048Y-13594667D02*
X9014048Y-13642286D01*
X9014048Y-13642286D02*
X9004524Y-13680381D01*
X9004524Y-13680381D02*
X8995000Y-13699428D01*
X8995000Y-13699428D02*
X8985476Y-13708952D01*
X8985476Y-13708952D02*
X8966429Y-13718476D01*
X8966429Y-13718476D02*
X8947381Y-13718476D01*
X8947381Y-13718476D02*
X8928333Y-13708952D01*
X8928333Y-13708952D02*
X8918810Y-13699428D01*
X8918810Y-13699428D02*
X8909286Y-13680381D01*
X8909286Y-13680381D02*
X8899762Y-13642286D01*
X8899762Y-13642286D02*
X8899762Y-13594667D01*
X8899762Y-13594667D02*
X8909286Y-13556571D01*
X8909286Y-13556571D02*
X8918810Y-13537524D01*
X8918810Y-13537524D02*
X8928333Y-13528000D01*
X8928333Y-13528000D02*
X8947381Y-13518476D01*
X9099762Y-13718476D02*
X9099762Y-13585143D01*
X9099762Y-13604190D02*
X9109286Y-13594667D01*
X9109286Y-13594667D02*
X9128333Y-13585143D01*
X9128333Y-13585143D02*
X9156905Y-13585143D01*
X9156905Y-13585143D02*
X9175952Y-13594667D01*
X9175952Y-13594667D02*
X9185476Y-13613714D01*
X9185476Y-13613714D02*
X9185476Y-13718476D01*
X9185476Y-13613714D02*
X9195000Y-13594667D01*
X9195000Y-13594667D02*
X9214048Y-13585143D01*
X9214048Y-13585143D02*
X9242619Y-13585143D01*
X9242619Y-13585143D02*
X9261667Y-13594667D01*
X9261667Y-13594667D02*
X9271191Y-13613714D01*
X9271191Y-13613714D02*
X9271191Y-13718476D01*
X9366429Y-13718476D02*
X9366429Y-13585143D01*
X9366429Y-13604190D02*
X9375952Y-13594667D01*
X9375952Y-13594667D02*
X9395000Y-13585143D01*
X9395000Y-13585143D02*
X9423572Y-13585143D01*
X9423572Y-13585143D02*
X9442619Y-13594667D01*
X9442619Y-13594667D02*
X9452143Y-13613714D01*
X9452143Y-13613714D02*
X9452143Y-13718476D01*
X9452143Y-13613714D02*
X9461667Y-13594667D01*
X9461667Y-13594667D02*
X9480714Y-13585143D01*
X9480714Y-13585143D02*
X9509286Y-13585143D01*
X9509286Y-13585143D02*
X9528333Y-13594667D01*
X9528333Y-13594667D02*
X9537857Y-13613714D01*
X9537857Y-13613714D02*
X9537857Y-13718476D01*
X9895952Y-13508952D02*
X9724524Y-13766095D01*
X10120714Y-13518476D02*
X10139762Y-13518476D01*
X10139762Y-13518476D02*
X10158810Y-13528000D01*
X10158810Y-13528000D02*
X10168333Y-13537524D01*
X10168333Y-13537524D02*
X10177857Y-13556571D01*
X10177857Y-13556571D02*
X10187381Y-13594667D01*
X10187381Y-13594667D02*
X10187381Y-13642286D01*
X10187381Y-13642286D02*
X10177857Y-13680381D01*
X10177857Y-13680381D02*
X10168333Y-13699428D01*
X10168333Y-13699428D02*
X10158810Y-13708952D01*
X10158810Y-13708952D02*
X10139762Y-13718476D01*
X10139762Y-13718476D02*
X10120714Y-13718476D01*
X10120714Y-13718476D02*
X10101667Y-13708952D01*
X10101667Y-13708952D02*
X10092143Y-13699428D01*
X10092143Y-13699428D02*
X10082619Y-13680381D01*
X10082619Y-13680381D02*
X10073095Y-13642286D01*
X10073095Y-13642286D02*
X10073095Y-13594667D01*
X10073095Y-13594667D02*
X10082619Y-13556571D01*
X10082619Y-13556571D02*
X10092143Y-13537524D01*
X10092143Y-13537524D02*
X10101667Y-13528000D01*
X10101667Y-13528000D02*
X10120714Y-13518476D01*
X10273095Y-13699428D02*
X10282619Y-13708952D01*
X10282619Y-13708952D02*
X10273095Y-13718476D01*
X10273095Y-13718476D02*
X10263572Y-13708952D01*
X10263572Y-13708952D02*
X10273095Y-13699428D01*
X10273095Y-13699428D02*
X10273095Y-13718476D01*
X10406429Y-13518476D02*
X10425476Y-13518476D01*
X10425476Y-13518476D02*
X10444524Y-13528000D01*
X10444524Y-13528000D02*
X10454048Y-13537524D01*
X10454048Y-13537524D02*
X10463572Y-13556571D01*
X10463572Y-13556571D02*
X10473095Y-13594667D01*
X10473095Y-13594667D02*
X10473095Y-13642286D01*
X10473095Y-13642286D02*
X10463572Y-13680381D01*
X10463572Y-13680381D02*
X10454048Y-13699428D01*
X10454048Y-13699428D02*
X10444524Y-13708952D01*
X10444524Y-13708952D02*
X10425476Y-13718476D01*
X10425476Y-13718476D02*
X10406429Y-13718476D01*
X10406429Y-13718476D02*
X10387381Y-13708952D01*
X10387381Y-13708952D02*
X10377857Y-13699428D01*
X10377857Y-13699428D02*
X10368333Y-13680381D01*
X10368333Y-13680381D02*
X10358810Y-13642286D01*
X10358810Y-13642286D02*
X10358810Y-13594667D01*
X10358810Y-13594667D02*
X10368333Y-13556571D01*
X10368333Y-13556571D02*
X10377857Y-13537524D01*
X10377857Y-13537524D02*
X10387381Y-13528000D01*
X10387381Y-13528000D02*
X10406429Y-13518476D01*
X10663572Y-13718476D02*
X10549286Y-13718476D01*
X10606429Y-13718476D02*
X10606429Y-13518476D01*
X10606429Y-13518476D02*
X10587381Y-13547048D01*
X10587381Y-13547048D02*
X10568333Y-13566095D01*
X10568333Y-13566095D02*
X10549286Y-13575619D01*
X10844524Y-13518476D02*
X10749286Y-13518476D01*
X10749286Y-13518476D02*
X10739762Y-13613714D01*
X10739762Y-13613714D02*
X10749286Y-13604190D01*
X10749286Y-13604190D02*
X10768333Y-13594667D01*
X10768333Y-13594667D02*
X10815953Y-13594667D01*
X10815953Y-13594667D02*
X10835000Y-13604190D01*
X10835000Y-13604190D02*
X10844524Y-13613714D01*
X10844524Y-13613714D02*
X10854048Y-13632762D01*
X10854048Y-13632762D02*
X10854048Y-13680381D01*
X10854048Y-13680381D02*
X10844524Y-13699428D01*
X10844524Y-13699428D02*
X10835000Y-13708952D01*
X10835000Y-13708952D02*
X10815953Y-13718476D01*
X10815953Y-13718476D02*
X10768333Y-13718476D01*
X10768333Y-13718476D02*
X10749286Y-13708952D01*
X10749286Y-13708952D02*
X10739762Y-13699428D01*
X10920714Y-13518476D02*
X11054048Y-13518476D01*
X11054048Y-13518476D02*
X10968333Y-13718476D01*
X11120714Y-13518476D02*
X11120714Y-13556571D01*
X11196905Y-13518476D02*
X11196905Y-13556571D01*
X11459762Y-13794667D02*
X11450238Y-13785143D01*
X11450238Y-13785143D02*
X11431191Y-13756571D01*
X11431191Y-13756571D02*
X11421667Y-13737524D01*
X11421667Y-13737524D02*
X11412143Y-13708952D01*
X11412143Y-13708952D02*
X11402619Y-13661333D01*
X11402619Y-13661333D02*
X11402619Y-13623238D01*
X11402619Y-13623238D02*
X11412143Y-13575619D01*
X11412143Y-13575619D02*
X11421667Y-13547048D01*
X11421667Y-13547048D02*
X11431191Y-13528000D01*
X11431191Y-13528000D02*
X11450238Y-13499428D01*
X11450238Y-13499428D02*
X11459762Y-13489905D01*
X11526429Y-13537524D02*
X11535952Y-13528000D01*
X11535952Y-13528000D02*
X11555000Y-13518476D01*
X11555000Y-13518476D02*
X11602619Y-13518476D01*
X11602619Y-13518476D02*
X11621667Y-13528000D01*
X11621667Y-13528000D02*
X11631191Y-13537524D01*
X11631191Y-13537524D02*
X11640714Y-13556571D01*
X11640714Y-13556571D02*
X11640714Y-13575619D01*
X11640714Y-13575619D02*
X11631191Y-13604190D01*
X11631191Y-13604190D02*
X11516905Y-13718476D01*
X11516905Y-13718476D02*
X11640714Y-13718476D01*
X11831191Y-13718476D02*
X11716905Y-13718476D01*
X11774048Y-13718476D02*
X11774048Y-13518476D01*
X11774048Y-13518476D02*
X11755000Y-13547048D01*
X11755000Y-13547048D02*
X11735952Y-13566095D01*
X11735952Y-13566095D02*
X11716905Y-13575619D01*
X11897857Y-13518476D02*
X12021667Y-13518476D01*
X12021667Y-13518476D02*
X11955000Y-13594667D01*
X11955000Y-13594667D02*
X11983572Y-13594667D01*
X11983572Y-13594667D02*
X12002619Y-13604190D01*
X12002619Y-13604190D02*
X12012143Y-13613714D01*
X12012143Y-13613714D02*
X12021667Y-13632762D01*
X12021667Y-13632762D02*
X12021667Y-13680381D01*
X12021667Y-13680381D02*
X12012143Y-13699428D01*
X12012143Y-13699428D02*
X12002619Y-13708952D01*
X12002619Y-13708952D02*
X11983572Y-13718476D01*
X11983572Y-13718476D02*
X11926429Y-13718476D01*
X11926429Y-13718476D02*
X11907381Y-13708952D01*
X11907381Y-13708952D02*
X11897857Y-13699428D01*
X12227381Y-13718476D02*
X12227381Y-13518476D01*
X12313095Y-13718476D02*
X12313095Y-13613714D01*
X12313095Y-13613714D02*
X12303572Y-13594667D01*
X12303572Y-13594667D02*
X12284524Y-13585143D01*
X12284524Y-13585143D02*
X12255952Y-13585143D01*
X12255952Y-13585143D02*
X12236905Y-13594667D01*
X12236905Y-13594667D02*
X12227381Y-13604190D01*
X12436905Y-13718476D02*
X12417857Y-13708952D01*
X12417857Y-13708952D02*
X12408333Y-13699428D01*
X12408333Y-13699428D02*
X12398810Y-13680381D01*
X12398810Y-13680381D02*
X12398810Y-13623238D01*
X12398810Y-13623238D02*
X12408333Y-13604190D01*
X12408333Y-13604190D02*
X12417857Y-13594667D01*
X12417857Y-13594667D02*
X12436905Y-13585143D01*
X12436905Y-13585143D02*
X12465476Y-13585143D01*
X12465476Y-13585143D02*
X12484524Y-13594667D01*
X12484524Y-13594667D02*
X12494048Y-13604190D01*
X12494048Y-13604190D02*
X12503572Y-13623238D01*
X12503572Y-13623238D02*
X12503572Y-13680381D01*
X12503572Y-13680381D02*
X12494048Y-13699428D01*
X12494048Y-13699428D02*
X12484524Y-13708952D01*
X12484524Y-13708952D02*
X12465476Y-13718476D01*
X12465476Y-13718476D02*
X12436905Y-13718476D01*
X12617857Y-13718476D02*
X12598810Y-13708952D01*
X12598810Y-13708952D02*
X12589286Y-13689905D01*
X12589286Y-13689905D02*
X12589286Y-13518476D01*
X12770238Y-13708952D02*
X12751191Y-13718476D01*
X12751191Y-13718476D02*
X12713095Y-13718476D01*
X12713095Y-13718476D02*
X12694048Y-13708952D01*
X12694048Y-13708952D02*
X12684524Y-13689905D01*
X12684524Y-13689905D02*
X12684524Y-13613714D01*
X12684524Y-13613714D02*
X12694048Y-13594667D01*
X12694048Y-13594667D02*
X12713095Y-13585143D01*
X12713095Y-13585143D02*
X12751191Y-13585143D01*
X12751191Y-13585143D02*
X12770238Y-13594667D01*
X12770238Y-13594667D02*
X12779762Y-13613714D01*
X12779762Y-13613714D02*
X12779762Y-13632762D01*
X12779762Y-13632762D02*
X12684524Y-13651809D01*
X12855953Y-13708952D02*
X12875000Y-13718476D01*
X12875000Y-13718476D02*
X12913095Y-13718476D01*
X12913095Y-13718476D02*
X12932143Y-13708952D01*
X12932143Y-13708952D02*
X12941667Y-13689905D01*
X12941667Y-13689905D02*
X12941667Y-13680381D01*
X12941667Y-13680381D02*
X12932143Y-13661333D01*
X12932143Y-13661333D02*
X12913095Y-13651809D01*
X12913095Y-13651809D02*
X12884524Y-13651809D01*
X12884524Y-13651809D02*
X12865476Y-13642286D01*
X12865476Y-13642286D02*
X12855953Y-13623238D01*
X12855953Y-13623238D02*
X12855953Y-13613714D01*
X12855953Y-13613714D02*
X12865476Y-13594667D01*
X12865476Y-13594667D02*
X12884524Y-13585143D01*
X12884524Y-13585143D02*
X12913095Y-13585143D01*
X12913095Y-13585143D02*
X12932143Y-13594667D01*
X13008334Y-13794667D02*
X13017857Y-13785143D01*
X13017857Y-13785143D02*
X13036905Y-13756571D01*
X13036905Y-13756571D02*
X13046429Y-13737524D01*
X13046429Y-13737524D02*
X13055953Y-13708952D01*
X13055953Y-13708952D02*
X13065476Y-13661333D01*
X13065476Y-13661333D02*
X13065476Y-13623238D01*
X13065476Y-13623238D02*
X13055953Y-13575619D01*
X13055953Y-13575619D02*
X13046429Y-13547048D01*
X13046429Y-13547048D02*
X13036905Y-13528000D01*
X13036905Y-13528000D02*
X13017857Y-13499428D01*
X13017857Y-13499428D02*
X13008334Y-13489905D01*
D13*
X7995000Y-13909000D02*
G75*
G03*
X7995000Y-13909000I-59500J0D01*
G01*
D11*
X8347381Y-13982476D02*
X8233095Y-13982476D01*
X8290238Y-13982476D02*
X8290238Y-13782476D01*
X8290238Y-13782476D02*
X8271190Y-13811048D01*
X8271190Y-13811048D02*
X8252143Y-13830095D01*
X8252143Y-13830095D02*
X8233095Y-13839619D01*
X8433095Y-13963428D02*
X8442619Y-13972952D01*
X8442619Y-13972952D02*
X8433095Y-13982476D01*
X8433095Y-13982476D02*
X8423571Y-13972952D01*
X8423571Y-13972952D02*
X8433095Y-13963428D01*
X8433095Y-13963428D02*
X8433095Y-13982476D01*
X8633095Y-13982476D02*
X8518810Y-13982476D01*
X8575952Y-13982476D02*
X8575952Y-13782476D01*
X8575952Y-13782476D02*
X8556905Y-13811048D01*
X8556905Y-13811048D02*
X8537857Y-13830095D01*
X8537857Y-13830095D02*
X8518810Y-13839619D01*
X8728333Y-13982476D02*
X8766429Y-13982476D01*
X8766429Y-13982476D02*
X8785476Y-13972952D01*
X8785476Y-13972952D02*
X8795000Y-13963428D01*
X8795000Y-13963428D02*
X8814048Y-13934857D01*
X8814048Y-13934857D02*
X8823571Y-13896762D01*
X8823571Y-13896762D02*
X8823571Y-13820571D01*
X8823571Y-13820571D02*
X8814048Y-13801524D01*
X8814048Y-13801524D02*
X8804524Y-13792000D01*
X8804524Y-13792000D02*
X8785476Y-13782476D01*
X8785476Y-13782476D02*
X8747381Y-13782476D01*
X8747381Y-13782476D02*
X8728333Y-13792000D01*
X8728333Y-13792000D02*
X8718810Y-13801524D01*
X8718810Y-13801524D02*
X8709286Y-13820571D01*
X8709286Y-13820571D02*
X8709286Y-13868190D01*
X8709286Y-13868190D02*
X8718810Y-13887238D01*
X8718810Y-13887238D02*
X8728333Y-13896762D01*
X8728333Y-13896762D02*
X8747381Y-13906286D01*
X8747381Y-13906286D02*
X8785476Y-13906286D01*
X8785476Y-13906286D02*
X8804524Y-13896762D01*
X8804524Y-13896762D02*
X8814048Y-13887238D01*
X8814048Y-13887238D02*
X8823571Y-13868190D01*
X8947381Y-13782476D02*
X8966429Y-13782476D01*
X8966429Y-13782476D02*
X8985476Y-13792000D01*
X8985476Y-13792000D02*
X8995000Y-13801524D01*
X8995000Y-13801524D02*
X9004524Y-13820571D01*
X9004524Y-13820571D02*
X9014048Y-13858667D01*
X9014048Y-13858667D02*
X9014048Y-13906286D01*
X9014048Y-13906286D02*
X9004524Y-13944381D01*
X9004524Y-13944381D02*
X8995000Y-13963428D01*
X8995000Y-13963428D02*
X8985476Y-13972952D01*
X8985476Y-13972952D02*
X8966429Y-13982476D01*
X8966429Y-13982476D02*
X8947381Y-13982476D01*
X8947381Y-13982476D02*
X8928333Y-13972952D01*
X8928333Y-13972952D02*
X8918810Y-13963428D01*
X8918810Y-13963428D02*
X8909286Y-13944381D01*
X8909286Y-13944381D02*
X8899762Y-13906286D01*
X8899762Y-13906286D02*
X8899762Y-13858667D01*
X8899762Y-13858667D02*
X8909286Y-13820571D01*
X8909286Y-13820571D02*
X8918810Y-13801524D01*
X8918810Y-13801524D02*
X8928333Y-13792000D01*
X8928333Y-13792000D02*
X8947381Y-13782476D01*
X9099762Y-13982476D02*
X9099762Y-13849143D01*
X9099762Y-13868190D02*
X9109286Y-13858667D01*
X9109286Y-13858667D02*
X9128333Y-13849143D01*
X9128333Y-13849143D02*
X9156905Y-13849143D01*
X9156905Y-13849143D02*
X9175952Y-13858667D01*
X9175952Y-13858667D02*
X9185476Y-13877714D01*
X9185476Y-13877714D02*
X9185476Y-13982476D01*
X9185476Y-13877714D02*
X9195000Y-13858667D01*
X9195000Y-13858667D02*
X9214048Y-13849143D01*
X9214048Y-13849143D02*
X9242619Y-13849143D01*
X9242619Y-13849143D02*
X9261667Y-13858667D01*
X9261667Y-13858667D02*
X9271191Y-13877714D01*
X9271191Y-13877714D02*
X9271191Y-13982476D01*
X9366429Y-13982476D02*
X9366429Y-13849143D01*
X9366429Y-13868190D02*
X9375952Y-13858667D01*
X9375952Y-13858667D02*
X9395000Y-13849143D01*
X9395000Y-13849143D02*
X9423572Y-13849143D01*
X9423572Y-13849143D02*
X9442619Y-13858667D01*
X9442619Y-13858667D02*
X9452143Y-13877714D01*
X9452143Y-13877714D02*
X9452143Y-13982476D01*
X9452143Y-13877714D02*
X9461667Y-13858667D01*
X9461667Y-13858667D02*
X9480714Y-13849143D01*
X9480714Y-13849143D02*
X9509286Y-13849143D01*
X9509286Y-13849143D02*
X9528333Y-13858667D01*
X9528333Y-13858667D02*
X9537857Y-13877714D01*
X9537857Y-13877714D02*
X9537857Y-13982476D01*
X9895952Y-13772952D02*
X9724524Y-14030095D01*
X10120714Y-13782476D02*
X10139762Y-13782476D01*
X10139762Y-13782476D02*
X10158810Y-13792000D01*
X10158810Y-13792000D02*
X10168333Y-13801524D01*
X10168333Y-13801524D02*
X10177857Y-13820571D01*
X10177857Y-13820571D02*
X10187381Y-13858667D01*
X10187381Y-13858667D02*
X10187381Y-13906286D01*
X10187381Y-13906286D02*
X10177857Y-13944381D01*
X10177857Y-13944381D02*
X10168333Y-13963428D01*
X10168333Y-13963428D02*
X10158810Y-13972952D01*
X10158810Y-13972952D02*
X10139762Y-13982476D01*
X10139762Y-13982476D02*
X10120714Y-13982476D01*
X10120714Y-13982476D02*
X10101667Y-13972952D01*
X10101667Y-13972952D02*
X10092143Y-13963428D01*
X10092143Y-13963428D02*
X10082619Y-13944381D01*
X10082619Y-13944381D02*
X10073095Y-13906286D01*
X10073095Y-13906286D02*
X10073095Y-13858667D01*
X10073095Y-13858667D02*
X10082619Y-13820571D01*
X10082619Y-13820571D02*
X10092143Y-13801524D01*
X10092143Y-13801524D02*
X10101667Y-13792000D01*
X10101667Y-13792000D02*
X10120714Y-13782476D01*
X10273095Y-13963428D02*
X10282619Y-13972952D01*
X10282619Y-13972952D02*
X10273095Y-13982476D01*
X10273095Y-13982476D02*
X10263572Y-13972952D01*
X10263572Y-13972952D02*
X10273095Y-13963428D01*
X10273095Y-13963428D02*
X10273095Y-13982476D01*
X10406429Y-13782476D02*
X10425476Y-13782476D01*
X10425476Y-13782476D02*
X10444524Y-13792000D01*
X10444524Y-13792000D02*
X10454048Y-13801524D01*
X10454048Y-13801524D02*
X10463572Y-13820571D01*
X10463572Y-13820571D02*
X10473095Y-13858667D01*
X10473095Y-13858667D02*
X10473095Y-13906286D01*
X10473095Y-13906286D02*
X10463572Y-13944381D01*
X10463572Y-13944381D02*
X10454048Y-13963428D01*
X10454048Y-13963428D02*
X10444524Y-13972952D01*
X10444524Y-13972952D02*
X10425476Y-13982476D01*
X10425476Y-13982476D02*
X10406429Y-13982476D01*
X10406429Y-13982476D02*
X10387381Y-13972952D01*
X10387381Y-13972952D02*
X10377857Y-13963428D01*
X10377857Y-13963428D02*
X10368333Y-13944381D01*
X10368333Y-13944381D02*
X10358810Y-13906286D01*
X10358810Y-13906286D02*
X10358810Y-13858667D01*
X10358810Y-13858667D02*
X10368333Y-13820571D01*
X10368333Y-13820571D02*
X10377857Y-13801524D01*
X10377857Y-13801524D02*
X10387381Y-13792000D01*
X10387381Y-13792000D02*
X10406429Y-13782476D01*
X10644524Y-13849143D02*
X10644524Y-13982476D01*
X10596905Y-13772952D02*
X10549286Y-13915809D01*
X10549286Y-13915809D02*
X10673095Y-13915809D01*
X10835000Y-13782476D02*
X10796905Y-13782476D01*
X10796905Y-13782476D02*
X10777857Y-13792000D01*
X10777857Y-13792000D02*
X10768333Y-13801524D01*
X10768333Y-13801524D02*
X10749286Y-13830095D01*
X10749286Y-13830095D02*
X10739762Y-13868190D01*
X10739762Y-13868190D02*
X10739762Y-13944381D01*
X10739762Y-13944381D02*
X10749286Y-13963428D01*
X10749286Y-13963428D02*
X10758810Y-13972952D01*
X10758810Y-13972952D02*
X10777857Y-13982476D01*
X10777857Y-13982476D02*
X10815953Y-13982476D01*
X10815953Y-13982476D02*
X10835000Y-13972952D01*
X10835000Y-13972952D02*
X10844524Y-13963428D01*
X10844524Y-13963428D02*
X10854048Y-13944381D01*
X10854048Y-13944381D02*
X10854048Y-13896762D01*
X10854048Y-13896762D02*
X10844524Y-13877714D01*
X10844524Y-13877714D02*
X10835000Y-13868190D01*
X10835000Y-13868190D02*
X10815953Y-13858667D01*
X10815953Y-13858667D02*
X10777857Y-13858667D01*
X10777857Y-13858667D02*
X10758810Y-13868190D01*
X10758810Y-13868190D02*
X10749286Y-13877714D01*
X10749286Y-13877714D02*
X10739762Y-13896762D01*
X10949286Y-13982476D02*
X10987381Y-13982476D01*
X10987381Y-13982476D02*
X11006429Y-13972952D01*
X11006429Y-13972952D02*
X11015953Y-13963428D01*
X11015953Y-13963428D02*
X11035000Y-13934857D01*
X11035000Y-13934857D02*
X11044524Y-13896762D01*
X11044524Y-13896762D02*
X11044524Y-13820571D01*
X11044524Y-13820571D02*
X11035000Y-13801524D01*
X11035000Y-13801524D02*
X11025476Y-13792000D01*
X11025476Y-13792000D02*
X11006429Y-13782476D01*
X11006429Y-13782476D02*
X10968333Y-13782476D01*
X10968333Y-13782476D02*
X10949286Y-13792000D01*
X10949286Y-13792000D02*
X10939762Y-13801524D01*
X10939762Y-13801524D02*
X10930238Y-13820571D01*
X10930238Y-13820571D02*
X10930238Y-13868190D01*
X10930238Y-13868190D02*
X10939762Y-13887238D01*
X10939762Y-13887238D02*
X10949286Y-13896762D01*
X10949286Y-13896762D02*
X10968333Y-13906286D01*
X10968333Y-13906286D02*
X11006429Y-13906286D01*
X11006429Y-13906286D02*
X11025476Y-13896762D01*
X11025476Y-13896762D02*
X11035000Y-13887238D01*
X11035000Y-13887238D02*
X11044524Y-13868190D01*
X11120714Y-13782476D02*
X11120714Y-13820571D01*
X11196905Y-13782476D02*
X11196905Y-13820571D01*
X11459762Y-14058667D02*
X11450238Y-14049143D01*
X11450238Y-14049143D02*
X11431191Y-14020571D01*
X11431191Y-14020571D02*
X11421667Y-14001524D01*
X11421667Y-14001524D02*
X11412143Y-13972952D01*
X11412143Y-13972952D02*
X11402619Y-13925333D01*
X11402619Y-13925333D02*
X11402619Y-13887238D01*
X11402619Y-13887238D02*
X11412143Y-13839619D01*
X11412143Y-13839619D02*
X11421667Y-13811048D01*
X11421667Y-13811048D02*
X11431191Y-13792000D01*
X11431191Y-13792000D02*
X11450238Y-13763428D01*
X11450238Y-13763428D02*
X11459762Y-13753905D01*
X11621667Y-13849143D02*
X11621667Y-13982476D01*
X11574048Y-13772952D02*
X11526429Y-13915809D01*
X11526429Y-13915809D02*
X11650238Y-13915809D01*
X11846429Y-13982476D02*
X11846429Y-13782476D01*
X11932143Y-13982476D02*
X11932143Y-13877714D01*
X11932143Y-13877714D02*
X11922619Y-13858667D01*
X11922619Y-13858667D02*
X11903572Y-13849143D01*
X11903572Y-13849143D02*
X11875000Y-13849143D01*
X11875000Y-13849143D02*
X11855952Y-13858667D01*
X11855952Y-13858667D02*
X11846429Y-13868190D01*
X12055952Y-13982476D02*
X12036905Y-13972952D01*
X12036905Y-13972952D02*
X12027381Y-13963428D01*
X12027381Y-13963428D02*
X12017857Y-13944381D01*
X12017857Y-13944381D02*
X12017857Y-13887238D01*
X12017857Y-13887238D02*
X12027381Y-13868190D01*
X12027381Y-13868190D02*
X12036905Y-13858667D01*
X12036905Y-13858667D02*
X12055952Y-13849143D01*
X12055952Y-13849143D02*
X12084524Y-13849143D01*
X12084524Y-13849143D02*
X12103572Y-13858667D01*
X12103572Y-13858667D02*
X12113095Y-13868190D01*
X12113095Y-13868190D02*
X12122619Y-13887238D01*
X12122619Y-13887238D02*
X12122619Y-13944381D01*
X12122619Y-13944381D02*
X12113095Y-13963428D01*
X12113095Y-13963428D02*
X12103572Y-13972952D01*
X12103572Y-13972952D02*
X12084524Y-13982476D01*
X12084524Y-13982476D02*
X12055952Y-13982476D01*
X12236905Y-13982476D02*
X12217857Y-13972952D01*
X12217857Y-13972952D02*
X12208333Y-13953905D01*
X12208333Y-13953905D02*
X12208333Y-13782476D01*
X12389286Y-13972952D02*
X12370238Y-13982476D01*
X12370238Y-13982476D02*
X12332143Y-13982476D01*
X12332143Y-13982476D02*
X12313095Y-13972952D01*
X12313095Y-13972952D02*
X12303572Y-13953905D01*
X12303572Y-13953905D02*
X12303572Y-13877714D01*
X12303572Y-13877714D02*
X12313095Y-13858667D01*
X12313095Y-13858667D02*
X12332143Y-13849143D01*
X12332143Y-13849143D02*
X12370238Y-13849143D01*
X12370238Y-13849143D02*
X12389286Y-13858667D01*
X12389286Y-13858667D02*
X12398810Y-13877714D01*
X12398810Y-13877714D02*
X12398810Y-13896762D01*
X12398810Y-13896762D02*
X12303572Y-13915809D01*
X12475000Y-13972952D02*
X12494048Y-13982476D01*
X12494048Y-13982476D02*
X12532143Y-13982476D01*
X12532143Y-13982476D02*
X12551191Y-13972952D01*
X12551191Y-13972952D02*
X12560714Y-13953905D01*
X12560714Y-13953905D02*
X12560714Y-13944381D01*
X12560714Y-13944381D02*
X12551191Y-13925333D01*
X12551191Y-13925333D02*
X12532143Y-13915809D01*
X12532143Y-13915809D02*
X12503572Y-13915809D01*
X12503572Y-13915809D02*
X12484524Y-13906286D01*
X12484524Y-13906286D02*
X12475000Y-13887238D01*
X12475000Y-13887238D02*
X12475000Y-13877714D01*
X12475000Y-13877714D02*
X12484524Y-13858667D01*
X12484524Y-13858667D02*
X12503572Y-13849143D01*
X12503572Y-13849143D02*
X12532143Y-13849143D01*
X12532143Y-13849143D02*
X12551191Y-13858667D01*
X12627381Y-14058667D02*
X12636905Y-14049143D01*
X12636905Y-14049143D02*
X12655953Y-14020571D01*
X12655953Y-14020571D02*
X12665476Y-14001524D01*
X12665476Y-14001524D02*
X12675000Y-13972952D01*
X12675000Y-13972952D02*
X12684524Y-13925333D01*
X12684524Y-13925333D02*
X12684524Y-13887238D01*
X12684524Y-13887238D02*
X12675000Y-13839619D01*
X12675000Y-13839619D02*
X12665476Y-13811048D01*
X12665476Y-13811048D02*
X12655953Y-13792000D01*
X12655953Y-13792000D02*
X12636905Y-13763428D01*
X12636905Y-13763428D02*
X12627381Y-13753905D01*
D14*
X7929976Y-14107976D02*
X7929976Y-14238024D01*
X7864952Y-14173000D02*
X7995000Y-14173000D01*
D11*
X8347381Y-14246476D02*
X8233095Y-14246476D01*
X8290238Y-14246476D02*
X8290238Y-14046476D01*
X8290238Y-14046476D02*
X8271190Y-14075048D01*
X8271190Y-14075048D02*
X8252143Y-14094095D01*
X8252143Y-14094095D02*
X8233095Y-14103619D01*
X8433095Y-14227428D02*
X8442619Y-14236952D01*
X8442619Y-14236952D02*
X8433095Y-14246476D01*
X8433095Y-14246476D02*
X8423571Y-14236952D01*
X8423571Y-14236952D02*
X8433095Y-14227428D01*
X8433095Y-14227428D02*
X8433095Y-14246476D01*
X8509286Y-14046476D02*
X8633095Y-14046476D01*
X8633095Y-14046476D02*
X8566429Y-14122667D01*
X8566429Y-14122667D02*
X8595000Y-14122667D01*
X8595000Y-14122667D02*
X8614048Y-14132190D01*
X8614048Y-14132190D02*
X8623571Y-14141714D01*
X8623571Y-14141714D02*
X8633095Y-14160762D01*
X8633095Y-14160762D02*
X8633095Y-14208381D01*
X8633095Y-14208381D02*
X8623571Y-14227428D01*
X8623571Y-14227428D02*
X8614048Y-14236952D01*
X8614048Y-14236952D02*
X8595000Y-14246476D01*
X8595000Y-14246476D02*
X8537857Y-14246476D01*
X8537857Y-14246476D02*
X8518810Y-14236952D01*
X8518810Y-14236952D02*
X8509286Y-14227428D01*
X8756905Y-14046476D02*
X8775952Y-14046476D01*
X8775952Y-14046476D02*
X8795000Y-14056000D01*
X8795000Y-14056000D02*
X8804524Y-14065524D01*
X8804524Y-14065524D02*
X8814048Y-14084571D01*
X8814048Y-14084571D02*
X8823571Y-14122667D01*
X8823571Y-14122667D02*
X8823571Y-14170286D01*
X8823571Y-14170286D02*
X8814048Y-14208381D01*
X8814048Y-14208381D02*
X8804524Y-14227428D01*
X8804524Y-14227428D02*
X8795000Y-14236952D01*
X8795000Y-14236952D02*
X8775952Y-14246476D01*
X8775952Y-14246476D02*
X8756905Y-14246476D01*
X8756905Y-14246476D02*
X8737857Y-14236952D01*
X8737857Y-14236952D02*
X8728333Y-14227428D01*
X8728333Y-14227428D02*
X8718810Y-14208381D01*
X8718810Y-14208381D02*
X8709286Y-14170286D01*
X8709286Y-14170286D02*
X8709286Y-14122667D01*
X8709286Y-14122667D02*
X8718810Y-14084571D01*
X8718810Y-14084571D02*
X8728333Y-14065524D01*
X8728333Y-14065524D02*
X8737857Y-14056000D01*
X8737857Y-14056000D02*
X8756905Y-14046476D01*
X8947381Y-14046476D02*
X8966429Y-14046476D01*
X8966429Y-14046476D02*
X8985476Y-14056000D01*
X8985476Y-14056000D02*
X8995000Y-14065524D01*
X8995000Y-14065524D02*
X9004524Y-14084571D01*
X9004524Y-14084571D02*
X9014048Y-14122667D01*
X9014048Y-14122667D02*
X9014048Y-14170286D01*
X9014048Y-14170286D02*
X9004524Y-14208381D01*
X9004524Y-14208381D02*
X8995000Y-14227428D01*
X8995000Y-14227428D02*
X8985476Y-14236952D01*
X8985476Y-14236952D02*
X8966429Y-14246476D01*
X8966429Y-14246476D02*
X8947381Y-14246476D01*
X8947381Y-14246476D02*
X8928333Y-14236952D01*
X8928333Y-14236952D02*
X8918810Y-14227428D01*
X8918810Y-14227428D02*
X8909286Y-14208381D01*
X8909286Y-14208381D02*
X8899762Y-14170286D01*
X8899762Y-14170286D02*
X8899762Y-14122667D01*
X8899762Y-14122667D02*
X8909286Y-14084571D01*
X8909286Y-14084571D02*
X8918810Y-14065524D01*
X8918810Y-14065524D02*
X8928333Y-14056000D01*
X8928333Y-14056000D02*
X8947381Y-14046476D01*
X9099762Y-14246476D02*
X9099762Y-14113143D01*
X9099762Y-14132190D02*
X9109286Y-14122667D01*
X9109286Y-14122667D02*
X9128333Y-14113143D01*
X9128333Y-14113143D02*
X9156905Y-14113143D01*
X9156905Y-14113143D02*
X9175952Y-14122667D01*
X9175952Y-14122667D02*
X9185476Y-14141714D01*
X9185476Y-14141714D02*
X9185476Y-14246476D01*
X9185476Y-14141714D02*
X9195000Y-14122667D01*
X9195000Y-14122667D02*
X9214048Y-14113143D01*
X9214048Y-14113143D02*
X9242619Y-14113143D01*
X9242619Y-14113143D02*
X9261667Y-14122667D01*
X9261667Y-14122667D02*
X9271191Y-14141714D01*
X9271191Y-14141714D02*
X9271191Y-14246476D01*
X9366429Y-14246476D02*
X9366429Y-14113143D01*
X9366429Y-14132190D02*
X9375952Y-14122667D01*
X9375952Y-14122667D02*
X9395000Y-14113143D01*
X9395000Y-14113143D02*
X9423572Y-14113143D01*
X9423572Y-14113143D02*
X9442619Y-14122667D01*
X9442619Y-14122667D02*
X9452143Y-14141714D01*
X9452143Y-14141714D02*
X9452143Y-14246476D01*
X9452143Y-14141714D02*
X9461667Y-14122667D01*
X9461667Y-14122667D02*
X9480714Y-14113143D01*
X9480714Y-14113143D02*
X9509286Y-14113143D01*
X9509286Y-14113143D02*
X9528333Y-14122667D01*
X9528333Y-14122667D02*
X9537857Y-14141714D01*
X9537857Y-14141714D02*
X9537857Y-14246476D01*
X9895952Y-14036952D02*
X9724524Y-14294095D01*
X10120714Y-14046476D02*
X10139762Y-14046476D01*
X10139762Y-14046476D02*
X10158810Y-14056000D01*
X10158810Y-14056000D02*
X10168333Y-14065524D01*
X10168333Y-14065524D02*
X10177857Y-14084571D01*
X10177857Y-14084571D02*
X10187381Y-14122667D01*
X10187381Y-14122667D02*
X10187381Y-14170286D01*
X10187381Y-14170286D02*
X10177857Y-14208381D01*
X10177857Y-14208381D02*
X10168333Y-14227428D01*
X10168333Y-14227428D02*
X10158810Y-14236952D01*
X10158810Y-14236952D02*
X10139762Y-14246476D01*
X10139762Y-14246476D02*
X10120714Y-14246476D01*
X10120714Y-14246476D02*
X10101667Y-14236952D01*
X10101667Y-14236952D02*
X10092143Y-14227428D01*
X10092143Y-14227428D02*
X10082619Y-14208381D01*
X10082619Y-14208381D02*
X10073095Y-14170286D01*
X10073095Y-14170286D02*
X10073095Y-14122667D01*
X10073095Y-14122667D02*
X10082619Y-14084571D01*
X10082619Y-14084571D02*
X10092143Y-14065524D01*
X10092143Y-14065524D02*
X10101667Y-14056000D01*
X10101667Y-14056000D02*
X10120714Y-14046476D01*
X10273095Y-14227428D02*
X10282619Y-14236952D01*
X10282619Y-14236952D02*
X10273095Y-14246476D01*
X10273095Y-14246476D02*
X10263572Y-14236952D01*
X10263572Y-14236952D02*
X10273095Y-14227428D01*
X10273095Y-14227428D02*
X10273095Y-14246476D01*
X10406429Y-14046476D02*
X10425476Y-14046476D01*
X10425476Y-14046476D02*
X10444524Y-14056000D01*
X10444524Y-14056000D02*
X10454048Y-14065524D01*
X10454048Y-14065524D02*
X10463572Y-14084571D01*
X10463572Y-14084571D02*
X10473095Y-14122667D01*
X10473095Y-14122667D02*
X10473095Y-14170286D01*
X10473095Y-14170286D02*
X10463572Y-14208381D01*
X10463572Y-14208381D02*
X10454048Y-14227428D01*
X10454048Y-14227428D02*
X10444524Y-14236952D01*
X10444524Y-14236952D02*
X10425476Y-14246476D01*
X10425476Y-14246476D02*
X10406429Y-14246476D01*
X10406429Y-14246476D02*
X10387381Y-14236952D01*
X10387381Y-14236952D02*
X10377857Y-14227428D01*
X10377857Y-14227428D02*
X10368333Y-14208381D01*
X10368333Y-14208381D02*
X10358810Y-14170286D01*
X10358810Y-14170286D02*
X10358810Y-14122667D01*
X10358810Y-14122667D02*
X10368333Y-14084571D01*
X10368333Y-14084571D02*
X10377857Y-14065524D01*
X10377857Y-14065524D02*
X10387381Y-14056000D01*
X10387381Y-14056000D02*
X10406429Y-14046476D01*
X10654048Y-14046476D02*
X10558810Y-14046476D01*
X10558810Y-14046476D02*
X10549286Y-14141714D01*
X10549286Y-14141714D02*
X10558810Y-14132190D01*
X10558810Y-14132190D02*
X10577857Y-14122667D01*
X10577857Y-14122667D02*
X10625476Y-14122667D01*
X10625476Y-14122667D02*
X10644524Y-14132190D01*
X10644524Y-14132190D02*
X10654048Y-14141714D01*
X10654048Y-14141714D02*
X10663572Y-14160762D01*
X10663572Y-14160762D02*
X10663572Y-14208381D01*
X10663572Y-14208381D02*
X10654048Y-14227428D01*
X10654048Y-14227428D02*
X10644524Y-14236952D01*
X10644524Y-14236952D02*
X10625476Y-14246476D01*
X10625476Y-14246476D02*
X10577857Y-14246476D01*
X10577857Y-14246476D02*
X10558810Y-14236952D01*
X10558810Y-14236952D02*
X10549286Y-14227428D01*
X10854048Y-14246476D02*
X10739762Y-14246476D01*
X10796905Y-14246476D02*
X10796905Y-14046476D01*
X10796905Y-14046476D02*
X10777857Y-14075048D01*
X10777857Y-14075048D02*
X10758810Y-14094095D01*
X10758810Y-14094095D02*
X10739762Y-14103619D01*
X10930238Y-14065524D02*
X10939762Y-14056000D01*
X10939762Y-14056000D02*
X10958810Y-14046476D01*
X10958810Y-14046476D02*
X11006429Y-14046476D01*
X11006429Y-14046476D02*
X11025476Y-14056000D01*
X11025476Y-14056000D02*
X11035000Y-14065524D01*
X11035000Y-14065524D02*
X11044524Y-14084571D01*
X11044524Y-14084571D02*
X11044524Y-14103619D01*
X11044524Y-14103619D02*
X11035000Y-14132190D01*
X11035000Y-14132190D02*
X10920714Y-14246476D01*
X10920714Y-14246476D02*
X11044524Y-14246476D01*
X11120714Y-14046476D02*
X11120714Y-14084571D01*
X11196905Y-14046476D02*
X11196905Y-14084571D01*
X11459762Y-14322667D02*
X11450238Y-14313143D01*
X11450238Y-14313143D02*
X11431191Y-14284571D01*
X11431191Y-14284571D02*
X11421667Y-14265524D01*
X11421667Y-14265524D02*
X11412143Y-14236952D01*
X11412143Y-14236952D02*
X11402619Y-14189333D01*
X11402619Y-14189333D02*
X11402619Y-14151238D01*
X11402619Y-14151238D02*
X11412143Y-14103619D01*
X11412143Y-14103619D02*
X11421667Y-14075048D01*
X11421667Y-14075048D02*
X11431191Y-14056000D01*
X11431191Y-14056000D02*
X11450238Y-14027428D01*
X11450238Y-14027428D02*
X11459762Y-14017905D01*
X11640714Y-14246476D02*
X11526429Y-14246476D01*
X11583571Y-14246476D02*
X11583571Y-14046476D01*
X11583571Y-14046476D02*
X11564524Y-14075048D01*
X11564524Y-14075048D02*
X11545476Y-14094095D01*
X11545476Y-14094095D02*
X11526429Y-14103619D01*
X11764524Y-14046476D02*
X11783572Y-14046476D01*
X11783572Y-14046476D02*
X11802619Y-14056000D01*
X11802619Y-14056000D02*
X11812143Y-14065524D01*
X11812143Y-14065524D02*
X11821667Y-14084571D01*
X11821667Y-14084571D02*
X11831191Y-14122667D01*
X11831191Y-14122667D02*
X11831191Y-14170286D01*
X11831191Y-14170286D02*
X11821667Y-14208381D01*
X11821667Y-14208381D02*
X11812143Y-14227428D01*
X11812143Y-14227428D02*
X11802619Y-14236952D01*
X11802619Y-14236952D02*
X11783572Y-14246476D01*
X11783572Y-14246476D02*
X11764524Y-14246476D01*
X11764524Y-14246476D02*
X11745476Y-14236952D01*
X11745476Y-14236952D02*
X11735952Y-14227428D01*
X11735952Y-14227428D02*
X11726429Y-14208381D01*
X11726429Y-14208381D02*
X11716905Y-14170286D01*
X11716905Y-14170286D02*
X11716905Y-14122667D01*
X11716905Y-14122667D02*
X11726429Y-14084571D01*
X11726429Y-14084571D02*
X11735952Y-14065524D01*
X11735952Y-14065524D02*
X11745476Y-14056000D01*
X11745476Y-14056000D02*
X11764524Y-14046476D01*
X12036905Y-14246476D02*
X12036905Y-14046476D01*
X12122619Y-14246476D02*
X12122619Y-14141714D01*
X12122619Y-14141714D02*
X12113095Y-14122667D01*
X12113095Y-14122667D02*
X12094048Y-14113143D01*
X12094048Y-14113143D02*
X12065476Y-14113143D01*
X12065476Y-14113143D02*
X12046429Y-14122667D01*
X12046429Y-14122667D02*
X12036905Y-14132190D01*
X12246429Y-14246476D02*
X12227381Y-14236952D01*
X12227381Y-14236952D02*
X12217857Y-14227428D01*
X12217857Y-14227428D02*
X12208333Y-14208381D01*
X12208333Y-14208381D02*
X12208333Y-14151238D01*
X12208333Y-14151238D02*
X12217857Y-14132190D01*
X12217857Y-14132190D02*
X12227381Y-14122667D01*
X12227381Y-14122667D02*
X12246429Y-14113143D01*
X12246429Y-14113143D02*
X12275000Y-14113143D01*
X12275000Y-14113143D02*
X12294048Y-14122667D01*
X12294048Y-14122667D02*
X12303572Y-14132190D01*
X12303572Y-14132190D02*
X12313095Y-14151238D01*
X12313095Y-14151238D02*
X12313095Y-14208381D01*
X12313095Y-14208381D02*
X12303572Y-14227428D01*
X12303572Y-14227428D02*
X12294048Y-14236952D01*
X12294048Y-14236952D02*
X12275000Y-14246476D01*
X12275000Y-14246476D02*
X12246429Y-14246476D01*
X12427381Y-14246476D02*
X12408333Y-14236952D01*
X12408333Y-14236952D02*
X12398810Y-14217905D01*
X12398810Y-14217905D02*
X12398810Y-14046476D01*
X12579762Y-14236952D02*
X12560714Y-14246476D01*
X12560714Y-14246476D02*
X12522619Y-14246476D01*
X12522619Y-14246476D02*
X12503572Y-14236952D01*
X12503572Y-14236952D02*
X12494048Y-14217905D01*
X12494048Y-14217905D02*
X12494048Y-14141714D01*
X12494048Y-14141714D02*
X12503572Y-14122667D01*
X12503572Y-14122667D02*
X12522619Y-14113143D01*
X12522619Y-14113143D02*
X12560714Y-14113143D01*
X12560714Y-14113143D02*
X12579762Y-14122667D01*
X12579762Y-14122667D02*
X12589286Y-14141714D01*
X12589286Y-14141714D02*
X12589286Y-14160762D01*
X12589286Y-14160762D02*
X12494048Y-14179809D01*
X12665476Y-14236952D02*
X12684524Y-14246476D01*
X12684524Y-14246476D02*
X12722619Y-14246476D01*
X12722619Y-14246476D02*
X12741667Y-14236952D01*
X12741667Y-14236952D02*
X12751191Y-14217905D01*
X12751191Y-14217905D02*
X12751191Y-14208381D01*
X12751191Y-14208381D02*
X12741667Y-14189333D01*
X12741667Y-14189333D02*
X12722619Y-14179809D01*
X12722619Y-14179809D02*
X12694048Y-14179809D01*
X12694048Y-14179809D02*
X12675000Y-14170286D01*
X12675000Y-14170286D02*
X12665476Y-14151238D01*
X12665476Y-14151238D02*
X12665476Y-14141714D01*
X12665476Y-14141714D02*
X12675000Y-14122667D01*
X12675000Y-14122667D02*
X12694048Y-14113143D01*
X12694048Y-14113143D02*
X12722619Y-14113143D01*
X12722619Y-14113143D02*
X12741667Y-14122667D01*
X12817857Y-14322667D02*
X12827381Y-14313143D01*
X12827381Y-14313143D02*
X12846429Y-14284571D01*
X12846429Y-14284571D02*
X12855953Y-14265524D01*
X12855953Y-14265524D02*
X12865476Y-14236952D01*
X12865476Y-14236952D02*
X12875000Y-14189333D01*
X12875000Y-14189333D02*
X12875000Y-14151238D01*
X12875000Y-14151238D02*
X12865476Y-14103619D01*
X12865476Y-14103619D02*
X12855953Y-14075048D01*
X12855953Y-14075048D02*
X12846429Y-14056000D01*
X12846429Y-14056000D02*
X12827381Y-14027428D01*
X12827381Y-14027428D02*
X12817857Y-14017905D01*
D15*
X7973033Y-14490033D02*
X7973033Y-14383966D01*
X7866966Y-14383966D01*
X7866966Y-14490033D01*
X7973033Y-14490033D01*
D11*
X8347381Y-14510476D02*
X8233095Y-14510476D01*
X8290238Y-14510476D02*
X8290238Y-14310476D01*
X8290238Y-14310476D02*
X8271190Y-14339048D01*
X8271190Y-14339048D02*
X8252143Y-14358095D01*
X8252143Y-14358095D02*
X8233095Y-14367619D01*
X8433095Y-14491428D02*
X8442619Y-14500952D01*
X8442619Y-14500952D02*
X8433095Y-14510476D01*
X8433095Y-14510476D02*
X8423571Y-14500952D01*
X8423571Y-14500952D02*
X8433095Y-14491428D01*
X8433095Y-14491428D02*
X8433095Y-14510476D01*
X8623571Y-14310476D02*
X8528333Y-14310476D01*
X8528333Y-14310476D02*
X8518810Y-14405714D01*
X8518810Y-14405714D02*
X8528333Y-14396190D01*
X8528333Y-14396190D02*
X8547381Y-14386667D01*
X8547381Y-14386667D02*
X8595000Y-14386667D01*
X8595000Y-14386667D02*
X8614048Y-14396190D01*
X8614048Y-14396190D02*
X8623571Y-14405714D01*
X8623571Y-14405714D02*
X8633095Y-14424762D01*
X8633095Y-14424762D02*
X8633095Y-14472381D01*
X8633095Y-14472381D02*
X8623571Y-14491428D01*
X8623571Y-14491428D02*
X8614048Y-14500952D01*
X8614048Y-14500952D02*
X8595000Y-14510476D01*
X8595000Y-14510476D02*
X8547381Y-14510476D01*
X8547381Y-14510476D02*
X8528333Y-14500952D01*
X8528333Y-14500952D02*
X8518810Y-14491428D01*
X8756905Y-14310476D02*
X8775952Y-14310476D01*
X8775952Y-14310476D02*
X8795000Y-14320000D01*
X8795000Y-14320000D02*
X8804524Y-14329524D01*
X8804524Y-14329524D02*
X8814048Y-14348571D01*
X8814048Y-14348571D02*
X8823571Y-14386667D01*
X8823571Y-14386667D02*
X8823571Y-14434286D01*
X8823571Y-14434286D02*
X8814048Y-14472381D01*
X8814048Y-14472381D02*
X8804524Y-14491428D01*
X8804524Y-14491428D02*
X8795000Y-14500952D01*
X8795000Y-14500952D02*
X8775952Y-14510476D01*
X8775952Y-14510476D02*
X8756905Y-14510476D01*
X8756905Y-14510476D02*
X8737857Y-14500952D01*
X8737857Y-14500952D02*
X8728333Y-14491428D01*
X8728333Y-14491428D02*
X8718810Y-14472381D01*
X8718810Y-14472381D02*
X8709286Y-14434286D01*
X8709286Y-14434286D02*
X8709286Y-14386667D01*
X8709286Y-14386667D02*
X8718810Y-14348571D01*
X8718810Y-14348571D02*
X8728333Y-14329524D01*
X8728333Y-14329524D02*
X8737857Y-14320000D01*
X8737857Y-14320000D02*
X8756905Y-14310476D01*
X8947381Y-14310476D02*
X8966429Y-14310476D01*
X8966429Y-14310476D02*
X8985476Y-14320000D01*
X8985476Y-14320000D02*
X8995000Y-14329524D01*
X8995000Y-14329524D02*
X9004524Y-14348571D01*
X9004524Y-14348571D02*
X9014048Y-14386667D01*
X9014048Y-14386667D02*
X9014048Y-14434286D01*
X9014048Y-14434286D02*
X9004524Y-14472381D01*
X9004524Y-14472381D02*
X8995000Y-14491428D01*
X8995000Y-14491428D02*
X8985476Y-14500952D01*
X8985476Y-14500952D02*
X8966429Y-14510476D01*
X8966429Y-14510476D02*
X8947381Y-14510476D01*
X8947381Y-14510476D02*
X8928333Y-14500952D01*
X8928333Y-14500952D02*
X8918810Y-14491428D01*
X8918810Y-14491428D02*
X8909286Y-14472381D01*
X8909286Y-14472381D02*
X8899762Y-14434286D01*
X8899762Y-14434286D02*
X8899762Y-14386667D01*
X8899762Y-14386667D02*
X8909286Y-14348571D01*
X8909286Y-14348571D02*
X8918810Y-14329524D01*
X8918810Y-14329524D02*
X8928333Y-14320000D01*
X8928333Y-14320000D02*
X8947381Y-14310476D01*
X9099762Y-14510476D02*
X9099762Y-14377143D01*
X9099762Y-14396190D02*
X9109286Y-14386667D01*
X9109286Y-14386667D02*
X9128333Y-14377143D01*
X9128333Y-14377143D02*
X9156905Y-14377143D01*
X9156905Y-14377143D02*
X9175952Y-14386667D01*
X9175952Y-14386667D02*
X9185476Y-14405714D01*
X9185476Y-14405714D02*
X9185476Y-14510476D01*
X9185476Y-14405714D02*
X9195000Y-14386667D01*
X9195000Y-14386667D02*
X9214048Y-14377143D01*
X9214048Y-14377143D02*
X9242619Y-14377143D01*
X9242619Y-14377143D02*
X9261667Y-14386667D01*
X9261667Y-14386667D02*
X9271191Y-14405714D01*
X9271191Y-14405714D02*
X9271191Y-14510476D01*
X9366429Y-14510476D02*
X9366429Y-14377143D01*
X9366429Y-14396190D02*
X9375952Y-14386667D01*
X9375952Y-14386667D02*
X9395000Y-14377143D01*
X9395000Y-14377143D02*
X9423572Y-14377143D01*
X9423572Y-14377143D02*
X9442619Y-14386667D01*
X9442619Y-14386667D02*
X9452143Y-14405714D01*
X9452143Y-14405714D02*
X9452143Y-14510476D01*
X9452143Y-14405714D02*
X9461667Y-14386667D01*
X9461667Y-14386667D02*
X9480714Y-14377143D01*
X9480714Y-14377143D02*
X9509286Y-14377143D01*
X9509286Y-14377143D02*
X9528333Y-14386667D01*
X9528333Y-14386667D02*
X9537857Y-14405714D01*
X9537857Y-14405714D02*
X9537857Y-14510476D01*
X9895952Y-14300952D02*
X9724524Y-14558095D01*
X10120714Y-14310476D02*
X10139762Y-14310476D01*
X10139762Y-14310476D02*
X10158810Y-14320000D01*
X10158810Y-14320000D02*
X10168333Y-14329524D01*
X10168333Y-14329524D02*
X10177857Y-14348571D01*
X10177857Y-14348571D02*
X10187381Y-14386667D01*
X10187381Y-14386667D02*
X10187381Y-14434286D01*
X10187381Y-14434286D02*
X10177857Y-14472381D01*
X10177857Y-14472381D02*
X10168333Y-14491428D01*
X10168333Y-14491428D02*
X10158810Y-14500952D01*
X10158810Y-14500952D02*
X10139762Y-14510476D01*
X10139762Y-14510476D02*
X10120714Y-14510476D01*
X10120714Y-14510476D02*
X10101667Y-14500952D01*
X10101667Y-14500952D02*
X10092143Y-14491428D01*
X10092143Y-14491428D02*
X10082619Y-14472381D01*
X10082619Y-14472381D02*
X10073095Y-14434286D01*
X10073095Y-14434286D02*
X10073095Y-14386667D01*
X10073095Y-14386667D02*
X10082619Y-14348571D01*
X10082619Y-14348571D02*
X10092143Y-14329524D01*
X10092143Y-14329524D02*
X10101667Y-14320000D01*
X10101667Y-14320000D02*
X10120714Y-14310476D01*
X10273095Y-14491428D02*
X10282619Y-14500952D01*
X10282619Y-14500952D02*
X10273095Y-14510476D01*
X10273095Y-14510476D02*
X10263572Y-14500952D01*
X10263572Y-14500952D02*
X10273095Y-14491428D01*
X10273095Y-14491428D02*
X10273095Y-14510476D01*
X10406429Y-14310476D02*
X10425476Y-14310476D01*
X10425476Y-14310476D02*
X10444524Y-14320000D01*
X10444524Y-14320000D02*
X10454048Y-14329524D01*
X10454048Y-14329524D02*
X10463572Y-14348571D01*
X10463572Y-14348571D02*
X10473095Y-14386667D01*
X10473095Y-14386667D02*
X10473095Y-14434286D01*
X10473095Y-14434286D02*
X10463572Y-14472381D01*
X10463572Y-14472381D02*
X10454048Y-14491428D01*
X10454048Y-14491428D02*
X10444524Y-14500952D01*
X10444524Y-14500952D02*
X10425476Y-14510476D01*
X10425476Y-14510476D02*
X10406429Y-14510476D01*
X10406429Y-14510476D02*
X10387381Y-14500952D01*
X10387381Y-14500952D02*
X10377857Y-14491428D01*
X10377857Y-14491428D02*
X10368333Y-14472381D01*
X10368333Y-14472381D02*
X10358810Y-14434286D01*
X10358810Y-14434286D02*
X10358810Y-14386667D01*
X10358810Y-14386667D02*
X10368333Y-14348571D01*
X10368333Y-14348571D02*
X10377857Y-14329524D01*
X10377857Y-14329524D02*
X10387381Y-14320000D01*
X10387381Y-14320000D02*
X10406429Y-14310476D01*
X10654048Y-14310476D02*
X10558810Y-14310476D01*
X10558810Y-14310476D02*
X10549286Y-14405714D01*
X10549286Y-14405714D02*
X10558810Y-14396190D01*
X10558810Y-14396190D02*
X10577857Y-14386667D01*
X10577857Y-14386667D02*
X10625476Y-14386667D01*
X10625476Y-14386667D02*
X10644524Y-14396190D01*
X10644524Y-14396190D02*
X10654048Y-14405714D01*
X10654048Y-14405714D02*
X10663572Y-14424762D01*
X10663572Y-14424762D02*
X10663572Y-14472381D01*
X10663572Y-14472381D02*
X10654048Y-14491428D01*
X10654048Y-14491428D02*
X10644524Y-14500952D01*
X10644524Y-14500952D02*
X10625476Y-14510476D01*
X10625476Y-14510476D02*
X10577857Y-14510476D01*
X10577857Y-14510476D02*
X10558810Y-14500952D01*
X10558810Y-14500952D02*
X10549286Y-14491428D01*
X10758810Y-14510476D02*
X10796905Y-14510476D01*
X10796905Y-14510476D02*
X10815953Y-14500952D01*
X10815953Y-14500952D02*
X10825476Y-14491428D01*
X10825476Y-14491428D02*
X10844524Y-14462857D01*
X10844524Y-14462857D02*
X10854048Y-14424762D01*
X10854048Y-14424762D02*
X10854048Y-14348571D01*
X10854048Y-14348571D02*
X10844524Y-14329524D01*
X10844524Y-14329524D02*
X10835000Y-14320000D01*
X10835000Y-14320000D02*
X10815953Y-14310476D01*
X10815953Y-14310476D02*
X10777857Y-14310476D01*
X10777857Y-14310476D02*
X10758810Y-14320000D01*
X10758810Y-14320000D02*
X10749286Y-14329524D01*
X10749286Y-14329524D02*
X10739762Y-14348571D01*
X10739762Y-14348571D02*
X10739762Y-14396190D01*
X10739762Y-14396190D02*
X10749286Y-14415238D01*
X10749286Y-14415238D02*
X10758810Y-14424762D01*
X10758810Y-14424762D02*
X10777857Y-14434286D01*
X10777857Y-14434286D02*
X10815953Y-14434286D01*
X10815953Y-14434286D02*
X10835000Y-14424762D01*
X10835000Y-14424762D02*
X10844524Y-14415238D01*
X10844524Y-14415238D02*
X10854048Y-14396190D01*
X11044524Y-14510476D02*
X10930238Y-14510476D01*
X10987381Y-14510476D02*
X10987381Y-14310476D01*
X10987381Y-14310476D02*
X10968333Y-14339048D01*
X10968333Y-14339048D02*
X10949286Y-14358095D01*
X10949286Y-14358095D02*
X10930238Y-14367619D01*
X11120714Y-14310476D02*
X11120714Y-14348571D01*
X11196905Y-14310476D02*
X11196905Y-14348571D01*
X11459762Y-14586667D02*
X11450238Y-14577143D01*
X11450238Y-14577143D02*
X11431191Y-14548571D01*
X11431191Y-14548571D02*
X11421667Y-14529524D01*
X11421667Y-14529524D02*
X11412143Y-14500952D01*
X11412143Y-14500952D02*
X11402619Y-14453333D01*
X11402619Y-14453333D02*
X11402619Y-14415238D01*
X11402619Y-14415238D02*
X11412143Y-14367619D01*
X11412143Y-14367619D02*
X11421667Y-14339048D01*
X11421667Y-14339048D02*
X11431191Y-14320000D01*
X11431191Y-14320000D02*
X11450238Y-14291428D01*
X11450238Y-14291428D02*
X11459762Y-14281905D01*
X11526429Y-14329524D02*
X11535952Y-14320000D01*
X11535952Y-14320000D02*
X11555000Y-14310476D01*
X11555000Y-14310476D02*
X11602619Y-14310476D01*
X11602619Y-14310476D02*
X11621667Y-14320000D01*
X11621667Y-14320000D02*
X11631191Y-14329524D01*
X11631191Y-14329524D02*
X11640714Y-14348571D01*
X11640714Y-14348571D02*
X11640714Y-14367619D01*
X11640714Y-14367619D02*
X11631191Y-14396190D01*
X11631191Y-14396190D02*
X11516905Y-14510476D01*
X11516905Y-14510476D02*
X11640714Y-14510476D01*
X11846429Y-14510476D02*
X11846429Y-14310476D01*
X11932143Y-14510476D02*
X11932143Y-14405714D01*
X11932143Y-14405714D02*
X11922619Y-14386667D01*
X11922619Y-14386667D02*
X11903572Y-14377143D01*
X11903572Y-14377143D02*
X11875000Y-14377143D01*
X11875000Y-14377143D02*
X11855952Y-14386667D01*
X11855952Y-14386667D02*
X11846429Y-14396190D01*
X12055952Y-14510476D02*
X12036905Y-14500952D01*
X12036905Y-14500952D02*
X12027381Y-14491428D01*
X12027381Y-14491428D02*
X12017857Y-14472381D01*
X12017857Y-14472381D02*
X12017857Y-14415238D01*
X12017857Y-14415238D02*
X12027381Y-14396190D01*
X12027381Y-14396190D02*
X12036905Y-14386667D01*
X12036905Y-14386667D02*
X12055952Y-14377143D01*
X12055952Y-14377143D02*
X12084524Y-14377143D01*
X12084524Y-14377143D02*
X12103572Y-14386667D01*
X12103572Y-14386667D02*
X12113095Y-14396190D01*
X12113095Y-14396190D02*
X12122619Y-14415238D01*
X12122619Y-14415238D02*
X12122619Y-14472381D01*
X12122619Y-14472381D02*
X12113095Y-14491428D01*
X12113095Y-14491428D02*
X12103572Y-14500952D01*
X12103572Y-14500952D02*
X12084524Y-14510476D01*
X12084524Y-14510476D02*
X12055952Y-14510476D01*
X12236905Y-14510476D02*
X12217857Y-14500952D01*
X12217857Y-14500952D02*
X12208333Y-14481905D01*
X12208333Y-14481905D02*
X12208333Y-14310476D01*
X12389286Y-14500952D02*
X12370238Y-14510476D01*
X12370238Y-14510476D02*
X12332143Y-14510476D01*
X12332143Y-14510476D02*
X12313095Y-14500952D01*
X12313095Y-14500952D02*
X12303572Y-14481905D01*
X12303572Y-14481905D02*
X12303572Y-14405714D01*
X12303572Y-14405714D02*
X12313095Y-14386667D01*
X12313095Y-14386667D02*
X12332143Y-14377143D01*
X12332143Y-14377143D02*
X12370238Y-14377143D01*
X12370238Y-14377143D02*
X12389286Y-14386667D01*
X12389286Y-14386667D02*
X12398810Y-14405714D01*
X12398810Y-14405714D02*
X12398810Y-14424762D01*
X12398810Y-14424762D02*
X12303572Y-14443809D01*
X12475000Y-14500952D02*
X12494048Y-14510476D01*
X12494048Y-14510476D02*
X12532143Y-14510476D01*
X12532143Y-14510476D02*
X12551191Y-14500952D01*
X12551191Y-14500952D02*
X12560714Y-14481905D01*
X12560714Y-14481905D02*
X12560714Y-14472381D01*
X12560714Y-14472381D02*
X12551191Y-14453333D01*
X12551191Y-14453333D02*
X12532143Y-14443809D01*
X12532143Y-14443809D02*
X12503572Y-14443809D01*
X12503572Y-14443809D02*
X12484524Y-14434286D01*
X12484524Y-14434286D02*
X12475000Y-14415238D01*
X12475000Y-14415238D02*
X12475000Y-14405714D01*
X12475000Y-14405714D02*
X12484524Y-14386667D01*
X12484524Y-14386667D02*
X12503572Y-14377143D01*
X12503572Y-14377143D02*
X12532143Y-14377143D01*
X12532143Y-14377143D02*
X12551191Y-14386667D01*
X12627381Y-14586667D02*
X12636905Y-14577143D01*
X12636905Y-14577143D02*
X12655953Y-14548571D01*
X12655953Y-14548571D02*
X12665476Y-14529524D01*
X12665476Y-14529524D02*
X12675000Y-14500952D01*
X12675000Y-14500952D02*
X12684524Y-14453333D01*
X12684524Y-14453333D02*
X12684524Y-14415238D01*
X12684524Y-14415238D02*
X12675000Y-14367619D01*
X12675000Y-14367619D02*
X12665476Y-14339048D01*
X12665476Y-14339048D02*
X12655953Y-14320000D01*
X12655953Y-14320000D02*
X12636905Y-14291428D01*
X12636905Y-14291428D02*
X12627381Y-14281905D01*
X7895000Y-14807000D02*
X7995000Y-14707000D01*
X7895000Y-14607000D01*
X7795000Y-14707000D01*
X7895000Y-14807000D01*
X8223571Y-14580476D02*
X8347381Y-14580476D01*
X8347381Y-14580476D02*
X8280714Y-14656667D01*
X8280714Y-14656667D02*
X8309286Y-14656667D01*
X8309286Y-14656667D02*
X8328333Y-14666190D01*
X8328333Y-14666190D02*
X8337857Y-14675714D01*
X8337857Y-14675714D02*
X8347381Y-14694762D01*
X8347381Y-14694762D02*
X8347381Y-14742381D01*
X8347381Y-14742381D02*
X8337857Y-14761428D01*
X8337857Y-14761428D02*
X8328333Y-14770952D01*
X8328333Y-14770952D02*
X8309286Y-14780476D01*
X8309286Y-14780476D02*
X8252143Y-14780476D01*
X8252143Y-14780476D02*
X8233095Y-14770952D01*
X8233095Y-14770952D02*
X8223571Y-14761428D01*
X8433095Y-14761428D02*
X8442619Y-14770952D01*
X8442619Y-14770952D02*
X8433095Y-14780476D01*
X8433095Y-14780476D02*
X8423571Y-14770952D01*
X8423571Y-14770952D02*
X8433095Y-14761428D01*
X8433095Y-14761428D02*
X8433095Y-14780476D01*
X8518810Y-14599524D02*
X8528333Y-14590000D01*
X8528333Y-14590000D02*
X8547381Y-14580476D01*
X8547381Y-14580476D02*
X8595000Y-14580476D01*
X8595000Y-14580476D02*
X8614048Y-14590000D01*
X8614048Y-14590000D02*
X8623571Y-14599524D01*
X8623571Y-14599524D02*
X8633095Y-14618571D01*
X8633095Y-14618571D02*
X8633095Y-14637619D01*
X8633095Y-14637619D02*
X8623571Y-14666190D01*
X8623571Y-14666190D02*
X8509286Y-14780476D01*
X8509286Y-14780476D02*
X8633095Y-14780476D01*
X8756905Y-14580476D02*
X8775952Y-14580476D01*
X8775952Y-14580476D02*
X8795000Y-14590000D01*
X8795000Y-14590000D02*
X8804524Y-14599524D01*
X8804524Y-14599524D02*
X8814048Y-14618571D01*
X8814048Y-14618571D02*
X8823571Y-14656667D01*
X8823571Y-14656667D02*
X8823571Y-14704286D01*
X8823571Y-14704286D02*
X8814048Y-14742381D01*
X8814048Y-14742381D02*
X8804524Y-14761428D01*
X8804524Y-14761428D02*
X8795000Y-14770952D01*
X8795000Y-14770952D02*
X8775952Y-14780476D01*
X8775952Y-14780476D02*
X8756905Y-14780476D01*
X8756905Y-14780476D02*
X8737857Y-14770952D01*
X8737857Y-14770952D02*
X8728333Y-14761428D01*
X8728333Y-14761428D02*
X8718810Y-14742381D01*
X8718810Y-14742381D02*
X8709286Y-14704286D01*
X8709286Y-14704286D02*
X8709286Y-14656667D01*
X8709286Y-14656667D02*
X8718810Y-14618571D01*
X8718810Y-14618571D02*
X8728333Y-14599524D01*
X8728333Y-14599524D02*
X8737857Y-14590000D01*
X8737857Y-14590000D02*
X8756905Y-14580476D01*
X8947381Y-14580476D02*
X8966429Y-14580476D01*
X8966429Y-14580476D02*
X8985476Y-14590000D01*
X8985476Y-14590000D02*
X8995000Y-14599524D01*
X8995000Y-14599524D02*
X9004524Y-14618571D01*
X9004524Y-14618571D02*
X9014048Y-14656667D01*
X9014048Y-14656667D02*
X9014048Y-14704286D01*
X9014048Y-14704286D02*
X9004524Y-14742381D01*
X9004524Y-14742381D02*
X8995000Y-14761428D01*
X8995000Y-14761428D02*
X8985476Y-14770952D01*
X8985476Y-14770952D02*
X8966429Y-14780476D01*
X8966429Y-14780476D02*
X8947381Y-14780476D01*
X8947381Y-14780476D02*
X8928333Y-14770952D01*
X8928333Y-14770952D02*
X8918810Y-14761428D01*
X8918810Y-14761428D02*
X8909286Y-14742381D01*
X8909286Y-14742381D02*
X8899762Y-14704286D01*
X8899762Y-14704286D02*
X8899762Y-14656667D01*
X8899762Y-14656667D02*
X8909286Y-14618571D01*
X8909286Y-14618571D02*
X8918810Y-14599524D01*
X8918810Y-14599524D02*
X8928333Y-14590000D01*
X8928333Y-14590000D02*
X8947381Y-14580476D01*
X9099762Y-14780476D02*
X9099762Y-14647143D01*
X9099762Y-14666190D02*
X9109286Y-14656667D01*
X9109286Y-14656667D02*
X9128333Y-14647143D01*
X9128333Y-14647143D02*
X9156905Y-14647143D01*
X9156905Y-14647143D02*
X9175952Y-14656667D01*
X9175952Y-14656667D02*
X9185476Y-14675714D01*
X9185476Y-14675714D02*
X9185476Y-14780476D01*
X9185476Y-14675714D02*
X9195000Y-14656667D01*
X9195000Y-14656667D02*
X9214048Y-14647143D01*
X9214048Y-14647143D02*
X9242619Y-14647143D01*
X9242619Y-14647143D02*
X9261667Y-14656667D01*
X9261667Y-14656667D02*
X9271191Y-14675714D01*
X9271191Y-14675714D02*
X9271191Y-14780476D01*
X9366429Y-14780476D02*
X9366429Y-14647143D01*
X9366429Y-14666190D02*
X9375952Y-14656667D01*
X9375952Y-14656667D02*
X9395000Y-14647143D01*
X9395000Y-14647143D02*
X9423572Y-14647143D01*
X9423572Y-14647143D02*
X9442619Y-14656667D01*
X9442619Y-14656667D02*
X9452143Y-14675714D01*
X9452143Y-14675714D02*
X9452143Y-14780476D01*
X9452143Y-14675714D02*
X9461667Y-14656667D01*
X9461667Y-14656667D02*
X9480714Y-14647143D01*
X9480714Y-14647143D02*
X9509286Y-14647143D01*
X9509286Y-14647143D02*
X9528333Y-14656667D01*
X9528333Y-14656667D02*
X9537857Y-14675714D01*
X9537857Y-14675714D02*
X9537857Y-14780476D01*
X9895952Y-14570952D02*
X9724524Y-14828095D01*
X10120714Y-14580476D02*
X10139762Y-14580476D01*
X10139762Y-14580476D02*
X10158810Y-14590000D01*
X10158810Y-14590000D02*
X10168333Y-14599524D01*
X10168333Y-14599524D02*
X10177857Y-14618571D01*
X10177857Y-14618571D02*
X10187381Y-14656667D01*
X10187381Y-14656667D02*
X10187381Y-14704286D01*
X10187381Y-14704286D02*
X10177857Y-14742381D01*
X10177857Y-14742381D02*
X10168333Y-14761428D01*
X10168333Y-14761428D02*
X10158810Y-14770952D01*
X10158810Y-14770952D02*
X10139762Y-14780476D01*
X10139762Y-14780476D02*
X10120714Y-14780476D01*
X10120714Y-14780476D02*
X10101667Y-14770952D01*
X10101667Y-14770952D02*
X10092143Y-14761428D01*
X10092143Y-14761428D02*
X10082619Y-14742381D01*
X10082619Y-14742381D02*
X10073095Y-14704286D01*
X10073095Y-14704286D02*
X10073095Y-14656667D01*
X10073095Y-14656667D02*
X10082619Y-14618571D01*
X10082619Y-14618571D02*
X10092143Y-14599524D01*
X10092143Y-14599524D02*
X10101667Y-14590000D01*
X10101667Y-14590000D02*
X10120714Y-14580476D01*
X10273095Y-14761428D02*
X10282619Y-14770952D01*
X10282619Y-14770952D02*
X10273095Y-14780476D01*
X10273095Y-14780476D02*
X10263572Y-14770952D01*
X10263572Y-14770952D02*
X10273095Y-14761428D01*
X10273095Y-14761428D02*
X10273095Y-14780476D01*
X10473095Y-14780476D02*
X10358810Y-14780476D01*
X10415952Y-14780476D02*
X10415952Y-14580476D01*
X10415952Y-14580476D02*
X10396905Y-14609048D01*
X10396905Y-14609048D02*
X10377857Y-14628095D01*
X10377857Y-14628095D02*
X10358810Y-14637619D01*
X10549286Y-14599524D02*
X10558810Y-14590000D01*
X10558810Y-14590000D02*
X10577857Y-14580476D01*
X10577857Y-14580476D02*
X10625476Y-14580476D01*
X10625476Y-14580476D02*
X10644524Y-14590000D01*
X10644524Y-14590000D02*
X10654048Y-14599524D01*
X10654048Y-14599524D02*
X10663572Y-14618571D01*
X10663572Y-14618571D02*
X10663572Y-14637619D01*
X10663572Y-14637619D02*
X10654048Y-14666190D01*
X10654048Y-14666190D02*
X10539762Y-14780476D01*
X10539762Y-14780476D02*
X10663572Y-14780476D01*
X10835000Y-14580476D02*
X10796905Y-14580476D01*
X10796905Y-14580476D02*
X10777857Y-14590000D01*
X10777857Y-14590000D02*
X10768333Y-14599524D01*
X10768333Y-14599524D02*
X10749286Y-14628095D01*
X10749286Y-14628095D02*
X10739762Y-14666190D01*
X10739762Y-14666190D02*
X10739762Y-14742381D01*
X10739762Y-14742381D02*
X10749286Y-14761428D01*
X10749286Y-14761428D02*
X10758810Y-14770952D01*
X10758810Y-14770952D02*
X10777857Y-14780476D01*
X10777857Y-14780476D02*
X10815953Y-14780476D01*
X10815953Y-14780476D02*
X10835000Y-14770952D01*
X10835000Y-14770952D02*
X10844524Y-14761428D01*
X10844524Y-14761428D02*
X10854048Y-14742381D01*
X10854048Y-14742381D02*
X10854048Y-14694762D01*
X10854048Y-14694762D02*
X10844524Y-14675714D01*
X10844524Y-14675714D02*
X10835000Y-14666190D01*
X10835000Y-14666190D02*
X10815953Y-14656667D01*
X10815953Y-14656667D02*
X10777857Y-14656667D01*
X10777857Y-14656667D02*
X10758810Y-14666190D01*
X10758810Y-14666190D02*
X10749286Y-14675714D01*
X10749286Y-14675714D02*
X10739762Y-14694762D01*
X10977857Y-14580476D02*
X10996905Y-14580476D01*
X10996905Y-14580476D02*
X11015953Y-14590000D01*
X11015953Y-14590000D02*
X11025476Y-14599524D01*
X11025476Y-14599524D02*
X11035000Y-14618571D01*
X11035000Y-14618571D02*
X11044524Y-14656667D01*
X11044524Y-14656667D02*
X11044524Y-14704286D01*
X11044524Y-14704286D02*
X11035000Y-14742381D01*
X11035000Y-14742381D02*
X11025476Y-14761428D01*
X11025476Y-14761428D02*
X11015953Y-14770952D01*
X11015953Y-14770952D02*
X10996905Y-14780476D01*
X10996905Y-14780476D02*
X10977857Y-14780476D01*
X10977857Y-14780476D02*
X10958810Y-14770952D01*
X10958810Y-14770952D02*
X10949286Y-14761428D01*
X10949286Y-14761428D02*
X10939762Y-14742381D01*
X10939762Y-14742381D02*
X10930238Y-14704286D01*
X10930238Y-14704286D02*
X10930238Y-14656667D01*
X10930238Y-14656667D02*
X10939762Y-14618571D01*
X10939762Y-14618571D02*
X10949286Y-14599524D01*
X10949286Y-14599524D02*
X10958810Y-14590000D01*
X10958810Y-14590000D02*
X10977857Y-14580476D01*
X11120714Y-14580476D02*
X11120714Y-14618571D01*
X11196905Y-14580476D02*
X11196905Y-14618571D01*
X11459762Y-14856667D02*
X11450238Y-14847143D01*
X11450238Y-14847143D02*
X11431191Y-14818571D01*
X11431191Y-14818571D02*
X11421667Y-14799524D01*
X11421667Y-14799524D02*
X11412143Y-14770952D01*
X11412143Y-14770952D02*
X11402619Y-14723333D01*
X11402619Y-14723333D02*
X11402619Y-14685238D01*
X11402619Y-14685238D02*
X11412143Y-14637619D01*
X11412143Y-14637619D02*
X11421667Y-14609048D01*
X11421667Y-14609048D02*
X11431191Y-14590000D01*
X11431191Y-14590000D02*
X11450238Y-14561428D01*
X11450238Y-14561428D02*
X11459762Y-14551905D01*
X11621667Y-14580476D02*
X11583571Y-14580476D01*
X11583571Y-14580476D02*
X11564524Y-14590000D01*
X11564524Y-14590000D02*
X11555000Y-14599524D01*
X11555000Y-14599524D02*
X11535952Y-14628095D01*
X11535952Y-14628095D02*
X11526429Y-14666190D01*
X11526429Y-14666190D02*
X11526429Y-14742381D01*
X11526429Y-14742381D02*
X11535952Y-14761428D01*
X11535952Y-14761428D02*
X11545476Y-14770952D01*
X11545476Y-14770952D02*
X11564524Y-14780476D01*
X11564524Y-14780476D02*
X11602619Y-14780476D01*
X11602619Y-14780476D02*
X11621667Y-14770952D01*
X11621667Y-14770952D02*
X11631191Y-14761428D01*
X11631191Y-14761428D02*
X11640714Y-14742381D01*
X11640714Y-14742381D02*
X11640714Y-14694762D01*
X11640714Y-14694762D02*
X11631191Y-14675714D01*
X11631191Y-14675714D02*
X11621667Y-14666190D01*
X11621667Y-14666190D02*
X11602619Y-14656667D01*
X11602619Y-14656667D02*
X11564524Y-14656667D01*
X11564524Y-14656667D02*
X11545476Y-14666190D01*
X11545476Y-14666190D02*
X11535952Y-14675714D01*
X11535952Y-14675714D02*
X11526429Y-14694762D01*
X11846429Y-14780476D02*
X11846429Y-14580476D01*
X11932143Y-14780476D02*
X11932143Y-14675714D01*
X11932143Y-14675714D02*
X11922619Y-14656667D01*
X11922619Y-14656667D02*
X11903572Y-14647143D01*
X11903572Y-14647143D02*
X11875000Y-14647143D01*
X11875000Y-14647143D02*
X11855952Y-14656667D01*
X11855952Y-14656667D02*
X11846429Y-14666190D01*
X12055952Y-14780476D02*
X12036905Y-14770952D01*
X12036905Y-14770952D02*
X12027381Y-14761428D01*
X12027381Y-14761428D02*
X12017857Y-14742381D01*
X12017857Y-14742381D02*
X12017857Y-14685238D01*
X12017857Y-14685238D02*
X12027381Y-14666190D01*
X12027381Y-14666190D02*
X12036905Y-14656667D01*
X12036905Y-14656667D02*
X12055952Y-14647143D01*
X12055952Y-14647143D02*
X12084524Y-14647143D01*
X12084524Y-14647143D02*
X12103572Y-14656667D01*
X12103572Y-14656667D02*
X12113095Y-14666190D01*
X12113095Y-14666190D02*
X12122619Y-14685238D01*
X12122619Y-14685238D02*
X12122619Y-14742381D01*
X12122619Y-14742381D02*
X12113095Y-14761428D01*
X12113095Y-14761428D02*
X12103572Y-14770952D01*
X12103572Y-14770952D02*
X12084524Y-14780476D01*
X12084524Y-14780476D02*
X12055952Y-14780476D01*
X12236905Y-14780476D02*
X12217857Y-14770952D01*
X12217857Y-14770952D02*
X12208333Y-14751905D01*
X12208333Y-14751905D02*
X12208333Y-14580476D01*
X12389286Y-14770952D02*
X12370238Y-14780476D01*
X12370238Y-14780476D02*
X12332143Y-14780476D01*
X12332143Y-14780476D02*
X12313095Y-14770952D01*
X12313095Y-14770952D02*
X12303572Y-14751905D01*
X12303572Y-14751905D02*
X12303572Y-14675714D01*
X12303572Y-14675714D02*
X12313095Y-14656667D01*
X12313095Y-14656667D02*
X12332143Y-14647143D01*
X12332143Y-14647143D02*
X12370238Y-14647143D01*
X12370238Y-14647143D02*
X12389286Y-14656667D01*
X12389286Y-14656667D02*
X12398810Y-14675714D01*
X12398810Y-14675714D02*
X12398810Y-14694762D01*
X12398810Y-14694762D02*
X12303572Y-14713809D01*
X12475000Y-14770952D02*
X12494048Y-14780476D01*
X12494048Y-14780476D02*
X12532143Y-14780476D01*
X12532143Y-14780476D02*
X12551191Y-14770952D01*
X12551191Y-14770952D02*
X12560714Y-14751905D01*
X12560714Y-14751905D02*
X12560714Y-14742381D01*
X12560714Y-14742381D02*
X12551191Y-14723333D01*
X12551191Y-14723333D02*
X12532143Y-14713809D01*
X12532143Y-14713809D02*
X12503572Y-14713809D01*
X12503572Y-14713809D02*
X12484524Y-14704286D01*
X12484524Y-14704286D02*
X12475000Y-14685238D01*
X12475000Y-14685238D02*
X12475000Y-14675714D01*
X12475000Y-14675714D02*
X12484524Y-14656667D01*
X12484524Y-14656667D02*
X12503572Y-14647143D01*
X12503572Y-14647143D02*
X12532143Y-14647143D01*
X12532143Y-14647143D02*
X12551191Y-14656667D01*
X12627381Y-14856667D02*
X12636905Y-14847143D01*
X12636905Y-14847143D02*
X12655953Y-14818571D01*
X12655953Y-14818571D02*
X12665476Y-14799524D01*
X12665476Y-14799524D02*
X12675000Y-14770952D01*
X12675000Y-14770952D02*
X12684524Y-14723333D01*
X12684524Y-14723333D02*
X12684524Y-14685238D01*
X12684524Y-14685238D02*
X12675000Y-14637619D01*
X12675000Y-14637619D02*
X12665476Y-14609048D01*
X12665476Y-14609048D02*
X12655953Y-14590000D01*
X12655953Y-14590000D02*
X12636905Y-14561428D01*
X12636905Y-14561428D02*
X12627381Y-14551905D01*
M02*
