%FSLAX45Y45*%
G04 Gerber Fmt 4.5, Leading zero omitted, Abs format (unit mm)*
G04 Created by KiCad (PCBNEW (6.0.0)) date 2023-02-12 16:32:38*
%MOMM*%
%LPD*%
G01*
G04 APERTURE LIST*
%TA.AperFunction,Profile*%
%ADD10C,0.100000*%
%TD*%
%ADD11C,0.200000*%
%ADD12C,0.040000*%
%ADD13C,0.119000*%
%ADD14C,0.130048*%
%ADD15C,0.150000*%
%ADD16C,0.320000*%
G04 APERTURE END LIST*
D10*
X11950000Y-13000000D02*
X11950000Y-6000000D01*
X18000000Y-13000000D02*
X12900000Y-13000000D01*
X8000000Y-13000000D02*
X8000000Y-3000000D01*
X12900000Y-6000000D02*
X12900000Y-13000000D01*
X18000000Y-3000000D02*
X18000000Y-13000000D01*
X11950000Y-13000000D02*
X8000000Y-13000000D01*
X8000000Y-3000000D02*
X18000000Y-3000000D01*
X12900000Y-6000000D02*
X11950000Y-6000000D01*
D11*
D12*
X8130000Y-3130000D02*
X8170000Y-3170000D01*
X8170000Y-3130000D02*
X8130000Y-3170000D01*
X8130000Y-3630000D02*
X8170000Y-3670000D01*
X8170000Y-3630000D02*
X8130000Y-3670000D01*
X8130000Y-4130000D02*
X8170000Y-4170000D01*
X8170000Y-4130000D02*
X8130000Y-4170000D01*
X8130000Y-4630000D02*
X8170000Y-4670000D01*
X8170000Y-4630000D02*
X8130000Y-4670000D01*
X8130000Y-5130000D02*
X8170000Y-5170000D01*
X8170000Y-5130000D02*
X8130000Y-5170000D01*
X8130000Y-5630000D02*
X8170000Y-5670000D01*
X8170000Y-5630000D02*
X8130000Y-5670000D01*
X8130000Y-6130000D02*
X8170000Y-6170000D01*
X8170000Y-6130000D02*
X8130000Y-6170000D01*
X8130000Y-6630000D02*
X8170000Y-6670000D01*
X8170000Y-6630000D02*
X8130000Y-6670000D01*
X8130000Y-7130000D02*
X8170000Y-7170000D01*
X8170000Y-7130000D02*
X8130000Y-7170000D01*
X8130000Y-8630000D02*
X8170000Y-8670000D01*
X8170000Y-8630000D02*
X8130000Y-8670000D01*
X8130000Y-9130000D02*
X8170000Y-9170000D01*
X8170000Y-9130000D02*
X8130000Y-9170000D01*
X8130000Y-9630000D02*
X8170000Y-9670000D01*
X8170000Y-9630000D02*
X8130000Y-9670000D01*
X8130000Y-10130000D02*
X8170000Y-10170000D01*
X8170000Y-10130000D02*
X8130000Y-10170000D01*
X8130000Y-11130000D02*
X8170000Y-11170000D01*
X8170000Y-11130000D02*
X8130000Y-11170000D01*
X8130000Y-11630000D02*
X8170000Y-11670000D01*
X8170000Y-11630000D02*
X8130000Y-11670000D01*
X8130000Y-12130000D02*
X8170000Y-12170000D01*
X8170000Y-12130000D02*
X8130000Y-12170000D01*
X8180000Y-12780000D02*
X8220000Y-12820000D01*
X8220000Y-12780000D02*
X8180000Y-12820000D01*
X8630000Y-3130000D02*
X8670000Y-3170000D01*
X8670000Y-3130000D02*
X8630000Y-3170000D01*
X8680000Y-5630000D02*
X8720000Y-5670000D01*
X8720000Y-5630000D02*
X8680000Y-5670000D01*
X8680000Y-6130000D02*
X8720000Y-6170000D01*
X8720000Y-6130000D02*
X8680000Y-6170000D01*
X8680000Y-6630000D02*
X8720000Y-6670000D01*
X8720000Y-6630000D02*
X8680000Y-6670000D01*
X8680000Y-7130000D02*
X8720000Y-7170000D01*
X8720000Y-7130000D02*
X8680000Y-7170000D01*
X8680000Y-9630000D02*
X8720000Y-9670000D01*
X8720000Y-9630000D02*
X8680000Y-9670000D01*
X8680000Y-10130000D02*
X8720000Y-10170000D01*
X8720000Y-10130000D02*
X8680000Y-10170000D01*
X8680000Y-12780000D02*
X8720000Y-12820000D01*
X8720000Y-12780000D02*
X8680000Y-12820000D01*
X8780000Y-4530000D02*
X8820000Y-4570000D01*
X8820000Y-4530000D02*
X8780000Y-4570000D01*
X8780000Y-4830000D02*
X8820000Y-4870000D01*
X8820000Y-4830000D02*
X8780000Y-4870000D01*
X8880000Y-4180000D02*
X8920000Y-4220000D01*
X8920000Y-4180000D02*
X8880000Y-4220000D01*
X9080000Y-4580000D02*
X9120000Y-4620000D01*
X9120000Y-4580000D02*
X9080000Y-4620000D01*
X9080000Y-4880000D02*
X9120000Y-4920000D01*
X9120000Y-4880000D02*
X9080000Y-4920000D01*
X9130000Y-3130000D02*
X9170000Y-3170000D01*
X9170000Y-3130000D02*
X9130000Y-3170000D01*
X9180000Y-9630000D02*
X9220000Y-9670000D01*
X9220000Y-9630000D02*
X9180000Y-9670000D01*
X9180000Y-10130000D02*
X9220000Y-10170000D01*
X9220000Y-10130000D02*
X9180000Y-10170000D01*
X9180000Y-10830000D02*
X9220000Y-10870000D01*
X9220000Y-10830000D02*
X9180000Y-10870000D01*
X9180000Y-12780000D02*
X9220000Y-12820000D01*
X9220000Y-12780000D02*
X9180000Y-12820000D01*
X9230000Y-4180000D02*
X9270000Y-4220000D01*
X9270000Y-4180000D02*
X9230000Y-4220000D01*
X9230000Y-4730000D02*
X9270000Y-4770000D01*
X9270000Y-4730000D02*
X9230000Y-4770000D01*
X9230000Y-5030000D02*
X9270000Y-5070000D01*
X9270000Y-5030000D02*
X9230000Y-5070000D01*
X9380000Y-4580000D02*
X9420000Y-4620000D01*
X9420000Y-4580000D02*
X9380000Y-4620000D01*
X9380000Y-4880000D02*
X9420000Y-4920000D01*
X9420000Y-4880000D02*
X9380000Y-4920000D01*
X9530000Y-4730000D02*
X9570000Y-4770000D01*
X9570000Y-4730000D02*
X9530000Y-4770000D01*
X9530000Y-5030000D02*
X9570000Y-5070000D01*
X9570000Y-5030000D02*
X9530000Y-5070000D01*
X9580000Y-4180000D02*
X9620000Y-4220000D01*
X9620000Y-4180000D02*
X9580000Y-4220000D01*
X9630000Y-3130000D02*
X9670000Y-3170000D01*
X9670000Y-3130000D02*
X9630000Y-3170000D01*
X9680000Y-9630000D02*
X9720000Y-9670000D01*
X9720000Y-9630000D02*
X9680000Y-9670000D01*
X9680000Y-10830000D02*
X9720000Y-10870000D01*
X9720000Y-10830000D02*
X9680000Y-10870000D01*
X9680000Y-12780000D02*
X9720000Y-12820000D01*
X9720000Y-12780000D02*
X9680000Y-12820000D01*
X9780000Y-4530000D02*
X9820000Y-4570000D01*
X9820000Y-4530000D02*
X9780000Y-4570000D01*
X9780000Y-4830000D02*
X9820000Y-4870000D01*
X9820000Y-4830000D02*
X9780000Y-4870000D01*
X9780000Y-5080000D02*
X9820000Y-5120000D01*
X9820000Y-5080000D02*
X9780000Y-5120000D01*
X10130000Y-3130000D02*
X10170000Y-3170000D01*
X10170000Y-3130000D02*
X10130000Y-3170000D01*
X10180000Y-10830000D02*
X10220000Y-10870000D01*
X10220000Y-10830000D02*
X10180000Y-10870000D01*
X10180000Y-12780000D02*
X10220000Y-12820000D01*
X10220000Y-12780000D02*
X10180000Y-12820000D01*
X10480000Y-5630000D02*
X10520000Y-5670000D01*
X10520000Y-5630000D02*
X10480000Y-5670000D01*
X10480000Y-6130000D02*
X10520000Y-6170000D01*
X10520000Y-6130000D02*
X10480000Y-6170000D01*
X10480000Y-6630000D02*
X10520000Y-6670000D01*
X10520000Y-6630000D02*
X10480000Y-6670000D01*
X10480000Y-7130000D02*
X10520000Y-7170000D01*
X10520000Y-7130000D02*
X10480000Y-7170000D01*
X10630000Y-3130000D02*
X10670000Y-3170000D01*
X10670000Y-3130000D02*
X10630000Y-3170000D01*
X10630000Y-8030000D02*
X10670000Y-8070000D01*
X10670000Y-8030000D02*
X10630000Y-8070000D01*
X10630000Y-8330000D02*
X10670000Y-8370000D01*
X10670000Y-8330000D02*
X10630000Y-8370000D01*
X10630000Y-8630000D02*
X10670000Y-8670000D01*
X10670000Y-8630000D02*
X10630000Y-8670000D01*
X10630000Y-8880000D02*
X10670000Y-8920000D01*
X10670000Y-8880000D02*
X10630000Y-8920000D01*
X10630000Y-9130000D02*
X10670000Y-9170000D01*
X10670000Y-9130000D02*
X10630000Y-9170000D01*
X10680000Y-10130000D02*
X10720000Y-10170000D01*
X10720000Y-10130000D02*
X10680000Y-10170000D01*
X10680000Y-10830000D02*
X10720000Y-10870000D01*
X10720000Y-10830000D02*
X10680000Y-10870000D01*
X10680000Y-12780000D02*
X10720000Y-12820000D01*
X10720000Y-12780000D02*
X10680000Y-12820000D01*
X11130000Y-3130000D02*
X11170000Y-3170000D01*
X11170000Y-3130000D02*
X11130000Y-3170000D01*
X11180000Y-9630000D02*
X11220000Y-9670000D01*
X11220000Y-9630000D02*
X11180000Y-9670000D01*
X11180000Y-10130000D02*
X11220000Y-10170000D01*
X11220000Y-10130000D02*
X11180000Y-10170000D01*
X11180000Y-10830000D02*
X11220000Y-10870000D01*
X11220000Y-10830000D02*
X11180000Y-10870000D01*
X11180000Y-12780000D02*
X11220000Y-12820000D01*
X11220000Y-12780000D02*
X11180000Y-12820000D01*
X11630000Y-3130000D02*
X11670000Y-3170000D01*
X11670000Y-3130000D02*
X11630000Y-3170000D01*
X11630000Y-4630000D02*
X11670000Y-4670000D01*
X11670000Y-4630000D02*
X11630000Y-4670000D01*
X11630000Y-5130000D02*
X11670000Y-5170000D01*
X11670000Y-5130000D02*
X11630000Y-5170000D01*
X11630000Y-5630000D02*
X11670000Y-5670000D01*
X11670000Y-5630000D02*
X11630000Y-5670000D01*
X11680000Y-9630000D02*
X11720000Y-9670000D01*
X11720000Y-9630000D02*
X11680000Y-9670000D01*
X11680000Y-10130000D02*
X11720000Y-10170000D01*
X11720000Y-10130000D02*
X11680000Y-10170000D01*
X11680000Y-10830000D02*
X11720000Y-10870000D01*
X11720000Y-10830000D02*
X11680000Y-10870000D01*
X11680000Y-12780000D02*
X11720000Y-12820000D01*
X11720000Y-12780000D02*
X11680000Y-12820000D01*
X12130000Y-3130000D02*
X12170000Y-3170000D01*
X12170000Y-3130000D02*
X12130000Y-3170000D01*
X12130000Y-4630000D02*
X12170000Y-4670000D01*
X12170000Y-4630000D02*
X12130000Y-4670000D01*
X12130000Y-5630000D02*
X12170000Y-5670000D01*
X12170000Y-5630000D02*
X12130000Y-5670000D01*
X12630000Y-3130000D02*
X12670000Y-3170000D01*
X12670000Y-3130000D02*
X12630000Y-3170000D01*
X12630000Y-4630000D02*
X12670000Y-4670000D01*
X12670000Y-4630000D02*
X12630000Y-4670000D01*
X12630000Y-5630000D02*
X12670000Y-5670000D01*
X12670000Y-5630000D02*
X12630000Y-5670000D01*
X13130000Y-3130000D02*
X13170000Y-3170000D01*
X13170000Y-3130000D02*
X13130000Y-3170000D01*
X13130000Y-4630000D02*
X13170000Y-4670000D01*
X13170000Y-4630000D02*
X13130000Y-4670000D01*
X13130000Y-5630000D02*
X13170000Y-5670000D01*
X13170000Y-5630000D02*
X13130000Y-5670000D01*
X13180000Y-9630000D02*
X13220000Y-9670000D01*
X13220000Y-9630000D02*
X13180000Y-9670000D01*
X13180000Y-10130000D02*
X13220000Y-10170000D01*
X13220000Y-10130000D02*
X13180000Y-10170000D01*
X13180000Y-10830000D02*
X13220000Y-10870000D01*
X13220000Y-10830000D02*
X13180000Y-10870000D01*
X13180000Y-12780000D02*
X13220000Y-12820000D01*
X13220000Y-12780000D02*
X13180000Y-12820000D01*
X13630000Y-3130000D02*
X13670000Y-3170000D01*
X13670000Y-3130000D02*
X13630000Y-3170000D01*
X13630000Y-4630000D02*
X13670000Y-4670000D01*
X13670000Y-4630000D02*
X13630000Y-4670000D01*
X13630000Y-5630000D02*
X13670000Y-5670000D01*
X13670000Y-5630000D02*
X13630000Y-5670000D01*
X13680000Y-9630000D02*
X13720000Y-9670000D01*
X13720000Y-9630000D02*
X13680000Y-9670000D01*
X13680000Y-10830000D02*
X13720000Y-10870000D01*
X13720000Y-10830000D02*
X13680000Y-10870000D01*
X13680000Y-12780000D02*
X13720000Y-12820000D01*
X13720000Y-12780000D02*
X13680000Y-12820000D01*
X13930000Y-7230000D02*
X13970000Y-7270000D01*
X13970000Y-7230000D02*
X13930000Y-7270000D01*
X13930000Y-8630000D02*
X13970000Y-8670000D01*
X13970000Y-8630000D02*
X13930000Y-8670000D01*
X14130000Y-3130000D02*
X14170000Y-3170000D01*
X14170000Y-3130000D02*
X14130000Y-3170000D01*
X14130000Y-4630000D02*
X14170000Y-4670000D01*
X14170000Y-4630000D02*
X14130000Y-4670000D01*
X14130000Y-5130000D02*
X14170000Y-5170000D01*
X14170000Y-5130000D02*
X14130000Y-5170000D01*
X14130000Y-5630000D02*
X14170000Y-5670000D01*
X14170000Y-5630000D02*
X14130000Y-5670000D01*
X14130000Y-8630000D02*
X14170000Y-8670000D01*
X14170000Y-8630000D02*
X14130000Y-8670000D01*
X14180000Y-7230000D02*
X14220000Y-7270000D01*
X14220000Y-7230000D02*
X14180000Y-7270000D01*
X14180000Y-9630000D02*
X14220000Y-9670000D01*
X14220000Y-9630000D02*
X14180000Y-9670000D01*
X14180000Y-10830000D02*
X14220000Y-10870000D01*
X14220000Y-10830000D02*
X14180000Y-10870000D01*
X14180000Y-12780000D02*
X14220000Y-12820000D01*
X14220000Y-12780000D02*
X14180000Y-12820000D01*
X14330000Y-5880000D02*
X14370000Y-5920000D01*
X14370000Y-5880000D02*
X14330000Y-5920000D01*
X14330000Y-6080000D02*
X14370000Y-6120000D01*
X14370000Y-6080000D02*
X14330000Y-6120000D01*
X14330000Y-6280000D02*
X14370000Y-6320000D01*
X14370000Y-6280000D02*
X14330000Y-6320000D01*
X14330000Y-6480000D02*
X14370000Y-6520000D01*
X14370000Y-6480000D02*
X14330000Y-6520000D01*
X14330000Y-6680000D02*
X14370000Y-6720000D01*
X14370000Y-6680000D02*
X14330000Y-6720000D01*
X14330000Y-6880000D02*
X14370000Y-6920000D01*
X14370000Y-6880000D02*
X14330000Y-6920000D01*
X14330000Y-7130000D02*
X14370000Y-7170000D01*
X14370000Y-7130000D02*
X14330000Y-7170000D01*
X14330000Y-8630000D02*
X14370000Y-8670000D01*
X14370000Y-8630000D02*
X14330000Y-8670000D01*
X14530000Y-8630000D02*
X14570000Y-8670000D01*
X14570000Y-8630000D02*
X14530000Y-8670000D01*
X14680000Y-3130000D02*
X14720000Y-3170000D01*
X14720000Y-3130000D02*
X14680000Y-3170000D01*
X14680000Y-9130000D02*
X14720000Y-9170000D01*
X14720000Y-9130000D02*
X14680000Y-9170000D01*
X14680000Y-9630000D02*
X14720000Y-9670000D01*
X14720000Y-9630000D02*
X14680000Y-9670000D01*
X14680000Y-10830000D02*
X14720000Y-10870000D01*
X14720000Y-10830000D02*
X14680000Y-10870000D01*
X14680000Y-12780000D02*
X14720000Y-12820000D01*
X14720000Y-12780000D02*
X14680000Y-12820000D01*
X14730000Y-8630000D02*
X14770000Y-8670000D01*
X14770000Y-8630000D02*
X14730000Y-8670000D01*
X14930000Y-8530000D02*
X14970000Y-8570000D01*
X14970000Y-8530000D02*
X14930000Y-8570000D01*
X15080000Y-8380000D02*
X15120000Y-8420000D01*
X15120000Y-8380000D02*
X15080000Y-8420000D01*
X15180000Y-9130000D02*
X15220000Y-9170000D01*
X15220000Y-9130000D02*
X15180000Y-9170000D01*
X15180000Y-10830000D02*
X15220000Y-10870000D01*
X15220000Y-10830000D02*
X15180000Y-10870000D01*
X15180000Y-12780000D02*
X15220000Y-12820000D01*
X15220000Y-12780000D02*
X15180000Y-12820000D01*
X15230000Y-3130000D02*
X15270000Y-3170000D01*
X15270000Y-3130000D02*
X15230000Y-3170000D01*
X15230000Y-8230000D02*
X15270000Y-8270000D01*
X15270000Y-8230000D02*
X15230000Y-8270000D01*
X15330000Y-8080000D02*
X15370000Y-8120000D01*
X15370000Y-8080000D02*
X15330000Y-8120000D01*
X15480000Y-7980000D02*
X15520000Y-8020000D01*
X15520000Y-7980000D02*
X15480000Y-8020000D01*
X15630000Y-7830000D02*
X15670000Y-7870000D01*
X15670000Y-7830000D02*
X15630000Y-7870000D01*
X15680000Y-3130000D02*
X15720000Y-3170000D01*
X15720000Y-3130000D02*
X15680000Y-3170000D01*
X15680000Y-9130000D02*
X15720000Y-9170000D01*
X15720000Y-9130000D02*
X15680000Y-9170000D01*
X15680000Y-10830000D02*
X15720000Y-10870000D01*
X15720000Y-10830000D02*
X15680000Y-10870000D01*
X15680000Y-12780000D02*
X15720000Y-12820000D01*
X15720000Y-12780000D02*
X15680000Y-12820000D01*
X15730000Y-7680000D02*
X15770000Y-7720000D01*
X15770000Y-7680000D02*
X15730000Y-7720000D01*
X15780000Y-5880000D02*
X15820000Y-5920000D01*
X15820000Y-5880000D02*
X15780000Y-5920000D01*
X15780000Y-6080000D02*
X15820000Y-6120000D01*
X15820000Y-6080000D02*
X15780000Y-6120000D01*
X15780000Y-6280000D02*
X15820000Y-6320000D01*
X15820000Y-6280000D02*
X15780000Y-6320000D01*
X15780000Y-6480000D02*
X15820000Y-6520000D01*
X15820000Y-6480000D02*
X15780000Y-6520000D01*
X15780000Y-6680000D02*
X15820000Y-6720000D01*
X15820000Y-6680000D02*
X15780000Y-6720000D01*
X15780000Y-6880000D02*
X15820000Y-6920000D01*
X15820000Y-6880000D02*
X15780000Y-6920000D01*
X15780000Y-7080000D02*
X15820000Y-7120000D01*
X15820000Y-7080000D02*
X15780000Y-7120000D01*
X15780000Y-7280000D02*
X15820000Y-7320000D01*
X15820000Y-7280000D02*
X15780000Y-7320000D01*
X15780000Y-7480000D02*
X15820000Y-7520000D01*
X15820000Y-7480000D02*
X15780000Y-7520000D01*
X16130000Y-3130000D02*
X16170000Y-3170000D01*
X16170000Y-3130000D02*
X16130000Y-3170000D01*
X16180000Y-10830000D02*
X16220000Y-10870000D01*
X16220000Y-10830000D02*
X16180000Y-10870000D01*
X16180000Y-12780000D02*
X16220000Y-12820000D01*
X16220000Y-12780000D02*
X16180000Y-12820000D01*
X16230000Y-4130000D02*
X16270000Y-4170000D01*
X16270000Y-4130000D02*
X16230000Y-4170000D01*
X16230000Y-4630000D02*
X16270000Y-4670000D01*
X16270000Y-4630000D02*
X16230000Y-4670000D01*
X16230000Y-5130000D02*
X16270000Y-5170000D01*
X16270000Y-5130000D02*
X16230000Y-5170000D01*
X16230000Y-5630000D02*
X16270000Y-5670000D01*
X16270000Y-5630000D02*
X16230000Y-5670000D01*
X16280000Y-6130000D02*
X16320000Y-6170000D01*
X16320000Y-6130000D02*
X16280000Y-6170000D01*
X16280000Y-6630000D02*
X16320000Y-6670000D01*
X16320000Y-6630000D02*
X16280000Y-6670000D01*
X16280000Y-9130000D02*
X16320000Y-9170000D01*
X16320000Y-9130000D02*
X16280000Y-9170000D01*
X16630000Y-3130000D02*
X16670000Y-3170000D01*
X16670000Y-3130000D02*
X16630000Y-3170000D01*
X16680000Y-10830000D02*
X16720000Y-10870000D01*
X16720000Y-10830000D02*
X16680000Y-10870000D01*
X16680000Y-12780000D02*
X16720000Y-12820000D01*
X16720000Y-12780000D02*
X16680000Y-12820000D01*
X16730000Y-4130000D02*
X16770000Y-4170000D01*
X16770000Y-4130000D02*
X16730000Y-4170000D01*
X16780000Y-6630000D02*
X16820000Y-6670000D01*
X16820000Y-6630000D02*
X16780000Y-6670000D01*
X16780000Y-9130000D02*
X16820000Y-9170000D01*
X16820000Y-9130000D02*
X16780000Y-9170000D01*
X17130000Y-3130000D02*
X17170000Y-3170000D01*
X17170000Y-3130000D02*
X17130000Y-3170000D01*
X17180000Y-12780000D02*
X17220000Y-12820000D01*
X17220000Y-12780000D02*
X17180000Y-12820000D01*
X17230000Y-4130000D02*
X17270000Y-4170000D01*
X17270000Y-4130000D02*
X17230000Y-4170000D01*
X17280000Y-6630000D02*
X17320000Y-6670000D01*
X17320000Y-6630000D02*
X17280000Y-6670000D01*
X17280000Y-9130000D02*
X17320000Y-9170000D01*
X17320000Y-9130000D02*
X17280000Y-9170000D01*
X17680000Y-12780000D02*
X17720000Y-12820000D01*
X17720000Y-12780000D02*
X17680000Y-12820000D01*
X17730000Y-4130000D02*
X17770000Y-4170000D01*
X17770000Y-4130000D02*
X17730000Y-4170000D01*
X17730000Y-4630000D02*
X17770000Y-4670000D01*
X17770000Y-4630000D02*
X17730000Y-4670000D01*
X17730000Y-5130000D02*
X17770000Y-5170000D01*
X17770000Y-5130000D02*
X17730000Y-5170000D01*
X17730000Y-5630000D02*
X17770000Y-5670000D01*
X17770000Y-5630000D02*
X17730000Y-5670000D01*
X17730000Y-6130000D02*
X17770000Y-6170000D01*
X17770000Y-6130000D02*
X17730000Y-6170000D01*
X17730000Y-6630000D02*
X17770000Y-6670000D01*
X17770000Y-6630000D02*
X17730000Y-6670000D01*
X17730000Y-8130000D02*
X17770000Y-8170000D01*
X17770000Y-8130000D02*
X17730000Y-8170000D01*
X17730000Y-8630000D02*
X17770000Y-8670000D01*
X17770000Y-8630000D02*
X17730000Y-8670000D01*
X17730000Y-9130000D02*
X17770000Y-9170000D01*
X17770000Y-9130000D02*
X17730000Y-9170000D01*
X17730000Y-9630000D02*
X17770000Y-9670000D01*
X17770000Y-9630000D02*
X17730000Y-9670000D01*
X17730000Y-10130000D02*
X17770000Y-10170000D01*
X17770000Y-10130000D02*
X17730000Y-10170000D01*
X17730000Y-10630000D02*
X17770000Y-10670000D01*
X17770000Y-10630000D02*
X17730000Y-10670000D01*
X17730000Y-11130000D02*
X17770000Y-11170000D01*
X17770000Y-11130000D02*
X17730000Y-11170000D01*
X17730000Y-11630000D02*
X17770000Y-11670000D01*
X17770000Y-11630000D02*
X17730000Y-11670000D01*
X17730000Y-12130000D02*
X17770000Y-12170000D01*
X17770000Y-12130000D02*
X17730000Y-12170000D01*
D13*
X10132500Y-4102000D02*
G75*
G03*
X10132500Y-4102000I-59500J0D01*
G01*
X10386500Y-4102000D02*
G75*
G03*
X10386500Y-4102000I-59500J0D01*
G01*
X13632500Y-4102000D02*
G75*
G03*
X13632500Y-4102000I-59500J0D01*
G01*
X13886500Y-4102000D02*
G75*
G03*
X13886500Y-4102000I-59500J0D01*
G01*
D14*
X8246000Y-7480976D02*
X8246000Y-7611024D01*
X8180976Y-7546000D02*
X8311024Y-7546000D01*
X8246000Y-7988976D02*
X8246000Y-8119024D01*
X8180976Y-8054000D02*
X8311024Y-8054000D01*
X8500000Y-7734976D02*
X8500000Y-7865024D01*
X8434976Y-7800000D02*
X8565024Y-7800000D01*
X8754000Y-7480976D02*
X8754000Y-7611024D01*
X8688976Y-7546000D02*
X8819024Y-7546000D01*
X8754000Y-7988976D02*
X8754000Y-8119024D01*
X8688976Y-8054000D02*
X8819024Y-8054000D01*
X17246000Y-6960976D02*
X17246000Y-7091024D01*
X17180976Y-7026000D02*
X17311024Y-7026000D01*
X17246000Y-7468976D02*
X17246000Y-7599024D01*
X17180976Y-7534000D02*
X17311024Y-7534000D01*
X17500000Y-7214976D02*
X17500000Y-7345024D01*
X17434976Y-7280000D02*
X17565024Y-7280000D01*
X17754000Y-6960976D02*
X17754000Y-7091024D01*
X17688976Y-7026000D02*
X17819024Y-7026000D01*
X17754000Y-7468976D02*
X17754000Y-7599024D01*
X17688976Y-7534000D02*
X17819024Y-7534000D01*
D15*
X13476283Y-7778033D02*
X13476283Y-7671966D01*
X13370216Y-7671966D01*
X13370216Y-7778033D01*
X13476283Y-7778033D01*
X13476283Y-8178033D02*
X13476283Y-8071966D01*
X13370216Y-8071966D01*
X13370216Y-8178033D01*
X13476283Y-8178033D01*
D16*
X8500000Y-3660000D02*
X8660000Y-3500000D01*
X8500000Y-3340000D01*
X8340000Y-3500000D01*
X8500000Y-3660000D01*
X8500000Y-10760000D02*
X8660000Y-10600000D01*
X8500000Y-10440000D01*
X8340000Y-10600000D01*
X8500000Y-10760000D01*
X15100000Y-5060000D02*
X15260000Y-4900000D01*
X15100000Y-4740000D01*
X14940000Y-4900000D01*
X15100000Y-5060000D01*
X16900000Y-5060000D02*
X17060000Y-4900000D01*
X16900000Y-4740000D01*
X16740000Y-4900000D01*
X16900000Y-5060000D01*
X17500000Y-3660000D02*
X17660000Y-3500000D01*
X17500000Y-3340000D01*
X17340000Y-3500000D01*
X17500000Y-3660000D01*
X17500000Y-10760000D02*
X17660000Y-10600000D01*
X17500000Y-10440000D01*
X17340000Y-10600000D01*
X17500000Y-10760000D01*
D11*
X8252619Y-13315476D02*
X8252619Y-13115476D01*
X8300238Y-13115476D01*
X8328809Y-13125000D01*
X8347857Y-13144048D01*
X8357381Y-13163095D01*
X8366905Y-13201190D01*
X8366905Y-13229762D01*
X8357381Y-13267857D01*
X8347857Y-13286905D01*
X8328809Y-13305952D01*
X8300238Y-13315476D01*
X8252619Y-13315476D01*
X8452619Y-13315476D02*
X8452619Y-13182143D01*
X8452619Y-13220238D02*
X8462143Y-13201190D01*
X8471667Y-13191667D01*
X8490714Y-13182143D01*
X8509762Y-13182143D01*
X8576429Y-13315476D02*
X8576429Y-13182143D01*
X8576429Y-13115476D02*
X8566905Y-13125000D01*
X8576429Y-13134524D01*
X8585952Y-13125000D01*
X8576429Y-13115476D01*
X8576429Y-13134524D01*
X8700238Y-13315476D02*
X8681190Y-13305952D01*
X8671667Y-13286905D01*
X8671667Y-13115476D01*
X8805000Y-13315476D02*
X8785952Y-13305952D01*
X8776429Y-13286905D01*
X8776429Y-13115476D01*
X9033571Y-13315476D02*
X9033571Y-13115476D01*
X9100238Y-13258333D01*
X9166905Y-13115476D01*
X9166905Y-13315476D01*
X9347857Y-13315476D02*
X9347857Y-13210714D01*
X9338333Y-13191667D01*
X9319286Y-13182143D01*
X9281190Y-13182143D01*
X9262143Y-13191667D01*
X9347857Y-13305952D02*
X9328810Y-13315476D01*
X9281190Y-13315476D01*
X9262143Y-13305952D01*
X9252619Y-13286905D01*
X9252619Y-13267857D01*
X9262143Y-13248809D01*
X9281190Y-13239286D01*
X9328810Y-13239286D01*
X9347857Y-13229762D01*
X9443095Y-13182143D02*
X9443095Y-13382143D01*
X9443095Y-13191667D02*
X9462143Y-13182143D01*
X9500238Y-13182143D01*
X9519286Y-13191667D01*
X9528810Y-13201190D01*
X9538333Y-13220238D01*
X9538333Y-13277381D01*
X9528810Y-13296428D01*
X9519286Y-13305952D01*
X9500238Y-13315476D01*
X9462143Y-13315476D01*
X9443095Y-13305952D01*
X9624048Y-13296428D02*
X9633571Y-13305952D01*
X9624048Y-13315476D01*
X9614524Y-13305952D01*
X9624048Y-13296428D01*
X9624048Y-13315476D01*
X9624048Y-13191667D02*
X9633571Y-13201190D01*
X9624048Y-13210714D01*
X9614524Y-13201190D01*
X9624048Y-13191667D01*
X9624048Y-13210714D01*
D12*
X7955000Y-13625000D02*
X7995000Y-13665000D01*
X7995000Y-13625000D02*
X7955000Y-13665000D01*
D11*
X8290714Y-13535476D02*
X8309762Y-13535476D01*
X8328809Y-13545000D01*
X8338333Y-13554524D01*
X8347857Y-13573571D01*
X8357381Y-13611667D01*
X8357381Y-13659286D01*
X8347857Y-13697381D01*
X8338333Y-13716428D01*
X8328809Y-13725952D01*
X8309762Y-13735476D01*
X8290714Y-13735476D01*
X8271667Y-13725952D01*
X8262143Y-13716428D01*
X8252619Y-13697381D01*
X8243095Y-13659286D01*
X8243095Y-13611667D01*
X8252619Y-13573571D01*
X8262143Y-13554524D01*
X8271667Y-13545000D01*
X8290714Y-13535476D01*
X8443095Y-13716428D02*
X8452619Y-13725952D01*
X8443095Y-13735476D01*
X8433571Y-13725952D01*
X8443095Y-13716428D01*
X8443095Y-13735476D01*
X8624048Y-13602143D02*
X8624048Y-13735476D01*
X8576429Y-13525952D02*
X8528810Y-13668809D01*
X8652619Y-13668809D01*
X8766905Y-13535476D02*
X8785952Y-13535476D01*
X8805000Y-13545000D01*
X8814524Y-13554524D01*
X8824048Y-13573571D01*
X8833571Y-13611667D01*
X8833571Y-13659286D01*
X8824048Y-13697381D01*
X8814524Y-13716428D01*
X8805000Y-13725952D01*
X8785952Y-13735476D01*
X8766905Y-13735476D01*
X8747857Y-13725952D01*
X8738333Y-13716428D01*
X8728810Y-13697381D01*
X8719286Y-13659286D01*
X8719286Y-13611667D01*
X8728810Y-13573571D01*
X8738333Y-13554524D01*
X8747857Y-13545000D01*
X8766905Y-13535476D01*
X8957381Y-13535476D02*
X8976429Y-13535476D01*
X8995476Y-13545000D01*
X9005000Y-13554524D01*
X9014524Y-13573571D01*
X9024048Y-13611667D01*
X9024048Y-13659286D01*
X9014524Y-13697381D01*
X9005000Y-13716428D01*
X8995476Y-13725952D01*
X8976429Y-13735476D01*
X8957381Y-13735476D01*
X8938333Y-13725952D01*
X8928810Y-13716428D01*
X8919286Y-13697381D01*
X8909762Y-13659286D01*
X8909762Y-13611667D01*
X8919286Y-13573571D01*
X8928810Y-13554524D01*
X8938333Y-13545000D01*
X8957381Y-13535476D01*
X9109762Y-13735476D02*
X9109762Y-13602143D01*
X9109762Y-13621190D02*
X9119286Y-13611667D01*
X9138333Y-13602143D01*
X9166905Y-13602143D01*
X9185952Y-13611667D01*
X9195476Y-13630714D01*
X9195476Y-13735476D01*
X9195476Y-13630714D02*
X9205000Y-13611667D01*
X9224048Y-13602143D01*
X9252619Y-13602143D01*
X9271667Y-13611667D01*
X9281190Y-13630714D01*
X9281190Y-13735476D01*
X9376429Y-13735476D02*
X9376429Y-13602143D01*
X9376429Y-13621190D02*
X9385952Y-13611667D01*
X9405000Y-13602143D01*
X9433571Y-13602143D01*
X9452619Y-13611667D01*
X9462143Y-13630714D01*
X9462143Y-13735476D01*
X9462143Y-13630714D02*
X9471667Y-13611667D01*
X9490714Y-13602143D01*
X9519286Y-13602143D01*
X9538333Y-13611667D01*
X9547857Y-13630714D01*
X9547857Y-13735476D01*
X9938333Y-13525952D02*
X9766905Y-13783095D01*
X10195476Y-13535476D02*
X10214524Y-13535476D01*
X10233571Y-13545000D01*
X10243095Y-13554524D01*
X10252619Y-13573571D01*
X10262143Y-13611667D01*
X10262143Y-13659286D01*
X10252619Y-13697381D01*
X10243095Y-13716428D01*
X10233571Y-13725952D01*
X10214524Y-13735476D01*
X10195476Y-13735476D01*
X10176429Y-13725952D01*
X10166905Y-13716428D01*
X10157381Y-13697381D01*
X10147857Y-13659286D01*
X10147857Y-13611667D01*
X10157381Y-13573571D01*
X10166905Y-13554524D01*
X10176429Y-13545000D01*
X10195476Y-13535476D01*
X10347857Y-13716428D02*
X10357381Y-13725952D01*
X10347857Y-13735476D01*
X10338333Y-13725952D01*
X10347857Y-13716428D01*
X10347857Y-13735476D01*
X10481190Y-13535476D02*
X10500238Y-13535476D01*
X10519286Y-13545000D01*
X10528810Y-13554524D01*
X10538333Y-13573571D01*
X10547857Y-13611667D01*
X10547857Y-13659286D01*
X10538333Y-13697381D01*
X10528810Y-13716428D01*
X10519286Y-13725952D01*
X10500238Y-13735476D01*
X10481190Y-13735476D01*
X10462143Y-13725952D01*
X10452619Y-13716428D01*
X10443095Y-13697381D01*
X10433571Y-13659286D01*
X10433571Y-13611667D01*
X10443095Y-13573571D01*
X10452619Y-13554524D01*
X10462143Y-13545000D01*
X10481190Y-13535476D01*
X10738333Y-13735476D02*
X10624048Y-13735476D01*
X10681190Y-13735476D02*
X10681190Y-13535476D01*
X10662143Y-13564048D01*
X10643095Y-13583095D01*
X10624048Y-13592619D01*
X10919286Y-13535476D02*
X10824048Y-13535476D01*
X10814524Y-13630714D01*
X10824048Y-13621190D01*
X10843095Y-13611667D01*
X10890714Y-13611667D01*
X10909762Y-13621190D01*
X10919286Y-13630714D01*
X10928810Y-13649762D01*
X10928810Y-13697381D01*
X10919286Y-13716428D01*
X10909762Y-13725952D01*
X10890714Y-13735476D01*
X10843095Y-13735476D01*
X10824048Y-13725952D01*
X10814524Y-13716428D01*
X10995476Y-13535476D02*
X11128810Y-13535476D01*
X11043095Y-13735476D01*
X11195476Y-13535476D02*
X11195476Y-13573571D01*
X11271667Y-13535476D02*
X11271667Y-13573571D01*
X11566905Y-13811667D02*
X11557381Y-13802143D01*
X11538333Y-13773571D01*
X11528809Y-13754524D01*
X11519286Y-13725952D01*
X11509762Y-13678333D01*
X11509762Y-13640238D01*
X11519286Y-13592619D01*
X11528809Y-13564048D01*
X11538333Y-13545000D01*
X11557381Y-13516428D01*
X11566905Y-13506905D01*
X11747857Y-13735476D02*
X11633571Y-13735476D01*
X11690714Y-13735476D02*
X11690714Y-13535476D01*
X11671667Y-13564048D01*
X11652619Y-13583095D01*
X11633571Y-13592619D01*
X11862143Y-13621190D02*
X11843095Y-13611667D01*
X11833571Y-13602143D01*
X11824048Y-13583095D01*
X11824048Y-13573571D01*
X11833571Y-13554524D01*
X11843095Y-13545000D01*
X11862143Y-13535476D01*
X11900238Y-13535476D01*
X11919286Y-13545000D01*
X11928809Y-13554524D01*
X11938333Y-13573571D01*
X11938333Y-13583095D01*
X11928809Y-13602143D01*
X11919286Y-13611667D01*
X11900238Y-13621190D01*
X11862143Y-13621190D01*
X11843095Y-13630714D01*
X11833571Y-13640238D01*
X11824048Y-13659286D01*
X11824048Y-13697381D01*
X11833571Y-13716428D01*
X11843095Y-13725952D01*
X11862143Y-13735476D01*
X11900238Y-13735476D01*
X11919286Y-13725952D01*
X11928809Y-13716428D01*
X11938333Y-13697381D01*
X11938333Y-13659286D01*
X11928809Y-13640238D01*
X11919286Y-13630714D01*
X11900238Y-13621190D01*
X12119286Y-13535476D02*
X12024048Y-13535476D01*
X12014524Y-13630714D01*
X12024048Y-13621190D01*
X12043095Y-13611667D01*
X12090714Y-13611667D01*
X12109762Y-13621190D01*
X12119286Y-13630714D01*
X12128809Y-13649762D01*
X12128809Y-13697381D01*
X12119286Y-13716428D01*
X12109762Y-13725952D01*
X12090714Y-13735476D01*
X12043095Y-13735476D01*
X12024048Y-13725952D01*
X12014524Y-13716428D01*
X12366905Y-13735476D02*
X12366905Y-13535476D01*
X12452619Y-13735476D02*
X12452619Y-13630714D01*
X12443095Y-13611667D01*
X12424048Y-13602143D01*
X12395476Y-13602143D01*
X12376428Y-13611667D01*
X12366905Y-13621190D01*
X12576428Y-13735476D02*
X12557381Y-13725952D01*
X12547857Y-13716428D01*
X12538333Y-13697381D01*
X12538333Y-13640238D01*
X12547857Y-13621190D01*
X12557381Y-13611667D01*
X12576428Y-13602143D01*
X12605000Y-13602143D01*
X12624048Y-13611667D01*
X12633571Y-13621190D01*
X12643095Y-13640238D01*
X12643095Y-13697381D01*
X12633571Y-13716428D01*
X12624048Y-13725952D01*
X12605000Y-13735476D01*
X12576428Y-13735476D01*
X12757381Y-13735476D02*
X12738333Y-13725952D01*
X12728809Y-13706905D01*
X12728809Y-13535476D01*
X12909762Y-13725952D02*
X12890714Y-13735476D01*
X12852619Y-13735476D01*
X12833571Y-13725952D01*
X12824048Y-13706905D01*
X12824048Y-13630714D01*
X12833571Y-13611667D01*
X12852619Y-13602143D01*
X12890714Y-13602143D01*
X12909762Y-13611667D01*
X12919286Y-13630714D01*
X12919286Y-13649762D01*
X12824048Y-13668809D01*
X12995476Y-13725952D02*
X13014524Y-13735476D01*
X13052619Y-13735476D01*
X13071667Y-13725952D01*
X13081190Y-13706905D01*
X13081190Y-13697381D01*
X13071667Y-13678333D01*
X13052619Y-13668809D01*
X13024048Y-13668809D01*
X13005000Y-13659286D01*
X12995476Y-13640238D01*
X12995476Y-13630714D01*
X13005000Y-13611667D01*
X13024048Y-13602143D01*
X13052619Y-13602143D01*
X13071667Y-13611667D01*
X13147857Y-13811667D02*
X13157381Y-13802143D01*
X13176428Y-13773571D01*
X13185952Y-13754524D01*
X13195476Y-13725952D01*
X13205000Y-13678333D01*
X13205000Y-13640238D01*
X13195476Y-13592619D01*
X13185952Y-13564048D01*
X13176428Y-13545000D01*
X13157381Y-13516428D01*
X13147857Y-13506905D01*
D13*
X7995000Y-13909000D02*
G75*
G03*
X7995000Y-13909000I-59500J0D01*
G01*
D11*
X8357381Y-13999476D02*
X8243095Y-13999476D01*
X8300238Y-13999476D02*
X8300238Y-13799476D01*
X8281190Y-13828048D01*
X8262143Y-13847095D01*
X8243095Y-13856619D01*
X8443095Y-13980428D02*
X8452619Y-13989952D01*
X8443095Y-13999476D01*
X8433571Y-13989952D01*
X8443095Y-13980428D01*
X8443095Y-13999476D01*
X8643095Y-13999476D02*
X8528810Y-13999476D01*
X8585952Y-13999476D02*
X8585952Y-13799476D01*
X8566905Y-13828048D01*
X8547857Y-13847095D01*
X8528810Y-13856619D01*
X8738333Y-13999476D02*
X8776429Y-13999476D01*
X8795476Y-13989952D01*
X8805000Y-13980428D01*
X8824048Y-13951857D01*
X8833571Y-13913762D01*
X8833571Y-13837571D01*
X8824048Y-13818524D01*
X8814524Y-13809000D01*
X8795476Y-13799476D01*
X8757381Y-13799476D01*
X8738333Y-13809000D01*
X8728810Y-13818524D01*
X8719286Y-13837571D01*
X8719286Y-13885190D01*
X8728810Y-13904238D01*
X8738333Y-13913762D01*
X8757381Y-13923286D01*
X8795476Y-13923286D01*
X8814524Y-13913762D01*
X8824048Y-13904238D01*
X8833571Y-13885190D01*
X8957381Y-13799476D02*
X8976429Y-13799476D01*
X8995476Y-13809000D01*
X9005000Y-13818524D01*
X9014524Y-13837571D01*
X9024048Y-13875667D01*
X9024048Y-13923286D01*
X9014524Y-13961381D01*
X9005000Y-13980428D01*
X8995476Y-13989952D01*
X8976429Y-13999476D01*
X8957381Y-13999476D01*
X8938333Y-13989952D01*
X8928810Y-13980428D01*
X8919286Y-13961381D01*
X8909762Y-13923286D01*
X8909762Y-13875667D01*
X8919286Y-13837571D01*
X8928810Y-13818524D01*
X8938333Y-13809000D01*
X8957381Y-13799476D01*
X9109762Y-13999476D02*
X9109762Y-13866143D01*
X9109762Y-13885190D02*
X9119286Y-13875667D01*
X9138333Y-13866143D01*
X9166905Y-13866143D01*
X9185952Y-13875667D01*
X9195476Y-13894714D01*
X9195476Y-13999476D01*
X9195476Y-13894714D02*
X9205000Y-13875667D01*
X9224048Y-13866143D01*
X9252619Y-13866143D01*
X9271667Y-13875667D01*
X9281190Y-13894714D01*
X9281190Y-13999476D01*
X9376429Y-13999476D02*
X9376429Y-13866143D01*
X9376429Y-13885190D02*
X9385952Y-13875667D01*
X9405000Y-13866143D01*
X9433571Y-13866143D01*
X9452619Y-13875667D01*
X9462143Y-13894714D01*
X9462143Y-13999476D01*
X9462143Y-13894714D02*
X9471667Y-13875667D01*
X9490714Y-13866143D01*
X9519286Y-13866143D01*
X9538333Y-13875667D01*
X9547857Y-13894714D01*
X9547857Y-13999476D01*
X9938333Y-13789952D02*
X9766905Y-14047095D01*
X10195476Y-13799476D02*
X10214524Y-13799476D01*
X10233571Y-13809000D01*
X10243095Y-13818524D01*
X10252619Y-13837571D01*
X10262143Y-13875667D01*
X10262143Y-13923286D01*
X10252619Y-13961381D01*
X10243095Y-13980428D01*
X10233571Y-13989952D01*
X10214524Y-13999476D01*
X10195476Y-13999476D01*
X10176429Y-13989952D01*
X10166905Y-13980428D01*
X10157381Y-13961381D01*
X10147857Y-13923286D01*
X10147857Y-13875667D01*
X10157381Y-13837571D01*
X10166905Y-13818524D01*
X10176429Y-13809000D01*
X10195476Y-13799476D01*
X10347857Y-13980428D02*
X10357381Y-13989952D01*
X10347857Y-13999476D01*
X10338333Y-13989952D01*
X10347857Y-13980428D01*
X10347857Y-13999476D01*
X10481190Y-13799476D02*
X10500238Y-13799476D01*
X10519286Y-13809000D01*
X10528810Y-13818524D01*
X10538333Y-13837571D01*
X10547857Y-13875667D01*
X10547857Y-13923286D01*
X10538333Y-13961381D01*
X10528810Y-13980428D01*
X10519286Y-13989952D01*
X10500238Y-13999476D01*
X10481190Y-13999476D01*
X10462143Y-13989952D01*
X10452619Y-13980428D01*
X10443095Y-13961381D01*
X10433571Y-13923286D01*
X10433571Y-13875667D01*
X10443095Y-13837571D01*
X10452619Y-13818524D01*
X10462143Y-13809000D01*
X10481190Y-13799476D01*
X10719286Y-13866143D02*
X10719286Y-13999476D01*
X10671667Y-13789952D02*
X10624048Y-13932809D01*
X10747857Y-13932809D01*
X10909762Y-13799476D02*
X10871667Y-13799476D01*
X10852619Y-13809000D01*
X10843095Y-13818524D01*
X10824048Y-13847095D01*
X10814524Y-13885190D01*
X10814524Y-13961381D01*
X10824048Y-13980428D01*
X10833571Y-13989952D01*
X10852619Y-13999476D01*
X10890714Y-13999476D01*
X10909762Y-13989952D01*
X10919286Y-13980428D01*
X10928810Y-13961381D01*
X10928810Y-13913762D01*
X10919286Y-13894714D01*
X10909762Y-13885190D01*
X10890714Y-13875667D01*
X10852619Y-13875667D01*
X10833571Y-13885190D01*
X10824048Y-13894714D01*
X10814524Y-13913762D01*
X11024048Y-13999476D02*
X11062143Y-13999476D01*
X11081190Y-13989952D01*
X11090714Y-13980428D01*
X11109762Y-13951857D01*
X11119286Y-13913762D01*
X11119286Y-13837571D01*
X11109762Y-13818524D01*
X11100238Y-13809000D01*
X11081190Y-13799476D01*
X11043095Y-13799476D01*
X11024048Y-13809000D01*
X11014524Y-13818524D01*
X11005000Y-13837571D01*
X11005000Y-13885190D01*
X11014524Y-13904238D01*
X11024048Y-13913762D01*
X11043095Y-13923286D01*
X11081190Y-13923286D01*
X11100238Y-13913762D01*
X11109762Y-13904238D01*
X11119286Y-13885190D01*
X11195476Y-13799476D02*
X11195476Y-13837571D01*
X11271667Y-13799476D02*
X11271667Y-13837571D01*
X11566905Y-14075667D02*
X11557381Y-14066143D01*
X11538333Y-14037571D01*
X11528809Y-14018524D01*
X11519286Y-13989952D01*
X11509762Y-13942333D01*
X11509762Y-13904238D01*
X11519286Y-13856619D01*
X11528809Y-13828048D01*
X11538333Y-13809000D01*
X11557381Y-13780428D01*
X11566905Y-13770905D01*
X11728809Y-13866143D02*
X11728809Y-13999476D01*
X11681190Y-13789952D02*
X11633571Y-13932809D01*
X11757381Y-13932809D01*
X11985952Y-13999476D02*
X11985952Y-13799476D01*
X12071667Y-13999476D02*
X12071667Y-13894714D01*
X12062143Y-13875667D01*
X12043095Y-13866143D01*
X12014524Y-13866143D01*
X11995476Y-13875667D01*
X11985952Y-13885190D01*
X12195476Y-13999476D02*
X12176428Y-13989952D01*
X12166905Y-13980428D01*
X12157381Y-13961381D01*
X12157381Y-13904238D01*
X12166905Y-13885190D01*
X12176428Y-13875667D01*
X12195476Y-13866143D01*
X12224048Y-13866143D01*
X12243095Y-13875667D01*
X12252619Y-13885190D01*
X12262143Y-13904238D01*
X12262143Y-13961381D01*
X12252619Y-13980428D01*
X12243095Y-13989952D01*
X12224048Y-13999476D01*
X12195476Y-13999476D01*
X12376428Y-13999476D02*
X12357381Y-13989952D01*
X12347857Y-13970905D01*
X12347857Y-13799476D01*
X12528809Y-13989952D02*
X12509762Y-13999476D01*
X12471667Y-13999476D01*
X12452619Y-13989952D01*
X12443095Y-13970905D01*
X12443095Y-13894714D01*
X12452619Y-13875667D01*
X12471667Y-13866143D01*
X12509762Y-13866143D01*
X12528809Y-13875667D01*
X12538333Y-13894714D01*
X12538333Y-13913762D01*
X12443095Y-13932809D01*
X12614524Y-13989952D02*
X12633571Y-13999476D01*
X12671667Y-13999476D01*
X12690714Y-13989952D01*
X12700238Y-13970905D01*
X12700238Y-13961381D01*
X12690714Y-13942333D01*
X12671667Y-13932809D01*
X12643095Y-13932809D01*
X12624048Y-13923286D01*
X12614524Y-13904238D01*
X12614524Y-13894714D01*
X12624048Y-13875667D01*
X12643095Y-13866143D01*
X12671667Y-13866143D01*
X12690714Y-13875667D01*
X12766905Y-14075667D02*
X12776428Y-14066143D01*
X12795476Y-14037571D01*
X12805000Y-14018524D01*
X12814524Y-13989952D01*
X12824048Y-13942333D01*
X12824048Y-13904238D01*
X12814524Y-13856619D01*
X12805000Y-13828048D01*
X12795476Y-13809000D01*
X12776428Y-13780428D01*
X12766905Y-13770905D01*
D14*
X7929976Y-14107976D02*
X7929976Y-14238024D01*
X7864952Y-14173000D02*
X7995000Y-14173000D01*
D11*
X8357381Y-14263476D02*
X8243095Y-14263476D01*
X8300238Y-14263476D02*
X8300238Y-14063476D01*
X8281190Y-14092048D01*
X8262143Y-14111095D01*
X8243095Y-14120619D01*
X8443095Y-14244428D02*
X8452619Y-14253952D01*
X8443095Y-14263476D01*
X8433571Y-14253952D01*
X8443095Y-14244428D01*
X8443095Y-14263476D01*
X8519286Y-14063476D02*
X8643095Y-14063476D01*
X8576429Y-14139667D01*
X8605000Y-14139667D01*
X8624048Y-14149190D01*
X8633571Y-14158714D01*
X8643095Y-14177762D01*
X8643095Y-14225381D01*
X8633571Y-14244428D01*
X8624048Y-14253952D01*
X8605000Y-14263476D01*
X8547857Y-14263476D01*
X8528810Y-14253952D01*
X8519286Y-14244428D01*
X8766905Y-14063476D02*
X8785952Y-14063476D01*
X8805000Y-14073000D01*
X8814524Y-14082524D01*
X8824048Y-14101571D01*
X8833571Y-14139667D01*
X8833571Y-14187286D01*
X8824048Y-14225381D01*
X8814524Y-14244428D01*
X8805000Y-14253952D01*
X8785952Y-14263476D01*
X8766905Y-14263476D01*
X8747857Y-14253952D01*
X8738333Y-14244428D01*
X8728810Y-14225381D01*
X8719286Y-14187286D01*
X8719286Y-14139667D01*
X8728810Y-14101571D01*
X8738333Y-14082524D01*
X8747857Y-14073000D01*
X8766905Y-14063476D01*
X8957381Y-14063476D02*
X8976429Y-14063476D01*
X8995476Y-14073000D01*
X9005000Y-14082524D01*
X9014524Y-14101571D01*
X9024048Y-14139667D01*
X9024048Y-14187286D01*
X9014524Y-14225381D01*
X9005000Y-14244428D01*
X8995476Y-14253952D01*
X8976429Y-14263476D01*
X8957381Y-14263476D01*
X8938333Y-14253952D01*
X8928810Y-14244428D01*
X8919286Y-14225381D01*
X8909762Y-14187286D01*
X8909762Y-14139667D01*
X8919286Y-14101571D01*
X8928810Y-14082524D01*
X8938333Y-14073000D01*
X8957381Y-14063476D01*
X9109762Y-14263476D02*
X9109762Y-14130143D01*
X9109762Y-14149190D02*
X9119286Y-14139667D01*
X9138333Y-14130143D01*
X9166905Y-14130143D01*
X9185952Y-14139667D01*
X9195476Y-14158714D01*
X9195476Y-14263476D01*
X9195476Y-14158714D02*
X9205000Y-14139667D01*
X9224048Y-14130143D01*
X9252619Y-14130143D01*
X9271667Y-14139667D01*
X9281190Y-14158714D01*
X9281190Y-14263476D01*
X9376429Y-14263476D02*
X9376429Y-14130143D01*
X9376429Y-14149190D02*
X9385952Y-14139667D01*
X9405000Y-14130143D01*
X9433571Y-14130143D01*
X9452619Y-14139667D01*
X9462143Y-14158714D01*
X9462143Y-14263476D01*
X9462143Y-14158714D02*
X9471667Y-14139667D01*
X9490714Y-14130143D01*
X9519286Y-14130143D01*
X9538333Y-14139667D01*
X9547857Y-14158714D01*
X9547857Y-14263476D01*
X9938333Y-14053952D02*
X9766905Y-14311095D01*
X10195476Y-14063476D02*
X10214524Y-14063476D01*
X10233571Y-14073000D01*
X10243095Y-14082524D01*
X10252619Y-14101571D01*
X10262143Y-14139667D01*
X10262143Y-14187286D01*
X10252619Y-14225381D01*
X10243095Y-14244428D01*
X10233571Y-14253952D01*
X10214524Y-14263476D01*
X10195476Y-14263476D01*
X10176429Y-14253952D01*
X10166905Y-14244428D01*
X10157381Y-14225381D01*
X10147857Y-14187286D01*
X10147857Y-14139667D01*
X10157381Y-14101571D01*
X10166905Y-14082524D01*
X10176429Y-14073000D01*
X10195476Y-14063476D01*
X10347857Y-14244428D02*
X10357381Y-14253952D01*
X10347857Y-14263476D01*
X10338333Y-14253952D01*
X10347857Y-14244428D01*
X10347857Y-14263476D01*
X10481190Y-14063476D02*
X10500238Y-14063476D01*
X10519286Y-14073000D01*
X10528810Y-14082524D01*
X10538333Y-14101571D01*
X10547857Y-14139667D01*
X10547857Y-14187286D01*
X10538333Y-14225381D01*
X10528810Y-14244428D01*
X10519286Y-14253952D01*
X10500238Y-14263476D01*
X10481190Y-14263476D01*
X10462143Y-14253952D01*
X10452619Y-14244428D01*
X10443095Y-14225381D01*
X10433571Y-14187286D01*
X10433571Y-14139667D01*
X10443095Y-14101571D01*
X10452619Y-14082524D01*
X10462143Y-14073000D01*
X10481190Y-14063476D01*
X10728810Y-14063476D02*
X10633571Y-14063476D01*
X10624048Y-14158714D01*
X10633571Y-14149190D01*
X10652619Y-14139667D01*
X10700238Y-14139667D01*
X10719286Y-14149190D01*
X10728810Y-14158714D01*
X10738333Y-14177762D01*
X10738333Y-14225381D01*
X10728810Y-14244428D01*
X10719286Y-14253952D01*
X10700238Y-14263476D01*
X10652619Y-14263476D01*
X10633571Y-14253952D01*
X10624048Y-14244428D01*
X10928810Y-14263476D02*
X10814524Y-14263476D01*
X10871667Y-14263476D02*
X10871667Y-14063476D01*
X10852619Y-14092048D01*
X10833571Y-14111095D01*
X10814524Y-14120619D01*
X11005000Y-14082524D02*
X11014524Y-14073000D01*
X11033571Y-14063476D01*
X11081190Y-14063476D01*
X11100238Y-14073000D01*
X11109762Y-14082524D01*
X11119286Y-14101571D01*
X11119286Y-14120619D01*
X11109762Y-14149190D01*
X10995476Y-14263476D01*
X11119286Y-14263476D01*
X11195476Y-14063476D02*
X11195476Y-14101571D01*
X11271667Y-14063476D02*
X11271667Y-14101571D01*
X11566905Y-14339667D02*
X11557381Y-14330143D01*
X11538333Y-14301571D01*
X11528809Y-14282524D01*
X11519286Y-14253952D01*
X11509762Y-14206333D01*
X11509762Y-14168238D01*
X11519286Y-14120619D01*
X11528809Y-14092048D01*
X11538333Y-14073000D01*
X11557381Y-14044428D01*
X11566905Y-14034905D01*
X11747857Y-14263476D02*
X11633571Y-14263476D01*
X11690714Y-14263476D02*
X11690714Y-14063476D01*
X11671667Y-14092048D01*
X11652619Y-14111095D01*
X11633571Y-14120619D01*
X11871667Y-14063476D02*
X11890714Y-14063476D01*
X11909762Y-14073000D01*
X11919286Y-14082524D01*
X11928809Y-14101571D01*
X11938333Y-14139667D01*
X11938333Y-14187286D01*
X11928809Y-14225381D01*
X11919286Y-14244428D01*
X11909762Y-14253952D01*
X11890714Y-14263476D01*
X11871667Y-14263476D01*
X11852619Y-14253952D01*
X11843095Y-14244428D01*
X11833571Y-14225381D01*
X11824048Y-14187286D01*
X11824048Y-14139667D01*
X11833571Y-14101571D01*
X11843095Y-14082524D01*
X11852619Y-14073000D01*
X11871667Y-14063476D01*
X12176428Y-14263476D02*
X12176428Y-14063476D01*
X12262143Y-14263476D02*
X12262143Y-14158714D01*
X12252619Y-14139667D01*
X12233571Y-14130143D01*
X12205000Y-14130143D01*
X12185952Y-14139667D01*
X12176428Y-14149190D01*
X12385952Y-14263476D02*
X12366905Y-14253952D01*
X12357381Y-14244428D01*
X12347857Y-14225381D01*
X12347857Y-14168238D01*
X12357381Y-14149190D01*
X12366905Y-14139667D01*
X12385952Y-14130143D01*
X12414524Y-14130143D01*
X12433571Y-14139667D01*
X12443095Y-14149190D01*
X12452619Y-14168238D01*
X12452619Y-14225381D01*
X12443095Y-14244428D01*
X12433571Y-14253952D01*
X12414524Y-14263476D01*
X12385952Y-14263476D01*
X12566905Y-14263476D02*
X12547857Y-14253952D01*
X12538333Y-14234905D01*
X12538333Y-14063476D01*
X12719286Y-14253952D02*
X12700238Y-14263476D01*
X12662143Y-14263476D01*
X12643095Y-14253952D01*
X12633571Y-14234905D01*
X12633571Y-14158714D01*
X12643095Y-14139667D01*
X12662143Y-14130143D01*
X12700238Y-14130143D01*
X12719286Y-14139667D01*
X12728809Y-14158714D01*
X12728809Y-14177762D01*
X12633571Y-14196809D01*
X12805000Y-14253952D02*
X12824048Y-14263476D01*
X12862143Y-14263476D01*
X12881190Y-14253952D01*
X12890714Y-14234905D01*
X12890714Y-14225381D01*
X12881190Y-14206333D01*
X12862143Y-14196809D01*
X12833571Y-14196809D01*
X12814524Y-14187286D01*
X12805000Y-14168238D01*
X12805000Y-14158714D01*
X12814524Y-14139667D01*
X12833571Y-14130143D01*
X12862143Y-14130143D01*
X12881190Y-14139667D01*
X12957381Y-14339667D02*
X12966905Y-14330143D01*
X12985952Y-14301571D01*
X12995476Y-14282524D01*
X13005000Y-14253952D01*
X13014524Y-14206333D01*
X13014524Y-14168238D01*
X13005000Y-14120619D01*
X12995476Y-14092048D01*
X12985952Y-14073000D01*
X12966905Y-14044428D01*
X12957381Y-14034905D01*
D15*
X7973033Y-14490033D02*
X7973033Y-14383966D01*
X7866966Y-14383966D01*
X7866966Y-14490033D01*
X7973033Y-14490033D01*
D11*
X8357381Y-14527476D02*
X8243095Y-14527476D01*
X8300238Y-14527476D02*
X8300238Y-14327476D01*
X8281190Y-14356048D01*
X8262143Y-14375095D01*
X8243095Y-14384619D01*
X8443095Y-14508428D02*
X8452619Y-14517952D01*
X8443095Y-14527476D01*
X8433571Y-14517952D01*
X8443095Y-14508428D01*
X8443095Y-14527476D01*
X8633571Y-14327476D02*
X8538333Y-14327476D01*
X8528810Y-14422714D01*
X8538333Y-14413190D01*
X8557381Y-14403667D01*
X8605000Y-14403667D01*
X8624048Y-14413190D01*
X8633571Y-14422714D01*
X8643095Y-14441762D01*
X8643095Y-14489381D01*
X8633571Y-14508428D01*
X8624048Y-14517952D01*
X8605000Y-14527476D01*
X8557381Y-14527476D01*
X8538333Y-14517952D01*
X8528810Y-14508428D01*
X8766905Y-14327476D02*
X8785952Y-14327476D01*
X8805000Y-14337000D01*
X8814524Y-14346524D01*
X8824048Y-14365571D01*
X8833571Y-14403667D01*
X8833571Y-14451286D01*
X8824048Y-14489381D01*
X8814524Y-14508428D01*
X8805000Y-14517952D01*
X8785952Y-14527476D01*
X8766905Y-14527476D01*
X8747857Y-14517952D01*
X8738333Y-14508428D01*
X8728810Y-14489381D01*
X8719286Y-14451286D01*
X8719286Y-14403667D01*
X8728810Y-14365571D01*
X8738333Y-14346524D01*
X8747857Y-14337000D01*
X8766905Y-14327476D01*
X8957381Y-14327476D02*
X8976429Y-14327476D01*
X8995476Y-14337000D01*
X9005000Y-14346524D01*
X9014524Y-14365571D01*
X9024048Y-14403667D01*
X9024048Y-14451286D01*
X9014524Y-14489381D01*
X9005000Y-14508428D01*
X8995476Y-14517952D01*
X8976429Y-14527476D01*
X8957381Y-14527476D01*
X8938333Y-14517952D01*
X8928810Y-14508428D01*
X8919286Y-14489381D01*
X8909762Y-14451286D01*
X8909762Y-14403667D01*
X8919286Y-14365571D01*
X8928810Y-14346524D01*
X8938333Y-14337000D01*
X8957381Y-14327476D01*
X9109762Y-14527476D02*
X9109762Y-14394143D01*
X9109762Y-14413190D02*
X9119286Y-14403667D01*
X9138333Y-14394143D01*
X9166905Y-14394143D01*
X9185952Y-14403667D01*
X9195476Y-14422714D01*
X9195476Y-14527476D01*
X9195476Y-14422714D02*
X9205000Y-14403667D01*
X9224048Y-14394143D01*
X9252619Y-14394143D01*
X9271667Y-14403667D01*
X9281190Y-14422714D01*
X9281190Y-14527476D01*
X9376429Y-14527476D02*
X9376429Y-14394143D01*
X9376429Y-14413190D02*
X9385952Y-14403667D01*
X9405000Y-14394143D01*
X9433571Y-14394143D01*
X9452619Y-14403667D01*
X9462143Y-14422714D01*
X9462143Y-14527476D01*
X9462143Y-14422714D02*
X9471667Y-14403667D01*
X9490714Y-14394143D01*
X9519286Y-14394143D01*
X9538333Y-14403667D01*
X9547857Y-14422714D01*
X9547857Y-14527476D01*
X9938333Y-14317952D02*
X9766905Y-14575095D01*
X10195476Y-14327476D02*
X10214524Y-14327476D01*
X10233571Y-14337000D01*
X10243095Y-14346524D01*
X10252619Y-14365571D01*
X10262143Y-14403667D01*
X10262143Y-14451286D01*
X10252619Y-14489381D01*
X10243095Y-14508428D01*
X10233571Y-14517952D01*
X10214524Y-14527476D01*
X10195476Y-14527476D01*
X10176429Y-14517952D01*
X10166905Y-14508428D01*
X10157381Y-14489381D01*
X10147857Y-14451286D01*
X10147857Y-14403667D01*
X10157381Y-14365571D01*
X10166905Y-14346524D01*
X10176429Y-14337000D01*
X10195476Y-14327476D01*
X10347857Y-14508428D02*
X10357381Y-14517952D01*
X10347857Y-14527476D01*
X10338333Y-14517952D01*
X10347857Y-14508428D01*
X10347857Y-14527476D01*
X10481190Y-14327476D02*
X10500238Y-14327476D01*
X10519286Y-14337000D01*
X10528810Y-14346524D01*
X10538333Y-14365571D01*
X10547857Y-14403667D01*
X10547857Y-14451286D01*
X10538333Y-14489381D01*
X10528810Y-14508428D01*
X10519286Y-14517952D01*
X10500238Y-14527476D01*
X10481190Y-14527476D01*
X10462143Y-14517952D01*
X10452619Y-14508428D01*
X10443095Y-14489381D01*
X10433571Y-14451286D01*
X10433571Y-14403667D01*
X10443095Y-14365571D01*
X10452619Y-14346524D01*
X10462143Y-14337000D01*
X10481190Y-14327476D01*
X10728810Y-14327476D02*
X10633571Y-14327476D01*
X10624048Y-14422714D01*
X10633571Y-14413190D01*
X10652619Y-14403667D01*
X10700238Y-14403667D01*
X10719286Y-14413190D01*
X10728810Y-14422714D01*
X10738333Y-14441762D01*
X10738333Y-14489381D01*
X10728810Y-14508428D01*
X10719286Y-14517952D01*
X10700238Y-14527476D01*
X10652619Y-14527476D01*
X10633571Y-14517952D01*
X10624048Y-14508428D01*
X10833571Y-14527476D02*
X10871667Y-14527476D01*
X10890714Y-14517952D01*
X10900238Y-14508428D01*
X10919286Y-14479857D01*
X10928810Y-14441762D01*
X10928810Y-14365571D01*
X10919286Y-14346524D01*
X10909762Y-14337000D01*
X10890714Y-14327476D01*
X10852619Y-14327476D01*
X10833571Y-14337000D01*
X10824048Y-14346524D01*
X10814524Y-14365571D01*
X10814524Y-14413190D01*
X10824048Y-14432238D01*
X10833571Y-14441762D01*
X10852619Y-14451286D01*
X10890714Y-14451286D01*
X10909762Y-14441762D01*
X10919286Y-14432238D01*
X10928810Y-14413190D01*
X11119286Y-14527476D02*
X11005000Y-14527476D01*
X11062143Y-14527476D02*
X11062143Y-14327476D01*
X11043095Y-14356048D01*
X11024048Y-14375095D01*
X11005000Y-14384619D01*
X11195476Y-14327476D02*
X11195476Y-14365571D01*
X11271667Y-14327476D02*
X11271667Y-14365571D01*
X11566905Y-14603667D02*
X11557381Y-14594143D01*
X11538333Y-14565571D01*
X11528809Y-14546524D01*
X11519286Y-14517952D01*
X11509762Y-14470333D01*
X11509762Y-14432238D01*
X11519286Y-14384619D01*
X11528809Y-14356048D01*
X11538333Y-14337000D01*
X11557381Y-14308428D01*
X11566905Y-14298905D01*
X11633571Y-14346524D02*
X11643095Y-14337000D01*
X11662143Y-14327476D01*
X11709762Y-14327476D01*
X11728809Y-14337000D01*
X11738333Y-14346524D01*
X11747857Y-14365571D01*
X11747857Y-14384619D01*
X11738333Y-14413190D01*
X11624048Y-14527476D01*
X11747857Y-14527476D01*
X11985952Y-14527476D02*
X11985952Y-14327476D01*
X12071667Y-14527476D02*
X12071667Y-14422714D01*
X12062143Y-14403667D01*
X12043095Y-14394143D01*
X12014524Y-14394143D01*
X11995476Y-14403667D01*
X11985952Y-14413190D01*
X12195476Y-14527476D02*
X12176428Y-14517952D01*
X12166905Y-14508428D01*
X12157381Y-14489381D01*
X12157381Y-14432238D01*
X12166905Y-14413190D01*
X12176428Y-14403667D01*
X12195476Y-14394143D01*
X12224048Y-14394143D01*
X12243095Y-14403667D01*
X12252619Y-14413190D01*
X12262143Y-14432238D01*
X12262143Y-14489381D01*
X12252619Y-14508428D01*
X12243095Y-14517952D01*
X12224048Y-14527476D01*
X12195476Y-14527476D01*
X12376428Y-14527476D02*
X12357381Y-14517952D01*
X12347857Y-14498905D01*
X12347857Y-14327476D01*
X12528809Y-14517952D02*
X12509762Y-14527476D01*
X12471667Y-14527476D01*
X12452619Y-14517952D01*
X12443095Y-14498905D01*
X12443095Y-14422714D01*
X12452619Y-14403667D01*
X12471667Y-14394143D01*
X12509762Y-14394143D01*
X12528809Y-14403667D01*
X12538333Y-14422714D01*
X12538333Y-14441762D01*
X12443095Y-14460809D01*
X12614524Y-14517952D02*
X12633571Y-14527476D01*
X12671667Y-14527476D01*
X12690714Y-14517952D01*
X12700238Y-14498905D01*
X12700238Y-14489381D01*
X12690714Y-14470333D01*
X12671667Y-14460809D01*
X12643095Y-14460809D01*
X12624048Y-14451286D01*
X12614524Y-14432238D01*
X12614524Y-14422714D01*
X12624048Y-14403667D01*
X12643095Y-14394143D01*
X12671667Y-14394143D01*
X12690714Y-14403667D01*
X12766905Y-14603667D02*
X12776428Y-14594143D01*
X12795476Y-14565571D01*
X12805000Y-14546524D01*
X12814524Y-14517952D01*
X12824048Y-14470333D01*
X12824048Y-14432238D01*
X12814524Y-14384619D01*
X12805000Y-14356048D01*
X12795476Y-14337000D01*
X12776428Y-14308428D01*
X12766905Y-14298905D01*
X7895000Y-14807000D02*
X7995000Y-14707000D01*
X7895000Y-14607000D01*
X7795000Y-14707000D01*
X7895000Y-14807000D01*
X8233571Y-14597476D02*
X8357381Y-14597476D01*
X8290714Y-14673667D01*
X8319286Y-14673667D01*
X8338333Y-14683190D01*
X8347857Y-14692714D01*
X8357381Y-14711762D01*
X8357381Y-14759381D01*
X8347857Y-14778428D01*
X8338333Y-14787952D01*
X8319286Y-14797476D01*
X8262143Y-14797476D01*
X8243095Y-14787952D01*
X8233571Y-14778428D01*
X8443095Y-14778428D02*
X8452619Y-14787952D01*
X8443095Y-14797476D01*
X8433571Y-14787952D01*
X8443095Y-14778428D01*
X8443095Y-14797476D01*
X8528810Y-14616524D02*
X8538333Y-14607000D01*
X8557381Y-14597476D01*
X8605000Y-14597476D01*
X8624048Y-14607000D01*
X8633571Y-14616524D01*
X8643095Y-14635571D01*
X8643095Y-14654619D01*
X8633571Y-14683190D01*
X8519286Y-14797476D01*
X8643095Y-14797476D01*
X8766905Y-14597476D02*
X8785952Y-14597476D01*
X8805000Y-14607000D01*
X8814524Y-14616524D01*
X8824048Y-14635571D01*
X8833571Y-14673667D01*
X8833571Y-14721286D01*
X8824048Y-14759381D01*
X8814524Y-14778428D01*
X8805000Y-14787952D01*
X8785952Y-14797476D01*
X8766905Y-14797476D01*
X8747857Y-14787952D01*
X8738333Y-14778428D01*
X8728810Y-14759381D01*
X8719286Y-14721286D01*
X8719286Y-14673667D01*
X8728810Y-14635571D01*
X8738333Y-14616524D01*
X8747857Y-14607000D01*
X8766905Y-14597476D01*
X8957381Y-14597476D02*
X8976429Y-14597476D01*
X8995476Y-14607000D01*
X9005000Y-14616524D01*
X9014524Y-14635571D01*
X9024048Y-14673667D01*
X9024048Y-14721286D01*
X9014524Y-14759381D01*
X9005000Y-14778428D01*
X8995476Y-14787952D01*
X8976429Y-14797476D01*
X8957381Y-14797476D01*
X8938333Y-14787952D01*
X8928810Y-14778428D01*
X8919286Y-14759381D01*
X8909762Y-14721286D01*
X8909762Y-14673667D01*
X8919286Y-14635571D01*
X8928810Y-14616524D01*
X8938333Y-14607000D01*
X8957381Y-14597476D01*
X9109762Y-14797476D02*
X9109762Y-14664143D01*
X9109762Y-14683190D02*
X9119286Y-14673667D01*
X9138333Y-14664143D01*
X9166905Y-14664143D01*
X9185952Y-14673667D01*
X9195476Y-14692714D01*
X9195476Y-14797476D01*
X9195476Y-14692714D02*
X9205000Y-14673667D01*
X9224048Y-14664143D01*
X9252619Y-14664143D01*
X9271667Y-14673667D01*
X9281190Y-14692714D01*
X9281190Y-14797476D01*
X9376429Y-14797476D02*
X9376429Y-14664143D01*
X9376429Y-14683190D02*
X9385952Y-14673667D01*
X9405000Y-14664143D01*
X9433571Y-14664143D01*
X9452619Y-14673667D01*
X9462143Y-14692714D01*
X9462143Y-14797476D01*
X9462143Y-14692714D02*
X9471667Y-14673667D01*
X9490714Y-14664143D01*
X9519286Y-14664143D01*
X9538333Y-14673667D01*
X9547857Y-14692714D01*
X9547857Y-14797476D01*
X9938333Y-14587952D02*
X9766905Y-14845095D01*
X10195476Y-14597476D02*
X10214524Y-14597476D01*
X10233571Y-14607000D01*
X10243095Y-14616524D01*
X10252619Y-14635571D01*
X10262143Y-14673667D01*
X10262143Y-14721286D01*
X10252619Y-14759381D01*
X10243095Y-14778428D01*
X10233571Y-14787952D01*
X10214524Y-14797476D01*
X10195476Y-14797476D01*
X10176429Y-14787952D01*
X10166905Y-14778428D01*
X10157381Y-14759381D01*
X10147857Y-14721286D01*
X10147857Y-14673667D01*
X10157381Y-14635571D01*
X10166905Y-14616524D01*
X10176429Y-14607000D01*
X10195476Y-14597476D01*
X10347857Y-14778428D02*
X10357381Y-14787952D01*
X10347857Y-14797476D01*
X10338333Y-14787952D01*
X10347857Y-14778428D01*
X10347857Y-14797476D01*
X10547857Y-14797476D02*
X10433571Y-14797476D01*
X10490714Y-14797476D02*
X10490714Y-14597476D01*
X10471667Y-14626048D01*
X10452619Y-14645095D01*
X10433571Y-14654619D01*
X10624048Y-14616524D02*
X10633571Y-14607000D01*
X10652619Y-14597476D01*
X10700238Y-14597476D01*
X10719286Y-14607000D01*
X10728810Y-14616524D01*
X10738333Y-14635571D01*
X10738333Y-14654619D01*
X10728810Y-14683190D01*
X10614524Y-14797476D01*
X10738333Y-14797476D01*
X10909762Y-14597476D02*
X10871667Y-14597476D01*
X10852619Y-14607000D01*
X10843095Y-14616524D01*
X10824048Y-14645095D01*
X10814524Y-14683190D01*
X10814524Y-14759381D01*
X10824048Y-14778428D01*
X10833571Y-14787952D01*
X10852619Y-14797476D01*
X10890714Y-14797476D01*
X10909762Y-14787952D01*
X10919286Y-14778428D01*
X10928810Y-14759381D01*
X10928810Y-14711762D01*
X10919286Y-14692714D01*
X10909762Y-14683190D01*
X10890714Y-14673667D01*
X10852619Y-14673667D01*
X10833571Y-14683190D01*
X10824048Y-14692714D01*
X10814524Y-14711762D01*
X11052619Y-14597476D02*
X11071667Y-14597476D01*
X11090714Y-14607000D01*
X11100238Y-14616524D01*
X11109762Y-14635571D01*
X11119286Y-14673667D01*
X11119286Y-14721286D01*
X11109762Y-14759381D01*
X11100238Y-14778428D01*
X11090714Y-14787952D01*
X11071667Y-14797476D01*
X11052619Y-14797476D01*
X11033571Y-14787952D01*
X11024048Y-14778428D01*
X11014524Y-14759381D01*
X11005000Y-14721286D01*
X11005000Y-14673667D01*
X11014524Y-14635571D01*
X11024048Y-14616524D01*
X11033571Y-14607000D01*
X11052619Y-14597476D01*
X11195476Y-14597476D02*
X11195476Y-14635571D01*
X11271667Y-14597476D02*
X11271667Y-14635571D01*
X11566905Y-14873667D02*
X11557381Y-14864143D01*
X11538333Y-14835571D01*
X11528809Y-14816524D01*
X11519286Y-14787952D01*
X11509762Y-14740333D01*
X11509762Y-14702238D01*
X11519286Y-14654619D01*
X11528809Y-14626048D01*
X11538333Y-14607000D01*
X11557381Y-14578428D01*
X11566905Y-14568905D01*
X11728809Y-14597476D02*
X11690714Y-14597476D01*
X11671667Y-14607000D01*
X11662143Y-14616524D01*
X11643095Y-14645095D01*
X11633571Y-14683190D01*
X11633571Y-14759381D01*
X11643095Y-14778428D01*
X11652619Y-14787952D01*
X11671667Y-14797476D01*
X11709762Y-14797476D01*
X11728809Y-14787952D01*
X11738333Y-14778428D01*
X11747857Y-14759381D01*
X11747857Y-14711762D01*
X11738333Y-14692714D01*
X11728809Y-14683190D01*
X11709762Y-14673667D01*
X11671667Y-14673667D01*
X11652619Y-14683190D01*
X11643095Y-14692714D01*
X11633571Y-14711762D01*
X11985952Y-14797476D02*
X11985952Y-14597476D01*
X12071667Y-14797476D02*
X12071667Y-14692714D01*
X12062143Y-14673667D01*
X12043095Y-14664143D01*
X12014524Y-14664143D01*
X11995476Y-14673667D01*
X11985952Y-14683190D01*
X12195476Y-14797476D02*
X12176428Y-14787952D01*
X12166905Y-14778428D01*
X12157381Y-14759381D01*
X12157381Y-14702238D01*
X12166905Y-14683190D01*
X12176428Y-14673667D01*
X12195476Y-14664143D01*
X12224048Y-14664143D01*
X12243095Y-14673667D01*
X12252619Y-14683190D01*
X12262143Y-14702238D01*
X12262143Y-14759381D01*
X12252619Y-14778428D01*
X12243095Y-14787952D01*
X12224048Y-14797476D01*
X12195476Y-14797476D01*
X12376428Y-14797476D02*
X12357381Y-14787952D01*
X12347857Y-14768905D01*
X12347857Y-14597476D01*
X12528809Y-14787952D02*
X12509762Y-14797476D01*
X12471667Y-14797476D01*
X12452619Y-14787952D01*
X12443095Y-14768905D01*
X12443095Y-14692714D01*
X12452619Y-14673667D01*
X12471667Y-14664143D01*
X12509762Y-14664143D01*
X12528809Y-14673667D01*
X12538333Y-14692714D01*
X12538333Y-14711762D01*
X12443095Y-14730809D01*
X12614524Y-14787952D02*
X12633571Y-14797476D01*
X12671667Y-14797476D01*
X12690714Y-14787952D01*
X12700238Y-14768905D01*
X12700238Y-14759381D01*
X12690714Y-14740333D01*
X12671667Y-14730809D01*
X12643095Y-14730809D01*
X12624048Y-14721286D01*
X12614524Y-14702238D01*
X12614524Y-14692714D01*
X12624048Y-14673667D01*
X12643095Y-14664143D01*
X12671667Y-14664143D01*
X12690714Y-14673667D01*
X12766905Y-14873667D02*
X12776428Y-14864143D01*
X12795476Y-14835571D01*
X12805000Y-14816524D01*
X12814524Y-14787952D01*
X12824048Y-14740333D01*
X12824048Y-14702238D01*
X12814524Y-14654619D01*
X12805000Y-14626048D01*
X12795476Y-14607000D01*
X12776428Y-14578428D01*
X12766905Y-14568905D01*
M02*
