%FSLAX45Y45*%
G04 Gerber Fmt 4.5, Leading zero omitted, Abs format (unit mm)*
G04 Created by KiCad (PCBNEW (6.0.0)) date 2022-09-27 14:15:44*
%MOMM*%
%LPD*%
G01*
G04 APERTURE LIST*
%TA.AperFunction,Profile*%
%ADD10C,0.100000*%
%TD*%
%ADD11C,0.200000*%
%ADD12C,0.040000*%
%ADD13C,0.119000*%
%ADD14C,0.130048*%
%ADD15C,0.320000*%
G04 APERTURE END LIST*
D10*
X8000000Y-3000000D02*
X18000000Y-3000000D01*
X18000000Y-3000000D02*
X18000000Y-11100000D01*
X18000000Y-11100000D02*
X8000000Y-11100000D01*
X8000000Y-11100000D02*
X8000000Y-3000000D01*
X11880000Y-6990000D02*
X12880000Y-6990000D01*
X12880000Y-6990000D02*
X12880000Y-8850000D01*
X12880000Y-8850000D02*
X11880000Y-8850000D01*
X11880000Y-8850000D02*
X11880000Y-6990000D01*
D11*
D12*
X8180000Y-8280000D02*
X8220000Y-8320000D01*
X8220000Y-8280000D02*
X8180000Y-8320000D01*
X8180000Y-8780000D02*
X8220000Y-8820000D01*
X8220000Y-8780000D02*
X8180000Y-8820000D01*
X8180000Y-9280000D02*
X8220000Y-9320000D01*
X8220000Y-9280000D02*
X8180000Y-9320000D01*
X8180000Y-9780000D02*
X8220000Y-9820000D01*
X8220000Y-9780000D02*
X8180000Y-9820000D01*
X8480000Y-3980000D02*
X8520000Y-4020000D01*
X8520000Y-3980000D02*
X8480000Y-4020000D01*
X8480000Y-4480000D02*
X8520000Y-4520000D01*
X8520000Y-4480000D02*
X8480000Y-4520000D01*
X8480000Y-4980000D02*
X8520000Y-5020000D01*
X8520000Y-4980000D02*
X8480000Y-5020000D01*
X8480000Y-5480000D02*
X8520000Y-5520000D01*
X8520000Y-5480000D02*
X8480000Y-5520000D01*
X8480000Y-5980000D02*
X8520000Y-6020000D01*
X8520000Y-5980000D02*
X8480000Y-6020000D01*
X8480000Y-6480000D02*
X8520000Y-6520000D01*
X8520000Y-6480000D02*
X8480000Y-6520000D01*
X8480000Y-6980000D02*
X8520000Y-7020000D01*
X8520000Y-6980000D02*
X8480000Y-7020000D01*
X8480000Y-9980000D02*
X8520000Y-10020000D01*
X8520000Y-9980000D02*
X8480000Y-10020000D01*
X8980000Y-3480000D02*
X9020000Y-3520000D01*
X9020000Y-3480000D02*
X8980000Y-3520000D01*
X8980000Y-3980000D02*
X9020000Y-4020000D01*
X9020000Y-3980000D02*
X8980000Y-4020000D01*
X8980000Y-4480000D02*
X9020000Y-4520000D01*
X9020000Y-4480000D02*
X8980000Y-4520000D01*
X8980000Y-4980000D02*
X9020000Y-5020000D01*
X9020000Y-4980000D02*
X8980000Y-5020000D01*
X8980000Y-5480000D02*
X9020000Y-5520000D01*
X9020000Y-5480000D02*
X8980000Y-5520000D01*
X8980000Y-5980000D02*
X9020000Y-6020000D01*
X9020000Y-5980000D02*
X8980000Y-6020000D01*
X8980000Y-6480000D02*
X9020000Y-6520000D01*
X9020000Y-6480000D02*
X8980000Y-6520000D01*
X8980000Y-6980000D02*
X9020000Y-7020000D01*
X9020000Y-6980000D02*
X8980000Y-7020000D01*
X8980000Y-9980000D02*
X9020000Y-10020000D01*
X9020000Y-9980000D02*
X8980000Y-10020000D01*
X8980000Y-10480000D02*
X9020000Y-10520000D01*
X9020000Y-10480000D02*
X8980000Y-10520000D01*
X8980000Y-10980000D02*
X9020000Y-11020000D01*
X9020000Y-10980000D02*
X8980000Y-11020000D01*
X9080000Y-7480000D02*
X9120000Y-7520000D01*
X9120000Y-7480000D02*
X9080000Y-7520000D01*
X9080000Y-7880000D02*
X9120000Y-7920000D01*
X9120000Y-7880000D02*
X9080000Y-7920000D01*
X9080000Y-8280000D02*
X9120000Y-8320000D01*
X9120000Y-8280000D02*
X9080000Y-8320000D01*
X9480000Y-3480000D02*
X9520000Y-3520000D01*
X9520000Y-3480000D02*
X9480000Y-3520000D01*
X9480000Y-5055000D02*
X9520000Y-5095000D01*
X9520000Y-5055000D02*
X9480000Y-5095000D01*
X9480000Y-5180000D02*
X9520000Y-5220000D01*
X9520000Y-5180000D02*
X9480000Y-5220000D01*
X9480000Y-5305000D02*
X9520000Y-5345000D01*
X9520000Y-5305000D02*
X9480000Y-5345000D01*
X9480000Y-5430000D02*
X9520000Y-5470000D01*
X9520000Y-5430000D02*
X9480000Y-5470000D01*
X9480000Y-5555000D02*
X9520000Y-5595000D01*
X9520000Y-5555000D02*
X9480000Y-5595000D01*
X9480000Y-5680000D02*
X9520000Y-5720000D01*
X9520000Y-5680000D02*
X9480000Y-5720000D01*
X9480000Y-6480000D02*
X9520000Y-6520000D01*
X9520000Y-6480000D02*
X9480000Y-6520000D01*
X9480000Y-6980000D02*
X9520000Y-7020000D01*
X9520000Y-6980000D02*
X9480000Y-7020000D01*
X9480000Y-7480000D02*
X9520000Y-7520000D01*
X9520000Y-7480000D02*
X9480000Y-7520000D01*
X9480000Y-10480000D02*
X9520000Y-10520000D01*
X9520000Y-10480000D02*
X9480000Y-10520000D01*
X9480000Y-10980000D02*
X9520000Y-11020000D01*
X9520000Y-10980000D02*
X9480000Y-11020000D01*
X9780000Y-6980000D02*
X9820000Y-7020000D01*
X9820000Y-6980000D02*
X9780000Y-7020000D01*
X9780000Y-7480000D02*
X9820000Y-7520000D01*
X9820000Y-7480000D02*
X9780000Y-7520000D01*
X9780000Y-8180000D02*
X9820000Y-8220000D01*
X9820000Y-8180000D02*
X9780000Y-8220000D01*
X9780000Y-8580000D02*
X9820000Y-8620000D01*
X9820000Y-8580000D02*
X9780000Y-8620000D01*
X9980000Y-3480000D02*
X10020000Y-3520000D01*
X10020000Y-3480000D02*
X9980000Y-3520000D01*
X9980000Y-10480000D02*
X10020000Y-10520000D01*
X10020000Y-10480000D02*
X9980000Y-10520000D01*
X9980000Y-10980000D02*
X10020000Y-11020000D01*
X10020000Y-10980000D02*
X9980000Y-11020000D01*
X10005000Y-5055000D02*
X10045000Y-5095000D01*
X10045000Y-5055000D02*
X10005000Y-5095000D01*
X10005000Y-5180000D02*
X10045000Y-5220000D01*
X10045000Y-5180000D02*
X10005000Y-5220000D01*
X10005000Y-5305000D02*
X10045000Y-5345000D01*
X10045000Y-5305000D02*
X10005000Y-5345000D01*
X10005000Y-5555000D02*
X10045000Y-5595000D01*
X10045000Y-5555000D02*
X10005000Y-5595000D01*
X10005000Y-5680000D02*
X10045000Y-5720000D01*
X10045000Y-5680000D02*
X10005000Y-5720000D01*
X10005000Y-5805000D02*
X10045000Y-5845000D01*
X10045000Y-5805000D02*
X10005000Y-5845000D01*
X10480000Y-6480000D02*
X10520000Y-6520000D01*
X10520000Y-6480000D02*
X10480000Y-6520000D01*
X10480000Y-6980000D02*
X10520000Y-7020000D01*
X10520000Y-6980000D02*
X10480000Y-7020000D01*
X10480000Y-7380000D02*
X10520000Y-7420000D01*
X10520000Y-7380000D02*
X10480000Y-7420000D01*
X10480000Y-7530000D02*
X10520000Y-7570000D01*
X10520000Y-7530000D02*
X10480000Y-7570000D01*
X10480000Y-7680000D02*
X10520000Y-7720000D01*
X10520000Y-7680000D02*
X10480000Y-7720000D01*
X10480000Y-7830000D02*
X10520000Y-7870000D01*
X10520000Y-7830000D02*
X10480000Y-7870000D01*
X10480000Y-7980000D02*
X10520000Y-8020000D01*
X10520000Y-7980000D02*
X10480000Y-8020000D01*
X10480000Y-8130000D02*
X10520000Y-8170000D01*
X10520000Y-8130000D02*
X10480000Y-8170000D01*
X10480000Y-8280000D02*
X10520000Y-8320000D01*
X10520000Y-8280000D02*
X10480000Y-8320000D01*
X10480000Y-8680000D02*
X10520000Y-8720000D01*
X10520000Y-8680000D02*
X10480000Y-8720000D01*
X10480000Y-10480000D02*
X10520000Y-10520000D01*
X10520000Y-10480000D02*
X10480000Y-10520000D01*
X10480000Y-10980000D02*
X10520000Y-11020000D01*
X10520000Y-10980000D02*
X10480000Y-11020000D01*
X10980000Y-4480000D02*
X11020000Y-4520000D01*
X11020000Y-4480000D02*
X10980000Y-4520000D01*
X10980000Y-4980000D02*
X11020000Y-5020000D01*
X11020000Y-4980000D02*
X10980000Y-5020000D01*
X10980000Y-5480000D02*
X11020000Y-5520000D01*
X11020000Y-5480000D02*
X10980000Y-5520000D01*
X10980000Y-8680000D02*
X11020000Y-8720000D01*
X11020000Y-8680000D02*
X10980000Y-8720000D01*
X10980000Y-9980000D02*
X11020000Y-10020000D01*
X11020000Y-9980000D02*
X10980000Y-10020000D01*
X10980000Y-10480000D02*
X11020000Y-10520000D01*
X11020000Y-10480000D02*
X10980000Y-10520000D01*
X10980000Y-10980000D02*
X11020000Y-11020000D01*
X11020000Y-10980000D02*
X10980000Y-11020000D01*
X11280000Y-8980000D02*
X11320000Y-9020000D01*
X11320000Y-8980000D02*
X11280000Y-9020000D01*
X11280000Y-9480000D02*
X11320000Y-9520000D01*
X11320000Y-9480000D02*
X11280000Y-9520000D01*
X11480000Y-5480000D02*
X11520000Y-5520000D01*
X11520000Y-5480000D02*
X11480000Y-5520000D01*
X11480000Y-5980000D02*
X11520000Y-6020000D01*
X11520000Y-5980000D02*
X11480000Y-6020000D01*
X11480000Y-9980000D02*
X11520000Y-10020000D01*
X11520000Y-9980000D02*
X11480000Y-10020000D01*
X11480000Y-10480000D02*
X11520000Y-10520000D01*
X11520000Y-10480000D02*
X11480000Y-10520000D01*
X11480000Y-10980000D02*
X11520000Y-11020000D01*
X11520000Y-10980000D02*
X11480000Y-11020000D01*
X11530000Y-6140000D02*
X11570000Y-6180000D01*
X11570000Y-6140000D02*
X11530000Y-6180000D01*
X11530000Y-6280000D02*
X11570000Y-6320000D01*
X11570000Y-6280000D02*
X11530000Y-6320000D01*
X11530000Y-6480000D02*
X11570000Y-6520000D01*
X11570000Y-6480000D02*
X11530000Y-6520000D01*
X11530000Y-6630000D02*
X11570000Y-6670000D01*
X11570000Y-6630000D02*
X11530000Y-6670000D01*
X11530000Y-6780000D02*
X11570000Y-6820000D01*
X11570000Y-6780000D02*
X11530000Y-6820000D01*
X11530000Y-6930000D02*
X11570000Y-6970000D01*
X11570000Y-6930000D02*
X11530000Y-6970000D01*
X11530000Y-7080000D02*
X11570000Y-7120000D01*
X11570000Y-7080000D02*
X11530000Y-7120000D01*
X11530000Y-7230000D02*
X11570000Y-7270000D01*
X11570000Y-7230000D02*
X11530000Y-7270000D01*
X11530000Y-7380000D02*
X11570000Y-7420000D01*
X11570000Y-7380000D02*
X11530000Y-7420000D01*
X11530000Y-8330000D02*
X11570000Y-8370000D01*
X11570000Y-8330000D02*
X11530000Y-8370000D01*
X11530000Y-8480000D02*
X11570000Y-8520000D01*
X11570000Y-8480000D02*
X11530000Y-8520000D01*
X11530000Y-8630000D02*
X11570000Y-8670000D01*
X11570000Y-8630000D02*
X11530000Y-8670000D01*
X11530000Y-8780000D02*
X11570000Y-8820000D01*
X11570000Y-8780000D02*
X11530000Y-8820000D01*
X11530000Y-8930000D02*
X11570000Y-8970000D01*
X11570000Y-8930000D02*
X11530000Y-8970000D01*
X11530000Y-9080000D02*
X11570000Y-9120000D01*
X11570000Y-9080000D02*
X11530000Y-9120000D01*
X11530000Y-9230000D02*
X11570000Y-9270000D01*
X11570000Y-9230000D02*
X11530000Y-9270000D01*
X11530000Y-9380000D02*
X11570000Y-9420000D01*
X11570000Y-9380000D02*
X11530000Y-9420000D01*
X11530000Y-9530000D02*
X11570000Y-9570000D01*
X11570000Y-9530000D02*
X11530000Y-9570000D01*
X11530000Y-9660000D02*
X11570000Y-9700000D01*
X11570000Y-9660000D02*
X11530000Y-9700000D01*
X11680000Y-6140000D02*
X11720000Y-6180000D01*
X11720000Y-6140000D02*
X11680000Y-6180000D01*
X11680000Y-9660000D02*
X11720000Y-9700000D01*
X11720000Y-9660000D02*
X11680000Y-9700000D01*
X11830000Y-6140000D02*
X11870000Y-6180000D01*
X11870000Y-6140000D02*
X11830000Y-6180000D01*
X11830000Y-9660000D02*
X11870000Y-9700000D01*
X11870000Y-9660000D02*
X11830000Y-9700000D01*
X11980000Y-5480000D02*
X12020000Y-5520000D01*
X12020000Y-5480000D02*
X11980000Y-5520000D01*
X11980000Y-5980000D02*
X12020000Y-6020000D01*
X12020000Y-5980000D02*
X11980000Y-6020000D01*
X11980000Y-6140000D02*
X12020000Y-6180000D01*
X12020000Y-6140000D02*
X11980000Y-6180000D01*
X11980000Y-9660000D02*
X12020000Y-9700000D01*
X12020000Y-9660000D02*
X11980000Y-9700000D01*
X11980000Y-10480000D02*
X12020000Y-10520000D01*
X12020000Y-10480000D02*
X11980000Y-10520000D01*
X11980000Y-10980000D02*
X12020000Y-11020000D01*
X12020000Y-10980000D02*
X11980000Y-11020000D01*
X12130000Y-6140000D02*
X12170000Y-6180000D01*
X12170000Y-6140000D02*
X12130000Y-6180000D01*
X12130000Y-9660000D02*
X12170000Y-9700000D01*
X12170000Y-9660000D02*
X12130000Y-9700000D01*
X12290000Y-6140000D02*
X12330000Y-6180000D01*
X12330000Y-6140000D02*
X12290000Y-6180000D01*
X12290000Y-9660000D02*
X12330000Y-9700000D01*
X12330000Y-9660000D02*
X12290000Y-9700000D01*
X12440000Y-6140000D02*
X12480000Y-6180000D01*
X12480000Y-6140000D02*
X12440000Y-6180000D01*
X12440000Y-9660000D02*
X12480000Y-9700000D01*
X12480000Y-9660000D02*
X12440000Y-9700000D01*
X12480000Y-3480000D02*
X12520000Y-3520000D01*
X12520000Y-3480000D02*
X12480000Y-3520000D01*
X12480000Y-10480000D02*
X12520000Y-10520000D01*
X12520000Y-10480000D02*
X12480000Y-10520000D01*
X12480000Y-10980000D02*
X12520000Y-11020000D01*
X12520000Y-10980000D02*
X12480000Y-11020000D01*
X12590000Y-6140000D02*
X12630000Y-6180000D01*
X12630000Y-6140000D02*
X12590000Y-6180000D01*
X12590000Y-9660000D02*
X12630000Y-9700000D01*
X12630000Y-9660000D02*
X12590000Y-9700000D01*
X12760000Y-6140000D02*
X12800000Y-6180000D01*
X12800000Y-6140000D02*
X12760000Y-6180000D01*
X12760000Y-9660000D02*
X12800000Y-9700000D01*
X12800000Y-9660000D02*
X12760000Y-9700000D01*
X12855000Y-9530000D02*
X12895000Y-9570000D01*
X12895000Y-9530000D02*
X12855000Y-9570000D01*
X12955000Y-6230000D02*
X12995000Y-6270000D01*
X12995000Y-6230000D02*
X12955000Y-6270000D01*
X12980000Y-3480000D02*
X13020000Y-3520000D01*
X13020000Y-3480000D02*
X12980000Y-3520000D01*
X12980000Y-3980000D02*
X13020000Y-4020000D01*
X13020000Y-3980000D02*
X12980000Y-4020000D01*
X12980000Y-9600000D02*
X13020000Y-9640000D01*
X13020000Y-9600000D02*
X12980000Y-9640000D01*
X12980000Y-9980000D02*
X13020000Y-10020000D01*
X13020000Y-9980000D02*
X12980000Y-10020000D01*
X12980000Y-10480000D02*
X13020000Y-10520000D01*
X13020000Y-10480000D02*
X12980000Y-10520000D01*
X12980000Y-10980000D02*
X13020000Y-11020000D01*
X13020000Y-10980000D02*
X12980000Y-11020000D01*
X13005000Y-9380000D02*
X13045000Y-9420000D01*
X13045000Y-9380000D02*
X13005000Y-9420000D01*
X13100000Y-5460000D02*
X13140000Y-5500000D01*
X13140000Y-5460000D02*
X13100000Y-5500000D01*
X13100000Y-5980000D02*
X13140000Y-6020000D01*
X13140000Y-5980000D02*
X13100000Y-6020000D01*
X13100000Y-6400000D02*
X13140000Y-6440000D01*
X13140000Y-6400000D02*
X13100000Y-6440000D01*
X13155000Y-9205000D02*
X13195000Y-9245000D01*
X13195000Y-9205000D02*
X13155000Y-9245000D01*
X13280000Y-6605000D02*
X13320000Y-6645000D01*
X13320000Y-6605000D02*
X13280000Y-6645000D01*
X13280000Y-9040000D02*
X13320000Y-9080000D01*
X13320000Y-9040000D02*
X13280000Y-9080000D01*
X13430000Y-9040000D02*
X13470000Y-9080000D01*
X13470000Y-9040000D02*
X13430000Y-9080000D01*
X13480000Y-4980000D02*
X13520000Y-5020000D01*
X13520000Y-4980000D02*
X13480000Y-5020000D01*
X13480000Y-9240000D02*
X13520000Y-9280000D01*
X13520000Y-9240000D02*
X13480000Y-9280000D01*
X13480000Y-9600000D02*
X13520000Y-9640000D01*
X13520000Y-9600000D02*
X13480000Y-9640000D01*
X13480000Y-9980000D02*
X13520000Y-10020000D01*
X13520000Y-9980000D02*
X13480000Y-10020000D01*
X13480000Y-10480000D02*
X13520000Y-10520000D01*
X13520000Y-10480000D02*
X13480000Y-10520000D01*
X13480000Y-10980000D02*
X13520000Y-11020000D01*
X13520000Y-10980000D02*
X13480000Y-11020000D01*
X13493102Y-5466898D02*
X13533102Y-5506898D01*
X13533102Y-5466898D02*
X13493102Y-5506898D01*
X13505000Y-5980000D02*
X13545000Y-6020000D01*
X13545000Y-5980000D02*
X13505000Y-6020000D01*
X13505000Y-6400000D02*
X13545000Y-6440000D01*
X13545000Y-6400000D02*
X13505000Y-6440000D01*
X13505000Y-6780000D02*
X13545000Y-6820000D01*
X13545000Y-6780000D02*
X13505000Y-6820000D01*
X13580000Y-9040000D02*
X13620000Y-9080000D01*
X13620000Y-9040000D02*
X13580000Y-9080000D01*
X13740000Y-9040000D02*
X13780000Y-9080000D01*
X13780000Y-9040000D02*
X13740000Y-9080000D01*
X13890000Y-9040000D02*
X13930000Y-9080000D01*
X13930000Y-9040000D02*
X13890000Y-9080000D01*
X13905000Y-4980000D02*
X13945000Y-5020000D01*
X13945000Y-4980000D02*
X13905000Y-5020000D01*
X13980000Y-5480000D02*
X14020000Y-5520000D01*
X14020000Y-5480000D02*
X13980000Y-5520000D01*
X13980000Y-5980000D02*
X14020000Y-6020000D01*
X14020000Y-5980000D02*
X13980000Y-6020000D01*
X13980000Y-6400000D02*
X14020000Y-6440000D01*
X14020000Y-6400000D02*
X13980000Y-6440000D01*
X13980000Y-6780000D02*
X14020000Y-6820000D01*
X14020000Y-6780000D02*
X13980000Y-6820000D01*
X13980000Y-9240000D02*
X14020000Y-9280000D01*
X14020000Y-9240000D02*
X13980000Y-9280000D01*
X13980000Y-9600000D02*
X14020000Y-9640000D01*
X14020000Y-9600000D02*
X13980000Y-9640000D01*
X13980000Y-9980000D02*
X14020000Y-10020000D01*
X14020000Y-9980000D02*
X13980000Y-10020000D01*
X13980000Y-10480000D02*
X14020000Y-10520000D01*
X14020000Y-10480000D02*
X13980000Y-10520000D01*
X13980000Y-10980000D02*
X14020000Y-11020000D01*
X14020000Y-10980000D02*
X13980000Y-11020000D01*
X14030000Y-7210000D02*
X14070000Y-7250000D01*
X14070000Y-7210000D02*
X14030000Y-7250000D01*
X14040000Y-8620000D02*
X14080000Y-8660000D01*
X14080000Y-8620000D02*
X14040000Y-8660000D01*
X14040000Y-9040000D02*
X14080000Y-9080000D01*
X14080000Y-9040000D02*
X14040000Y-9080000D01*
X14080000Y-7100000D02*
X14120000Y-7140000D01*
X14120000Y-7100000D02*
X14080000Y-7140000D01*
X14120000Y-8740000D02*
X14160000Y-8780000D01*
X14160000Y-8740000D02*
X14120000Y-8780000D01*
X14120000Y-8900000D02*
X14160000Y-8940000D01*
X14160000Y-8900000D02*
X14120000Y-8940000D01*
X14180000Y-7210000D02*
X14220000Y-7250000D01*
X14220000Y-7210000D02*
X14180000Y-7250000D01*
X14190000Y-8620000D02*
X14230000Y-8660000D01*
X14230000Y-8620000D02*
X14190000Y-8660000D01*
X14230000Y-7100000D02*
X14270000Y-7140000D01*
X14270000Y-7100000D02*
X14230000Y-7140000D01*
X14270000Y-8740000D02*
X14310000Y-8780000D01*
X14310000Y-8740000D02*
X14270000Y-8780000D01*
X14330000Y-7210000D02*
X14370000Y-7250000D01*
X14370000Y-7210000D02*
X14330000Y-7250000D01*
X14340000Y-6140000D02*
X14380000Y-6180000D01*
X14380000Y-6140000D02*
X14340000Y-6180000D01*
X14340000Y-6340000D02*
X14380000Y-6380000D01*
X14380000Y-6340000D02*
X14340000Y-6380000D01*
X14340000Y-6520000D02*
X14380000Y-6560000D01*
X14380000Y-6520000D02*
X14340000Y-6560000D01*
X14340000Y-6700000D02*
X14380000Y-6740000D01*
X14380000Y-6700000D02*
X14340000Y-6740000D01*
X14340000Y-6860000D02*
X14380000Y-6900000D01*
X14380000Y-6860000D02*
X14340000Y-6900000D01*
X14340000Y-7000000D02*
X14380000Y-7040000D01*
X14380000Y-7000000D02*
X14340000Y-7040000D01*
X14340000Y-8620000D02*
X14380000Y-8660000D01*
X14380000Y-8620000D02*
X14340000Y-8660000D01*
X14380000Y-7100000D02*
X14420000Y-7140000D01*
X14420000Y-7100000D02*
X14380000Y-7140000D01*
X14420000Y-8740000D02*
X14460000Y-8780000D01*
X14460000Y-8740000D02*
X14420000Y-8780000D01*
X14480000Y-5105000D02*
X14520000Y-5145000D01*
X14520000Y-5105000D02*
X14480000Y-5145000D01*
X14480000Y-5480000D02*
X14520000Y-5520000D01*
X14520000Y-5480000D02*
X14480000Y-5520000D01*
X14480000Y-5980000D02*
X14520000Y-6020000D01*
X14520000Y-5980000D02*
X14480000Y-6020000D01*
X14480000Y-7210000D02*
X14520000Y-7250000D01*
X14520000Y-7210000D02*
X14480000Y-7250000D01*
X14480000Y-9240000D02*
X14520000Y-9280000D01*
X14520000Y-9240000D02*
X14480000Y-9280000D01*
X14480000Y-9600000D02*
X14520000Y-9640000D01*
X14520000Y-9600000D02*
X14480000Y-9640000D01*
X14480000Y-9980000D02*
X14520000Y-10020000D01*
X14520000Y-9980000D02*
X14480000Y-10020000D01*
X14480000Y-10480000D02*
X14520000Y-10520000D01*
X14520000Y-10480000D02*
X14480000Y-10520000D01*
X14480000Y-10980000D02*
X14520000Y-11020000D01*
X14520000Y-10980000D02*
X14480000Y-11020000D01*
X14490000Y-8620000D02*
X14530000Y-8660000D01*
X14530000Y-8620000D02*
X14490000Y-8660000D01*
X14530000Y-7100000D02*
X14570000Y-7140000D01*
X14570000Y-7100000D02*
X14530000Y-7140000D01*
X14570000Y-8740000D02*
X14610000Y-8780000D01*
X14610000Y-8740000D02*
X14570000Y-8780000D01*
X14640000Y-8620000D02*
X14680000Y-8660000D01*
X14680000Y-8620000D02*
X14640000Y-8660000D01*
X14720000Y-8740000D02*
X14760000Y-8780000D01*
X14760000Y-8740000D02*
X14720000Y-8780000D01*
X14790000Y-8620000D02*
X14830000Y-8660000D01*
X14830000Y-8620000D02*
X14790000Y-8660000D01*
X14870000Y-8740000D02*
X14910000Y-8780000D01*
X14910000Y-8740000D02*
X14870000Y-8780000D01*
X14940000Y-8620000D02*
X14980000Y-8660000D01*
X14980000Y-8620000D02*
X14940000Y-8660000D01*
X14980000Y-8880000D02*
X15020000Y-8920000D01*
X15020000Y-8880000D02*
X14980000Y-8920000D01*
X14980000Y-9240000D02*
X15020000Y-9280000D01*
X15020000Y-9240000D02*
X14980000Y-9280000D01*
X14980000Y-9600000D02*
X15020000Y-9640000D01*
X15020000Y-9600000D02*
X14980000Y-9640000D01*
X14980000Y-9980000D02*
X15020000Y-10020000D01*
X15020000Y-9980000D02*
X14980000Y-10020000D01*
X14980000Y-10480000D02*
X15020000Y-10520000D01*
X15020000Y-10480000D02*
X14980000Y-10520000D01*
X14980000Y-10980000D02*
X15020000Y-11020000D01*
X15020000Y-10980000D02*
X14980000Y-11020000D01*
X15480000Y-8480000D02*
X15520000Y-8520000D01*
X15520000Y-8480000D02*
X15480000Y-8520000D01*
X15480000Y-8880000D02*
X15520000Y-8920000D01*
X15520000Y-8880000D02*
X15480000Y-8920000D01*
X15480000Y-9240000D02*
X15520000Y-9280000D01*
X15520000Y-9240000D02*
X15480000Y-9280000D01*
X15480000Y-9600000D02*
X15520000Y-9640000D01*
X15520000Y-9600000D02*
X15480000Y-9640000D01*
X15480000Y-9980000D02*
X15520000Y-10020000D01*
X15520000Y-9980000D02*
X15480000Y-10020000D01*
X15480000Y-10480000D02*
X15520000Y-10520000D01*
X15520000Y-10480000D02*
X15480000Y-10520000D01*
X15480000Y-10980000D02*
X15520000Y-11020000D01*
X15520000Y-10980000D02*
X15480000Y-11020000D01*
X15700000Y-4480000D02*
X15740000Y-4520000D01*
X15740000Y-4480000D02*
X15700000Y-4520000D01*
X15700000Y-4980000D02*
X15740000Y-5020000D01*
X15740000Y-4980000D02*
X15700000Y-5020000D01*
X15705000Y-5480000D02*
X15745000Y-5520000D01*
X15745000Y-5480000D02*
X15705000Y-5520000D01*
X15705000Y-5980000D02*
X15745000Y-6020000D01*
X15745000Y-5980000D02*
X15705000Y-6020000D01*
X15980000Y-3980000D02*
X16020000Y-4020000D01*
X16020000Y-3980000D02*
X15980000Y-4020000D01*
X15980000Y-4480000D02*
X16020000Y-4520000D01*
X16020000Y-4480000D02*
X15980000Y-4520000D01*
X15980000Y-4980000D02*
X16020000Y-5020000D01*
X16020000Y-4980000D02*
X15980000Y-5020000D01*
X15980000Y-5480000D02*
X16020000Y-5520000D01*
X16020000Y-5480000D02*
X15980000Y-5520000D01*
X15980000Y-5980000D02*
X16020000Y-6020000D01*
X16020000Y-5980000D02*
X15980000Y-6020000D01*
X15980000Y-6430000D02*
X16020000Y-6470000D01*
X16020000Y-6430000D02*
X15980000Y-6470000D01*
X15980000Y-6880000D02*
X16020000Y-6920000D01*
X16020000Y-6880000D02*
X15980000Y-6920000D01*
X15980000Y-7260000D02*
X16020000Y-7300000D01*
X16020000Y-7260000D02*
X15980000Y-7300000D01*
X15980000Y-7640000D02*
X16020000Y-7680000D01*
X16020000Y-7640000D02*
X15980000Y-7680000D01*
X15980000Y-8000000D02*
X16020000Y-8040000D01*
X16020000Y-8000000D02*
X15980000Y-8040000D01*
X15980000Y-8480000D02*
X16020000Y-8520000D01*
X16020000Y-8480000D02*
X15980000Y-8520000D01*
X15980000Y-8880000D02*
X16020000Y-8920000D01*
X16020000Y-8880000D02*
X15980000Y-8920000D01*
X15980000Y-9240000D02*
X16020000Y-9280000D01*
X16020000Y-9240000D02*
X15980000Y-9280000D01*
X15980000Y-9600000D02*
X16020000Y-9640000D01*
X16020000Y-9600000D02*
X15980000Y-9640000D01*
X15980000Y-9980000D02*
X16020000Y-10020000D01*
X16020000Y-9980000D02*
X15980000Y-10020000D01*
X15980000Y-10480000D02*
X16020000Y-10520000D01*
X16020000Y-10480000D02*
X15980000Y-10520000D01*
X15980000Y-10980000D02*
X16020000Y-11020000D01*
X16020000Y-10980000D02*
X15980000Y-11020000D01*
X16480000Y-3980000D02*
X16520000Y-4020000D01*
X16520000Y-3980000D02*
X16480000Y-4020000D01*
X16480000Y-4480000D02*
X16520000Y-4520000D01*
X16520000Y-4480000D02*
X16480000Y-4520000D01*
X16480000Y-4980000D02*
X16520000Y-5020000D01*
X16520000Y-4980000D02*
X16480000Y-5020000D01*
X16480000Y-5480000D02*
X16520000Y-5520000D01*
X16520000Y-5480000D02*
X16480000Y-5520000D01*
X16480000Y-5980000D02*
X16520000Y-6020000D01*
X16520000Y-5980000D02*
X16480000Y-6020000D01*
X16480000Y-6480000D02*
X16520000Y-6520000D01*
X16520000Y-6480000D02*
X16480000Y-6520000D01*
X16480000Y-6880000D02*
X16520000Y-6920000D01*
X16520000Y-6880000D02*
X16480000Y-6920000D01*
X16480000Y-7640000D02*
X16520000Y-7680000D01*
X16520000Y-7640000D02*
X16480000Y-7680000D01*
X16480000Y-7980000D02*
X16520000Y-8020000D01*
X16520000Y-7980000D02*
X16480000Y-8020000D01*
X16480000Y-8480000D02*
X16520000Y-8520000D01*
X16520000Y-8480000D02*
X16480000Y-8520000D01*
X16480000Y-8980000D02*
X16520000Y-9020000D01*
X16520000Y-8980000D02*
X16480000Y-9020000D01*
X16480000Y-9480000D02*
X16520000Y-9520000D01*
X16520000Y-9480000D02*
X16480000Y-9520000D01*
X16480000Y-9980000D02*
X16520000Y-10020000D01*
X16520000Y-9980000D02*
X16480000Y-10020000D01*
X16480000Y-10480000D02*
X16520000Y-10520000D01*
X16520000Y-10480000D02*
X16480000Y-10520000D01*
X16480000Y-10980000D02*
X16520000Y-11020000D01*
X16520000Y-10980000D02*
X16480000Y-11020000D01*
X16980000Y-3980000D02*
X17020000Y-4020000D01*
X17020000Y-3980000D02*
X16980000Y-4020000D01*
X16980000Y-4480000D02*
X17020000Y-4520000D01*
X17020000Y-4480000D02*
X16980000Y-4520000D01*
X16980000Y-4980000D02*
X17020000Y-5020000D01*
X17020000Y-4980000D02*
X16980000Y-5020000D01*
X16980000Y-5480000D02*
X17020000Y-5520000D01*
X17020000Y-5480000D02*
X16980000Y-5520000D01*
X16980000Y-5980000D02*
X17020000Y-6020000D01*
X17020000Y-5980000D02*
X16980000Y-6020000D01*
X16980000Y-6480000D02*
X17020000Y-6520000D01*
X17020000Y-6480000D02*
X16980000Y-6520000D01*
X16980000Y-6880000D02*
X17020000Y-6920000D01*
X17020000Y-6880000D02*
X16980000Y-6920000D01*
X16980000Y-7640000D02*
X17020000Y-7680000D01*
X17020000Y-7640000D02*
X16980000Y-7680000D01*
X16980000Y-7980000D02*
X17020000Y-8020000D01*
X17020000Y-7980000D02*
X16980000Y-8020000D01*
X16980000Y-8980000D02*
X17020000Y-9020000D01*
X17020000Y-8980000D02*
X16980000Y-9020000D01*
X16980000Y-9480000D02*
X17020000Y-9520000D01*
X17020000Y-9480000D02*
X16980000Y-9520000D01*
X16980000Y-9980000D02*
X17020000Y-10020000D01*
X17020000Y-9980000D02*
X16980000Y-10020000D01*
X16980000Y-10480000D02*
X17020000Y-10520000D01*
X17020000Y-10480000D02*
X16980000Y-10520000D01*
X16980000Y-10980000D02*
X17020000Y-11020000D01*
X17020000Y-10980000D02*
X16980000Y-11020000D01*
X17480000Y-3980000D02*
X17520000Y-4020000D01*
X17520000Y-3980000D02*
X17480000Y-4020000D01*
X17480000Y-4480000D02*
X17520000Y-4520000D01*
X17520000Y-4480000D02*
X17480000Y-4520000D01*
X17480000Y-4980000D02*
X17520000Y-5020000D01*
X17520000Y-4980000D02*
X17480000Y-5020000D01*
X17480000Y-5480000D02*
X17520000Y-5520000D01*
X17520000Y-5480000D02*
X17480000Y-5520000D01*
X17480000Y-5980000D02*
X17520000Y-6020000D01*
X17520000Y-5980000D02*
X17480000Y-6020000D01*
X17480000Y-6480000D02*
X17520000Y-6520000D01*
X17520000Y-6480000D02*
X17480000Y-6520000D01*
X17480000Y-7980000D02*
X17520000Y-8020000D01*
X17520000Y-7980000D02*
X17480000Y-8020000D01*
X17480000Y-8480000D02*
X17520000Y-8520000D01*
X17520000Y-8480000D02*
X17480000Y-8520000D01*
X17480000Y-8980000D02*
X17520000Y-9020000D01*
X17520000Y-8980000D02*
X17480000Y-9020000D01*
X17480000Y-9480000D02*
X17520000Y-9520000D01*
X17520000Y-9480000D02*
X17480000Y-9520000D01*
X17480000Y-9980000D02*
X17520000Y-10020000D01*
X17520000Y-9980000D02*
X17480000Y-10020000D01*
D13*
X11559500Y-3490000D02*
G75*
G03*
X11559500Y-3490000I-59500J0D01*
G01*
X11813500Y-3490000D02*
G75*
G03*
X11813500Y-3490000I-59500J0D01*
G01*
X13609500Y-3500000D02*
G75*
G03*
X13609500Y-3500000I-59500J0D01*
G01*
X13863500Y-3500000D02*
G75*
G03*
X13863500Y-3500000I-59500J0D01*
G01*
D14*
X8246000Y-7480976D02*
X8246000Y-7611024D01*
X8180976Y-7546000D02*
X8311024Y-7546000D01*
X8246000Y-7988976D02*
X8246000Y-8119024D01*
X8180976Y-8054000D02*
X8311024Y-8054000D01*
X8500000Y-7734976D02*
X8500000Y-7865024D01*
X8434976Y-7800000D02*
X8565024Y-7800000D01*
X8754000Y-7480976D02*
X8754000Y-7611024D01*
X8688976Y-7546000D02*
X8819024Y-7546000D01*
X8754000Y-7988976D02*
X8754000Y-8119024D01*
X8688976Y-8054000D02*
X8819024Y-8054000D01*
X17346000Y-6960976D02*
X17346000Y-7091024D01*
X17280976Y-7026000D02*
X17411024Y-7026000D01*
X17346000Y-7468976D02*
X17346000Y-7599024D01*
X17280976Y-7534000D02*
X17411024Y-7534000D01*
X17600000Y-7214976D02*
X17600000Y-7345024D01*
X17534976Y-7280000D02*
X17665024Y-7280000D01*
X17854000Y-6960976D02*
X17854000Y-7091024D01*
X17788976Y-7026000D02*
X17919024Y-7026000D01*
X17854000Y-7468976D02*
X17854000Y-7599024D01*
X17788976Y-7534000D02*
X17919024Y-7534000D01*
D11*
X13493961Y-7795711D02*
X13493961Y-7654289D01*
X13352539Y-7654289D01*
X13352539Y-7795711D01*
X13493961Y-7795711D01*
X13493961Y-8195711D02*
X13493961Y-8054289D01*
X13352539Y-8054289D01*
X13352539Y-8195711D01*
X13493961Y-8195711D01*
D15*
X8500000Y-3660000D02*
X8660000Y-3500000D01*
X8500000Y-3340000D01*
X8340000Y-3500000D01*
X8500000Y-3660000D01*
X8500000Y-10760000D02*
X8660000Y-10600000D01*
X8500000Y-10440000D01*
X8340000Y-10600000D01*
X8500000Y-10760000D01*
X12400000Y-5910000D02*
X12560000Y-5750000D01*
X12400000Y-5590000D01*
X12240000Y-5750000D01*
X12400000Y-5910000D01*
X12400000Y-10210000D02*
X12560000Y-10050000D01*
X12400000Y-9890000D01*
X12240000Y-10050000D01*
X12400000Y-10210000D01*
X15100000Y-3710000D02*
X15260000Y-3550000D01*
X15100000Y-3390000D01*
X14940000Y-3550000D01*
X15100000Y-3710000D01*
X16300000Y-3660000D02*
X16460000Y-3500000D01*
X16300000Y-3340000D01*
X16140000Y-3500000D01*
X16300000Y-3660000D01*
X17500000Y-3660000D02*
X17660000Y-3500000D01*
X17500000Y-3340000D01*
X17340000Y-3500000D01*
X17500000Y-3660000D01*
X17500000Y-10760000D02*
X17660000Y-10600000D01*
X17500000Y-10440000D01*
X17340000Y-10600000D01*
X17500000Y-10760000D01*
D11*
X8252619Y-11415476D02*
X8252619Y-11215476D01*
X8300238Y-11215476D01*
X8328809Y-11225000D01*
X8347857Y-11244048D01*
X8357381Y-11263095D01*
X8366905Y-11301190D01*
X8366905Y-11329762D01*
X8357381Y-11367857D01*
X8347857Y-11386905D01*
X8328809Y-11405952D01*
X8300238Y-11415476D01*
X8252619Y-11415476D01*
X8452619Y-11415476D02*
X8452619Y-11282143D01*
X8452619Y-11320238D02*
X8462143Y-11301190D01*
X8471667Y-11291667D01*
X8490714Y-11282143D01*
X8509762Y-11282143D01*
X8576429Y-11415476D02*
X8576429Y-11282143D01*
X8576429Y-11215476D02*
X8566905Y-11225000D01*
X8576429Y-11234524D01*
X8585952Y-11225000D01*
X8576429Y-11215476D01*
X8576429Y-11234524D01*
X8700238Y-11415476D02*
X8681190Y-11405952D01*
X8671667Y-11386905D01*
X8671667Y-11215476D01*
X8805000Y-11415476D02*
X8785952Y-11405952D01*
X8776429Y-11386905D01*
X8776429Y-11215476D01*
X9033571Y-11415476D02*
X9033571Y-11215476D01*
X9100238Y-11358333D01*
X9166905Y-11215476D01*
X9166905Y-11415476D01*
X9347857Y-11415476D02*
X9347857Y-11310714D01*
X9338333Y-11291667D01*
X9319286Y-11282143D01*
X9281190Y-11282143D01*
X9262143Y-11291667D01*
X9347857Y-11405952D02*
X9328810Y-11415476D01*
X9281190Y-11415476D01*
X9262143Y-11405952D01*
X9252619Y-11386905D01*
X9252619Y-11367857D01*
X9262143Y-11348809D01*
X9281190Y-11339286D01*
X9328810Y-11339286D01*
X9347857Y-11329762D01*
X9443095Y-11282143D02*
X9443095Y-11482143D01*
X9443095Y-11291667D02*
X9462143Y-11282143D01*
X9500238Y-11282143D01*
X9519286Y-11291667D01*
X9528810Y-11301190D01*
X9538333Y-11320238D01*
X9538333Y-11377381D01*
X9528810Y-11396428D01*
X9519286Y-11405952D01*
X9500238Y-11415476D01*
X9462143Y-11415476D01*
X9443095Y-11405952D01*
X9624048Y-11396428D02*
X9633571Y-11405952D01*
X9624048Y-11415476D01*
X9614524Y-11405952D01*
X9624048Y-11396428D01*
X9624048Y-11415476D01*
X9624048Y-11291667D02*
X9633571Y-11301190D01*
X9624048Y-11310714D01*
X9614524Y-11301190D01*
X9624048Y-11291667D01*
X9624048Y-11310714D01*
D12*
X7955000Y-11725000D02*
X7995000Y-11765000D01*
X7995000Y-11725000D02*
X7955000Y-11765000D01*
D11*
X8290714Y-11635476D02*
X8309762Y-11635476D01*
X8328809Y-11645000D01*
X8338333Y-11654524D01*
X8347857Y-11673571D01*
X8357381Y-11711667D01*
X8357381Y-11759286D01*
X8347857Y-11797381D01*
X8338333Y-11816428D01*
X8328809Y-11825952D01*
X8309762Y-11835476D01*
X8290714Y-11835476D01*
X8271667Y-11825952D01*
X8262143Y-11816428D01*
X8252619Y-11797381D01*
X8243095Y-11759286D01*
X8243095Y-11711667D01*
X8252619Y-11673571D01*
X8262143Y-11654524D01*
X8271667Y-11645000D01*
X8290714Y-11635476D01*
X8443095Y-11816428D02*
X8452619Y-11825952D01*
X8443095Y-11835476D01*
X8433571Y-11825952D01*
X8443095Y-11816428D01*
X8443095Y-11835476D01*
X8624048Y-11702143D02*
X8624048Y-11835476D01*
X8576429Y-11625952D02*
X8528810Y-11768809D01*
X8652619Y-11768809D01*
X8766905Y-11635476D02*
X8785952Y-11635476D01*
X8805000Y-11645000D01*
X8814524Y-11654524D01*
X8824048Y-11673571D01*
X8833571Y-11711667D01*
X8833571Y-11759286D01*
X8824048Y-11797381D01*
X8814524Y-11816428D01*
X8805000Y-11825952D01*
X8785952Y-11835476D01*
X8766905Y-11835476D01*
X8747857Y-11825952D01*
X8738333Y-11816428D01*
X8728810Y-11797381D01*
X8719286Y-11759286D01*
X8719286Y-11711667D01*
X8728810Y-11673571D01*
X8738333Y-11654524D01*
X8747857Y-11645000D01*
X8766905Y-11635476D01*
X8957381Y-11635476D02*
X8976429Y-11635476D01*
X8995476Y-11645000D01*
X9005000Y-11654524D01*
X9014524Y-11673571D01*
X9024048Y-11711667D01*
X9024048Y-11759286D01*
X9014524Y-11797381D01*
X9005000Y-11816428D01*
X8995476Y-11825952D01*
X8976429Y-11835476D01*
X8957381Y-11835476D01*
X8938333Y-11825952D01*
X8928810Y-11816428D01*
X8919286Y-11797381D01*
X8909762Y-11759286D01*
X8909762Y-11711667D01*
X8919286Y-11673571D01*
X8928810Y-11654524D01*
X8938333Y-11645000D01*
X8957381Y-11635476D01*
X9109762Y-11835476D02*
X9109762Y-11702143D01*
X9109762Y-11721190D02*
X9119286Y-11711667D01*
X9138333Y-11702143D01*
X9166905Y-11702143D01*
X9185952Y-11711667D01*
X9195476Y-11730714D01*
X9195476Y-11835476D01*
X9195476Y-11730714D02*
X9205000Y-11711667D01*
X9224048Y-11702143D01*
X9252619Y-11702143D01*
X9271667Y-11711667D01*
X9281190Y-11730714D01*
X9281190Y-11835476D01*
X9376429Y-11835476D02*
X9376429Y-11702143D01*
X9376429Y-11721190D02*
X9385952Y-11711667D01*
X9405000Y-11702143D01*
X9433571Y-11702143D01*
X9452619Y-11711667D01*
X9462143Y-11730714D01*
X9462143Y-11835476D01*
X9462143Y-11730714D02*
X9471667Y-11711667D01*
X9490714Y-11702143D01*
X9519286Y-11702143D01*
X9538333Y-11711667D01*
X9547857Y-11730714D01*
X9547857Y-11835476D01*
X9938333Y-11625952D02*
X9766905Y-11883095D01*
X10195476Y-11635476D02*
X10214524Y-11635476D01*
X10233571Y-11645000D01*
X10243095Y-11654524D01*
X10252619Y-11673571D01*
X10262143Y-11711667D01*
X10262143Y-11759286D01*
X10252619Y-11797381D01*
X10243095Y-11816428D01*
X10233571Y-11825952D01*
X10214524Y-11835476D01*
X10195476Y-11835476D01*
X10176429Y-11825952D01*
X10166905Y-11816428D01*
X10157381Y-11797381D01*
X10147857Y-11759286D01*
X10147857Y-11711667D01*
X10157381Y-11673571D01*
X10166905Y-11654524D01*
X10176429Y-11645000D01*
X10195476Y-11635476D01*
X10347857Y-11816428D02*
X10357381Y-11825952D01*
X10347857Y-11835476D01*
X10338333Y-11825952D01*
X10347857Y-11816428D01*
X10347857Y-11835476D01*
X10481190Y-11635476D02*
X10500238Y-11635476D01*
X10519286Y-11645000D01*
X10528810Y-11654524D01*
X10538333Y-11673571D01*
X10547857Y-11711667D01*
X10547857Y-11759286D01*
X10538333Y-11797381D01*
X10528810Y-11816428D01*
X10519286Y-11825952D01*
X10500238Y-11835476D01*
X10481190Y-11835476D01*
X10462143Y-11825952D01*
X10452619Y-11816428D01*
X10443095Y-11797381D01*
X10433571Y-11759286D01*
X10433571Y-11711667D01*
X10443095Y-11673571D01*
X10452619Y-11654524D01*
X10462143Y-11645000D01*
X10481190Y-11635476D01*
X10738333Y-11835476D02*
X10624048Y-11835476D01*
X10681190Y-11835476D02*
X10681190Y-11635476D01*
X10662143Y-11664048D01*
X10643095Y-11683095D01*
X10624048Y-11692619D01*
X10919286Y-11635476D02*
X10824048Y-11635476D01*
X10814524Y-11730714D01*
X10824048Y-11721190D01*
X10843095Y-11711667D01*
X10890714Y-11711667D01*
X10909762Y-11721190D01*
X10919286Y-11730714D01*
X10928810Y-11749762D01*
X10928810Y-11797381D01*
X10919286Y-11816428D01*
X10909762Y-11825952D01*
X10890714Y-11835476D01*
X10843095Y-11835476D01*
X10824048Y-11825952D01*
X10814524Y-11816428D01*
X10995476Y-11635476D02*
X11128810Y-11635476D01*
X11043095Y-11835476D01*
X11195476Y-11635476D02*
X11195476Y-11673571D01*
X11271667Y-11635476D02*
X11271667Y-11673571D01*
X11566905Y-11911667D02*
X11557381Y-11902143D01*
X11538333Y-11873571D01*
X11528809Y-11854524D01*
X11519286Y-11825952D01*
X11509762Y-11778333D01*
X11509762Y-11740238D01*
X11519286Y-11692619D01*
X11528809Y-11664048D01*
X11538333Y-11645000D01*
X11557381Y-11616428D01*
X11566905Y-11606905D01*
X11633571Y-11654524D02*
X11643095Y-11645000D01*
X11662143Y-11635476D01*
X11709762Y-11635476D01*
X11728809Y-11645000D01*
X11738333Y-11654524D01*
X11747857Y-11673571D01*
X11747857Y-11692619D01*
X11738333Y-11721190D01*
X11624048Y-11835476D01*
X11747857Y-11835476D01*
X11919286Y-11635476D02*
X11881190Y-11635476D01*
X11862143Y-11645000D01*
X11852619Y-11654524D01*
X11833571Y-11683095D01*
X11824048Y-11721190D01*
X11824048Y-11797381D01*
X11833571Y-11816428D01*
X11843095Y-11825952D01*
X11862143Y-11835476D01*
X11900238Y-11835476D01*
X11919286Y-11825952D01*
X11928809Y-11816428D01*
X11938333Y-11797381D01*
X11938333Y-11749762D01*
X11928809Y-11730714D01*
X11919286Y-11721190D01*
X11900238Y-11711667D01*
X11862143Y-11711667D01*
X11843095Y-11721190D01*
X11833571Y-11730714D01*
X11824048Y-11749762D01*
X12033571Y-11835476D02*
X12071667Y-11835476D01*
X12090714Y-11825952D01*
X12100238Y-11816428D01*
X12119286Y-11787857D01*
X12128809Y-11749762D01*
X12128809Y-11673571D01*
X12119286Y-11654524D01*
X12109762Y-11645000D01*
X12090714Y-11635476D01*
X12052619Y-11635476D01*
X12033571Y-11645000D01*
X12024048Y-11654524D01*
X12014524Y-11673571D01*
X12014524Y-11721190D01*
X12024048Y-11740238D01*
X12033571Y-11749762D01*
X12052619Y-11759286D01*
X12090714Y-11759286D01*
X12109762Y-11749762D01*
X12119286Y-11740238D01*
X12128809Y-11721190D01*
X12366905Y-11835476D02*
X12366905Y-11635476D01*
X12452619Y-11835476D02*
X12452619Y-11730714D01*
X12443095Y-11711667D01*
X12424048Y-11702143D01*
X12395476Y-11702143D01*
X12376428Y-11711667D01*
X12366905Y-11721190D01*
X12576428Y-11835476D02*
X12557381Y-11825952D01*
X12547857Y-11816428D01*
X12538333Y-11797381D01*
X12538333Y-11740238D01*
X12547857Y-11721190D01*
X12557381Y-11711667D01*
X12576428Y-11702143D01*
X12605000Y-11702143D01*
X12624048Y-11711667D01*
X12633571Y-11721190D01*
X12643095Y-11740238D01*
X12643095Y-11797381D01*
X12633571Y-11816428D01*
X12624048Y-11825952D01*
X12605000Y-11835476D01*
X12576428Y-11835476D01*
X12757381Y-11835476D02*
X12738333Y-11825952D01*
X12728809Y-11806905D01*
X12728809Y-11635476D01*
X12909762Y-11825952D02*
X12890714Y-11835476D01*
X12852619Y-11835476D01*
X12833571Y-11825952D01*
X12824048Y-11806905D01*
X12824048Y-11730714D01*
X12833571Y-11711667D01*
X12852619Y-11702143D01*
X12890714Y-11702143D01*
X12909762Y-11711667D01*
X12919286Y-11730714D01*
X12919286Y-11749762D01*
X12824048Y-11768809D01*
X12995476Y-11825952D02*
X13014524Y-11835476D01*
X13052619Y-11835476D01*
X13071667Y-11825952D01*
X13081190Y-11806905D01*
X13081190Y-11797381D01*
X13071667Y-11778333D01*
X13052619Y-11768809D01*
X13024048Y-11768809D01*
X13005000Y-11759286D01*
X12995476Y-11740238D01*
X12995476Y-11730714D01*
X13005000Y-11711667D01*
X13024048Y-11702143D01*
X13052619Y-11702143D01*
X13071667Y-11711667D01*
X13147857Y-11911667D02*
X13157381Y-11902143D01*
X13176428Y-11873571D01*
X13185952Y-11854524D01*
X13195476Y-11825952D01*
X13205000Y-11778333D01*
X13205000Y-11740238D01*
X13195476Y-11692619D01*
X13185952Y-11664048D01*
X13176428Y-11645000D01*
X13157381Y-11616428D01*
X13147857Y-11606905D01*
D13*
X7995000Y-12009000D02*
G75*
G03*
X7995000Y-12009000I-59500J0D01*
G01*
D11*
X8357381Y-12099476D02*
X8243095Y-12099476D01*
X8300238Y-12099476D02*
X8300238Y-11899476D01*
X8281190Y-11928048D01*
X8262143Y-11947095D01*
X8243095Y-11956619D01*
X8443095Y-12080428D02*
X8452619Y-12089952D01*
X8443095Y-12099476D01*
X8433571Y-12089952D01*
X8443095Y-12080428D01*
X8443095Y-12099476D01*
X8643095Y-12099476D02*
X8528810Y-12099476D01*
X8585952Y-12099476D02*
X8585952Y-11899476D01*
X8566905Y-11928048D01*
X8547857Y-11947095D01*
X8528810Y-11956619D01*
X8738333Y-12099476D02*
X8776429Y-12099476D01*
X8795476Y-12089952D01*
X8805000Y-12080428D01*
X8824048Y-12051857D01*
X8833571Y-12013762D01*
X8833571Y-11937571D01*
X8824048Y-11918524D01*
X8814524Y-11909000D01*
X8795476Y-11899476D01*
X8757381Y-11899476D01*
X8738333Y-11909000D01*
X8728810Y-11918524D01*
X8719286Y-11937571D01*
X8719286Y-11985190D01*
X8728810Y-12004238D01*
X8738333Y-12013762D01*
X8757381Y-12023286D01*
X8795476Y-12023286D01*
X8814524Y-12013762D01*
X8824048Y-12004238D01*
X8833571Y-11985190D01*
X8957381Y-11899476D02*
X8976429Y-11899476D01*
X8995476Y-11909000D01*
X9005000Y-11918524D01*
X9014524Y-11937571D01*
X9024048Y-11975667D01*
X9024048Y-12023286D01*
X9014524Y-12061381D01*
X9005000Y-12080428D01*
X8995476Y-12089952D01*
X8976429Y-12099476D01*
X8957381Y-12099476D01*
X8938333Y-12089952D01*
X8928810Y-12080428D01*
X8919286Y-12061381D01*
X8909762Y-12023286D01*
X8909762Y-11975667D01*
X8919286Y-11937571D01*
X8928810Y-11918524D01*
X8938333Y-11909000D01*
X8957381Y-11899476D01*
X9109762Y-12099476D02*
X9109762Y-11966143D01*
X9109762Y-11985190D02*
X9119286Y-11975667D01*
X9138333Y-11966143D01*
X9166905Y-11966143D01*
X9185952Y-11975667D01*
X9195476Y-11994714D01*
X9195476Y-12099476D01*
X9195476Y-11994714D02*
X9205000Y-11975667D01*
X9224048Y-11966143D01*
X9252619Y-11966143D01*
X9271667Y-11975667D01*
X9281190Y-11994714D01*
X9281190Y-12099476D01*
X9376429Y-12099476D02*
X9376429Y-11966143D01*
X9376429Y-11985190D02*
X9385952Y-11975667D01*
X9405000Y-11966143D01*
X9433571Y-11966143D01*
X9452619Y-11975667D01*
X9462143Y-11994714D01*
X9462143Y-12099476D01*
X9462143Y-11994714D02*
X9471667Y-11975667D01*
X9490714Y-11966143D01*
X9519286Y-11966143D01*
X9538333Y-11975667D01*
X9547857Y-11994714D01*
X9547857Y-12099476D01*
X9938333Y-11889952D02*
X9766905Y-12147095D01*
X10195476Y-11899476D02*
X10214524Y-11899476D01*
X10233571Y-11909000D01*
X10243095Y-11918524D01*
X10252619Y-11937571D01*
X10262143Y-11975667D01*
X10262143Y-12023286D01*
X10252619Y-12061381D01*
X10243095Y-12080428D01*
X10233571Y-12089952D01*
X10214524Y-12099476D01*
X10195476Y-12099476D01*
X10176429Y-12089952D01*
X10166905Y-12080428D01*
X10157381Y-12061381D01*
X10147857Y-12023286D01*
X10147857Y-11975667D01*
X10157381Y-11937571D01*
X10166905Y-11918524D01*
X10176429Y-11909000D01*
X10195476Y-11899476D01*
X10347857Y-12080428D02*
X10357381Y-12089952D01*
X10347857Y-12099476D01*
X10338333Y-12089952D01*
X10347857Y-12080428D01*
X10347857Y-12099476D01*
X10481190Y-11899476D02*
X10500238Y-11899476D01*
X10519286Y-11909000D01*
X10528810Y-11918524D01*
X10538333Y-11937571D01*
X10547857Y-11975667D01*
X10547857Y-12023286D01*
X10538333Y-12061381D01*
X10528810Y-12080428D01*
X10519286Y-12089952D01*
X10500238Y-12099476D01*
X10481190Y-12099476D01*
X10462143Y-12089952D01*
X10452619Y-12080428D01*
X10443095Y-12061381D01*
X10433571Y-12023286D01*
X10433571Y-11975667D01*
X10443095Y-11937571D01*
X10452619Y-11918524D01*
X10462143Y-11909000D01*
X10481190Y-11899476D01*
X10719286Y-11966143D02*
X10719286Y-12099476D01*
X10671667Y-11889952D02*
X10624048Y-12032809D01*
X10747857Y-12032809D01*
X10909762Y-11899476D02*
X10871667Y-11899476D01*
X10852619Y-11909000D01*
X10843095Y-11918524D01*
X10824048Y-11947095D01*
X10814524Y-11985190D01*
X10814524Y-12061381D01*
X10824048Y-12080428D01*
X10833571Y-12089952D01*
X10852619Y-12099476D01*
X10890714Y-12099476D01*
X10909762Y-12089952D01*
X10919286Y-12080428D01*
X10928810Y-12061381D01*
X10928810Y-12013762D01*
X10919286Y-11994714D01*
X10909762Y-11985190D01*
X10890714Y-11975667D01*
X10852619Y-11975667D01*
X10833571Y-11985190D01*
X10824048Y-11994714D01*
X10814524Y-12013762D01*
X11024048Y-12099476D02*
X11062143Y-12099476D01*
X11081190Y-12089952D01*
X11090714Y-12080428D01*
X11109762Y-12051857D01*
X11119286Y-12013762D01*
X11119286Y-11937571D01*
X11109762Y-11918524D01*
X11100238Y-11909000D01*
X11081190Y-11899476D01*
X11043095Y-11899476D01*
X11024048Y-11909000D01*
X11014524Y-11918524D01*
X11005000Y-11937571D01*
X11005000Y-11985190D01*
X11014524Y-12004238D01*
X11024048Y-12013762D01*
X11043095Y-12023286D01*
X11081190Y-12023286D01*
X11100238Y-12013762D01*
X11109762Y-12004238D01*
X11119286Y-11985190D01*
X11195476Y-11899476D02*
X11195476Y-11937571D01*
X11271667Y-11899476D02*
X11271667Y-11937571D01*
X11566905Y-12175667D02*
X11557381Y-12166143D01*
X11538333Y-12137571D01*
X11528809Y-12118524D01*
X11519286Y-12089952D01*
X11509762Y-12042333D01*
X11509762Y-12004238D01*
X11519286Y-11956619D01*
X11528809Y-11928048D01*
X11538333Y-11909000D01*
X11557381Y-11880428D01*
X11566905Y-11870905D01*
X11728809Y-11966143D02*
X11728809Y-12099476D01*
X11681190Y-11889952D02*
X11633571Y-12032809D01*
X11757381Y-12032809D01*
X11985952Y-12099476D02*
X11985952Y-11899476D01*
X12071667Y-12099476D02*
X12071667Y-11994714D01*
X12062143Y-11975667D01*
X12043095Y-11966143D01*
X12014524Y-11966143D01*
X11995476Y-11975667D01*
X11985952Y-11985190D01*
X12195476Y-12099476D02*
X12176428Y-12089952D01*
X12166905Y-12080428D01*
X12157381Y-12061381D01*
X12157381Y-12004238D01*
X12166905Y-11985190D01*
X12176428Y-11975667D01*
X12195476Y-11966143D01*
X12224048Y-11966143D01*
X12243095Y-11975667D01*
X12252619Y-11985190D01*
X12262143Y-12004238D01*
X12262143Y-12061381D01*
X12252619Y-12080428D01*
X12243095Y-12089952D01*
X12224048Y-12099476D01*
X12195476Y-12099476D01*
X12376428Y-12099476D02*
X12357381Y-12089952D01*
X12347857Y-12070905D01*
X12347857Y-11899476D01*
X12528809Y-12089952D02*
X12509762Y-12099476D01*
X12471667Y-12099476D01*
X12452619Y-12089952D01*
X12443095Y-12070905D01*
X12443095Y-11994714D01*
X12452619Y-11975667D01*
X12471667Y-11966143D01*
X12509762Y-11966143D01*
X12528809Y-11975667D01*
X12538333Y-11994714D01*
X12538333Y-12013762D01*
X12443095Y-12032809D01*
X12614524Y-12089952D02*
X12633571Y-12099476D01*
X12671667Y-12099476D01*
X12690714Y-12089952D01*
X12700238Y-12070905D01*
X12700238Y-12061381D01*
X12690714Y-12042333D01*
X12671667Y-12032809D01*
X12643095Y-12032809D01*
X12624048Y-12023286D01*
X12614524Y-12004238D01*
X12614524Y-11994714D01*
X12624048Y-11975667D01*
X12643095Y-11966143D01*
X12671667Y-11966143D01*
X12690714Y-11975667D01*
X12766905Y-12175667D02*
X12776428Y-12166143D01*
X12795476Y-12137571D01*
X12805000Y-12118524D01*
X12814524Y-12089952D01*
X12824048Y-12042333D01*
X12824048Y-12004238D01*
X12814524Y-11956619D01*
X12805000Y-11928048D01*
X12795476Y-11909000D01*
X12776428Y-11880428D01*
X12766905Y-11870905D01*
D14*
X7929976Y-12207976D02*
X7929976Y-12338024D01*
X7864952Y-12273000D02*
X7995000Y-12273000D01*
D11*
X8357381Y-12363476D02*
X8243095Y-12363476D01*
X8300238Y-12363476D02*
X8300238Y-12163476D01*
X8281190Y-12192048D01*
X8262143Y-12211095D01*
X8243095Y-12220619D01*
X8443095Y-12344428D02*
X8452619Y-12353952D01*
X8443095Y-12363476D01*
X8433571Y-12353952D01*
X8443095Y-12344428D01*
X8443095Y-12363476D01*
X8519286Y-12163476D02*
X8643095Y-12163476D01*
X8576429Y-12239667D01*
X8605000Y-12239667D01*
X8624048Y-12249190D01*
X8633571Y-12258714D01*
X8643095Y-12277762D01*
X8643095Y-12325381D01*
X8633571Y-12344428D01*
X8624048Y-12353952D01*
X8605000Y-12363476D01*
X8547857Y-12363476D01*
X8528810Y-12353952D01*
X8519286Y-12344428D01*
X8766905Y-12163476D02*
X8785952Y-12163476D01*
X8805000Y-12173000D01*
X8814524Y-12182524D01*
X8824048Y-12201571D01*
X8833571Y-12239667D01*
X8833571Y-12287286D01*
X8824048Y-12325381D01*
X8814524Y-12344428D01*
X8805000Y-12353952D01*
X8785952Y-12363476D01*
X8766905Y-12363476D01*
X8747857Y-12353952D01*
X8738333Y-12344428D01*
X8728810Y-12325381D01*
X8719286Y-12287286D01*
X8719286Y-12239667D01*
X8728810Y-12201571D01*
X8738333Y-12182524D01*
X8747857Y-12173000D01*
X8766905Y-12163476D01*
X8957381Y-12163476D02*
X8976429Y-12163476D01*
X8995476Y-12173000D01*
X9005000Y-12182524D01*
X9014524Y-12201571D01*
X9024048Y-12239667D01*
X9024048Y-12287286D01*
X9014524Y-12325381D01*
X9005000Y-12344428D01*
X8995476Y-12353952D01*
X8976429Y-12363476D01*
X8957381Y-12363476D01*
X8938333Y-12353952D01*
X8928810Y-12344428D01*
X8919286Y-12325381D01*
X8909762Y-12287286D01*
X8909762Y-12239667D01*
X8919286Y-12201571D01*
X8928810Y-12182524D01*
X8938333Y-12173000D01*
X8957381Y-12163476D01*
X9109762Y-12363476D02*
X9109762Y-12230143D01*
X9109762Y-12249190D02*
X9119286Y-12239667D01*
X9138333Y-12230143D01*
X9166905Y-12230143D01*
X9185952Y-12239667D01*
X9195476Y-12258714D01*
X9195476Y-12363476D01*
X9195476Y-12258714D02*
X9205000Y-12239667D01*
X9224048Y-12230143D01*
X9252619Y-12230143D01*
X9271667Y-12239667D01*
X9281190Y-12258714D01*
X9281190Y-12363476D01*
X9376429Y-12363476D02*
X9376429Y-12230143D01*
X9376429Y-12249190D02*
X9385952Y-12239667D01*
X9405000Y-12230143D01*
X9433571Y-12230143D01*
X9452619Y-12239667D01*
X9462143Y-12258714D01*
X9462143Y-12363476D01*
X9462143Y-12258714D02*
X9471667Y-12239667D01*
X9490714Y-12230143D01*
X9519286Y-12230143D01*
X9538333Y-12239667D01*
X9547857Y-12258714D01*
X9547857Y-12363476D01*
X9938333Y-12153952D02*
X9766905Y-12411095D01*
X10195476Y-12163476D02*
X10214524Y-12163476D01*
X10233571Y-12173000D01*
X10243095Y-12182524D01*
X10252619Y-12201571D01*
X10262143Y-12239667D01*
X10262143Y-12287286D01*
X10252619Y-12325381D01*
X10243095Y-12344428D01*
X10233571Y-12353952D01*
X10214524Y-12363476D01*
X10195476Y-12363476D01*
X10176429Y-12353952D01*
X10166905Y-12344428D01*
X10157381Y-12325381D01*
X10147857Y-12287286D01*
X10147857Y-12239667D01*
X10157381Y-12201571D01*
X10166905Y-12182524D01*
X10176429Y-12173000D01*
X10195476Y-12163476D01*
X10347857Y-12344428D02*
X10357381Y-12353952D01*
X10347857Y-12363476D01*
X10338333Y-12353952D01*
X10347857Y-12344428D01*
X10347857Y-12363476D01*
X10481190Y-12163476D02*
X10500238Y-12163476D01*
X10519286Y-12173000D01*
X10528810Y-12182524D01*
X10538333Y-12201571D01*
X10547857Y-12239667D01*
X10547857Y-12287286D01*
X10538333Y-12325381D01*
X10528810Y-12344428D01*
X10519286Y-12353952D01*
X10500238Y-12363476D01*
X10481190Y-12363476D01*
X10462143Y-12353952D01*
X10452619Y-12344428D01*
X10443095Y-12325381D01*
X10433571Y-12287286D01*
X10433571Y-12239667D01*
X10443095Y-12201571D01*
X10452619Y-12182524D01*
X10462143Y-12173000D01*
X10481190Y-12163476D01*
X10728810Y-12163476D02*
X10633571Y-12163476D01*
X10624048Y-12258714D01*
X10633571Y-12249190D01*
X10652619Y-12239667D01*
X10700238Y-12239667D01*
X10719286Y-12249190D01*
X10728810Y-12258714D01*
X10738333Y-12277762D01*
X10738333Y-12325381D01*
X10728810Y-12344428D01*
X10719286Y-12353952D01*
X10700238Y-12363476D01*
X10652619Y-12363476D01*
X10633571Y-12353952D01*
X10624048Y-12344428D01*
X10928810Y-12363476D02*
X10814524Y-12363476D01*
X10871667Y-12363476D02*
X10871667Y-12163476D01*
X10852619Y-12192048D01*
X10833571Y-12211095D01*
X10814524Y-12220619D01*
X11005000Y-12182524D02*
X11014524Y-12173000D01*
X11033571Y-12163476D01*
X11081190Y-12163476D01*
X11100238Y-12173000D01*
X11109762Y-12182524D01*
X11119286Y-12201571D01*
X11119286Y-12220619D01*
X11109762Y-12249190D01*
X10995476Y-12363476D01*
X11119286Y-12363476D01*
X11195476Y-12163476D02*
X11195476Y-12201571D01*
X11271667Y-12163476D02*
X11271667Y-12201571D01*
X11566905Y-12439667D02*
X11557381Y-12430143D01*
X11538333Y-12401571D01*
X11528809Y-12382524D01*
X11519286Y-12353952D01*
X11509762Y-12306333D01*
X11509762Y-12268238D01*
X11519286Y-12220619D01*
X11528809Y-12192048D01*
X11538333Y-12173000D01*
X11557381Y-12144428D01*
X11566905Y-12134905D01*
X11747857Y-12363476D02*
X11633571Y-12363476D01*
X11690714Y-12363476D02*
X11690714Y-12163476D01*
X11671667Y-12192048D01*
X11652619Y-12211095D01*
X11633571Y-12220619D01*
X11871667Y-12163476D02*
X11890714Y-12163476D01*
X11909762Y-12173000D01*
X11919286Y-12182524D01*
X11928809Y-12201571D01*
X11938333Y-12239667D01*
X11938333Y-12287286D01*
X11928809Y-12325381D01*
X11919286Y-12344428D01*
X11909762Y-12353952D01*
X11890714Y-12363476D01*
X11871667Y-12363476D01*
X11852619Y-12353952D01*
X11843095Y-12344428D01*
X11833571Y-12325381D01*
X11824048Y-12287286D01*
X11824048Y-12239667D01*
X11833571Y-12201571D01*
X11843095Y-12182524D01*
X11852619Y-12173000D01*
X11871667Y-12163476D01*
X12176428Y-12363476D02*
X12176428Y-12163476D01*
X12262143Y-12363476D02*
X12262143Y-12258714D01*
X12252619Y-12239667D01*
X12233571Y-12230143D01*
X12205000Y-12230143D01*
X12185952Y-12239667D01*
X12176428Y-12249190D01*
X12385952Y-12363476D02*
X12366905Y-12353952D01*
X12357381Y-12344428D01*
X12347857Y-12325381D01*
X12347857Y-12268238D01*
X12357381Y-12249190D01*
X12366905Y-12239667D01*
X12385952Y-12230143D01*
X12414524Y-12230143D01*
X12433571Y-12239667D01*
X12443095Y-12249190D01*
X12452619Y-12268238D01*
X12452619Y-12325381D01*
X12443095Y-12344428D01*
X12433571Y-12353952D01*
X12414524Y-12363476D01*
X12385952Y-12363476D01*
X12566905Y-12363476D02*
X12547857Y-12353952D01*
X12538333Y-12334905D01*
X12538333Y-12163476D01*
X12719286Y-12353952D02*
X12700238Y-12363476D01*
X12662143Y-12363476D01*
X12643095Y-12353952D01*
X12633571Y-12334905D01*
X12633571Y-12258714D01*
X12643095Y-12239667D01*
X12662143Y-12230143D01*
X12700238Y-12230143D01*
X12719286Y-12239667D01*
X12728809Y-12258714D01*
X12728809Y-12277762D01*
X12633571Y-12296809D01*
X12805000Y-12353952D02*
X12824048Y-12363476D01*
X12862143Y-12363476D01*
X12881190Y-12353952D01*
X12890714Y-12334905D01*
X12890714Y-12325381D01*
X12881190Y-12306333D01*
X12862143Y-12296809D01*
X12833571Y-12296809D01*
X12814524Y-12287286D01*
X12805000Y-12268238D01*
X12805000Y-12258714D01*
X12814524Y-12239667D01*
X12833571Y-12230143D01*
X12862143Y-12230143D01*
X12881190Y-12239667D01*
X12957381Y-12439667D02*
X12966905Y-12430143D01*
X12985952Y-12401571D01*
X12995476Y-12382524D01*
X13005000Y-12353952D01*
X13014524Y-12306333D01*
X13014524Y-12268238D01*
X13005000Y-12220619D01*
X12995476Y-12192048D01*
X12985952Y-12173000D01*
X12966905Y-12144428D01*
X12957381Y-12134905D01*
X7965711Y-12607711D02*
X7965711Y-12466289D01*
X7824289Y-12466289D01*
X7824289Y-12607711D01*
X7965711Y-12607711D01*
X8243095Y-12446524D02*
X8252619Y-12437000D01*
X8271667Y-12427476D01*
X8319286Y-12427476D01*
X8338333Y-12437000D01*
X8347857Y-12446524D01*
X8357381Y-12465571D01*
X8357381Y-12484619D01*
X8347857Y-12513190D01*
X8233571Y-12627476D01*
X8357381Y-12627476D01*
X8443095Y-12608428D02*
X8452619Y-12617952D01*
X8443095Y-12627476D01*
X8433571Y-12617952D01*
X8443095Y-12608428D01*
X8443095Y-12627476D01*
X8576429Y-12427476D02*
X8595476Y-12427476D01*
X8614524Y-12437000D01*
X8624048Y-12446524D01*
X8633571Y-12465571D01*
X8643095Y-12503667D01*
X8643095Y-12551286D01*
X8633571Y-12589381D01*
X8624048Y-12608428D01*
X8614524Y-12617952D01*
X8595476Y-12627476D01*
X8576429Y-12627476D01*
X8557381Y-12617952D01*
X8547857Y-12608428D01*
X8538333Y-12589381D01*
X8528810Y-12551286D01*
X8528810Y-12503667D01*
X8538333Y-12465571D01*
X8547857Y-12446524D01*
X8557381Y-12437000D01*
X8576429Y-12427476D01*
X8766905Y-12427476D02*
X8785952Y-12427476D01*
X8805000Y-12437000D01*
X8814524Y-12446524D01*
X8824048Y-12465571D01*
X8833571Y-12503667D01*
X8833571Y-12551286D01*
X8824048Y-12589381D01*
X8814524Y-12608428D01*
X8805000Y-12617952D01*
X8785952Y-12627476D01*
X8766905Y-12627476D01*
X8747857Y-12617952D01*
X8738333Y-12608428D01*
X8728810Y-12589381D01*
X8719286Y-12551286D01*
X8719286Y-12503667D01*
X8728810Y-12465571D01*
X8738333Y-12446524D01*
X8747857Y-12437000D01*
X8766905Y-12427476D01*
X8957381Y-12427476D02*
X8976429Y-12427476D01*
X8995476Y-12437000D01*
X9005000Y-12446524D01*
X9014524Y-12465571D01*
X9024048Y-12503667D01*
X9024048Y-12551286D01*
X9014524Y-12589381D01*
X9005000Y-12608428D01*
X8995476Y-12617952D01*
X8976429Y-12627476D01*
X8957381Y-12627476D01*
X8938333Y-12617952D01*
X8928810Y-12608428D01*
X8919286Y-12589381D01*
X8909762Y-12551286D01*
X8909762Y-12503667D01*
X8919286Y-12465571D01*
X8928810Y-12446524D01*
X8938333Y-12437000D01*
X8957381Y-12427476D01*
X9109762Y-12627476D02*
X9109762Y-12494143D01*
X9109762Y-12513190D02*
X9119286Y-12503667D01*
X9138333Y-12494143D01*
X9166905Y-12494143D01*
X9185952Y-12503667D01*
X9195476Y-12522714D01*
X9195476Y-12627476D01*
X9195476Y-12522714D02*
X9205000Y-12503667D01*
X9224048Y-12494143D01*
X9252619Y-12494143D01*
X9271667Y-12503667D01*
X9281190Y-12522714D01*
X9281190Y-12627476D01*
X9376429Y-12627476D02*
X9376429Y-12494143D01*
X9376429Y-12513190D02*
X9385952Y-12503667D01*
X9405000Y-12494143D01*
X9433571Y-12494143D01*
X9452619Y-12503667D01*
X9462143Y-12522714D01*
X9462143Y-12627476D01*
X9462143Y-12522714D02*
X9471667Y-12503667D01*
X9490714Y-12494143D01*
X9519286Y-12494143D01*
X9538333Y-12503667D01*
X9547857Y-12522714D01*
X9547857Y-12627476D01*
X9938333Y-12417952D02*
X9766905Y-12675095D01*
X10195476Y-12427476D02*
X10214524Y-12427476D01*
X10233571Y-12437000D01*
X10243095Y-12446524D01*
X10252619Y-12465571D01*
X10262143Y-12503667D01*
X10262143Y-12551286D01*
X10252619Y-12589381D01*
X10243095Y-12608428D01*
X10233571Y-12617952D01*
X10214524Y-12627476D01*
X10195476Y-12627476D01*
X10176429Y-12617952D01*
X10166905Y-12608428D01*
X10157381Y-12589381D01*
X10147857Y-12551286D01*
X10147857Y-12503667D01*
X10157381Y-12465571D01*
X10166905Y-12446524D01*
X10176429Y-12437000D01*
X10195476Y-12427476D01*
X10347857Y-12608428D02*
X10357381Y-12617952D01*
X10347857Y-12627476D01*
X10338333Y-12617952D01*
X10347857Y-12608428D01*
X10347857Y-12627476D01*
X10481190Y-12427476D02*
X10500238Y-12427476D01*
X10519286Y-12437000D01*
X10528810Y-12446524D01*
X10538333Y-12465571D01*
X10547857Y-12503667D01*
X10547857Y-12551286D01*
X10538333Y-12589381D01*
X10528810Y-12608428D01*
X10519286Y-12617952D01*
X10500238Y-12627476D01*
X10481190Y-12627476D01*
X10462143Y-12617952D01*
X10452619Y-12608428D01*
X10443095Y-12589381D01*
X10433571Y-12551286D01*
X10433571Y-12503667D01*
X10443095Y-12465571D01*
X10452619Y-12446524D01*
X10462143Y-12437000D01*
X10481190Y-12427476D01*
X10614524Y-12427476D02*
X10747857Y-12427476D01*
X10662143Y-12627476D01*
X10852619Y-12513190D02*
X10833571Y-12503667D01*
X10824048Y-12494143D01*
X10814524Y-12475095D01*
X10814524Y-12465571D01*
X10824048Y-12446524D01*
X10833571Y-12437000D01*
X10852619Y-12427476D01*
X10890714Y-12427476D01*
X10909762Y-12437000D01*
X10919286Y-12446524D01*
X10928810Y-12465571D01*
X10928810Y-12475095D01*
X10919286Y-12494143D01*
X10909762Y-12503667D01*
X10890714Y-12513190D01*
X10852619Y-12513190D01*
X10833571Y-12522714D01*
X10824048Y-12532238D01*
X10814524Y-12551286D01*
X10814524Y-12589381D01*
X10824048Y-12608428D01*
X10833571Y-12617952D01*
X10852619Y-12627476D01*
X10890714Y-12627476D01*
X10909762Y-12617952D01*
X10919286Y-12608428D01*
X10928810Y-12589381D01*
X10928810Y-12551286D01*
X10919286Y-12532238D01*
X10909762Y-12522714D01*
X10890714Y-12513190D01*
X10995476Y-12427476D02*
X11128810Y-12427476D01*
X11043095Y-12627476D01*
X11195476Y-12427476D02*
X11195476Y-12465571D01*
X11271667Y-12427476D02*
X11271667Y-12465571D01*
X11566905Y-12703667D02*
X11557381Y-12694143D01*
X11538333Y-12665571D01*
X11528809Y-12646524D01*
X11519286Y-12617952D01*
X11509762Y-12570333D01*
X11509762Y-12532238D01*
X11519286Y-12484619D01*
X11528809Y-12456048D01*
X11538333Y-12437000D01*
X11557381Y-12408428D01*
X11566905Y-12398905D01*
X11633571Y-12446524D02*
X11643095Y-12437000D01*
X11662143Y-12427476D01*
X11709762Y-12427476D01*
X11728809Y-12437000D01*
X11738333Y-12446524D01*
X11747857Y-12465571D01*
X11747857Y-12484619D01*
X11738333Y-12513190D01*
X11624048Y-12627476D01*
X11747857Y-12627476D01*
X11985952Y-12627476D02*
X11985952Y-12427476D01*
X12071667Y-12627476D02*
X12071667Y-12522714D01*
X12062143Y-12503667D01*
X12043095Y-12494143D01*
X12014524Y-12494143D01*
X11995476Y-12503667D01*
X11985952Y-12513190D01*
X12195476Y-12627476D02*
X12176428Y-12617952D01*
X12166905Y-12608428D01*
X12157381Y-12589381D01*
X12157381Y-12532238D01*
X12166905Y-12513190D01*
X12176428Y-12503667D01*
X12195476Y-12494143D01*
X12224048Y-12494143D01*
X12243095Y-12503667D01*
X12252619Y-12513190D01*
X12262143Y-12532238D01*
X12262143Y-12589381D01*
X12252619Y-12608428D01*
X12243095Y-12617952D01*
X12224048Y-12627476D01*
X12195476Y-12627476D01*
X12376428Y-12627476D02*
X12357381Y-12617952D01*
X12347857Y-12598905D01*
X12347857Y-12427476D01*
X12528809Y-12617952D02*
X12509762Y-12627476D01*
X12471667Y-12627476D01*
X12452619Y-12617952D01*
X12443095Y-12598905D01*
X12443095Y-12522714D01*
X12452619Y-12503667D01*
X12471667Y-12494143D01*
X12509762Y-12494143D01*
X12528809Y-12503667D01*
X12538333Y-12522714D01*
X12538333Y-12541762D01*
X12443095Y-12560809D01*
X12614524Y-12617952D02*
X12633571Y-12627476D01*
X12671667Y-12627476D01*
X12690714Y-12617952D01*
X12700238Y-12598905D01*
X12700238Y-12589381D01*
X12690714Y-12570333D01*
X12671667Y-12560809D01*
X12643095Y-12560809D01*
X12624048Y-12551286D01*
X12614524Y-12532238D01*
X12614524Y-12522714D01*
X12624048Y-12503667D01*
X12643095Y-12494143D01*
X12671667Y-12494143D01*
X12690714Y-12503667D01*
X12766905Y-12703667D02*
X12776428Y-12694143D01*
X12795476Y-12665571D01*
X12805000Y-12646524D01*
X12814524Y-12617952D01*
X12824048Y-12570333D01*
X12824048Y-12532238D01*
X12814524Y-12484619D01*
X12805000Y-12456048D01*
X12795476Y-12437000D01*
X12776428Y-12408428D01*
X12766905Y-12398905D01*
X7895000Y-12957000D02*
X7995000Y-12857000D01*
X7895000Y-12757000D01*
X7795000Y-12857000D01*
X7895000Y-12957000D01*
X8233571Y-12747476D02*
X8357381Y-12747476D01*
X8290714Y-12823667D01*
X8319286Y-12823667D01*
X8338333Y-12833190D01*
X8347857Y-12842714D01*
X8357381Y-12861762D01*
X8357381Y-12909381D01*
X8347857Y-12928428D01*
X8338333Y-12937952D01*
X8319286Y-12947476D01*
X8262143Y-12947476D01*
X8243095Y-12937952D01*
X8233571Y-12928428D01*
X8443095Y-12928428D02*
X8452619Y-12937952D01*
X8443095Y-12947476D01*
X8433571Y-12937952D01*
X8443095Y-12928428D01*
X8443095Y-12947476D01*
X8528810Y-12766524D02*
X8538333Y-12757000D01*
X8557381Y-12747476D01*
X8605000Y-12747476D01*
X8624048Y-12757000D01*
X8633571Y-12766524D01*
X8643095Y-12785571D01*
X8643095Y-12804619D01*
X8633571Y-12833190D01*
X8519286Y-12947476D01*
X8643095Y-12947476D01*
X8766905Y-12747476D02*
X8785952Y-12747476D01*
X8805000Y-12757000D01*
X8814524Y-12766524D01*
X8824048Y-12785571D01*
X8833571Y-12823667D01*
X8833571Y-12871286D01*
X8824048Y-12909381D01*
X8814524Y-12928428D01*
X8805000Y-12937952D01*
X8785952Y-12947476D01*
X8766905Y-12947476D01*
X8747857Y-12937952D01*
X8738333Y-12928428D01*
X8728810Y-12909381D01*
X8719286Y-12871286D01*
X8719286Y-12823667D01*
X8728810Y-12785571D01*
X8738333Y-12766524D01*
X8747857Y-12757000D01*
X8766905Y-12747476D01*
X8957381Y-12747476D02*
X8976429Y-12747476D01*
X8995476Y-12757000D01*
X9005000Y-12766524D01*
X9014524Y-12785571D01*
X9024048Y-12823667D01*
X9024048Y-12871286D01*
X9014524Y-12909381D01*
X9005000Y-12928428D01*
X8995476Y-12937952D01*
X8976429Y-12947476D01*
X8957381Y-12947476D01*
X8938333Y-12937952D01*
X8928810Y-12928428D01*
X8919286Y-12909381D01*
X8909762Y-12871286D01*
X8909762Y-12823667D01*
X8919286Y-12785571D01*
X8928810Y-12766524D01*
X8938333Y-12757000D01*
X8957381Y-12747476D01*
X9109762Y-12947476D02*
X9109762Y-12814143D01*
X9109762Y-12833190D02*
X9119286Y-12823667D01*
X9138333Y-12814143D01*
X9166905Y-12814143D01*
X9185952Y-12823667D01*
X9195476Y-12842714D01*
X9195476Y-12947476D01*
X9195476Y-12842714D02*
X9205000Y-12823667D01*
X9224048Y-12814143D01*
X9252619Y-12814143D01*
X9271667Y-12823667D01*
X9281190Y-12842714D01*
X9281190Y-12947476D01*
X9376429Y-12947476D02*
X9376429Y-12814143D01*
X9376429Y-12833190D02*
X9385952Y-12823667D01*
X9405000Y-12814143D01*
X9433571Y-12814143D01*
X9452619Y-12823667D01*
X9462143Y-12842714D01*
X9462143Y-12947476D01*
X9462143Y-12842714D02*
X9471667Y-12823667D01*
X9490714Y-12814143D01*
X9519286Y-12814143D01*
X9538333Y-12823667D01*
X9547857Y-12842714D01*
X9547857Y-12947476D01*
X9938333Y-12737952D02*
X9766905Y-12995095D01*
X10195476Y-12747476D02*
X10214524Y-12747476D01*
X10233571Y-12757000D01*
X10243095Y-12766524D01*
X10252619Y-12785571D01*
X10262143Y-12823667D01*
X10262143Y-12871286D01*
X10252619Y-12909381D01*
X10243095Y-12928428D01*
X10233571Y-12937952D01*
X10214524Y-12947476D01*
X10195476Y-12947476D01*
X10176429Y-12937952D01*
X10166905Y-12928428D01*
X10157381Y-12909381D01*
X10147857Y-12871286D01*
X10147857Y-12823667D01*
X10157381Y-12785571D01*
X10166905Y-12766524D01*
X10176429Y-12757000D01*
X10195476Y-12747476D01*
X10347857Y-12928428D02*
X10357381Y-12937952D01*
X10347857Y-12947476D01*
X10338333Y-12937952D01*
X10347857Y-12928428D01*
X10347857Y-12947476D01*
X10547857Y-12947476D02*
X10433571Y-12947476D01*
X10490714Y-12947476D02*
X10490714Y-12747476D01*
X10471667Y-12776048D01*
X10452619Y-12795095D01*
X10433571Y-12804619D01*
X10624048Y-12766524D02*
X10633571Y-12757000D01*
X10652619Y-12747476D01*
X10700238Y-12747476D01*
X10719286Y-12757000D01*
X10728810Y-12766524D01*
X10738333Y-12785571D01*
X10738333Y-12804619D01*
X10728810Y-12833190D01*
X10614524Y-12947476D01*
X10738333Y-12947476D01*
X10909762Y-12747476D02*
X10871667Y-12747476D01*
X10852619Y-12757000D01*
X10843095Y-12766524D01*
X10824048Y-12795095D01*
X10814524Y-12833190D01*
X10814524Y-12909381D01*
X10824048Y-12928428D01*
X10833571Y-12937952D01*
X10852619Y-12947476D01*
X10890714Y-12947476D01*
X10909762Y-12937952D01*
X10919286Y-12928428D01*
X10928810Y-12909381D01*
X10928810Y-12861762D01*
X10919286Y-12842714D01*
X10909762Y-12833190D01*
X10890714Y-12823667D01*
X10852619Y-12823667D01*
X10833571Y-12833190D01*
X10824048Y-12842714D01*
X10814524Y-12861762D01*
X11052619Y-12747476D02*
X11071667Y-12747476D01*
X11090714Y-12757000D01*
X11100238Y-12766524D01*
X11109762Y-12785571D01*
X11119286Y-12823667D01*
X11119286Y-12871286D01*
X11109762Y-12909381D01*
X11100238Y-12928428D01*
X11090714Y-12937952D01*
X11071667Y-12947476D01*
X11052619Y-12947476D01*
X11033571Y-12937952D01*
X11024048Y-12928428D01*
X11014524Y-12909381D01*
X11005000Y-12871286D01*
X11005000Y-12823667D01*
X11014524Y-12785571D01*
X11024048Y-12766524D01*
X11033571Y-12757000D01*
X11052619Y-12747476D01*
X11195476Y-12747476D02*
X11195476Y-12785571D01*
X11271667Y-12747476D02*
X11271667Y-12785571D01*
X11566905Y-13023667D02*
X11557381Y-13014143D01*
X11538333Y-12985571D01*
X11528809Y-12966524D01*
X11519286Y-12937952D01*
X11509762Y-12890333D01*
X11509762Y-12852238D01*
X11519286Y-12804619D01*
X11528809Y-12776048D01*
X11538333Y-12757000D01*
X11557381Y-12728428D01*
X11566905Y-12718905D01*
X11671667Y-12833190D02*
X11652619Y-12823667D01*
X11643095Y-12814143D01*
X11633571Y-12795095D01*
X11633571Y-12785571D01*
X11643095Y-12766524D01*
X11652619Y-12757000D01*
X11671667Y-12747476D01*
X11709762Y-12747476D01*
X11728809Y-12757000D01*
X11738333Y-12766524D01*
X11747857Y-12785571D01*
X11747857Y-12795095D01*
X11738333Y-12814143D01*
X11728809Y-12823667D01*
X11709762Y-12833190D01*
X11671667Y-12833190D01*
X11652619Y-12842714D01*
X11643095Y-12852238D01*
X11633571Y-12871286D01*
X11633571Y-12909381D01*
X11643095Y-12928428D01*
X11652619Y-12937952D01*
X11671667Y-12947476D01*
X11709762Y-12947476D01*
X11728809Y-12937952D01*
X11738333Y-12928428D01*
X11747857Y-12909381D01*
X11747857Y-12871286D01*
X11738333Y-12852238D01*
X11728809Y-12842714D01*
X11709762Y-12833190D01*
X11985952Y-12947476D02*
X11985952Y-12747476D01*
X12071667Y-12947476D02*
X12071667Y-12842714D01*
X12062143Y-12823667D01*
X12043095Y-12814143D01*
X12014524Y-12814143D01*
X11995476Y-12823667D01*
X11985952Y-12833190D01*
X12195476Y-12947476D02*
X12176428Y-12937952D01*
X12166905Y-12928428D01*
X12157381Y-12909381D01*
X12157381Y-12852238D01*
X12166905Y-12833190D01*
X12176428Y-12823667D01*
X12195476Y-12814143D01*
X12224048Y-12814143D01*
X12243095Y-12823667D01*
X12252619Y-12833190D01*
X12262143Y-12852238D01*
X12262143Y-12909381D01*
X12252619Y-12928428D01*
X12243095Y-12937952D01*
X12224048Y-12947476D01*
X12195476Y-12947476D01*
X12376428Y-12947476D02*
X12357381Y-12937952D01*
X12347857Y-12918905D01*
X12347857Y-12747476D01*
X12528809Y-12937952D02*
X12509762Y-12947476D01*
X12471667Y-12947476D01*
X12452619Y-12937952D01*
X12443095Y-12918905D01*
X12443095Y-12842714D01*
X12452619Y-12823667D01*
X12471667Y-12814143D01*
X12509762Y-12814143D01*
X12528809Y-12823667D01*
X12538333Y-12842714D01*
X12538333Y-12861762D01*
X12443095Y-12880809D01*
X12614524Y-12937952D02*
X12633571Y-12947476D01*
X12671667Y-12947476D01*
X12690714Y-12937952D01*
X12700238Y-12918905D01*
X12700238Y-12909381D01*
X12690714Y-12890333D01*
X12671667Y-12880809D01*
X12643095Y-12880809D01*
X12624048Y-12871286D01*
X12614524Y-12852238D01*
X12614524Y-12842714D01*
X12624048Y-12823667D01*
X12643095Y-12814143D01*
X12671667Y-12814143D01*
X12690714Y-12823667D01*
X12766905Y-13023667D02*
X12776428Y-13014143D01*
X12795476Y-12985571D01*
X12805000Y-12966524D01*
X12814524Y-12937952D01*
X12824048Y-12890333D01*
X12824048Y-12852238D01*
X12814524Y-12804619D01*
X12805000Y-12776048D01*
X12795476Y-12757000D01*
X12776428Y-12728428D01*
X12766905Y-12718905D01*
M02*
