%FSLAX45Y45*%
G04 Gerber Fmt 4.5, Leading zero omitted, Abs format (unit mm)*
G04 Created by KiCad (PCBNEW (6.0.0)) date 2022-09-16 08:33:50*
%MOMM*%
%LPD*%
G01*
G04 APERTURE LIST*
%TA.AperFunction,Profile*%
%ADD10C,0.100000*%
%TD*%
%ADD11C,0.200000*%
G04 APERTURE END LIST*
D10*
X8000000Y-3000000D02*
X18000000Y-3000000D01*
X18000000Y-3000000D02*
X18000000Y-11100000D01*
X18000000Y-11100000D02*
X8000000Y-11100000D01*
X8000000Y-11100000D02*
X8000000Y-3000000D01*
X11880000Y-6990000D02*
X12880000Y-6990000D01*
X12880000Y-6990000D02*
X12880000Y-8850000D01*
X12880000Y-8850000D02*
X11880000Y-8850000D01*
X11880000Y-8850000D02*
X11880000Y-6990000D01*
D11*
X8252619Y-11415476D02*
X8252619Y-11215476D01*
X8300238Y-11215476D01*
X8328809Y-11225000D01*
X8347857Y-11244048D01*
X8357381Y-11263095D01*
X8366905Y-11301190D01*
X8366905Y-11329762D01*
X8357381Y-11367857D01*
X8347857Y-11386905D01*
X8328809Y-11405952D01*
X8300238Y-11415476D01*
X8252619Y-11415476D01*
X8452619Y-11415476D02*
X8452619Y-11282143D01*
X8452619Y-11320238D02*
X8462143Y-11301190D01*
X8471667Y-11291667D01*
X8490714Y-11282143D01*
X8509762Y-11282143D01*
X8576429Y-11415476D02*
X8576429Y-11282143D01*
X8576429Y-11215476D02*
X8566905Y-11225000D01*
X8576429Y-11234524D01*
X8585952Y-11225000D01*
X8576429Y-11215476D01*
X8576429Y-11234524D01*
X8700238Y-11415476D02*
X8681190Y-11405952D01*
X8671667Y-11386905D01*
X8671667Y-11215476D01*
X8805000Y-11415476D02*
X8785952Y-11405952D01*
X8776429Y-11386905D01*
X8776429Y-11215476D01*
X9033571Y-11415476D02*
X9033571Y-11215476D01*
X9100238Y-11358333D01*
X9166905Y-11215476D01*
X9166905Y-11415476D01*
X9347857Y-11415476D02*
X9347857Y-11310714D01*
X9338333Y-11291667D01*
X9319286Y-11282143D01*
X9281190Y-11282143D01*
X9262143Y-11291667D01*
X9347857Y-11405952D02*
X9328810Y-11415476D01*
X9281190Y-11415476D01*
X9262143Y-11405952D01*
X9252619Y-11386905D01*
X9252619Y-11367857D01*
X9262143Y-11348809D01*
X9281190Y-11339286D01*
X9328810Y-11339286D01*
X9347857Y-11329762D01*
X9443095Y-11282143D02*
X9443095Y-11482143D01*
X9443095Y-11291667D02*
X9462143Y-11282143D01*
X9500238Y-11282143D01*
X9519286Y-11291667D01*
X9528810Y-11301190D01*
X9538333Y-11320238D01*
X9538333Y-11377381D01*
X9528810Y-11396428D01*
X9519286Y-11405952D01*
X9500238Y-11415476D01*
X9462143Y-11415476D01*
X9443095Y-11405952D01*
X9624048Y-11396428D02*
X9633571Y-11405952D01*
X9624048Y-11415476D01*
X9614524Y-11405952D01*
X9624048Y-11396428D01*
X9624048Y-11415476D01*
X9624048Y-11291667D02*
X9633571Y-11301190D01*
X9624048Y-11310714D01*
X9614524Y-11301190D01*
X9624048Y-11291667D01*
X9624048Y-11310714D01*
M02*
