G04 #@! TF.GenerationSoftware,KiCad,Pcbnew,(6.0.0)*
G04 #@! TF.CreationDate,2022-09-04T09:00:45+02:00*
G04 #@! TF.ProjectId,Ampli_0_5W,416d706c-695f-4305-9f35-572e6b696361,rev?*
G04 #@! TF.SameCoordinates,Original*
G04 #@! TF.FileFunction,Soldermask,Bot*
G04 #@! TF.FilePolarity,Negative*
%FSLAX46Y46*%
G04 Gerber Fmt 4.6, Leading zero omitted, Abs format (unit mm)*
G04 Created by KiCad (PCBNEW (6.0.0)) date 2022-09-04 09:00:45*
%MOMM*%
%LPD*%
G01*
G04 APERTURE LIST*
G04 Aperture macros list*
%AMRoundRect*
0 Rectangle with rounded corners*
0 $1 Rounding radius*
0 $2 $3 $4 $5 $6 $7 $8 $9 X,Y pos of 4 corners*
0 Add a 4 corners polygon primitive as box body*
4,1,4,$2,$3,$4,$5,$6,$7,$8,$9,$2,$3,0*
0 Add four circle primitives for the rounded corners*
1,1,$1+$1,$2,$3*
1,1,$1+$1,$4,$5*
1,1,$1+$1,$6,$7*
1,1,$1+$1,$8,$9*
0 Add four rect primitives between the rounded corners*
20,1,$1+$1,$2,$3,$4,$5,0*
20,1,$1+$1,$4,$5,$6,$7,0*
20,1,$1+$1,$6,$7,$8,$9,0*
20,1,$1+$1,$8,$9,$2,$3,0*%
G04 Aperture macros list end*
%ADD10C,5.600000*%
%ADD11RoundRect,0.250000X-0.620000X-0.845000X0.620000X-0.845000X0.620000X0.845000X-0.620000X0.845000X0*%
%ADD12O,1.740000X2.190000*%
%ADD13C,1.998980*%
%ADD14C,2.499360*%
G04 APERTURE END LIST*
D10*
X85000000Y-35000000D03*
X85000000Y-106000000D03*
X163000000Y-35000000D03*
X124000000Y-100500000D03*
X124000000Y-57500000D03*
X175000000Y-106000000D03*
D11*
X115000000Y-34900000D03*
D12*
X117540000Y-34900000D03*
D10*
X151000000Y-35500000D03*
X175000000Y-35000000D03*
D11*
X135500000Y-35000000D03*
D12*
X138040000Y-35000000D03*
D13*
X85000000Y-78000000D03*
D14*
X82460000Y-75460000D03*
X87540000Y-75460000D03*
X82460000Y-80540000D03*
X87540000Y-80540000D03*
D13*
X175000000Y-58500000D03*
D14*
X172460000Y-61040000D03*
X172460000Y-55960000D03*
X177540000Y-55960000D03*
X177540000Y-61040000D03*
G36*
X179942121Y-30020002D02*
G01*
X179988614Y-30073658D01*
X180000000Y-30126000D01*
X180000000Y-110874000D01*
X179979998Y-110942121D01*
X179926342Y-110988614D01*
X179874000Y-111000000D01*
X80126000Y-111000000D01*
X80057879Y-110979998D01*
X80011386Y-110926342D01*
X80000000Y-110874000D01*
X80000000Y-88481885D01*
X118800000Y-88481885D01*
X118804475Y-88497124D01*
X118805865Y-88498329D01*
X118813548Y-88500000D01*
X128781885Y-88500000D01*
X128797124Y-88495525D01*
X128798329Y-88494135D01*
X128800000Y-88486452D01*
X128800000Y-69918115D01*
X128795525Y-69902876D01*
X128794135Y-69901671D01*
X128786452Y-69900000D01*
X118818115Y-69900000D01*
X118802876Y-69904475D01*
X118801671Y-69905865D01*
X118800000Y-69913548D01*
X118800000Y-88481885D01*
X80000000Y-88481885D01*
X80000000Y-30126000D01*
X80020002Y-30057879D01*
X80073658Y-30011386D01*
X80126000Y-30000000D01*
X179874000Y-30000000D01*
X179942121Y-30020002D01*
G37*
M02*
