G04 #@! TF.GenerationSoftware,KiCad,Pcbnew,(6.0.0)*
G04 #@! TF.CreationDate,2023-02-12T17:08:04+01:00*
G04 #@! TF.ProjectId,Ampli_0_5W,416d706c-695f-4305-9f35-572e6b696361,rev?*
G04 #@! TF.SameCoordinates,Original*
G04 #@! TF.FileFunction,Legend,Bot*
G04 #@! TF.FilePolarity,Positive*
%FSLAX46Y46*%
G04 Gerber Fmt 4.6, Leading zero omitted, Abs format (unit mm)*
G04 Created by KiCad (PCBNEW (6.0.0)) date 2023-02-12 17:08:04*
%MOMM*%
%LPD*%
G01*
G04 APERTURE LIST*
G04 Aperture macros list*
%AMRoundRect*
0 Rectangle with rounded corners*
0 $1 Rounding radius*
0 $2 $3 $4 $5 $6 $7 $8 $9 X,Y pos of 4 corners*
0 Add a 4 corners polygon primitive as box body*
4,1,4,$2,$3,$4,$5,$6,$7,$8,$9,$2,$3,0*
0 Add four circle primitives for the rounded corners*
1,1,$1+$1,$2,$3*
1,1,$1+$1,$4,$5*
1,1,$1+$1,$6,$7*
1,1,$1+$1,$8,$9*
0 Add four rect primitives between the rounded corners*
20,1,$1+$1,$2,$3,$4,$5,0*
20,1,$1+$1,$4,$5,$6,$7,0*
20,1,$1+$1,$6,$7,$8,$9,0*
20,1,$1+$1,$8,$9,$2,$3,0*%
G04 Aperture macros list end*
%ADD10C,0.120000*%
%ADD11C,5.600000*%
%ADD12C,8.000000*%
%ADD13RoundRect,0.250000X-0.620000X-0.845000X0.620000X-0.845000X0.620000X0.845000X-0.620000X0.845000X0*%
%ADD14O,1.740000X2.190000*%
%ADD15O,4.000000X3.000000*%
%ADD16C,1.998980*%
%ADD17C,2.499360*%
%ADD18RoundRect,0.250000X1.069499X0.486136X0.486136X1.069499X-1.069499X-0.486136X-0.486136X-1.069499X0*%
%ADD19RoundRect,0.250000X1.100000X-0.412500X1.100000X0.412500X-1.100000X0.412500X-1.100000X-0.412500X0*%
%ADD20RoundRect,0.250000X-1.100000X0.412500X-1.100000X-0.412500X1.100000X-0.412500X1.100000X0.412500X0*%
%ADD21RoundRect,0.250000X0.412500X1.100000X-0.412500X1.100000X-0.412500X-1.100000X0.412500X-1.100000X0*%
%ADD22RoundRect,0.250000X-0.412500X-1.100000X0.412500X-1.100000X0.412500X1.100000X-0.412500X1.100000X0*%
%ADD23RoundRect,0.250000X-1.069499X-0.486136X-0.486136X-1.069499X1.069499X0.486136X0.486136X1.069499X0*%
G04 APERTURE END LIST*
D10*
X148041266Y-83214596D02*
X147035404Y-82208734D01*
X149964596Y-81291266D02*
X148958734Y-80285404D01*
X142890000Y-83961252D02*
X142890000Y-82538748D01*
X145610000Y-83961252D02*
X145610000Y-82538748D01*
X142360000Y-74788748D02*
X142360000Y-76211252D01*
X139640000Y-74788748D02*
X139640000Y-76211252D01*
X139110000Y-74788748D02*
X139110000Y-76211252D01*
X136390000Y-74788748D02*
X136390000Y-76211252D01*
X155711252Y-71240000D02*
X154288748Y-71240000D01*
X155711252Y-73960000D02*
X154288748Y-73960000D01*
X146088748Y-63560000D02*
X147511252Y-63560000D01*
X146088748Y-60840000D02*
X147511252Y-60840000D01*
X142360000Y-83961252D02*
X142360000Y-82538748D01*
X139640000Y-83961252D02*
X139640000Y-82538748D01*
X155711252Y-67560000D02*
X154288748Y-67560000D01*
X155711252Y-64840000D02*
X154288748Y-64840000D01*
X136390000Y-83961252D02*
X136390000Y-82538748D01*
X139110000Y-83961252D02*
X139110000Y-82538748D01*
X152741266Y-78464596D02*
X151735404Y-77458734D01*
X154664596Y-76541266D02*
X153658734Y-75535404D01*
X146088748Y-70160000D02*
X147511252Y-70160000D01*
X146088748Y-67440000D02*
X147511252Y-67440000D01*
X155711252Y-70760000D02*
X154288748Y-70760000D01*
X155711252Y-68040000D02*
X154288748Y-68040000D01*
X145958734Y-72535404D02*
X146964596Y-73541266D01*
X144035404Y-74458734D02*
X145041266Y-75464596D01*
X146088748Y-64040000D02*
X147511252Y-64040000D01*
X146088748Y-66760000D02*
X147511252Y-66760000D01*
X155711252Y-64360000D02*
X154288748Y-64360000D01*
X155711252Y-61640000D02*
X154288748Y-61640000D01*
X152214596Y-79041266D02*
X151208734Y-78035404D01*
X150291266Y-80964596D02*
X149285404Y-79958734D01*
%LPC*%
D11*
X85000000Y-35000000D03*
X85000000Y-106000000D03*
D12*
X169000000Y-49000000D03*
D11*
X175000000Y-106000000D03*
D13*
X100730000Y-41020000D03*
D14*
X103270000Y-41020000D03*
D12*
X151000000Y-49000000D03*
D11*
X175000000Y-35000000D03*
D15*
X134232500Y-81250000D03*
X134232500Y-77250000D03*
D13*
X135730000Y-41020000D03*
D14*
X138270000Y-41020000D03*
D16*
X85000000Y-78000000D03*
D17*
X82460000Y-75460000D03*
X87540000Y-75460000D03*
X82460000Y-80540000D03*
X87540000Y-80540000D03*
D16*
X175000000Y-72800000D03*
D17*
X172460000Y-75340000D03*
X172460000Y-70260000D03*
X177540000Y-70260000D03*
X177540000Y-75340000D03*
D18*
X149604854Y-82854854D03*
X147395146Y-80645146D03*
D19*
X144250000Y-84812500D03*
X144250000Y-81687500D03*
D20*
X141000000Y-73937500D03*
X141000000Y-77062500D03*
X137750000Y-73937500D03*
X137750000Y-77062500D03*
D21*
X156562500Y-72600000D03*
X153437500Y-72600000D03*
D22*
X145237500Y-62200000D03*
X148362500Y-62200000D03*
D19*
X141000000Y-84812500D03*
X141000000Y-81687500D03*
D21*
X156562500Y-66200000D03*
X153437500Y-66200000D03*
D19*
X137750000Y-84812500D03*
X137750000Y-81687500D03*
D18*
X154304854Y-78104854D03*
X152095146Y-75895146D03*
D22*
X145237500Y-68800000D03*
X148362500Y-68800000D03*
D21*
X156562500Y-69400000D03*
X153437500Y-69400000D03*
D23*
X144395146Y-72895146D03*
X146604854Y-75104854D03*
D22*
X145237500Y-65400000D03*
X148362500Y-65400000D03*
D21*
X156562500Y-63000000D03*
X153437500Y-63000000D03*
D18*
X151854854Y-80604854D03*
X149645146Y-78395146D03*
M02*
