G04 #@! TF.GenerationSoftware,KiCad,Pcbnew,(6.0.0)*
G04 #@! TF.CreationDate,2022-09-04T09:00:45+02:00*
G04 #@! TF.ProjectId,Ampli_0_5W,416d706c-695f-4305-9f35-572e6b696361,rev?*
G04 #@! TF.SameCoordinates,Original*
G04 #@! TF.FileFunction,Paste,Top*
G04 #@! TF.FilePolarity,Positive*
%FSLAX46Y46*%
G04 Gerber Fmt 4.6, Leading zero omitted, Abs format (unit mm)*
G04 Created by KiCad (PCBNEW (6.0.0)) date 2022-09-04 09:00:45*
%MOMM*%
%LPD*%
G01*
G04 APERTURE LIST*
G04 Aperture macros list*
%AMRoundRect*
0 Rectangle with rounded corners*
0 $1 Rounding radius*
0 $2 $3 $4 $5 $6 $7 $8 $9 X,Y pos of 4 corners*
0 Add a 4 corners polygon primitive as box body*
4,1,4,$2,$3,$4,$5,$6,$7,$8,$9,$2,$3,0*
0 Add four circle primitives for the rounded corners*
1,1,$1+$1,$2,$3*
1,1,$1+$1,$4,$5*
1,1,$1+$1,$6,$7*
1,1,$1+$1,$8,$9*
0 Add four rect primitives between the rounded corners*
20,1,$1+$1,$2,$3,$4,$5,0*
20,1,$1+$1,$4,$5,$6,$7,0*
20,1,$1+$1,$6,$7,$8,$9,0*
20,1,$1+$1,$8,$9,$2,$3,0*%
G04 Aperture macros list end*
%ADD10R,2.700000X4.320000*%
%ADD11RoundRect,0.250000X0.337500X0.475000X-0.337500X0.475000X-0.337500X-0.475000X0.337500X-0.475000X0*%
%ADD12RoundRect,0.625000X-1.375000X-0.625000X1.375000X-0.625000X1.375000X0.625000X-1.375000X0.625000X0*%
%ADD13RoundRect,0.250000X0.350000X0.450000X-0.350000X0.450000X-0.350000X-0.450000X0.350000X-0.450000X0*%
%ADD14RoundRect,0.250000X0.475000X-0.337500X0.475000X0.337500X-0.475000X0.337500X-0.475000X-0.337500X0*%
%ADD15RoundRect,0.500000X1.500000X-0.500000X1.500000X0.500000X-1.500000X0.500000X-1.500000X-0.500000X0*%
%ADD16RoundRect,0.500000X-0.500000X-1.500000X0.500000X-1.500000X0.500000X1.500000X-0.500000X1.500000X0*%
%ADD17RoundRect,0.250000X0.400000X1.450000X-0.400000X1.450000X-0.400000X-1.450000X0.400000X-1.450000X0*%
%ADD18RoundRect,0.150000X-0.825000X-0.150000X0.825000X-0.150000X0.825000X0.150000X-0.825000X0.150000X0*%
%ADD19RoundRect,0.250000X-0.475000X0.337500X-0.475000X-0.337500X0.475000X-0.337500X0.475000X0.337500X0*%
%ADD20RoundRect,0.250000X0.875000X1.025000X-0.875000X1.025000X-0.875000X-1.025000X0.875000X-1.025000X0*%
%ADD21R,0.800000X1.900000*%
%ADD22RoundRect,0.250000X-0.337500X-0.475000X0.337500X-0.475000X0.337500X0.475000X-0.337500X0.475000X0*%
%ADD23RoundRect,0.250000X0.450000X-0.350000X0.450000X0.350000X-0.450000X0.350000X-0.450000X-0.350000X0*%
%ADD24RoundRect,0.250000X-1.625000X0.675000X-1.625000X-0.675000X1.625000X-0.675000X1.625000X0.675000X0*%
%ADD25RoundRect,0.250000X1.350000X1.975000X-1.350000X1.975000X-1.350000X-1.975000X1.350000X-1.975000X0*%
%ADD26RoundRect,0.250000X-0.350000X-0.450000X0.350000X-0.450000X0.350000X0.450000X-0.350000X0.450000X0*%
%ADD27R,2.750000X3.050000*%
%ADD28R,1.200000X2.200000*%
%ADD29R,1.200000X1.200000*%
%ADD30R,1.600000X1.500000*%
%ADD31RoundRect,0.250000X-0.875000X-0.925000X0.875000X-0.925000X0.875000X0.925000X-0.875000X0.925000X0*%
%ADD32RoundRect,1.000000X2.500000X-1.000000X2.500000X1.000000X-2.500000X1.000000X-2.500000X-1.000000X0*%
G04 APERTURE END LIST*
D10*
X117900000Y-76500000D03*
X117900000Y-81900000D03*
X129700000Y-81900000D03*
X129700000Y-76500000D03*
D11*
X96037500Y-81000000D03*
X93962500Y-81000000D03*
D12*
X101500000Y-84000000D03*
X101500000Y-79000000D03*
X101500000Y-73500000D03*
X112500000Y-73500000D03*
X112500000Y-79000000D03*
X112500000Y-84000000D03*
D13*
X115500000Y-75900000D03*
X113500000Y-75900000D03*
D14*
X97000000Y-102037500D03*
X97000000Y-99962500D03*
X145000000Y-92537500D03*
X145000000Y-90462500D03*
D13*
X96000000Y-83000000D03*
X94000000Y-83000000D03*
D14*
X143000000Y-92537500D03*
X143000000Y-90462500D03*
D15*
X95500000Y-94237500D03*
D16*
X102000000Y-100737500D03*
D15*
X108500000Y-94237500D03*
D17*
X110225000Y-33900000D03*
X105775000Y-33900000D03*
D18*
X103525000Y-37995000D03*
X103525000Y-39265000D03*
X103525000Y-40535000D03*
X103525000Y-41805000D03*
X108475000Y-41805000D03*
X108475000Y-40535000D03*
X108475000Y-39265000D03*
X108475000Y-37995000D03*
D19*
X151500000Y-65962500D03*
X151500000Y-68037500D03*
D20*
X104200000Y-57500000D03*
X97800000Y-57500000D03*
D16*
X85000000Y-90000000D03*
X88000000Y-90000000D03*
X91000000Y-90000000D03*
D19*
X137500000Y-65962500D03*
X137500000Y-68037500D03*
D14*
X151000000Y-92537500D03*
X151000000Y-90462500D03*
D11*
X109400000Y-79000000D03*
X107325000Y-79000000D03*
D14*
X139500000Y-42037500D03*
X139500000Y-39962500D03*
D21*
X139450000Y-44500000D03*
X137550000Y-44500000D03*
X138500000Y-47500000D03*
D19*
X145500000Y-65962500D03*
X145500000Y-68037500D03*
D14*
X141000000Y-92537500D03*
X141000000Y-90462500D03*
D13*
X137500000Y-40000000D03*
X135500000Y-40000000D03*
X115500000Y-81600000D03*
X113500000Y-81600000D03*
D22*
X98962500Y-62000000D03*
X101037500Y-62000000D03*
D23*
X123000000Y-46500000D03*
X123000000Y-44500000D03*
D13*
X96000000Y-79000000D03*
X94000000Y-79000000D03*
D22*
X87962500Y-85000000D03*
X90037500Y-85000000D03*
D13*
X96000000Y-85000000D03*
X94000000Y-85000000D03*
D24*
X112000000Y-60725000D03*
X112000000Y-65275000D03*
D25*
X123600000Y-93000000D03*
X118400000Y-93000000D03*
D26*
X94000000Y-87000000D03*
X96000000Y-87000000D03*
D19*
X149500000Y-65962500D03*
X149500000Y-68037500D03*
D14*
X139000000Y-92537500D03*
X139000000Y-90462500D03*
X149000000Y-92537500D03*
X149000000Y-90462500D03*
D23*
X95000000Y-102000000D03*
X95000000Y-100000000D03*
D19*
X141500000Y-65962500D03*
X141500000Y-68037500D03*
D14*
X153000000Y-92537500D03*
X153000000Y-90462500D03*
D13*
X111400000Y-69800000D03*
X109400000Y-69800000D03*
D27*
X114475000Y-45325000D03*
X114475000Y-48675000D03*
X117525000Y-45325000D03*
X117525000Y-48675000D03*
D28*
X118280000Y-40700000D03*
X113720000Y-40700000D03*
D19*
X139500000Y-65962500D03*
X139500000Y-68037500D03*
D14*
X117300000Y-73237500D03*
X117300000Y-71162500D03*
D25*
X123600000Y-65500000D03*
X118400000Y-65500000D03*
D12*
X140000000Y-83000000D03*
X140000000Y-75500000D03*
D19*
X85000000Y-82962500D03*
X85000000Y-85037500D03*
D29*
X98000000Y-43800000D03*
D30*
X99000000Y-40550000D03*
D29*
X100000000Y-43800000D03*
D23*
X133500000Y-42000000D03*
X133500000Y-40000000D03*
D14*
X121000000Y-46537500D03*
X121000000Y-44462500D03*
D19*
X143500000Y-65962500D03*
X143500000Y-68037500D03*
D31*
X95950000Y-47500000D03*
X101050000Y-47500000D03*
D32*
X142000000Y-72500000D03*
X142000000Y-85500000D03*
X175000000Y-85500000D03*
X175000000Y-72500000D03*
D20*
X104200000Y-52000000D03*
X97800000Y-52000000D03*
D13*
X101000000Y-64500000D03*
X99000000Y-64500000D03*
D14*
X117400000Y-87237500D03*
X117400000Y-85162500D03*
D13*
X135500000Y-47000000D03*
X133500000Y-47000000D03*
D19*
X147500000Y-65962500D03*
X147500000Y-68037500D03*
D14*
X147000000Y-92537500D03*
X147000000Y-90462500D03*
M02*
