  0
SECTION
  2
HEADER
  9
$ANGBASE
  50
0.0
  9
$ANGDIR
  70
1
  9
$MEASUREMENT
  70
1
  0
ENDSEC
  0
SECTION
  2
TABLES
  0
TABLE
  2
LTYPE
  70
4
  0
LTYPE
  5
40F
  2
CONTINUOUS
  70
0
  3
Solid line
  72
65
  73
0
  40
0.0
  0
LTYPE
  5
410
  2
DASHDOT
 70
0
  3
Dash Dot ____ _ ____ _
 72
65
 73
4
 40
2.0
 49
1.25
 49
-0.25
 49
0.25
 49
-0.25
  0
LTYPE
  5
411
  2
DASHED
 70
0
  3
Dashed __ __ __ __ __
 72
65
 73
2
 40
0.75
 49
0.5
 49
-0.25
  0
LTYPE
  5
43B
  2
DOTTED
 70
0
  3
Dotted .  .  .  .
 72
65
 73
2
 40
0.2
 49
0.0
 49
-0.2
  0
ENDTAB
  0
TABLE
  2
STYLE
  70
4
  0
STYLE
  2
KICAD
  70
0
  40
0
  41
1
  42
1
  50
0
  71
0
  3
isocp.shx
  0
STYLE
  2
KICADB
  70
0
  40
0
  41
1
  42
1
  50
0
  71
0
  3
isocp.shx
  0
STYLE
  2
KICADI
  70
0
  40
0
  41
1
  42
1
  50
15
  71
0
  3
isocp.shx
  0
STYLE
  2
KICADBI
  70
0
  40
0
  41
1
  42
1
  50
15
  71
0
  3
isocp.shx
  0
ENDTAB
  0
TABLE
  2
LAYER
  70
1
  0
LAYER
  2
BLACK
  70
0
  62
7
  6
CONTINUOUS
  0
ENDTAB
  0
ENDSEC
  0
SECTION
  2
ENTITIES
0
LINE
8
BLACK
6
CONTINUOUS
10
119.5
20
-130
11
119.5
21
-60
0
LINE
8
BLACK
6
CONTINUOUS
10
180
20
-130
11
129
21
-130
0
LINE
8
BLACK
6
CONTINUOUS
10
80
20
-130
11
80
21
-30
0
LINE
8
BLACK
6
CONTINUOUS
10
129
20
-60
11
129
21
-130
0
LINE
8
BLACK
6
CONTINUOUS
10
180
20
-30
11
180
21
-130
0
LINE
8
BLACK
6
CONTINUOUS
10
119.5
20
-130
11
80
21
-130
0
LINE
8
BLACK
6
CONTINUOUS
10
80
20
-30
11
180
21
-30
0
LINE
8
BLACK
6
CONTINUOUS
10
129
20
-60
11
119.5
21
-60
0
LINE
8
BLACK
6
CONTINUOUS
10
82.4262
20
-132.985
11
82.4262
21
-130.985
0
LINE
8
BLACK
6
CONTINUOUS
10
82.4262
20
-130.985
11
82.9024
21
-130.985
0
LINE
8
BLACK
6
CONTINUOUS
10
82.9024
20
-130.985
11
83.1881
21
-131.08
0
LINE
8
BLACK
6
CONTINUOUS
10
83.1881
20
-131.08
11
83.3786
21
-131.27
0
LINE
8
BLACK
6
CONTINUOUS
10
83.3786
20
-131.27
11
83.4738
21
-131.461
0
LINE
8
BLACK
6
CONTINUOUS
10
83.4738
20
-131.461
11
83.569
21
-131.842
0
LINE
8
BLACK
6
CONTINUOUS
10
83.569
20
-131.842
11
83.569
21
-132.128
0
LINE
8
BLACK
6
CONTINUOUS
10
83.569
20
-132.128
11
83.4738
21
-132.509
0
LINE
8
BLACK
6
CONTINUOUS
10
83.4738
20
-132.509
11
83.3786
21
-132.699
0
LINE
8
BLACK
6
CONTINUOUS
10
83.3786
20
-132.699
11
83.1881
21
-132.89
0
LINE
8
BLACK
6
CONTINUOUS
10
83.1881
20
-132.89
11
82.9024
21
-132.985
0
LINE
8
BLACK
6
CONTINUOUS
10
82.9024
20
-132.985
11
82.4262
21
-132.985
0
LINE
8
BLACK
6
CONTINUOUS
10
84.4262
20
-132.985
11
84.4262
21
-131.651
0
LINE
8
BLACK
6
CONTINUOUS
10
84.4262
20
-132.032
11
84.5214
21
-131.842
0
LINE
8
BLACK
6
CONTINUOUS
10
84.5214
20
-131.842
11
84.6167
21
-131.747
0
LINE
8
BLACK
6
CONTINUOUS
10
84.6167
20
-131.747
11
84.8071
21
-131.651
0
LINE
8
BLACK
6
CONTINUOUS
10
84.8071
20
-131.651
11
84.9976
21
-131.651
0
LINE
8
BLACK
6
CONTINUOUS
10
85.6643
20
-132.985
11
85.6643
21
-131.651
0
LINE
8
BLACK
6
CONTINUOUS
10
85.6643
20
-130.985
11
85.569
21
-131.08
0
LINE
8
BLACK
6
CONTINUOUS
10
85.569
20
-131.08
11
85.6643
21
-131.175
0
LINE
8
BLACK
6
CONTINUOUS
10
85.6643
20
-131.175
11
85.7595
21
-131.08
0
LINE
8
BLACK
6
CONTINUOUS
10
85.7595
20
-131.08
11
85.6643
21
-130.985
0
LINE
8
BLACK
6
CONTINUOUS
10
85.6643
20
-130.985
11
85.6643
21
-131.175
0
LINE
8
BLACK
6
CONTINUOUS
10
86.9024
20
-132.985
11
86.7119
21
-132.89
0
LINE
8
BLACK
6
CONTINUOUS
10
86.7119
20
-132.89
11
86.6167
21
-132.699
0
LINE
8
BLACK
6
CONTINUOUS
10
86.6167
20
-132.699
11
86.6167
21
-130.985
0
LINE
8
BLACK
6
CONTINUOUS
10
87.95
20
-132.985
11
87.7595
21
-132.89
0
LINE
8
BLACK
6
CONTINUOUS
10
87.7595
20
-132.89
11
87.6643
21
-132.699
0
LINE
8
BLACK
6
CONTINUOUS
10
87.6643
20
-132.699
11
87.6643
21
-130.985
0
LINE
8
BLACK
6
CONTINUOUS
10
89.9119
20
-132.985
11
89.9119
21
-130.985
0
LINE
8
BLACK
6
CONTINUOUS
10
89.9119
20
-130.985
11
90.5786
21
-132.413
0
LINE
8
BLACK
6
CONTINUOUS
10
90.5786
20
-132.413
11
91.2452
21
-130.985
0
LINE
8
BLACK
6
CONTINUOUS
10
91.2452
20
-130.985
11
91.2452
21
-132.985
0
LINE
8
BLACK
6
CONTINUOUS
10
93.0548
20
-132.985
11
93.0548
21
-131.937
0
LINE
8
BLACK
6
CONTINUOUS
10
93.0548
20
-131.937
11
92.9595
21
-131.747
0
LINE
8
BLACK
6
CONTINUOUS
10
92.9595
20
-131.747
11
92.769
21
-131.651
0
LINE
8
BLACK
6
CONTINUOUS
10
92.769
20
-131.651
11
92.3881
21
-131.651
0
LINE
8
BLACK
6
CONTINUOUS
10
92.3881
20
-131.651
11
92.1976
21
-131.747
0
LINE
8
BLACK
6
CONTINUOUS
10
93.0548
20
-132.89
11
92.8643
21
-132.985
0
LINE
8
BLACK
6
CONTINUOUS
10
92.8643
20
-132.985
11
92.3881
21
-132.985
0
LINE
8
BLACK
6
CONTINUOUS
10
92.3881
20
-132.985
11
92.1976
21
-132.89
0
LINE
8
BLACK
6
CONTINUOUS
10
92.1976
20
-132.89
11
92.1024
21
-132.699
0
LINE
8
BLACK
6
CONTINUOUS
10
92.1024
20
-132.699
11
92.1024
21
-132.509
0
LINE
8
BLACK
6
CONTINUOUS
10
92.1024
20
-132.509
11
92.1976
21
-132.318
0
LINE
8
BLACK
6
CONTINUOUS
10
92.1976
20
-132.318
11
92.3881
21
-132.223
0
LINE
8
BLACK
6
CONTINUOUS
10
92.3881
20
-132.223
11
92.8643
21
-132.223
0
LINE
8
BLACK
6
CONTINUOUS
10
92.8643
20
-132.223
11
93.0548
21
-132.128
0
LINE
8
BLACK
6
CONTINUOUS
10
94.0071
20
-131.651
11
94.0071
21
-133.651
0
LINE
8
BLACK
6
CONTINUOUS
10
94.0071
20
-131.747
11
94.1976
21
-131.651
0
LINE
8
BLACK
6
CONTINUOUS
10
94.1976
20
-131.651
11
94.5786
21
-131.651
0
LINE
8
BLACK
6
CONTINUOUS
10
94.5786
20
-131.651
11
94.769
21
-131.747
0
LINE
8
BLACK
6
CONTINUOUS
10
94.769
20
-131.747
11
94.8643
21
-131.842
0
LINE
8
BLACK
6
CONTINUOUS
10
94.8643
20
-131.842
11
94.9595
21
-132.032
0
LINE
8
BLACK
6
CONTINUOUS
10
94.9595
20
-132.032
11
94.9595
21
-132.604
0
LINE
8
BLACK
6
CONTINUOUS
10
94.9595
20
-132.604
11
94.8643
21
-132.794
0
LINE
8
BLACK
6
CONTINUOUS
10
94.8643
20
-132.794
11
94.769
21
-132.89
0
LINE
8
BLACK
6
CONTINUOUS
10
94.769
20
-132.89
11
94.5786
21
-132.985
0
LINE
8
BLACK
6
CONTINUOUS
10
94.5786
20
-132.985
11
94.1976
21
-132.985
0
LINE
8
BLACK
6
CONTINUOUS
10
94.1976
20
-132.985
11
94.0071
21
-132.89
0
LINE
8
BLACK
6
CONTINUOUS
10
95.8167
20
-132.794
11
95.9119
21
-132.89
0
LINE
8
BLACK
6
CONTINUOUS
10
95.9119
20
-132.89
11
95.8167
21
-132.985
0
LINE
8
BLACK
6
CONTINUOUS
10
95.8167
20
-132.985
11
95.7214
21
-132.89
0
LINE
8
BLACK
6
CONTINUOUS
10
95.7214
20
-132.89
11
95.8167
21
-132.794
0
LINE
8
BLACK
6
CONTINUOUS
10
95.8167
20
-132.794
11
95.8167
21
-132.985
0
LINE
8
BLACK
6
CONTINUOUS
10
95.8167
20
-131.747
11
95.9119
21
-131.842
0
LINE
8
BLACK
6
CONTINUOUS
10
95.9119
20
-131.842
11
95.8167
21
-131.937
0
LINE
8
BLACK
6
CONTINUOUS
10
95.8167
20
-131.937
11
95.7214
21
-131.842
0
LINE
8
BLACK
6
CONTINUOUS
10
95.7214
20
-131.842
11
95.8167
21
-131.747
0
LINE
8
BLACK
6
CONTINUOUS
10
95.8167
20
-131.747
11
95.8167
21
-131.937
  0
ENDSEC
  0
EOF
