G04 #@! TF.GenerationSoftware,KiCad,Pcbnew,(6.0.0)*
G04 #@! TF.CreationDate,2023-02-12T16:32:33+01:00*
G04 #@! TF.ProjectId,Ampli_0_5W,416d706c-695f-4305-9f35-572e6b696361,rev?*
G04 #@! TF.SameCoordinates,Original*
G04 #@! TF.FileFunction,Copper,L2,Bot*
G04 #@! TF.FilePolarity,Positive*
%FSLAX46Y46*%
G04 Gerber Fmt 4.6, Leading zero omitted, Abs format (unit mm)*
G04 Created by KiCad (PCBNEW (6.0.0)) date 2023-02-12 16:32:33*
%MOMM*%
%LPD*%
G01*
G04 APERTURE LIST*
G04 Aperture macros list*
%AMRoundRect*
0 Rectangle with rounded corners*
0 $1 Rounding radius*
0 $2 $3 $4 $5 $6 $7 $8 $9 X,Y pos of 4 corners*
0 Add a 4 corners polygon primitive as box body*
4,1,4,$2,$3,$4,$5,$6,$7,$8,$9,$2,$3,0*
0 Add four circle primitives for the rounded corners*
1,1,$1+$1,$2,$3*
1,1,$1+$1,$4,$5*
1,1,$1+$1,$6,$7*
1,1,$1+$1,$8,$9*
0 Add four rect primitives between the rounded corners*
20,1,$1+$1,$2,$3,$4,$5,0*
20,1,$1+$1,$4,$5,$6,$7,0*
20,1,$1+$1,$6,$7,$8,$9,0*
20,1,$1+$1,$8,$9,$2,$3,0*%
G04 Aperture macros list end*
G04 #@! TA.AperFunction,ComponentPad*
%ADD10C,5.600000*%
G04 #@! TD*
G04 #@! TA.AperFunction,ComponentPad*
%ADD11C,8.000000*%
G04 #@! TD*
G04 #@! TA.AperFunction,ComponentPad*
%ADD12RoundRect,0.250000X-0.620000X-0.845000X0.620000X-0.845000X0.620000X0.845000X-0.620000X0.845000X0*%
G04 #@! TD*
G04 #@! TA.AperFunction,ComponentPad*
%ADD13O,1.740000X2.190000*%
G04 #@! TD*
G04 #@! TA.AperFunction,ComponentPad*
%ADD14O,4.000000X3.000000*%
G04 #@! TD*
G04 #@! TA.AperFunction,ComponentPad*
%ADD15C,1.998980*%
G04 #@! TD*
G04 #@! TA.AperFunction,ComponentPad*
%ADD16C,2.499360*%
G04 #@! TD*
G04 #@! TA.AperFunction,SMDPad,CuDef*
%ADD17RoundRect,0.250000X1.069499X0.486136X0.486136X1.069499X-1.069499X-0.486136X-0.486136X-1.069499X0*%
G04 #@! TD*
G04 #@! TA.AperFunction,SMDPad,CuDef*
%ADD18RoundRect,0.250000X1.100000X-0.412500X1.100000X0.412500X-1.100000X0.412500X-1.100000X-0.412500X0*%
G04 #@! TD*
G04 #@! TA.AperFunction,SMDPad,CuDef*
%ADD19RoundRect,0.250000X-1.100000X0.412500X-1.100000X-0.412500X1.100000X-0.412500X1.100000X0.412500X0*%
G04 #@! TD*
G04 #@! TA.AperFunction,SMDPad,CuDef*
%ADD20RoundRect,0.250000X0.412500X1.100000X-0.412500X1.100000X-0.412500X-1.100000X0.412500X-1.100000X0*%
G04 #@! TD*
G04 #@! TA.AperFunction,SMDPad,CuDef*
%ADD21RoundRect,0.250000X-0.412500X-1.100000X0.412500X-1.100000X0.412500X1.100000X-0.412500X1.100000X0*%
G04 #@! TD*
G04 #@! TA.AperFunction,SMDPad,CuDef*
%ADD22RoundRect,0.250000X-1.069499X-0.486136X-0.486136X-1.069499X1.069499X0.486136X0.486136X1.069499X0*%
G04 #@! TD*
G04 #@! TA.AperFunction,ViaPad*
%ADD23C,0.800000*%
G04 #@! TD*
G04 #@! TA.AperFunction,Conductor*
%ADD24C,1.300000*%
G04 #@! TD*
G04 #@! TA.AperFunction,Conductor*
%ADD25C,2.000000*%
G04 #@! TD*
G04 #@! TA.AperFunction,Conductor*
%ADD26C,5.000000*%
G04 #@! TD*
G04 APERTURE END LIST*
D10*
X85000000Y-35000000D03*
X85000000Y-106000000D03*
D11*
X169000000Y-49000000D03*
D10*
X175000000Y-106000000D03*
D12*
X100730000Y-41020000D03*
D13*
X103270000Y-41020000D03*
D11*
X151000000Y-49000000D03*
D10*
X175000000Y-35000000D03*
D14*
X134232500Y-81250000D03*
X134232500Y-77250000D03*
D12*
X135730000Y-41020000D03*
D13*
X138270000Y-41020000D03*
D15*
X85000000Y-78000000D03*
D16*
X82460000Y-75460000D03*
X87540000Y-75460000D03*
X82460000Y-80540000D03*
X87540000Y-80540000D03*
D15*
X175000000Y-72800000D03*
D16*
X172460000Y-75340000D03*
X172460000Y-70260000D03*
X177540000Y-70260000D03*
X177540000Y-75340000D03*
D17*
X149604854Y-82854854D03*
X147395146Y-80645146D03*
D18*
X144250000Y-84812500D03*
X144250000Y-81687500D03*
D19*
X141000000Y-73937500D03*
X141000000Y-77062500D03*
X137750000Y-73937500D03*
X137750000Y-77062500D03*
D20*
X156562500Y-72600000D03*
X153437500Y-72600000D03*
D21*
X145237500Y-62200000D03*
X148362500Y-62200000D03*
D18*
X141000000Y-84812500D03*
X141000000Y-81687500D03*
D20*
X156562500Y-66200000D03*
X153437500Y-66200000D03*
D18*
X137750000Y-84812500D03*
X137750000Y-81687500D03*
D17*
X154304854Y-78104854D03*
X152095146Y-75895146D03*
D21*
X145237500Y-68800000D03*
X148362500Y-68800000D03*
D20*
X156562500Y-69400000D03*
X153437500Y-69400000D03*
D22*
X144395146Y-72895146D03*
X146604854Y-75104854D03*
D21*
X145237500Y-65400000D03*
X148362500Y-65400000D03*
D20*
X156562500Y-63000000D03*
X153437500Y-63000000D03*
D17*
X151854854Y-80604854D03*
X149645146Y-78395146D03*
D23*
X81500000Y-111500000D03*
X177500000Y-116500000D03*
X92000000Y-128000000D03*
X81500000Y-96500000D03*
X143500000Y-65000000D03*
X167000000Y-108500000D03*
X121500000Y-56500000D03*
X152500000Y-82500000D03*
X116500000Y-46500000D03*
X87000000Y-96500000D03*
X177500000Y-46500000D03*
X158000000Y-69000000D03*
X81500000Y-91500000D03*
X142000000Y-128000000D03*
X106500000Y-91500000D03*
X92000000Y-101500000D03*
X172000000Y-128000000D03*
X96500000Y-31500000D03*
X116500000Y-56500000D03*
X105000000Y-71500000D03*
X147000000Y-96500000D03*
X132000000Y-101500000D03*
X97000000Y-96500000D03*
X87000000Y-101500000D03*
X81500000Y-61500000D03*
X96000000Y-42000000D03*
X143500000Y-69000000D03*
X142000000Y-108500000D03*
X152000000Y-108500000D03*
X136500000Y-56500000D03*
X142000000Y-72500000D03*
X121500000Y-31500000D03*
X177500000Y-51500000D03*
X156500000Y-78500000D03*
X157000000Y-128000000D03*
X177000000Y-128000000D03*
X87000000Y-66500000D03*
X157000000Y-108500000D03*
X157000000Y-31500000D03*
X117000000Y-108500000D03*
X92000000Y-108500000D03*
X158000000Y-61000000D03*
X82000000Y-128000000D03*
X102000000Y-108500000D03*
X86500000Y-31500000D03*
X98000000Y-51000000D03*
X139500000Y-86500000D03*
X95500000Y-47500000D03*
X155000000Y-80000000D03*
X153500000Y-81000000D03*
X91000000Y-49000000D03*
X158000000Y-63000000D03*
X143500000Y-86500000D03*
X137000000Y-108500000D03*
X151000000Y-84000000D03*
X106500000Y-83500000D03*
X147000000Y-31500000D03*
X177500000Y-66500000D03*
X157000000Y-91500000D03*
X92000000Y-96500000D03*
X89000000Y-42000000D03*
X106500000Y-80500000D03*
X106500000Y-86500000D03*
X87000000Y-71500000D03*
X141500000Y-51500000D03*
X132000000Y-128000000D03*
X161500000Y-31500000D03*
X98000000Y-45500000D03*
X171500000Y-31500000D03*
X81500000Y-71500000D03*
X168000000Y-91500000D03*
X112000000Y-96500000D03*
X81500000Y-46500000D03*
X173000000Y-66500000D03*
X141500000Y-56500000D03*
X87000000Y-128000000D03*
X92500000Y-50500000D03*
X137000000Y-96500000D03*
X97000000Y-128000000D03*
X81500000Y-116500000D03*
X177500000Y-41500000D03*
X177500000Y-96500000D03*
X112000000Y-101500000D03*
X145500000Y-86500000D03*
X142000000Y-96500000D03*
X106500000Y-89000000D03*
X97000000Y-108500000D03*
X107000000Y-108500000D03*
X147000000Y-128000000D03*
X126500000Y-31500000D03*
X177500000Y-56500000D03*
X147000000Y-91500000D03*
X177500000Y-101500000D03*
X95500000Y-50500000D03*
X116500000Y-51500000D03*
X177500000Y-121500000D03*
X81500000Y-36500000D03*
X147000000Y-108500000D03*
X137000000Y-128000000D03*
X116500000Y-31500000D03*
X157500000Y-77000000D03*
X87000000Y-56500000D03*
X162500000Y-46500000D03*
X167500000Y-41500000D03*
X131500000Y-31500000D03*
X177500000Y-81500000D03*
X94000000Y-46000000D03*
X105000000Y-61500000D03*
X143500000Y-67000000D03*
X177500000Y-61500000D03*
X105000000Y-56500000D03*
X168000000Y-66500000D03*
X88000000Y-48500000D03*
X117000000Y-128000000D03*
X101500000Y-31500000D03*
X91500000Y-31500000D03*
X162000000Y-108500000D03*
X92500000Y-42000000D03*
X91000000Y-46000000D03*
X131500000Y-56500000D03*
X112000000Y-108500000D03*
X147500000Y-86500000D03*
X136500000Y-46500000D03*
X177500000Y-111500000D03*
X117000000Y-101500000D03*
X158000000Y-67000000D03*
X143500000Y-71500000D03*
X163000000Y-91500000D03*
X166500000Y-31500000D03*
X107000000Y-101500000D03*
X105000000Y-66500000D03*
X81500000Y-66500000D03*
X81500000Y-101500000D03*
X149500000Y-85500000D03*
X163000000Y-66500000D03*
X177500000Y-86500000D03*
X139500000Y-72500000D03*
X172500000Y-41500000D03*
X173000000Y-91500000D03*
X132000000Y-108500000D03*
X162000000Y-128000000D03*
X177500000Y-91500000D03*
X107000000Y-128000000D03*
X88000000Y-45500000D03*
X152500000Y-31500000D03*
X162500000Y-56500000D03*
X81500000Y-51500000D03*
X152000000Y-128000000D03*
X158000000Y-65000000D03*
X158000000Y-75000000D03*
X81500000Y-121500000D03*
X167000000Y-128000000D03*
X102000000Y-128000000D03*
X126500000Y-56500000D03*
X94000000Y-49000000D03*
X141500000Y-31500000D03*
X81500000Y-56500000D03*
X106500000Y-31500000D03*
X81500000Y-86500000D03*
X141500000Y-46500000D03*
X121500000Y-46500000D03*
X143500000Y-63000000D03*
X162500000Y-51500000D03*
X81500000Y-31500000D03*
X136500000Y-31500000D03*
X92500000Y-47500000D03*
X143500000Y-59000000D03*
X158000000Y-73000000D03*
X112000000Y-128000000D03*
X158000000Y-59000000D03*
X126500000Y-46500000D03*
X98000000Y-48500000D03*
X87000000Y-61500000D03*
X117000000Y-96500000D03*
X141500000Y-86500000D03*
X131500000Y-46500000D03*
X143500000Y-61000000D03*
X111500000Y-31500000D03*
X132000000Y-96500000D03*
X163000000Y-61500000D03*
X81500000Y-41500000D03*
X158000000Y-71000000D03*
X152000000Y-91500000D03*
X162500000Y-41500000D03*
X177500000Y-106500000D03*
D24*
X156562500Y-66200000D02*
X156562500Y-63000000D01*
X147687500Y-84812500D02*
X144250000Y-84812500D01*
X156562500Y-72600000D02*
X156562500Y-75847208D01*
X145237500Y-65400000D02*
X145237500Y-62200000D01*
X154304854Y-78154854D02*
X151854854Y-80604854D01*
X156562500Y-69400000D02*
X156562500Y-66200000D01*
X151854854Y-80604854D02*
X149604854Y-82854854D01*
X154304854Y-78104854D02*
X154304854Y-78154854D01*
X145000000Y-72300000D02*
X145000000Y-69037500D01*
X156562500Y-75847208D02*
X154304854Y-78104854D01*
X137750000Y-84812500D02*
X141000000Y-84812500D01*
X141000000Y-84812500D02*
X144250000Y-84812500D01*
X145237500Y-68800000D02*
X145237500Y-65400000D01*
X156562500Y-72600000D02*
X156562500Y-69400000D01*
X137750000Y-73937500D02*
X141000000Y-73937500D01*
X149604854Y-82854854D02*
X149604854Y-82895146D01*
X143352792Y-73937500D02*
X144395146Y-72895146D01*
X141000000Y-73937500D02*
X143352792Y-73937500D01*
X145000000Y-69037500D02*
X145237500Y-68800000D01*
X149604854Y-82895146D02*
X147687500Y-84812500D01*
D25*
X134232500Y-77250000D02*
X137250000Y-77250000D01*
X137250000Y-81250000D02*
X139250000Y-79250000D01*
X134232500Y-81250000D02*
X137250000Y-81250000D01*
D26*
X145250000Y-79250000D02*
X139250000Y-79250000D01*
X151000000Y-48000000D02*
X151000000Y-73500000D01*
X151000000Y-73500000D02*
X145250000Y-79250000D01*
D25*
X137250000Y-77250000D02*
X139250000Y-79250000D01*
G04 #@! TA.AperFunction,Conductor*
G36*
X179434121Y-30528002D02*
G01*
X179480614Y-30581658D01*
X179492000Y-30634000D01*
X179492000Y-69874000D01*
X179471998Y-69942121D01*
X179418342Y-69988614D01*
X179366000Y-70000000D01*
X172000000Y-70000000D01*
X172000000Y-76000000D01*
X179366000Y-76000000D01*
X179434121Y-76020002D01*
X179480614Y-76073658D01*
X179492000Y-76126000D01*
X179492000Y-129366000D01*
X179471998Y-129434121D01*
X179418342Y-129480614D01*
X179366000Y-129492000D01*
X129634000Y-129492000D01*
X129565879Y-129471998D01*
X129519386Y-129418342D01*
X129508000Y-129366000D01*
X129508000Y-84626000D01*
X129528002Y-84557879D01*
X129581658Y-84511386D01*
X129634000Y-84500000D01*
X147500000Y-84500000D01*
X156000000Y-75500000D01*
X156000000Y-54626000D01*
X156020002Y-54557879D01*
X156073658Y-54511386D01*
X156126000Y-54500000D01*
X157000000Y-54500000D01*
X157000000Y-42500000D01*
X144500000Y-42500000D01*
X144500000Y-54500000D01*
X145874000Y-54500000D01*
X145942121Y-54520002D01*
X145988614Y-54573658D01*
X146000000Y-54626000D01*
X146000000Y-72439441D01*
X145979998Y-72507562D01*
X145952712Y-72537830D01*
X143534514Y-74472389D01*
X143468825Y-74499325D01*
X143455802Y-74500000D01*
X129634000Y-74500000D01*
X129565879Y-74479998D01*
X129519386Y-74426342D01*
X129508000Y-74374000D01*
X129508000Y-60008702D01*
X129508002Y-60007932D01*
X129508421Y-59939322D01*
X129508476Y-59930348D01*
X129506010Y-59921719D01*
X129506009Y-59921714D01*
X129500361Y-59901952D01*
X129496783Y-59885191D01*
X129493870Y-59864848D01*
X129493867Y-59864838D01*
X129492595Y-59855955D01*
X129481979Y-59832605D01*
X129475536Y-59815093D01*
X129470954Y-59799063D01*
X129468488Y-59790435D01*
X129452726Y-59765452D01*
X129444596Y-59750386D01*
X129432367Y-59723490D01*
X129415626Y-59704061D01*
X129404521Y-59689053D01*
X129395630Y-59674961D01*
X129390840Y-59667369D01*
X129368703Y-59647818D01*
X129356659Y-59635626D01*
X129343239Y-59620051D01*
X129343237Y-59620050D01*
X129337381Y-59613253D01*
X129329853Y-59608374D01*
X129329850Y-59608371D01*
X129315861Y-59599304D01*
X129300987Y-59588014D01*
X129288502Y-59576988D01*
X129281772Y-59571044D01*
X129273646Y-59567229D01*
X129273645Y-59567228D01*
X129267979Y-59564568D01*
X129255034Y-59558490D01*
X129240065Y-59550176D01*
X129215273Y-59534107D01*
X129190709Y-59526761D01*
X129173264Y-59520099D01*
X129168827Y-59518016D01*
X129150052Y-59509201D01*
X129120870Y-59504657D01*
X129104151Y-59500874D01*
X129084464Y-59494986D01*
X129084461Y-59494985D01*
X129075859Y-59492413D01*
X129066884Y-59492358D01*
X129066883Y-59492358D01*
X129060190Y-59492317D01*
X129041444Y-59492203D01*
X129040672Y-59492170D01*
X129039577Y-59492000D01*
X129008702Y-59492000D01*
X129007932Y-59491998D01*
X128934284Y-59491548D01*
X128934283Y-59491548D01*
X128930348Y-59491524D01*
X128929004Y-59491908D01*
X128927659Y-59492000D01*
X119508702Y-59492000D01*
X119507932Y-59491998D01*
X119507078Y-59491993D01*
X119430348Y-59491524D01*
X119421719Y-59493990D01*
X119421714Y-59493991D01*
X119401952Y-59499639D01*
X119385191Y-59503217D01*
X119364848Y-59506130D01*
X119364838Y-59506133D01*
X119355955Y-59507405D01*
X119332605Y-59518021D01*
X119315093Y-59524464D01*
X119307057Y-59526761D01*
X119290435Y-59531512D01*
X119265452Y-59547274D01*
X119250386Y-59555404D01*
X119223490Y-59567633D01*
X119204061Y-59584374D01*
X119189053Y-59595479D01*
X119167369Y-59609160D01*
X119161427Y-59615888D01*
X119147819Y-59631296D01*
X119135627Y-59643340D01*
X119113253Y-59662619D01*
X119108374Y-59670147D01*
X119108371Y-59670150D01*
X119099304Y-59684139D01*
X119088014Y-59699013D01*
X119071044Y-59718228D01*
X119058490Y-59744966D01*
X119050176Y-59759935D01*
X119034107Y-59784727D01*
X119031535Y-59793327D01*
X119026761Y-59809290D01*
X119020099Y-59826736D01*
X119009201Y-59849948D01*
X119004658Y-59879128D01*
X119000874Y-59895849D01*
X118994986Y-59915536D01*
X118994985Y-59915539D01*
X118992413Y-59924141D01*
X118992358Y-59933116D01*
X118992358Y-59933117D01*
X118992203Y-59958546D01*
X118992170Y-59959328D01*
X118992000Y-59960423D01*
X118992000Y-59991298D01*
X118991998Y-59992068D01*
X118991524Y-60069652D01*
X118991908Y-60070996D01*
X118992000Y-60072341D01*
X118992000Y-129366000D01*
X118971998Y-129434121D01*
X118918342Y-129480614D01*
X118866000Y-129492000D01*
X80634000Y-129492000D01*
X80565879Y-129471998D01*
X80519386Y-129418342D01*
X80508000Y-129366000D01*
X80508000Y-80500000D01*
X82500000Y-80500000D01*
X87500000Y-80500000D01*
X87500000Y-75000000D01*
X82500000Y-75000000D01*
X82500000Y-80500000D01*
X80508000Y-80500000D01*
X80508000Y-41915400D01*
X99351500Y-41915400D01*
X99362474Y-42021166D01*
X99418450Y-42188946D01*
X99511522Y-42339348D01*
X99636697Y-42464305D01*
X99642927Y-42468145D01*
X99642928Y-42468146D01*
X99780090Y-42552694D01*
X99787262Y-42557115D01*
X99867005Y-42583564D01*
X99948611Y-42610632D01*
X99948613Y-42610632D01*
X99955139Y-42612797D01*
X99961975Y-42613497D01*
X99961978Y-42613498D01*
X100005031Y-42617909D01*
X100059600Y-42623500D01*
X101400400Y-42623500D01*
X101403646Y-42623163D01*
X101403650Y-42623163D01*
X101499308Y-42613238D01*
X101499312Y-42613237D01*
X101506166Y-42612526D01*
X101512702Y-42610345D01*
X101512704Y-42610345D01*
X101644806Y-42566272D01*
X101673946Y-42556550D01*
X101824348Y-42463478D01*
X101949305Y-42338303D01*
X102042115Y-42187738D01*
X102097797Y-42019861D01*
X102108500Y-41915400D01*
X134351500Y-41915400D01*
X134362474Y-42021166D01*
X134418450Y-42188946D01*
X134511522Y-42339348D01*
X134636697Y-42464305D01*
X134642927Y-42468145D01*
X134642928Y-42468146D01*
X134780090Y-42552694D01*
X134787262Y-42557115D01*
X134867005Y-42583564D01*
X134948611Y-42610632D01*
X134948613Y-42610632D01*
X134955139Y-42612797D01*
X134961975Y-42613497D01*
X134961978Y-42613498D01*
X135005031Y-42617909D01*
X135059600Y-42623500D01*
X136400400Y-42623500D01*
X136403646Y-42623163D01*
X136403650Y-42623163D01*
X136499308Y-42613238D01*
X136499312Y-42613237D01*
X136506166Y-42612526D01*
X136512702Y-42610345D01*
X136512704Y-42610345D01*
X136644806Y-42566272D01*
X136673946Y-42556550D01*
X136824348Y-42463478D01*
X136949305Y-42338303D01*
X137042115Y-42187738D01*
X137097797Y-42019861D01*
X137108500Y-41915400D01*
X137108500Y-40124600D01*
X137097526Y-40018834D01*
X137041550Y-39851054D01*
X136948478Y-39700652D01*
X136823303Y-39575695D01*
X136817072Y-39571854D01*
X136678968Y-39486725D01*
X136678966Y-39486724D01*
X136672738Y-39482885D01*
X136512254Y-39429655D01*
X136511389Y-39429368D01*
X136511387Y-39429368D01*
X136504861Y-39427203D01*
X136498025Y-39426503D01*
X136498022Y-39426502D01*
X136454969Y-39422091D01*
X136400400Y-39416500D01*
X135059600Y-39416500D01*
X135056354Y-39416837D01*
X135056350Y-39416837D01*
X134960692Y-39426762D01*
X134960688Y-39426763D01*
X134953834Y-39427474D01*
X134947298Y-39429655D01*
X134947296Y-39429655D01*
X134815194Y-39473728D01*
X134786054Y-39483450D01*
X134635652Y-39576522D01*
X134510695Y-39701697D01*
X134417885Y-39852262D01*
X134362203Y-40020139D01*
X134351500Y-40124600D01*
X134351500Y-41915400D01*
X102108500Y-41915400D01*
X102108500Y-40124600D01*
X102097526Y-40018834D01*
X102041550Y-39851054D01*
X101948478Y-39700652D01*
X101823303Y-39575695D01*
X101817072Y-39571854D01*
X101678968Y-39486725D01*
X101678966Y-39486724D01*
X101672738Y-39482885D01*
X101512254Y-39429655D01*
X101511389Y-39429368D01*
X101511387Y-39429368D01*
X101504861Y-39427203D01*
X101498025Y-39426503D01*
X101498022Y-39426502D01*
X101454969Y-39422091D01*
X101400400Y-39416500D01*
X100059600Y-39416500D01*
X100056354Y-39416837D01*
X100056350Y-39416837D01*
X99960692Y-39426762D01*
X99960688Y-39426763D01*
X99953834Y-39427474D01*
X99947298Y-39429655D01*
X99947296Y-39429655D01*
X99815194Y-39473728D01*
X99786054Y-39483450D01*
X99635652Y-39576522D01*
X99510695Y-39701697D01*
X99417885Y-39852262D01*
X99362203Y-40020139D01*
X99351500Y-40124600D01*
X99351500Y-41915400D01*
X80508000Y-41915400D01*
X80508000Y-30634000D01*
X80528002Y-30565879D01*
X80581658Y-30519386D01*
X80634000Y-30508000D01*
X179366000Y-30508000D01*
X179434121Y-30528002D01*
G37*
G04 #@! TD.AperFunction*
M02*
