%FSLAX45Y45*%
G04 Gerber Fmt 4.5, Leading zero omitted, Abs format (unit mm)*
G04 Created by KiCad (PCBNEW (6.0.0)) date 2023-02-12 17:08:21*
%MOMM*%
%LPD*%
G01*
G04 APERTURE LIST*
%TA.AperFunction,Profile*%
%ADD10C,0.100000*%
%TD*%
%ADD11C,0.200000*%
G04 APERTURE END LIST*
D10*
X11950000Y-13000000D02*
X11950000Y-6000000D01*
X18000000Y-13000000D02*
X12900000Y-13000000D01*
X8000000Y-13000000D02*
X8000000Y-3000000D01*
X12900000Y-6000000D02*
X12900000Y-13000000D01*
X18000000Y-3000000D02*
X18000000Y-13000000D01*
X11950000Y-13000000D02*
X8000000Y-13000000D01*
X8000000Y-3000000D02*
X18000000Y-3000000D01*
X12900000Y-6000000D02*
X11950000Y-6000000D01*
D11*
X8252619Y-13315476D02*
X8252619Y-13115476D01*
X8300238Y-13115476D01*
X8328809Y-13125000D01*
X8347857Y-13144048D01*
X8357381Y-13163095D01*
X8366905Y-13201190D01*
X8366905Y-13229762D01*
X8357381Y-13267857D01*
X8347857Y-13286905D01*
X8328809Y-13305952D01*
X8300238Y-13315476D01*
X8252619Y-13315476D01*
X8452619Y-13315476D02*
X8452619Y-13182143D01*
X8452619Y-13220238D02*
X8462143Y-13201190D01*
X8471667Y-13191667D01*
X8490714Y-13182143D01*
X8509762Y-13182143D01*
X8576429Y-13315476D02*
X8576429Y-13182143D01*
X8576429Y-13115476D02*
X8566905Y-13125000D01*
X8576429Y-13134524D01*
X8585952Y-13125000D01*
X8576429Y-13115476D01*
X8576429Y-13134524D01*
X8700238Y-13315476D02*
X8681190Y-13305952D01*
X8671667Y-13286905D01*
X8671667Y-13115476D01*
X8805000Y-13315476D02*
X8785952Y-13305952D01*
X8776429Y-13286905D01*
X8776429Y-13115476D01*
X9033571Y-13315476D02*
X9033571Y-13115476D01*
X9100238Y-13258333D01*
X9166905Y-13115476D01*
X9166905Y-13315476D01*
X9347857Y-13315476D02*
X9347857Y-13210714D01*
X9338333Y-13191667D01*
X9319286Y-13182143D01*
X9281190Y-13182143D01*
X9262143Y-13191667D01*
X9347857Y-13305952D02*
X9328810Y-13315476D01*
X9281190Y-13315476D01*
X9262143Y-13305952D01*
X9252619Y-13286905D01*
X9252619Y-13267857D01*
X9262143Y-13248809D01*
X9281190Y-13239286D01*
X9328810Y-13239286D01*
X9347857Y-13229762D01*
X9443095Y-13182143D02*
X9443095Y-13382143D01*
X9443095Y-13191667D02*
X9462143Y-13182143D01*
X9500238Y-13182143D01*
X9519286Y-13191667D01*
X9528810Y-13201190D01*
X9538333Y-13220238D01*
X9538333Y-13277381D01*
X9528810Y-13296428D01*
X9519286Y-13305952D01*
X9500238Y-13315476D01*
X9462143Y-13315476D01*
X9443095Y-13305952D01*
X9624048Y-13296428D02*
X9633571Y-13305952D01*
X9624048Y-13315476D01*
X9614524Y-13305952D01*
X9624048Y-13296428D01*
X9624048Y-13315476D01*
X9624048Y-13191667D02*
X9633571Y-13201190D01*
X9624048Y-13210714D01*
X9614524Y-13201190D01*
X9624048Y-13191667D01*
X9624048Y-13210714D01*
M02*
