G04 #@! TF.GenerationSoftware,KiCad,Pcbnew,(6.0.0)*
G04 #@! TF.CreationDate,2022-09-27T14:15:41+02:00*
G04 #@! TF.ProjectId,Ampli_0_5W,416d706c-695f-4305-9f35-572e6b696361,rev?*
G04 #@! TF.SameCoordinates,Original*
G04 #@! TF.FileFunction,Soldermask,Bot*
G04 #@! TF.FilePolarity,Negative*
%FSLAX46Y46*%
G04 Gerber Fmt 4.6, Leading zero omitted, Abs format (unit mm)*
G04 Created by KiCad (PCBNEW (6.0.0)) date 2022-09-27 14:15:41*
%MOMM*%
%LPD*%
G01*
G04 APERTURE LIST*
G04 Aperture macros list*
%AMRoundRect*
0 Rectangle with rounded corners*
0 $1 Rounding radius*
0 $2 $3 $4 $5 $6 $7 $8 $9 X,Y pos of 4 corners*
0 Add a 4 corners polygon primitive as box body*
4,1,4,$2,$3,$4,$5,$6,$7,$8,$9,$2,$3,0*
0 Add four circle primitives for the rounded corners*
1,1,$1+$1,$2,$3*
1,1,$1+$1,$4,$5*
1,1,$1+$1,$6,$7*
1,1,$1+$1,$8,$9*
0 Add four rect primitives between the rounded corners*
20,1,$1+$1,$2,$3,$4,$5,0*
20,1,$1+$1,$4,$5,$6,$7,0*
20,1,$1+$1,$6,$7,$8,$9,0*
20,1,$1+$1,$8,$9,$2,$3,0*%
G04 Aperture macros list end*
%ADD10C,5.600000*%
%ADD11RoundRect,0.250000X-0.620000X-0.845000X0.620000X-0.845000X0.620000X0.845000X-0.620000X0.845000X0*%
%ADD12O,1.740000X2.190000*%
%ADD13O,4.000000X3.000000*%
%ADD14C,1.998980*%
%ADD15C,2.499360*%
%ADD16RoundRect,0.250000X1.069499X0.486136X0.486136X1.069499X-1.069499X-0.486136X-0.486136X-1.069499X0*%
%ADD17RoundRect,0.250000X1.100000X-0.412500X1.100000X0.412500X-1.100000X0.412500X-1.100000X-0.412500X0*%
%ADD18RoundRect,0.250000X-1.100000X0.412500X-1.100000X-0.412500X1.100000X-0.412500X1.100000X0.412500X0*%
%ADD19RoundRect,0.250000X0.412500X1.100000X-0.412500X1.100000X-0.412500X-1.100000X0.412500X-1.100000X0*%
%ADD20RoundRect,0.250000X-0.412500X-1.100000X0.412500X-1.100000X0.412500X1.100000X-0.412500X1.100000X0*%
%ADD21RoundRect,0.250000X-1.069499X-0.486136X-0.486136X-1.069499X1.069499X0.486136X0.486136X1.069499X0*%
G04 APERTURE END LIST*
D10*
X85000000Y-35000000D03*
X85000000Y-106000000D03*
X163000000Y-35000000D03*
X124000000Y-100500000D03*
X124000000Y-57500000D03*
X175000000Y-106000000D03*
D11*
X115000000Y-34900000D03*
D12*
X117540000Y-34900000D03*
D10*
X151000000Y-35500000D03*
X175000000Y-35000000D03*
D13*
X134232500Y-81250000D03*
X134232500Y-77250000D03*
D11*
X135500000Y-35000000D03*
D12*
X138040000Y-35000000D03*
D14*
X85000000Y-78000000D03*
D15*
X82460000Y-75460000D03*
X87540000Y-75460000D03*
X82460000Y-80540000D03*
X87540000Y-80540000D03*
D14*
X176000000Y-72800000D03*
D15*
X173460000Y-75340000D03*
X173460000Y-70260000D03*
X178540000Y-70260000D03*
X178540000Y-75340000D03*
D16*
X149604854Y-82854854D03*
X147395146Y-80645146D03*
D17*
X144250000Y-84812500D03*
X144250000Y-81687500D03*
D18*
X141000000Y-73937500D03*
X141000000Y-77062500D03*
X137750000Y-73937500D03*
X137750000Y-77062500D03*
D19*
X156562500Y-72600000D03*
X153437500Y-72600000D03*
D20*
X145237500Y-62200000D03*
X148362500Y-62200000D03*
D17*
X141000000Y-84812500D03*
X141000000Y-81687500D03*
D19*
X156562500Y-66200000D03*
X153437500Y-66200000D03*
D17*
X137750000Y-84812500D03*
X137750000Y-81687500D03*
D16*
X154304854Y-78104854D03*
X152095146Y-75895146D03*
D20*
X145237500Y-68800000D03*
X148362500Y-68800000D03*
D19*
X156562500Y-69400000D03*
X153437500Y-69400000D03*
D21*
X144395146Y-72895146D03*
X146604854Y-75104854D03*
D20*
X145237500Y-65400000D03*
X148362500Y-65400000D03*
D19*
X156562500Y-63000000D03*
X153437500Y-63000000D03*
D16*
X151854854Y-80604854D03*
X149645146Y-78395146D03*
G36*
X179942121Y-30020002D02*
G01*
X179988614Y-30073658D01*
X180000000Y-30126000D01*
X180000000Y-110874000D01*
X179979998Y-110942121D01*
X179926342Y-110988614D01*
X179874000Y-111000000D01*
X80126000Y-111000000D01*
X80057879Y-110979998D01*
X80011386Y-110926342D01*
X80000000Y-110874000D01*
X80000000Y-88481885D01*
X118800000Y-88481885D01*
X118804475Y-88497124D01*
X118805865Y-88498329D01*
X118813548Y-88500000D01*
X128781885Y-88500000D01*
X128797124Y-88495525D01*
X128798329Y-88494135D01*
X128800000Y-88486452D01*
X128800000Y-69918115D01*
X128795525Y-69902876D01*
X128794135Y-69901671D01*
X128786452Y-69900000D01*
X118818115Y-69900000D01*
X118802876Y-69904475D01*
X118801671Y-69905865D01*
X118800000Y-69913548D01*
X118800000Y-88481885D01*
X80000000Y-88481885D01*
X80000000Y-30126000D01*
X80020002Y-30057879D01*
X80073658Y-30011386D01*
X80126000Y-30000000D01*
X179874000Y-30000000D01*
X179942121Y-30020002D01*
G37*
M02*
