G04 #@! TF.GenerationSoftware,KiCad,Pcbnew,(6.0.0)*
G04 #@! TF.CreationDate,2023-02-12T16:32:33+01:00*
G04 #@! TF.ProjectId,Ampli_0_5W,416d706c-695f-4305-9f35-572e6b696361,rev?*
G04 #@! TF.SameCoordinates,Original*
G04 #@! TF.FileFunction,Soldermask,Top*
G04 #@! TF.FilePolarity,Negative*
%FSLAX46Y46*%
G04 Gerber Fmt 4.6, Leading zero omitted, Abs format (unit mm)*
G04 Created by KiCad (PCBNEW (6.0.0)) date 2023-02-12 16:32:33*
%MOMM*%
%LPD*%
G01*
G04 APERTURE LIST*
G04 Aperture macros list*
%AMRoundRect*
0 Rectangle with rounded corners*
0 $1 Rounding radius*
0 $2 $3 $4 $5 $6 $7 $8 $9 X,Y pos of 4 corners*
0 Add a 4 corners polygon primitive as box body*
4,1,4,$2,$3,$4,$5,$6,$7,$8,$9,$2,$3,0*
0 Add four circle primitives for the rounded corners*
1,1,$1+$1,$2,$3*
1,1,$1+$1,$4,$5*
1,1,$1+$1,$6,$7*
1,1,$1+$1,$8,$9*
0 Add four rect primitives between the rounded corners*
20,1,$1+$1,$2,$3,$4,$5,0*
20,1,$1+$1,$4,$5,$6,$7,0*
20,1,$1+$1,$6,$7,$8,$9,0*
20,1,$1+$1,$8,$9,$2,$3,0*%
G04 Aperture macros list end*
%ADD10C,5.600000*%
%ADD11RoundRect,0.250000X0.337500X0.475000X-0.337500X0.475000X-0.337500X-0.475000X0.337500X-0.475000X0*%
%ADD12RoundRect,0.625000X-1.375000X-0.625000X1.375000X-0.625000X1.375000X0.625000X-1.375000X0.625000X0*%
%ADD13RoundRect,0.250000X0.350000X0.450000X-0.350000X0.450000X-0.350000X-0.450000X0.350000X-0.450000X0*%
%ADD14RoundRect,0.250000X-0.337500X-0.475000X0.337500X-0.475000X0.337500X0.475000X-0.337500X0.475000X0*%
%ADD15C,8.000000*%
%ADD16RoundRect,0.500000X0.500000X1.500000X-0.500000X1.500000X-0.500000X-1.500000X0.500000X-1.500000X0*%
%ADD17RoundRect,0.500000X1.500000X-0.500000X1.500000X0.500000X-1.500000X0.500000X-1.500000X-0.500000X0*%
%ADD18R,2.700000X4.320000*%
%ADD19RoundRect,0.250000X-0.400000X-1.450000X0.400000X-1.450000X0.400000X1.450000X-0.400000X1.450000X0*%
%ADD20R,1.200000X2.200000*%
%ADD21R,5.800000X6.400000*%
%ADD22RoundRect,0.250000X0.875000X1.025000X-0.875000X1.025000X-0.875000X-1.025000X0.875000X-1.025000X0*%
%ADD23RoundRect,0.500000X-0.500000X-1.500000X0.500000X-1.500000X0.500000X1.500000X-0.500000X1.500000X0*%
%ADD24RoundRect,0.250000X-0.620000X-0.845000X0.620000X-0.845000X0.620000X0.845000X-0.620000X0.845000X0*%
%ADD25O,1.740000X2.190000*%
%ADD26RoundRect,0.250000X-0.475000X0.337500X-0.475000X-0.337500X0.475000X-0.337500X0.475000X0.337500X0*%
%ADD27R,0.800000X1.900000*%
%ADD28RoundRect,0.250000X0.450000X-0.350000X0.450000X0.350000X-0.450000X0.350000X-0.450000X-0.350000X0*%
%ADD29RoundRect,0.250000X-0.450000X0.350000X-0.450000X-0.350000X0.450000X-0.350000X0.450000X0.350000X0*%
%ADD30RoundRect,0.250000X-1.625000X0.675000X-1.625000X-0.675000X1.625000X-0.675000X1.625000X0.675000X0*%
%ADD31RoundRect,0.250000X1.350000X1.975000X-1.350000X1.975000X-1.350000X-1.975000X1.350000X-1.975000X0*%
%ADD32RoundRect,0.250000X-0.350000X-0.450000X0.350000X-0.450000X0.350000X0.450000X-0.350000X0.450000X0*%
%ADD33RoundRect,0.250000X0.650000X-0.412500X0.650000X0.412500X-0.650000X0.412500X-0.650000X-0.412500X0*%
%ADD34O,4.000000X3.000000*%
%ADD35R,2.500000X2.000000*%
%ADD36R,3.000000X3.000000*%
%ADD37C,1.998980*%
%ADD38C,2.499360*%
%ADD39RoundRect,0.250000X0.925000X-0.875000X0.925000X0.875000X-0.925000X0.875000X-0.925000X-0.875000X0*%
%ADD40RoundRect,1.000000X2.500000X-1.000000X2.500000X1.000000X-2.500000X1.000000X-2.500000X-1.000000X0*%
G04 APERTURE END LIST*
D10*
X85000000Y-35000000D03*
D11*
X96037500Y-81000000D03*
X93962500Y-81000000D03*
D12*
X101500000Y-84000000D03*
X101500000Y-79000000D03*
X101500000Y-73500000D03*
X112500000Y-73500000D03*
X112500000Y-79000000D03*
X112500000Y-84000000D03*
D13*
X115500000Y-75900000D03*
X113500000Y-75900000D03*
D14*
X97462500Y-101250000D03*
X99537500Y-101250000D03*
D13*
X96000000Y-83000000D03*
X94000000Y-83000000D03*
D10*
X85000000Y-106000000D03*
D15*
X169000000Y-49000000D03*
D16*
X101250000Y-101750000D03*
D17*
X107750000Y-95250000D03*
D16*
X101250000Y-88750000D03*
D18*
X117900000Y-76500000D03*
X117900000Y-81900000D03*
X129700000Y-81900000D03*
X129700000Y-76500000D03*
D19*
X99775000Y-35000000D03*
X104225000Y-35000000D03*
D20*
X90720000Y-54200000D03*
D21*
X93000000Y-47900000D03*
D20*
X95280000Y-54200000D03*
D22*
X96700000Y-71500000D03*
X90300000Y-71500000D03*
D23*
X85000000Y-90000000D03*
X88000000Y-90000000D03*
X91000000Y-90000000D03*
D10*
X175000000Y-106000000D03*
D24*
X100730000Y-41020000D03*
D25*
X103270000Y-41020000D03*
D11*
X109400000Y-79000000D03*
X107325000Y-79000000D03*
D26*
X130000000Y-40462500D03*
X130000000Y-42537500D03*
D27*
X126950000Y-39000000D03*
X125050000Y-39000000D03*
X126000000Y-42000000D03*
D28*
X132000000Y-42500000D03*
X132000000Y-40500000D03*
D15*
X151000000Y-49000000D03*
D13*
X115500000Y-81600000D03*
X113500000Y-81600000D03*
D14*
X101462500Y-67000000D03*
X103537500Y-67000000D03*
D29*
X119000000Y-40000000D03*
X119000000Y-42000000D03*
D13*
X96000000Y-79000000D03*
X94000000Y-79000000D03*
D14*
X87962500Y-85000000D03*
X90037500Y-85000000D03*
D13*
X96000000Y-85000000D03*
X94000000Y-85000000D03*
D10*
X175000000Y-35000000D03*
D30*
X108500000Y-64725000D03*
X108500000Y-69275000D03*
D31*
X131100000Y-89500000D03*
X114000000Y-89500000D03*
D32*
X94000000Y-87000000D03*
X96000000Y-87000000D03*
D13*
X105250000Y-101250000D03*
X103250000Y-101250000D03*
D29*
X109000000Y-75000000D03*
X109000000Y-77000000D03*
D20*
X112780000Y-41700000D03*
D21*
X110500000Y-48000000D03*
D20*
X108220000Y-41700000D03*
D33*
X117300000Y-73762500D03*
X117300000Y-70637500D03*
D31*
X131100000Y-69000000D03*
X114000000Y-69000000D03*
D34*
X134232500Y-81250000D03*
X134232500Y-77250000D03*
D26*
X85000000Y-82962500D03*
X85000000Y-85037500D03*
D24*
X135730000Y-41020000D03*
D25*
X138270000Y-41020000D03*
D35*
X94000000Y-62300000D03*
D36*
X95500000Y-59050000D03*
D35*
X97000000Y-62300000D03*
D32*
X130000000Y-38500000D03*
X132000000Y-38500000D03*
D37*
X85000000Y-78000000D03*
D38*
X82460000Y-75460000D03*
X87540000Y-75460000D03*
X82460000Y-80540000D03*
X87540000Y-80540000D03*
D26*
X116500000Y-39962500D03*
X116500000Y-42037500D03*
D39*
X90000000Y-62550000D03*
X90000000Y-57450000D03*
D40*
X134500000Y-72750000D03*
X134500000Y-85750000D03*
X167500000Y-85750000D03*
X167500000Y-72750000D03*
D22*
X96700000Y-66500000D03*
X90300000Y-66500000D03*
D28*
X101000000Y-71000000D03*
X101000000Y-69000000D03*
D33*
X117400000Y-87762500D03*
X117400000Y-84637500D03*
D13*
X123000000Y-42000000D03*
X121000000Y-42000000D03*
D37*
X175000000Y-72800000D03*
D38*
X172460000Y-75340000D03*
X172460000Y-70260000D03*
X177540000Y-70260000D03*
X177540000Y-75340000D03*
M02*
