G04 #@! TF.GenerationSoftware,KiCad,Pcbnew,(6.0.0)*
G04 #@! TF.CreationDate,2022-09-04T09:00:45+02:00*
G04 #@! TF.ProjectId,Ampli_0_5W,416d706c-695f-4305-9f35-572e6b696361,rev?*
G04 #@! TF.SameCoordinates,Original*
G04 #@! TF.FileFunction,Copper,L2,Bot*
G04 #@! TF.FilePolarity,Positive*
%FSLAX46Y46*%
G04 Gerber Fmt 4.6, Leading zero omitted, Abs format (unit mm)*
G04 Created by KiCad (PCBNEW (6.0.0)) date 2022-09-04 09:00:45*
%MOMM*%
%LPD*%
G01*
G04 APERTURE LIST*
G04 Aperture macros list*
%AMRoundRect*
0 Rectangle with rounded corners*
0 $1 Rounding radius*
0 $2 $3 $4 $5 $6 $7 $8 $9 X,Y pos of 4 corners*
0 Add a 4 corners polygon primitive as box body*
4,1,4,$2,$3,$4,$5,$6,$7,$8,$9,$2,$3,0*
0 Add four circle primitives for the rounded corners*
1,1,$1+$1,$2,$3*
1,1,$1+$1,$4,$5*
1,1,$1+$1,$6,$7*
1,1,$1+$1,$8,$9*
0 Add four rect primitives between the rounded corners*
20,1,$1+$1,$2,$3,$4,$5,0*
20,1,$1+$1,$4,$5,$6,$7,0*
20,1,$1+$1,$6,$7,$8,$9,0*
20,1,$1+$1,$8,$9,$2,$3,0*%
G04 Aperture macros list end*
G04 #@! TA.AperFunction,ComponentPad*
%ADD10C,5.600000*%
G04 #@! TD*
G04 #@! TA.AperFunction,ComponentPad*
%ADD11RoundRect,0.250000X-0.620000X-0.845000X0.620000X-0.845000X0.620000X0.845000X-0.620000X0.845000X0*%
G04 #@! TD*
G04 #@! TA.AperFunction,ComponentPad*
%ADD12O,1.740000X2.190000*%
G04 #@! TD*
G04 #@! TA.AperFunction,ComponentPad*
%ADD13C,1.998980*%
G04 #@! TD*
G04 #@! TA.AperFunction,ComponentPad*
%ADD14C,2.499360*%
G04 #@! TD*
G04 #@! TA.AperFunction,ViaPad*
%ADD15C,0.800000*%
G04 #@! TD*
G04 APERTURE END LIST*
D10*
X85000000Y-35000000D03*
X85000000Y-106000000D03*
X163000000Y-35000000D03*
X124000000Y-100500000D03*
X124000000Y-57500000D03*
X175000000Y-106000000D03*
D11*
X115000000Y-34900000D03*
D12*
X117540000Y-34900000D03*
D10*
X151000000Y-35500000D03*
X175000000Y-35000000D03*
D11*
X135500000Y-35000000D03*
D12*
X138040000Y-35000000D03*
D13*
X85000000Y-78000000D03*
D14*
X82460000Y-75460000D03*
X87540000Y-75460000D03*
X82460000Y-80540000D03*
X87540000Y-80540000D03*
D13*
X175000000Y-58500000D03*
D14*
X172460000Y-61040000D03*
X172460000Y-55960000D03*
X177540000Y-55960000D03*
X177540000Y-61040000D03*
D15*
X170000000Y-60000000D03*
X113000000Y-95000000D03*
X105000000Y-105000000D03*
X98000000Y-75000000D03*
X165000000Y-110000000D03*
X90000000Y-70000000D03*
X82000000Y-93000000D03*
X165000000Y-65000000D03*
X152000000Y-64500000D03*
X143000000Y-94000000D03*
X125000000Y-110000000D03*
X95000000Y-50750000D03*
X85000000Y-70000000D03*
X115500000Y-86500000D03*
X101000000Y-87000000D03*
X160000000Y-55000000D03*
X120000000Y-60000000D03*
X165000000Y-60000000D03*
X125000000Y-105000000D03*
X170000000Y-90000000D03*
X90000000Y-40000000D03*
X135000000Y-50000000D03*
X150000000Y-110000000D03*
X115500000Y-85000000D03*
X150500000Y-64500000D03*
X115500000Y-72500000D03*
X85000000Y-40000000D03*
X105000000Y-78500000D03*
X145000000Y-105000000D03*
X90000000Y-50000000D03*
X120000000Y-105000000D03*
X145000000Y-60000000D03*
X123000000Y-89500000D03*
X85000000Y-60000000D03*
X110000000Y-87000000D03*
X131100000Y-64600000D03*
X120000000Y-68500000D03*
X120000000Y-89500000D03*
X175000000Y-90000000D03*
X105000000Y-83000000D03*
X90000000Y-60000000D03*
X146000000Y-94000000D03*
X115500000Y-74000000D03*
X170000000Y-50000000D03*
X141500000Y-79300000D03*
X175000000Y-45000000D03*
X129400000Y-94000000D03*
X105000000Y-75500000D03*
X115000000Y-60000000D03*
X115500000Y-95500000D03*
X95000000Y-65000000D03*
X138500000Y-64500000D03*
X95000000Y-75000000D03*
X110000000Y-50000000D03*
X91000000Y-75000000D03*
X95000000Y-52000000D03*
X115500000Y-68000000D03*
X118500000Y-68500000D03*
X130900000Y-94000000D03*
X135600000Y-64600000D03*
X82000000Y-83000000D03*
X155000000Y-45000000D03*
X136500000Y-79250000D03*
X165000000Y-90000000D03*
X158000000Y-94000000D03*
X95000000Y-57000000D03*
X175000000Y-50000000D03*
X98000000Y-70000000D03*
X165000000Y-95000000D03*
X82000000Y-88000000D03*
X145600000Y-79300000D03*
X138500000Y-94000000D03*
X85000000Y-65000000D03*
X170000000Y-100000000D03*
X115500000Y-69500000D03*
X110000000Y-105000000D03*
X145000000Y-110000000D03*
X129600000Y-64600000D03*
X125000000Y-35000000D03*
X115500000Y-89500000D03*
X140000000Y-94000000D03*
X134500000Y-79250000D03*
X165000000Y-55000000D03*
X144500000Y-94000000D03*
X115000000Y-55000000D03*
X135400000Y-94000000D03*
X90000000Y-45000000D03*
X152000000Y-94000000D03*
X132400000Y-79250000D03*
X144600000Y-79300000D03*
X105000000Y-65000000D03*
X146000000Y-64500000D03*
X100250000Y-50750000D03*
X100000000Y-110000000D03*
X140000000Y-55000000D03*
X165000000Y-50000000D03*
X115500000Y-91000000D03*
X132400000Y-94000000D03*
X90000000Y-35000000D03*
X140000000Y-105000000D03*
X159750000Y-64500000D03*
X140000000Y-64500000D03*
X160000000Y-105000000D03*
X147500000Y-64500000D03*
X142600000Y-79300000D03*
X105000000Y-77000000D03*
X133900000Y-94000000D03*
X137000000Y-64500000D03*
X95000000Y-55750000D03*
X98000000Y-82000000D03*
X110000000Y-110000000D03*
X95000000Y-105000000D03*
X156750000Y-64500000D03*
X105000000Y-74000000D03*
X135131018Y-54868982D03*
X115000000Y-100000000D03*
X150000000Y-100000000D03*
X138500000Y-79250000D03*
X165000000Y-75000000D03*
X115500000Y-66500000D03*
X115000000Y-110000000D03*
X175000000Y-80000000D03*
X143600000Y-79300000D03*
X121500000Y-89500000D03*
X115500000Y-88000000D03*
X165000000Y-80000000D03*
X155000000Y-55000000D03*
X115500000Y-65000000D03*
X160000000Y-40000000D03*
X170000000Y-55000000D03*
X170000000Y-105000000D03*
X120000000Y-55000000D03*
X113000000Y-90000000D03*
X124500000Y-89500000D03*
X115500000Y-83500000D03*
X132600000Y-64600000D03*
X135500000Y-79250000D03*
X82000000Y-98000000D03*
X110000000Y-45000000D03*
X159500000Y-94000000D03*
X95000000Y-35000000D03*
X115500000Y-94000000D03*
X90000000Y-65000000D03*
X134100000Y-64600000D03*
X165000000Y-45000000D03*
X160000000Y-110000000D03*
X145000000Y-100000000D03*
X175000000Y-100000000D03*
X85000000Y-50000000D03*
X130000000Y-100000000D03*
X147500000Y-94000000D03*
X130000000Y-40000000D03*
X155000000Y-110000000D03*
X85000000Y-55000000D03*
X120000000Y-110000000D03*
X130000000Y-35000000D03*
X160000000Y-60000000D03*
X170000000Y-80000000D03*
X130000000Y-60000000D03*
X170000000Y-65000000D03*
X135000000Y-105000000D03*
X130000000Y-110000000D03*
X100250000Y-53250000D03*
X155000000Y-105000000D03*
X155000000Y-50000000D03*
X139500000Y-79250000D03*
X105000000Y-80000000D03*
X100250000Y-58250000D03*
X100250000Y-55750000D03*
X105000000Y-110000000D03*
X137000000Y-94000000D03*
X137500000Y-79250000D03*
X91000000Y-83000000D03*
X155000000Y-60000000D03*
X144500000Y-64500000D03*
X98000000Y-86000000D03*
X140000000Y-60000000D03*
X165000000Y-40000000D03*
X165000000Y-105000000D03*
X160000000Y-45000000D03*
X118500000Y-89500000D03*
X90000000Y-100000000D03*
X90000000Y-105000000D03*
X100250000Y-57000000D03*
X165000000Y-100000000D03*
X121500000Y-68500000D03*
X95000000Y-53250000D03*
X149000000Y-94000000D03*
X115500000Y-92500000D03*
X115500000Y-63000000D03*
X95000000Y-110000000D03*
X110000000Y-100000000D03*
X133500000Y-79250000D03*
X156500000Y-94000000D03*
X90000000Y-55000000D03*
X141500000Y-94000000D03*
X95000000Y-54500000D03*
X175000000Y-40000000D03*
X149000000Y-64500000D03*
X123000000Y-68500000D03*
X115000000Y-105000000D03*
X160000000Y-50000000D03*
X140000000Y-110000000D03*
X135000000Y-100000000D03*
X100250000Y-52000000D03*
X170000000Y-110000000D03*
X175000000Y-95000000D03*
X155000000Y-94000000D03*
X150500000Y-94000000D03*
X140500000Y-79250000D03*
X170000000Y-45000000D03*
X100000000Y-105000000D03*
X85000000Y-100000000D03*
X165000000Y-70000000D03*
X130000000Y-55000000D03*
X115500000Y-71000000D03*
X105000000Y-81500000D03*
X105000000Y-70000000D03*
X130000000Y-105000000D03*
X90000000Y-110000000D03*
X126000000Y-89500000D03*
X140000000Y-100000000D03*
X170000000Y-40000000D03*
X158250000Y-64461510D03*
X160000000Y-100000000D03*
X135000000Y-110000000D03*
X145000000Y-50000000D03*
X145000000Y-55000000D03*
X140000000Y-50000000D03*
X110000000Y-55000000D03*
X153500000Y-94000000D03*
X91000000Y-79000000D03*
X143000000Y-64500000D03*
X126000000Y-68500000D03*
X100000000Y-35000000D03*
X150000000Y-105000000D03*
X170000000Y-95000000D03*
X155000000Y-100000000D03*
X141500000Y-64500000D03*
X95000000Y-70000000D03*
X165000000Y-85000000D03*
X124500000Y-68500000D03*
X85000000Y-45000000D03*
G04 #@! TA.AperFunction,Conductor*
G36*
X142942121Y-30528002D02*
G01*
X142988614Y-30581658D01*
X143000000Y-30634000D01*
X143000000Y-43500000D01*
X158500000Y-43500000D01*
X158500000Y-37516381D01*
X172849160Y-37516381D01*
X172849237Y-37517470D01*
X172851698Y-37521206D01*
X173125632Y-37731404D01*
X173131262Y-37735259D01*
X173431591Y-37917862D01*
X173437593Y-37921080D01*
X173755897Y-38070184D01*
X173762202Y-38072732D01*
X174094743Y-38186587D01*
X174101313Y-38188446D01*
X174444183Y-38265714D01*
X174450912Y-38266853D01*
X174800143Y-38306643D01*
X174806933Y-38307046D01*
X175158419Y-38308886D01*
X175165220Y-38308554D01*
X175514853Y-38272423D01*
X175521581Y-38271357D01*
X175865274Y-38197676D01*
X175871822Y-38195897D01*
X176205549Y-38085527D01*
X176211891Y-38083041D01*
X176531718Y-37937288D01*
X176537777Y-37934121D01*
X176839995Y-37754676D01*
X176845659Y-37750884D01*
X177126732Y-37539849D01*
X177131958Y-37535464D01*
X177141613Y-37526428D01*
X177149682Y-37512750D01*
X177149654Y-37512024D01*
X177144512Y-37503723D01*
X175012810Y-35372020D01*
X174998869Y-35364408D01*
X174997034Y-35364539D01*
X174990420Y-35368790D01*
X172856774Y-37502437D01*
X172849160Y-37516381D01*
X158500000Y-37516381D01*
X158500000Y-34991832D01*
X171687333Y-34991832D01*
X171705117Y-35342893D01*
X171705827Y-35349649D01*
X171761420Y-35696723D01*
X171762859Y-35703378D01*
X171855608Y-36042410D01*
X171857757Y-36048871D01*
X171986581Y-36375912D01*
X171989412Y-36382095D01*
X172152803Y-36693310D01*
X172156286Y-36699152D01*
X172352330Y-36990896D01*
X172356433Y-36996340D01*
X172476425Y-37138836D01*
X172489164Y-37147279D01*
X172499608Y-37141181D01*
X174627980Y-35012810D01*
X174634357Y-35001131D01*
X175364408Y-35001131D01*
X175364539Y-35002966D01*
X175368790Y-35009580D01*
X177499009Y-37139798D01*
X177512605Y-37147223D01*
X177522218Y-37140522D01*
X177622518Y-37023912D01*
X177626676Y-37018514D01*
X177825762Y-36728840D01*
X177829310Y-36723029D01*
X177995942Y-36413559D01*
X177998849Y-36407381D01*
X178131090Y-36081713D01*
X178133304Y-36075283D01*
X178229598Y-35737237D01*
X178231105Y-35730607D01*
X178290332Y-35384118D01*
X178291112Y-35377378D01*
X178312668Y-35024925D01*
X178312784Y-35021323D01*
X178312853Y-35001819D01*
X178312761Y-34998194D01*
X178293666Y-34645615D01*
X178292931Y-34638849D01*
X178236130Y-34291985D01*
X178234663Y-34285313D01*
X178140736Y-33946627D01*
X178138562Y-33940163D01*
X178008598Y-33613578D01*
X178005742Y-33607398D01*
X177841269Y-33296763D01*
X177837769Y-33290937D01*
X177640697Y-32999862D01*
X177636590Y-32994453D01*
X177523565Y-32861179D01*
X177510740Y-32852743D01*
X177500416Y-32858795D01*
X175372020Y-34987190D01*
X175364408Y-35001131D01*
X174634357Y-35001131D01*
X174635592Y-34998869D01*
X174635461Y-34997034D01*
X174631210Y-34990420D01*
X172500992Y-32860203D01*
X172487455Y-32852811D01*
X172477753Y-32859599D01*
X172370430Y-32985257D01*
X172366296Y-32990664D01*
X172168215Y-33281041D01*
X172164697Y-33286851D01*
X171999134Y-33596922D01*
X171996259Y-33603087D01*
X171865155Y-33929218D01*
X171862962Y-33935658D01*
X171767846Y-34274044D01*
X171766363Y-34280679D01*
X171708350Y-34627354D01*
X171707591Y-34634126D01*
X171687357Y-34985037D01*
X171687333Y-34991832D01*
X158500000Y-34991832D01*
X158500000Y-32486862D01*
X172849950Y-32486862D01*
X172849986Y-32487704D01*
X172855037Y-32495826D01*
X174987190Y-34627980D01*
X175001131Y-34635592D01*
X175002966Y-34635461D01*
X175009580Y-34631210D01*
X177142798Y-32497991D01*
X177150412Y-32484047D01*
X177150344Y-32483089D01*
X177145836Y-32476272D01*
X177144418Y-32475065D01*
X176864813Y-32262064D01*
X176859187Y-32258240D01*
X176558214Y-32076681D01*
X176552202Y-32073484D01*
X176233370Y-31925487D01*
X176227070Y-31922967D01*
X175894129Y-31810273D01*
X175887551Y-31808437D01*
X175544417Y-31732367D01*
X175537678Y-31731251D01*
X175188310Y-31692680D01*
X175181529Y-31692301D01*
X174830015Y-31691687D01*
X174823242Y-31692042D01*
X174473720Y-31729395D01*
X174467010Y-31730482D01*
X174123586Y-31805361D01*
X174117011Y-31807172D01*
X173783683Y-31918702D01*
X173777361Y-31921205D01*
X173458034Y-32068079D01*
X173451991Y-32071265D01*
X173150401Y-32251763D01*
X173144755Y-32255571D01*
X172864408Y-32467596D01*
X172859211Y-32471987D01*
X172857972Y-32473155D01*
X172849950Y-32486862D01*
X158500000Y-32486862D01*
X158500000Y-30634000D01*
X158520002Y-30565879D01*
X158573658Y-30519386D01*
X158626000Y-30508000D01*
X179366000Y-30508000D01*
X179434121Y-30528002D01*
X179480614Y-30581658D01*
X179492000Y-30634000D01*
X179492000Y-55494264D01*
X179471998Y-55562385D01*
X179418342Y-55608878D01*
X179348068Y-55618982D01*
X179283488Y-55589488D01*
X179245104Y-55529762D01*
X179243107Y-55522072D01*
X179226622Y-55449220D01*
X179223898Y-55440309D01*
X179132598Y-55205530D01*
X179128587Y-55197121D01*
X179003588Y-54978420D01*
X178998377Y-54970694D01*
X178961164Y-54923490D01*
X178949238Y-54915018D01*
X178937706Y-54921504D01*
X177912022Y-55947188D01*
X177904408Y-55961132D01*
X177904539Y-55962965D01*
X177908790Y-55969580D01*
X178939682Y-57000472D01*
X178952062Y-57007232D01*
X178960403Y-57000988D01*
X179086483Y-56804975D01*
X179090930Y-56796783D01*
X179194388Y-56567116D01*
X179197583Y-56558338D01*
X179244731Y-56391163D01*
X179282472Y-56331029D01*
X179346734Y-56300846D01*
X179417112Y-56310196D01*
X179471262Y-56356112D01*
X179492000Y-56425364D01*
X179492000Y-60574264D01*
X179471998Y-60642385D01*
X179418342Y-60688878D01*
X179348068Y-60698982D01*
X179283488Y-60669488D01*
X179245104Y-60609762D01*
X179243107Y-60602072D01*
X179226622Y-60529220D01*
X179223898Y-60520309D01*
X179132598Y-60285530D01*
X179128587Y-60277121D01*
X179003588Y-60058420D01*
X178998377Y-60050694D01*
X178961164Y-60003490D01*
X178949238Y-59995018D01*
X178937706Y-60001504D01*
X177912022Y-61027188D01*
X177904408Y-61041132D01*
X177904539Y-61042965D01*
X177908790Y-61049580D01*
X178939682Y-62080472D01*
X178952062Y-62087232D01*
X178960403Y-62080988D01*
X179086483Y-61884975D01*
X179090930Y-61876783D01*
X179194388Y-61647116D01*
X179197583Y-61638338D01*
X179244731Y-61471163D01*
X179282472Y-61411029D01*
X179346734Y-61380846D01*
X179417112Y-61390196D01*
X179471262Y-61436112D01*
X179492000Y-61505364D01*
X179492000Y-110366000D01*
X179471998Y-110434121D01*
X179418342Y-110480614D01*
X179366000Y-110492000D01*
X80634000Y-110492000D01*
X80565879Y-110471998D01*
X80519386Y-110418342D01*
X80508000Y-110366000D01*
X80508000Y-108516381D01*
X82849160Y-108516381D01*
X82849237Y-108517470D01*
X82851698Y-108521206D01*
X83125632Y-108731404D01*
X83131262Y-108735259D01*
X83431591Y-108917862D01*
X83437593Y-108921080D01*
X83755897Y-109070184D01*
X83762202Y-109072732D01*
X84094743Y-109186587D01*
X84101313Y-109188446D01*
X84444183Y-109265714D01*
X84450912Y-109266853D01*
X84800143Y-109306643D01*
X84806933Y-109307046D01*
X85158419Y-109308886D01*
X85165220Y-109308554D01*
X85514853Y-109272423D01*
X85521581Y-109271357D01*
X85865274Y-109197676D01*
X85871822Y-109195897D01*
X86205549Y-109085527D01*
X86211891Y-109083041D01*
X86531718Y-108937288D01*
X86537777Y-108934121D01*
X86839995Y-108754676D01*
X86845659Y-108750884D01*
X87126732Y-108539849D01*
X87131958Y-108535464D01*
X87141613Y-108526428D01*
X87147540Y-108516381D01*
X172849160Y-108516381D01*
X172849237Y-108517470D01*
X172851698Y-108521206D01*
X173125632Y-108731404D01*
X173131262Y-108735259D01*
X173431591Y-108917862D01*
X173437593Y-108921080D01*
X173755897Y-109070184D01*
X173762202Y-109072732D01*
X174094743Y-109186587D01*
X174101313Y-109188446D01*
X174444183Y-109265714D01*
X174450912Y-109266853D01*
X174800143Y-109306643D01*
X174806933Y-109307046D01*
X175158419Y-109308886D01*
X175165220Y-109308554D01*
X175514853Y-109272423D01*
X175521581Y-109271357D01*
X175865274Y-109197676D01*
X175871822Y-109195897D01*
X176205549Y-109085527D01*
X176211891Y-109083041D01*
X176531718Y-108937288D01*
X176537777Y-108934121D01*
X176839995Y-108754676D01*
X176845659Y-108750884D01*
X177126732Y-108539849D01*
X177131958Y-108535464D01*
X177141613Y-108526428D01*
X177149682Y-108512750D01*
X177149654Y-108512024D01*
X177144512Y-108503723D01*
X175012810Y-106372020D01*
X174998869Y-106364408D01*
X174997034Y-106364539D01*
X174990420Y-106368790D01*
X172856774Y-108502437D01*
X172849160Y-108516381D01*
X87147540Y-108516381D01*
X87149682Y-108512750D01*
X87149654Y-108512024D01*
X87144512Y-108503723D01*
X85012810Y-106372020D01*
X84998869Y-106364408D01*
X84997034Y-106364539D01*
X84990420Y-106368790D01*
X82856774Y-108502437D01*
X82849160Y-108516381D01*
X80508000Y-108516381D01*
X80508000Y-105991832D01*
X81687333Y-105991832D01*
X81705117Y-106342893D01*
X81705827Y-106349649D01*
X81761420Y-106696723D01*
X81762859Y-106703378D01*
X81855608Y-107042410D01*
X81857757Y-107048871D01*
X81986581Y-107375912D01*
X81989412Y-107382095D01*
X82152803Y-107693310D01*
X82156286Y-107699152D01*
X82352330Y-107990896D01*
X82356433Y-107996340D01*
X82476425Y-108138836D01*
X82489164Y-108147279D01*
X82499608Y-108141181D01*
X84627980Y-106012810D01*
X84634357Y-106001131D01*
X85364408Y-106001131D01*
X85364539Y-106002966D01*
X85368790Y-106009580D01*
X87499009Y-108139798D01*
X87512605Y-108147223D01*
X87522218Y-108140522D01*
X87622518Y-108023912D01*
X87626676Y-108018514D01*
X87825762Y-107728840D01*
X87829310Y-107723029D01*
X87995942Y-107413559D01*
X87998849Y-107407381D01*
X88131090Y-107081713D01*
X88133304Y-107075283D01*
X88229598Y-106737237D01*
X88231105Y-106730607D01*
X88290332Y-106384118D01*
X88291112Y-106377378D01*
X88312668Y-106024925D01*
X88312784Y-106021323D01*
X88312853Y-106001819D01*
X88312761Y-105998194D01*
X88312416Y-105991832D01*
X171687333Y-105991832D01*
X171705117Y-106342893D01*
X171705827Y-106349649D01*
X171761420Y-106696723D01*
X171762859Y-106703378D01*
X171855608Y-107042410D01*
X171857757Y-107048871D01*
X171986581Y-107375912D01*
X171989412Y-107382095D01*
X172152803Y-107693310D01*
X172156286Y-107699152D01*
X172352330Y-107990896D01*
X172356433Y-107996340D01*
X172476425Y-108138836D01*
X172489164Y-108147279D01*
X172499608Y-108141181D01*
X174627980Y-106012810D01*
X174634357Y-106001131D01*
X175364408Y-106001131D01*
X175364539Y-106002966D01*
X175368790Y-106009580D01*
X177499009Y-108139798D01*
X177512605Y-108147223D01*
X177522218Y-108140522D01*
X177622518Y-108023912D01*
X177626676Y-108018514D01*
X177825762Y-107728840D01*
X177829310Y-107723029D01*
X177995942Y-107413559D01*
X177998849Y-107407381D01*
X178131090Y-107081713D01*
X178133304Y-107075283D01*
X178229598Y-106737237D01*
X178231105Y-106730607D01*
X178290332Y-106384118D01*
X178291112Y-106377378D01*
X178312668Y-106024925D01*
X178312784Y-106021323D01*
X178312853Y-106001819D01*
X178312761Y-105998194D01*
X178293666Y-105645615D01*
X178292931Y-105638849D01*
X178236130Y-105291985D01*
X178234663Y-105285313D01*
X178140736Y-104946627D01*
X178138562Y-104940163D01*
X178008598Y-104613578D01*
X178005742Y-104607398D01*
X177841269Y-104296763D01*
X177837769Y-104290937D01*
X177640697Y-103999862D01*
X177636590Y-103994453D01*
X177523565Y-103861179D01*
X177510740Y-103852743D01*
X177500416Y-103858795D01*
X175372020Y-105987190D01*
X175364408Y-106001131D01*
X174634357Y-106001131D01*
X174635592Y-105998869D01*
X174635461Y-105997034D01*
X174631210Y-105990420D01*
X172500992Y-103860203D01*
X172487455Y-103852811D01*
X172477753Y-103859599D01*
X172370430Y-103985257D01*
X172366296Y-103990664D01*
X172168215Y-104281041D01*
X172164697Y-104286851D01*
X171999134Y-104596922D01*
X171996259Y-104603087D01*
X171865155Y-104929218D01*
X171862962Y-104935658D01*
X171767846Y-105274044D01*
X171766363Y-105280679D01*
X171708350Y-105627354D01*
X171707591Y-105634126D01*
X171687357Y-105985037D01*
X171687333Y-105991832D01*
X88312416Y-105991832D01*
X88293666Y-105645615D01*
X88292931Y-105638849D01*
X88236130Y-105291985D01*
X88234663Y-105285313D01*
X88140736Y-104946627D01*
X88138562Y-104940163D01*
X88008598Y-104613578D01*
X88005742Y-104607398D01*
X87841269Y-104296763D01*
X87837769Y-104290937D01*
X87640697Y-103999862D01*
X87636590Y-103994453D01*
X87523565Y-103861179D01*
X87510740Y-103852743D01*
X87500416Y-103858795D01*
X85372020Y-105987190D01*
X85364408Y-106001131D01*
X84634357Y-106001131D01*
X84635592Y-105998869D01*
X84635461Y-105997034D01*
X84631210Y-105990420D01*
X82500992Y-103860203D01*
X82487455Y-103852811D01*
X82477753Y-103859599D01*
X82370430Y-103985257D01*
X82366296Y-103990664D01*
X82168215Y-104281041D01*
X82164697Y-104286851D01*
X81999134Y-104596922D01*
X81996259Y-104603087D01*
X81865155Y-104929218D01*
X81862962Y-104935658D01*
X81767846Y-105274044D01*
X81766363Y-105280679D01*
X81708350Y-105627354D01*
X81707591Y-105634126D01*
X81687357Y-105985037D01*
X81687333Y-105991832D01*
X80508000Y-105991832D01*
X80508000Y-103486862D01*
X82849950Y-103486862D01*
X82849986Y-103487704D01*
X82855037Y-103495826D01*
X84987190Y-105627980D01*
X85001131Y-105635592D01*
X85002966Y-105635461D01*
X85009580Y-105631210D01*
X87142798Y-103497991D01*
X87150412Y-103484047D01*
X87150344Y-103483089D01*
X87145836Y-103476272D01*
X87144418Y-103475065D01*
X86864813Y-103262064D01*
X86859187Y-103258240D01*
X86558214Y-103076681D01*
X86552202Y-103073484D01*
X86429184Y-103016381D01*
X121849160Y-103016381D01*
X121849237Y-103017470D01*
X121851698Y-103021206D01*
X122125632Y-103231404D01*
X122131262Y-103235259D01*
X122431591Y-103417862D01*
X122437593Y-103421080D01*
X122755897Y-103570184D01*
X122762202Y-103572732D01*
X123094743Y-103686587D01*
X123101313Y-103688446D01*
X123444183Y-103765714D01*
X123450912Y-103766853D01*
X123800143Y-103806643D01*
X123806933Y-103807046D01*
X124158419Y-103808886D01*
X124165220Y-103808554D01*
X124514853Y-103772423D01*
X124521581Y-103771357D01*
X124865274Y-103697676D01*
X124871822Y-103695897D01*
X125205549Y-103585527D01*
X125211891Y-103583041D01*
X125422937Y-103486862D01*
X172849950Y-103486862D01*
X172849986Y-103487704D01*
X172855037Y-103495826D01*
X174987190Y-105627980D01*
X175001131Y-105635592D01*
X175002966Y-105635461D01*
X175009580Y-105631210D01*
X177142798Y-103497991D01*
X177150412Y-103484047D01*
X177150344Y-103483089D01*
X177145836Y-103476272D01*
X177144418Y-103475065D01*
X176864813Y-103262064D01*
X176859187Y-103258240D01*
X176558214Y-103076681D01*
X176552202Y-103073484D01*
X176233370Y-102925487D01*
X176227070Y-102922967D01*
X175894129Y-102810273D01*
X175887551Y-102808437D01*
X175544417Y-102732367D01*
X175537678Y-102731251D01*
X175188310Y-102692680D01*
X175181529Y-102692301D01*
X174830015Y-102691687D01*
X174823242Y-102692042D01*
X174473720Y-102729395D01*
X174467010Y-102730482D01*
X174123586Y-102805361D01*
X174117011Y-102807172D01*
X173783683Y-102918702D01*
X173777361Y-102921205D01*
X173458034Y-103068079D01*
X173451991Y-103071265D01*
X173150401Y-103251763D01*
X173144755Y-103255571D01*
X172864408Y-103467596D01*
X172859211Y-103471987D01*
X172857972Y-103473155D01*
X172849950Y-103486862D01*
X125422937Y-103486862D01*
X125531718Y-103437288D01*
X125537777Y-103434121D01*
X125839995Y-103254676D01*
X125845659Y-103250884D01*
X126126732Y-103039849D01*
X126131958Y-103035464D01*
X126141613Y-103026428D01*
X126149682Y-103012750D01*
X126149654Y-103012024D01*
X126144512Y-103003723D01*
X124012810Y-100872020D01*
X123998869Y-100864408D01*
X123997034Y-100864539D01*
X123990420Y-100868790D01*
X121856774Y-103002437D01*
X121849160Y-103016381D01*
X86429184Y-103016381D01*
X86233370Y-102925487D01*
X86227070Y-102922967D01*
X85894129Y-102810273D01*
X85887551Y-102808437D01*
X85544417Y-102732367D01*
X85537678Y-102731251D01*
X85188310Y-102692680D01*
X85181529Y-102692301D01*
X84830015Y-102691687D01*
X84823242Y-102692042D01*
X84473720Y-102729395D01*
X84467010Y-102730482D01*
X84123586Y-102805361D01*
X84117011Y-102807172D01*
X83783683Y-102918702D01*
X83777361Y-102921205D01*
X83458034Y-103068079D01*
X83451991Y-103071265D01*
X83150401Y-103251763D01*
X83144755Y-103255571D01*
X82864408Y-103467596D01*
X82859211Y-103471987D01*
X82857972Y-103473155D01*
X82849950Y-103486862D01*
X80508000Y-103486862D01*
X80508000Y-100491832D01*
X120687333Y-100491832D01*
X120705117Y-100842893D01*
X120705827Y-100849649D01*
X120761420Y-101196723D01*
X120762859Y-101203378D01*
X120855608Y-101542410D01*
X120857757Y-101548871D01*
X120986581Y-101875912D01*
X120989412Y-101882095D01*
X121152803Y-102193310D01*
X121156286Y-102199152D01*
X121352330Y-102490896D01*
X121356433Y-102496340D01*
X121476425Y-102638836D01*
X121489164Y-102647279D01*
X121499608Y-102641181D01*
X123627980Y-100512810D01*
X123634357Y-100501131D01*
X124364408Y-100501131D01*
X124364539Y-100502966D01*
X124368790Y-100509580D01*
X126499009Y-102639798D01*
X126512605Y-102647223D01*
X126522218Y-102640522D01*
X126622518Y-102523912D01*
X126626676Y-102518514D01*
X126825762Y-102228840D01*
X126829310Y-102223029D01*
X126995942Y-101913559D01*
X126998849Y-101907381D01*
X127131090Y-101581713D01*
X127133304Y-101575283D01*
X127229598Y-101237237D01*
X127231105Y-101230607D01*
X127290332Y-100884118D01*
X127291112Y-100877378D01*
X127312668Y-100524925D01*
X127312784Y-100521323D01*
X127312853Y-100501819D01*
X127312761Y-100498194D01*
X127293666Y-100145615D01*
X127292931Y-100138849D01*
X127236130Y-99791985D01*
X127234663Y-99785313D01*
X127140736Y-99446627D01*
X127138562Y-99440163D01*
X127008598Y-99113578D01*
X127005742Y-99107398D01*
X126841269Y-98796763D01*
X126837769Y-98790937D01*
X126640697Y-98499862D01*
X126636590Y-98494453D01*
X126523565Y-98361179D01*
X126510740Y-98352743D01*
X126500416Y-98358795D01*
X124372020Y-100487190D01*
X124364408Y-100501131D01*
X123634357Y-100501131D01*
X123635592Y-100498869D01*
X123635461Y-100497034D01*
X123631210Y-100490420D01*
X121500992Y-98360203D01*
X121487455Y-98352811D01*
X121477753Y-98359599D01*
X121370430Y-98485257D01*
X121366296Y-98490664D01*
X121168215Y-98781041D01*
X121164697Y-98786851D01*
X120999134Y-99096922D01*
X120996259Y-99103087D01*
X120865155Y-99429218D01*
X120862962Y-99435658D01*
X120767846Y-99774044D01*
X120766363Y-99780679D01*
X120708350Y-100127354D01*
X120707591Y-100134126D01*
X120687357Y-100485037D01*
X120687333Y-100491832D01*
X80508000Y-100491832D01*
X80508000Y-97986862D01*
X121849950Y-97986862D01*
X121849986Y-97987704D01*
X121855037Y-97995826D01*
X123987190Y-100127980D01*
X124001131Y-100135592D01*
X124002966Y-100135461D01*
X124009580Y-100131210D01*
X126142798Y-97997991D01*
X126150412Y-97984047D01*
X126150344Y-97983089D01*
X126145836Y-97976272D01*
X126144418Y-97975065D01*
X125864813Y-97762064D01*
X125859187Y-97758240D01*
X125558214Y-97576681D01*
X125552202Y-97573484D01*
X125233370Y-97425487D01*
X125227070Y-97422967D01*
X124894129Y-97310273D01*
X124887551Y-97308437D01*
X124544417Y-97232367D01*
X124537678Y-97231251D01*
X124188310Y-97192680D01*
X124181529Y-97192301D01*
X123830015Y-97191687D01*
X123823242Y-97192042D01*
X123473720Y-97229395D01*
X123467010Y-97230482D01*
X123123586Y-97305361D01*
X123117011Y-97307172D01*
X122783683Y-97418702D01*
X122777361Y-97421205D01*
X122458034Y-97568079D01*
X122451991Y-97571265D01*
X122150401Y-97751763D01*
X122144755Y-97755571D01*
X121864408Y-97967596D01*
X121859211Y-97971987D01*
X121857972Y-97973155D01*
X121849950Y-97986862D01*
X80508000Y-97986862D01*
X80508000Y-88569652D01*
X118291524Y-88569652D01*
X118293990Y-88578281D01*
X118293991Y-88578286D01*
X118299639Y-88598048D01*
X118303217Y-88614809D01*
X118306130Y-88635152D01*
X118306133Y-88635162D01*
X118307405Y-88644045D01*
X118318021Y-88667395D01*
X118324464Y-88684907D01*
X118331512Y-88709565D01*
X118347274Y-88734548D01*
X118355404Y-88749614D01*
X118367633Y-88776510D01*
X118384374Y-88795939D01*
X118395479Y-88810947D01*
X118409160Y-88832631D01*
X118415888Y-88838573D01*
X118431296Y-88852181D01*
X118443340Y-88864373D01*
X118462619Y-88886747D01*
X118470147Y-88891626D01*
X118470150Y-88891629D01*
X118484139Y-88900696D01*
X118499013Y-88911986D01*
X118518228Y-88928956D01*
X118526354Y-88932771D01*
X118526355Y-88932772D01*
X118532021Y-88935432D01*
X118544966Y-88941510D01*
X118559935Y-88949824D01*
X118584727Y-88965893D01*
X118601650Y-88970954D01*
X118609290Y-88973239D01*
X118626736Y-88979901D01*
X118649948Y-88990799D01*
X118679130Y-88995343D01*
X118695849Y-88999126D01*
X118715536Y-89005014D01*
X118715539Y-89005015D01*
X118724141Y-89007587D01*
X118733116Y-89007642D01*
X118733117Y-89007642D01*
X118739810Y-89007683D01*
X118758556Y-89007797D01*
X118759328Y-89007830D01*
X118760423Y-89008000D01*
X118791298Y-89008000D01*
X118792068Y-89008002D01*
X118865716Y-89008452D01*
X118865717Y-89008452D01*
X118869652Y-89008476D01*
X118870996Y-89008092D01*
X118872341Y-89008000D01*
X128791298Y-89008000D01*
X128792069Y-89008002D01*
X128869652Y-89008476D01*
X128878281Y-89006010D01*
X128878286Y-89006009D01*
X128898048Y-89000361D01*
X128914809Y-88996783D01*
X128935152Y-88993870D01*
X128935162Y-88993867D01*
X128944045Y-88992595D01*
X128967395Y-88981979D01*
X128984907Y-88975536D01*
X129000937Y-88970954D01*
X129009565Y-88968488D01*
X129034548Y-88952726D01*
X129049614Y-88944596D01*
X129076510Y-88932367D01*
X129095939Y-88915626D01*
X129110947Y-88904521D01*
X129125039Y-88895630D01*
X129132631Y-88890840D01*
X129152182Y-88868703D01*
X129164374Y-88856659D01*
X129179949Y-88843239D01*
X129179950Y-88843237D01*
X129186747Y-88837381D01*
X129191626Y-88829853D01*
X129191629Y-88829850D01*
X129200696Y-88815861D01*
X129211986Y-88800987D01*
X129223012Y-88788502D01*
X129228956Y-88781772D01*
X129241510Y-88755034D01*
X129249824Y-88740065D01*
X129265893Y-88715273D01*
X129273239Y-88690709D01*
X129279901Y-88673264D01*
X129286983Y-88658179D01*
X129290799Y-88650052D01*
X129295343Y-88620870D01*
X129299126Y-88604151D01*
X129305014Y-88584464D01*
X129305015Y-88584461D01*
X129307587Y-88575859D01*
X129307797Y-88541444D01*
X129307830Y-88540672D01*
X129308000Y-88539577D01*
X129308000Y-88508702D01*
X129308002Y-88507932D01*
X129308452Y-88434284D01*
X129308452Y-88434283D01*
X129308476Y-88430348D01*
X129308092Y-88429004D01*
X129308000Y-88427659D01*
X129308000Y-69908702D01*
X129308002Y-69907932D01*
X129308421Y-69839322D01*
X129308476Y-69830348D01*
X129306010Y-69821719D01*
X129306009Y-69821714D01*
X129300361Y-69801952D01*
X129296783Y-69785191D01*
X129293870Y-69764848D01*
X129293867Y-69764838D01*
X129292595Y-69755955D01*
X129281979Y-69732605D01*
X129275536Y-69715093D01*
X129270954Y-69699063D01*
X129268488Y-69690435D01*
X129252726Y-69665452D01*
X129244596Y-69650386D01*
X129232367Y-69623490D01*
X129215626Y-69604061D01*
X129204521Y-69589053D01*
X129195630Y-69574961D01*
X129190840Y-69567369D01*
X129168703Y-69547818D01*
X129156659Y-69535626D01*
X129143239Y-69520051D01*
X129143237Y-69520050D01*
X129137381Y-69513253D01*
X129129853Y-69508374D01*
X129129850Y-69508371D01*
X129115861Y-69499304D01*
X129100987Y-69488014D01*
X129088502Y-69476988D01*
X129081772Y-69471044D01*
X129073646Y-69467229D01*
X129073645Y-69467228D01*
X129067979Y-69464568D01*
X129055034Y-69458490D01*
X129040065Y-69450176D01*
X129015273Y-69434107D01*
X128990709Y-69426761D01*
X128973264Y-69420099D01*
X128968827Y-69418016D01*
X128950052Y-69409201D01*
X128920870Y-69404657D01*
X128904151Y-69400874D01*
X128884464Y-69394986D01*
X128884461Y-69394985D01*
X128875859Y-69392413D01*
X128866884Y-69392358D01*
X128866883Y-69392358D01*
X128860190Y-69392317D01*
X128841444Y-69392203D01*
X128840672Y-69392170D01*
X128839577Y-69392000D01*
X128808702Y-69392000D01*
X128807932Y-69391998D01*
X128734284Y-69391548D01*
X128734283Y-69391548D01*
X128730348Y-69391524D01*
X128729004Y-69391908D01*
X128727659Y-69392000D01*
X118808702Y-69392000D01*
X118807932Y-69391998D01*
X118807078Y-69391993D01*
X118730348Y-69391524D01*
X118721719Y-69393990D01*
X118721714Y-69393991D01*
X118701952Y-69399639D01*
X118685191Y-69403217D01*
X118664848Y-69406130D01*
X118664838Y-69406133D01*
X118655955Y-69407405D01*
X118632605Y-69418021D01*
X118615093Y-69424464D01*
X118607057Y-69426761D01*
X118590435Y-69431512D01*
X118565452Y-69447274D01*
X118550386Y-69455404D01*
X118523490Y-69467633D01*
X118504061Y-69484374D01*
X118489053Y-69495479D01*
X118467369Y-69509160D01*
X118461427Y-69515888D01*
X118447819Y-69531296D01*
X118435627Y-69543340D01*
X118413253Y-69562619D01*
X118408374Y-69570147D01*
X118408371Y-69570150D01*
X118399304Y-69584139D01*
X118388014Y-69599013D01*
X118371044Y-69618228D01*
X118358490Y-69644966D01*
X118350176Y-69659935D01*
X118334107Y-69684727D01*
X118331535Y-69693327D01*
X118326761Y-69709290D01*
X118320099Y-69726736D01*
X118309201Y-69749948D01*
X118304658Y-69779128D01*
X118300874Y-69795849D01*
X118294986Y-69815536D01*
X118294985Y-69815539D01*
X118292413Y-69824141D01*
X118292358Y-69833116D01*
X118292358Y-69833117D01*
X118292203Y-69858546D01*
X118292170Y-69859328D01*
X118292000Y-69860423D01*
X118292000Y-69891298D01*
X118291998Y-69892068D01*
X118291524Y-69969652D01*
X118291908Y-69970996D01*
X118292000Y-69972341D01*
X118292000Y-88491298D01*
X118291998Y-88492068D01*
X118291524Y-88569652D01*
X80508000Y-88569652D01*
X80508000Y-81948904D01*
X81415841Y-81948904D01*
X81424554Y-81960424D01*
X81522189Y-82032012D01*
X81530099Y-82036955D01*
X81753018Y-82154238D01*
X81761581Y-82157961D01*
X81999387Y-82241008D01*
X82008396Y-82243422D01*
X82255879Y-82290408D01*
X82265134Y-82291462D01*
X82516846Y-82301352D01*
X82526160Y-82301026D01*
X82776557Y-82273604D01*
X82785734Y-82271903D01*
X83029326Y-82207771D01*
X83038145Y-82204734D01*
X83269592Y-82105296D01*
X83277851Y-82100997D01*
X83492068Y-81968436D01*
X83498967Y-81963424D01*
X83507291Y-81950792D01*
X83506185Y-81948904D01*
X86495841Y-81948904D01*
X86504554Y-81960424D01*
X86602189Y-82032012D01*
X86610099Y-82036955D01*
X86833018Y-82154238D01*
X86841581Y-82157961D01*
X87079387Y-82241008D01*
X87088396Y-82243422D01*
X87335879Y-82290408D01*
X87345134Y-82291462D01*
X87596846Y-82301352D01*
X87606160Y-82301026D01*
X87856557Y-82273604D01*
X87865734Y-82271903D01*
X88109326Y-82207771D01*
X88118145Y-82204734D01*
X88349592Y-82105296D01*
X88357851Y-82100997D01*
X88572068Y-81968436D01*
X88578967Y-81963424D01*
X88587291Y-81950792D01*
X88581227Y-81940437D01*
X87552812Y-80912022D01*
X87538868Y-80904408D01*
X87537035Y-80904539D01*
X87530420Y-80908790D01*
X86502499Y-81936711D01*
X86495841Y-81948904D01*
X83506185Y-81948904D01*
X83501227Y-81940437D01*
X82472812Y-80912022D01*
X82458868Y-80904408D01*
X82457035Y-80904539D01*
X82450420Y-80908790D01*
X81422499Y-81936711D01*
X81415841Y-81948904D01*
X80508000Y-81948904D01*
X80508000Y-81015926D01*
X80528002Y-80947805D01*
X80581658Y-80901312D01*
X80651932Y-80891208D01*
X80716512Y-80920702D01*
X80754896Y-80980428D01*
X80757579Y-80991345D01*
X80760585Y-81006457D01*
X80763074Y-81015432D01*
X80848196Y-81252514D01*
X80851993Y-81261042D01*
X80971217Y-81482928D01*
X80976228Y-81490795D01*
X81039675Y-81575761D01*
X81050933Y-81584210D01*
X81063352Y-81577438D01*
X82087978Y-80552812D01*
X82094356Y-80541132D01*
X82824408Y-80541132D01*
X82824539Y-80542965D01*
X82828790Y-80549580D01*
X83859682Y-81580472D01*
X83872062Y-81587232D01*
X83880403Y-81580988D01*
X84006483Y-81384975D01*
X84010930Y-81376783D01*
X84114388Y-81147116D01*
X84117583Y-81138338D01*
X84185955Y-80895906D01*
X84187813Y-80886777D01*
X84219795Y-80635378D01*
X84220276Y-80629092D01*
X84222526Y-80543160D01*
X84222375Y-80536851D01*
X84219527Y-80498532D01*
X85778219Y-80498532D01*
X85790305Y-80750136D01*
X85791442Y-80759396D01*
X85840585Y-81006457D01*
X85843074Y-81015432D01*
X85928196Y-81252514D01*
X85931993Y-81261042D01*
X86051217Y-81482928D01*
X86056228Y-81490795D01*
X86119675Y-81575761D01*
X86130933Y-81584210D01*
X86143352Y-81577438D01*
X87167978Y-80552812D01*
X87174356Y-80541132D01*
X87904408Y-80541132D01*
X87904539Y-80542965D01*
X87908790Y-80549580D01*
X88939682Y-81580472D01*
X88952062Y-81587232D01*
X88960403Y-81580988D01*
X89086483Y-81384975D01*
X89090930Y-81376783D01*
X89194388Y-81147116D01*
X89197583Y-81138338D01*
X89265955Y-80895906D01*
X89267813Y-80886777D01*
X89299795Y-80635378D01*
X89300276Y-80629092D01*
X89302526Y-80543160D01*
X89302375Y-80536851D01*
X89283594Y-80284122D01*
X89282217Y-80274916D01*
X89226622Y-80029220D01*
X89223898Y-80020309D01*
X89132598Y-79785530D01*
X89128587Y-79777121D01*
X89003588Y-79558420D01*
X88998377Y-79550694D01*
X88961164Y-79503490D01*
X88949238Y-79495018D01*
X88937706Y-79501504D01*
X87912022Y-80527188D01*
X87904408Y-80541132D01*
X87174356Y-80541132D01*
X87175592Y-80538868D01*
X87175461Y-80537035D01*
X87171210Y-80530420D01*
X86141549Y-79500759D01*
X86128241Y-79493492D01*
X86118202Y-79500614D01*
X86108022Y-79512854D01*
X86102610Y-79520441D01*
X85971926Y-79735800D01*
X85967697Y-79744101D01*
X85870285Y-79976401D01*
X85867324Y-79985251D01*
X85805322Y-80229387D01*
X85803700Y-80238584D01*
X85778464Y-80489206D01*
X85778219Y-80498532D01*
X84219527Y-80498532D01*
X84203594Y-80284122D01*
X84202217Y-80274916D01*
X84146622Y-80029220D01*
X84143898Y-80020309D01*
X84052598Y-79785530D01*
X84048587Y-79777121D01*
X83923588Y-79558420D01*
X83918377Y-79550694D01*
X83881164Y-79503490D01*
X83869238Y-79495018D01*
X83857706Y-79501504D01*
X82832022Y-80527188D01*
X82824408Y-80541132D01*
X82094356Y-80541132D01*
X82095592Y-80538868D01*
X82095461Y-80537035D01*
X82091210Y-80530420D01*
X81061549Y-79500759D01*
X81048241Y-79493492D01*
X81038202Y-79500614D01*
X81028022Y-79512854D01*
X81022610Y-79520441D01*
X80891926Y-79735800D01*
X80887697Y-79744101D01*
X80790285Y-79976401D01*
X80787324Y-79985251D01*
X80756123Y-80108107D01*
X80719968Y-80169208D01*
X80656519Y-80201063D01*
X80585921Y-80193558D01*
X80530587Y-80149076D01*
X80508000Y-80077092D01*
X80508000Y-79129034D01*
X81413447Y-79129034D01*
X81418020Y-79138810D01*
X82447188Y-80167978D01*
X82461132Y-80175592D01*
X82462965Y-80175461D01*
X82469580Y-80171210D01*
X83498188Y-79142602D01*
X83504572Y-79130912D01*
X83503113Y-79129034D01*
X86493447Y-79129034D01*
X86498020Y-79138810D01*
X87527188Y-80167978D01*
X87541132Y-80175592D01*
X87542965Y-80175461D01*
X87549580Y-80171210D01*
X88578188Y-79142602D01*
X88584572Y-79130912D01*
X88575160Y-79118801D01*
X88438430Y-79023948D01*
X88430405Y-79019220D01*
X88204471Y-78907801D01*
X88195839Y-78904314D01*
X87955924Y-78827517D01*
X87946863Y-78825341D01*
X87698232Y-78784849D01*
X87688945Y-78784037D01*
X87437072Y-78780740D01*
X87427760Y-78781310D01*
X87178163Y-78815278D01*
X87169045Y-78817216D01*
X86927220Y-78887702D01*
X86918467Y-78890974D01*
X86689716Y-78996430D01*
X86681561Y-79000950D01*
X86502585Y-79118292D01*
X86493447Y-79129034D01*
X83503113Y-79129034D01*
X83495160Y-79118801D01*
X83358430Y-79023948D01*
X83350405Y-79019220D01*
X83124471Y-78907801D01*
X83115839Y-78904314D01*
X82875924Y-78827517D01*
X82866863Y-78825341D01*
X82618232Y-78784849D01*
X82608945Y-78784037D01*
X82357072Y-78780740D01*
X82347760Y-78781310D01*
X82098163Y-78815278D01*
X82089045Y-78817216D01*
X81847220Y-78887702D01*
X81838467Y-78890974D01*
X81609716Y-78996430D01*
X81601561Y-79000950D01*
X81422585Y-79118292D01*
X81413447Y-79129034D01*
X80508000Y-79129034D01*
X80508000Y-77971107D01*
X83896620Y-77971107D01*
X83909831Y-78172666D01*
X83959552Y-78368442D01*
X84044118Y-78551879D01*
X84160696Y-78716833D01*
X84164830Y-78720860D01*
X84261753Y-78815278D01*
X84305383Y-78857781D01*
X84310179Y-78860986D01*
X84310182Y-78860988D01*
X84377455Y-78905938D01*
X84473332Y-78970001D01*
X84478635Y-78972279D01*
X84478638Y-78972281D01*
X84587892Y-79019220D01*
X84658920Y-79049736D01*
X84731713Y-79066207D01*
X84850294Y-79093040D01*
X84850300Y-79093041D01*
X84855931Y-79094315D01*
X84861702Y-79094542D01*
X84861704Y-79094542D01*
X84923454Y-79096968D01*
X85057766Y-79102245D01*
X85157717Y-79087753D01*
X85251953Y-79074090D01*
X85251958Y-79074089D01*
X85257667Y-79073261D01*
X85263131Y-79071406D01*
X85263136Y-79071405D01*
X85443467Y-79010191D01*
X85443472Y-79010189D01*
X85448939Y-79008333D01*
X85462123Y-79000950D01*
X85517386Y-78970001D01*
X85625175Y-78909636D01*
X85780475Y-78780475D01*
X85909636Y-78625175D01*
X86008333Y-78448939D01*
X86010189Y-78443472D01*
X86010191Y-78443467D01*
X86071405Y-78263136D01*
X86071406Y-78263131D01*
X86073261Y-78257667D01*
X86074089Y-78251958D01*
X86074090Y-78251953D01*
X86101712Y-78061440D01*
X86102245Y-78057766D01*
X86103758Y-78000000D01*
X86085275Y-77798856D01*
X86030447Y-77604449D01*
X85941108Y-77423288D01*
X85820252Y-77261442D01*
X85671925Y-77124330D01*
X85650563Y-77110851D01*
X85514967Y-77025296D01*
X85501096Y-77016544D01*
X85313484Y-76941695D01*
X85307827Y-76940570D01*
X85307821Y-76940568D01*
X85121041Y-76903416D01*
X85121039Y-76903416D01*
X85115374Y-76902289D01*
X85109599Y-76902213D01*
X85109595Y-76902213D01*
X85008700Y-76900893D01*
X84913400Y-76899645D01*
X84907703Y-76900624D01*
X84907702Y-76900624D01*
X84720016Y-76932874D01*
X84720013Y-76932875D01*
X84714326Y-76933852D01*
X84524820Y-77003764D01*
X84506936Y-77014404D01*
X84356195Y-77104085D01*
X84356192Y-77104087D01*
X84351227Y-77107041D01*
X84199362Y-77240223D01*
X84074311Y-77398850D01*
X84071620Y-77403966D01*
X84071618Y-77403968D01*
X83982954Y-77572491D01*
X83980261Y-77577610D01*
X83920362Y-77770516D01*
X83896620Y-77971107D01*
X80508000Y-77971107D01*
X80508000Y-76868904D01*
X81415841Y-76868904D01*
X81424554Y-76880424D01*
X81522189Y-76952012D01*
X81530099Y-76956955D01*
X81753018Y-77074238D01*
X81761581Y-77077961D01*
X81999387Y-77161008D01*
X82008396Y-77163422D01*
X82255879Y-77210408D01*
X82265134Y-77211462D01*
X82516846Y-77221352D01*
X82526160Y-77221026D01*
X82776557Y-77193604D01*
X82785734Y-77191903D01*
X83029326Y-77127771D01*
X83038145Y-77124734D01*
X83269592Y-77025296D01*
X83277851Y-77020997D01*
X83492068Y-76888436D01*
X83498967Y-76883424D01*
X83507291Y-76870792D01*
X83506185Y-76868904D01*
X86495841Y-76868904D01*
X86504554Y-76880424D01*
X86602189Y-76952012D01*
X86610099Y-76956955D01*
X86833018Y-77074238D01*
X86841581Y-77077961D01*
X87079387Y-77161008D01*
X87088396Y-77163422D01*
X87335879Y-77210408D01*
X87345134Y-77211462D01*
X87596846Y-77221352D01*
X87606160Y-77221026D01*
X87856557Y-77193604D01*
X87865734Y-77191903D01*
X88109326Y-77127771D01*
X88118145Y-77124734D01*
X88349592Y-77025296D01*
X88357851Y-77020997D01*
X88572068Y-76888436D01*
X88578967Y-76883424D01*
X88587291Y-76870792D01*
X88581227Y-76860437D01*
X87552812Y-75832022D01*
X87538868Y-75824408D01*
X87537035Y-75824539D01*
X87530420Y-75828790D01*
X86502499Y-76856711D01*
X86495841Y-76868904D01*
X83506185Y-76868904D01*
X83501227Y-76860437D01*
X82472812Y-75832022D01*
X82458868Y-75824408D01*
X82457035Y-75824539D01*
X82450420Y-75828790D01*
X81422499Y-76856711D01*
X81415841Y-76868904D01*
X80508000Y-76868904D01*
X80508000Y-75935926D01*
X80528002Y-75867805D01*
X80581658Y-75821312D01*
X80651932Y-75811208D01*
X80716512Y-75840702D01*
X80754896Y-75900428D01*
X80757579Y-75911345D01*
X80760585Y-75926457D01*
X80763074Y-75935432D01*
X80848196Y-76172514D01*
X80851993Y-76181042D01*
X80971217Y-76402928D01*
X80976228Y-76410795D01*
X81039675Y-76495761D01*
X81050933Y-76504210D01*
X81063352Y-76497438D01*
X82087978Y-75472812D01*
X82094356Y-75461132D01*
X82824408Y-75461132D01*
X82824539Y-75462965D01*
X82828790Y-75469580D01*
X83859682Y-76500472D01*
X83872062Y-76507232D01*
X83880403Y-76500988D01*
X84006483Y-76304975D01*
X84010930Y-76296783D01*
X84114388Y-76067116D01*
X84117583Y-76058338D01*
X84185955Y-75815906D01*
X84187813Y-75806777D01*
X84219795Y-75555378D01*
X84220276Y-75549092D01*
X84222526Y-75463160D01*
X84222375Y-75456851D01*
X84219527Y-75418532D01*
X85778219Y-75418532D01*
X85790305Y-75670136D01*
X85791442Y-75679396D01*
X85840585Y-75926457D01*
X85843074Y-75935432D01*
X85928196Y-76172514D01*
X85931993Y-76181042D01*
X86051217Y-76402928D01*
X86056228Y-76410795D01*
X86119675Y-76495761D01*
X86130933Y-76504210D01*
X86143352Y-76497438D01*
X87167978Y-75472812D01*
X87174356Y-75461132D01*
X87904408Y-75461132D01*
X87904539Y-75462965D01*
X87908790Y-75469580D01*
X88939682Y-76500472D01*
X88952062Y-76507232D01*
X88960403Y-76500988D01*
X89086483Y-76304975D01*
X89090930Y-76296783D01*
X89194388Y-76067116D01*
X89197583Y-76058338D01*
X89265955Y-75815906D01*
X89267813Y-75806777D01*
X89299795Y-75555378D01*
X89300276Y-75549092D01*
X89302526Y-75463160D01*
X89302375Y-75456851D01*
X89283594Y-75204122D01*
X89282217Y-75194916D01*
X89226622Y-74949220D01*
X89223898Y-74940309D01*
X89132598Y-74705530D01*
X89128587Y-74697121D01*
X89003588Y-74478420D01*
X88998377Y-74470694D01*
X88961164Y-74423490D01*
X88949238Y-74415018D01*
X88937706Y-74421504D01*
X87912022Y-75447188D01*
X87904408Y-75461132D01*
X87174356Y-75461132D01*
X87175592Y-75458868D01*
X87175461Y-75457035D01*
X87171210Y-75450420D01*
X86141549Y-74420759D01*
X86128241Y-74413492D01*
X86118202Y-74420614D01*
X86108022Y-74432854D01*
X86102610Y-74440441D01*
X85971926Y-74655800D01*
X85967697Y-74664101D01*
X85870285Y-74896401D01*
X85867324Y-74905251D01*
X85805322Y-75149387D01*
X85803700Y-75158584D01*
X85778464Y-75409206D01*
X85778219Y-75418532D01*
X84219527Y-75418532D01*
X84203594Y-75204122D01*
X84202217Y-75194916D01*
X84146622Y-74949220D01*
X84143898Y-74940309D01*
X84052598Y-74705530D01*
X84048587Y-74697121D01*
X83923588Y-74478420D01*
X83918377Y-74470694D01*
X83881164Y-74423490D01*
X83869238Y-74415018D01*
X83857706Y-74421504D01*
X82832022Y-75447188D01*
X82824408Y-75461132D01*
X82094356Y-75461132D01*
X82095592Y-75458868D01*
X82095461Y-75457035D01*
X82091210Y-75450420D01*
X81061549Y-74420759D01*
X81048241Y-74413492D01*
X81038202Y-74420614D01*
X81028022Y-74432854D01*
X81022610Y-74440441D01*
X80891926Y-74655800D01*
X80887697Y-74664101D01*
X80790285Y-74896401D01*
X80787324Y-74905251D01*
X80756123Y-75028107D01*
X80719968Y-75089208D01*
X80656519Y-75121063D01*
X80585921Y-75113558D01*
X80530587Y-75069076D01*
X80508000Y-74997092D01*
X80508000Y-74049034D01*
X81413447Y-74049034D01*
X81418020Y-74058810D01*
X82447188Y-75087978D01*
X82461132Y-75095592D01*
X82462965Y-75095461D01*
X82469580Y-75091210D01*
X83498188Y-74062602D01*
X83504572Y-74050912D01*
X83503113Y-74049034D01*
X86493447Y-74049034D01*
X86498020Y-74058810D01*
X87527188Y-75087978D01*
X87541132Y-75095592D01*
X87542965Y-75095461D01*
X87549580Y-75091210D01*
X88578188Y-74062602D01*
X88584572Y-74050912D01*
X88575160Y-74038801D01*
X88438430Y-73943948D01*
X88430405Y-73939220D01*
X88204471Y-73827801D01*
X88195839Y-73824314D01*
X87955924Y-73747517D01*
X87946863Y-73745341D01*
X87698232Y-73704849D01*
X87688945Y-73704037D01*
X87437072Y-73700740D01*
X87427760Y-73701310D01*
X87178163Y-73735278D01*
X87169045Y-73737216D01*
X86927220Y-73807702D01*
X86918467Y-73810974D01*
X86689716Y-73916430D01*
X86681561Y-73920950D01*
X86502585Y-74038292D01*
X86493447Y-74049034D01*
X83503113Y-74049034D01*
X83495160Y-74038801D01*
X83358430Y-73943948D01*
X83350405Y-73939220D01*
X83124471Y-73827801D01*
X83115839Y-73824314D01*
X82875924Y-73747517D01*
X82866863Y-73745341D01*
X82618232Y-73704849D01*
X82608945Y-73704037D01*
X82357072Y-73700740D01*
X82347760Y-73701310D01*
X82098163Y-73735278D01*
X82089045Y-73737216D01*
X81847220Y-73807702D01*
X81838467Y-73810974D01*
X81609716Y-73916430D01*
X81601561Y-73920950D01*
X81422585Y-74038292D01*
X81413447Y-74049034D01*
X80508000Y-74049034D01*
X80508000Y-62448904D01*
X171415841Y-62448904D01*
X171424554Y-62460424D01*
X171522189Y-62532012D01*
X171530099Y-62536955D01*
X171753018Y-62654238D01*
X171761581Y-62657961D01*
X171999387Y-62741008D01*
X172008396Y-62743422D01*
X172255879Y-62790408D01*
X172265134Y-62791462D01*
X172516846Y-62801352D01*
X172526160Y-62801026D01*
X172776557Y-62773604D01*
X172785734Y-62771903D01*
X173029326Y-62707771D01*
X173038145Y-62704734D01*
X173269592Y-62605296D01*
X173277851Y-62600997D01*
X173492068Y-62468436D01*
X173498967Y-62463424D01*
X173507291Y-62450792D01*
X173506185Y-62448904D01*
X176495841Y-62448904D01*
X176504554Y-62460424D01*
X176602189Y-62532012D01*
X176610099Y-62536955D01*
X176833018Y-62654238D01*
X176841581Y-62657961D01*
X177079387Y-62741008D01*
X177088396Y-62743422D01*
X177335879Y-62790408D01*
X177345134Y-62791462D01*
X177596846Y-62801352D01*
X177606160Y-62801026D01*
X177856557Y-62773604D01*
X177865734Y-62771903D01*
X178109326Y-62707771D01*
X178118145Y-62704734D01*
X178349592Y-62605296D01*
X178357851Y-62600997D01*
X178572068Y-62468436D01*
X178578967Y-62463424D01*
X178587291Y-62450792D01*
X178581227Y-62440437D01*
X177552812Y-61412022D01*
X177538868Y-61404408D01*
X177537035Y-61404539D01*
X177530420Y-61408790D01*
X176502499Y-62436711D01*
X176495841Y-62448904D01*
X173506185Y-62448904D01*
X173501227Y-62440437D01*
X172472812Y-61412022D01*
X172458868Y-61404408D01*
X172457035Y-61404539D01*
X172450420Y-61408790D01*
X171422499Y-62436711D01*
X171415841Y-62448904D01*
X80508000Y-62448904D01*
X80508000Y-60998532D01*
X170698219Y-60998532D01*
X170710305Y-61250136D01*
X170711442Y-61259396D01*
X170760585Y-61506457D01*
X170763074Y-61515432D01*
X170848196Y-61752514D01*
X170851993Y-61761042D01*
X170971217Y-61982928D01*
X170976228Y-61990795D01*
X171039675Y-62075761D01*
X171050933Y-62084210D01*
X171063352Y-62077438D01*
X172087978Y-61052812D01*
X172094356Y-61041132D01*
X172824408Y-61041132D01*
X172824539Y-61042965D01*
X172828790Y-61049580D01*
X173859682Y-62080472D01*
X173872062Y-62087232D01*
X173880403Y-62080988D01*
X174006483Y-61884975D01*
X174010930Y-61876783D01*
X174114388Y-61647116D01*
X174117583Y-61638338D01*
X174185955Y-61395906D01*
X174187813Y-61386777D01*
X174219795Y-61135378D01*
X174220276Y-61129092D01*
X174222526Y-61043160D01*
X174222375Y-61036851D01*
X174219527Y-60998532D01*
X175778219Y-60998532D01*
X175790305Y-61250136D01*
X175791442Y-61259396D01*
X175840585Y-61506457D01*
X175843074Y-61515432D01*
X175928196Y-61752514D01*
X175931993Y-61761042D01*
X176051217Y-61982928D01*
X176056228Y-61990795D01*
X176119675Y-62075761D01*
X176130933Y-62084210D01*
X176143352Y-62077438D01*
X177167978Y-61052812D01*
X177175592Y-61038868D01*
X177175461Y-61037035D01*
X177171210Y-61030420D01*
X176141549Y-60000759D01*
X176128241Y-59993492D01*
X176118202Y-60000614D01*
X176108022Y-60012854D01*
X176102610Y-60020441D01*
X175971926Y-60235800D01*
X175967697Y-60244101D01*
X175870285Y-60476401D01*
X175867324Y-60485251D01*
X175805322Y-60729387D01*
X175803700Y-60738584D01*
X175778464Y-60989206D01*
X175778219Y-60998532D01*
X174219527Y-60998532D01*
X174203594Y-60784122D01*
X174202217Y-60774916D01*
X174146622Y-60529220D01*
X174143898Y-60520309D01*
X174052598Y-60285530D01*
X174048587Y-60277121D01*
X173923588Y-60058420D01*
X173918377Y-60050694D01*
X173881164Y-60003490D01*
X173869238Y-59995018D01*
X173857706Y-60001504D01*
X172832022Y-61027188D01*
X172824408Y-61041132D01*
X172094356Y-61041132D01*
X172095592Y-61038868D01*
X172095461Y-61037035D01*
X172091210Y-61030420D01*
X171061549Y-60000759D01*
X171048241Y-59993492D01*
X171038202Y-60000614D01*
X171028022Y-60012854D01*
X171022610Y-60020441D01*
X170891926Y-60235800D01*
X170887697Y-60244101D01*
X170790285Y-60476401D01*
X170787324Y-60485251D01*
X170725322Y-60729387D01*
X170723700Y-60738584D01*
X170698464Y-60989206D01*
X170698219Y-60998532D01*
X80508000Y-60998532D01*
X80508000Y-60016381D01*
X121849160Y-60016381D01*
X121849237Y-60017470D01*
X121851698Y-60021206D01*
X122125632Y-60231404D01*
X122131262Y-60235259D01*
X122431591Y-60417862D01*
X122437593Y-60421080D01*
X122755897Y-60570184D01*
X122762202Y-60572732D01*
X123094743Y-60686587D01*
X123101313Y-60688446D01*
X123444183Y-60765714D01*
X123450912Y-60766853D01*
X123800143Y-60806643D01*
X123806933Y-60807046D01*
X124158419Y-60808886D01*
X124165220Y-60808554D01*
X124514853Y-60772423D01*
X124521581Y-60771357D01*
X124865274Y-60697676D01*
X124871822Y-60695897D01*
X125205549Y-60585527D01*
X125211891Y-60583041D01*
X125531718Y-60437288D01*
X125537777Y-60434121D01*
X125839995Y-60254676D01*
X125845659Y-60250884D01*
X126126732Y-60039849D01*
X126131958Y-60035464D01*
X126141613Y-60026428D01*
X126149682Y-60012750D01*
X126149654Y-60012024D01*
X126144512Y-60003723D01*
X124012810Y-57872020D01*
X123998869Y-57864408D01*
X123997034Y-57864539D01*
X123990420Y-57868790D01*
X121856774Y-60002437D01*
X121849160Y-60016381D01*
X80508000Y-60016381D01*
X80508000Y-57491832D01*
X120687333Y-57491832D01*
X120705117Y-57842893D01*
X120705827Y-57849649D01*
X120761420Y-58196723D01*
X120762859Y-58203378D01*
X120855608Y-58542410D01*
X120857757Y-58548871D01*
X120986581Y-58875912D01*
X120989412Y-58882095D01*
X121152803Y-59193310D01*
X121156286Y-59199152D01*
X121352330Y-59490896D01*
X121356433Y-59496340D01*
X121476425Y-59638836D01*
X121489164Y-59647279D01*
X121499608Y-59641181D01*
X123627980Y-57512810D01*
X123634357Y-57501131D01*
X124364408Y-57501131D01*
X124364539Y-57502966D01*
X124368790Y-57509580D01*
X126499009Y-59639798D01*
X126512605Y-59647223D01*
X126522218Y-59640522D01*
X126532099Y-59629034D01*
X171413447Y-59629034D01*
X171418020Y-59638810D01*
X172447188Y-60667978D01*
X172461132Y-60675592D01*
X172462965Y-60675461D01*
X172469580Y-60671210D01*
X173498188Y-59642602D01*
X173504572Y-59630912D01*
X173503113Y-59629034D01*
X176493447Y-59629034D01*
X176498020Y-59638810D01*
X177527188Y-60667978D01*
X177541132Y-60675592D01*
X177542965Y-60675461D01*
X177549580Y-60671210D01*
X178578188Y-59642602D01*
X178584572Y-59630912D01*
X178575160Y-59618801D01*
X178438430Y-59523948D01*
X178430405Y-59519220D01*
X178204471Y-59407801D01*
X178195839Y-59404314D01*
X177955924Y-59327517D01*
X177946863Y-59325341D01*
X177698232Y-59284849D01*
X177688945Y-59284037D01*
X177437072Y-59280740D01*
X177427760Y-59281310D01*
X177178163Y-59315278D01*
X177169045Y-59317216D01*
X176927220Y-59387702D01*
X176918467Y-59390974D01*
X176689716Y-59496430D01*
X176681561Y-59500950D01*
X176502585Y-59618292D01*
X176493447Y-59629034D01*
X173503113Y-59629034D01*
X173495160Y-59618801D01*
X173358430Y-59523948D01*
X173350405Y-59519220D01*
X173124471Y-59407801D01*
X173115839Y-59404314D01*
X172875924Y-59327517D01*
X172866863Y-59325341D01*
X172618232Y-59284849D01*
X172608945Y-59284037D01*
X172357072Y-59280740D01*
X172347760Y-59281310D01*
X172098163Y-59315278D01*
X172089045Y-59317216D01*
X171847220Y-59387702D01*
X171838467Y-59390974D01*
X171609716Y-59496430D01*
X171601561Y-59500950D01*
X171422585Y-59618292D01*
X171413447Y-59629034D01*
X126532099Y-59629034D01*
X126622518Y-59523912D01*
X126626676Y-59518514D01*
X126825762Y-59228840D01*
X126829310Y-59223029D01*
X126995942Y-58913559D01*
X126998849Y-58907381D01*
X127131090Y-58581713D01*
X127133304Y-58575283D01*
X127162979Y-58471107D01*
X173896620Y-58471107D01*
X173909831Y-58672666D01*
X173959552Y-58868442D01*
X174044118Y-59051879D01*
X174160696Y-59216833D01*
X174173022Y-59228840D01*
X174261753Y-59315278D01*
X174305383Y-59357781D01*
X174310179Y-59360986D01*
X174310182Y-59360988D01*
X174377455Y-59405938D01*
X174473332Y-59470001D01*
X174478635Y-59472279D01*
X174478638Y-59472281D01*
X174587892Y-59519220D01*
X174658920Y-59549736D01*
X174731713Y-59566207D01*
X174850294Y-59593040D01*
X174850300Y-59593041D01*
X174855931Y-59594315D01*
X174861702Y-59594542D01*
X174861704Y-59594542D01*
X174923454Y-59596968D01*
X175057766Y-59602245D01*
X175157717Y-59587753D01*
X175251953Y-59574090D01*
X175251958Y-59574089D01*
X175257667Y-59573261D01*
X175263131Y-59571406D01*
X175263136Y-59571405D01*
X175443467Y-59510191D01*
X175443472Y-59510189D01*
X175448939Y-59508333D01*
X175462123Y-59500950D01*
X175517386Y-59470001D01*
X175625175Y-59409636D01*
X175780475Y-59280475D01*
X175909636Y-59125175D01*
X176008333Y-58948939D01*
X176010189Y-58943472D01*
X176010191Y-58943467D01*
X176071405Y-58763136D01*
X176071406Y-58763131D01*
X176073261Y-58757667D01*
X176074089Y-58751958D01*
X176074090Y-58751953D01*
X176101712Y-58561440D01*
X176102245Y-58557766D01*
X176103758Y-58500000D01*
X176085275Y-58298856D01*
X176030447Y-58104449D01*
X175941108Y-57923288D01*
X175820252Y-57761442D01*
X175671925Y-57624330D01*
X175650563Y-57610851D01*
X175508670Y-57521323D01*
X175501096Y-57516544D01*
X175313484Y-57441695D01*
X175307827Y-57440570D01*
X175307821Y-57440568D01*
X175121041Y-57403416D01*
X175121039Y-57403416D01*
X175115374Y-57402289D01*
X175109599Y-57402213D01*
X175109595Y-57402213D01*
X175008700Y-57400893D01*
X174913400Y-57399645D01*
X174907703Y-57400624D01*
X174907702Y-57400624D01*
X174720016Y-57432874D01*
X174720013Y-57432875D01*
X174714326Y-57433852D01*
X174524820Y-57503764D01*
X174506936Y-57514404D01*
X174356195Y-57604085D01*
X174356192Y-57604087D01*
X174351227Y-57607041D01*
X174199362Y-57740223D01*
X174195787Y-57744758D01*
X174195786Y-57744759D01*
X174085925Y-57884118D01*
X174074311Y-57898850D01*
X174071620Y-57903966D01*
X174071618Y-57903968D01*
X173982954Y-58072491D01*
X173980261Y-58077610D01*
X173920362Y-58270516D01*
X173896620Y-58471107D01*
X127162979Y-58471107D01*
X127229598Y-58237237D01*
X127231105Y-58230607D01*
X127290332Y-57884118D01*
X127291112Y-57877378D01*
X127312668Y-57524925D01*
X127312784Y-57521323D01*
X127312853Y-57501819D01*
X127312761Y-57498194D01*
X127305759Y-57368904D01*
X171415841Y-57368904D01*
X171424554Y-57380424D01*
X171522189Y-57452012D01*
X171530099Y-57456955D01*
X171753018Y-57574238D01*
X171761581Y-57577961D01*
X171999387Y-57661008D01*
X172008396Y-57663422D01*
X172255879Y-57710408D01*
X172265134Y-57711462D01*
X172516846Y-57721352D01*
X172526160Y-57721026D01*
X172776557Y-57693604D01*
X172785734Y-57691903D01*
X173029326Y-57627771D01*
X173038145Y-57624734D01*
X173269592Y-57525296D01*
X173277851Y-57520997D01*
X173492068Y-57388436D01*
X173498967Y-57383424D01*
X173507291Y-57370792D01*
X173506185Y-57368904D01*
X176495841Y-57368904D01*
X176504554Y-57380424D01*
X176602189Y-57452012D01*
X176610099Y-57456955D01*
X176833018Y-57574238D01*
X176841581Y-57577961D01*
X177079387Y-57661008D01*
X177088396Y-57663422D01*
X177335879Y-57710408D01*
X177345134Y-57711462D01*
X177596846Y-57721352D01*
X177606160Y-57721026D01*
X177856557Y-57693604D01*
X177865734Y-57691903D01*
X178109326Y-57627771D01*
X178118145Y-57624734D01*
X178349592Y-57525296D01*
X178357851Y-57520997D01*
X178572068Y-57388436D01*
X178578967Y-57383424D01*
X178587291Y-57370792D01*
X178581227Y-57360437D01*
X177552812Y-56332022D01*
X177538868Y-56324408D01*
X177537035Y-56324539D01*
X177530420Y-56328790D01*
X176502499Y-57356711D01*
X176495841Y-57368904D01*
X173506185Y-57368904D01*
X173501227Y-57360437D01*
X172472812Y-56332022D01*
X172458868Y-56324408D01*
X172457035Y-56324539D01*
X172450420Y-56328790D01*
X171422499Y-57356711D01*
X171415841Y-57368904D01*
X127305759Y-57368904D01*
X127293666Y-57145615D01*
X127292931Y-57138849D01*
X127236130Y-56791985D01*
X127234663Y-56785313D01*
X127140736Y-56446627D01*
X127138562Y-56440163D01*
X127008598Y-56113578D01*
X127005742Y-56107398D01*
X126905742Y-55918532D01*
X170698219Y-55918532D01*
X170710305Y-56170136D01*
X170711442Y-56179396D01*
X170760585Y-56426457D01*
X170763074Y-56435432D01*
X170848196Y-56672514D01*
X170851993Y-56681042D01*
X170971217Y-56902928D01*
X170976228Y-56910795D01*
X171039675Y-56995761D01*
X171050933Y-57004210D01*
X171063352Y-56997438D01*
X172087978Y-55972812D01*
X172094356Y-55961132D01*
X172824408Y-55961132D01*
X172824539Y-55962965D01*
X172828790Y-55969580D01*
X173859682Y-57000472D01*
X173872062Y-57007232D01*
X173880403Y-57000988D01*
X174006483Y-56804975D01*
X174010930Y-56796783D01*
X174114388Y-56567116D01*
X174117583Y-56558338D01*
X174185955Y-56315906D01*
X174187813Y-56306777D01*
X174219795Y-56055378D01*
X174220276Y-56049092D01*
X174222526Y-55963160D01*
X174222375Y-55956851D01*
X174219527Y-55918532D01*
X175778219Y-55918532D01*
X175790305Y-56170136D01*
X175791442Y-56179396D01*
X175840585Y-56426457D01*
X175843074Y-56435432D01*
X175928196Y-56672514D01*
X175931993Y-56681042D01*
X176051217Y-56902928D01*
X176056228Y-56910795D01*
X176119675Y-56995761D01*
X176130933Y-57004210D01*
X176143352Y-56997438D01*
X177167978Y-55972812D01*
X177175592Y-55958868D01*
X177175461Y-55957035D01*
X177171210Y-55950420D01*
X176141549Y-54920759D01*
X176128241Y-54913492D01*
X176118202Y-54920614D01*
X176108022Y-54932854D01*
X176102610Y-54940441D01*
X175971926Y-55155800D01*
X175967697Y-55164101D01*
X175870285Y-55396401D01*
X175867324Y-55405251D01*
X175805322Y-55649387D01*
X175803700Y-55658584D01*
X175778464Y-55909206D01*
X175778219Y-55918532D01*
X174219527Y-55918532D01*
X174203594Y-55704122D01*
X174202217Y-55694916D01*
X174146622Y-55449220D01*
X174143898Y-55440309D01*
X174052598Y-55205530D01*
X174048587Y-55197121D01*
X173923588Y-54978420D01*
X173918377Y-54970694D01*
X173881164Y-54923490D01*
X173869238Y-54915018D01*
X173857706Y-54921504D01*
X172832022Y-55947188D01*
X172824408Y-55961132D01*
X172094356Y-55961132D01*
X172095592Y-55958868D01*
X172095461Y-55957035D01*
X172091210Y-55950420D01*
X171061549Y-54920759D01*
X171048241Y-54913492D01*
X171038202Y-54920614D01*
X171028022Y-54932854D01*
X171022610Y-54940441D01*
X170891926Y-55155800D01*
X170887697Y-55164101D01*
X170790285Y-55396401D01*
X170787324Y-55405251D01*
X170725322Y-55649387D01*
X170723700Y-55658584D01*
X170698464Y-55909206D01*
X170698219Y-55918532D01*
X126905742Y-55918532D01*
X126841269Y-55796763D01*
X126837769Y-55790937D01*
X126640697Y-55499862D01*
X126636590Y-55494453D01*
X126523565Y-55361179D01*
X126510740Y-55352743D01*
X126500416Y-55358795D01*
X124372020Y-57487190D01*
X124364408Y-57501131D01*
X123634357Y-57501131D01*
X123635592Y-57498869D01*
X123635461Y-57497034D01*
X123631210Y-57490420D01*
X121500992Y-55360203D01*
X121487455Y-55352811D01*
X121477753Y-55359599D01*
X121370430Y-55485257D01*
X121366296Y-55490664D01*
X121168215Y-55781041D01*
X121164697Y-55786851D01*
X120999134Y-56096922D01*
X120996259Y-56103087D01*
X120865155Y-56429218D01*
X120862962Y-56435658D01*
X120767846Y-56774044D01*
X120766363Y-56780679D01*
X120708350Y-57127354D01*
X120707591Y-57134126D01*
X120687357Y-57485037D01*
X120687333Y-57491832D01*
X80508000Y-57491832D01*
X80508000Y-54986862D01*
X121849950Y-54986862D01*
X121849986Y-54987704D01*
X121855037Y-54995826D01*
X123987190Y-57127980D01*
X124001131Y-57135592D01*
X124002966Y-57135461D01*
X124009580Y-57131210D01*
X126142798Y-54997991D01*
X126150412Y-54984047D01*
X126150344Y-54983089D01*
X126145836Y-54976272D01*
X126144418Y-54975065D01*
X125864813Y-54762064D01*
X125859187Y-54758240D01*
X125558214Y-54576681D01*
X125552202Y-54573484D01*
X125499529Y-54549034D01*
X171413447Y-54549034D01*
X171418020Y-54558810D01*
X172447188Y-55587978D01*
X172461132Y-55595592D01*
X172462965Y-55595461D01*
X172469580Y-55591210D01*
X173498188Y-54562602D01*
X173504572Y-54550912D01*
X173503113Y-54549034D01*
X176493447Y-54549034D01*
X176498020Y-54558810D01*
X177527188Y-55587978D01*
X177541132Y-55595592D01*
X177542965Y-55595461D01*
X177549580Y-55591210D01*
X178578188Y-54562602D01*
X178584572Y-54550912D01*
X178575160Y-54538801D01*
X178438430Y-54443948D01*
X178430405Y-54439220D01*
X178204471Y-54327801D01*
X178195839Y-54324314D01*
X177955924Y-54247517D01*
X177946863Y-54245341D01*
X177698232Y-54204849D01*
X177688945Y-54204037D01*
X177437072Y-54200740D01*
X177427760Y-54201310D01*
X177178163Y-54235278D01*
X177169045Y-54237216D01*
X176927220Y-54307702D01*
X176918467Y-54310974D01*
X176689716Y-54416430D01*
X176681561Y-54420950D01*
X176502585Y-54538292D01*
X176493447Y-54549034D01*
X173503113Y-54549034D01*
X173495160Y-54538801D01*
X173358430Y-54443948D01*
X173350405Y-54439220D01*
X173124471Y-54327801D01*
X173115839Y-54324314D01*
X172875924Y-54247517D01*
X172866863Y-54245341D01*
X172618232Y-54204849D01*
X172608945Y-54204037D01*
X172357072Y-54200740D01*
X172347760Y-54201310D01*
X172098163Y-54235278D01*
X172089045Y-54237216D01*
X171847220Y-54307702D01*
X171838467Y-54310974D01*
X171609716Y-54416430D01*
X171601561Y-54420950D01*
X171422585Y-54538292D01*
X171413447Y-54549034D01*
X125499529Y-54549034D01*
X125233370Y-54425487D01*
X125227070Y-54422967D01*
X124894129Y-54310273D01*
X124887551Y-54308437D01*
X124544417Y-54232367D01*
X124537678Y-54231251D01*
X124188310Y-54192680D01*
X124181529Y-54192301D01*
X123830015Y-54191687D01*
X123823242Y-54192042D01*
X123473720Y-54229395D01*
X123467010Y-54230482D01*
X123123586Y-54305361D01*
X123117011Y-54307172D01*
X122783683Y-54418702D01*
X122777361Y-54421205D01*
X122458034Y-54568079D01*
X122451991Y-54571265D01*
X122150401Y-54751763D01*
X122144755Y-54755571D01*
X121864408Y-54967596D01*
X121859211Y-54971987D01*
X121857972Y-54973155D01*
X121849950Y-54986862D01*
X80508000Y-54986862D01*
X80508000Y-37516381D01*
X82849160Y-37516381D01*
X82849237Y-37517470D01*
X82851698Y-37521206D01*
X83125632Y-37731404D01*
X83131262Y-37735259D01*
X83431591Y-37917862D01*
X83437593Y-37921080D01*
X83755897Y-38070184D01*
X83762202Y-38072732D01*
X84094743Y-38186587D01*
X84101313Y-38188446D01*
X84444183Y-38265714D01*
X84450912Y-38266853D01*
X84800143Y-38306643D01*
X84806933Y-38307046D01*
X85158419Y-38308886D01*
X85165220Y-38308554D01*
X85514853Y-38272423D01*
X85521581Y-38271357D01*
X85865274Y-38197676D01*
X85871822Y-38195897D01*
X86205549Y-38085527D01*
X86211891Y-38083041D01*
X86531718Y-37937288D01*
X86537777Y-37934121D01*
X86839995Y-37754676D01*
X86845659Y-37750884D01*
X87126732Y-37539849D01*
X87131958Y-37535464D01*
X87141613Y-37526428D01*
X87149682Y-37512750D01*
X87149654Y-37512024D01*
X87144512Y-37503723D01*
X85012810Y-35372020D01*
X84998869Y-35364408D01*
X84997034Y-35364539D01*
X84990420Y-35368790D01*
X82856774Y-37502437D01*
X82849160Y-37516381D01*
X80508000Y-37516381D01*
X80508000Y-34991832D01*
X81687333Y-34991832D01*
X81705117Y-35342893D01*
X81705827Y-35349649D01*
X81761420Y-35696723D01*
X81762859Y-35703378D01*
X81855608Y-36042410D01*
X81857757Y-36048871D01*
X81986581Y-36375912D01*
X81989412Y-36382095D01*
X82152803Y-36693310D01*
X82156286Y-36699152D01*
X82352330Y-36990896D01*
X82356433Y-36996340D01*
X82476425Y-37138836D01*
X82489164Y-37147279D01*
X82499608Y-37141181D01*
X84627980Y-35012810D01*
X84634357Y-35001131D01*
X85364408Y-35001131D01*
X85364539Y-35002966D01*
X85368790Y-35009580D01*
X87499009Y-37139798D01*
X87512605Y-37147223D01*
X87522218Y-37140522D01*
X87622518Y-37023912D01*
X87626676Y-37018514D01*
X87825762Y-36728840D01*
X87829310Y-36723029D01*
X87995942Y-36413559D01*
X87998849Y-36407381D01*
X88131090Y-36081713D01*
X88133304Y-36075283D01*
X88213030Y-35795400D01*
X113621500Y-35795400D01*
X113621837Y-35798646D01*
X113621837Y-35798650D01*
X113631537Y-35892134D01*
X113632474Y-35901166D01*
X113688450Y-36068946D01*
X113781522Y-36219348D01*
X113906697Y-36344305D01*
X113912927Y-36348145D01*
X113912928Y-36348146D01*
X114050090Y-36432694D01*
X114057262Y-36437115D01*
X114129219Y-36460982D01*
X114218611Y-36490632D01*
X114218613Y-36490632D01*
X114225139Y-36492797D01*
X114231975Y-36493497D01*
X114231978Y-36493498D01*
X114275031Y-36497909D01*
X114329600Y-36503500D01*
X115670400Y-36503500D01*
X115673646Y-36503163D01*
X115673650Y-36503163D01*
X115769308Y-36493238D01*
X115769312Y-36493237D01*
X115776166Y-36492526D01*
X115782702Y-36490345D01*
X115782704Y-36490345D01*
X115914806Y-36446272D01*
X115943946Y-36436550D01*
X116094348Y-36343478D01*
X116219305Y-36218303D01*
X116296749Y-36092667D01*
X116312115Y-36067738D01*
X116314132Y-36068982D01*
X116353537Y-36024225D01*
X116421813Y-36004761D01*
X116489774Y-36025300D01*
X116511989Y-36043785D01*
X116619924Y-36156930D01*
X116627892Y-36163979D01*
X116806952Y-36297203D01*
X116815982Y-36302802D01*
X117014931Y-36403953D01*
X117024792Y-36407956D01*
X117237929Y-36474138D01*
X117248309Y-36476420D01*
X117268043Y-36479036D01*
X117282207Y-36476840D01*
X117286000Y-36463655D01*
X117286000Y-36461627D01*
X117794000Y-36461627D01*
X117797973Y-36475158D01*
X117808580Y-36476683D01*
X117932188Y-36450748D01*
X117942384Y-36447688D01*
X118149952Y-36365716D01*
X118159489Y-36360982D01*
X118350285Y-36245204D01*
X118358878Y-36238938D01*
X118527441Y-36092667D01*
X118534861Y-36085036D01*
X118676368Y-35912458D01*
X118682393Y-35903691D01*
X118687112Y-35895400D01*
X134121500Y-35895400D01*
X134121837Y-35898646D01*
X134121837Y-35898650D01*
X134122777Y-35907704D01*
X134132474Y-36001166D01*
X134188450Y-36168946D01*
X134281522Y-36319348D01*
X134286704Y-36324521D01*
X134305694Y-36343478D01*
X134406697Y-36444305D01*
X134412927Y-36448145D01*
X134412928Y-36448146D01*
X134550090Y-36532694D01*
X134557262Y-36537115D01*
X134631164Y-36561627D01*
X134718611Y-36590632D01*
X134718613Y-36590632D01*
X134725139Y-36592797D01*
X134731975Y-36593497D01*
X134731978Y-36593498D01*
X134775031Y-36597909D01*
X134829600Y-36603500D01*
X136170400Y-36603500D01*
X136173646Y-36603163D01*
X136173650Y-36603163D01*
X136269308Y-36593238D01*
X136269312Y-36593237D01*
X136276166Y-36592526D01*
X136282702Y-36590345D01*
X136282704Y-36590345D01*
X136416044Y-36545859D01*
X136443946Y-36536550D01*
X136594348Y-36443478D01*
X136719305Y-36318303D01*
X136796749Y-36192667D01*
X136812115Y-36167738D01*
X136814132Y-36168982D01*
X136853537Y-36124225D01*
X136921813Y-36104761D01*
X136989774Y-36125300D01*
X137011989Y-36143785D01*
X137119924Y-36256930D01*
X137127892Y-36263979D01*
X137306952Y-36397203D01*
X137315982Y-36402802D01*
X137514931Y-36503953D01*
X137524792Y-36507956D01*
X137737929Y-36574138D01*
X137748309Y-36576420D01*
X137768043Y-36579036D01*
X137782207Y-36576840D01*
X137786000Y-36563655D01*
X137786000Y-36561627D01*
X138294000Y-36561627D01*
X138297973Y-36575158D01*
X138308580Y-36576683D01*
X138432188Y-36550748D01*
X138442384Y-36547688D01*
X138649952Y-36465716D01*
X138659489Y-36460982D01*
X138850285Y-36345204D01*
X138858878Y-36338938D01*
X139027441Y-36192667D01*
X139034861Y-36185036D01*
X139176368Y-36012458D01*
X139182393Y-36003691D01*
X139292797Y-35809738D01*
X139297262Y-35800074D01*
X139373410Y-35590289D01*
X139376181Y-35580021D01*
X139416106Y-35359234D01*
X139417039Y-35351005D01*
X139417930Y-35332126D01*
X139418000Y-35329151D01*
X139418000Y-35272115D01*
X139413525Y-35256876D01*
X139412135Y-35255671D01*
X139404452Y-35254000D01*
X138312115Y-35254000D01*
X138296876Y-35258475D01*
X138295671Y-35259865D01*
X138294000Y-35267548D01*
X138294000Y-36561627D01*
X137786000Y-36561627D01*
X137786000Y-34727885D01*
X138294000Y-34727885D01*
X138298475Y-34743124D01*
X138299865Y-34744329D01*
X138307548Y-34746000D01*
X139399885Y-34746000D01*
X139415124Y-34741525D01*
X139416329Y-34740135D01*
X139418000Y-34732452D01*
X139418000Y-34718946D01*
X139417775Y-34713637D01*
X139403661Y-34547293D01*
X139401871Y-34536821D01*
X139345802Y-34320798D01*
X139342266Y-34310758D01*
X139250601Y-34107268D01*
X139245432Y-34097982D01*
X139120790Y-33912845D01*
X139114129Y-33904559D01*
X138960076Y-33743070D01*
X138952108Y-33736021D01*
X138773048Y-33602797D01*
X138764018Y-33597198D01*
X138565069Y-33496047D01*
X138555208Y-33492044D01*
X138342071Y-33425862D01*
X138331691Y-33423580D01*
X138311957Y-33420964D01*
X138297793Y-33423160D01*
X138294000Y-33436345D01*
X138294000Y-34727885D01*
X137786000Y-34727885D01*
X137786000Y-33438373D01*
X137782027Y-33424842D01*
X137771420Y-33423317D01*
X137647812Y-33449252D01*
X137637616Y-33452312D01*
X137430048Y-33534284D01*
X137420511Y-33539018D01*
X137229715Y-33654796D01*
X137221122Y-33661062D01*
X137052559Y-33807333D01*
X137045138Y-33814965D01*
X137017827Y-33848272D01*
X136959167Y-33888266D01*
X136888197Y-33890197D01*
X136827449Y-33853452D01*
X136812196Y-33830654D01*
X136811550Y-33831054D01*
X136722332Y-33686880D01*
X136718478Y-33680652D01*
X136593303Y-33555695D01*
X136498404Y-33497198D01*
X136448968Y-33466725D01*
X136448966Y-33466724D01*
X136442738Y-33462885D01*
X136356508Y-33434284D01*
X136281389Y-33409368D01*
X136281387Y-33409368D01*
X136274861Y-33407203D01*
X136268025Y-33406503D01*
X136268022Y-33406502D01*
X136224969Y-33402091D01*
X136170400Y-33396500D01*
X134829600Y-33396500D01*
X134826354Y-33396837D01*
X134826350Y-33396837D01*
X134730692Y-33406762D01*
X134730688Y-33406763D01*
X134723834Y-33407474D01*
X134717298Y-33409655D01*
X134717296Y-33409655D01*
X134629285Y-33439018D01*
X134556054Y-33463450D01*
X134405652Y-33556522D01*
X134280695Y-33681697D01*
X134276855Y-33687927D01*
X134276854Y-33687928D01*
X134203252Y-33807333D01*
X134187885Y-33832262D01*
X134132203Y-34000139D01*
X134131503Y-34006975D01*
X134131502Y-34006978D01*
X134131416Y-34007817D01*
X134121500Y-34104600D01*
X134121500Y-35895400D01*
X118687112Y-35895400D01*
X118792797Y-35709738D01*
X118797262Y-35700074D01*
X118873410Y-35490289D01*
X118876181Y-35480021D01*
X118916106Y-35259234D01*
X118917039Y-35251005D01*
X118917930Y-35232126D01*
X118918000Y-35229151D01*
X118918000Y-35172115D01*
X118913525Y-35156876D01*
X118912135Y-35155671D01*
X118904452Y-35154000D01*
X117812115Y-35154000D01*
X117796876Y-35158475D01*
X117795671Y-35159865D01*
X117794000Y-35167548D01*
X117794000Y-36461627D01*
X117286000Y-36461627D01*
X117286000Y-34627885D01*
X117794000Y-34627885D01*
X117798475Y-34643124D01*
X117799865Y-34644329D01*
X117807548Y-34646000D01*
X118899885Y-34646000D01*
X118915124Y-34641525D01*
X118916329Y-34640135D01*
X118918000Y-34632452D01*
X118918000Y-34618946D01*
X118917775Y-34613637D01*
X118903661Y-34447293D01*
X118901871Y-34436821D01*
X118845802Y-34220798D01*
X118842266Y-34210758D01*
X118750601Y-34007268D01*
X118745432Y-33997982D01*
X118620790Y-33812845D01*
X118614129Y-33804559D01*
X118460076Y-33643070D01*
X118452108Y-33636021D01*
X118273048Y-33502797D01*
X118264018Y-33497198D01*
X118065069Y-33396047D01*
X118055208Y-33392044D01*
X117842071Y-33325862D01*
X117831691Y-33323580D01*
X117811957Y-33320964D01*
X117797793Y-33323160D01*
X117794000Y-33336345D01*
X117794000Y-34627885D01*
X117286000Y-34627885D01*
X117286000Y-33338373D01*
X117282027Y-33324842D01*
X117271420Y-33323317D01*
X117147812Y-33349252D01*
X117137616Y-33352312D01*
X116930048Y-33434284D01*
X116920511Y-33439018D01*
X116729715Y-33554796D01*
X116721122Y-33561062D01*
X116552559Y-33707333D01*
X116545138Y-33714965D01*
X116517827Y-33748272D01*
X116459167Y-33788266D01*
X116388197Y-33790197D01*
X116327449Y-33753452D01*
X116312196Y-33730654D01*
X116311550Y-33731054D01*
X116222332Y-33586880D01*
X116218478Y-33580652D01*
X116198658Y-33560866D01*
X116098483Y-33460866D01*
X116093303Y-33455695D01*
X116044905Y-33425862D01*
X115948968Y-33366725D01*
X115948966Y-33366724D01*
X115942738Y-33362885D01*
X115862722Y-33336345D01*
X115781389Y-33309368D01*
X115781387Y-33309368D01*
X115774861Y-33307203D01*
X115768025Y-33306503D01*
X115768022Y-33306502D01*
X115724969Y-33302091D01*
X115670400Y-33296500D01*
X114329600Y-33296500D01*
X114326354Y-33296837D01*
X114326350Y-33296837D01*
X114230692Y-33306762D01*
X114230688Y-33306763D01*
X114223834Y-33307474D01*
X114217298Y-33309655D01*
X114217296Y-33309655D01*
X114098610Y-33349252D01*
X114056054Y-33363450D01*
X113905652Y-33456522D01*
X113780695Y-33581697D01*
X113776855Y-33587927D01*
X113776854Y-33587928D01*
X113703252Y-33707333D01*
X113687885Y-33732262D01*
X113685581Y-33739207D01*
X113685581Y-33739208D01*
X113635501Y-33890197D01*
X113632203Y-33900139D01*
X113631503Y-33906975D01*
X113631502Y-33906978D01*
X113628564Y-33935658D01*
X113621500Y-34004600D01*
X113621500Y-35795400D01*
X88213030Y-35795400D01*
X88229598Y-35737237D01*
X88231105Y-35730607D01*
X88290332Y-35384118D01*
X88291112Y-35377378D01*
X88312668Y-35024925D01*
X88312784Y-35021323D01*
X88312853Y-35001819D01*
X88312761Y-34998194D01*
X88293666Y-34645615D01*
X88292931Y-34638849D01*
X88236130Y-34291985D01*
X88234663Y-34285313D01*
X88140736Y-33946627D01*
X88138562Y-33940163D01*
X88008598Y-33613578D01*
X88005742Y-33607398D01*
X87841269Y-33296763D01*
X87837769Y-33290937D01*
X87640697Y-32999862D01*
X87636590Y-32994453D01*
X87523565Y-32861179D01*
X87510740Y-32852743D01*
X87500416Y-32858795D01*
X85372020Y-34987190D01*
X85364408Y-35001131D01*
X84634357Y-35001131D01*
X84635592Y-34998869D01*
X84635461Y-34997034D01*
X84631210Y-34990420D01*
X82500992Y-32860203D01*
X82487455Y-32852811D01*
X82477753Y-32859599D01*
X82370430Y-32985257D01*
X82366296Y-32990664D01*
X82168215Y-33281041D01*
X82164697Y-33286851D01*
X81999134Y-33596922D01*
X81996259Y-33603087D01*
X81865155Y-33929218D01*
X81862962Y-33935658D01*
X81767846Y-34274044D01*
X81766363Y-34280679D01*
X81708350Y-34627354D01*
X81707591Y-34634126D01*
X81687357Y-34985037D01*
X81687333Y-34991832D01*
X80508000Y-34991832D01*
X80508000Y-32486862D01*
X82849950Y-32486862D01*
X82849986Y-32487704D01*
X82855037Y-32495826D01*
X84987190Y-34627980D01*
X85001131Y-34635592D01*
X85002966Y-34635461D01*
X85009580Y-34631210D01*
X87142798Y-32497991D01*
X87150412Y-32484047D01*
X87150344Y-32483089D01*
X87145836Y-32476272D01*
X87144418Y-32475065D01*
X86864813Y-32262064D01*
X86859187Y-32258240D01*
X86558214Y-32076681D01*
X86552202Y-32073484D01*
X86233370Y-31925487D01*
X86227070Y-31922967D01*
X85894129Y-31810273D01*
X85887551Y-31808437D01*
X85544417Y-31732367D01*
X85537678Y-31731251D01*
X85188310Y-31692680D01*
X85181529Y-31692301D01*
X84830015Y-31691687D01*
X84823242Y-31692042D01*
X84473720Y-31729395D01*
X84467010Y-31730482D01*
X84123586Y-31805361D01*
X84117011Y-31807172D01*
X83783683Y-31918702D01*
X83777361Y-31921205D01*
X83458034Y-32068079D01*
X83451991Y-32071265D01*
X83150401Y-32251763D01*
X83144755Y-32255571D01*
X82864408Y-32467596D01*
X82859211Y-32471987D01*
X82857972Y-32473155D01*
X82849950Y-32486862D01*
X80508000Y-32486862D01*
X80508000Y-30634000D01*
X80528002Y-30565879D01*
X80581658Y-30519386D01*
X80634000Y-30508000D01*
X142874000Y-30508000D01*
X142942121Y-30528002D01*
G37*
G04 #@! TD.AperFunction*
G04 #@! TA.AperFunction,Conductor*
G36*
X156942121Y-30528002D02*
G01*
X156988614Y-30581658D01*
X157000000Y-30634000D01*
X157000000Y-42374000D01*
X156979998Y-42442121D01*
X156926342Y-42488614D01*
X156874000Y-42500000D01*
X144626000Y-42500000D01*
X144557879Y-42479998D01*
X144511386Y-42426342D01*
X144500000Y-42374000D01*
X144500000Y-30634000D01*
X144520002Y-30565879D01*
X144573658Y-30519386D01*
X144626000Y-30508000D01*
X156874000Y-30508000D01*
X156942121Y-30528002D01*
G37*
G04 #@! TD.AperFunction*
M02*
