  0
SECTION
  2
HEADER
  9
$ANGBASE
  50
0.0
  9
$ANGDIR
  70
1
  9
$MEASUREMENT
  70
1
  0
ENDSEC
  0
SECTION
  2
TABLES
  0
TABLE
  2
LTYPE
  70
4
  0
LTYPE
  5
40F
  2
CONTINUOUS
  70
0
  3
Solid line
  72
65
  73
0
  40
0.0
  0
LTYPE
  5
410
  2
DASHDOT
 70
0
  3
Dash Dot ____ _ ____ _
 72
65
 73
4
 40
2.0
 49
1.25
 49
-0.25
 49
0.25
 49
-0.25
  0
LTYPE
  5
411
  2
DASHED
 70
0
  3
Dashed __ __ __ __ __
 72
65
 73
2
 40
0.75
 49
0.5
 49
-0.25
  0
LTYPE
  5
43B
  2
DOTTED
 70
0
  3
Dotted .  .  .  .
 72
65
 73
2
 40
0.2
 49
0.0
 49
-0.2
  0
ENDTAB
  0
TABLE
  2
STYLE
  70
4
  0
STYLE
  2
KICAD
  70
0
  40
0
  41
1
  42
1
  50
0
  71
0
  3
isocp.shx
  0
STYLE
  2
KICADB
  70
0
  40
0
  41
1
  42
1
  50
0
  71
0
  3
isocp.shx
  0
STYLE
  2
KICADI
  70
0
  40
0
  41
1
  42
1
  50
15
  71
0
  3
isocp.shx
  0
STYLE
  2
KICADBI
  70
0
  40
0
  41
1
  42
1
  50
15
  71
0
  3
isocp.shx
  0
ENDTAB
  0
TABLE
  2
LAYER
  70
1
  0
LAYER
  2
BLACK
  70
0
  62
7
  6
CONTINUOUS
  0
ENDTAB
  0
ENDSEC
  0
SECTION
  2
ENTITIES
0
LINE
8
BLACK
6
CONTINUOUS
10
119.5
20
-130
11
119.5
21
-60
0
LINE
8
BLACK
6
CONTINUOUS
10
180
20
-130
11
129
21
-130
0
LINE
8
BLACK
6
CONTINUOUS
10
80
20
-130
11
80
21
-30
0
LINE
8
BLACK
6
CONTINUOUS
10
129
20
-60
11
129
21
-130
0
LINE
8
BLACK
6
CONTINUOUS
10
180
20
-30
11
180
21
-130
0
LINE
8
BLACK
6
CONTINUOUS
10
119.5
20
-130
11
80
21
-130
0
LINE
8
BLACK
6
CONTINUOUS
10
80
20
-30
11
180
21
-30
0
LINE
8
BLACK
6
CONTINUOUS
10
129
20
-60
11
119.5
21
-60
0
LINE
8
BLACK
6
CONTINUOUS
10
81.3
20
-31.3
11
81.7
21
-31.7
0
LINE
8
BLACK
6
CONTINUOUS
10
81.7
20
-31.3
11
81.3
21
-31.7
0
LINE
8
BLACK
6
CONTINUOUS
10
81.3
20
-36.3
11
81.7
21
-36.7
0
LINE
8
BLACK
6
CONTINUOUS
10
81.7
20
-36.3
11
81.3
21
-36.7
0
LINE
8
BLACK
6
CONTINUOUS
10
81.3
20
-41.3
11
81.7
21
-41.7
0
LINE
8
BLACK
6
CONTINUOUS
10
81.7
20
-41.3
11
81.3
21
-41.7
0
LINE
8
BLACK
6
CONTINUOUS
10
81.3
20
-46.3
11
81.7
21
-46.7
0
LINE
8
BLACK
6
CONTINUOUS
10
81.7
20
-46.3
11
81.3
21
-46.7
0
LINE
8
BLACK
6
CONTINUOUS
10
81.3
20
-51.3
11
81.7
21
-51.7
0
LINE
8
BLACK
6
CONTINUOUS
10
81.7
20
-51.3
11
81.3
21
-51.7
0
LINE
8
BLACK
6
CONTINUOUS
10
81.3
20
-56.3
11
81.7
21
-56.7
0
LINE
8
BLACK
6
CONTINUOUS
10
81.7
20
-56.3
11
81.3
21
-56.7
0
LINE
8
BLACK
6
CONTINUOUS
10
81.3
20
-61.3
11
81.7
21
-61.7
0
LINE
8
BLACK
6
CONTINUOUS
10
81.7
20
-61.3
11
81.3
21
-61.7
0
LINE
8
BLACK
6
CONTINUOUS
10
81.3
20
-66.3
11
81.7
21
-66.7
0
LINE
8
BLACK
6
CONTINUOUS
10
81.7
20
-66.3
11
81.3
21
-66.7
0
LINE
8
BLACK
6
CONTINUOUS
10
81.3
20
-71.3
11
81.7
21
-71.7
0
LINE
8
BLACK
6
CONTINUOUS
10
81.7
20
-71.3
11
81.3
21
-71.7
0
LINE
8
BLACK
6
CONTINUOUS
10
81.3
20
-86.3
11
81.7
21
-86.7
0
LINE
8
BLACK
6
CONTINUOUS
10
81.7
20
-86.3
11
81.3
21
-86.7
0
LINE
8
BLACK
6
CONTINUOUS
10
81.3
20
-91.3
11
81.7
21
-91.7
0
LINE
8
BLACK
6
CONTINUOUS
10
81.7
20
-91.3
11
81.3
21
-91.7
0
LINE
8
BLACK
6
CONTINUOUS
10
81.3
20
-96.3
11
81.7
21
-96.7
0
LINE
8
BLACK
6
CONTINUOUS
10
81.7
20
-96.3
11
81.3
21
-96.7
0
LINE
8
BLACK
6
CONTINUOUS
10
81.3
20
-101.3
11
81.7
21
-101.7
0
LINE
8
BLACK
6
CONTINUOUS
10
81.7
20
-101.3
11
81.3
21
-101.7
0
LINE
8
BLACK
6
CONTINUOUS
10
81.3
20
-111.3
11
81.7
21
-111.7
0
LINE
8
BLACK
6
CONTINUOUS
10
81.7
20
-111.3
11
81.3
21
-111.7
0
LINE
8
BLACK
6
CONTINUOUS
10
81.3
20
-116.3
11
81.7
21
-116.7
0
LINE
8
BLACK
6
CONTINUOUS
10
81.7
20
-116.3
11
81.3
21
-116.7
0
LINE
8
BLACK
6
CONTINUOUS
10
81.3
20
-121.3
11
81.7
21
-121.7
0
LINE
8
BLACK
6
CONTINUOUS
10
81.7
20
-121.3
11
81.3
21
-121.7
0
LINE
8
BLACK
6
CONTINUOUS
10
81.8
20
-127.8
11
82.2
21
-128.2
0
LINE
8
BLACK
6
CONTINUOUS
10
82.2
20
-127.8
11
81.8
21
-128.2
0
LINE
8
BLACK
6
CONTINUOUS
10
86.3
20
-31.3
11
86.7
21
-31.7
0
LINE
8
BLACK
6
CONTINUOUS
10
86.7
20
-31.3
11
86.3
21
-31.7
0
LINE
8
BLACK
6
CONTINUOUS
10
86.8
20
-56.3
11
87.2
21
-56.7
0
LINE
8
BLACK
6
CONTINUOUS
10
87.2
20
-56.3
11
86.8
21
-56.7
0
LINE
8
BLACK
6
CONTINUOUS
10
86.8
20
-61.3
11
87.2
21
-61.7
0
LINE
8
BLACK
6
CONTINUOUS
10
87.2
20
-61.3
11
86.8
21
-61.7
0
LINE
8
BLACK
6
CONTINUOUS
10
86.8
20
-66.3
11
87.2
21
-66.7
0
LINE
8
BLACK
6
CONTINUOUS
10
87.2
20
-66.3
11
86.8
21
-66.7
0
LINE
8
BLACK
6
CONTINUOUS
10
86.8
20
-71.3
11
87.2
21
-71.7
0
LINE
8
BLACK
6
CONTINUOUS
10
87.2
20
-71.3
11
86.8
21
-71.7
0
LINE
8
BLACK
6
CONTINUOUS
10
86.8
20
-96.3
11
87.2
21
-96.7
0
LINE
8
BLACK
6
CONTINUOUS
10
87.2
20
-96.3
11
86.8
21
-96.7
0
LINE
8
BLACK
6
CONTINUOUS
10
86.8
20
-101.3
11
87.2
21
-101.7
0
LINE
8
BLACK
6
CONTINUOUS
10
87.2
20
-101.3
11
86.8
21
-101.7
0
LINE
8
BLACK
6
CONTINUOUS
10
86.8
20
-127.8
11
87.2
21
-128.2
0
LINE
8
BLACK
6
CONTINUOUS
10
87.2
20
-127.8
11
86.8
21
-128.2
0
LINE
8
BLACK
6
CONTINUOUS
10
87.8
20
-45.3
11
88.2
21
-45.7
0
LINE
8
BLACK
6
CONTINUOUS
10
88.2
20
-45.3
11
87.8
21
-45.7
0
LINE
8
BLACK
6
CONTINUOUS
10
87.8
20
-48.3
11
88.2
21
-48.7
0
LINE
8
BLACK
6
CONTINUOUS
10
88.2
20
-48.3
11
87.8
21
-48.7
0
LINE
8
BLACK
6
CONTINUOUS
10
88.8
20
-41.8
11
89.2
21
-42.2
0
LINE
8
BLACK
6
CONTINUOUS
10
89.2
20
-41.8
11
88.8
21
-42.2
0
LINE
8
BLACK
6
CONTINUOUS
10
90.8
20
-45.8
11
91.2
21
-46.2
0
LINE
8
BLACK
6
CONTINUOUS
10
91.2
20
-45.8
11
90.8
21
-46.2
0
LINE
8
BLACK
6
CONTINUOUS
10
90.8
20
-48.8
11
91.2
21
-49.2
0
LINE
8
BLACK
6
CONTINUOUS
10
91.2
20
-48.8
11
90.8
21
-49.2
0
LINE
8
BLACK
6
CONTINUOUS
10
91.3
20
-31.3
11
91.7
21
-31.7
0
LINE
8
BLACK
6
CONTINUOUS
10
91.7
20
-31.3
11
91.3
21
-31.7
0
LINE
8
BLACK
6
CONTINUOUS
10
91.8
20
-96.3
11
92.2
21
-96.7
0
LINE
8
BLACK
6
CONTINUOUS
10
92.2
20
-96.3
11
91.8
21
-96.7
0
LINE
8
BLACK
6
CONTINUOUS
10
91.8
20
-101.3
11
92.2
21
-101.7
0
LINE
8
BLACK
6
CONTINUOUS
10
92.2
20
-101.3
11
91.8
21
-101.7
0
LINE
8
BLACK
6
CONTINUOUS
10
91.8
20
-108.3
11
92.2
21
-108.7
0
LINE
8
BLACK
6
CONTINUOUS
10
92.2
20
-108.3
11
91.8
21
-108.7
0
LINE
8
BLACK
6
CONTINUOUS
10
91.8
20
-127.8
11
92.2
21
-128.2
0
LINE
8
BLACK
6
CONTINUOUS
10
92.2
20
-127.8
11
91.8
21
-128.2
0
LINE
8
BLACK
6
CONTINUOUS
10
92.3
20
-41.8
11
92.7
21
-42.2
0
LINE
8
BLACK
6
CONTINUOUS
10
92.7
20
-41.8
11
92.3
21
-42.2
0
LINE
8
BLACK
6
CONTINUOUS
10
92.3
20
-47.3
11
92.7
21
-47.7
0
LINE
8
BLACK
6
CONTINUOUS
10
92.7
20
-47.3
11
92.3
21
-47.7
0
LINE
8
BLACK
6
CONTINUOUS
10
92.3
20
-50.3
11
92.7
21
-50.7
0
LINE
8
BLACK
6
CONTINUOUS
10
92.7
20
-50.3
11
92.3
21
-50.7
0
LINE
8
BLACK
6
CONTINUOUS
10
93.8
20
-45.8
11
94.2
21
-46.2
0
LINE
8
BLACK
6
CONTINUOUS
10
94.2
20
-45.8
11
93.8
21
-46.2
0
LINE
8
BLACK
6
CONTINUOUS
10
93.8
20
-48.8
11
94.2
21
-49.2
0
LINE
8
BLACK
6
CONTINUOUS
10
94.2
20
-48.8
11
93.8
21
-49.2
0
LINE
8
BLACK
6
CONTINUOUS
10
95.3
20
-47.3
11
95.7
21
-47.7
0
LINE
8
BLACK
6
CONTINUOUS
10
95.7
20
-47.3
11
95.3
21
-47.7
0
LINE
8
BLACK
6
CONTINUOUS
10
95.3
20
-50.3
11
95.7
21
-50.7
0
LINE
8
BLACK
6
CONTINUOUS
10
95.7
20
-50.3
11
95.3
21
-50.7
0
LINE
8
BLACK
6
CONTINUOUS
10
95.8
20
-41.8
11
96.2
21
-42.2
0
LINE
8
BLACK
6
CONTINUOUS
10
96.2
20
-41.8
11
95.8
21
-42.2
0
LINE
8
BLACK
6
CONTINUOUS
10
96.3
20
-31.3
11
96.7
21
-31.7
0
LINE
8
BLACK
6
CONTINUOUS
10
96.7
20
-31.3
11
96.3
21
-31.7
0
LINE
8
BLACK
6
CONTINUOUS
10
96.8
20
-96.3
11
97.2
21
-96.7
0
LINE
8
BLACK
6
CONTINUOUS
10
97.2
20
-96.3
11
96.8
21
-96.7
0
LINE
8
BLACK
6
CONTINUOUS
10
96.8
20
-108.3
11
97.2
21
-108.7
0
LINE
8
BLACK
6
CONTINUOUS
10
97.2
20
-108.3
11
96.8
21
-108.7
0
LINE
8
BLACK
6
CONTINUOUS
10
96.8
20
-127.8
11
97.2
21
-128.2
0
LINE
8
BLACK
6
CONTINUOUS
10
97.2
20
-127.8
11
96.8
21
-128.2
0
LINE
8
BLACK
6
CONTINUOUS
10
97.8
20
-45.3
11
98.2
21
-45.7
0
LINE
8
BLACK
6
CONTINUOUS
10
98.2
20
-45.3
11
97.8
21
-45.7
0
LINE
8
BLACK
6
CONTINUOUS
10
97.8
20
-48.3
11
98.2
21
-48.7
0
LINE
8
BLACK
6
CONTINUOUS
10
98.2
20
-48.3
11
97.8
21
-48.7
0
LINE
8
BLACK
6
CONTINUOUS
10
97.8
20
-50.8
11
98.2
21
-51.2
0
LINE
8
BLACK
6
CONTINUOUS
10
98.2
20
-50.8
11
97.8
21
-51.2
0
LINE
8
BLACK
6
CONTINUOUS
10
101.3
20
-31.3
11
101.7
21
-31.7
0
LINE
8
BLACK
6
CONTINUOUS
10
101.7
20
-31.3
11
101.3
21
-31.7
0
LINE
8
BLACK
6
CONTINUOUS
10
101.8
20
-108.3
11
102.2
21
-108.7
0
LINE
8
BLACK
6
CONTINUOUS
10
102.2
20
-108.3
11
101.8
21
-108.7
0
LINE
8
BLACK
6
CONTINUOUS
10
101.8
20
-127.8
11
102.2
21
-128.2
0
LINE
8
BLACK
6
CONTINUOUS
10
102.2
20
-127.8
11
101.8
21
-128.2
0
LINE
8
BLACK
6
CONTINUOUS
10
104.8
20
-56.3
11
105.2
21
-56.7
0
LINE
8
BLACK
6
CONTINUOUS
10
105.2
20
-56.3
11
104.8
21
-56.7
0
LINE
8
BLACK
6
CONTINUOUS
10
104.8
20
-61.3
11
105.2
21
-61.7
0
LINE
8
BLACK
6
CONTINUOUS
10
105.2
20
-61.3
11
104.8
21
-61.7
0
LINE
8
BLACK
6
CONTINUOUS
10
104.8
20
-66.3
11
105.2
21
-66.7
0
LINE
8
BLACK
6
CONTINUOUS
10
105.2
20
-66.3
11
104.8
21
-66.7
0
LINE
8
BLACK
6
CONTINUOUS
10
104.8
20
-71.3
11
105.2
21
-71.7
0
LINE
8
BLACK
6
CONTINUOUS
10
105.2
20
-71.3
11
104.8
21
-71.7
0
LINE
8
BLACK
6
CONTINUOUS
10
106.3
20
-31.3
11
106.7
21
-31.7
0
LINE
8
BLACK
6
CONTINUOUS
10
106.7
20
-31.3
11
106.3
21
-31.7
0
LINE
8
BLACK
6
CONTINUOUS
10
106.3
20
-80.3
11
106.7
21
-80.7
0
LINE
8
BLACK
6
CONTINUOUS
10
106.7
20
-80.3
11
106.3
21
-80.7
0
LINE
8
BLACK
6
CONTINUOUS
10
106.3
20
-83.3
11
106.7
21
-83.7
0
LINE
8
BLACK
6
CONTINUOUS
10
106.7
20
-83.3
11
106.3
21
-83.7
0
LINE
8
BLACK
6
CONTINUOUS
10
106.3
20
-86.3
11
106.7
21
-86.7
0
LINE
8
BLACK
6
CONTINUOUS
10
106.7
20
-86.3
11
106.3
21
-86.7
0
LINE
8
BLACK
6
CONTINUOUS
10
106.3
20
-88.8
11
106.7
21
-89.2
0
LINE
8
BLACK
6
CONTINUOUS
10
106.7
20
-88.8
11
106.3
21
-89.2
0
LINE
8
BLACK
6
CONTINUOUS
10
106.3
20
-91.3
11
106.7
21
-91.7
0
LINE
8
BLACK
6
CONTINUOUS
10
106.7
20
-91.3
11
106.3
21
-91.7
0
LINE
8
BLACK
6
CONTINUOUS
10
106.8
20
-101.3
11
107.2
21
-101.7
0
LINE
8
BLACK
6
CONTINUOUS
10
107.2
20
-101.3
11
106.8
21
-101.7
0
LINE
8
BLACK
6
CONTINUOUS
10
106.8
20
-108.3
11
107.2
21
-108.7
0
LINE
8
BLACK
6
CONTINUOUS
10
107.2
20
-108.3
11
106.8
21
-108.7
0
LINE
8
BLACK
6
CONTINUOUS
10
106.8
20
-127.8
11
107.2
21
-128.2
0
LINE
8
BLACK
6
CONTINUOUS
10
107.2
20
-127.8
11
106.8
21
-128.2
0
LINE
8
BLACK
6
CONTINUOUS
10
111.3
20
-31.3
11
111.7
21
-31.7
0
LINE
8
BLACK
6
CONTINUOUS
10
111.7
20
-31.3
11
111.3
21
-31.7
0
LINE
8
BLACK
6
CONTINUOUS
10
111.8
20
-96.3
11
112.2
21
-96.7
0
LINE
8
BLACK
6
CONTINUOUS
10
112.2
20
-96.3
11
111.8
21
-96.7
0
LINE
8
BLACK
6
CONTINUOUS
10
111.8
20
-101.3
11
112.2
21
-101.7
0
LINE
8
BLACK
6
CONTINUOUS
10
112.2
20
-101.3
11
111.8
21
-101.7
0
LINE
8
BLACK
6
CONTINUOUS
10
111.8
20
-108.3
11
112.2
21
-108.7
0
LINE
8
BLACK
6
CONTINUOUS
10
112.2
20
-108.3
11
111.8
21
-108.7
0
LINE
8
BLACK
6
CONTINUOUS
10
111.8
20
-127.8
11
112.2
21
-128.2
0
LINE
8
BLACK
6
CONTINUOUS
10
112.2
20
-127.8
11
111.8
21
-128.2
0
LINE
8
BLACK
6
CONTINUOUS
10
116.3
20
-31.3
11
116.7
21
-31.7
0
LINE
8
BLACK
6
CONTINUOUS
10
116.7
20
-31.3
11
116.3
21
-31.7
0
LINE
8
BLACK
6
CONTINUOUS
10
116.3
20
-46.3
11
116.7
21
-46.7
0
LINE
8
BLACK
6
CONTINUOUS
10
116.7
20
-46.3
11
116.3
21
-46.7
0
LINE
8
BLACK
6
CONTINUOUS
10
116.3
20
-51.3
11
116.7
21
-51.7
0
LINE
8
BLACK
6
CONTINUOUS
10
116.7
20
-51.3
11
116.3
21
-51.7
0
LINE
8
BLACK
6
CONTINUOUS
10
116.3
20
-56.3
11
116.7
21
-56.7
0
LINE
8
BLACK
6
CONTINUOUS
10
116.7
20
-56.3
11
116.3
21
-56.7
0
LINE
8
BLACK
6
CONTINUOUS
10
116.8
20
-96.3
11
117.2
21
-96.7
0
LINE
8
BLACK
6
CONTINUOUS
10
117.2
20
-96.3
11
116.8
21
-96.7
0
LINE
8
BLACK
6
CONTINUOUS
10
116.8
20
-101.3
11
117.2
21
-101.7
0
LINE
8
BLACK
6
CONTINUOUS
10
117.2
20
-101.3
11
116.8
21
-101.7
0
LINE
8
BLACK
6
CONTINUOUS
10
116.8
20
-108.3
11
117.2
21
-108.7
0
LINE
8
BLACK
6
CONTINUOUS
10
117.2
20
-108.3
11
116.8
21
-108.7
0
LINE
8
BLACK
6
CONTINUOUS
10
116.8
20
-127.8
11
117.2
21
-128.2
0
LINE
8
BLACK
6
CONTINUOUS
10
117.2
20
-127.8
11
116.8
21
-128.2
0
LINE
8
BLACK
6
CONTINUOUS
10
121.3
20
-31.3
11
121.7
21
-31.7
0
LINE
8
BLACK
6
CONTINUOUS
10
121.7
20
-31.3
11
121.3
21
-31.7
0
LINE
8
BLACK
6
CONTINUOUS
10
121.3
20
-46.3
11
121.7
21
-46.7
0
LINE
8
BLACK
6
CONTINUOUS
10
121.7
20
-46.3
11
121.3
21
-46.7
0
LINE
8
BLACK
6
CONTINUOUS
10
121.3
20
-56.3
11
121.7
21
-56.7
0
LINE
8
BLACK
6
CONTINUOUS
10
121.7
20
-56.3
11
121.3
21
-56.7
0
LINE
8
BLACK
6
CONTINUOUS
10
126.3
20
-31.3
11
126.7
21
-31.7
0
LINE
8
BLACK
6
CONTINUOUS
10
126.7
20
-31.3
11
126.3
21
-31.7
0
LINE
8
BLACK
6
CONTINUOUS
10
126.3
20
-46.3
11
126.7
21
-46.7
0
LINE
8
BLACK
6
CONTINUOUS
10
126.7
20
-46.3
11
126.3
21
-46.7
0
LINE
8
BLACK
6
CONTINUOUS
10
126.3
20
-56.3
11
126.7
21
-56.7
0
LINE
8
BLACK
6
CONTINUOUS
10
126.7
20
-56.3
11
126.3
21
-56.7
0
LINE
8
BLACK
6
CONTINUOUS
10
131.3
20
-31.3
11
131.7
21
-31.7
0
LINE
8
BLACK
6
CONTINUOUS
10
131.7
20
-31.3
11
131.3
21
-31.7
0
LINE
8
BLACK
6
CONTINUOUS
10
131.3
20
-46.3
11
131.7
21
-46.7
0
LINE
8
BLACK
6
CONTINUOUS
10
131.7
20
-46.3
11
131.3
21
-46.7
0
LINE
8
BLACK
6
CONTINUOUS
10
131.3
20
-56.3
11
131.7
21
-56.7
0
LINE
8
BLACK
6
CONTINUOUS
10
131.7
20
-56.3
11
131.3
21
-56.7
0
LINE
8
BLACK
6
CONTINUOUS
10
131.8
20
-96.3
11
132.2
21
-96.7
0
LINE
8
BLACK
6
CONTINUOUS
10
132.2
20
-96.3
11
131.8
21
-96.7
0
LINE
8
BLACK
6
CONTINUOUS
10
131.8
20
-101.3
11
132.2
21
-101.7
0
LINE
8
BLACK
6
CONTINUOUS
10
132.2
20
-101.3
11
131.8
21
-101.7
0
LINE
8
BLACK
6
CONTINUOUS
10
131.8
20
-108.3
11
132.2
21
-108.7
0
LINE
8
BLACK
6
CONTINUOUS
10
132.2
20
-108.3
11
131.8
21
-108.7
0
LINE
8
BLACK
6
CONTINUOUS
10
131.8
20
-127.8
11
132.2
21
-128.2
0
LINE
8
BLACK
6
CONTINUOUS
10
132.2
20
-127.8
11
131.8
21
-128.2
0
LINE
8
BLACK
6
CONTINUOUS
10
136.3
20
-31.3
11
136.7
21
-31.7
0
LINE
8
BLACK
6
CONTINUOUS
10
136.7
20
-31.3
11
136.3
21
-31.7
0
LINE
8
BLACK
6
CONTINUOUS
10
136.3
20
-46.3
11
136.7
21
-46.7
0
LINE
8
BLACK
6
CONTINUOUS
10
136.7
20
-46.3
11
136.3
21
-46.7
0
LINE
8
BLACK
6
CONTINUOUS
10
136.3
20
-56.3
11
136.7
21
-56.7
0
LINE
8
BLACK
6
CONTINUOUS
10
136.7
20
-56.3
11
136.3
21
-56.7
0
LINE
8
BLACK
6
CONTINUOUS
10
136.8
20
-96.3
11
137.2
21
-96.7
0
LINE
8
BLACK
6
CONTINUOUS
10
137.2
20
-96.3
11
136.8
21
-96.7
0
LINE
8
BLACK
6
CONTINUOUS
10
136.8
20
-108.3
11
137.2
21
-108.7
0
LINE
8
BLACK
6
CONTINUOUS
10
137.2
20
-108.3
11
136.8
21
-108.7
0
LINE
8
BLACK
6
CONTINUOUS
10
136.8
20
-127.8
11
137.2
21
-128.2
0
LINE
8
BLACK
6
CONTINUOUS
10
137.2
20
-127.8
11
136.8
21
-128.2
0
LINE
8
BLACK
6
CONTINUOUS
10
139.3
20
-72.3
11
139.7
21
-72.7
0
LINE
8
BLACK
6
CONTINUOUS
10
139.7
20
-72.3
11
139.3
21
-72.7
0
LINE
8
BLACK
6
CONTINUOUS
10
139.3
20
-86.3
11
139.7
21
-86.7
0
LINE
8
BLACK
6
CONTINUOUS
10
139.7
20
-86.3
11
139.3
21
-86.7
0
LINE
8
BLACK
6
CONTINUOUS
10
141.3
20
-31.3
11
141.7
21
-31.7
0
LINE
8
BLACK
6
CONTINUOUS
10
141.7
20
-31.3
11
141.3
21
-31.7
0
LINE
8
BLACK
6
CONTINUOUS
10
141.3
20
-46.3
11
141.7
21
-46.7
0
LINE
8
BLACK
6
CONTINUOUS
10
141.7
20
-46.3
11
141.3
21
-46.7
0
LINE
8
BLACK
6
CONTINUOUS
10
141.3
20
-51.3
11
141.7
21
-51.7
0
LINE
8
BLACK
6
CONTINUOUS
10
141.7
20
-51.3
11
141.3
21
-51.7
0
LINE
8
BLACK
6
CONTINUOUS
10
141.3
20
-56.3
11
141.7
21
-56.7
0
LINE
8
BLACK
6
CONTINUOUS
10
141.7
20
-56.3
11
141.3
21
-56.7
0
LINE
8
BLACK
6
CONTINUOUS
10
141.3
20
-86.3
11
141.7
21
-86.7
0
LINE
8
BLACK
6
CONTINUOUS
10
141.7
20
-86.3
11
141.3
21
-86.7
0
LINE
8
BLACK
6
CONTINUOUS
10
141.8
20
-72.3
11
142.2
21
-72.7
0
LINE
8
BLACK
6
CONTINUOUS
10
142.2
20
-72.3
11
141.8
21
-72.7
0
LINE
8
BLACK
6
CONTINUOUS
10
141.8
20
-96.3
11
142.2
21
-96.7
0
LINE
8
BLACK
6
CONTINUOUS
10
142.2
20
-96.3
11
141.8
21
-96.7
0
LINE
8
BLACK
6
CONTINUOUS
10
141.8
20
-108.3
11
142.2
21
-108.7
0
LINE
8
BLACK
6
CONTINUOUS
10
142.2
20
-108.3
11
141.8
21
-108.7
0
LINE
8
BLACK
6
CONTINUOUS
10
141.8
20
-127.8
11
142.2
21
-128.2
0
LINE
8
BLACK
6
CONTINUOUS
10
142.2
20
-127.8
11
141.8
21
-128.2
0
LINE
8
BLACK
6
CONTINUOUS
10
143.3
20
-58.8
11
143.7
21
-59.2
0
LINE
8
BLACK
6
CONTINUOUS
10
143.7
20
-58.8
11
143.3
21
-59.2
0
LINE
8
BLACK
6
CONTINUOUS
10
143.3
20
-60.8
11
143.7
21
-61.2
0
LINE
8
BLACK
6
CONTINUOUS
10
143.7
20
-60.8
11
143.3
21
-61.2
0
LINE
8
BLACK
6
CONTINUOUS
10
143.3
20
-62.8
11
143.7
21
-63.2
0
LINE
8
BLACK
6
CONTINUOUS
10
143.7
20
-62.8
11
143.3
21
-63.2
0
LINE
8
BLACK
6
CONTINUOUS
10
143.3
20
-64.8
11
143.7
21
-65.2
0
LINE
8
BLACK
6
CONTINUOUS
10
143.7
20
-64.8
11
143.3
21
-65.2
0
LINE
8
BLACK
6
CONTINUOUS
10
143.3
20
-66.8
11
143.7
21
-67.2
0
LINE
8
BLACK
6
CONTINUOUS
10
143.7
20
-66.8
11
143.3
21
-67.2
0
LINE
8
BLACK
6
CONTINUOUS
10
143.3
20
-68.8
11
143.7
21
-69.2
0
LINE
8
BLACK
6
CONTINUOUS
10
143.7
20
-68.8
11
143.3
21
-69.2
0
LINE
8
BLACK
6
CONTINUOUS
10
143.3
20
-71.3
11
143.7
21
-71.7
0
LINE
8
BLACK
6
CONTINUOUS
10
143.7
20
-71.3
11
143.3
21
-71.7
0
LINE
8
BLACK
6
CONTINUOUS
10
143.3
20
-86.3
11
143.7
21
-86.7
0
LINE
8
BLACK
6
CONTINUOUS
10
143.7
20
-86.3
11
143.3
21
-86.7
0
LINE
8
BLACK
6
CONTINUOUS
10
145.3
20
-86.3
11
145.7
21
-86.7
0
LINE
8
BLACK
6
CONTINUOUS
10
145.7
20
-86.3
11
145.3
21
-86.7
0
LINE
8
BLACK
6
CONTINUOUS
10
146.8
20
-31.3
11
147.2
21
-31.7
0
LINE
8
BLACK
6
CONTINUOUS
10
147.2
20
-31.3
11
146.8
21
-31.7
0
LINE
8
BLACK
6
CONTINUOUS
10
146.8
20
-91.3
11
147.2
21
-91.7
0
LINE
8
BLACK
6
CONTINUOUS
10
147.2
20
-91.3
11
146.8
21
-91.7
0
LINE
8
BLACK
6
CONTINUOUS
10
146.8
20
-96.3
11
147.2
21
-96.7
0
LINE
8
BLACK
6
CONTINUOUS
10
147.2
20
-96.3
11
146.8
21
-96.7
0
LINE
8
BLACK
6
CONTINUOUS
10
146.8
20
-108.3
11
147.2
21
-108.7
0
LINE
8
BLACK
6
CONTINUOUS
10
147.2
20
-108.3
11
146.8
21
-108.7
0
LINE
8
BLACK
6
CONTINUOUS
10
146.8
20
-127.8
11
147.2
21
-128.2
0
LINE
8
BLACK
6
CONTINUOUS
10
147.2
20
-127.8
11
146.8
21
-128.2
0
LINE
8
BLACK
6
CONTINUOUS
10
147.3
20
-86.3
11
147.7
21
-86.7
0
LINE
8
BLACK
6
CONTINUOUS
10
147.7
20
-86.3
11
147.3
21
-86.7
0
LINE
8
BLACK
6
CONTINUOUS
10
149.3
20
-85.3
11
149.7
21
-85.7
0
LINE
8
BLACK
6
CONTINUOUS
10
149.7
20
-85.3
11
149.3
21
-85.7
0
LINE
8
BLACK
6
CONTINUOUS
10
150.8
20
-83.8
11
151.2
21
-84.2
0
LINE
8
BLACK
6
CONTINUOUS
10
151.2
20
-83.8
11
150.8
21
-84.2
0
LINE
8
BLACK
6
CONTINUOUS
10
151.8
20
-91.3
11
152.2
21
-91.7
0
LINE
8
BLACK
6
CONTINUOUS
10
152.2
20
-91.3
11
151.8
21
-91.7
0
LINE
8
BLACK
6
CONTINUOUS
10
151.8
20
-108.3
11
152.2
21
-108.7
0
LINE
8
BLACK
6
CONTINUOUS
10
152.2
20
-108.3
11
151.8
21
-108.7
0
LINE
8
BLACK
6
CONTINUOUS
10
151.8
20
-127.8
11
152.2
21
-128.2
0
LINE
8
BLACK
6
CONTINUOUS
10
152.2
20
-127.8
11
151.8
21
-128.2
0
LINE
8
BLACK
6
CONTINUOUS
10
152.3
20
-31.3
11
152.7
21
-31.7
0
LINE
8
BLACK
6
CONTINUOUS
10
152.7
20
-31.3
11
152.3
21
-31.7
0
LINE
8
BLACK
6
CONTINUOUS
10
152.3
20
-82.3
11
152.7
21
-82.7
0
LINE
8
BLACK
6
CONTINUOUS
10
152.7
20
-82.3
11
152.3
21
-82.7
0
LINE
8
BLACK
6
CONTINUOUS
10
153.3
20
-80.8
11
153.7
21
-81.2
0
LINE
8
BLACK
6
CONTINUOUS
10
153.7
20
-80.8
11
153.3
21
-81.2
0
LINE
8
BLACK
6
CONTINUOUS
10
154.8
20
-79.8
11
155.2
21
-80.2
0
LINE
8
BLACK
6
CONTINUOUS
10
155.2
20
-79.8
11
154.8
21
-80.2
0
LINE
8
BLACK
6
CONTINUOUS
10
156.3
20
-78.3
11
156.7
21
-78.7
0
LINE
8
BLACK
6
CONTINUOUS
10
156.7
20
-78.3
11
156.3
21
-78.7
0
LINE
8
BLACK
6
CONTINUOUS
10
156.8
20
-31.3
11
157.2
21
-31.7
0
LINE
8
BLACK
6
CONTINUOUS
10
157.2
20
-31.3
11
156.8
21
-31.7
0
LINE
8
BLACK
6
CONTINUOUS
10
156.8
20
-91.3
11
157.2
21
-91.7
0
LINE
8
BLACK
6
CONTINUOUS
10
157.2
20
-91.3
11
156.8
21
-91.7
0
LINE
8
BLACK
6
CONTINUOUS
10
156.8
20
-108.3
11
157.2
21
-108.7
0
LINE
8
BLACK
6
CONTINUOUS
10
157.2
20
-108.3
11
156.8
21
-108.7
0
LINE
8
BLACK
6
CONTINUOUS
10
156.8
20
-127.8
11
157.2
21
-128.2
0
LINE
8
BLACK
6
CONTINUOUS
10
157.2
20
-127.8
11
156.8
21
-128.2
0
LINE
8
BLACK
6
CONTINUOUS
10
157.3
20
-76.8
11
157.7
21
-77.2
0
LINE
8
BLACK
6
CONTINUOUS
10
157.7
20
-76.8
11
157.3
21
-77.2
0
LINE
8
BLACK
6
CONTINUOUS
10
157.8
20
-58.8
11
158.2
21
-59.2
0
LINE
8
BLACK
6
CONTINUOUS
10
158.2
20
-58.8
11
157.8
21
-59.2
0
LINE
8
BLACK
6
CONTINUOUS
10
157.8
20
-60.8
11
158.2
21
-61.2
0
LINE
8
BLACK
6
CONTINUOUS
10
158.2
20
-60.8
11
157.8
21
-61.2
0
LINE
8
BLACK
6
CONTINUOUS
10
157.8
20
-62.8
11
158.2
21
-63.2
0
LINE
8
BLACK
6
CONTINUOUS
10
158.2
20
-62.8
11
157.8
21
-63.2
0
LINE
8
BLACK
6
CONTINUOUS
10
157.8
20
-64.8
11
158.2
21
-65.2
0
LINE
8
BLACK
6
CONTINUOUS
10
158.2
20
-64.8
11
157.8
21
-65.2
0
LINE
8
BLACK
6
CONTINUOUS
10
157.8
20
-66.8
11
158.2
21
-67.2
0
LINE
8
BLACK
6
CONTINUOUS
10
158.2
20
-66.8
11
157.8
21
-67.2
0
LINE
8
BLACK
6
CONTINUOUS
10
157.8
20
-68.8
11
158.2
21
-69.2
0
LINE
8
BLACK
6
CONTINUOUS
10
158.2
20
-68.8
11
157.8
21
-69.2
0
LINE
8
BLACK
6
CONTINUOUS
10
157.8
20
-70.8
11
158.2
21
-71.2
0
LINE
8
BLACK
6
CONTINUOUS
10
158.2
20
-70.8
11
157.8
21
-71.2
0
LINE
8
BLACK
6
CONTINUOUS
10
157.8
20
-72.8
11
158.2
21
-73.2
0
LINE
8
BLACK
6
CONTINUOUS
10
158.2
20
-72.8
11
157.8
21
-73.2
0
LINE
8
BLACK
6
CONTINUOUS
10
157.8
20
-74.8
11
158.2
21
-75.2
0
LINE
8
BLACK
6
CONTINUOUS
10
158.2
20
-74.8
11
157.8
21
-75.2
0
LINE
8
BLACK
6
CONTINUOUS
10
161.3
20
-31.3
11
161.7
21
-31.7
0
LINE
8
BLACK
6
CONTINUOUS
10
161.7
20
-31.3
11
161.3
21
-31.7
0
LINE
8
BLACK
6
CONTINUOUS
10
161.8
20
-108.3
11
162.2
21
-108.7
0
LINE
8
BLACK
6
CONTINUOUS
10
162.2
20
-108.3
11
161.8
21
-108.7
0
LINE
8
BLACK
6
CONTINUOUS
10
161.8
20
-127.8
11
162.2
21
-128.2
0
LINE
8
BLACK
6
CONTINUOUS
10
162.2
20
-127.8
11
161.8
21
-128.2
0
LINE
8
BLACK
6
CONTINUOUS
10
162.3
20
-41.3
11
162.7
21
-41.7
0
LINE
8
BLACK
6
CONTINUOUS
10
162.7
20
-41.3
11
162.3
21
-41.7
0
LINE
8
BLACK
6
CONTINUOUS
10
162.3
20
-46.3
11
162.7
21
-46.7
0
LINE
8
BLACK
6
CONTINUOUS
10
162.7
20
-46.3
11
162.3
21
-46.7
0
LINE
8
BLACK
6
CONTINUOUS
10
162.3
20
-51.3
11
162.7
21
-51.7
0
LINE
8
BLACK
6
CONTINUOUS
10
162.7
20
-51.3
11
162.3
21
-51.7
0
LINE
8
BLACK
6
CONTINUOUS
10
162.3
20
-56.3
11
162.7
21
-56.7
0
LINE
8
BLACK
6
CONTINUOUS
10
162.7
20
-56.3
11
162.3
21
-56.7
0
LINE
8
BLACK
6
CONTINUOUS
10
162.8
20
-61.3
11
163.2
21
-61.7
0
LINE
8
BLACK
6
CONTINUOUS
10
163.2
20
-61.3
11
162.8
21
-61.7
0
LINE
8
BLACK
6
CONTINUOUS
10
162.8
20
-66.3
11
163.2
21
-66.7
0
LINE
8
BLACK
6
CONTINUOUS
10
163.2
20
-66.3
11
162.8
21
-66.7
0
LINE
8
BLACK
6
CONTINUOUS
10
162.8
20
-91.3
11
163.2
21
-91.7
0
LINE
8
BLACK
6
CONTINUOUS
10
163.2
20
-91.3
11
162.8
21
-91.7
0
LINE
8
BLACK
6
CONTINUOUS
10
166.3
20
-31.3
11
166.7
21
-31.7
0
LINE
8
BLACK
6
CONTINUOUS
10
166.7
20
-31.3
11
166.3
21
-31.7
0
LINE
8
BLACK
6
CONTINUOUS
10
166.8
20
-108.3
11
167.2
21
-108.7
0
LINE
8
BLACK
6
CONTINUOUS
10
167.2
20
-108.3
11
166.8
21
-108.7
0
LINE
8
BLACK
6
CONTINUOUS
10
166.8
20
-127.8
11
167.2
21
-128.2
0
LINE
8
BLACK
6
CONTINUOUS
10
167.2
20
-127.8
11
166.8
21
-128.2
0
LINE
8
BLACK
6
CONTINUOUS
10
167.3
20
-41.3
11
167.7
21
-41.7
0
LINE
8
BLACK
6
CONTINUOUS
10
167.7
20
-41.3
11
167.3
21
-41.7
0
LINE
8
BLACK
6
CONTINUOUS
10
167.8
20
-66.3
11
168.2
21
-66.7
0
LINE
8
BLACK
6
CONTINUOUS
10
168.2
20
-66.3
11
167.8
21
-66.7
0
LINE
8
BLACK
6
CONTINUOUS
10
167.8
20
-91.3
11
168.2
21
-91.7
0
LINE
8
BLACK
6
CONTINUOUS
10
168.2
20
-91.3
11
167.8
21
-91.7
0
LINE
8
BLACK
6
CONTINUOUS
10
171.3
20
-31.3
11
171.7
21
-31.7
0
LINE
8
BLACK
6
CONTINUOUS
10
171.7
20
-31.3
11
171.3
21
-31.7
0
LINE
8
BLACK
6
CONTINUOUS
10
171.8
20
-127.8
11
172.2
21
-128.2
0
LINE
8
BLACK
6
CONTINUOUS
10
172.2
20
-127.8
11
171.8
21
-128.2
0
LINE
8
BLACK
6
CONTINUOUS
10
172.3
20
-41.3
11
172.7
21
-41.7
0
LINE
8
BLACK
6
CONTINUOUS
10
172.7
20
-41.3
11
172.3
21
-41.7
0
LINE
8
BLACK
6
CONTINUOUS
10
172.8
20
-66.3
11
173.2
21
-66.7
0
LINE
8
BLACK
6
CONTINUOUS
10
173.2
20
-66.3
11
172.8
21
-66.7
0
LINE
8
BLACK
6
CONTINUOUS
10
172.8
20
-91.3
11
173.2
21
-91.7
0
LINE
8
BLACK
6
CONTINUOUS
10
173.2
20
-91.3
11
172.8
21
-91.7
0
LINE
8
BLACK
6
CONTINUOUS
10
176.8
20
-127.8
11
177.2
21
-128.2
0
LINE
8
BLACK
6
CONTINUOUS
10
177.2
20
-127.8
11
176.8
21
-128.2
0
LINE
8
BLACK
6
CONTINUOUS
10
177.3
20
-41.3
11
177.7
21
-41.7
0
LINE
8
BLACK
6
CONTINUOUS
10
177.7
20
-41.3
11
177.3
21
-41.7
0
LINE
8
BLACK
6
CONTINUOUS
10
177.3
20
-46.3
11
177.7
21
-46.7
0
LINE
8
BLACK
6
CONTINUOUS
10
177.7
20
-46.3
11
177.3
21
-46.7
0
LINE
8
BLACK
6
CONTINUOUS
10
177.3
20
-51.3
11
177.7
21
-51.7
0
LINE
8
BLACK
6
CONTINUOUS
10
177.7
20
-51.3
11
177.3
21
-51.7
0
LINE
8
BLACK
6
CONTINUOUS
10
177.3
20
-56.3
11
177.7
21
-56.7
0
LINE
8
BLACK
6
CONTINUOUS
10
177.7
20
-56.3
11
177.3
21
-56.7
0
LINE
8
BLACK
6
CONTINUOUS
10
177.3
20
-61.3
11
177.7
21
-61.7
0
LINE
8
BLACK
6
CONTINUOUS
10
177.7
20
-61.3
11
177.3
21
-61.7
0
LINE
8
BLACK
6
CONTINUOUS
10
177.3
20
-66.3
11
177.7
21
-66.7
0
LINE
8
BLACK
6
CONTINUOUS
10
177.7
20
-66.3
11
177.3
21
-66.7
0
LINE
8
BLACK
6
CONTINUOUS
10
177.3
20
-81.3
11
177.7
21
-81.7
0
LINE
8
BLACK
6
CONTINUOUS
10
177.7
20
-81.3
11
177.3
21
-81.7
0
LINE
8
BLACK
6
CONTINUOUS
10
177.3
20
-86.3
11
177.7
21
-86.7
0
LINE
8
BLACK
6
CONTINUOUS
10
177.7
20
-86.3
11
177.3
21
-86.7
0
LINE
8
BLACK
6
CONTINUOUS
10
177.3
20
-91.3
11
177.7
21
-91.7
0
LINE
8
BLACK
6
CONTINUOUS
10
177.7
20
-91.3
11
177.3
21
-91.7
0
LINE
8
BLACK
6
CONTINUOUS
10
177.3
20
-96.3
11
177.7
21
-96.7
0
LINE
8
BLACK
6
CONTINUOUS
10
177.7
20
-96.3
11
177.3
21
-96.7
0
LINE
8
BLACK
6
CONTINUOUS
10
177.3
20
-101.3
11
177.7
21
-101.7
0
LINE
8
BLACK
6
CONTINUOUS
10
177.7
20
-101.3
11
177.3
21
-101.7
0
LINE
8
BLACK
6
CONTINUOUS
10
177.3
20
-106.3
11
177.7
21
-106.7
0
LINE
8
BLACK
6
CONTINUOUS
10
177.7
20
-106.3
11
177.3
21
-106.7
0
LINE
8
BLACK
6
CONTINUOUS
10
177.3
20
-111.3
11
177.7
21
-111.7
0
LINE
8
BLACK
6
CONTINUOUS
10
177.7
20
-111.3
11
177.3
21
-111.7
0
LINE
8
BLACK
6
CONTINUOUS
10
177.3
20
-116.3
11
177.7
21
-116.7
0
LINE
8
BLACK
6
CONTINUOUS
10
177.7
20
-116.3
11
177.3
21
-116.7
0
LINE
8
BLACK
6
CONTINUOUS
10
177.3
20
-121.3
11
177.7
21
-121.7
0
LINE
8
BLACK
6
CONTINUOUS
10
177.7
20
-121.3
11
177.3
21
-121.7
0
CIRCLE
8
BLACK
10
100.73
20
-41.02
40
0.595
0
CIRCLE
8
BLACK
10
103.27
20
-41.02
40
0.595
0
CIRCLE
8
BLACK
10
135.73
20
-41.02
40
0.595
0
CIRCLE
8
BLACK
10
138.27
20
-41.02
40
0.595
0
LINE
8
BLACK
6
CONTINUOUS
10
82.46
20
-74.8098
11
82.46
21
-76.1102
0
LINE
8
BLACK
6
CONTINUOUS
10
81.8098
20
-75.46
11
83.1102
21
-75.46
0
LINE
8
BLACK
6
CONTINUOUS
10
82.46
20
-79.8898
11
82.46
21
-81.1902
0
LINE
8
BLACK
6
CONTINUOUS
10
81.8098
20
-80.54
11
83.1102
21
-80.54
0
LINE
8
BLACK
6
CONTINUOUS
10
85
20
-77.3498
11
85
21
-78.6502
0
LINE
8
BLACK
6
CONTINUOUS
10
84.3498
20
-78
11
85.6502
21
-78
0
LINE
8
BLACK
6
CONTINUOUS
10
87.54
20
-74.8098
11
87.54
21
-76.1102
0
LINE
8
BLACK
6
CONTINUOUS
10
86.8898
20
-75.46
11
88.1902
21
-75.46
0
LINE
8
BLACK
6
CONTINUOUS
10
87.54
20
-79.8898
11
87.54
21
-81.1902
0
LINE
8
BLACK
6
CONTINUOUS
10
86.8898
20
-80.54
11
88.1902
21
-80.54
0
LINE
8
BLACK
6
CONTINUOUS
10
172.46
20
-69.6098
11
172.46
21
-70.9102
0
LINE
8
BLACK
6
CONTINUOUS
10
171.81
20
-70.26
11
173.11
21
-70.26
0
LINE
8
BLACK
6
CONTINUOUS
10
172.46
20
-74.6898
11
172.46
21
-75.9902
0
LINE
8
BLACK
6
CONTINUOUS
10
171.81
20
-75.34
11
173.11
21
-75.34
0
LINE
8
BLACK
6
CONTINUOUS
10
175
20
-72.1498
11
175
21
-73.4502
0
LINE
8
BLACK
6
CONTINUOUS
10
174.35
20
-72.8
11
175.65
21
-72.8
0
LINE
8
BLACK
6
CONTINUOUS
10
177.54
20
-69.6098
11
177.54
21
-70.9102
0
LINE
8
BLACK
6
CONTINUOUS
10
176.89
20
-70.26
11
178.19
21
-70.26
0
LINE
8
BLACK
6
CONTINUOUS
10
177.54
20
-74.6898
11
177.54
21
-75.9902
0
LINE
8
BLACK
6
CONTINUOUS
10
176.89
20
-75.34
11
178.19
21
-75.34
0
LINE
8
BLACK
6
CONTINUOUS
10
134.763
20
-77.7803
11
134.763
21
-76.7197
0
LINE
8
BLACK
6
CONTINUOUS
10
134.763
20
-76.7197
11
133.702
21
-76.7197
0
LINE
8
BLACK
6
CONTINUOUS
10
133.702
20
-76.7197
11
133.702
21
-77.7803
0
LINE
8
BLACK
6
CONTINUOUS
10
133.702
20
-77.7803
11
134.763
21
-77.7803
0
LINE
8
BLACK
6
CONTINUOUS
10
134.763
20
-81.7803
11
134.763
21
-80.7197
0
LINE
8
BLACK
6
CONTINUOUS
10
134.763
20
-80.7197
11
133.702
21
-80.7197
0
LINE
8
BLACK
6
CONTINUOUS
10
133.702
20
-80.7197
11
133.702
21
-81.7803
0
LINE
8
BLACK
6
CONTINUOUS
10
133.702
20
-81.7803
11
134.763
21
-81.7803
0
LINE
8
BLACK
6
CONTINUOUS
10
85
20
-36.6
11
86.6
21
-35
0
LINE
8
BLACK
6
CONTINUOUS
10
86.6
20
-35
11
85
21
-33.4
0
LINE
8
BLACK
6
CONTINUOUS
10
85
20
-33.4
11
83.4
21
-35
0
LINE
8
BLACK
6
CONTINUOUS
10
83.4
20
-35
11
85
21
-36.6
0
LINE
8
BLACK
6
CONTINUOUS
10
85
20
-107.6
11
86.6
21
-106
0
LINE
8
BLACK
6
CONTINUOUS
10
86.6
20
-106
11
85
21
-104.4
0
LINE
8
BLACK
6
CONTINUOUS
10
85
20
-104.4
11
83.4
21
-106
0
LINE
8
BLACK
6
CONTINUOUS
10
83.4
20
-106
11
85
21
-107.6
0
LINE
8
BLACK
6
CONTINUOUS
10
151
20
-50.6
11
152.6
21
-49
0
LINE
8
BLACK
6
CONTINUOUS
10
152.6
20
-49
11
151
21
-47.4
0
LINE
8
BLACK
6
CONTINUOUS
10
151
20
-47.4
11
149.4
21
-49
0
LINE
8
BLACK
6
CONTINUOUS
10
149.4
20
-49
11
151
21
-50.6
0
LINE
8
BLACK
6
CONTINUOUS
10
169
20
-50.6
11
170.6
21
-49
0
LINE
8
BLACK
6
CONTINUOUS
10
170.6
20
-49
11
169
21
-47.4
0
LINE
8
BLACK
6
CONTINUOUS
10
169
20
-47.4
11
167.4
21
-49
0
LINE
8
BLACK
6
CONTINUOUS
10
167.4
20
-49
11
169
21
-50.6
0
LINE
8
BLACK
6
CONTINUOUS
10
175
20
-36.6
11
176.6
21
-35
0
LINE
8
BLACK
6
CONTINUOUS
10
176.6
20
-35
11
175
21
-33.4
0
LINE
8
BLACK
6
CONTINUOUS
10
175
20
-33.4
11
173.4
21
-35
0
LINE
8
BLACK
6
CONTINUOUS
10
173.4
20
-35
11
175
21
-36.6
0
LINE
8
BLACK
6
CONTINUOUS
10
175
20
-107.6
11
176.6
21
-106
0
LINE
8
BLACK
6
CONTINUOUS
10
176.6
20
-106
11
175
21
-104.4
0
LINE
8
BLACK
6
CONTINUOUS
10
175
20
-104.4
11
173.4
21
-106
0
LINE
8
BLACK
6
CONTINUOUS
10
173.4
20
-106
11
175
21
-107.6
0
LINE
8
BLACK
6
CONTINUOUS
10
82.4262
20
-132.985
11
82.4262
21
-130.985
0
LINE
8
BLACK
6
CONTINUOUS
10
82.4262
20
-130.985
11
82.9024
21
-130.985
0
LINE
8
BLACK
6
CONTINUOUS
10
82.9024
20
-130.985
11
83.1881
21
-131.08
0
LINE
8
BLACK
6
CONTINUOUS
10
83.1881
20
-131.08
11
83.3786
21
-131.27
0
LINE
8
BLACK
6
CONTINUOUS
10
83.3786
20
-131.27
11
83.4738
21
-131.461
0
LINE
8
BLACK
6
CONTINUOUS
10
83.4738
20
-131.461
11
83.569
21
-131.842
0
LINE
8
BLACK
6
CONTINUOUS
10
83.569
20
-131.842
11
83.569
21
-132.128
0
LINE
8
BLACK
6
CONTINUOUS
10
83.569
20
-132.128
11
83.4738
21
-132.509
0
LINE
8
BLACK
6
CONTINUOUS
10
83.4738
20
-132.509
11
83.3786
21
-132.699
0
LINE
8
BLACK
6
CONTINUOUS
10
83.3786
20
-132.699
11
83.1881
21
-132.89
0
LINE
8
BLACK
6
CONTINUOUS
10
83.1881
20
-132.89
11
82.9024
21
-132.985
0
LINE
8
BLACK
6
CONTINUOUS
10
82.9024
20
-132.985
11
82.4262
21
-132.985
0
LINE
8
BLACK
6
CONTINUOUS
10
84.4262
20
-132.985
11
84.4262
21
-131.651
0
LINE
8
BLACK
6
CONTINUOUS
10
84.4262
20
-132.032
11
84.5214
21
-131.842
0
LINE
8
BLACK
6
CONTINUOUS
10
84.5214
20
-131.842
11
84.6167
21
-131.747
0
LINE
8
BLACK
6
CONTINUOUS
10
84.6167
20
-131.747
11
84.8071
21
-131.651
0
LINE
8
BLACK
6
CONTINUOUS
10
84.8071
20
-131.651
11
84.9976
21
-131.651
0
LINE
8
BLACK
6
CONTINUOUS
10
85.6643
20
-132.985
11
85.6643
21
-131.651
0
LINE
8
BLACK
6
CONTINUOUS
10
85.6643
20
-130.985
11
85.569
21
-131.08
0
LINE
8
BLACK
6
CONTINUOUS
10
85.569
20
-131.08
11
85.6643
21
-131.175
0
LINE
8
BLACK
6
CONTINUOUS
10
85.6643
20
-131.175
11
85.7595
21
-131.08
0
LINE
8
BLACK
6
CONTINUOUS
10
85.7595
20
-131.08
11
85.6643
21
-130.985
0
LINE
8
BLACK
6
CONTINUOUS
10
85.6643
20
-130.985
11
85.6643
21
-131.175
0
LINE
8
BLACK
6
CONTINUOUS
10
86.9024
20
-132.985
11
86.7119
21
-132.89
0
LINE
8
BLACK
6
CONTINUOUS
10
86.7119
20
-132.89
11
86.6167
21
-132.699
0
LINE
8
BLACK
6
CONTINUOUS
10
86.6167
20
-132.699
11
86.6167
21
-130.985
0
LINE
8
BLACK
6
CONTINUOUS
10
87.95
20
-132.985
11
87.7595
21
-132.89
0
LINE
8
BLACK
6
CONTINUOUS
10
87.7595
20
-132.89
11
87.6643
21
-132.699
0
LINE
8
BLACK
6
CONTINUOUS
10
87.6643
20
-132.699
11
87.6643
21
-130.985
0
LINE
8
BLACK
6
CONTINUOUS
10
89.9119
20
-132.985
11
89.9119
21
-130.985
0
LINE
8
BLACK
6
CONTINUOUS
10
89.9119
20
-130.985
11
90.5786
21
-132.413
0
LINE
8
BLACK
6
CONTINUOUS
10
90.5786
20
-132.413
11
91.2452
21
-130.985
0
LINE
8
BLACK
6
CONTINUOUS
10
91.2452
20
-130.985
11
91.2452
21
-132.985
0
LINE
8
BLACK
6
CONTINUOUS
10
93.0548
20
-132.985
11
93.0548
21
-131.937
0
LINE
8
BLACK
6
CONTINUOUS
10
93.0548
20
-131.937
11
92.9595
21
-131.747
0
LINE
8
BLACK
6
CONTINUOUS
10
92.9595
20
-131.747
11
92.769
21
-131.651
0
LINE
8
BLACK
6
CONTINUOUS
10
92.769
20
-131.651
11
92.3881
21
-131.651
0
LINE
8
BLACK
6
CONTINUOUS
10
92.3881
20
-131.651
11
92.1976
21
-131.747
0
LINE
8
BLACK
6
CONTINUOUS
10
93.0548
20
-132.89
11
92.8643
21
-132.985
0
LINE
8
BLACK
6
CONTINUOUS
10
92.8643
20
-132.985
11
92.3881
21
-132.985
0
LINE
8
BLACK
6
CONTINUOUS
10
92.3881
20
-132.985
11
92.1976
21
-132.89
0
LINE
8
BLACK
6
CONTINUOUS
10
92.1976
20
-132.89
11
92.1024
21
-132.699
0
LINE
8
BLACK
6
CONTINUOUS
10
92.1024
20
-132.699
11
92.1024
21
-132.509
0
LINE
8
BLACK
6
CONTINUOUS
10
92.1024
20
-132.509
11
92.1976
21
-132.318
0
LINE
8
BLACK
6
CONTINUOUS
10
92.1976
20
-132.318
11
92.3881
21
-132.223
0
LINE
8
BLACK
6
CONTINUOUS
10
92.3881
20
-132.223
11
92.8643
21
-132.223
0
LINE
8
BLACK
6
CONTINUOUS
10
92.8643
20
-132.223
11
93.0548
21
-132.128
0
LINE
8
BLACK
6
CONTINUOUS
10
94.0071
20
-131.651
11
94.0071
21
-133.651
0
LINE
8
BLACK
6
CONTINUOUS
10
94.0071
20
-131.747
11
94.1976
21
-131.651
0
LINE
8
BLACK
6
CONTINUOUS
10
94.1976
20
-131.651
11
94.5786
21
-131.651
0
LINE
8
BLACK
6
CONTINUOUS
10
94.5786
20
-131.651
11
94.769
21
-131.747
0
LINE
8
BLACK
6
CONTINUOUS
10
94.769
20
-131.747
11
94.8643
21
-131.842
0
LINE
8
BLACK
6
CONTINUOUS
10
94.8643
20
-131.842
11
94.9595
21
-132.032
0
LINE
8
BLACK
6
CONTINUOUS
10
94.9595
20
-132.032
11
94.9595
21
-132.604
0
LINE
8
BLACK
6
CONTINUOUS
10
94.9595
20
-132.604
11
94.8643
21
-132.794
0
LINE
8
BLACK
6
CONTINUOUS
10
94.8643
20
-132.794
11
94.769
21
-132.89
0
LINE
8
BLACK
6
CONTINUOUS
10
94.769
20
-132.89
11
94.5786
21
-132.985
0
LINE
8
BLACK
6
CONTINUOUS
10
94.5786
20
-132.985
11
94.1976
21
-132.985
0
LINE
8
BLACK
6
CONTINUOUS
10
94.1976
20
-132.985
11
94.0071
21
-132.89
0
LINE
8
BLACK
6
CONTINUOUS
10
95.8167
20
-132.794
11
95.9119
21
-132.89
0
LINE
8
BLACK
6
CONTINUOUS
10
95.9119
20
-132.89
11
95.8167
21
-132.985
0
LINE
8
BLACK
6
CONTINUOUS
10
95.8167
20
-132.985
11
95.7214
21
-132.89
0
LINE
8
BLACK
6
CONTINUOUS
10
95.7214
20
-132.89
11
95.8167
21
-132.794
0
LINE
8
BLACK
6
CONTINUOUS
10
95.8167
20
-132.794
11
95.8167
21
-132.985
0
LINE
8
BLACK
6
CONTINUOUS
10
95.8167
20
-131.747
11
95.9119
21
-131.842
0
LINE
8
BLACK
6
CONTINUOUS
10
95.9119
20
-131.842
11
95.8167
21
-131.937
0
LINE
8
BLACK
6
CONTINUOUS
10
95.8167
20
-131.937
11
95.7214
21
-131.842
0
LINE
8
BLACK
6
CONTINUOUS
10
95.7214
20
-131.842
11
95.8167
21
-131.747
0
LINE
8
BLACK
6
CONTINUOUS
10
95.8167
20
-131.747
11
95.8167
21
-131.937
0
LINE
8
BLACK
6
CONTINUOUS
10
79.55
20
-136.25
11
79.95
21
-136.65
0
LINE
8
BLACK
6
CONTINUOUS
10
79.95
20
-136.25
11
79.55
21
-136.65
0
LINE
8
BLACK
6
CONTINUOUS
10
82.8071
20
-135.185
11
82.9976
21
-135.185
0
LINE
8
BLACK
6
CONTINUOUS
10
82.9976
20
-135.185
11
83.1881
21
-135.28
0
LINE
8
BLACK
6
CONTINUOUS
10
83.1881
20
-135.28
11
83.2833
21
-135.375
0
LINE
8
BLACK
6
CONTINUOUS
10
83.2833
20
-135.375
11
83.3786
21
-135.566
0
LINE
8
BLACK
6
CONTINUOUS
10
83.3786
20
-135.566
11
83.4738
21
-135.947
0
LINE
8
BLACK
6
CONTINUOUS
10
83.4738
20
-135.947
11
83.4738
21
-136.423
0
LINE
8
BLACK
6
CONTINUOUS
10
83.4738
20
-136.423
11
83.3786
21
-136.804
0
LINE
8
BLACK
6
CONTINUOUS
10
83.3786
20
-136.804
11
83.2833
21
-136.994
0
LINE
8
BLACK
6
CONTINUOUS
10
83.2833
20
-136.994
11
83.1881
21
-137.09
0
LINE
8
BLACK
6
CONTINUOUS
10
83.1881
20
-137.09
11
82.9976
21
-137.185
0
LINE
8
BLACK
6
CONTINUOUS
10
82.9976
20
-137.185
11
82.8071
21
-137.185
0
LINE
8
BLACK
6
CONTINUOUS
10
82.8071
20
-137.185
11
82.6167
21
-137.09
0
LINE
8
BLACK
6
CONTINUOUS
10
82.6167
20
-137.09
11
82.5214
21
-136.994
0
LINE
8
BLACK
6
CONTINUOUS
10
82.5214
20
-136.994
11
82.4262
21
-136.804
0
LINE
8
BLACK
6
CONTINUOUS
10
82.4262
20
-136.804
11
82.331
21
-136.423
0
LINE
8
BLACK
6
CONTINUOUS
10
82.331
20
-136.423
11
82.331
21
-135.947
0
LINE
8
BLACK
6
CONTINUOUS
10
82.331
20
-135.947
11
82.4262
21
-135.566
0
LINE
8
BLACK
6
CONTINUOUS
10
82.4262
20
-135.566
11
82.5214
21
-135.375
0
LINE
8
BLACK
6
CONTINUOUS
10
82.5214
20
-135.375
11
82.6167
21
-135.28
0
LINE
8
BLACK
6
CONTINUOUS
10
82.6167
20
-135.28
11
82.8071
21
-135.185
0
LINE
8
BLACK
6
CONTINUOUS
10
84.331
20
-136.994
11
84.4262
21
-137.09
0
LINE
8
BLACK
6
CONTINUOUS
10
84.4262
20
-137.09
11
84.331
21
-137.185
0
LINE
8
BLACK
6
CONTINUOUS
10
84.331
20
-137.185
11
84.2357
21
-137.09
0
LINE
8
BLACK
6
CONTINUOUS
10
84.2357
20
-137.09
11
84.331
21
-136.994
0
LINE
8
BLACK
6
CONTINUOUS
10
84.331
20
-136.994
11
84.331
21
-137.185
0
LINE
8
BLACK
6
CONTINUOUS
10
86.1405
20
-135.851
11
86.1405
21
-137.185
0
LINE
8
BLACK
6
CONTINUOUS
10
85.6643
20
-135.09
11
85.1881
21
-136.518
0
LINE
8
BLACK
6
CONTINUOUS
10
85.1881
20
-136.518
11
86.4262
21
-136.518
0
LINE
8
BLACK
6
CONTINUOUS
10
87.569
20
-135.185
11
87.7595
21
-135.185
0
LINE
8
BLACK
6
CONTINUOUS
10
87.7595
20
-135.185
11
87.95
21
-135.28
0
LINE
8
BLACK
6
CONTINUOUS
10
87.95
20
-135.28
11
88.0452
21
-135.375
0
LINE
8
BLACK
6
CONTINUOUS
10
88.0452
20
-135.375
11
88.1405
21
-135.566
0
LINE
8
BLACK
6
CONTINUOUS
10
88.1405
20
-135.566
11
88.2357
21
-135.947
0
LINE
8
BLACK
6
CONTINUOUS
10
88.2357
20
-135.947
11
88.2357
21
-136.423
0
LINE
8
BLACK
6
CONTINUOUS
10
88.2357
20
-136.423
11
88.1405
21
-136.804
0
LINE
8
BLACK
6
CONTINUOUS
10
88.1405
20
-136.804
11
88.0452
21
-136.994
0
LINE
8
BLACK
6
CONTINUOUS
10
88.0452
20
-136.994
11
87.95
21
-137.09
0
LINE
8
BLACK
6
CONTINUOUS
10
87.95
20
-137.09
11
87.7595
21
-137.185
0
LINE
8
BLACK
6
CONTINUOUS
10
87.7595
20
-137.185
11
87.569
21
-137.185
0
LINE
8
BLACK
6
CONTINUOUS
10
87.569
20
-137.185
11
87.3786
21
-137.09
0
LINE
8
BLACK
6
CONTINUOUS
10
87.3786
20
-137.09
11
87.2833
21
-136.994
0
LINE
8
BLACK
6
CONTINUOUS
10
87.2833
20
-136.994
11
87.1881
21
-136.804
0
LINE
8
BLACK
6
CONTINUOUS
10
87.1881
20
-136.804
11
87.0929
21
-136.423
0
LINE
8
BLACK
6
CONTINUOUS
10
87.0929
20
-136.423
11
87.0929
21
-135.947
0
LINE
8
BLACK
6
CONTINUOUS
10
87.0929
20
-135.947
11
87.1881
21
-135.566
0
LINE
8
BLACK
6
CONTINUOUS
10
87.1881
20
-135.566
11
87.2833
21
-135.375
0
LINE
8
BLACK
6
CONTINUOUS
10
87.2833
20
-135.375
11
87.3786
21
-135.28
0
LINE
8
BLACK
6
CONTINUOUS
10
87.3786
20
-135.28
11
87.569
21
-135.185
0
LINE
8
BLACK
6
CONTINUOUS
10
89.4738
20
-135.185
11
89.6643
21
-135.185
0
LINE
8
BLACK
6
CONTINUOUS
10
89.6643
20
-135.185
11
89.8548
21
-135.28
0
LINE
8
BLACK
6
CONTINUOUS
10
89.8548
20
-135.28
11
89.95
21
-135.375
0
LINE
8
BLACK
6
CONTINUOUS
10
89.95
20
-135.375
11
90.0452
21
-135.566
0
LINE
8
BLACK
6
CONTINUOUS
10
90.0452
20
-135.566
11
90.1405
21
-135.947
0
LINE
8
BLACK
6
CONTINUOUS
10
90.1405
20
-135.947
11
90.1405
21
-136.423
0
LINE
8
BLACK
6
CONTINUOUS
10
90.1405
20
-136.423
11
90.0452
21
-136.804
0
LINE
8
BLACK
6
CONTINUOUS
10
90.0452
20
-136.804
11
89.95
21
-136.994
0
LINE
8
BLACK
6
CONTINUOUS
10
89.95
20
-136.994
11
89.8548
21
-137.09
0
LINE
8
BLACK
6
CONTINUOUS
10
89.8548
20
-137.09
11
89.6643
21
-137.185
0
LINE
8
BLACK
6
CONTINUOUS
10
89.6643
20
-137.185
11
89.4738
21
-137.185
0
LINE
8
BLACK
6
CONTINUOUS
10
89.4738
20
-137.185
11
89.2833
21
-137.09
0
LINE
8
BLACK
6
CONTINUOUS
10
89.2833
20
-137.09
11
89.1881
21
-136.994
0
LINE
8
BLACK
6
CONTINUOUS
10
89.1881
20
-136.994
11
89.0929
21
-136.804
0
LINE
8
BLACK
6
CONTINUOUS
10
89.0929
20
-136.804
11
88.9976
21
-136.423
0
LINE
8
BLACK
6
CONTINUOUS
10
88.9976
20
-136.423
11
88.9976
21
-135.947
0
LINE
8
BLACK
6
CONTINUOUS
10
88.9976
20
-135.947
11
89.0929
21
-135.566
0
LINE
8
BLACK
6
CONTINUOUS
10
89.0929
20
-135.566
11
89.1881
21
-135.375
0
LINE
8
BLACK
6
CONTINUOUS
10
89.1881
20
-135.375
11
89.2833
21
-135.28
0
LINE
8
BLACK
6
CONTINUOUS
10
89.2833
20
-135.28
11
89.4738
21
-135.185
0
LINE
8
BLACK
6
CONTINUOUS
10
90.9976
20
-137.185
11
90.9976
21
-135.851
0
LINE
8
BLACK
6
CONTINUOUS
10
90.9976
20
-136.042
11
91.0929
21
-135.947
0
LINE
8
BLACK
6
CONTINUOUS
10
91.0929
20
-135.947
11
91.2833
21
-135.851
0
LINE
8
BLACK
6
CONTINUOUS
10
91.2833
20
-135.851
11
91.569
21
-135.851
0
LINE
8
BLACK
6
CONTINUOUS
10
91.569
20
-135.851
11
91.7595
21
-135.947
0
LINE
8
BLACK
6
CONTINUOUS
10
91.7595
20
-135.947
11
91.8548
21
-136.137
0
LINE
8
BLACK
6
CONTINUOUS
10
91.8548
20
-136.137
11
91.8548
21
-137.185
0
LINE
8
BLACK
6
CONTINUOUS
10
91.8548
20
-136.137
11
91.95
21
-135.947
0
LINE
8
BLACK
6
CONTINUOUS
10
91.95
20
-135.947
11
92.1405
21
-135.851
0
LINE
8
BLACK
6
CONTINUOUS
10
92.1405
20
-135.851
11
92.4262
21
-135.851
0
LINE
8
BLACK
6
CONTINUOUS
10
92.4262
20
-135.851
11
92.6167
21
-135.947
0
LINE
8
BLACK
6
CONTINUOUS
10
92.6167
20
-135.947
11
92.7119
21
-136.137
0
LINE
8
BLACK
6
CONTINUOUS
10
92.7119
20
-136.137
11
92.7119
21
-137.185
0
LINE
8
BLACK
6
CONTINUOUS
10
93.6643
20
-137.185
11
93.6643
21
-135.851
0
LINE
8
BLACK
6
CONTINUOUS
10
93.6643
20
-136.042
11
93.7595
21
-135.947
0
LINE
8
BLACK
6
CONTINUOUS
10
93.7595
20
-135.947
11
93.95
21
-135.851
0
LINE
8
BLACK
6
CONTINUOUS
10
93.95
20
-135.851
11
94.2357
21
-135.851
0
LINE
8
BLACK
6
CONTINUOUS
10
94.2357
20
-135.851
11
94.4262
21
-135.947
0
LINE
8
BLACK
6
CONTINUOUS
10
94.4262
20
-135.947
11
94.5214
21
-136.137
0
LINE
8
BLACK
6
CONTINUOUS
10
94.5214
20
-136.137
11
94.5214
21
-137.185
0
LINE
8
BLACK
6
CONTINUOUS
10
94.5214
20
-136.137
11
94.6167
21
-135.947
0
LINE
8
BLACK
6
CONTINUOUS
10
94.6167
20
-135.947
11
94.8071
21
-135.851
0
LINE
8
BLACK
6
CONTINUOUS
10
94.8071
20
-135.851
11
95.0929
21
-135.851
0
LINE
8
BLACK
6
CONTINUOUS
10
95.0929
20
-135.851
11
95.2833
21
-135.947
0
LINE
8
BLACK
6
CONTINUOUS
10
95.2833
20
-135.947
11
95.3786
21
-136.137
0
LINE
8
BLACK
6
CONTINUOUS
10
95.3786
20
-136.137
11
95.3786
21
-137.185
0
LINE
8
BLACK
6
CONTINUOUS
10
98.9595
20
-135.09
11
97.2452
21
-137.661
0
LINE
8
BLACK
6
CONTINUOUS
10
101.207
20
-135.185
11
101.398
21
-135.185
0
LINE
8
BLACK
6
CONTINUOUS
10
101.398
20
-135.185
11
101.588
21
-135.28
0
LINE
8
BLACK
6
CONTINUOUS
10
101.588
20
-135.28
11
101.683
21
-135.375
0
LINE
8
BLACK
6
CONTINUOUS
10
101.683
20
-135.375
11
101.779
21
-135.566
0
LINE
8
BLACK
6
CONTINUOUS
10
101.779
20
-135.566
11
101.874
21
-135.947
0
LINE
8
BLACK
6
CONTINUOUS
10
101.874
20
-135.947
11
101.874
21
-136.423
0
LINE
8
BLACK
6
CONTINUOUS
10
101.874
20
-136.423
11
101.779
21
-136.804
0
LINE
8
BLACK
6
CONTINUOUS
10
101.779
20
-136.804
11
101.683
21
-136.994
0
LINE
8
BLACK
6
CONTINUOUS
10
101.683
20
-136.994
11
101.588
21
-137.09
0
LINE
8
BLACK
6
CONTINUOUS
10
101.588
20
-137.09
11
101.398
21
-137.185
0
LINE
8
BLACK
6
CONTINUOUS
10
101.398
20
-137.185
11
101.207
21
-137.185
0
LINE
8
BLACK
6
CONTINUOUS
10
101.207
20
-137.185
11
101.017
21
-137.09
0
LINE
8
BLACK
6
CONTINUOUS
10
101.017
20
-137.09
11
100.921
21
-136.994
0
LINE
8
BLACK
6
CONTINUOUS
10
100.921
20
-136.994
11
100.826
21
-136.804
0
LINE
8
BLACK
6
CONTINUOUS
10
100.826
20
-136.804
11
100.731
21
-136.423
0
LINE
8
BLACK
6
CONTINUOUS
10
100.731
20
-136.423
11
100.731
21
-135.947
0
LINE
8
BLACK
6
CONTINUOUS
10
100.731
20
-135.947
11
100.826
21
-135.566
0
LINE
8
BLACK
6
CONTINUOUS
10
100.826
20
-135.566
11
100.921
21
-135.375
0
LINE
8
BLACK
6
CONTINUOUS
10
100.921
20
-135.375
11
101.017
21
-135.28
0
LINE
8
BLACK
6
CONTINUOUS
10
101.017
20
-135.28
11
101.207
21
-135.185
0
LINE
8
BLACK
6
CONTINUOUS
10
102.731
20
-136.994
11
102.826
21
-137.09
0
LINE
8
BLACK
6
CONTINUOUS
10
102.826
20
-137.09
11
102.731
21
-137.185
0
LINE
8
BLACK
6
CONTINUOUS
10
102.731
20
-137.185
11
102.636
21
-137.09
0
LINE
8
BLACK
6
CONTINUOUS
10
102.636
20
-137.09
11
102.731
21
-136.994
0
LINE
8
BLACK
6
CONTINUOUS
10
102.731
20
-136.994
11
102.731
21
-137.185
0
LINE
8
BLACK
6
CONTINUOUS
10
104.064
20
-135.185
11
104.255
21
-135.185
0
LINE
8
BLACK
6
CONTINUOUS
10
104.255
20
-135.185
11
104.445
21
-135.28
0
LINE
8
BLACK
6
CONTINUOUS
10
104.445
20
-135.28
11
104.54
21
-135.375
0
LINE
8
BLACK
6
CONTINUOUS
10
104.54
20
-135.375
11
104.636
21
-135.566
0
LINE
8
BLACK
6
CONTINUOUS
10
104.636
20
-135.566
11
104.731
21
-135.947
0
LINE
8
BLACK
6
CONTINUOUS
10
104.731
20
-135.947
11
104.731
21
-136.423
0
LINE
8
BLACK
6
CONTINUOUS
10
104.731
20
-136.423
11
104.636
21
-136.804
0
LINE
8
BLACK
6
CONTINUOUS
10
104.636
20
-136.804
11
104.54
21
-136.994
0
LINE
8
BLACK
6
CONTINUOUS
10
104.54
20
-136.994
11
104.445
21
-137.09
0
LINE
8
BLACK
6
CONTINUOUS
10
104.445
20
-137.09
11
104.255
21
-137.185
0
LINE
8
BLACK
6
CONTINUOUS
10
104.255
20
-137.185
11
104.064
21
-137.185
0
LINE
8
BLACK
6
CONTINUOUS
10
104.064
20
-137.185
11
103.874
21
-137.09
0
LINE
8
BLACK
6
CONTINUOUS
10
103.874
20
-137.09
11
103.779
21
-136.994
0
LINE
8
BLACK
6
CONTINUOUS
10
103.779
20
-136.994
11
103.683
21
-136.804
0
LINE
8
BLACK
6
CONTINUOUS
10
103.683
20
-136.804
11
103.588
21
-136.423
0
LINE
8
BLACK
6
CONTINUOUS
10
103.588
20
-136.423
11
103.588
21
-135.947
0
LINE
8
BLACK
6
CONTINUOUS
10
103.588
20
-135.947
11
103.683
21
-135.566
0
LINE
8
BLACK
6
CONTINUOUS
10
103.683
20
-135.566
11
103.779
21
-135.375
0
LINE
8
BLACK
6
CONTINUOUS
10
103.779
20
-135.375
11
103.874
21
-135.28
0
LINE
8
BLACK
6
CONTINUOUS
10
103.874
20
-135.28
11
104.064
21
-135.185
0
LINE
8
BLACK
6
CONTINUOUS
10
106.636
20
-137.185
11
105.493
21
-137.185
0
LINE
8
BLACK
6
CONTINUOUS
10
106.064
20
-137.185
11
106.064
21
-135.185
0
LINE
8
BLACK
6
CONTINUOUS
10
106.064
20
-135.185
11
105.874
21
-135.47
0
LINE
8
BLACK
6
CONTINUOUS
10
105.874
20
-135.47
11
105.683
21
-135.661
0
LINE
8
BLACK
6
CONTINUOUS
10
105.683
20
-135.661
11
105.493
21
-135.756
0
LINE
8
BLACK
6
CONTINUOUS
10
108.445
20
-135.185
11
107.493
21
-135.185
0
LINE
8
BLACK
6
CONTINUOUS
10
107.493
20
-135.185
11
107.398
21
-136.137
0
LINE
8
BLACK
6
CONTINUOUS
10
107.398
20
-136.137
11
107.493
21
-136.042
0
LINE
8
BLACK
6
CONTINUOUS
10
107.493
20
-136.042
11
107.683
21
-135.947
0
LINE
8
BLACK
6
CONTINUOUS
10
107.683
20
-135.947
11
108.16
21
-135.947
0
LINE
8
BLACK
6
CONTINUOUS
10
108.16
20
-135.947
11
108.35
21
-136.042
0
LINE
8
BLACK
6
CONTINUOUS
10
108.35
20
-136.042
11
108.445
21
-136.137
0
LINE
8
BLACK
6
CONTINUOUS
10
108.445
20
-136.137
11
108.54
21
-136.328
0
LINE
8
BLACK
6
CONTINUOUS
10
108.54
20
-136.328
11
108.54
21
-136.804
0
LINE
8
BLACK
6
CONTINUOUS
10
108.54
20
-136.804
11
108.445
21
-136.994
0
LINE
8
BLACK
6
CONTINUOUS
10
108.445
20
-136.994
11
108.35
21
-137.09
0
LINE
8
BLACK
6
CONTINUOUS
10
108.35
20
-137.09
11
108.16
21
-137.185
0
LINE
8
BLACK
6
CONTINUOUS
10
108.16
20
-137.185
11
107.683
21
-137.185
0
LINE
8
BLACK
6
CONTINUOUS
10
107.683
20
-137.185
11
107.493
21
-137.09
0
LINE
8
BLACK
6
CONTINUOUS
10
107.493
20
-137.09
11
107.398
21
-136.994
0
LINE
8
BLACK
6
CONTINUOUS
10
109.207
20
-135.185
11
110.54
21
-135.185
0
LINE
8
BLACK
6
CONTINUOUS
10
110.54
20
-135.185
11
109.683
21
-137.185
0
LINE
8
BLACK
6
CONTINUOUS
10
111.207
20
-135.185
11
111.207
21
-135.566
0
LINE
8
BLACK
6
CONTINUOUS
10
111.969
20
-135.185
11
111.969
21
-135.566
0
LINE
8
BLACK
6
CONTINUOUS
10
114.598
20
-137.947
11
114.502
21
-137.851
0
LINE
8
BLACK
6
CONTINUOUS
10
114.502
20
-137.851
11
114.312
21
-137.566
0
LINE
8
BLACK
6
CONTINUOUS
10
114.312
20
-137.566
11
114.217
21
-137.375
0
LINE
8
BLACK
6
CONTINUOUS
10
114.217
20
-137.375
11
114.121
21
-137.09
0
LINE
8
BLACK
6
CONTINUOUS
10
114.121
20
-137.09
11
114.026
21
-136.613
0
LINE
8
BLACK
6
CONTINUOUS
10
114.026
20
-136.613
11
114.026
21
-136.232
0
LINE
8
BLACK
6
CONTINUOUS
10
114.026
20
-136.232
11
114.121
21
-135.756
0
LINE
8
BLACK
6
CONTINUOUS
10
114.121
20
-135.756
11
114.217
21
-135.47
0
LINE
8
BLACK
6
CONTINUOUS
10
114.217
20
-135.47
11
114.312
21
-135.28
0
LINE
8
BLACK
6
CONTINUOUS
10
114.312
20
-135.28
11
114.502
21
-134.994
0
LINE
8
BLACK
6
CONTINUOUS
10
114.502
20
-134.994
11
114.598
21
-134.899
0
LINE
8
BLACK
6
CONTINUOUS
10
116.407
20
-137.185
11
115.264
21
-137.185
0
LINE
8
BLACK
6
CONTINUOUS
10
115.836
20
-137.185
11
115.836
21
-135.185
0
LINE
8
BLACK
6
CONTINUOUS
10
115.836
20
-135.185
11
115.645
21
-135.47
0
LINE
8
BLACK
6
CONTINUOUS
10
115.645
20
-135.47
11
115.455
21
-135.661
0
LINE
8
BLACK
6
CONTINUOUS
10
115.455
20
-135.661
11
115.264
21
-135.756
0
LINE
8
BLACK
6
CONTINUOUS
10
117.55
20
-136.042
11
117.36
21
-135.947
0
LINE
8
BLACK
6
CONTINUOUS
10
117.36
20
-135.947
11
117.264
21
-135.851
0
LINE
8
BLACK
6
CONTINUOUS
10
117.264
20
-135.851
11
117.169
21
-135.661
0
LINE
8
BLACK
6
CONTINUOUS
10
117.169
20
-135.661
11
117.169
21
-135.566
0
LINE
8
BLACK
6
CONTINUOUS
10
117.169
20
-135.566
11
117.264
21
-135.375
0
LINE
8
BLACK
6
CONTINUOUS
10
117.264
20
-135.375
11
117.36
21
-135.28
0
LINE
8
BLACK
6
CONTINUOUS
10
117.36
20
-135.28
11
117.55
21
-135.185
0
LINE
8
BLACK
6
CONTINUOUS
10
117.55
20
-135.185
11
117.931
21
-135.185
0
LINE
8
BLACK
6
CONTINUOUS
10
117.931
20
-135.185
11
118.121
21
-135.28
0
LINE
8
BLACK
6
CONTINUOUS
10
118.121
20
-135.28
11
118.217
21
-135.375
0
LINE
8
BLACK
6
CONTINUOUS
10
118.217
20
-135.375
11
118.312
21
-135.566
0
LINE
8
BLACK
6
CONTINUOUS
10
118.312
20
-135.566
11
118.312
21
-135.661
0
LINE
8
BLACK
6
CONTINUOUS
10
118.312
20
-135.661
11
118.217
21
-135.851
0
LINE
8
BLACK
6
CONTINUOUS
10
118.217
20
-135.851
11
118.121
21
-135.947
0
LINE
8
BLACK
6
CONTINUOUS
10
118.121
20
-135.947
11
117.931
21
-136.042
0
LINE
8
BLACK
6
CONTINUOUS
10
117.931
20
-136.042
11
117.55
21
-136.042
0
LINE
8
BLACK
6
CONTINUOUS
10
117.55
20
-136.042
11
117.36
21
-136.137
0
LINE
8
BLACK
6
CONTINUOUS
10
117.36
20
-136.137
11
117.264
21
-136.232
0
LINE
8
BLACK
6
CONTINUOUS
10
117.264
20
-136.232
11
117.169
21
-136.423
0
LINE
8
BLACK
6
CONTINUOUS
10
117.169
20
-136.423
11
117.169
21
-136.804
0
LINE
8
BLACK
6
CONTINUOUS
10
117.169
20
-136.804
11
117.264
21
-136.994
0
LINE
8
BLACK
6
CONTINUOUS
10
117.264
20
-136.994
11
117.36
21
-137.09
0
LINE
8
BLACK
6
CONTINUOUS
10
117.36
20
-137.09
11
117.55
21
-137.185
0
LINE
8
BLACK
6
CONTINUOUS
10
117.55
20
-137.185
11
117.931
21
-137.185
0
LINE
8
BLACK
6
CONTINUOUS
10
117.931
20
-137.185
11
118.121
21
-137.09
0
LINE
8
BLACK
6
CONTINUOUS
10
118.121
20
-137.09
11
118.217
21
-136.994
0
LINE
8
BLACK
6
CONTINUOUS
10
118.217
20
-136.994
11
118.312
21
-136.804
0
LINE
8
BLACK
6
CONTINUOUS
10
118.312
20
-136.804
11
118.312
21
-136.423
0
LINE
8
BLACK
6
CONTINUOUS
10
118.312
20
-136.423
11
118.217
21
-136.232
0
LINE
8
BLACK
6
CONTINUOUS
10
118.217
20
-136.232
11
118.121
21
-136.137
0
LINE
8
BLACK
6
CONTINUOUS
10
118.121
20
-136.137
11
117.931
21
-136.042
0
LINE
8
BLACK
6
CONTINUOUS
10
120.121
20
-135.185
11
119.169
21
-135.185
0
LINE
8
BLACK
6
CONTINUOUS
10
119.169
20
-135.185
11
119.074
21
-136.137
0
LINE
8
BLACK
6
CONTINUOUS
10
119.074
20
-136.137
11
119.169
21
-136.042
0
LINE
8
BLACK
6
CONTINUOUS
10
119.169
20
-136.042
11
119.36
21
-135.947
0
LINE
8
BLACK
6
CONTINUOUS
10
119.36
20
-135.947
11
119.836
21
-135.947
0
LINE
8
BLACK
6
CONTINUOUS
10
119.836
20
-135.947
11
120.026
21
-136.042
0
LINE
8
BLACK
6
CONTINUOUS
10
120.026
20
-136.042
11
120.121
21
-136.137
0
LINE
8
BLACK
6
CONTINUOUS
10
120.121
20
-136.137
11
120.217
21
-136.328
0
LINE
8
BLACK
6
CONTINUOUS
10
120.217
20
-136.328
11
120.217
21
-136.804
0
LINE
8
BLACK
6
CONTINUOUS
10
120.217
20
-136.804
11
120.121
21
-136.994
0
LINE
8
BLACK
6
CONTINUOUS
10
120.121
20
-136.994
11
120.026
21
-137.09
0
LINE
8
BLACK
6
CONTINUOUS
10
120.026
20
-137.09
11
119.836
21
-137.185
0
LINE
8
BLACK
6
CONTINUOUS
10
119.836
20
-137.185
11
119.36
21
-137.185
0
LINE
8
BLACK
6
CONTINUOUS
10
119.36
20
-137.185
11
119.169
21
-137.09
0
LINE
8
BLACK
6
CONTINUOUS
10
119.169
20
-137.09
11
119.074
21
-136.994
0
LINE
8
BLACK
6
CONTINUOUS
10
122.274
20
-137.185
11
122.274
21
-135.185
0
LINE
8
BLACK
6
CONTINUOUS
10
123.131
20
-137.185
11
123.131
21
-136.137
0
LINE
8
BLACK
6
CONTINUOUS
10
123.131
20
-136.137
11
123.036
21
-135.947
0
LINE
8
BLACK
6
CONTINUOUS
10
123.036
20
-135.947
11
122.845
21
-135.851
0
LINE
8
BLACK
6
CONTINUOUS
10
122.845
20
-135.851
11
122.56
21
-135.851
0
LINE
8
BLACK
6
CONTINUOUS
10
122.56
20
-135.851
11
122.369
21
-135.947
0
LINE
8
BLACK
6
CONTINUOUS
10
122.369
20
-135.947
11
122.274
21
-136.042
0
LINE
8
BLACK
6
CONTINUOUS
10
124.369
20
-137.185
11
124.179
21
-137.09
0
LINE
8
BLACK
6
CONTINUOUS
10
124.179
20
-137.09
11
124.083
21
-136.994
0
LINE
8
BLACK
6
CONTINUOUS
10
124.083
20
-136.994
11
123.988
21
-136.804
0
LINE
8
BLACK
6
CONTINUOUS
10
123.988
20
-136.804
11
123.988
21
-136.232
0
LINE
8
BLACK
6
CONTINUOUS
10
123.988
20
-136.232
11
124.083
21
-136.042
0
LINE
8
BLACK
6
CONTINUOUS
10
124.083
20
-136.042
11
124.179
21
-135.947
0
LINE
8
BLACK
6
CONTINUOUS
10
124.179
20
-135.947
11
124.369
21
-135.851
0
LINE
8
BLACK
6
CONTINUOUS
10
124.369
20
-135.851
11
124.655
21
-135.851
0
LINE
8
BLACK
6
CONTINUOUS
10
124.655
20
-135.851
11
124.845
21
-135.947
0
LINE
8
BLACK
6
CONTINUOUS
10
124.845
20
-135.947
11
124.94
21
-136.042
0
LINE
8
BLACK
6
CONTINUOUS
10
124.94
20
-136.042
11
125.036
21
-136.232
0
LINE
8
BLACK
6
CONTINUOUS
10
125.036
20
-136.232
11
125.036
21
-136.804
0
LINE
8
BLACK
6
CONTINUOUS
10
125.036
20
-136.804
11
124.94
21
-136.994
0
LINE
8
BLACK
6
CONTINUOUS
10
124.94
20
-136.994
11
124.845
21
-137.09
0
LINE
8
BLACK
6
CONTINUOUS
10
124.845
20
-137.09
11
124.655
21
-137.185
0
LINE
8
BLACK
6
CONTINUOUS
10
124.655
20
-137.185
11
124.369
21
-137.185
0
LINE
8
BLACK
6
CONTINUOUS
10
126.179
20
-137.185
11
125.988
21
-137.09
0
LINE
8
BLACK
6
CONTINUOUS
10
125.988
20
-137.09
11
125.893
21
-136.899
0
LINE
8
BLACK
6
CONTINUOUS
10
125.893
20
-136.899
11
125.893
21
-135.185
0
LINE
8
BLACK
6
CONTINUOUS
10
127.702
20
-137.09
11
127.512
21
-137.185
0
LINE
8
BLACK
6
CONTINUOUS
10
127.512
20
-137.185
11
127.131
21
-137.185
0
LINE
8
BLACK
6
CONTINUOUS
10
127.131
20
-137.185
11
126.94
21
-137.09
0
LINE
8
BLACK
6
CONTINUOUS
10
126.94
20
-137.09
11
126.845
21
-136.899
0
LINE
8
BLACK
6
CONTINUOUS
10
126.845
20
-136.899
11
126.845
21
-136.137
0
LINE
8
BLACK
6
CONTINUOUS
10
126.845
20
-136.137
11
126.94
21
-135.947
0
LINE
8
BLACK
6
CONTINUOUS
10
126.94
20
-135.947
11
127.131
21
-135.851
0
LINE
8
BLACK
6
CONTINUOUS
10
127.131
20
-135.851
11
127.512
21
-135.851
0
LINE
8
BLACK
6
CONTINUOUS
10
127.512
20
-135.851
11
127.702
21
-135.947
0
LINE
8
BLACK
6
CONTINUOUS
10
127.702
20
-135.947
11
127.798
21
-136.137
0
LINE
8
BLACK
6
CONTINUOUS
10
127.798
20
-136.137
11
127.798
21
-136.328
0
LINE
8
BLACK
6
CONTINUOUS
10
127.798
20
-136.328
11
126.845
21
-136.518
0
LINE
8
BLACK
6
CONTINUOUS
10
128.56
20
-137.09
11
128.75
21
-137.185
0
LINE
8
BLACK
6
CONTINUOUS
10
128.75
20
-137.185
11
129.131
21
-137.185
0
LINE
8
BLACK
6
CONTINUOUS
10
129.131
20
-137.185
11
129.321
21
-137.09
0
LINE
8
BLACK
6
CONTINUOUS
10
129.321
20
-137.09
11
129.417
21
-136.899
0
LINE
8
BLACK
6
CONTINUOUS
10
129.417
20
-136.899
11
129.417
21
-136.804
0
LINE
8
BLACK
6
CONTINUOUS
10
129.417
20
-136.804
11
129.321
21
-136.613
0
LINE
8
BLACK
6
CONTINUOUS
10
129.321
20
-136.613
11
129.131
21
-136.518
0
LINE
8
BLACK
6
CONTINUOUS
10
129.131
20
-136.518
11
128.845
21
-136.518
0
LINE
8
BLACK
6
CONTINUOUS
10
128.845
20
-136.518
11
128.655
21
-136.423
0
LINE
8
BLACK
6
CONTINUOUS
10
128.655
20
-136.423
11
128.56
21
-136.232
0
LINE
8
BLACK
6
CONTINUOUS
10
128.56
20
-136.232
11
128.56
21
-136.137
0
LINE
8
BLACK
6
CONTINUOUS
10
128.56
20
-136.137
11
128.655
21
-135.947
0
LINE
8
BLACK
6
CONTINUOUS
10
128.655
20
-135.947
11
128.845
21
-135.851
0
LINE
8
BLACK
6
CONTINUOUS
10
128.845
20
-135.851
11
129.131
21
-135.851
0
LINE
8
BLACK
6
CONTINUOUS
10
129.131
20
-135.851
11
129.321
21
-135.947
0
LINE
8
BLACK
6
CONTINUOUS
10
130.083
20
-137.947
11
130.179
21
-137.851
0
LINE
8
BLACK
6
CONTINUOUS
10
130.179
20
-137.851
11
130.369
21
-137.566
0
LINE
8
BLACK
6
CONTINUOUS
10
130.369
20
-137.566
11
130.464
21
-137.375
0
LINE
8
BLACK
6
CONTINUOUS
10
130.464
20
-137.375
11
130.56
21
-137.09
0
LINE
8
BLACK
6
CONTINUOUS
10
130.56
20
-137.09
11
130.655
21
-136.613
0
LINE
8
BLACK
6
CONTINUOUS
10
130.655
20
-136.613
11
130.655
21
-136.232
0
LINE
8
BLACK
6
CONTINUOUS
10
130.655
20
-136.232
11
130.56
21
-135.756
0
LINE
8
BLACK
6
CONTINUOUS
10
130.56
20
-135.756
11
130.464
21
-135.47
0
LINE
8
BLACK
6
CONTINUOUS
10
130.464
20
-135.47
11
130.369
21
-135.28
0
LINE
8
BLACK
6
CONTINUOUS
10
130.369
20
-135.28
11
130.179
21
-134.994
0
LINE
8
BLACK
6
CONTINUOUS
10
130.179
20
-134.994
11
130.083
21
-134.899
0
CIRCLE
8
BLACK
10
79.355
20
-139.09
40
0.595
0
LINE
8
BLACK
6
CONTINUOUS
10
83.4738
20
-139.825
11
82.331
21
-139.825
0
LINE
8
BLACK
6
CONTINUOUS
10
82.9024
20
-139.825
11
82.9024
21
-137.825
0
LINE
8
BLACK
6
CONTINUOUS
10
82.9024
20
-137.825
11
82.7119
21
-138.11
0
LINE
8
BLACK
6
CONTINUOUS
10
82.7119
20
-138.11
11
82.5214
21
-138.301
0
LINE
8
BLACK
6
CONTINUOUS
10
82.5214
20
-138.301
11
82.331
21
-138.396
0
LINE
8
BLACK
6
CONTINUOUS
10
84.331
20
-139.634
11
84.4262
21
-139.73
0
LINE
8
BLACK
6
CONTINUOUS
10
84.4262
20
-139.73
11
84.331
21
-139.825
0
LINE
8
BLACK
6
CONTINUOUS
10
84.331
20
-139.825
11
84.2357
21
-139.73
0
LINE
8
BLACK
6
CONTINUOUS
10
84.2357
20
-139.73
11
84.331
21
-139.634
0
LINE
8
BLACK
6
CONTINUOUS
10
84.331
20
-139.634
11
84.331
21
-139.825
0
LINE
8
BLACK
6
CONTINUOUS
10
86.331
20
-139.825
11
85.1881
21
-139.825
0
LINE
8
BLACK
6
CONTINUOUS
10
85.7595
20
-139.825
11
85.7595
21
-137.825
0
LINE
8
BLACK
6
CONTINUOUS
10
85.7595
20
-137.825
11
85.569
21
-138.11
0
LINE
8
BLACK
6
CONTINUOUS
10
85.569
20
-138.11
11
85.3786
21
-138.301
0
LINE
8
BLACK
6
CONTINUOUS
10
85.3786
20
-138.301
11
85.1881
21
-138.396
0
LINE
8
BLACK
6
CONTINUOUS
10
87.2833
20
-139.825
11
87.6643
21
-139.825
0
LINE
8
BLACK
6
CONTINUOUS
10
87.6643
20
-139.825
11
87.8548
21
-139.73
0
LINE
8
BLACK
6
CONTINUOUS
10
87.8548
20
-139.73
11
87.95
21
-139.634
0
LINE
8
BLACK
6
CONTINUOUS
10
87.95
20
-139.634
11
88.1405
21
-139.349
0
LINE
8
BLACK
6
CONTINUOUS
10
88.1405
20
-139.349
11
88.2357
21
-138.968
0
LINE
8
BLACK
6
CONTINUOUS
10
88.2357
20
-138.968
11
88.2357
21
-138.206
0
LINE
8
BLACK
6
CONTINUOUS
10
88.2357
20
-138.206
11
88.1405
21
-138.015
0
LINE
8
BLACK
6
CONTINUOUS
10
88.1405
20
-138.015
11
88.0452
21
-137.92
0
LINE
8
BLACK
6
CONTINUOUS
10
88.0452
20
-137.92
11
87.8548
21
-137.825
0
LINE
8
BLACK
6
CONTINUOUS
10
87.8548
20
-137.825
11
87.4738
21
-137.825
0
LINE
8
BLACK
6
CONTINUOUS
10
87.4738
20
-137.825
11
87.2833
21
-137.92
0
LINE
8
BLACK
6
CONTINUOUS
10
87.2833
20
-137.92
11
87.1881
21
-138.015
0
LINE
8
BLACK
6
CONTINUOUS
10
87.1881
20
-138.015
11
87.0929
21
-138.206
0
LINE
8
BLACK
6
CONTINUOUS
10
87.0929
20
-138.206
11
87.0929
21
-138.682
0
LINE
8
BLACK
6
CONTINUOUS
10
87.0929
20
-138.682
11
87.1881
21
-138.872
0
LINE
8
BLACK
6
CONTINUOUS
10
87.1881
20
-138.872
11
87.2833
21
-138.968
0
LINE
8
BLACK
6
CONTINUOUS
10
87.2833
20
-138.968
11
87.4738
21
-139.063
0
LINE
8
BLACK
6
CONTINUOUS
10
87.4738
20
-139.063
11
87.8548
21
-139.063
0
LINE
8
BLACK
6
CONTINUOUS
10
87.8548
20
-139.063
11
88.0452
21
-138.968
0
LINE
8
BLACK
6
CONTINUOUS
10
88.0452
20
-138.968
11
88.1405
21
-138.872
0
LINE
8
BLACK
6
CONTINUOUS
10
88.1405
20
-138.872
11
88.2357
21
-138.682
0
LINE
8
BLACK
6
CONTINUOUS
10
89.4738
20
-137.825
11
89.6643
21
-137.825
0
LINE
8
BLACK
6
CONTINUOUS
10
89.6643
20
-137.825
11
89.8548
21
-137.92
0
LINE
8
BLACK
6
CONTINUOUS
10
89.8548
20
-137.92
11
89.95
21
-138.015
0
LINE
8
BLACK
6
CONTINUOUS
10
89.95
20
-138.015
11
90.0452
21
-138.206
0
LINE
8
BLACK
6
CONTINUOUS
10
90.0452
20
-138.206
11
90.1405
21
-138.587
0
LINE
8
BLACK
6
CONTINUOUS
10
90.1405
20
-138.587
11
90.1405
21
-139.063
0
LINE
8
BLACK
6
CONTINUOUS
10
90.1405
20
-139.063
11
90.0452
21
-139.444
0
LINE
8
BLACK
6
CONTINUOUS
10
90.0452
20
-139.444
11
89.95
21
-139.634
0
LINE
8
BLACK
6
CONTINUOUS
10
89.95
20
-139.634
11
89.8548
21
-139.73
0
LINE
8
BLACK
6
CONTINUOUS
10
89.8548
20
-139.73
11
89.6643
21
-139.825
0
LINE
8
BLACK
6
CONTINUOUS
10
89.6643
20
-139.825
11
89.4738
21
-139.825
0
LINE
8
BLACK
6
CONTINUOUS
10
89.4738
20
-139.825
11
89.2833
21
-139.73
0
LINE
8
BLACK
6
CONTINUOUS
10
89.2833
20
-139.73
11
89.1881
21
-139.634
0
LINE
8
BLACK
6
CONTINUOUS
10
89.1881
20
-139.634
11
89.0929
21
-139.444
0
LINE
8
BLACK
6
CONTINUOUS
10
89.0929
20
-139.444
11
88.9976
21
-139.063
0
LINE
8
BLACK
6
CONTINUOUS
10
88.9976
20
-139.063
11
88.9976
21
-138.587
0
LINE
8
BLACK
6
CONTINUOUS
10
88.9976
20
-138.587
11
89.0929
21
-138.206
0
LINE
8
BLACK
6
CONTINUOUS
10
89.0929
20
-138.206
11
89.1881
21
-138.015
0
LINE
8
BLACK
6
CONTINUOUS
10
89.1881
20
-138.015
11
89.2833
21
-137.92
0
LINE
8
BLACK
6
CONTINUOUS
10
89.2833
20
-137.92
11
89.4738
21
-137.825
0
LINE
8
BLACK
6
CONTINUOUS
10
90.9976
20
-139.825
11
90.9976
21
-138.491
0
LINE
8
BLACK
6
CONTINUOUS
10
90.9976
20
-138.682
11
91.0929
21
-138.587
0
LINE
8
BLACK
6
CONTINUOUS
10
91.0929
20
-138.587
11
91.2833
21
-138.491
0
LINE
8
BLACK
6
CONTINUOUS
10
91.2833
20
-138.491
11
91.569
21
-138.491
0
LINE
8
BLACK
6
CONTINUOUS
10
91.569
20
-138.491
11
91.7595
21
-138.587
0
LINE
8
BLACK
6
CONTINUOUS
10
91.7595
20
-138.587
11
91.8548
21
-138.777
0
LINE
8
BLACK
6
CONTINUOUS
10
91.8548
20
-138.777
11
91.8548
21
-139.825
0
LINE
8
BLACK
6
CONTINUOUS
10
91.8548
20
-138.777
11
91.95
21
-138.587
0
LINE
8
BLACK
6
CONTINUOUS
10
91.95
20
-138.587
11
92.1405
21
-138.491
0
LINE
8
BLACK
6
CONTINUOUS
10
92.1405
20
-138.491
11
92.4262
21
-138.491
0
LINE
8
BLACK
6
CONTINUOUS
10
92.4262
20
-138.491
11
92.6167
21
-138.587
0
LINE
8
BLACK
6
CONTINUOUS
10
92.6167
20
-138.587
11
92.7119
21
-138.777
0
LINE
8
BLACK
6
CONTINUOUS
10
92.7119
20
-138.777
11
92.7119
21
-139.825
0
LINE
8
BLACK
6
CONTINUOUS
10
93.6643
20
-139.825
11
93.6643
21
-138.491
0
LINE
8
BLACK
6
CONTINUOUS
10
93.6643
20
-138.682
11
93.7595
21
-138.587
0
LINE
8
BLACK
6
CONTINUOUS
10
93.7595
20
-138.587
11
93.95
21
-138.491
0
LINE
8
BLACK
6
CONTINUOUS
10
93.95
20
-138.491
11
94.2357
21
-138.491
0
LINE
8
BLACK
6
CONTINUOUS
10
94.2357
20
-138.491
11
94.4262
21
-138.587
0
LINE
8
BLACK
6
CONTINUOUS
10
94.4262
20
-138.587
11
94.5214
21
-138.777
0
LINE
8
BLACK
6
CONTINUOUS
10
94.5214
20
-138.777
11
94.5214
21
-139.825
0
LINE
8
BLACK
6
CONTINUOUS
10
94.5214
20
-138.777
11
94.6167
21
-138.587
0
LINE
8
BLACK
6
CONTINUOUS
10
94.6167
20
-138.587
11
94.8071
21
-138.491
0
LINE
8
BLACK
6
CONTINUOUS
10
94.8071
20
-138.491
11
95.0929
21
-138.491
0
LINE
8
BLACK
6
CONTINUOUS
10
95.0929
20
-138.491
11
95.2833
21
-138.587
0
LINE
8
BLACK
6
CONTINUOUS
10
95.2833
20
-138.587
11
95.3786
21
-138.777
0
LINE
8
BLACK
6
CONTINUOUS
10
95.3786
20
-138.777
11
95.3786
21
-139.825
0
LINE
8
BLACK
6
CONTINUOUS
10
98.9595
20
-137.73
11
97.2452
21
-140.301
0
LINE
8
BLACK
6
CONTINUOUS
10
101.207
20
-137.825
11
101.398
21
-137.825
0
LINE
8
BLACK
6
CONTINUOUS
10
101.398
20
-137.825
11
101.588
21
-137.92
0
LINE
8
BLACK
6
CONTINUOUS
10
101.588
20
-137.92
11
101.683
21
-138.015
0
LINE
8
BLACK
6
CONTINUOUS
10
101.683
20
-138.015
11
101.779
21
-138.206
0
LINE
8
BLACK
6
CONTINUOUS
10
101.779
20
-138.206
11
101.874
21
-138.587
0
LINE
8
BLACK
6
CONTINUOUS
10
101.874
20
-138.587
11
101.874
21
-139.063
0
LINE
8
BLACK
6
CONTINUOUS
10
101.874
20
-139.063
11
101.779
21
-139.444
0
LINE
8
BLACK
6
CONTINUOUS
10
101.779
20
-139.444
11
101.683
21
-139.634
0
LINE
8
BLACK
6
CONTINUOUS
10
101.683
20
-139.634
11
101.588
21
-139.73
0
LINE
8
BLACK
6
CONTINUOUS
10
101.588
20
-139.73
11
101.398
21
-139.825
0
LINE
8
BLACK
6
CONTINUOUS
10
101.398
20
-139.825
11
101.207
21
-139.825
0
LINE
8
BLACK
6
CONTINUOUS
10
101.207
20
-139.825
11
101.017
21
-139.73
0
LINE
8
BLACK
6
CONTINUOUS
10
101.017
20
-139.73
11
100.921
21
-139.634
0
LINE
8
BLACK
6
CONTINUOUS
10
100.921
20
-139.634
11
100.826
21
-139.444
0
LINE
8
BLACK
6
CONTINUOUS
10
100.826
20
-139.444
11
100.731
21
-139.063
0
LINE
8
BLACK
6
CONTINUOUS
10
100.731
20
-139.063
11
100.731
21
-138.587
0
LINE
8
BLACK
6
CONTINUOUS
10
100.731
20
-138.587
11
100.826
21
-138.206
0
LINE
8
BLACK
6
CONTINUOUS
10
100.826
20
-138.206
11
100.921
21
-138.015
0
LINE
8
BLACK
6
CONTINUOUS
10
100.921
20
-138.015
11
101.017
21
-137.92
0
LINE
8
BLACK
6
CONTINUOUS
10
101.017
20
-137.92
11
101.207
21
-137.825
0
LINE
8
BLACK
6
CONTINUOUS
10
102.731
20
-139.634
11
102.826
21
-139.73
0
LINE
8
BLACK
6
CONTINUOUS
10
102.826
20
-139.73
11
102.731
21
-139.825
0
LINE
8
BLACK
6
CONTINUOUS
10
102.731
20
-139.825
11
102.636
21
-139.73
0
LINE
8
BLACK
6
CONTINUOUS
10
102.636
20
-139.73
11
102.731
21
-139.634
0
LINE
8
BLACK
6
CONTINUOUS
10
102.731
20
-139.634
11
102.731
21
-139.825
0
LINE
8
BLACK
6
CONTINUOUS
10
104.064
20
-137.825
11
104.255
21
-137.825
0
LINE
8
BLACK
6
CONTINUOUS
10
104.255
20
-137.825
11
104.445
21
-137.92
0
LINE
8
BLACK
6
CONTINUOUS
10
104.445
20
-137.92
11
104.54
21
-138.015
0
LINE
8
BLACK
6
CONTINUOUS
10
104.54
20
-138.015
11
104.636
21
-138.206
0
LINE
8
BLACK
6
CONTINUOUS
10
104.636
20
-138.206
11
104.731
21
-138.587
0
LINE
8
BLACK
6
CONTINUOUS
10
104.731
20
-138.587
11
104.731
21
-139.063
0
LINE
8
BLACK
6
CONTINUOUS
10
104.731
20
-139.063
11
104.636
21
-139.444
0
LINE
8
BLACK
6
CONTINUOUS
10
104.636
20
-139.444
11
104.54
21
-139.634
0
LINE
8
BLACK
6
CONTINUOUS
10
104.54
20
-139.634
11
104.445
21
-139.73
0
LINE
8
BLACK
6
CONTINUOUS
10
104.445
20
-139.73
11
104.255
21
-139.825
0
LINE
8
BLACK
6
CONTINUOUS
10
104.255
20
-139.825
11
104.064
21
-139.825
0
LINE
8
BLACK
6
CONTINUOUS
10
104.064
20
-139.825
11
103.874
21
-139.73
0
LINE
8
BLACK
6
CONTINUOUS
10
103.874
20
-139.73
11
103.779
21
-139.634
0
LINE
8
BLACK
6
CONTINUOUS
10
103.779
20
-139.634
11
103.683
21
-139.444
0
LINE
8
BLACK
6
CONTINUOUS
10
103.683
20
-139.444
11
103.588
21
-139.063
0
LINE
8
BLACK
6
CONTINUOUS
10
103.588
20
-139.063
11
103.588
21
-138.587
0
LINE
8
BLACK
6
CONTINUOUS
10
103.588
20
-138.587
11
103.683
21
-138.206
0
LINE
8
BLACK
6
CONTINUOUS
10
103.683
20
-138.206
11
103.779
21
-138.015
0
LINE
8
BLACK
6
CONTINUOUS
10
103.779
20
-138.015
11
103.874
21
-137.92
0
LINE
8
BLACK
6
CONTINUOUS
10
103.874
20
-137.92
11
104.064
21
-137.825
0
LINE
8
BLACK
6
CONTINUOUS
10
106.445
20
-138.491
11
106.445
21
-139.825
0
LINE
8
BLACK
6
CONTINUOUS
10
105.969
20
-137.73
11
105.493
21
-139.158
0
LINE
8
BLACK
6
CONTINUOUS
10
105.493
20
-139.158
11
106.731
21
-139.158
0
LINE
8
BLACK
6
CONTINUOUS
10
108.35
20
-137.825
11
107.969
21
-137.825
0
LINE
8
BLACK
6
CONTINUOUS
10
107.969
20
-137.825
11
107.779
21
-137.92
0
LINE
8
BLACK
6
CONTINUOUS
10
107.779
20
-137.92
11
107.683
21
-138.015
0
LINE
8
BLACK
6
CONTINUOUS
10
107.683
20
-138.015
11
107.493
21
-138.301
0
LINE
8
BLACK
6
CONTINUOUS
10
107.493
20
-138.301
11
107.398
21
-138.682
0
LINE
8
BLACK
6
CONTINUOUS
10
107.398
20
-138.682
11
107.398
21
-139.444
0
LINE
8
BLACK
6
CONTINUOUS
10
107.398
20
-139.444
11
107.493
21
-139.634
0
LINE
8
BLACK
6
CONTINUOUS
10
107.493
20
-139.634
11
107.588
21
-139.73
0
LINE
8
BLACK
6
CONTINUOUS
10
107.588
20
-139.73
11
107.779
21
-139.825
0
LINE
8
BLACK
6
CONTINUOUS
10
107.779
20
-139.825
11
108.16
21
-139.825
0
LINE
8
BLACK
6
CONTINUOUS
10
108.16
20
-139.825
11
108.35
21
-139.73
0
LINE
8
BLACK
6
CONTINUOUS
10
108.35
20
-139.73
11
108.445
21
-139.634
0
LINE
8
BLACK
6
CONTINUOUS
10
108.445
20
-139.634
11
108.54
21
-139.444
0
LINE
8
BLACK
6
CONTINUOUS
10
108.54
20
-139.444
11
108.54
21
-138.968
0
LINE
8
BLACK
6
CONTINUOUS
10
108.54
20
-138.968
11
108.445
21
-138.777
0
LINE
8
BLACK
6
CONTINUOUS
10
108.445
20
-138.777
11
108.35
21
-138.682
0
LINE
8
BLACK
6
CONTINUOUS
10
108.35
20
-138.682
11
108.16
21
-138.587
0
LINE
8
BLACK
6
CONTINUOUS
10
108.16
20
-138.587
11
107.779
21
-138.587
0
LINE
8
BLACK
6
CONTINUOUS
10
107.779
20
-138.587
11
107.588
21
-138.682
0
LINE
8
BLACK
6
CONTINUOUS
10
107.588
20
-138.682
11
107.493
21
-138.777
0
LINE
8
BLACK
6
CONTINUOUS
10
107.493
20
-138.777
11
107.398
21
-138.968
0
LINE
8
BLACK
6
CONTINUOUS
10
109.493
20
-139.825
11
109.874
21
-139.825
0
LINE
8
BLACK
6
CONTINUOUS
10
109.874
20
-139.825
11
110.064
21
-139.73
0
LINE
8
BLACK
6
CONTINUOUS
10
110.064
20
-139.73
11
110.16
21
-139.634
0
LINE
8
BLACK
6
CONTINUOUS
10
110.16
20
-139.634
11
110.35
21
-139.349
0
LINE
8
BLACK
6
CONTINUOUS
10
110.35
20
-139.349
11
110.445
21
-138.968
0
LINE
8
BLACK
6
CONTINUOUS
10
110.445
20
-138.968
11
110.445
21
-138.206
0
LINE
8
BLACK
6
CONTINUOUS
10
110.445
20
-138.206
11
110.35
21
-138.015
0
LINE
8
BLACK
6
CONTINUOUS
10
110.35
20
-138.015
11
110.255
21
-137.92
0
LINE
8
BLACK
6
CONTINUOUS
10
110.255
20
-137.92
11
110.064
21
-137.825
0
LINE
8
BLACK
6
CONTINUOUS
10
110.064
20
-137.825
11
109.683
21
-137.825
0
LINE
8
BLACK
6
CONTINUOUS
10
109.683
20
-137.825
11
109.493
21
-137.92
0
LINE
8
BLACK
6
CONTINUOUS
10
109.493
20
-137.92
11
109.398
21
-138.015
0
LINE
8
BLACK
6
CONTINUOUS
10
109.398
20
-138.015
11
109.302
21
-138.206
0
LINE
8
BLACK
6
CONTINUOUS
10
109.302
20
-138.206
11
109.302
21
-138.682
0
LINE
8
BLACK
6
CONTINUOUS
10
109.302
20
-138.682
11
109.398
21
-138.872
0
LINE
8
BLACK
6
CONTINUOUS
10
109.398
20
-138.872
11
109.493
21
-138.968
0
LINE
8
BLACK
6
CONTINUOUS
10
109.493
20
-138.968
11
109.683
21
-139.063
0
LINE
8
BLACK
6
CONTINUOUS
10
109.683
20
-139.063
11
110.064
21
-139.063
0
LINE
8
BLACK
6
CONTINUOUS
10
110.064
20
-139.063
11
110.255
21
-138.968
0
LINE
8
BLACK
6
CONTINUOUS
10
110.255
20
-138.968
11
110.35
21
-138.872
0
LINE
8
BLACK
6
CONTINUOUS
10
110.35
20
-138.872
11
110.445
21
-138.682
0
LINE
8
BLACK
6
CONTINUOUS
10
111.207
20
-137.825
11
111.207
21
-138.206
0
LINE
8
BLACK
6
CONTINUOUS
10
111.969
20
-137.825
11
111.969
21
-138.206
0
LINE
8
BLACK
6
CONTINUOUS
10
114.598
20
-140.587
11
114.502
21
-140.491
0
LINE
8
BLACK
6
CONTINUOUS
10
114.502
20
-140.491
11
114.312
21
-140.206
0
LINE
8
BLACK
6
CONTINUOUS
10
114.312
20
-140.206
11
114.217
21
-140.015
0
LINE
8
BLACK
6
CONTINUOUS
10
114.217
20
-140.015
11
114.121
21
-139.73
0
LINE
8
BLACK
6
CONTINUOUS
10
114.121
20
-139.73
11
114.026
21
-139.253
0
LINE
8
BLACK
6
CONTINUOUS
10
114.026
20
-139.253
11
114.026
21
-138.872
0
LINE
8
BLACK
6
CONTINUOUS
10
114.026
20
-138.872
11
114.121
21
-138.396
0
LINE
8
BLACK
6
CONTINUOUS
10
114.121
20
-138.396
11
114.217
21
-138.11
0
LINE
8
BLACK
6
CONTINUOUS
10
114.217
20
-138.11
11
114.312
21
-137.92
0
LINE
8
BLACK
6
CONTINUOUS
10
114.312
20
-137.92
11
114.502
21
-137.634
0
LINE
8
BLACK
6
CONTINUOUS
10
114.502
20
-137.634
11
114.598
21
-137.539
0
LINE
8
BLACK
6
CONTINUOUS
10
116.217
20
-138.491
11
116.217
21
-139.825
0
LINE
8
BLACK
6
CONTINUOUS
10
115.74
20
-137.73
11
115.264
21
-139.158
0
LINE
8
BLACK
6
CONTINUOUS
10
115.264
20
-139.158
11
116.502
21
-139.158
0
LINE
8
BLACK
6
CONTINUOUS
10
118.464
20
-139.825
11
118.464
21
-137.825
0
LINE
8
BLACK
6
CONTINUOUS
10
119.321
20
-139.825
11
119.321
21
-138.777
0
LINE
8
BLACK
6
CONTINUOUS
10
119.321
20
-138.777
11
119.226
21
-138.587
0
LINE
8
BLACK
6
CONTINUOUS
10
119.226
20
-138.587
11
119.036
21
-138.491
0
LINE
8
BLACK
6
CONTINUOUS
10
119.036
20
-138.491
11
118.75
21
-138.491
0
LINE
8
BLACK
6
CONTINUOUS
10
118.75
20
-138.491
11
118.56
21
-138.587
0
LINE
8
BLACK
6
CONTINUOUS
10
118.56
20
-138.587
11
118.464
21
-138.682
0
LINE
8
BLACK
6
CONTINUOUS
10
120.56
20
-139.825
11
120.369
21
-139.73
0
LINE
8
BLACK
6
CONTINUOUS
10
120.369
20
-139.73
11
120.274
21
-139.634
0
LINE
8
BLACK
6
CONTINUOUS
10
120.274
20
-139.634
11
120.179
21
-139.444
0
LINE
8
BLACK
6
CONTINUOUS
10
120.179
20
-139.444
11
120.179
21
-138.872
0
LINE
8
BLACK
6
CONTINUOUS
10
120.179
20
-138.872
11
120.274
21
-138.682
0
LINE
8
BLACK
6
CONTINUOUS
10
120.274
20
-138.682
11
120.369
21
-138.587
0
LINE
8
BLACK
6
CONTINUOUS
10
120.369
20
-138.587
11
120.56
21
-138.491
0
LINE
8
BLACK
6
CONTINUOUS
10
120.56
20
-138.491
11
120.845
21
-138.491
0
LINE
8
BLACK
6
CONTINUOUS
10
120.845
20
-138.491
11
121.036
21
-138.587
0
LINE
8
BLACK
6
CONTINUOUS
10
121.036
20
-138.587
11
121.131
21
-138.682
0
LINE
8
BLACK
6
CONTINUOUS
10
121.131
20
-138.682
11
121.226
21
-138.872
0
LINE
8
BLACK
6
CONTINUOUS
10
121.226
20
-138.872
11
121.226
21
-139.444
0
LINE
8
BLACK
6
CONTINUOUS
10
121.226
20
-139.444
11
121.131
21
-139.634
0
LINE
8
BLACK
6
CONTINUOUS
10
121.131
20
-139.634
11
121.036
21
-139.73
0
LINE
8
BLACK
6
CONTINUOUS
10
121.036
20
-139.73
11
120.845
21
-139.825
0
LINE
8
BLACK
6
CONTINUOUS
10
120.845
20
-139.825
11
120.56
21
-139.825
0
LINE
8
BLACK
6
CONTINUOUS
10
122.369
20
-139.825
11
122.179
21
-139.73
0
LINE
8
BLACK
6
CONTINUOUS
10
122.179
20
-139.73
11
122.083
21
-139.539
0
LINE
8
BLACK
6
CONTINUOUS
10
122.083
20
-139.539
11
122.083
21
-137.825
0
LINE
8
BLACK
6
CONTINUOUS
10
123.893
20
-139.73
11
123.702
21
-139.825
0
LINE
8
BLACK
6
CONTINUOUS
10
123.702
20
-139.825
11
123.321
21
-139.825
0
LINE
8
BLACK
6
CONTINUOUS
10
123.321
20
-139.825
11
123.131
21
-139.73
0
LINE
8
BLACK
6
CONTINUOUS
10
123.131
20
-139.73
11
123.036
21
-139.539
0
LINE
8
BLACK
6
CONTINUOUS
10
123.036
20
-139.539
11
123.036
21
-138.777
0
LINE
8
BLACK
6
CONTINUOUS
10
123.036
20
-138.777
11
123.131
21
-138.587
0
LINE
8
BLACK
6
CONTINUOUS
10
123.131
20
-138.587
11
123.321
21
-138.491
0
LINE
8
BLACK
6
CONTINUOUS
10
123.321
20
-138.491
11
123.702
21
-138.491
0
LINE
8
BLACK
6
CONTINUOUS
10
123.702
20
-138.491
11
123.893
21
-138.587
0
LINE
8
BLACK
6
CONTINUOUS
10
123.893
20
-138.587
11
123.988
21
-138.777
0
LINE
8
BLACK
6
CONTINUOUS
10
123.988
20
-138.777
11
123.988
21
-138.968
0
LINE
8
BLACK
6
CONTINUOUS
10
123.988
20
-138.968
11
123.036
21
-139.158
0
LINE
8
BLACK
6
CONTINUOUS
10
124.75
20
-139.73
11
124.94
21
-139.825
0
LINE
8
BLACK
6
CONTINUOUS
10
124.94
20
-139.825
11
125.321
21
-139.825
0
LINE
8
BLACK
6
CONTINUOUS
10
125.321
20
-139.825
11
125.512
21
-139.73
0
LINE
8
BLACK
6
CONTINUOUS
10
125.512
20
-139.73
11
125.607
21
-139.539
0
LINE
8
BLACK
6
CONTINUOUS
10
125.607
20
-139.539
11
125.607
21
-139.444
0
LINE
8
BLACK
6
CONTINUOUS
10
125.607
20
-139.444
11
125.512
21
-139.253
0
LINE
8
BLACK
6
CONTINUOUS
10
125.512
20
-139.253
11
125.321
21
-139.158
0
LINE
8
BLACK
6
CONTINUOUS
10
125.321
20
-139.158
11
125.036
21
-139.158
0
LINE
8
BLACK
6
CONTINUOUS
10
125.036
20
-139.158
11
124.845
21
-139.063
0
LINE
8
BLACK
6
CONTINUOUS
10
124.845
20
-139.063
11
124.75
21
-138.872
0
LINE
8
BLACK
6
CONTINUOUS
10
124.75
20
-138.872
11
124.75
21
-138.777
0
LINE
8
BLACK
6
CONTINUOUS
10
124.75
20
-138.777
11
124.845
21
-138.587
0
LINE
8
BLACK
6
CONTINUOUS
10
124.845
20
-138.587
11
125.036
21
-138.491
0
LINE
8
BLACK
6
CONTINUOUS
10
125.036
20
-138.491
11
125.321
21
-138.491
0
LINE
8
BLACK
6
CONTINUOUS
10
125.321
20
-138.491
11
125.512
21
-138.587
0
LINE
8
BLACK
6
CONTINUOUS
10
126.274
20
-140.587
11
126.369
21
-140.491
0
LINE
8
BLACK
6
CONTINUOUS
10
126.369
20
-140.491
11
126.56
21
-140.206
0
LINE
8
BLACK
6
CONTINUOUS
10
126.56
20
-140.206
11
126.655
21
-140.015
0
LINE
8
BLACK
6
CONTINUOUS
10
126.655
20
-140.015
11
126.75
21
-139.73
0
LINE
8
BLACK
6
CONTINUOUS
10
126.75
20
-139.73
11
126.845
21
-139.253
0
LINE
8
BLACK
6
CONTINUOUS
10
126.845
20
-139.253
11
126.845
21
-138.872
0
LINE
8
BLACK
6
CONTINUOUS
10
126.845
20
-138.872
11
126.75
21
-138.396
0
LINE
8
BLACK
6
CONTINUOUS
10
126.75
20
-138.396
11
126.655
21
-138.11
0
LINE
8
BLACK
6
CONTINUOUS
10
126.655
20
-138.11
11
126.56
21
-137.92
0
LINE
8
BLACK
6
CONTINUOUS
10
126.56
20
-137.92
11
126.369
21
-137.634
0
LINE
8
BLACK
6
CONTINUOUS
10
126.369
20
-137.634
11
126.274
21
-137.539
0
LINE
8
BLACK
6
CONTINUOUS
10
79.2998
20
-141.08
11
79.2998
21
-142.38
0
LINE
8
BLACK
6
CONTINUOUS
10
78.6495
20
-141.73
11
79.95
21
-141.73
0
LINE
8
BLACK
6
CONTINUOUS
10
83.4738
20
-142.465
11
82.331
21
-142.465
0
LINE
8
BLACK
6
CONTINUOUS
10
82.9024
20
-142.465
11
82.9024
21
-140.465
0
LINE
8
BLACK
6
CONTINUOUS
10
82.9024
20
-140.465
11
82.7119
21
-140.75
0
LINE
8
BLACK
6
CONTINUOUS
10
82.7119
20
-140.75
11
82.5214
21
-140.941
0
LINE
8
BLACK
6
CONTINUOUS
10
82.5214
20
-140.941
11
82.331
21
-141.036
0
LINE
8
BLACK
6
CONTINUOUS
10
84.331
20
-142.274
11
84.4262
21
-142.37
0
LINE
8
BLACK
6
CONTINUOUS
10
84.4262
20
-142.37
11
84.331
21
-142.465
0
LINE
8
BLACK
6
CONTINUOUS
10
84.331
20
-142.465
11
84.2357
21
-142.37
0
LINE
8
BLACK
6
CONTINUOUS
10
84.2357
20
-142.37
11
84.331
21
-142.274
0
LINE
8
BLACK
6
CONTINUOUS
10
84.331
20
-142.274
11
84.331
21
-142.465
0
LINE
8
BLACK
6
CONTINUOUS
10
85.0929
20
-140.465
11
86.331
21
-140.465
0
LINE
8
BLACK
6
CONTINUOUS
10
86.331
20
-140.465
11
85.6643
21
-141.227
0
LINE
8
BLACK
6
CONTINUOUS
10
85.6643
20
-141.227
11
85.95
21
-141.227
0
LINE
8
BLACK
6
CONTINUOUS
10
85.95
20
-141.227
11
86.1405
21
-141.322
0
LINE
8
BLACK
6
CONTINUOUS
10
86.1405
20
-141.322
11
86.2357
21
-141.417
0
LINE
8
BLACK
6
CONTINUOUS
10
86.2357
20
-141.417
11
86.331
21
-141.608
0
LINE
8
BLACK
6
CONTINUOUS
10
86.331
20
-141.608
11
86.331
21
-142.084
0
LINE
8
BLACK
6
CONTINUOUS
10
86.331
20
-142.084
11
86.2357
21
-142.274
0
LINE
8
BLACK
6
CONTINUOUS
10
86.2357
20
-142.274
11
86.1405
21
-142.37
0
LINE
8
BLACK
6
CONTINUOUS
10
86.1405
20
-142.37
11
85.95
21
-142.465
0
LINE
8
BLACK
6
CONTINUOUS
10
85.95
20
-142.465
11
85.3786
21
-142.465
0
LINE
8
BLACK
6
CONTINUOUS
10
85.3786
20
-142.465
11
85.1881
21
-142.37
0
LINE
8
BLACK
6
CONTINUOUS
10
85.1881
20
-142.37
11
85.0929
21
-142.274
0
LINE
8
BLACK
6
CONTINUOUS
10
87.569
20
-140.465
11
87.7595
21
-140.465
0
LINE
8
BLACK
6
CONTINUOUS
10
87.7595
20
-140.465
11
87.95
21
-140.56
0
LINE
8
BLACK
6
CONTINUOUS
10
87.95
20
-140.56
11
88.0452
21
-140.655
0
LINE
8
BLACK
6
CONTINUOUS
10
88.0452
20
-140.655
11
88.1405
21
-140.846
0
LINE
8
BLACK
6
CONTINUOUS
10
88.1405
20
-140.846
11
88.2357
21
-141.227
0
LINE
8
BLACK
6
CONTINUOUS
10
88.2357
20
-141.227
11
88.2357
21
-141.703
0
LINE
8
BLACK
6
CONTINUOUS
10
88.2357
20
-141.703
11
88.1405
21
-142.084
0
LINE
8
BLACK
6
CONTINUOUS
10
88.1405
20
-142.084
11
88.0452
21
-142.274
0
LINE
8
BLACK
6
CONTINUOUS
10
88.0452
20
-142.274
11
87.95
21
-142.37
0
LINE
8
BLACK
6
CONTINUOUS
10
87.95
20
-142.37
11
87.7595
21
-142.465
0
LINE
8
BLACK
6
CONTINUOUS
10
87.7595
20
-142.465
11
87.569
21
-142.465
0
LINE
8
BLACK
6
CONTINUOUS
10
87.569
20
-142.465
11
87.3786
21
-142.37
0
LINE
8
BLACK
6
CONTINUOUS
10
87.3786
20
-142.37
11
87.2833
21
-142.274
0
LINE
8
BLACK
6
CONTINUOUS
10
87.2833
20
-142.274
11
87.1881
21
-142.084
0
LINE
8
BLACK
6
CONTINUOUS
10
87.1881
20
-142.084
11
87.0929
21
-141.703
0
LINE
8
BLACK
6
CONTINUOUS
10
87.0929
20
-141.703
11
87.0929
21
-141.227
0
LINE
8
BLACK
6
CONTINUOUS
10
87.0929
20
-141.227
11
87.1881
21
-140.846
0
LINE
8
BLACK
6
CONTINUOUS
10
87.1881
20
-140.846
11
87.2833
21
-140.655
0
LINE
8
BLACK
6
CONTINUOUS
10
87.2833
20
-140.655
11
87.3786
21
-140.56
0
LINE
8
BLACK
6
CONTINUOUS
10
87.3786
20
-140.56
11
87.569
21
-140.465
0
LINE
8
BLACK
6
CONTINUOUS
10
89.4738
20
-140.465
11
89.6643
21
-140.465
0
LINE
8
BLACK
6
CONTINUOUS
10
89.6643
20
-140.465
11
89.8548
21
-140.56
0
LINE
8
BLACK
6
CONTINUOUS
10
89.8548
20
-140.56
11
89.95
21
-140.655
0
LINE
8
BLACK
6
CONTINUOUS
10
89.95
20
-140.655
11
90.0452
21
-140.846
0
LINE
8
BLACK
6
CONTINUOUS
10
90.0452
20
-140.846
11
90.1405
21
-141.227
0
LINE
8
BLACK
6
CONTINUOUS
10
90.1405
20
-141.227
11
90.1405
21
-141.703
0
LINE
8
BLACK
6
CONTINUOUS
10
90.1405
20
-141.703
11
90.0452
21
-142.084
0
LINE
8
BLACK
6
CONTINUOUS
10
90.0452
20
-142.084
11
89.95
21
-142.274
0
LINE
8
BLACK
6
CONTINUOUS
10
89.95
20
-142.274
11
89.8548
21
-142.37
0
LINE
8
BLACK
6
CONTINUOUS
10
89.8548
20
-142.37
11
89.6643
21
-142.465
0
LINE
8
BLACK
6
CONTINUOUS
10
89.6643
20
-142.465
11
89.4738
21
-142.465
0
LINE
8
BLACK
6
CONTINUOUS
10
89.4738
20
-142.465
11
89.2833
21
-142.37
0
LINE
8
BLACK
6
CONTINUOUS
10
89.2833
20
-142.37
11
89.1881
21
-142.274
0
LINE
8
BLACK
6
CONTINUOUS
10
89.1881
20
-142.274
11
89.0929
21
-142.084
0
LINE
8
BLACK
6
CONTINUOUS
10
89.0929
20
-142.084
11
88.9976
21
-141.703
0
LINE
8
BLACK
6
CONTINUOUS
10
88.9976
20
-141.703
11
88.9976
21
-141.227
0
LINE
8
BLACK
6
CONTINUOUS
10
88.9976
20
-141.227
11
89.0929
21
-140.846
0
LINE
8
BLACK
6
CONTINUOUS
10
89.0929
20
-140.846
11
89.1881
21
-140.655
0
LINE
8
BLACK
6
CONTINUOUS
10
89.1881
20
-140.655
11
89.2833
21
-140.56
0
LINE
8
BLACK
6
CONTINUOUS
10
89.2833
20
-140.56
11
89.4738
21
-140.465
0
LINE
8
BLACK
6
CONTINUOUS
10
90.9976
20
-142.465
11
90.9976
21
-141.131
0
LINE
8
BLACK
6
CONTINUOUS
10
90.9976
20
-141.322
11
91.0929
21
-141.227
0
LINE
8
BLACK
6
CONTINUOUS
10
91.0929
20
-141.227
11
91.2833
21
-141.131
0
LINE
8
BLACK
6
CONTINUOUS
10
91.2833
20
-141.131
11
91.569
21
-141.131
0
LINE
8
BLACK
6
CONTINUOUS
10
91.569
20
-141.131
11
91.7595
21
-141.227
0
LINE
8
BLACK
6
CONTINUOUS
10
91.7595
20
-141.227
11
91.8548
21
-141.417
0
LINE
8
BLACK
6
CONTINUOUS
10
91.8548
20
-141.417
11
91.8548
21
-142.465
0
LINE
8
BLACK
6
CONTINUOUS
10
91.8548
20
-141.417
11
91.95
21
-141.227
0
LINE
8
BLACK
6
CONTINUOUS
10
91.95
20
-141.227
11
92.1405
21
-141.131
0
LINE
8
BLACK
6
CONTINUOUS
10
92.1405
20
-141.131
11
92.4262
21
-141.131
0
LINE
8
BLACK
6
CONTINUOUS
10
92.4262
20
-141.131
11
92.6167
21
-141.227
0
LINE
8
BLACK
6
CONTINUOUS
10
92.6167
20
-141.227
11
92.7119
21
-141.417
0
LINE
8
BLACK
6
CONTINUOUS
10
92.7119
20
-141.417
11
92.7119
21
-142.465
0
LINE
8
BLACK
6
CONTINUOUS
10
93.6643
20
-142.465
11
93.6643
21
-141.131
0
LINE
8
BLACK
6
CONTINUOUS
10
93.6643
20
-141.322
11
93.7595
21
-141.227
0
LINE
8
BLACK
6
CONTINUOUS
10
93.7595
20
-141.227
11
93.95
21
-141.131
0
LINE
8
BLACK
6
CONTINUOUS
10
93.95
20
-141.131
11
94.2357
21
-141.131
0
LINE
8
BLACK
6
CONTINUOUS
10
94.2357
20
-141.131
11
94.4262
21
-141.227
0
LINE
8
BLACK
6
CONTINUOUS
10
94.4262
20
-141.227
11
94.5214
21
-141.417
0
LINE
8
BLACK
6
CONTINUOUS
10
94.5214
20
-141.417
11
94.5214
21
-142.465
0
LINE
8
BLACK
6
CONTINUOUS
10
94.5214
20
-141.417
11
94.6167
21
-141.227
0
LINE
8
BLACK
6
CONTINUOUS
10
94.6167
20
-141.227
11
94.8071
21
-141.131
0
LINE
8
BLACK
6
CONTINUOUS
10
94.8071
20
-141.131
11
95.0929
21
-141.131
0
LINE
8
BLACK
6
CONTINUOUS
10
95.0929
20
-141.131
11
95.2833
21
-141.227
0
LINE
8
BLACK
6
CONTINUOUS
10
95.2833
20
-141.227
11
95.3786
21
-141.417
0
LINE
8
BLACK
6
CONTINUOUS
10
95.3786
20
-141.417
11
95.3786
21
-142.465
0
LINE
8
BLACK
6
CONTINUOUS
10
98.9595
20
-140.37
11
97.2452
21
-142.941
0
LINE
8
BLACK
6
CONTINUOUS
10
101.207
20
-140.465
11
101.398
21
-140.465
0
LINE
8
BLACK
6
CONTINUOUS
10
101.398
20
-140.465
11
101.588
21
-140.56
0
LINE
8
BLACK
6
CONTINUOUS
10
101.588
20
-140.56
11
101.683
21
-140.655
0
LINE
8
BLACK
6
CONTINUOUS
10
101.683
20
-140.655
11
101.779
21
-140.846
0
LINE
8
BLACK
6
CONTINUOUS
10
101.779
20
-140.846
11
101.874
21
-141.227
0
LINE
8
BLACK
6
CONTINUOUS
10
101.874
20
-141.227
11
101.874
21
-141.703
0
LINE
8
BLACK
6
CONTINUOUS
10
101.874
20
-141.703
11
101.779
21
-142.084
0
LINE
8
BLACK
6
CONTINUOUS
10
101.779
20
-142.084
11
101.683
21
-142.274
0
LINE
8
BLACK
6
CONTINUOUS
10
101.683
20
-142.274
11
101.588
21
-142.37
0
LINE
8
BLACK
6
CONTINUOUS
10
101.588
20
-142.37
11
101.398
21
-142.465
0
LINE
8
BLACK
6
CONTINUOUS
10
101.398
20
-142.465
11
101.207
21
-142.465
0
LINE
8
BLACK
6
CONTINUOUS
10
101.207
20
-142.465
11
101.017
21
-142.37
0
LINE
8
BLACK
6
CONTINUOUS
10
101.017
20
-142.37
11
100.921
21
-142.274
0
LINE
8
BLACK
6
CONTINUOUS
10
100.921
20
-142.274
11
100.826
21
-142.084
0
LINE
8
BLACK
6
CONTINUOUS
10
100.826
20
-142.084
11
100.731
21
-141.703
0
LINE
8
BLACK
6
CONTINUOUS
10
100.731
20
-141.703
11
100.731
21
-141.227
0
LINE
8
BLACK
6
CONTINUOUS
10
100.731
20
-141.227
11
100.826
21
-140.846
0
LINE
8
BLACK
6
CONTINUOUS
10
100.826
20
-140.846
11
100.921
21
-140.655
0
LINE
8
BLACK
6
CONTINUOUS
10
100.921
20
-140.655
11
101.017
21
-140.56
0
LINE
8
BLACK
6
CONTINUOUS
10
101.017
20
-140.56
11
101.207
21
-140.465
0
LINE
8
BLACK
6
CONTINUOUS
10
102.731
20
-142.274
11
102.826
21
-142.37
0
LINE
8
BLACK
6
CONTINUOUS
10
102.826
20
-142.37
11
102.731
21
-142.465
0
LINE
8
BLACK
6
CONTINUOUS
10
102.731
20
-142.465
11
102.636
21
-142.37
0
LINE
8
BLACK
6
CONTINUOUS
10
102.636
20
-142.37
11
102.731
21
-142.274
0
LINE
8
BLACK
6
CONTINUOUS
10
102.731
20
-142.274
11
102.731
21
-142.465
0
LINE
8
BLACK
6
CONTINUOUS
10
104.064
20
-140.465
11
104.255
21
-140.465
0
LINE
8
BLACK
6
CONTINUOUS
10
104.255
20
-140.465
11
104.445
21
-140.56
0
LINE
8
BLACK
6
CONTINUOUS
10
104.445
20
-140.56
11
104.54
21
-140.655
0
LINE
8
BLACK
6
CONTINUOUS
10
104.54
20
-140.655
11
104.636
21
-140.846
0
LINE
8
BLACK
6
CONTINUOUS
10
104.636
20
-140.846
11
104.731
21
-141.227
0
LINE
8
BLACK
6
CONTINUOUS
10
104.731
20
-141.227
11
104.731
21
-141.703
0
LINE
8
BLACK
6
CONTINUOUS
10
104.731
20
-141.703
11
104.636
21
-142.084
0
LINE
8
BLACK
6
CONTINUOUS
10
104.636
20
-142.084
11
104.54
21
-142.274
0
LINE
8
BLACK
6
CONTINUOUS
10
104.54
20
-142.274
11
104.445
21
-142.37
0
LINE
8
BLACK
6
CONTINUOUS
10
104.445
20
-142.37
11
104.255
21
-142.465
0
LINE
8
BLACK
6
CONTINUOUS
10
104.255
20
-142.465
11
104.064
21
-142.465
0
LINE
8
BLACK
6
CONTINUOUS
10
104.064
20
-142.465
11
103.874
21
-142.37
0
LINE
8
BLACK
6
CONTINUOUS
10
103.874
20
-142.37
11
103.779
21
-142.274
0
LINE
8
BLACK
6
CONTINUOUS
10
103.779
20
-142.274
11
103.683
21
-142.084
0
LINE
8
BLACK
6
CONTINUOUS
10
103.683
20
-142.084
11
103.588
21
-141.703
0
LINE
8
BLACK
6
CONTINUOUS
10
103.588
20
-141.703
11
103.588
21
-141.227
0
LINE
8
BLACK
6
CONTINUOUS
10
103.588
20
-141.227
11
103.683
21
-140.846
0
LINE
8
BLACK
6
CONTINUOUS
10
103.683
20
-140.846
11
103.779
21
-140.655
0
LINE
8
BLACK
6
CONTINUOUS
10
103.779
20
-140.655
11
103.874
21
-140.56
0
LINE
8
BLACK
6
CONTINUOUS
10
103.874
20
-140.56
11
104.064
21
-140.465
0
LINE
8
BLACK
6
CONTINUOUS
10
106.54
20
-140.465
11
105.588
21
-140.465
0
LINE
8
BLACK
6
CONTINUOUS
10
105.588
20
-140.465
11
105.493
21
-141.417
0
LINE
8
BLACK
6
CONTINUOUS
10
105.493
20
-141.417
11
105.588
21
-141.322
0
LINE
8
BLACK
6
CONTINUOUS
10
105.588
20
-141.322
11
105.779
21
-141.227
0
LINE
8
BLACK
6
CONTINUOUS
10
105.779
20
-141.227
11
106.255
21
-141.227
0
LINE
8
BLACK
6
CONTINUOUS
10
106.255
20
-141.227
11
106.445
21
-141.322
0
LINE
8
BLACK
6
CONTINUOUS
10
106.445
20
-141.322
11
106.54
21
-141.417
0
LINE
8
BLACK
6
CONTINUOUS
10
106.54
20
-141.417
11
106.636
21
-141.608
0
LINE
8
BLACK
6
CONTINUOUS
10
106.636
20
-141.608
11
106.636
21
-142.084
0
LINE
8
BLACK
6
CONTINUOUS
10
106.636
20
-142.084
11
106.54
21
-142.274
0
LINE
8
BLACK
6
CONTINUOUS
10
106.54
20
-142.274
11
106.445
21
-142.37
0
LINE
8
BLACK
6
CONTINUOUS
10
106.445
20
-142.37
11
106.255
21
-142.465
0
LINE
8
BLACK
6
CONTINUOUS
10
106.255
20
-142.465
11
105.779
21
-142.465
0
LINE
8
BLACK
6
CONTINUOUS
10
105.779
20
-142.465
11
105.588
21
-142.37
0
LINE
8
BLACK
6
CONTINUOUS
10
105.588
20
-142.37
11
105.493
21
-142.274
0
LINE
8
BLACK
6
CONTINUOUS
10
108.54
20
-142.465
11
107.398
21
-142.465
0
LINE
8
BLACK
6
CONTINUOUS
10
107.969
20
-142.465
11
107.969
21
-140.465
0
LINE
8
BLACK
6
CONTINUOUS
10
107.969
20
-140.465
11
107.779
21
-140.75
0
LINE
8
BLACK
6
CONTINUOUS
10
107.779
20
-140.75
11
107.588
21
-140.941
0
LINE
8
BLACK
6
CONTINUOUS
10
107.588
20
-140.941
11
107.398
21
-141.036
0
LINE
8
BLACK
6
CONTINUOUS
10
109.302
20
-140.655
11
109.398
21
-140.56
0
LINE
8
BLACK
6
CONTINUOUS
10
109.398
20
-140.56
11
109.588
21
-140.465
0
LINE
8
BLACK
6
CONTINUOUS
10
109.588
20
-140.465
11
110.064
21
-140.465
0
LINE
8
BLACK
6
CONTINUOUS
10
110.064
20
-140.465
11
110.255
21
-140.56
0
LINE
8
BLACK
6
CONTINUOUS
10
110.255
20
-140.56
11
110.35
21
-140.655
0
LINE
8
BLACK
6
CONTINUOUS
10
110.35
20
-140.655
11
110.445
21
-140.846
0
LINE
8
BLACK
6
CONTINUOUS
10
110.445
20
-140.846
11
110.445
21
-141.036
0
LINE
8
BLACK
6
CONTINUOUS
10
110.445
20
-141.036
11
110.35
21
-141.322
0
LINE
8
BLACK
6
CONTINUOUS
10
110.35
20
-141.322
11
109.207
21
-142.465
0
LINE
8
BLACK
6
CONTINUOUS
10
109.207
20
-142.465
11
110.445
21
-142.465
0
LINE
8
BLACK
6
CONTINUOUS
10
111.207
20
-140.465
11
111.207
21
-140.846
0
LINE
8
BLACK
6
CONTINUOUS
10
111.969
20
-140.465
11
111.969
21
-140.846
0
LINE
8
BLACK
6
CONTINUOUS
10
114.598
20
-143.227
11
114.502
21
-143.131
0
LINE
8
BLACK
6
CONTINUOUS
10
114.502
20
-143.131
11
114.312
21
-142.846
0
LINE
8
BLACK
6
CONTINUOUS
10
114.312
20
-142.846
11
114.217
21
-142.655
0
LINE
8
BLACK
6
CONTINUOUS
10
114.217
20
-142.655
11
114.121
21
-142.37
0
LINE
8
BLACK
6
CONTINUOUS
10
114.121
20
-142.37
11
114.026
21
-141.893
0
LINE
8
BLACK
6
CONTINUOUS
10
114.026
20
-141.893
11
114.026
21
-141.512
0
LINE
8
BLACK
6
CONTINUOUS
10
114.026
20
-141.512
11
114.121
21
-141.036
0
LINE
8
BLACK
6
CONTINUOUS
10
114.121
20
-141.036
11
114.217
21
-140.75
0
LINE
8
BLACK
6
CONTINUOUS
10
114.217
20
-140.75
11
114.312
21
-140.56
0
LINE
8
BLACK
6
CONTINUOUS
10
114.312
20
-140.56
11
114.502
21
-140.274
0
LINE
8
BLACK
6
CONTINUOUS
10
114.502
20
-140.274
11
114.598
21
-140.179
0
LINE
8
BLACK
6
CONTINUOUS
10
116.407
20
-142.465
11
115.264
21
-142.465
0
LINE
8
BLACK
6
CONTINUOUS
10
115.836
20
-142.465
11
115.836
21
-140.465
0
LINE
8
BLACK
6
CONTINUOUS
10
115.836
20
-140.465
11
115.645
21
-140.75
0
LINE
8
BLACK
6
CONTINUOUS
10
115.645
20
-140.75
11
115.455
21
-140.941
0
LINE
8
BLACK
6
CONTINUOUS
10
115.455
20
-140.941
11
115.264
21
-141.036
0
LINE
8
BLACK
6
CONTINUOUS
10
117.645
20
-140.465
11
117.836
21
-140.465
0
LINE
8
BLACK
6
CONTINUOUS
10
117.836
20
-140.465
11
118.026
21
-140.56
0
LINE
8
BLACK
6
CONTINUOUS
10
118.026
20
-140.56
11
118.121
21
-140.655
0
LINE
8
BLACK
6
CONTINUOUS
10
118.121
20
-140.655
11
118.217
21
-140.846
0
LINE
8
BLACK
6
CONTINUOUS
10
118.217
20
-140.846
11
118.312
21
-141.227
0
LINE
8
BLACK
6
CONTINUOUS
10
118.312
20
-141.227
11
118.312
21
-141.703
0
LINE
8
BLACK
6
CONTINUOUS
10
118.312
20
-141.703
11
118.217
21
-142.084
0
LINE
8
BLACK
6
CONTINUOUS
10
118.217
20
-142.084
11
118.121
21
-142.274
0
LINE
8
BLACK
6
CONTINUOUS
10
118.121
20
-142.274
11
118.026
21
-142.37
0
LINE
8
BLACK
6
CONTINUOUS
10
118.026
20
-142.37
11
117.836
21
-142.465
0
LINE
8
BLACK
6
CONTINUOUS
10
117.836
20
-142.465
11
117.645
21
-142.465
0
LINE
8
BLACK
6
CONTINUOUS
10
117.645
20
-142.465
11
117.455
21
-142.37
0
LINE
8
BLACK
6
CONTINUOUS
10
117.455
20
-142.37
11
117.36
21
-142.274
0
LINE
8
BLACK
6
CONTINUOUS
10
117.36
20
-142.274
11
117.264
21
-142.084
0
LINE
8
BLACK
6
CONTINUOUS
10
117.264
20
-142.084
11
117.169
21
-141.703
0
LINE
8
BLACK
6
CONTINUOUS
10
117.169
20
-141.703
11
117.169
21
-141.227
0
LINE
8
BLACK
6
CONTINUOUS
10
117.169
20
-141.227
11
117.264
21
-140.846
0
LINE
8
BLACK
6
CONTINUOUS
10
117.264
20
-140.846
11
117.36
21
-140.655
0
LINE
8
BLACK
6
CONTINUOUS
10
117.36
20
-140.655
11
117.455
21
-140.56
0
LINE
8
BLACK
6
CONTINUOUS
10
117.455
20
-140.56
11
117.645
21
-140.465
0
LINE
8
BLACK
6
CONTINUOUS
10
120.369
20
-142.465
11
120.369
21
-140.465
0
LINE
8
BLACK
6
CONTINUOUS
10
121.226
20
-142.465
11
121.226
21
-141.417
0
LINE
8
BLACK
6
CONTINUOUS
10
121.226
20
-141.417
11
121.131
21
-141.227
0
LINE
8
BLACK
6
CONTINUOUS
10
121.131
20
-141.227
11
120.94
21
-141.131
0
LINE
8
BLACK
6
CONTINUOUS
10
120.94
20
-141.131
11
120.655
21
-141.131
0
LINE
8
BLACK
6
CONTINUOUS
10
120.655
20
-141.131
11
120.464
21
-141.227
0
LINE
8
BLACK
6
CONTINUOUS
10
120.464
20
-141.227
11
120.369
21
-141.322
0
LINE
8
BLACK
6
CONTINUOUS
10
122.464
20
-142.465
11
122.274
21
-142.37
0
LINE
8
BLACK
6
CONTINUOUS
10
122.274
20
-142.37
11
122.179
21
-142.274
0
LINE
8
BLACK
6
CONTINUOUS
10
122.179
20
-142.274
11
122.083
21
-142.084
0
LINE
8
BLACK
6
CONTINUOUS
10
122.083
20
-142.084
11
122.083
21
-141.512
0
LINE
8
BLACK
6
CONTINUOUS
10
122.083
20
-141.512
11
122.179
21
-141.322
0
LINE
8
BLACK
6
CONTINUOUS
10
122.179
20
-141.322
11
122.274
21
-141.227
0
LINE
8
BLACK
6
CONTINUOUS
10
122.274
20
-141.227
11
122.464
21
-141.131
0
LINE
8
BLACK
6
CONTINUOUS
10
122.464
20
-141.131
11
122.75
21
-141.131
0
LINE
8
BLACK
6
CONTINUOUS
10
122.75
20
-141.131
11
122.94
21
-141.227
0
LINE
8
BLACK
6
CONTINUOUS
10
122.94
20
-141.227
11
123.036
21
-141.322
0
LINE
8
BLACK
6
CONTINUOUS
10
123.036
20
-141.322
11
123.131
21
-141.512
0
LINE
8
BLACK
6
CONTINUOUS
10
123.131
20
-141.512
11
123.131
21
-142.084
0
LINE
8
BLACK
6
CONTINUOUS
10
123.131
20
-142.084
11
123.036
21
-142.274
0
LINE
8
BLACK
6
CONTINUOUS
10
123.036
20
-142.274
11
122.94
21
-142.37
0
LINE
8
BLACK
6
CONTINUOUS
10
122.94
20
-142.37
11
122.75
21
-142.465
0
LINE
8
BLACK
6
CONTINUOUS
10
122.75
20
-142.465
11
122.464
21
-142.465
0
LINE
8
BLACK
6
CONTINUOUS
10
124.274
20
-142.465
11
124.083
21
-142.37
0
LINE
8
BLACK
6
CONTINUOUS
10
124.083
20
-142.37
11
123.988
21
-142.179
0
LINE
8
BLACK
6
CONTINUOUS
10
123.988
20
-142.179
11
123.988
21
-140.465
0
LINE
8
BLACK
6
CONTINUOUS
10
125.798
20
-142.37
11
125.607
21
-142.465
0
LINE
8
BLACK
6
CONTINUOUS
10
125.607
20
-142.465
11
125.226
21
-142.465
0
LINE
8
BLACK
6
CONTINUOUS
10
125.226
20
-142.465
11
125.036
21
-142.37
0
LINE
8
BLACK
6
CONTINUOUS
10
125.036
20
-142.37
11
124.94
21
-142.179
0
LINE
8
BLACK
6
CONTINUOUS
10
124.94
20
-142.179
11
124.94
21
-141.417
0
LINE
8
BLACK
6
CONTINUOUS
10
124.94
20
-141.417
11
125.036
21
-141.227
0
LINE
8
BLACK
6
CONTINUOUS
10
125.036
20
-141.227
11
125.226
21
-141.131
0
LINE
8
BLACK
6
CONTINUOUS
10
125.226
20
-141.131
11
125.607
21
-141.131
0
LINE
8
BLACK
6
CONTINUOUS
10
125.607
20
-141.131
11
125.798
21
-141.227
0
LINE
8
BLACK
6
CONTINUOUS
10
125.798
20
-141.227
11
125.893
21
-141.417
0
LINE
8
BLACK
6
CONTINUOUS
10
125.893
20
-141.417
11
125.893
21
-141.608
0
LINE
8
BLACK
6
CONTINUOUS
10
125.893
20
-141.608
11
124.94
21
-141.798
0
LINE
8
BLACK
6
CONTINUOUS
10
126.655
20
-142.37
11
126.845
21
-142.465
0
LINE
8
BLACK
6
CONTINUOUS
10
126.845
20
-142.465
11
127.226
21
-142.465
0
LINE
8
BLACK
6
CONTINUOUS
10
127.226
20
-142.465
11
127.417
21
-142.37
0
LINE
8
BLACK
6
CONTINUOUS
10
127.417
20
-142.37
11
127.512
21
-142.179
0
LINE
8
BLACK
6
CONTINUOUS
10
127.512
20
-142.179
11
127.512
21
-142.084
0
LINE
8
BLACK
6
CONTINUOUS
10
127.512
20
-142.084
11
127.417
21
-141.893
0
LINE
8
BLACK
6
CONTINUOUS
10
127.417
20
-141.893
11
127.226
21
-141.798
0
LINE
8
BLACK
6
CONTINUOUS
10
127.226
20
-141.798
11
126.94
21
-141.798
0
LINE
8
BLACK
6
CONTINUOUS
10
126.94
20
-141.798
11
126.75
21
-141.703
0
LINE
8
BLACK
6
CONTINUOUS
10
126.75
20
-141.703
11
126.655
21
-141.512
0
LINE
8
BLACK
6
CONTINUOUS
10
126.655
20
-141.512
11
126.655
21
-141.417
0
LINE
8
BLACK
6
CONTINUOUS
10
126.655
20
-141.417
11
126.75
21
-141.227
0
LINE
8
BLACK
6
CONTINUOUS
10
126.75
20
-141.227
11
126.94
21
-141.131
0
LINE
8
BLACK
6
CONTINUOUS
10
126.94
20
-141.131
11
127.226
21
-141.131
0
LINE
8
BLACK
6
CONTINUOUS
10
127.226
20
-141.131
11
127.417
21
-141.227
0
LINE
8
BLACK
6
CONTINUOUS
10
128.179
20
-143.227
11
128.274
21
-143.131
0
LINE
8
BLACK
6
CONTINUOUS
10
128.274
20
-143.131
11
128.464
21
-142.846
0
LINE
8
BLACK
6
CONTINUOUS
10
128.464
20
-142.846
11
128.56
21
-142.655
0
LINE
8
BLACK
6
CONTINUOUS
10
128.56
20
-142.655
11
128.655
21
-142.37
0
LINE
8
BLACK
6
CONTINUOUS
10
128.655
20
-142.37
11
128.75
21
-141.893
0
LINE
8
BLACK
6
CONTINUOUS
10
128.75
20
-141.893
11
128.75
21
-141.512
0
LINE
8
BLACK
6
CONTINUOUS
10
128.75
20
-141.512
11
128.655
21
-141.036
0
LINE
8
BLACK
6
CONTINUOUS
10
128.655
20
-141.036
11
128.56
21
-140.75
0
LINE
8
BLACK
6
CONTINUOUS
10
128.56
20
-140.75
11
128.464
21
-140.56
0
LINE
8
BLACK
6
CONTINUOUS
10
128.464
20
-140.56
11
128.274
21
-140.274
0
LINE
8
BLACK
6
CONTINUOUS
10
128.274
20
-140.274
11
128.179
21
-140.179
0
LINE
8
BLACK
6
CONTINUOUS
10
79.7303
20
-144.9
11
79.7303
21
-143.84
0
LINE
8
BLACK
6
CONTINUOUS
10
79.7303
20
-143.84
11
78.6697
21
-143.84
0
LINE
8
BLACK
6
CONTINUOUS
10
78.6697
20
-143.84
11
78.6697
21
-144.9
0
LINE
8
BLACK
6
CONTINUOUS
10
78.6697
20
-144.9
11
79.7303
21
-144.9
0
LINE
8
BLACK
6
CONTINUOUS
10
83.4738
20
-145.105
11
82.331
21
-145.105
0
LINE
8
BLACK
6
CONTINUOUS
10
82.9024
20
-145.105
11
82.9024
21
-143.105
0
LINE
8
BLACK
6
CONTINUOUS
10
82.9024
20
-143.105
11
82.7119
21
-143.39
0
LINE
8
BLACK
6
CONTINUOUS
10
82.7119
20
-143.39
11
82.5214
21
-143.581
0
LINE
8
BLACK
6
CONTINUOUS
10
82.5214
20
-143.581
11
82.331
21
-143.676
0
LINE
8
BLACK
6
CONTINUOUS
10
84.331
20
-144.914
11
84.4262
21
-145.01
0
LINE
8
BLACK
6
CONTINUOUS
10
84.4262
20
-145.01
11
84.331
21
-145.105
0
LINE
8
BLACK
6
CONTINUOUS
10
84.331
20
-145.105
11
84.2357
21
-145.01
0
LINE
8
BLACK
6
CONTINUOUS
10
84.2357
20
-145.01
11
84.331
21
-144.914
0
LINE
8
BLACK
6
CONTINUOUS
10
84.331
20
-144.914
11
84.331
21
-145.105
0
LINE
8
BLACK
6
CONTINUOUS
10
86.2357
20
-143.105
11
85.2833
21
-143.105
0
LINE
8
BLACK
6
CONTINUOUS
10
85.2833
20
-143.105
11
85.1881
21
-144.057
0
LINE
8
BLACK
6
CONTINUOUS
10
85.1881
20
-144.057
11
85.2833
21
-143.962
0
LINE
8
BLACK
6
CONTINUOUS
10
85.2833
20
-143.962
11
85.4738
21
-143.867
0
LINE
8
BLACK
6
CONTINUOUS
10
85.4738
20
-143.867
11
85.95
21
-143.867
0
LINE
8
BLACK
6
CONTINUOUS
10
85.95
20
-143.867
11
86.1405
21
-143.962
0
LINE
8
BLACK
6
CONTINUOUS
10
86.1405
20
-143.962
11
86.2357
21
-144.057
0
LINE
8
BLACK
6
CONTINUOUS
10
86.2357
20
-144.057
11
86.331
21
-144.248
0
LINE
8
BLACK
6
CONTINUOUS
10
86.331
20
-144.248
11
86.331
21
-144.724
0
LINE
8
BLACK
6
CONTINUOUS
10
86.331
20
-144.724
11
86.2357
21
-144.914
0
LINE
8
BLACK
6
CONTINUOUS
10
86.2357
20
-144.914
11
86.1405
21
-145.01
0
LINE
8
BLACK
6
CONTINUOUS
10
86.1405
20
-145.01
11
85.95
21
-145.105
0
LINE
8
BLACK
6
CONTINUOUS
10
85.95
20
-145.105
11
85.4738
21
-145.105
0
LINE
8
BLACK
6
CONTINUOUS
10
85.4738
20
-145.105
11
85.2833
21
-145.01
0
LINE
8
BLACK
6
CONTINUOUS
10
85.2833
20
-145.01
11
85.1881
21
-144.914
0
LINE
8
BLACK
6
CONTINUOUS
10
87.569
20
-143.105
11
87.7595
21
-143.105
0
LINE
8
BLACK
6
CONTINUOUS
10
87.7595
20
-143.105
11
87.95
21
-143.2
0
LINE
8
BLACK
6
CONTINUOUS
10
87.95
20
-143.2
11
88.0452
21
-143.295
0
LINE
8
BLACK
6
CONTINUOUS
10
88.0452
20
-143.295
11
88.1405
21
-143.486
0
LINE
8
BLACK
6
CONTINUOUS
10
88.1405
20
-143.486
11
88.2357
21
-143.867
0
LINE
8
BLACK
6
CONTINUOUS
10
88.2357
20
-143.867
11
88.2357
21
-144.343
0
LINE
8
BLACK
6
CONTINUOUS
10
88.2357
20
-144.343
11
88.1405
21
-144.724
0
LINE
8
BLACK
6
CONTINUOUS
10
88.1405
20
-144.724
11
88.0452
21
-144.914
0
LINE
8
BLACK
6
CONTINUOUS
10
88.0452
20
-144.914
11
87.95
21
-145.01
0
LINE
8
BLACK
6
CONTINUOUS
10
87.95
20
-145.01
11
87.7595
21
-145.105
0
LINE
8
BLACK
6
CONTINUOUS
10
87.7595
20
-145.105
11
87.569
21
-145.105
0
LINE
8
BLACK
6
CONTINUOUS
10
87.569
20
-145.105
11
87.3786
21
-145.01
0
LINE
8
BLACK
6
CONTINUOUS
10
87.3786
20
-145.01
11
87.2833
21
-144.914
0
LINE
8
BLACK
6
CONTINUOUS
10
87.2833
20
-144.914
11
87.1881
21
-144.724
0
LINE
8
BLACK
6
CONTINUOUS
10
87.1881
20
-144.724
11
87.0929
21
-144.343
0
LINE
8
BLACK
6
CONTINUOUS
10
87.0929
20
-144.343
11
87.0929
21
-143.867
0
LINE
8
BLACK
6
CONTINUOUS
10
87.0929
20
-143.867
11
87.1881
21
-143.486
0
LINE
8
BLACK
6
CONTINUOUS
10
87.1881
20
-143.486
11
87.2833
21
-143.295
0
LINE
8
BLACK
6
CONTINUOUS
10
87.2833
20
-143.295
11
87.3786
21
-143.2
0
LINE
8
BLACK
6
CONTINUOUS
10
87.3786
20
-143.2
11
87.569
21
-143.105
0
LINE
8
BLACK
6
CONTINUOUS
10
89.4738
20
-143.105
11
89.6643
21
-143.105
0
LINE
8
BLACK
6
CONTINUOUS
10
89.6643
20
-143.105
11
89.8548
21
-143.2
0
LINE
8
BLACK
6
CONTINUOUS
10
89.8548
20
-143.2
11
89.95
21
-143.295
0
LINE
8
BLACK
6
CONTINUOUS
10
89.95
20
-143.295
11
90.0452
21
-143.486
0
LINE
8
BLACK
6
CONTINUOUS
10
90.0452
20
-143.486
11
90.1405
21
-143.867
0
LINE
8
BLACK
6
CONTINUOUS
10
90.1405
20
-143.867
11
90.1405
21
-144.343
0
LINE
8
BLACK
6
CONTINUOUS
10
90.1405
20
-144.343
11
90.0452
21
-144.724
0
LINE
8
BLACK
6
CONTINUOUS
10
90.0452
20
-144.724
11
89.95
21
-144.914
0
LINE
8
BLACK
6
CONTINUOUS
10
89.95
20
-144.914
11
89.8548
21
-145.01
0
LINE
8
BLACK
6
CONTINUOUS
10
89.8548
20
-145.01
11
89.6643
21
-145.105
0
LINE
8
BLACK
6
CONTINUOUS
10
89.6643
20
-145.105
11
89.4738
21
-145.105
0
LINE
8
BLACK
6
CONTINUOUS
10
89.4738
20
-145.105
11
89.2833
21
-145.01
0
LINE
8
BLACK
6
CONTINUOUS
10
89.2833
20
-145.01
11
89.1881
21
-144.914
0
LINE
8
BLACK
6
CONTINUOUS
10
89.1881
20
-144.914
11
89.0929
21
-144.724
0
LINE
8
BLACK
6
CONTINUOUS
10
89.0929
20
-144.724
11
88.9976
21
-144.343
0
LINE
8
BLACK
6
CONTINUOUS
10
88.9976
20
-144.343
11
88.9976
21
-143.867
0
LINE
8
BLACK
6
CONTINUOUS
10
88.9976
20
-143.867
11
89.0929
21
-143.486
0
LINE
8
BLACK
6
CONTINUOUS
10
89.0929
20
-143.486
11
89.1881
21
-143.295
0
LINE
8
BLACK
6
CONTINUOUS
10
89.1881
20
-143.295
11
89.2833
21
-143.2
0
LINE
8
BLACK
6
CONTINUOUS
10
89.2833
20
-143.2
11
89.4738
21
-143.105
0
LINE
8
BLACK
6
CONTINUOUS
10
90.9976
20
-145.105
11
90.9976
21
-143.771
0
LINE
8
BLACK
6
CONTINUOUS
10
90.9976
20
-143.962
11
91.0929
21
-143.867
0
LINE
8
BLACK
6
CONTINUOUS
10
91.0929
20
-143.867
11
91.2833
21
-143.771
0
LINE
8
BLACK
6
CONTINUOUS
10
91.2833
20
-143.771
11
91.569
21
-143.771
0
LINE
8
BLACK
6
CONTINUOUS
10
91.569
20
-143.771
11
91.7595
21
-143.867
0
LINE
8
BLACK
6
CONTINUOUS
10
91.7595
20
-143.867
11
91.8548
21
-144.057
0
LINE
8
BLACK
6
CONTINUOUS
10
91.8548
20
-144.057
11
91.8548
21
-145.105
0
LINE
8
BLACK
6
CONTINUOUS
10
91.8548
20
-144.057
11
91.95
21
-143.867
0
LINE
8
BLACK
6
CONTINUOUS
10
91.95
20
-143.867
11
92.1405
21
-143.771
0
LINE
8
BLACK
6
CONTINUOUS
10
92.1405
20
-143.771
11
92.4262
21
-143.771
0
LINE
8
BLACK
6
CONTINUOUS
10
92.4262
20
-143.771
11
92.6167
21
-143.867
0
LINE
8
BLACK
6
CONTINUOUS
10
92.6167
20
-143.867
11
92.7119
21
-144.057
0
LINE
8
BLACK
6
CONTINUOUS
10
92.7119
20
-144.057
11
92.7119
21
-145.105
0
LINE
8
BLACK
6
CONTINUOUS
10
93.6643
20
-145.105
11
93.6643
21
-143.771
0
LINE
8
BLACK
6
CONTINUOUS
10
93.6643
20
-143.962
11
93.7595
21
-143.867
0
LINE
8
BLACK
6
CONTINUOUS
10
93.7595
20
-143.867
11
93.95
21
-143.771
0
LINE
8
BLACK
6
CONTINUOUS
10
93.95
20
-143.771
11
94.2357
21
-143.771
0
LINE
8
BLACK
6
CONTINUOUS
10
94.2357
20
-143.771
11
94.4262
21
-143.867
0
LINE
8
BLACK
6
CONTINUOUS
10
94.4262
20
-143.867
11
94.5214
21
-144.057
0
LINE
8
BLACK
6
CONTINUOUS
10
94.5214
20
-144.057
11
94.5214
21
-145.105
0
LINE
8
BLACK
6
CONTINUOUS
10
94.5214
20
-144.057
11
94.6167
21
-143.867
0
LINE
8
BLACK
6
CONTINUOUS
10
94.6167
20
-143.867
11
94.8071
21
-143.771
0
LINE
8
BLACK
6
CONTINUOUS
10
94.8071
20
-143.771
11
95.0929
21
-143.771
0
LINE
8
BLACK
6
CONTINUOUS
10
95.0929
20
-143.771
11
95.2833
21
-143.867
0
LINE
8
BLACK
6
CONTINUOUS
10
95.2833
20
-143.867
11
95.3786
21
-144.057
0
LINE
8
BLACK
6
CONTINUOUS
10
95.3786
20
-144.057
11
95.3786
21
-145.105
0
LINE
8
BLACK
6
CONTINUOUS
10
98.9595
20
-143.01
11
97.2452
21
-145.581
0
LINE
8
BLACK
6
CONTINUOUS
10
101.207
20
-143.105
11
101.398
21
-143.105
0
LINE
8
BLACK
6
CONTINUOUS
10
101.398
20
-143.105
11
101.588
21
-143.2
0
LINE
8
BLACK
6
CONTINUOUS
10
101.588
20
-143.2
11
101.683
21
-143.295
0
LINE
8
BLACK
6
CONTINUOUS
10
101.683
20
-143.295
11
101.779
21
-143.486
0
LINE
8
BLACK
6
CONTINUOUS
10
101.779
20
-143.486
11
101.874
21
-143.867
0
LINE
8
BLACK
6
CONTINUOUS
10
101.874
20
-143.867
11
101.874
21
-144.343
0
LINE
8
BLACK
6
CONTINUOUS
10
101.874
20
-144.343
11
101.779
21
-144.724
0
LINE
8
BLACK
6
CONTINUOUS
10
101.779
20
-144.724
11
101.683
21
-144.914
0
LINE
8
BLACK
6
CONTINUOUS
10
101.683
20
-144.914
11
101.588
21
-145.01
0
LINE
8
BLACK
6
CONTINUOUS
10
101.588
20
-145.01
11
101.398
21
-145.105
0
LINE
8
BLACK
6
CONTINUOUS
10
101.398
20
-145.105
11
101.207
21
-145.105
0
LINE
8
BLACK
6
CONTINUOUS
10
101.207
20
-145.105
11
101.017
21
-145.01
0
LINE
8
BLACK
6
CONTINUOUS
10
101.017
20
-145.01
11
100.921
21
-144.914
0
LINE
8
BLACK
6
CONTINUOUS
10
100.921
20
-144.914
11
100.826
21
-144.724
0
LINE
8
BLACK
6
CONTINUOUS
10
100.826
20
-144.724
11
100.731
21
-144.343
0
LINE
8
BLACK
6
CONTINUOUS
10
100.731
20
-144.343
11
100.731
21
-143.867
0
LINE
8
BLACK
6
CONTINUOUS
10
100.731
20
-143.867
11
100.826
21
-143.486
0
LINE
8
BLACK
6
CONTINUOUS
10
100.826
20
-143.486
11
100.921
21
-143.295
0
LINE
8
BLACK
6
CONTINUOUS
10
100.921
20
-143.295
11
101.017
21
-143.2
0
LINE
8
BLACK
6
CONTINUOUS
10
101.017
20
-143.2
11
101.207
21
-143.105
0
LINE
8
BLACK
6
CONTINUOUS
10
102.731
20
-144.914
11
102.826
21
-145.01
0
LINE
8
BLACK
6
CONTINUOUS
10
102.826
20
-145.01
11
102.731
21
-145.105
0
LINE
8
BLACK
6
CONTINUOUS
10
102.731
20
-145.105
11
102.636
21
-145.01
0
LINE
8
BLACK
6
CONTINUOUS
10
102.636
20
-145.01
11
102.731
21
-144.914
0
LINE
8
BLACK
6
CONTINUOUS
10
102.731
20
-144.914
11
102.731
21
-145.105
0
LINE
8
BLACK
6
CONTINUOUS
10
104.064
20
-143.105
11
104.255
21
-143.105
0
LINE
8
BLACK
6
CONTINUOUS
10
104.255
20
-143.105
11
104.445
21
-143.2
0
LINE
8
BLACK
6
CONTINUOUS
10
104.445
20
-143.2
11
104.54
21
-143.295
0
LINE
8
BLACK
6
CONTINUOUS
10
104.54
20
-143.295
11
104.636
21
-143.486
0
LINE
8
BLACK
6
CONTINUOUS
10
104.636
20
-143.486
11
104.731
21
-143.867
0
LINE
8
BLACK
6
CONTINUOUS
10
104.731
20
-143.867
11
104.731
21
-144.343
0
LINE
8
BLACK
6
CONTINUOUS
10
104.731
20
-144.343
11
104.636
21
-144.724
0
LINE
8
BLACK
6
CONTINUOUS
10
104.636
20
-144.724
11
104.54
21
-144.914
0
LINE
8
BLACK
6
CONTINUOUS
10
104.54
20
-144.914
11
104.445
21
-145.01
0
LINE
8
BLACK
6
CONTINUOUS
10
104.445
20
-145.01
11
104.255
21
-145.105
0
LINE
8
BLACK
6
CONTINUOUS
10
104.255
20
-145.105
11
104.064
21
-145.105
0
LINE
8
BLACK
6
CONTINUOUS
10
104.064
20
-145.105
11
103.874
21
-145.01
0
LINE
8
BLACK
6
CONTINUOUS
10
103.874
20
-145.01
11
103.779
21
-144.914
0
LINE
8
BLACK
6
CONTINUOUS
10
103.779
20
-144.914
11
103.683
21
-144.724
0
LINE
8
BLACK
6
CONTINUOUS
10
103.683
20
-144.724
11
103.588
21
-144.343
0
LINE
8
BLACK
6
CONTINUOUS
10
103.588
20
-144.343
11
103.588
21
-143.867
0
LINE
8
BLACK
6
CONTINUOUS
10
103.588
20
-143.867
11
103.683
21
-143.486
0
LINE
8
BLACK
6
CONTINUOUS
10
103.683
20
-143.486
11
103.779
21
-143.295
0
LINE
8
BLACK
6
CONTINUOUS
10
103.779
20
-143.295
11
103.874
21
-143.2
0
LINE
8
BLACK
6
CONTINUOUS
10
103.874
20
-143.2
11
104.064
21
-143.105
0
LINE
8
BLACK
6
CONTINUOUS
10
106.54
20
-143.105
11
105.588
21
-143.105
0
LINE
8
BLACK
6
CONTINUOUS
10
105.588
20
-143.105
11
105.493
21
-144.057
0
LINE
8
BLACK
6
CONTINUOUS
10
105.493
20
-144.057
11
105.588
21
-143.962
0
LINE
8
BLACK
6
CONTINUOUS
10
105.588
20
-143.962
11
105.779
21
-143.867
0
LINE
8
BLACK
6
CONTINUOUS
10
105.779
20
-143.867
11
106.255
21
-143.867
0
LINE
8
BLACK
6
CONTINUOUS
10
106.255
20
-143.867
11
106.445
21
-143.962
0
LINE
8
BLACK
6
CONTINUOUS
10
106.445
20
-143.962
11
106.54
21
-144.057
0
LINE
8
BLACK
6
CONTINUOUS
10
106.54
20
-144.057
11
106.636
21
-144.248
0
LINE
8
BLACK
6
CONTINUOUS
10
106.636
20
-144.248
11
106.636
21
-144.724
0
LINE
8
BLACK
6
CONTINUOUS
10
106.636
20
-144.724
11
106.54
21
-144.914
0
LINE
8
BLACK
6
CONTINUOUS
10
106.54
20
-144.914
11
106.445
21
-145.01
0
LINE
8
BLACK
6
CONTINUOUS
10
106.445
20
-145.01
11
106.255
21
-145.105
0
LINE
8
BLACK
6
CONTINUOUS
10
106.255
20
-145.105
11
105.779
21
-145.105
0
LINE
8
BLACK
6
CONTINUOUS
10
105.779
20
-145.105
11
105.588
21
-145.01
0
LINE
8
BLACK
6
CONTINUOUS
10
105.588
20
-145.01
11
105.493
21
-144.914
0
LINE
8
BLACK
6
CONTINUOUS
10
107.588
20
-145.105
11
107.969
21
-145.105
0
LINE
8
BLACK
6
CONTINUOUS
10
107.969
20
-145.105
11
108.16
21
-145.01
0
LINE
8
BLACK
6
CONTINUOUS
10
108.16
20
-145.01
11
108.255
21
-144.914
0
LINE
8
BLACK
6
CONTINUOUS
10
108.255
20
-144.914
11
108.445
21
-144.629
0
LINE
8
BLACK
6
CONTINUOUS
10
108.445
20
-144.629
11
108.54
21
-144.248
0
LINE
8
BLACK
6
CONTINUOUS
10
108.54
20
-144.248
11
108.54
21
-143.486
0
LINE
8
BLACK
6
CONTINUOUS
10
108.54
20
-143.486
11
108.445
21
-143.295
0
LINE
8
BLACK
6
CONTINUOUS
10
108.445
20
-143.295
11
108.35
21
-143.2
0
LINE
8
BLACK
6
CONTINUOUS
10
108.35
20
-143.2
11
108.16
21
-143.105
0
LINE
8
BLACK
6
CONTINUOUS
10
108.16
20
-143.105
11
107.779
21
-143.105
0
LINE
8
BLACK
6
CONTINUOUS
10
107.779
20
-143.105
11
107.588
21
-143.2
0
LINE
8
BLACK
6
CONTINUOUS
10
107.588
20
-143.2
11
107.493
21
-143.295
0
LINE
8
BLACK
6
CONTINUOUS
10
107.493
20
-143.295
11
107.398
21
-143.486
0
LINE
8
BLACK
6
CONTINUOUS
10
107.398
20
-143.486
11
107.398
21
-143.962
0
LINE
8
BLACK
6
CONTINUOUS
10
107.398
20
-143.962
11
107.493
21
-144.152
0
LINE
8
BLACK
6
CONTINUOUS
10
107.493
20
-144.152
11
107.588
21
-144.248
0
LINE
8
BLACK
6
CONTINUOUS
10
107.588
20
-144.248
11
107.779
21
-144.343
0
LINE
8
BLACK
6
CONTINUOUS
10
107.779
20
-144.343
11
108.16
21
-144.343
0
LINE
8
BLACK
6
CONTINUOUS
10
108.16
20
-144.343
11
108.35
21
-144.248
0
LINE
8
BLACK
6
CONTINUOUS
10
108.35
20
-144.248
11
108.445
21
-144.152
0
LINE
8
BLACK
6
CONTINUOUS
10
108.445
20
-144.152
11
108.54
21
-143.962
0
LINE
8
BLACK
6
CONTINUOUS
10
110.445
20
-145.105
11
109.302
21
-145.105
0
LINE
8
BLACK
6
CONTINUOUS
10
109.874
20
-145.105
11
109.874
21
-143.105
0
LINE
8
BLACK
6
CONTINUOUS
10
109.874
20
-143.105
11
109.683
21
-143.39
0
LINE
8
BLACK
6
CONTINUOUS
10
109.683
20
-143.39
11
109.493
21
-143.581
0
LINE
8
BLACK
6
CONTINUOUS
10
109.493
20
-143.581
11
109.302
21
-143.676
0
LINE
8
BLACK
6
CONTINUOUS
10
111.207
20
-143.105
11
111.207
21
-143.486
0
LINE
8
BLACK
6
CONTINUOUS
10
111.969
20
-143.105
11
111.969
21
-143.486
0
LINE
8
BLACK
6
CONTINUOUS
10
114.598
20
-145.867
11
114.502
21
-145.771
0
LINE
8
BLACK
6
CONTINUOUS
10
114.502
20
-145.771
11
114.312
21
-145.486
0
LINE
8
BLACK
6
CONTINUOUS
10
114.312
20
-145.486
11
114.217
21
-145.295
0
LINE
8
BLACK
6
CONTINUOUS
10
114.217
20
-145.295
11
114.121
21
-145.01
0
LINE
8
BLACK
6
CONTINUOUS
10
114.121
20
-145.01
11
114.026
21
-144.533
0
LINE
8
BLACK
6
CONTINUOUS
10
114.026
20
-144.533
11
114.026
21
-144.152
0
LINE
8
BLACK
6
CONTINUOUS
10
114.026
20
-144.152
11
114.121
21
-143.676
0
LINE
8
BLACK
6
CONTINUOUS
10
114.121
20
-143.676
11
114.217
21
-143.39
0
LINE
8
BLACK
6
CONTINUOUS
10
114.217
20
-143.39
11
114.312
21
-143.2
0
LINE
8
BLACK
6
CONTINUOUS
10
114.312
20
-143.2
11
114.502
21
-142.914
0
LINE
8
BLACK
6
CONTINUOUS
10
114.502
20
-142.914
11
114.598
21
-142.819
0
LINE
8
BLACK
6
CONTINUOUS
10
115.264
20
-143.295
11
115.36
21
-143.2
0
LINE
8
BLACK
6
CONTINUOUS
10
115.36
20
-143.2
11
115.55
21
-143.105
0
LINE
8
BLACK
6
CONTINUOUS
10
115.55
20
-143.105
11
116.026
21
-143.105
0
LINE
8
BLACK
6
CONTINUOUS
10
116.026
20
-143.105
11
116.217
21
-143.2
0
LINE
8
BLACK
6
CONTINUOUS
10
116.217
20
-143.2
11
116.312
21
-143.295
0
LINE
8
BLACK
6
CONTINUOUS
10
116.312
20
-143.295
11
116.407
21
-143.486
0
LINE
8
BLACK
6
CONTINUOUS
10
116.407
20
-143.486
11
116.407
21
-143.676
0
LINE
8
BLACK
6
CONTINUOUS
10
116.407
20
-143.676
11
116.312
21
-143.962
0
LINE
8
BLACK
6
CONTINUOUS
10
116.312
20
-143.962
11
115.169
21
-145.105
0
LINE
8
BLACK
6
CONTINUOUS
10
115.169
20
-145.105
11
116.407
21
-145.105
0
LINE
8
BLACK
6
CONTINUOUS
10
118.464
20
-145.105
11
118.464
21
-143.105
0
LINE
8
BLACK
6
CONTINUOUS
10
119.321
20
-145.105
11
119.321
21
-144.057
0
LINE
8
BLACK
6
CONTINUOUS
10
119.321
20
-144.057
11
119.226
21
-143.867
0
LINE
8
BLACK
6
CONTINUOUS
10
119.226
20
-143.867
11
119.036
21
-143.771
0
LINE
8
BLACK
6
CONTINUOUS
10
119.036
20
-143.771
11
118.75
21
-143.771
0
LINE
8
BLACK
6
CONTINUOUS
10
118.75
20
-143.771
11
118.56
21
-143.867
0
LINE
8
BLACK
6
CONTINUOUS
10
118.56
20
-143.867
11
118.464
21
-143.962
0
LINE
8
BLACK
6
CONTINUOUS
10
120.56
20
-145.105
11
120.369
21
-145.01
0
LINE
8
BLACK
6
CONTINUOUS
10
120.369
20
-145.01
11
120.274
21
-144.914
0
LINE
8
BLACK
6
CONTINUOUS
10
120.274
20
-144.914
11
120.179
21
-144.724
0
LINE
8
BLACK
6
CONTINUOUS
10
120.179
20
-144.724
11
120.179
21
-144.152
0
LINE
8
BLACK
6
CONTINUOUS
10
120.179
20
-144.152
11
120.274
21
-143.962
0
LINE
8
BLACK
6
CONTINUOUS
10
120.274
20
-143.962
11
120.369
21
-143.867
0
LINE
8
BLACK
6
CONTINUOUS
10
120.369
20
-143.867
11
120.56
21
-143.771
0
LINE
8
BLACK
6
CONTINUOUS
10
120.56
20
-143.771
11
120.845
21
-143.771
0
LINE
8
BLACK
6
CONTINUOUS
10
120.845
20
-143.771
11
121.036
21
-143.867
0
LINE
8
BLACK
6
CONTINUOUS
10
121.036
20
-143.867
11
121.131
21
-143.962
0
LINE
8
BLACK
6
CONTINUOUS
10
121.131
20
-143.962
11
121.226
21
-144.152
0
LINE
8
BLACK
6
CONTINUOUS
10
121.226
20
-144.152
11
121.226
21
-144.724
0
LINE
8
BLACK
6
CONTINUOUS
10
121.226
20
-144.724
11
121.131
21
-144.914
0
LINE
8
BLACK
6
CONTINUOUS
10
121.131
20
-144.914
11
121.036
21
-145.01
0
LINE
8
BLACK
6
CONTINUOUS
10
121.036
20
-145.01
11
120.845
21
-145.105
0
LINE
8
BLACK
6
CONTINUOUS
10
120.845
20
-145.105
11
120.56
21
-145.105
0
LINE
8
BLACK
6
CONTINUOUS
10
122.369
20
-145.105
11
122.179
21
-145.01
0
LINE
8
BLACK
6
CONTINUOUS
10
122.179
20
-145.01
11
122.083
21
-144.819
0
LINE
8
BLACK
6
CONTINUOUS
10
122.083
20
-144.819
11
122.083
21
-143.105
0
LINE
8
BLACK
6
CONTINUOUS
10
123.893
20
-145.01
11
123.702
21
-145.105
0
LINE
8
BLACK
6
CONTINUOUS
10
123.702
20
-145.105
11
123.321
21
-145.105
0
LINE
8
BLACK
6
CONTINUOUS
10
123.321
20
-145.105
11
123.131
21
-145.01
0
LINE
8
BLACK
6
CONTINUOUS
10
123.131
20
-145.01
11
123.036
21
-144.819
0
LINE
8
BLACK
6
CONTINUOUS
10
123.036
20
-144.819
11
123.036
21
-144.057
0
LINE
8
BLACK
6
CONTINUOUS
10
123.036
20
-144.057
11
123.131
21
-143.867
0
LINE
8
BLACK
6
CONTINUOUS
10
123.131
20
-143.867
11
123.321
21
-143.771
0
LINE
8
BLACK
6
CONTINUOUS
10
123.321
20
-143.771
11
123.702
21
-143.771
0
LINE
8
BLACK
6
CONTINUOUS
10
123.702
20
-143.771
11
123.893
21
-143.867
0
LINE
8
BLACK
6
CONTINUOUS
10
123.893
20
-143.867
11
123.988
21
-144.057
0
LINE
8
BLACK
6
CONTINUOUS
10
123.988
20
-144.057
11
123.988
21
-144.248
0
LINE
8
BLACK
6
CONTINUOUS
10
123.988
20
-144.248
11
123.036
21
-144.438
0
LINE
8
BLACK
6
CONTINUOUS
10
124.75
20
-145.01
11
124.94
21
-145.105
0
LINE
8
BLACK
6
CONTINUOUS
10
124.94
20
-145.105
11
125.321
21
-145.105
0
LINE
8
BLACK
6
CONTINUOUS
10
125.321
20
-145.105
11
125.512
21
-145.01
0
LINE
8
BLACK
6
CONTINUOUS
10
125.512
20
-145.01
11
125.607
21
-144.819
0
LINE
8
BLACK
6
CONTINUOUS
10
125.607
20
-144.819
11
125.607
21
-144.724
0
LINE
8
BLACK
6
CONTINUOUS
10
125.607
20
-144.724
11
125.512
21
-144.533
0
LINE
8
BLACK
6
CONTINUOUS
10
125.512
20
-144.533
11
125.321
21
-144.438
0
LINE
8
BLACK
6
CONTINUOUS
10
125.321
20
-144.438
11
125.036
21
-144.438
0
LINE
8
BLACK
6
CONTINUOUS
10
125.036
20
-144.438
11
124.845
21
-144.343
0
LINE
8
BLACK
6
CONTINUOUS
10
124.845
20
-144.343
11
124.75
21
-144.152
0
LINE
8
BLACK
6
CONTINUOUS
10
124.75
20
-144.152
11
124.75
21
-144.057
0
LINE
8
BLACK
6
CONTINUOUS
10
124.75
20
-144.057
11
124.845
21
-143.867
0
LINE
8
BLACK
6
CONTINUOUS
10
124.845
20
-143.867
11
125.036
21
-143.771
0
LINE
8
BLACK
6
CONTINUOUS
10
125.036
20
-143.771
11
125.321
21
-143.771
0
LINE
8
BLACK
6
CONTINUOUS
10
125.321
20
-143.771
11
125.512
21
-143.867
0
LINE
8
BLACK
6
CONTINUOUS
10
126.274
20
-145.867
11
126.369
21
-145.771
0
LINE
8
BLACK
6
CONTINUOUS
10
126.369
20
-145.771
11
126.56
21
-145.486
0
LINE
8
BLACK
6
CONTINUOUS
10
126.56
20
-145.486
11
126.655
21
-145.295
0
LINE
8
BLACK
6
CONTINUOUS
10
126.655
20
-145.295
11
126.75
21
-145.01
0
LINE
8
BLACK
6
CONTINUOUS
10
126.75
20
-145.01
11
126.845
21
-144.533
0
LINE
8
BLACK
6
CONTINUOUS
10
126.845
20
-144.533
11
126.845
21
-144.152
0
LINE
8
BLACK
6
CONTINUOUS
10
126.845
20
-144.152
11
126.75
21
-143.676
0
LINE
8
BLACK
6
CONTINUOUS
10
126.75
20
-143.676
11
126.655
21
-143.39
0
LINE
8
BLACK
6
CONTINUOUS
10
126.655
20
-143.39
11
126.56
21
-143.2
0
LINE
8
BLACK
6
CONTINUOUS
10
126.56
20
-143.2
11
126.369
21
-142.914
0
LINE
8
BLACK
6
CONTINUOUS
10
126.369
20
-142.914
11
126.274
21
-142.819
0
LINE
8
BLACK
6
CONTINUOUS
10
78.95
20
-148.07
11
79.95
21
-147.07
0
LINE
8
BLACK
6
CONTINUOUS
10
79.95
20
-147.07
11
78.95
21
-146.07
0
LINE
8
BLACK
6
CONTINUOUS
10
78.95
20
-146.07
11
77.95
21
-147.07
0
LINE
8
BLACK
6
CONTINUOUS
10
77.95
20
-147.07
11
78.95
21
-148.07
0
LINE
8
BLACK
6
CONTINUOUS
10
82.2357
20
-145.805
11
83.4738
21
-145.805
0
LINE
8
BLACK
6
CONTINUOUS
10
83.4738
20
-145.805
11
82.8071
21
-146.567
0
LINE
8
BLACK
6
CONTINUOUS
10
82.8071
20
-146.567
11
83.0929
21
-146.567
0
LINE
8
BLACK
6
CONTINUOUS
10
83.0929
20
-146.567
11
83.2833
21
-146.662
0
LINE
8
BLACK
6
CONTINUOUS
10
83.2833
20
-146.662
11
83.3786
21
-146.757
0
LINE
8
BLACK
6
CONTINUOUS
10
83.3786
20
-146.757
11
83.4738
21
-146.948
0
LINE
8
BLACK
6
CONTINUOUS
10
83.4738
20
-146.948
11
83.4738
21
-147.424
0
LINE
8
BLACK
6
CONTINUOUS
10
83.4738
20
-147.424
11
83.3786
21
-147.614
0
LINE
8
BLACK
6
CONTINUOUS
10
83.3786
20
-147.614
11
83.2833
21
-147.71
0
LINE
8
BLACK
6
CONTINUOUS
10
83.2833
20
-147.71
11
83.0929
21
-147.805
0
LINE
8
BLACK
6
CONTINUOUS
10
83.0929
20
-147.805
11
82.5214
21
-147.805
0
LINE
8
BLACK
6
CONTINUOUS
10
82.5214
20
-147.805
11
82.331
21
-147.71
0
LINE
8
BLACK
6
CONTINUOUS
10
82.331
20
-147.71
11
82.2357
21
-147.614
0
LINE
8
BLACK
6
CONTINUOUS
10
84.331
20
-147.614
11
84.4262
21
-147.71
0
LINE
8
BLACK
6
CONTINUOUS
10
84.4262
20
-147.71
11
84.331
21
-147.805
0
LINE
8
BLACK
6
CONTINUOUS
10
84.331
20
-147.805
11
84.2357
21
-147.71
0
LINE
8
BLACK
6
CONTINUOUS
10
84.2357
20
-147.71
11
84.331
21
-147.614
0
LINE
8
BLACK
6
CONTINUOUS
10
84.331
20
-147.614
11
84.331
21
-147.805
0
LINE
8
BLACK
6
CONTINUOUS
10
85.1881
20
-145.995
11
85.2833
21
-145.9
0
LINE
8
BLACK
6
CONTINUOUS
10
85.2833
20
-145.9
11
85.4738
21
-145.805
0
LINE
8
BLACK
6
CONTINUOUS
10
85.4738
20
-145.805
11
85.95
21
-145.805
0
LINE
8
BLACK
6
CONTINUOUS
10
85.95
20
-145.805
11
86.1405
21
-145.9
0
LINE
8
BLACK
6
CONTINUOUS
10
86.1405
20
-145.9
11
86.2357
21
-145.995
0
LINE
8
BLACK
6
CONTINUOUS
10
86.2357
20
-145.995
11
86.331
21
-146.186
0
LINE
8
BLACK
6
CONTINUOUS
10
86.331
20
-146.186
11
86.331
21
-146.376
0
LINE
8
BLACK
6
CONTINUOUS
10
86.331
20
-146.376
11
86.2357
21
-146.662
0
LINE
8
BLACK
6
CONTINUOUS
10
86.2357
20
-146.662
11
85.0929
21
-147.805
0
LINE
8
BLACK
6
CONTINUOUS
10
85.0929
20
-147.805
11
86.331
21
-147.805
0
LINE
8
BLACK
6
CONTINUOUS
10
87.569
20
-145.805
11
87.7595
21
-145.805
0
LINE
8
BLACK
6
CONTINUOUS
10
87.7595
20
-145.805
11
87.95
21
-145.9
0
LINE
8
BLACK
6
CONTINUOUS
10
87.95
20
-145.9
11
88.0452
21
-145.995
0
LINE
8
BLACK
6
CONTINUOUS
10
88.0452
20
-145.995
11
88.1405
21
-146.186
0
LINE
8
BLACK
6
CONTINUOUS
10
88.1405
20
-146.186
11
88.2357
21
-146.567
0
LINE
8
BLACK
6
CONTINUOUS
10
88.2357
20
-146.567
11
88.2357
21
-147.043
0
LINE
8
BLACK
6
CONTINUOUS
10
88.2357
20
-147.043
11
88.1405
21
-147.424
0
LINE
8
BLACK
6
CONTINUOUS
10
88.1405
20
-147.424
11
88.0452
21
-147.614
0
LINE
8
BLACK
6
CONTINUOUS
10
88.0452
20
-147.614
11
87.95
21
-147.71
0
LINE
8
BLACK
6
CONTINUOUS
10
87.95
20
-147.71
11
87.7595
21
-147.805
0
LINE
8
BLACK
6
CONTINUOUS
10
87.7595
20
-147.805
11
87.569
21
-147.805
0
LINE
8
BLACK
6
CONTINUOUS
10
87.569
20
-147.805
11
87.3786
21
-147.71
0
LINE
8
BLACK
6
CONTINUOUS
10
87.3786
20
-147.71
11
87.2833
21
-147.614
0
LINE
8
BLACK
6
CONTINUOUS
10
87.2833
20
-147.614
11
87.1881
21
-147.424
0
LINE
8
BLACK
6
CONTINUOUS
10
87.1881
20
-147.424
11
87.0929
21
-147.043
0
LINE
8
BLACK
6
CONTINUOUS
10
87.0929
20
-147.043
11
87.0929
21
-146.567
0
LINE
8
BLACK
6
CONTINUOUS
10
87.0929
20
-146.567
11
87.1881
21
-146.186
0
LINE
8
BLACK
6
CONTINUOUS
10
87.1881
20
-146.186
11
87.2833
21
-145.995
0
LINE
8
BLACK
6
CONTINUOUS
10
87.2833
20
-145.995
11
87.3786
21
-145.9
0
LINE
8
BLACK
6
CONTINUOUS
10
87.3786
20
-145.9
11
87.569
21
-145.805
0
LINE
8
BLACK
6
CONTINUOUS
10
89.4738
20
-145.805
11
89.6643
21
-145.805
0
LINE
8
BLACK
6
CONTINUOUS
10
89.6643
20
-145.805
11
89.8548
21
-145.9
0
LINE
8
BLACK
6
CONTINUOUS
10
89.8548
20
-145.9
11
89.95
21
-145.995
0
LINE
8
BLACK
6
CONTINUOUS
10
89.95
20
-145.995
11
90.0452
21
-146.186
0
LINE
8
BLACK
6
CONTINUOUS
10
90.0452
20
-146.186
11
90.1405
21
-146.567
0
LINE
8
BLACK
6
CONTINUOUS
10
90.1405
20
-146.567
11
90.1405
21
-147.043
0
LINE
8
BLACK
6
CONTINUOUS
10
90.1405
20
-147.043
11
90.0452
21
-147.424
0
LINE
8
BLACK
6
CONTINUOUS
10
90.0452
20
-147.424
11
89.95
21
-147.614
0
LINE
8
BLACK
6
CONTINUOUS
10
89.95
20
-147.614
11
89.8548
21
-147.71
0
LINE
8
BLACK
6
CONTINUOUS
10
89.8548
20
-147.71
11
89.6643
21
-147.805
0
LINE
8
BLACK
6
CONTINUOUS
10
89.6643
20
-147.805
11
89.4738
21
-147.805
0
LINE
8
BLACK
6
CONTINUOUS
10
89.4738
20
-147.805
11
89.2833
21
-147.71
0
LINE
8
BLACK
6
CONTINUOUS
10
89.2833
20
-147.71
11
89.1881
21
-147.614
0
LINE
8
BLACK
6
CONTINUOUS
10
89.1881
20
-147.614
11
89.0929
21
-147.424
0
LINE
8
BLACK
6
CONTINUOUS
10
89.0929
20
-147.424
11
88.9976
21
-147.043
0
LINE
8
BLACK
6
CONTINUOUS
10
88.9976
20
-147.043
11
88.9976
21
-146.567
0
LINE
8
BLACK
6
CONTINUOUS
10
88.9976
20
-146.567
11
89.0929
21
-146.186
0
LINE
8
BLACK
6
CONTINUOUS
10
89.0929
20
-146.186
11
89.1881
21
-145.995
0
LINE
8
BLACK
6
CONTINUOUS
10
89.1881
20
-145.995
11
89.2833
21
-145.9
0
LINE
8
BLACK
6
CONTINUOUS
10
89.2833
20
-145.9
11
89.4738
21
-145.805
0
LINE
8
BLACK
6
CONTINUOUS
10
90.9976
20
-147.805
11
90.9976
21
-146.471
0
LINE
8
BLACK
6
CONTINUOUS
10
90.9976
20
-146.662
11
91.0929
21
-146.567
0
LINE
8
BLACK
6
CONTINUOUS
10
91.0929
20
-146.567
11
91.2833
21
-146.471
0
LINE
8
BLACK
6
CONTINUOUS
10
91.2833
20
-146.471
11
91.569
21
-146.471
0
LINE
8
BLACK
6
CONTINUOUS
10
91.569
20
-146.471
11
91.7595
21
-146.567
0
LINE
8
BLACK
6
CONTINUOUS
10
91.7595
20
-146.567
11
91.8548
21
-146.757
0
LINE
8
BLACK
6
CONTINUOUS
10
91.8548
20
-146.757
11
91.8548
21
-147.805
0
LINE
8
BLACK
6
CONTINUOUS
10
91.8548
20
-146.757
11
91.95
21
-146.567
0
LINE
8
BLACK
6
CONTINUOUS
10
91.95
20
-146.567
11
92.1405
21
-146.471
0
LINE
8
BLACK
6
CONTINUOUS
10
92.1405
20
-146.471
11
92.4262
21
-146.471
0
LINE
8
BLACK
6
CONTINUOUS
10
92.4262
20
-146.471
11
92.6167
21
-146.567
0
LINE
8
BLACK
6
CONTINUOUS
10
92.6167
20
-146.567
11
92.7119
21
-146.757
0
LINE
8
BLACK
6
CONTINUOUS
10
92.7119
20
-146.757
11
92.7119
21
-147.805
0
LINE
8
BLACK
6
CONTINUOUS
10
93.6643
20
-147.805
11
93.6643
21
-146.471
0
LINE
8
BLACK
6
CONTINUOUS
10
93.6643
20
-146.662
11
93.7595
21
-146.567
0
LINE
8
BLACK
6
CONTINUOUS
10
93.7595
20
-146.567
11
93.95
21
-146.471
0
LINE
8
BLACK
6
CONTINUOUS
10
93.95
20
-146.471
11
94.2357
21
-146.471
0
LINE
8
BLACK
6
CONTINUOUS
10
94.2357
20
-146.471
11
94.4262
21
-146.567
0
LINE
8
BLACK
6
CONTINUOUS
10
94.4262
20
-146.567
11
94.5214
21
-146.757
0
LINE
8
BLACK
6
CONTINUOUS
10
94.5214
20
-146.757
11
94.5214
21
-147.805
0
LINE
8
BLACK
6
CONTINUOUS
10
94.5214
20
-146.757
11
94.6167
21
-146.567
0
LINE
8
BLACK
6
CONTINUOUS
10
94.6167
20
-146.567
11
94.8071
21
-146.471
0
LINE
8
BLACK
6
CONTINUOUS
10
94.8071
20
-146.471
11
95.0929
21
-146.471
0
LINE
8
BLACK
6
CONTINUOUS
10
95.0929
20
-146.471
11
95.2833
21
-146.567
0
LINE
8
BLACK
6
CONTINUOUS
10
95.2833
20
-146.567
11
95.3786
21
-146.757
0
LINE
8
BLACK
6
CONTINUOUS
10
95.3786
20
-146.757
11
95.3786
21
-147.805
0
LINE
8
BLACK
6
CONTINUOUS
10
98.9595
20
-145.71
11
97.2452
21
-148.281
0
LINE
8
BLACK
6
CONTINUOUS
10
101.207
20
-145.805
11
101.398
21
-145.805
0
LINE
8
BLACK
6
CONTINUOUS
10
101.398
20
-145.805
11
101.588
21
-145.9
0
LINE
8
BLACK
6
CONTINUOUS
10
101.588
20
-145.9
11
101.683
21
-145.995
0
LINE
8
BLACK
6
CONTINUOUS
10
101.683
20
-145.995
11
101.779
21
-146.186
0
LINE
8
BLACK
6
CONTINUOUS
10
101.779
20
-146.186
11
101.874
21
-146.567
0
LINE
8
BLACK
6
CONTINUOUS
10
101.874
20
-146.567
11
101.874
21
-147.043
0
LINE
8
BLACK
6
CONTINUOUS
10
101.874
20
-147.043
11
101.779
21
-147.424
0
LINE
8
BLACK
6
CONTINUOUS
10
101.779
20
-147.424
11
101.683
21
-147.614
0
LINE
8
BLACK
6
CONTINUOUS
10
101.683
20
-147.614
11
101.588
21
-147.71
0
LINE
8
BLACK
6
CONTINUOUS
10
101.588
20
-147.71
11
101.398
21
-147.805
0
LINE
8
BLACK
6
CONTINUOUS
10
101.398
20
-147.805
11
101.207
21
-147.805
0
LINE
8
BLACK
6
CONTINUOUS
10
101.207
20
-147.805
11
101.017
21
-147.71
0
LINE
8
BLACK
6
CONTINUOUS
10
101.017
20
-147.71
11
100.921
21
-147.614
0
LINE
8
BLACK
6
CONTINUOUS
10
100.921
20
-147.614
11
100.826
21
-147.424
0
LINE
8
BLACK
6
CONTINUOUS
10
100.826
20
-147.424
11
100.731
21
-147.043
0
LINE
8
BLACK
6
CONTINUOUS
10
100.731
20
-147.043
11
100.731
21
-146.567
0
LINE
8
BLACK
6
CONTINUOUS
10
100.731
20
-146.567
11
100.826
21
-146.186
0
LINE
8
BLACK
6
CONTINUOUS
10
100.826
20
-146.186
11
100.921
21
-145.995
0
LINE
8
BLACK
6
CONTINUOUS
10
100.921
20
-145.995
11
101.017
21
-145.9
0
LINE
8
BLACK
6
CONTINUOUS
10
101.017
20
-145.9
11
101.207
21
-145.805
0
LINE
8
BLACK
6
CONTINUOUS
10
102.731
20
-147.614
11
102.826
21
-147.71
0
LINE
8
BLACK
6
CONTINUOUS
10
102.826
20
-147.71
11
102.731
21
-147.805
0
LINE
8
BLACK
6
CONTINUOUS
10
102.731
20
-147.805
11
102.636
21
-147.71
0
LINE
8
BLACK
6
CONTINUOUS
10
102.636
20
-147.71
11
102.731
21
-147.614
0
LINE
8
BLACK
6
CONTINUOUS
10
102.731
20
-147.614
11
102.731
21
-147.805
0
LINE
8
BLACK
6
CONTINUOUS
10
104.731
20
-147.805
11
103.588
21
-147.805
0
LINE
8
BLACK
6
CONTINUOUS
10
104.16
20
-147.805
11
104.16
21
-145.805
0
LINE
8
BLACK
6
CONTINUOUS
10
104.16
20
-145.805
11
103.969
21
-146.09
0
LINE
8
BLACK
6
CONTINUOUS
10
103.969
20
-146.09
11
103.779
21
-146.281
0
LINE
8
BLACK
6
CONTINUOUS
10
103.779
20
-146.281
11
103.588
21
-146.376
0
LINE
8
BLACK
6
CONTINUOUS
10
105.493
20
-145.995
11
105.588
21
-145.9
0
LINE
8
BLACK
6
CONTINUOUS
10
105.588
20
-145.9
11
105.779
21
-145.805
0
LINE
8
BLACK
6
CONTINUOUS
10
105.779
20
-145.805
11
106.255
21
-145.805
0
LINE
8
BLACK
6
CONTINUOUS
10
106.255
20
-145.805
11
106.445
21
-145.9
0
LINE
8
BLACK
6
CONTINUOUS
10
106.445
20
-145.9
11
106.54
21
-145.995
0
LINE
8
BLACK
6
CONTINUOUS
10
106.54
20
-145.995
11
106.636
21
-146.186
0
LINE
8
BLACK
6
CONTINUOUS
10
106.636
20
-146.186
11
106.636
21
-146.376
0
LINE
8
BLACK
6
CONTINUOUS
10
106.636
20
-146.376
11
106.54
21
-146.662
0
LINE
8
BLACK
6
CONTINUOUS
10
106.54
20
-146.662
11
105.398
21
-147.805
0
LINE
8
BLACK
6
CONTINUOUS
10
105.398
20
-147.805
11
106.636
21
-147.805
0
LINE
8
BLACK
6
CONTINUOUS
10
108.35
20
-145.805
11
107.969
21
-145.805
0
LINE
8
BLACK
6
CONTINUOUS
10
107.969
20
-145.805
11
107.779
21
-145.9
0
LINE
8
BLACK
6
CONTINUOUS
10
107.779
20
-145.9
11
107.683
21
-145.995
0
LINE
8
BLACK
6
CONTINUOUS
10
107.683
20
-145.995
11
107.493
21
-146.281
0
LINE
8
BLACK
6
CONTINUOUS
10
107.493
20
-146.281
11
107.398
21
-146.662
0
LINE
8
BLACK
6
CONTINUOUS
10
107.398
20
-146.662
11
107.398
21
-147.424
0
LINE
8
BLACK
6
CONTINUOUS
10
107.398
20
-147.424
11
107.493
21
-147.614
0
LINE
8
BLACK
6
CONTINUOUS
10
107.493
20
-147.614
11
107.588
21
-147.71
0
LINE
8
BLACK
6
CONTINUOUS
10
107.588
20
-147.71
11
107.779
21
-147.805
0
LINE
8
BLACK
6
CONTINUOUS
10
107.779
20
-147.805
11
108.16
21
-147.805
0
LINE
8
BLACK
6
CONTINUOUS
10
108.16
20
-147.805
11
108.35
21
-147.71
0
LINE
8
BLACK
6
CONTINUOUS
10
108.35
20
-147.71
11
108.445
21
-147.614
0
LINE
8
BLACK
6
CONTINUOUS
10
108.445
20
-147.614
11
108.54
21
-147.424
0
LINE
8
BLACK
6
CONTINUOUS
10
108.54
20
-147.424
11
108.54
21
-146.948
0
LINE
8
BLACK
6
CONTINUOUS
10
108.54
20
-146.948
11
108.445
21
-146.757
0
LINE
8
BLACK
6
CONTINUOUS
10
108.445
20
-146.757
11
108.35
21
-146.662
0
LINE
8
BLACK
6
CONTINUOUS
10
108.35
20
-146.662
11
108.16
21
-146.567
0
LINE
8
BLACK
6
CONTINUOUS
10
108.16
20
-146.567
11
107.779
21
-146.567
0
LINE
8
BLACK
6
CONTINUOUS
10
107.779
20
-146.567
11
107.588
21
-146.662
0
LINE
8
BLACK
6
CONTINUOUS
10
107.588
20
-146.662
11
107.493
21
-146.757
0
LINE
8
BLACK
6
CONTINUOUS
10
107.493
20
-146.757
11
107.398
21
-146.948
0
LINE
8
BLACK
6
CONTINUOUS
10
109.779
20
-145.805
11
109.969
21
-145.805
0
LINE
8
BLACK
6
CONTINUOUS
10
109.969
20
-145.805
11
110.16
21
-145.9
0
LINE
8
BLACK
6
CONTINUOUS
10
110.16
20
-145.9
11
110.255
21
-145.995
0
LINE
8
BLACK
6
CONTINUOUS
10
110.255
20
-145.995
11
110.35
21
-146.186
0
LINE
8
BLACK
6
CONTINUOUS
10
110.35
20
-146.186
11
110.445
21
-146.567
0
LINE
8
BLACK
6
CONTINUOUS
10
110.445
20
-146.567
11
110.445
21
-147.043
0
LINE
8
BLACK
6
CONTINUOUS
10
110.445
20
-147.043
11
110.35
21
-147.424
0
LINE
8
BLACK
6
CONTINUOUS
10
110.35
20
-147.424
11
110.255
21
-147.614
0
LINE
8
BLACK
6
CONTINUOUS
10
110.255
20
-147.614
11
110.16
21
-147.71
0
LINE
8
BLACK
6
CONTINUOUS
10
110.16
20
-147.71
11
109.969
21
-147.805
0
LINE
8
BLACK
6
CONTINUOUS
10
109.969
20
-147.805
11
109.779
21
-147.805
0
LINE
8
BLACK
6
CONTINUOUS
10
109.779
20
-147.805
11
109.588
21
-147.71
0
LINE
8
BLACK
6
CONTINUOUS
10
109.588
20
-147.71
11
109.493
21
-147.614
0
LINE
8
BLACK
6
CONTINUOUS
10
109.493
20
-147.614
11
109.398
21
-147.424
0
LINE
8
BLACK
6
CONTINUOUS
10
109.398
20
-147.424
11
109.302
21
-147.043
0
LINE
8
BLACK
6
CONTINUOUS
10
109.302
20
-147.043
11
109.302
21
-146.567
0
LINE
8
BLACK
6
CONTINUOUS
10
109.302
20
-146.567
11
109.398
21
-146.186
0
LINE
8
BLACK
6
CONTINUOUS
10
109.398
20
-146.186
11
109.493
21
-145.995
0
LINE
8
BLACK
6
CONTINUOUS
10
109.493
20
-145.995
11
109.588
21
-145.9
0
LINE
8
BLACK
6
CONTINUOUS
10
109.588
20
-145.9
11
109.779
21
-145.805
0
LINE
8
BLACK
6
CONTINUOUS
10
111.207
20
-145.805
11
111.207
21
-146.186
0
LINE
8
BLACK
6
CONTINUOUS
10
111.969
20
-145.805
11
111.969
21
-146.186
0
LINE
8
BLACK
6
CONTINUOUS
10
114.598
20
-148.567
11
114.502
21
-148.471
0
LINE
8
BLACK
6
CONTINUOUS
10
114.502
20
-148.471
11
114.312
21
-148.186
0
LINE
8
BLACK
6
CONTINUOUS
10
114.312
20
-148.186
11
114.217
21
-147.995
0
LINE
8
BLACK
6
CONTINUOUS
10
114.217
20
-147.995
11
114.121
21
-147.71
0
LINE
8
BLACK
6
CONTINUOUS
10
114.121
20
-147.71
11
114.026
21
-147.233
0
LINE
8
BLACK
6
CONTINUOUS
10
114.026
20
-147.233
11
114.026
21
-146.852
0
LINE
8
BLACK
6
CONTINUOUS
10
114.026
20
-146.852
11
114.121
21
-146.376
0
LINE
8
BLACK
6
CONTINUOUS
10
114.121
20
-146.376
11
114.217
21
-146.09
0
LINE
8
BLACK
6
CONTINUOUS
10
114.217
20
-146.09
11
114.312
21
-145.9
0
LINE
8
BLACK
6
CONTINUOUS
10
114.312
20
-145.9
11
114.502
21
-145.614
0
LINE
8
BLACK
6
CONTINUOUS
10
114.502
20
-145.614
11
114.598
21
-145.519
0
LINE
8
BLACK
6
CONTINUOUS
10
116.217
20
-145.805
11
115.836
21
-145.805
0
LINE
8
BLACK
6
CONTINUOUS
10
115.836
20
-145.805
11
115.645
21
-145.9
0
LINE
8
BLACK
6
CONTINUOUS
10
115.645
20
-145.9
11
115.55
21
-145.995
0
LINE
8
BLACK
6
CONTINUOUS
10
115.55
20
-145.995
11
115.36
21
-146.281
0
LINE
8
BLACK
6
CONTINUOUS
10
115.36
20
-146.281
11
115.264
21
-146.662
0
LINE
8
BLACK
6
CONTINUOUS
10
115.264
20
-146.662
11
115.264
21
-147.424
0
LINE
8
BLACK
6
CONTINUOUS
10
115.264
20
-147.424
11
115.36
21
-147.614
0
LINE
8
BLACK
6
CONTINUOUS
10
115.36
20
-147.614
11
115.455
21
-147.71
0
LINE
8
BLACK
6
CONTINUOUS
10
115.455
20
-147.71
11
115.645
21
-147.805
0
LINE
8
BLACK
6
CONTINUOUS
10
115.645
20
-147.805
11
116.026
21
-147.805
0
LINE
8
BLACK
6
CONTINUOUS
10
116.026
20
-147.805
11
116.217
21
-147.71
0
LINE
8
BLACK
6
CONTINUOUS
10
116.217
20
-147.71
11
116.312
21
-147.614
0
LINE
8
BLACK
6
CONTINUOUS
10
116.312
20
-147.614
11
116.407
21
-147.424
0
LINE
8
BLACK
6
CONTINUOUS
10
116.407
20
-147.424
11
116.407
21
-146.948
0
LINE
8
BLACK
6
CONTINUOUS
10
116.407
20
-146.948
11
116.312
21
-146.757
0
LINE
8
BLACK
6
CONTINUOUS
10
116.312
20
-146.757
11
116.217
21
-146.662
0
LINE
8
BLACK
6
CONTINUOUS
10
116.217
20
-146.662
11
116.026
21
-146.567
0
LINE
8
BLACK
6
CONTINUOUS
10
116.026
20
-146.567
11
115.645
21
-146.567
0
LINE
8
BLACK
6
CONTINUOUS
10
115.645
20
-146.567
11
115.455
21
-146.662
0
LINE
8
BLACK
6
CONTINUOUS
10
115.455
20
-146.662
11
115.36
21
-146.757
0
LINE
8
BLACK
6
CONTINUOUS
10
115.36
20
-146.757
11
115.264
21
-146.948
0
LINE
8
BLACK
6
CONTINUOUS
10
118.464
20
-147.805
11
118.464
21
-145.805
0
LINE
8
BLACK
6
CONTINUOUS
10
119.321
20
-147.805
11
119.321
21
-146.757
0
LINE
8
BLACK
6
CONTINUOUS
10
119.321
20
-146.757
11
119.226
21
-146.567
0
LINE
8
BLACK
6
CONTINUOUS
10
119.226
20
-146.567
11
119.036
21
-146.471
0
LINE
8
BLACK
6
CONTINUOUS
10
119.036
20
-146.471
11
118.75
21
-146.471
0
LINE
8
BLACK
6
CONTINUOUS
10
118.75
20
-146.471
11
118.56
21
-146.567
0
LINE
8
BLACK
6
CONTINUOUS
10
118.56
20
-146.567
11
118.464
21
-146.662
0
LINE
8
BLACK
6
CONTINUOUS
10
120.56
20
-147.805
11
120.369
21
-147.71
0
LINE
8
BLACK
6
CONTINUOUS
10
120.369
20
-147.71
11
120.274
21
-147.614
0
LINE
8
BLACK
6
CONTINUOUS
10
120.274
20
-147.614
11
120.179
21
-147.424
0
LINE
8
BLACK
6
CONTINUOUS
10
120.179
20
-147.424
11
120.179
21
-146.852
0
LINE
8
BLACK
6
CONTINUOUS
10
120.179
20
-146.852
11
120.274
21
-146.662
0
LINE
8
BLACK
6
CONTINUOUS
10
120.274
20
-146.662
11
120.369
21
-146.567
0
LINE
8
BLACK
6
CONTINUOUS
10
120.369
20
-146.567
11
120.56
21
-146.471
0
LINE
8
BLACK
6
CONTINUOUS
10
120.56
20
-146.471
11
120.845
21
-146.471
0
LINE
8
BLACK
6
CONTINUOUS
10
120.845
20
-146.471
11
121.036
21
-146.567
0
LINE
8
BLACK
6
CONTINUOUS
10
121.036
20
-146.567
11
121.131
21
-146.662
0
LINE
8
BLACK
6
CONTINUOUS
10
121.131
20
-146.662
11
121.226
21
-146.852
0
LINE
8
BLACK
6
CONTINUOUS
10
121.226
20
-146.852
11
121.226
21
-147.424
0
LINE
8
BLACK
6
CONTINUOUS
10
121.226
20
-147.424
11
121.131
21
-147.614
0
LINE
8
BLACK
6
CONTINUOUS
10
121.131
20
-147.614
11
121.036
21
-147.71
0
LINE
8
BLACK
6
CONTINUOUS
10
121.036
20
-147.71
11
120.845
21
-147.805
0
LINE
8
BLACK
6
CONTINUOUS
10
120.845
20
-147.805
11
120.56
21
-147.805
0
LINE
8
BLACK
6
CONTINUOUS
10
122.369
20
-147.805
11
122.179
21
-147.71
0
LINE
8
BLACK
6
CONTINUOUS
10
122.179
20
-147.71
11
122.083
21
-147.519
0
LINE
8
BLACK
6
CONTINUOUS
10
122.083
20
-147.519
11
122.083
21
-145.805
0
LINE
8
BLACK
6
CONTINUOUS
10
123.893
20
-147.71
11
123.702
21
-147.805
0
LINE
8
BLACK
6
CONTINUOUS
10
123.702
20
-147.805
11
123.321
21
-147.805
0
LINE
8
BLACK
6
CONTINUOUS
10
123.321
20
-147.805
11
123.131
21
-147.71
0
LINE
8
BLACK
6
CONTINUOUS
10
123.131
20
-147.71
11
123.036
21
-147.519
0
LINE
8
BLACK
6
CONTINUOUS
10
123.036
20
-147.519
11
123.036
21
-146.757
0
LINE
8
BLACK
6
CONTINUOUS
10
123.036
20
-146.757
11
123.131
21
-146.567
0
LINE
8
BLACK
6
CONTINUOUS
10
123.131
20
-146.567
11
123.321
21
-146.471
0
LINE
8
BLACK
6
CONTINUOUS
10
123.321
20
-146.471
11
123.702
21
-146.471
0
LINE
8
BLACK
6
CONTINUOUS
10
123.702
20
-146.471
11
123.893
21
-146.567
0
LINE
8
BLACK
6
CONTINUOUS
10
123.893
20
-146.567
11
123.988
21
-146.757
0
LINE
8
BLACK
6
CONTINUOUS
10
123.988
20
-146.757
11
123.988
21
-146.948
0
LINE
8
BLACK
6
CONTINUOUS
10
123.988
20
-146.948
11
123.036
21
-147.138
0
LINE
8
BLACK
6
CONTINUOUS
10
124.75
20
-147.71
11
124.94
21
-147.805
0
LINE
8
BLACK
6
CONTINUOUS
10
124.94
20
-147.805
11
125.321
21
-147.805
0
LINE
8
BLACK
6
CONTINUOUS
10
125.321
20
-147.805
11
125.512
21
-147.71
0
LINE
8
BLACK
6
CONTINUOUS
10
125.512
20
-147.71
11
125.607
21
-147.519
0
LINE
8
BLACK
6
CONTINUOUS
10
125.607
20
-147.519
11
125.607
21
-147.424
0
LINE
8
BLACK
6
CONTINUOUS
10
125.607
20
-147.424
11
125.512
21
-147.233
0
LINE
8
BLACK
6
CONTINUOUS
10
125.512
20
-147.233
11
125.321
21
-147.138
0
LINE
8
BLACK
6
CONTINUOUS
10
125.321
20
-147.138
11
125.036
21
-147.138
0
LINE
8
BLACK
6
CONTINUOUS
10
125.036
20
-147.138
11
124.845
21
-147.043
0
LINE
8
BLACK
6
CONTINUOUS
10
124.845
20
-147.043
11
124.75
21
-146.852
0
LINE
8
BLACK
6
CONTINUOUS
10
124.75
20
-146.852
11
124.75
21
-146.757
0
LINE
8
BLACK
6
CONTINUOUS
10
124.75
20
-146.757
11
124.845
21
-146.567
0
LINE
8
BLACK
6
CONTINUOUS
10
124.845
20
-146.567
11
125.036
21
-146.471
0
LINE
8
BLACK
6
CONTINUOUS
10
125.036
20
-146.471
11
125.321
21
-146.471
0
LINE
8
BLACK
6
CONTINUOUS
10
125.321
20
-146.471
11
125.512
21
-146.567
0
LINE
8
BLACK
6
CONTINUOUS
10
126.274
20
-148.567
11
126.369
21
-148.471
0
LINE
8
BLACK
6
CONTINUOUS
10
126.369
20
-148.471
11
126.56
21
-148.186
0
LINE
8
BLACK
6
CONTINUOUS
10
126.56
20
-148.186
11
126.655
21
-147.995
0
LINE
8
BLACK
6
CONTINUOUS
10
126.655
20
-147.995
11
126.75
21
-147.71
0
LINE
8
BLACK
6
CONTINUOUS
10
126.75
20
-147.71
11
126.845
21
-147.233
0
LINE
8
BLACK
6
CONTINUOUS
10
126.845
20
-147.233
11
126.845
21
-146.852
0
LINE
8
BLACK
6
CONTINUOUS
10
126.845
20
-146.852
11
126.75
21
-146.376
0
LINE
8
BLACK
6
CONTINUOUS
10
126.75
20
-146.376
11
126.655
21
-146.09
0
LINE
8
BLACK
6
CONTINUOUS
10
126.655
20
-146.09
11
126.56
21
-145.9
0
LINE
8
BLACK
6
CONTINUOUS
10
126.56
20
-145.9
11
126.369
21
-145.614
0
LINE
8
BLACK
6
CONTINUOUS
10
126.369
20
-145.614
11
126.274
21
-145.519
  0
ENDSEC
  0
EOF
