%TF.GenerationSoftware,KiCad,Pcbnew,(7.0.0)*%
%TF.CreationDate,2023-03-31T08:32:34+02:00*%
%TF.ProjectId,Ampli_0_5W,416d706c-695f-4305-9f35-572e6b696361,rev?*%
%TF.SameCoordinates,Original*%
%TF.FileFunction,Drillmap*%
%TF.FilePolarity,Positive*%
%FSLAX45Y45*%
G04 Gerber Fmt 4.5, Leading zero omitted, Abs format (unit mm)*
G04 Created by KiCad (PCBNEW (7.0.0)) date 2023-03-31 08:32:34*
%MOMM*%
%LPD*%
G01*
G04 APERTURE LIST*
%ADD10C,0.100000*%
%ADD11C,0.200000*%
G04 APERTURE END LIST*
D10*
X11950000Y-13000000D02*
X11950000Y-6000000D01*
X18000000Y-13000000D02*
X12900000Y-13000000D01*
X8000000Y-13000000D02*
X8000000Y-3000000D01*
X12900000Y-6000000D02*
X12900000Y-13000000D01*
X18000000Y-3000000D02*
X18000000Y-13000000D01*
X11950000Y-13000000D02*
X8000000Y-13000000D01*
X8000000Y-3000000D02*
X18000000Y-3000000D01*
X12900000Y-6000000D02*
X11950000Y-6000000D01*
D11*
X8242619Y-13298476D02*
X8242619Y-13098476D01*
X8242619Y-13098476D02*
X8290238Y-13098476D01*
X8290238Y-13098476D02*
X8318809Y-13108000D01*
X8318809Y-13108000D02*
X8337857Y-13127048D01*
X8337857Y-13127048D02*
X8347381Y-13146095D01*
X8347381Y-13146095D02*
X8356905Y-13184190D01*
X8356905Y-13184190D02*
X8356905Y-13212762D01*
X8356905Y-13212762D02*
X8347381Y-13250857D01*
X8347381Y-13250857D02*
X8337857Y-13269905D01*
X8337857Y-13269905D02*
X8318809Y-13288952D01*
X8318809Y-13288952D02*
X8290238Y-13298476D01*
X8290238Y-13298476D02*
X8242619Y-13298476D01*
X8442619Y-13298476D02*
X8442619Y-13165143D01*
X8442619Y-13203238D02*
X8452143Y-13184190D01*
X8452143Y-13184190D02*
X8461667Y-13174667D01*
X8461667Y-13174667D02*
X8480714Y-13165143D01*
X8480714Y-13165143D02*
X8499762Y-13165143D01*
X8566429Y-13298476D02*
X8566429Y-13165143D01*
X8566429Y-13098476D02*
X8556905Y-13108000D01*
X8556905Y-13108000D02*
X8566429Y-13117524D01*
X8566429Y-13117524D02*
X8575952Y-13108000D01*
X8575952Y-13108000D02*
X8566429Y-13098476D01*
X8566429Y-13098476D02*
X8566429Y-13117524D01*
X8690238Y-13298476D02*
X8671190Y-13288952D01*
X8671190Y-13288952D02*
X8661667Y-13269905D01*
X8661667Y-13269905D02*
X8661667Y-13098476D01*
X8795000Y-13298476D02*
X8775952Y-13288952D01*
X8775952Y-13288952D02*
X8766429Y-13269905D01*
X8766429Y-13269905D02*
X8766429Y-13098476D01*
X8991190Y-13298476D02*
X8991190Y-13098476D01*
X8991190Y-13098476D02*
X9057857Y-13241333D01*
X9057857Y-13241333D02*
X9124524Y-13098476D01*
X9124524Y-13098476D02*
X9124524Y-13298476D01*
X9305476Y-13298476D02*
X9305476Y-13193714D01*
X9305476Y-13193714D02*
X9295952Y-13174667D01*
X9295952Y-13174667D02*
X9276905Y-13165143D01*
X9276905Y-13165143D02*
X9238809Y-13165143D01*
X9238809Y-13165143D02*
X9219762Y-13174667D01*
X9305476Y-13288952D02*
X9286429Y-13298476D01*
X9286429Y-13298476D02*
X9238809Y-13298476D01*
X9238809Y-13298476D02*
X9219762Y-13288952D01*
X9219762Y-13288952D02*
X9210238Y-13269905D01*
X9210238Y-13269905D02*
X9210238Y-13250857D01*
X9210238Y-13250857D02*
X9219762Y-13231809D01*
X9219762Y-13231809D02*
X9238809Y-13222286D01*
X9238809Y-13222286D02*
X9286429Y-13222286D01*
X9286429Y-13222286D02*
X9305476Y-13212762D01*
X9400714Y-13165143D02*
X9400714Y-13365143D01*
X9400714Y-13174667D02*
X9419762Y-13165143D01*
X9419762Y-13165143D02*
X9457857Y-13165143D01*
X9457857Y-13165143D02*
X9476905Y-13174667D01*
X9476905Y-13174667D02*
X9486429Y-13184190D01*
X9486429Y-13184190D02*
X9495952Y-13203238D01*
X9495952Y-13203238D02*
X9495952Y-13260381D01*
X9495952Y-13260381D02*
X9486429Y-13279428D01*
X9486429Y-13279428D02*
X9476905Y-13288952D01*
X9476905Y-13288952D02*
X9457857Y-13298476D01*
X9457857Y-13298476D02*
X9419762Y-13298476D01*
X9419762Y-13298476D02*
X9400714Y-13288952D01*
X9581667Y-13279428D02*
X9591190Y-13288952D01*
X9591190Y-13288952D02*
X9581667Y-13298476D01*
X9581667Y-13298476D02*
X9572143Y-13288952D01*
X9572143Y-13288952D02*
X9581667Y-13279428D01*
X9581667Y-13279428D02*
X9581667Y-13298476D01*
X9581667Y-13174667D02*
X9591190Y-13184190D01*
X9591190Y-13184190D02*
X9581667Y-13193714D01*
X9581667Y-13193714D02*
X9572143Y-13184190D01*
X9572143Y-13184190D02*
X9581667Y-13174667D01*
X9581667Y-13174667D02*
X9581667Y-13193714D01*
M02*
