G04 #@! TF.GenerationSoftware,KiCad,Pcbnew,(7.0.0)*
G04 #@! TF.CreationDate,2023-02-14T12:16:20+01:00*
G04 #@! TF.ProjectId,Ampli_0_5W,416d706c-695f-4305-9f35-572e6b696361,rev?*
G04 #@! TF.SameCoordinates,Original*
G04 #@! TF.FileFunction,Legend,Top*
G04 #@! TF.FilePolarity,Positive*
%FSLAX46Y46*%
G04 Gerber Fmt 4.6, Leading zero omitted, Abs format (unit mm)*
G04 Created by KiCad (PCBNEW (7.0.0)) date 2023-02-14 12:16:20*
%MOMM*%
%LPD*%
G01*
G04 APERTURE LIST*
G04 Aperture macros list*
%AMRoundRect*
0 Rectangle with rounded corners*
0 $1 Rounding radius*
0 $2 $3 $4 $5 $6 $7 $8 $9 X,Y pos of 4 corners*
0 Add a 4 corners polygon primitive as box body*
4,1,4,$2,$3,$4,$5,$6,$7,$8,$9,$2,$3,0*
0 Add four circle primitives for the rounded corners*
1,1,$1+$1,$2,$3*
1,1,$1+$1,$4,$5*
1,1,$1+$1,$6,$7*
1,1,$1+$1,$8,$9*
0 Add four rect primitives between the rounded corners*
20,1,$1+$1,$2,$3,$4,$5,0*
20,1,$1+$1,$4,$5,$6,$7,0*
20,1,$1+$1,$6,$7,$8,$9,0*
20,1,$1+$1,$8,$9,$2,$3,0*%
G04 Aperture macros list end*
%ADD10C,0.150000*%
%ADD11C,0.375000*%
%ADD12C,0.400000*%
%ADD13C,0.300000*%
%ADD14C,0.175000*%
%ADD15C,0.100000*%
%ADD16C,0.120000*%
%ADD17C,0.381000*%
%ADD18C,0.099060*%
%ADD19C,1.998980*%
%ADD20C,2.499360*%
%ADD21C,5.600000*%
%ADD22RoundRect,0.250000X0.337500X0.475000X-0.337500X0.475000X-0.337500X-0.475000X0.337500X-0.475000X0*%
%ADD23RoundRect,0.625000X-1.375000X-0.625000X1.375000X-0.625000X1.375000X0.625000X-1.375000X0.625000X0*%
%ADD24RoundRect,0.250000X0.350000X0.450000X-0.350000X0.450000X-0.350000X-0.450000X0.350000X-0.450000X0*%
%ADD25RoundRect,0.250000X-0.337500X-0.475000X0.337500X-0.475000X0.337500X0.475000X-0.337500X0.475000X0*%
%ADD26C,8.000000*%
%ADD27RoundRect,0.500000X0.500000X1.500000X-0.500000X1.500000X-0.500000X-1.500000X0.500000X-1.500000X0*%
%ADD28RoundRect,0.500000X1.500000X-0.500000X1.500000X0.500000X-1.500000X0.500000X-1.500000X-0.500000X0*%
%ADD29R,2.700000X4.320000*%
%ADD30RoundRect,0.250000X-0.400000X-1.450000X0.400000X-1.450000X0.400000X1.450000X-0.400000X1.450000X0*%
%ADD31R,1.200000X2.200000*%
%ADD32R,5.800000X6.400000*%
%ADD33RoundRect,0.250000X0.875000X1.025000X-0.875000X1.025000X-0.875000X-1.025000X0.875000X-1.025000X0*%
%ADD34RoundRect,0.500000X-0.500000X-1.500000X0.500000X-1.500000X0.500000X1.500000X-0.500000X1.500000X0*%
%ADD35RoundRect,0.250000X-0.620000X-0.845000X0.620000X-0.845000X0.620000X0.845000X-0.620000X0.845000X0*%
%ADD36O,1.740000X2.190000*%
%ADD37RoundRect,0.250000X-0.475000X0.337500X-0.475000X-0.337500X0.475000X-0.337500X0.475000X0.337500X0*%
%ADD38R,0.800000X1.900000*%
%ADD39RoundRect,0.250000X0.450000X-0.350000X0.450000X0.350000X-0.450000X0.350000X-0.450000X-0.350000X0*%
%ADD40RoundRect,0.250000X-0.450000X0.350000X-0.450000X-0.350000X0.450000X-0.350000X0.450000X0.350000X0*%
%ADD41RoundRect,0.506757X-1.368243X1.368243X-1.368243X-1.368243X1.368243X-1.368243X1.368243X1.368243X0*%
%ADD42RoundRect,0.250000X1.350000X1.975000X-1.350000X1.975000X-1.350000X-1.975000X1.350000X-1.975000X0*%
%ADD43RoundRect,0.250000X-0.350000X-0.450000X0.350000X-0.450000X0.350000X0.450000X-0.350000X0.450000X0*%
%ADD44RoundRect,0.250000X0.650000X-0.412500X0.650000X0.412500X-0.650000X0.412500X-0.650000X-0.412500X0*%
%ADD45O,4.000000X3.000000*%
%ADD46R,2.500000X2.000000*%
%ADD47R,3.000000X3.000000*%
%ADD48RoundRect,0.250000X0.925000X-0.875000X0.925000X0.875000X-0.925000X0.875000X-0.925000X-0.875000X0*%
%ADD49RoundRect,1.000000X2.500000X-1.000000X2.500000X1.000000X-2.500000X1.000000X-2.500000X-1.000000X0*%
G04 APERTURE END LIST*
D10*
X80000000Y-110000000D02*
X180000000Y-110000000D01*
X108283333Y-90857166D02*
X108283333Y-90157166D01*
X108283333Y-90157166D02*
X108450000Y-90157166D01*
X108450000Y-90157166D02*
X108550000Y-90190500D01*
X108550000Y-90190500D02*
X108616667Y-90257166D01*
X108616667Y-90257166D02*
X108650000Y-90323833D01*
X108650000Y-90323833D02*
X108683333Y-90457166D01*
X108683333Y-90457166D02*
X108683333Y-90557166D01*
X108683333Y-90557166D02*
X108650000Y-90690500D01*
X108650000Y-90690500D02*
X108616667Y-90757166D01*
X108616667Y-90757166D02*
X108550000Y-90823833D01*
X108550000Y-90823833D02*
X108450000Y-90857166D01*
X108450000Y-90857166D02*
X108283333Y-90857166D01*
X109350000Y-90857166D02*
X108950000Y-90857166D01*
X109150000Y-90857166D02*
X109150000Y-90157166D01*
X109150000Y-90157166D02*
X109083333Y-90257166D01*
X109083333Y-90257166D02*
X109016667Y-90323833D01*
X109016667Y-90323833D02*
X108950000Y-90357166D01*
D11*
X110795238Y-34401428D02*
X109271428Y-34972857D01*
X109271428Y-34972857D02*
X110795238Y-35544285D01*
X112128570Y-33734761D02*
X112509523Y-33734761D01*
X112509523Y-33734761D02*
X112699999Y-33830000D01*
X112699999Y-33830000D02*
X112890475Y-34020476D01*
X112890475Y-34020476D02*
X112985713Y-34401428D01*
X112985713Y-34401428D02*
X112985713Y-35068095D01*
X112985713Y-35068095D02*
X112890475Y-35449047D01*
X112890475Y-35449047D02*
X112699999Y-35639523D01*
X112699999Y-35639523D02*
X112509523Y-35734761D01*
X112509523Y-35734761D02*
X112128570Y-35734761D01*
X112128570Y-35734761D02*
X111938094Y-35639523D01*
X111938094Y-35639523D02*
X111747618Y-35449047D01*
X111747618Y-35449047D02*
X111652380Y-35068095D01*
X111652380Y-35068095D02*
X111652380Y-34401428D01*
X111652380Y-34401428D02*
X111747618Y-34020476D01*
X111747618Y-34020476D02*
X111938094Y-33830000D01*
X111938094Y-33830000D02*
X112128570Y-33734761D01*
X114699999Y-34401428D02*
X114699999Y-35734761D01*
X113842856Y-34401428D02*
X113842856Y-35449047D01*
X113842856Y-35449047D02*
X113938094Y-35639523D01*
X113938094Y-35639523D02*
X114128570Y-35734761D01*
X114128570Y-35734761D02*
X114414285Y-35734761D01*
X114414285Y-35734761D02*
X114604761Y-35639523D01*
X114604761Y-35639523D02*
X114699999Y-35544285D01*
X115366666Y-34401428D02*
X116128570Y-34401428D01*
X115652380Y-33734761D02*
X115652380Y-35449047D01*
X115652380Y-35449047D02*
X115747618Y-35639523D01*
X115747618Y-35639523D02*
X115938094Y-35734761D01*
X115938094Y-35734761D02*
X116128570Y-35734761D01*
X120395237Y-35734761D02*
X120395237Y-33734761D01*
X120395237Y-33734761D02*
X121157142Y-33734761D01*
X121157142Y-33734761D02*
X121347618Y-33830000D01*
X121347618Y-33830000D02*
X121442856Y-33925238D01*
X121442856Y-33925238D02*
X121538094Y-34115714D01*
X121538094Y-34115714D02*
X121538094Y-34401428D01*
X121538094Y-34401428D02*
X121442856Y-34591904D01*
X121442856Y-34591904D02*
X121347618Y-34687142D01*
X121347618Y-34687142D02*
X121157142Y-34782380D01*
X121157142Y-34782380D02*
X120395237Y-34782380D01*
X122109523Y-33734761D02*
X123252380Y-33734761D01*
X122680951Y-35734761D02*
X122680951Y-33734761D01*
X123633333Y-33734761D02*
X124776190Y-33734761D01*
X124204761Y-35734761D02*
X124204761Y-33734761D01*
X126642857Y-35734761D02*
X126642857Y-33734761D01*
X127595238Y-34401428D02*
X127595238Y-35734761D01*
X127595238Y-34591904D02*
X127690476Y-34496666D01*
X127690476Y-34496666D02*
X127880952Y-34401428D01*
X127880952Y-34401428D02*
X128166667Y-34401428D01*
X128166667Y-34401428D02*
X128357143Y-34496666D01*
X128357143Y-34496666D02*
X128452381Y-34687142D01*
X128452381Y-34687142D02*
X128452381Y-35734761D01*
X129404762Y-34401428D02*
X130928572Y-34972857D01*
X130928572Y-34972857D02*
X129404762Y-35544285D01*
D12*
X167638095Y-68234761D02*
X166971428Y-67282380D01*
X166495238Y-68234761D02*
X166495238Y-66234761D01*
X166495238Y-66234761D02*
X167257143Y-66234761D01*
X167257143Y-66234761D02*
X167447619Y-66330000D01*
X167447619Y-66330000D02*
X167542857Y-66425238D01*
X167542857Y-66425238D02*
X167638095Y-66615714D01*
X167638095Y-66615714D02*
X167638095Y-66901428D01*
X167638095Y-66901428D02*
X167542857Y-67091904D01*
X167542857Y-67091904D02*
X167447619Y-67187142D01*
X167447619Y-67187142D02*
X167257143Y-67282380D01*
X167257143Y-67282380D02*
X166495238Y-67282380D01*
X169161905Y-67187142D02*
X168495238Y-67187142D01*
X168495238Y-68234761D02*
X168495238Y-66234761D01*
X168495238Y-66234761D02*
X169447619Y-66234761D01*
X171790476Y-66234761D02*
X172171429Y-66234761D01*
X172171429Y-66234761D02*
X172361905Y-66330000D01*
X172361905Y-66330000D02*
X172552381Y-66520476D01*
X172552381Y-66520476D02*
X172647619Y-66901428D01*
X172647619Y-66901428D02*
X172647619Y-67568095D01*
X172647619Y-67568095D02*
X172552381Y-67949047D01*
X172552381Y-67949047D02*
X172361905Y-68139523D01*
X172361905Y-68139523D02*
X172171429Y-68234761D01*
X172171429Y-68234761D02*
X171790476Y-68234761D01*
X171790476Y-68234761D02*
X171600000Y-68139523D01*
X171600000Y-68139523D02*
X171409524Y-67949047D01*
X171409524Y-67949047D02*
X171314286Y-67568095D01*
X171314286Y-67568095D02*
X171314286Y-66901428D01*
X171314286Y-66901428D02*
X171409524Y-66520476D01*
X171409524Y-66520476D02*
X171600000Y-66330000D01*
X171600000Y-66330000D02*
X171790476Y-66234761D01*
X174361905Y-66901428D02*
X174361905Y-68234761D01*
X173504762Y-66901428D02*
X173504762Y-67949047D01*
X173504762Y-67949047D02*
X173600000Y-68139523D01*
X173600000Y-68139523D02*
X173790476Y-68234761D01*
X173790476Y-68234761D02*
X174076191Y-68234761D01*
X174076191Y-68234761D02*
X174266667Y-68139523D01*
X174266667Y-68139523D02*
X174361905Y-68044285D01*
X175028572Y-66901428D02*
X175790476Y-66901428D01*
X175314286Y-66234761D02*
X175314286Y-67949047D01*
X175314286Y-67949047D02*
X175409524Y-68139523D01*
X175409524Y-68139523D02*
X175600000Y-68234761D01*
X175600000Y-68234761D02*
X175790476Y-68234761D01*
D13*
X108285714Y-63445000D02*
X109000000Y-63445000D01*
X108142857Y-63873571D02*
X108642857Y-62373571D01*
X108642857Y-62373571D02*
X109142857Y-63873571D01*
X109642856Y-62873571D02*
X109642856Y-63873571D01*
X109642856Y-63016428D02*
X109714285Y-62945000D01*
X109714285Y-62945000D02*
X109857142Y-62873571D01*
X109857142Y-62873571D02*
X110071428Y-62873571D01*
X110071428Y-62873571D02*
X110214285Y-62945000D01*
X110214285Y-62945000D02*
X110285714Y-63087857D01*
X110285714Y-63087857D02*
X110285714Y-63873571D01*
X108357142Y-93173571D02*
X108357142Y-91673571D01*
X109214285Y-93173571D02*
X108571428Y-92316428D01*
X109214285Y-91673571D02*
X108357142Y-92530714D01*
X110500000Y-93173571D02*
X110500000Y-92387857D01*
X110500000Y-92387857D02*
X110428571Y-92245000D01*
X110428571Y-92245000D02*
X110285714Y-92173571D01*
X110285714Y-92173571D02*
X110000000Y-92173571D01*
X110000000Y-92173571D02*
X109857142Y-92245000D01*
X110500000Y-93102142D02*
X110357142Y-93173571D01*
X110357142Y-93173571D02*
X110000000Y-93173571D01*
X110000000Y-93173571D02*
X109857142Y-93102142D01*
X109857142Y-93102142D02*
X109785714Y-92959285D01*
X109785714Y-92959285D02*
X109785714Y-92816428D01*
X109785714Y-92816428D02*
X109857142Y-92673571D01*
X109857142Y-92673571D02*
X110000000Y-92602142D01*
X110000000Y-92602142D02*
X110357142Y-92602142D01*
X110357142Y-92602142D02*
X110500000Y-92530714D01*
D12*
X147828571Y-118494761D02*
X149161904Y-120494761D01*
X149161904Y-118494761D02*
X147828571Y-120494761D01*
X151257142Y-120685238D02*
X151066666Y-120590000D01*
X151066666Y-120590000D02*
X150876190Y-120399523D01*
X150876190Y-120399523D02*
X150590476Y-120113809D01*
X150590476Y-120113809D02*
X150399999Y-120018571D01*
X150399999Y-120018571D02*
X150209523Y-120018571D01*
X150304761Y-120494761D02*
X150114285Y-120399523D01*
X150114285Y-120399523D02*
X149923809Y-120209047D01*
X149923809Y-120209047D02*
X149828571Y-119828095D01*
X149828571Y-119828095D02*
X149828571Y-119161428D01*
X149828571Y-119161428D02*
X149923809Y-118780476D01*
X149923809Y-118780476D02*
X150114285Y-118590000D01*
X150114285Y-118590000D02*
X150304761Y-118494761D01*
X150304761Y-118494761D02*
X150685714Y-118494761D01*
X150685714Y-118494761D02*
X150876190Y-118590000D01*
X150876190Y-118590000D02*
X151066666Y-118780476D01*
X151066666Y-118780476D02*
X151161904Y-119161428D01*
X151161904Y-119161428D02*
X151161904Y-119828095D01*
X151161904Y-119828095D02*
X151066666Y-120209047D01*
X151066666Y-120209047D02*
X150876190Y-120399523D01*
X150876190Y-120399523D02*
X150685714Y-120494761D01*
X150685714Y-120494761D02*
X150304761Y-120494761D01*
X152876190Y-118494761D02*
X152495237Y-118494761D01*
X152495237Y-118494761D02*
X152304761Y-118590000D01*
X152304761Y-118590000D02*
X152209523Y-118685238D01*
X152209523Y-118685238D02*
X152019047Y-118970952D01*
X152019047Y-118970952D02*
X151923809Y-119351904D01*
X151923809Y-119351904D02*
X151923809Y-120113809D01*
X151923809Y-120113809D02*
X152019047Y-120304285D01*
X152019047Y-120304285D02*
X152114285Y-120399523D01*
X152114285Y-120399523D02*
X152304761Y-120494761D01*
X152304761Y-120494761D02*
X152685714Y-120494761D01*
X152685714Y-120494761D02*
X152876190Y-120399523D01*
X152876190Y-120399523D02*
X152971428Y-120304285D01*
X152971428Y-120304285D02*
X153066666Y-120113809D01*
X153066666Y-120113809D02*
X153066666Y-119637619D01*
X153066666Y-119637619D02*
X152971428Y-119447142D01*
X152971428Y-119447142D02*
X152876190Y-119351904D01*
X152876190Y-119351904D02*
X152685714Y-119256666D01*
X152685714Y-119256666D02*
X152304761Y-119256666D01*
X152304761Y-119256666D02*
X152114285Y-119351904D01*
X152114285Y-119351904D02*
X152019047Y-119447142D01*
X152019047Y-119447142D02*
X151923809Y-119637619D01*
X154590476Y-119447142D02*
X153923809Y-119447142D01*
X153923809Y-120494761D02*
X153923809Y-118494761D01*
X153923809Y-118494761D02*
X154876190Y-118494761D01*
X156019047Y-118494761D02*
X156400000Y-118494761D01*
X156400000Y-118494761D02*
X156590476Y-118590000D01*
X156590476Y-118590000D02*
X156780952Y-118780476D01*
X156780952Y-118780476D02*
X156876190Y-119161428D01*
X156876190Y-119161428D02*
X156876190Y-119828095D01*
X156876190Y-119828095D02*
X156780952Y-120209047D01*
X156780952Y-120209047D02*
X156590476Y-120399523D01*
X156590476Y-120399523D02*
X156400000Y-120494761D01*
X156400000Y-120494761D02*
X156019047Y-120494761D01*
X156019047Y-120494761D02*
X155828571Y-120399523D01*
X155828571Y-120399523D02*
X155638095Y-120209047D01*
X155638095Y-120209047D02*
X155542857Y-119828095D01*
X155542857Y-119828095D02*
X155542857Y-119161428D01*
X155542857Y-119161428D02*
X155638095Y-118780476D01*
X155638095Y-118780476D02*
X155828571Y-118590000D01*
X155828571Y-118590000D02*
X156019047Y-118494761D01*
X157733333Y-120494761D02*
X157733333Y-118494761D01*
X157733333Y-118494761D02*
X158209523Y-118494761D01*
X158209523Y-118494761D02*
X158495238Y-118590000D01*
X158495238Y-118590000D02*
X158685714Y-118780476D01*
X158685714Y-118780476D02*
X158780952Y-118970952D01*
X158780952Y-118970952D02*
X158876190Y-119351904D01*
X158876190Y-119351904D02*
X158876190Y-119637619D01*
X158876190Y-119637619D02*
X158780952Y-120018571D01*
X158780952Y-120018571D02*
X158685714Y-120209047D01*
X158685714Y-120209047D02*
X158495238Y-120399523D01*
X158495238Y-120399523D02*
X158209523Y-120494761D01*
X158209523Y-120494761D02*
X157733333Y-120494761D01*
X143723809Y-121734761D02*
X142771428Y-121734761D01*
X142771428Y-121734761D02*
X142676190Y-122687142D01*
X142676190Y-122687142D02*
X142771428Y-122591904D01*
X142771428Y-122591904D02*
X142961904Y-122496666D01*
X142961904Y-122496666D02*
X143438095Y-122496666D01*
X143438095Y-122496666D02*
X143628571Y-122591904D01*
X143628571Y-122591904D02*
X143723809Y-122687142D01*
X143723809Y-122687142D02*
X143819047Y-122877619D01*
X143819047Y-122877619D02*
X143819047Y-123353809D01*
X143819047Y-123353809D02*
X143723809Y-123544285D01*
X143723809Y-123544285D02*
X143628571Y-123639523D01*
X143628571Y-123639523D02*
X143438095Y-123734761D01*
X143438095Y-123734761D02*
X142961904Y-123734761D01*
X142961904Y-123734761D02*
X142771428Y-123639523D01*
X142771428Y-123639523D02*
X142676190Y-123544285D01*
X145057142Y-121734761D02*
X145247619Y-121734761D01*
X145247619Y-121734761D02*
X145438095Y-121830000D01*
X145438095Y-121830000D02*
X145533333Y-121925238D01*
X145533333Y-121925238D02*
X145628571Y-122115714D01*
X145628571Y-122115714D02*
X145723809Y-122496666D01*
X145723809Y-122496666D02*
X145723809Y-122972857D01*
X145723809Y-122972857D02*
X145628571Y-123353809D01*
X145628571Y-123353809D02*
X145533333Y-123544285D01*
X145533333Y-123544285D02*
X145438095Y-123639523D01*
X145438095Y-123639523D02*
X145247619Y-123734761D01*
X145247619Y-123734761D02*
X145057142Y-123734761D01*
X145057142Y-123734761D02*
X144866666Y-123639523D01*
X144866666Y-123639523D02*
X144771428Y-123544285D01*
X144771428Y-123544285D02*
X144676190Y-123353809D01*
X144676190Y-123353809D02*
X144580952Y-122972857D01*
X144580952Y-122972857D02*
X144580952Y-122496666D01*
X144580952Y-122496666D02*
X144676190Y-122115714D01*
X144676190Y-122115714D02*
X144771428Y-121925238D01*
X144771428Y-121925238D02*
X144866666Y-121830000D01*
X144866666Y-121830000D02*
X145057142Y-121734761D01*
X146390476Y-121734761D02*
X146866666Y-123734761D01*
X146866666Y-123734761D02*
X147247619Y-122306190D01*
X147247619Y-122306190D02*
X147628571Y-123734761D01*
X147628571Y-123734761D02*
X148104762Y-121734761D01*
X151019047Y-123734761D02*
X150066666Y-123734761D01*
X150066666Y-123734761D02*
X150066666Y-121734761D01*
X151685714Y-123734761D02*
X151685714Y-121734761D01*
X151685714Y-121734761D02*
X152161904Y-121734761D01*
X152161904Y-121734761D02*
X152447619Y-121830000D01*
X152447619Y-121830000D02*
X152638095Y-122020476D01*
X152638095Y-122020476D02*
X152733333Y-122210952D01*
X152733333Y-122210952D02*
X152828571Y-122591904D01*
X152828571Y-122591904D02*
X152828571Y-122877619D01*
X152828571Y-122877619D02*
X152733333Y-123258571D01*
X152733333Y-123258571D02*
X152638095Y-123449047D01*
X152638095Y-123449047D02*
X152447619Y-123639523D01*
X152447619Y-123639523D02*
X152161904Y-123734761D01*
X152161904Y-123734761D02*
X151685714Y-123734761D01*
X153685714Y-123734761D02*
X153685714Y-121734761D01*
X153685714Y-121734761D02*
X154352381Y-123163333D01*
X154352381Y-123163333D02*
X155019047Y-121734761D01*
X155019047Y-121734761D02*
X155019047Y-123734761D01*
X156352380Y-121734761D02*
X156733333Y-121734761D01*
X156733333Y-121734761D02*
X156923809Y-121830000D01*
X156923809Y-121830000D02*
X157114285Y-122020476D01*
X157114285Y-122020476D02*
X157209523Y-122401428D01*
X157209523Y-122401428D02*
X157209523Y-123068095D01*
X157209523Y-123068095D02*
X157114285Y-123449047D01*
X157114285Y-123449047D02*
X156923809Y-123639523D01*
X156923809Y-123639523D02*
X156733333Y-123734761D01*
X156733333Y-123734761D02*
X156352380Y-123734761D01*
X156352380Y-123734761D02*
X156161904Y-123639523D01*
X156161904Y-123639523D02*
X155971428Y-123449047D01*
X155971428Y-123449047D02*
X155876190Y-123068095D01*
X155876190Y-123068095D02*
X155876190Y-122401428D01*
X155876190Y-122401428D02*
X155971428Y-122020476D01*
X155971428Y-122020476D02*
X156161904Y-121830000D01*
X156161904Y-121830000D02*
X156352380Y-121734761D01*
X157971428Y-123639523D02*
X158257142Y-123734761D01*
X158257142Y-123734761D02*
X158733333Y-123734761D01*
X158733333Y-123734761D02*
X158923809Y-123639523D01*
X158923809Y-123639523D02*
X159019047Y-123544285D01*
X159019047Y-123544285D02*
X159114285Y-123353809D01*
X159114285Y-123353809D02*
X159114285Y-123163333D01*
X159114285Y-123163333D02*
X159019047Y-122972857D01*
X159019047Y-122972857D02*
X158923809Y-122877619D01*
X158923809Y-122877619D02*
X158733333Y-122782380D01*
X158733333Y-122782380D02*
X158352380Y-122687142D01*
X158352380Y-122687142D02*
X158161904Y-122591904D01*
X158161904Y-122591904D02*
X158066666Y-122496666D01*
X158066666Y-122496666D02*
X157971428Y-122306190D01*
X157971428Y-122306190D02*
X157971428Y-122115714D01*
X157971428Y-122115714D02*
X158066666Y-121925238D01*
X158066666Y-121925238D02*
X158161904Y-121830000D01*
X158161904Y-121830000D02*
X158352380Y-121734761D01*
X158352380Y-121734761D02*
X158828571Y-121734761D01*
X158828571Y-121734761D02*
X159114285Y-121830000D01*
X161171428Y-123734761D02*
X161171428Y-121734761D01*
X161171428Y-122687142D02*
X162314285Y-122687142D01*
X162314285Y-123734761D02*
X162314285Y-121734761D01*
X163933333Y-122687142D02*
X163266666Y-122687142D01*
X163266666Y-123734761D02*
X163266666Y-121734761D01*
X163266666Y-121734761D02*
X164219047Y-121734761D01*
X143638094Y-126974761D02*
X142685713Y-126974761D01*
X142685713Y-126974761D02*
X142685713Y-124974761D01*
X144304761Y-126974761D02*
X144304761Y-125641428D01*
X144304761Y-124974761D02*
X144209523Y-125070000D01*
X144209523Y-125070000D02*
X144304761Y-125165238D01*
X144304761Y-125165238D02*
X144399999Y-125070000D01*
X144399999Y-125070000D02*
X144304761Y-124974761D01*
X144304761Y-124974761D02*
X144304761Y-125165238D01*
X145257142Y-125641428D02*
X145257142Y-126974761D01*
X145257142Y-125831904D02*
X145352380Y-125736666D01*
X145352380Y-125736666D02*
X145542856Y-125641428D01*
X145542856Y-125641428D02*
X145828571Y-125641428D01*
X145828571Y-125641428D02*
X146019047Y-125736666D01*
X146019047Y-125736666D02*
X146114285Y-125927142D01*
X146114285Y-125927142D02*
X146114285Y-126974761D01*
X147828571Y-126879523D02*
X147638095Y-126974761D01*
X147638095Y-126974761D02*
X147257142Y-126974761D01*
X147257142Y-126974761D02*
X147066666Y-126879523D01*
X147066666Y-126879523D02*
X146971428Y-126689047D01*
X146971428Y-126689047D02*
X146971428Y-125927142D01*
X146971428Y-125927142D02*
X147066666Y-125736666D01*
X147066666Y-125736666D02*
X147257142Y-125641428D01*
X147257142Y-125641428D02*
X147638095Y-125641428D01*
X147638095Y-125641428D02*
X147828571Y-125736666D01*
X147828571Y-125736666D02*
X147923809Y-125927142D01*
X147923809Y-125927142D02*
X147923809Y-126117619D01*
X147923809Y-126117619D02*
X146971428Y-126308095D01*
X149638095Y-126974761D02*
X149638095Y-125927142D01*
X149638095Y-125927142D02*
X149542857Y-125736666D01*
X149542857Y-125736666D02*
X149352381Y-125641428D01*
X149352381Y-125641428D02*
X148971428Y-125641428D01*
X148971428Y-125641428D02*
X148780952Y-125736666D01*
X149638095Y-126879523D02*
X149447619Y-126974761D01*
X149447619Y-126974761D02*
X148971428Y-126974761D01*
X148971428Y-126974761D02*
X148780952Y-126879523D01*
X148780952Y-126879523D02*
X148685714Y-126689047D01*
X148685714Y-126689047D02*
X148685714Y-126498571D01*
X148685714Y-126498571D02*
X148780952Y-126308095D01*
X148780952Y-126308095D02*
X148971428Y-126212857D01*
X148971428Y-126212857D02*
X149447619Y-126212857D01*
X149447619Y-126212857D02*
X149638095Y-126117619D01*
X150590476Y-126974761D02*
X150590476Y-125641428D01*
X150590476Y-126022380D02*
X150685714Y-125831904D01*
X150685714Y-125831904D02*
X150780952Y-125736666D01*
X150780952Y-125736666D02*
X150971428Y-125641428D01*
X150971428Y-125641428D02*
X151161905Y-125641428D01*
X152933333Y-126403333D02*
X153885714Y-126403333D01*
X152742857Y-126974761D02*
X153409523Y-124974761D01*
X153409523Y-124974761D02*
X154076190Y-126974761D01*
X154742857Y-126974761D02*
X154742857Y-125641428D01*
X154742857Y-125831904D02*
X154838095Y-125736666D01*
X154838095Y-125736666D02*
X155028571Y-125641428D01*
X155028571Y-125641428D02*
X155314286Y-125641428D01*
X155314286Y-125641428D02*
X155504762Y-125736666D01*
X155504762Y-125736666D02*
X155600000Y-125927142D01*
X155600000Y-125927142D02*
X155600000Y-126974761D01*
X155600000Y-125927142D02*
X155695238Y-125736666D01*
X155695238Y-125736666D02*
X155885714Y-125641428D01*
X155885714Y-125641428D02*
X156171428Y-125641428D01*
X156171428Y-125641428D02*
X156361905Y-125736666D01*
X156361905Y-125736666D02*
X156457143Y-125927142D01*
X156457143Y-125927142D02*
X156457143Y-126974761D01*
X157409524Y-125641428D02*
X157409524Y-127641428D01*
X157409524Y-125736666D02*
X157600000Y-125641428D01*
X157600000Y-125641428D02*
X157980953Y-125641428D01*
X157980953Y-125641428D02*
X158171429Y-125736666D01*
X158171429Y-125736666D02*
X158266667Y-125831904D01*
X158266667Y-125831904D02*
X158361905Y-126022380D01*
X158361905Y-126022380D02*
X158361905Y-126593809D01*
X158361905Y-126593809D02*
X158266667Y-126784285D01*
X158266667Y-126784285D02*
X158171429Y-126879523D01*
X158171429Y-126879523D02*
X157980953Y-126974761D01*
X157980953Y-126974761D02*
X157600000Y-126974761D01*
X157600000Y-126974761D02*
X157409524Y-126879523D01*
X159504762Y-126974761D02*
X159314286Y-126879523D01*
X159314286Y-126879523D02*
X159219048Y-126689047D01*
X159219048Y-126689047D02*
X159219048Y-124974761D01*
X160266667Y-126974761D02*
X160266667Y-125641428D01*
X160266667Y-124974761D02*
X160171429Y-125070000D01*
X160171429Y-125070000D02*
X160266667Y-125165238D01*
X160266667Y-125165238D02*
X160361905Y-125070000D01*
X160361905Y-125070000D02*
X160266667Y-124974761D01*
X160266667Y-124974761D02*
X160266667Y-125165238D01*
X160933334Y-125641428D02*
X161695238Y-125641428D01*
X161219048Y-126974761D02*
X161219048Y-125260476D01*
X161219048Y-125260476D02*
X161314286Y-125070000D01*
X161314286Y-125070000D02*
X161504762Y-124974761D01*
X161504762Y-124974761D02*
X161695238Y-124974761D01*
X162361905Y-126974761D02*
X162361905Y-125641428D01*
X162361905Y-124974761D02*
X162266667Y-125070000D01*
X162266667Y-125070000D02*
X162361905Y-125165238D01*
X162361905Y-125165238D02*
X162457143Y-125070000D01*
X162457143Y-125070000D02*
X162361905Y-124974761D01*
X162361905Y-124974761D02*
X162361905Y-125165238D01*
X164076191Y-126879523D02*
X163885715Y-126974761D01*
X163885715Y-126974761D02*
X163504762Y-126974761D01*
X163504762Y-126974761D02*
X163314286Y-126879523D01*
X163314286Y-126879523D02*
X163219048Y-126689047D01*
X163219048Y-126689047D02*
X163219048Y-125927142D01*
X163219048Y-125927142D02*
X163314286Y-125736666D01*
X163314286Y-125736666D02*
X163504762Y-125641428D01*
X163504762Y-125641428D02*
X163885715Y-125641428D01*
X163885715Y-125641428D02*
X164076191Y-125736666D01*
X164076191Y-125736666D02*
X164171429Y-125927142D01*
X164171429Y-125927142D02*
X164171429Y-126117619D01*
X164171429Y-126117619D02*
X163219048Y-126308095D01*
X165028572Y-126974761D02*
X165028572Y-125641428D01*
X165028572Y-126022380D02*
X165123810Y-125831904D01*
X165123810Y-125831904D02*
X165219048Y-125736666D01*
X165219048Y-125736666D02*
X165409524Y-125641428D01*
X165409524Y-125641428D02*
X165600001Y-125641428D01*
D10*
X106614286Y-110227857D02*
X106661905Y-110180238D01*
X106661905Y-110180238D02*
X106804762Y-110132619D01*
X106804762Y-110132619D02*
X106900000Y-110132619D01*
X106900000Y-110132619D02*
X107042857Y-110180238D01*
X107042857Y-110180238D02*
X107138095Y-110275476D01*
X107138095Y-110275476D02*
X107185714Y-110370714D01*
X107185714Y-110370714D02*
X107233333Y-110561190D01*
X107233333Y-110561190D02*
X107233333Y-110704047D01*
X107233333Y-110704047D02*
X107185714Y-110894523D01*
X107185714Y-110894523D02*
X107138095Y-110989761D01*
X107138095Y-110989761D02*
X107042857Y-111085000D01*
X107042857Y-111085000D02*
X106900000Y-111132619D01*
X106900000Y-111132619D02*
X106804762Y-111132619D01*
X106804762Y-111132619D02*
X106661905Y-111085000D01*
X106661905Y-111085000D02*
X106614286Y-111037380D01*
X105757143Y-110799285D02*
X105757143Y-110132619D01*
X106185714Y-110799285D02*
X106185714Y-110275476D01*
X106185714Y-110275476D02*
X106138095Y-110180238D01*
X106138095Y-110180238D02*
X106042857Y-110132619D01*
X106042857Y-110132619D02*
X105900000Y-110132619D01*
X105900000Y-110132619D02*
X105804762Y-110180238D01*
X105804762Y-110180238D02*
X105757143Y-110227857D01*
X105423809Y-110799285D02*
X105042857Y-110799285D01*
X105280952Y-111132619D02*
X105280952Y-110275476D01*
X105280952Y-110275476D02*
X105233333Y-110180238D01*
X105233333Y-110180238D02*
X105138095Y-110132619D01*
X105138095Y-110132619D02*
X105042857Y-110132619D01*
X104109523Y-110132619D02*
X104109523Y-111132619D01*
X103680952Y-110132619D02*
X103680952Y-110656428D01*
X103680952Y-110656428D02*
X103728571Y-110751666D01*
X103728571Y-110751666D02*
X103823809Y-110799285D01*
X103823809Y-110799285D02*
X103966666Y-110799285D01*
X103966666Y-110799285D02*
X104061904Y-110751666D01*
X104061904Y-110751666D02*
X104109523Y-110704047D01*
X102823809Y-110180238D02*
X102919047Y-110132619D01*
X102919047Y-110132619D02*
X103109523Y-110132619D01*
X103109523Y-110132619D02*
X103204761Y-110180238D01*
X103204761Y-110180238D02*
X103252380Y-110275476D01*
X103252380Y-110275476D02*
X103252380Y-110656428D01*
X103252380Y-110656428D02*
X103204761Y-110751666D01*
X103204761Y-110751666D02*
X103109523Y-110799285D01*
X103109523Y-110799285D02*
X102919047Y-110799285D01*
X102919047Y-110799285D02*
X102823809Y-110751666D01*
X102823809Y-110751666D02*
X102776190Y-110656428D01*
X102776190Y-110656428D02*
X102776190Y-110561190D01*
X102776190Y-110561190D02*
X103252380Y-110465952D01*
X102347618Y-110132619D02*
X102347618Y-110799285D01*
X102347618Y-110608809D02*
X102299999Y-110704047D01*
X102299999Y-110704047D02*
X102252380Y-110751666D01*
X102252380Y-110751666D02*
X102157142Y-110799285D01*
X102157142Y-110799285D02*
X102061904Y-110799285D01*
X101347618Y-110180238D02*
X101442856Y-110132619D01*
X101442856Y-110132619D02*
X101633332Y-110132619D01*
X101633332Y-110132619D02*
X101728570Y-110180238D01*
X101728570Y-110180238D02*
X101776189Y-110275476D01*
X101776189Y-110275476D02*
X101776189Y-110656428D01*
X101776189Y-110656428D02*
X101728570Y-110751666D01*
X101728570Y-110751666D02*
X101633332Y-110799285D01*
X101633332Y-110799285D02*
X101442856Y-110799285D01*
X101442856Y-110799285D02*
X101347618Y-110751666D01*
X101347618Y-110751666D02*
X101299999Y-110656428D01*
X101299999Y-110656428D02*
X101299999Y-110561190D01*
X101299999Y-110561190D02*
X101776189Y-110465952D01*
X100271427Y-110132619D02*
X100271427Y-110799285D01*
X100271427Y-111132619D02*
X100319046Y-111085000D01*
X100319046Y-111085000D02*
X100271427Y-111037380D01*
X100271427Y-111037380D02*
X100223808Y-111085000D01*
X100223808Y-111085000D02*
X100271427Y-111132619D01*
X100271427Y-111132619D02*
X100271427Y-111037380D01*
X99938094Y-110799285D02*
X99557142Y-110799285D01*
X99795237Y-110132619D02*
X99795237Y-110989761D01*
X99795237Y-110989761D02*
X99747618Y-111085000D01*
X99747618Y-111085000D02*
X99652380Y-111132619D01*
X99652380Y-111132619D02*
X99557142Y-111132619D01*
X98623808Y-110799285D02*
X98623808Y-110132619D01*
X98623808Y-110704047D02*
X98576189Y-110751666D01*
X98576189Y-110751666D02*
X98480951Y-110799285D01*
X98480951Y-110799285D02*
X98338094Y-110799285D01*
X98338094Y-110799285D02*
X98242856Y-110751666D01*
X98242856Y-110751666D02*
X98195237Y-110656428D01*
X98195237Y-110656428D02*
X98195237Y-110132619D01*
X97338094Y-110180238D02*
X97433332Y-110132619D01*
X97433332Y-110132619D02*
X97623808Y-110132619D01*
X97623808Y-110132619D02*
X97719046Y-110180238D01*
X97719046Y-110180238D02*
X97766665Y-110275476D01*
X97766665Y-110275476D02*
X97766665Y-110656428D01*
X97766665Y-110656428D02*
X97719046Y-110751666D01*
X97719046Y-110751666D02*
X97623808Y-110799285D01*
X97623808Y-110799285D02*
X97433332Y-110799285D01*
X97433332Y-110799285D02*
X97338094Y-110751666D01*
X97338094Y-110751666D02*
X97290475Y-110656428D01*
X97290475Y-110656428D02*
X97290475Y-110561190D01*
X97290475Y-110561190D02*
X97766665Y-110465952D01*
X96480951Y-110180238D02*
X96576189Y-110132619D01*
X96576189Y-110132619D02*
X96766665Y-110132619D01*
X96766665Y-110132619D02*
X96861903Y-110180238D01*
X96861903Y-110180238D02*
X96909522Y-110275476D01*
X96909522Y-110275476D02*
X96909522Y-110656428D01*
X96909522Y-110656428D02*
X96861903Y-110751666D01*
X96861903Y-110751666D02*
X96766665Y-110799285D01*
X96766665Y-110799285D02*
X96576189Y-110799285D01*
X96576189Y-110799285D02*
X96480951Y-110751666D01*
X96480951Y-110751666D02*
X96433332Y-110656428D01*
X96433332Y-110656428D02*
X96433332Y-110561190D01*
X96433332Y-110561190D02*
X96909522Y-110465952D01*
X95576189Y-110132619D02*
X95576189Y-111132619D01*
X95576189Y-110180238D02*
X95671427Y-110132619D01*
X95671427Y-110132619D02*
X95861903Y-110132619D01*
X95861903Y-110132619D02*
X95957141Y-110180238D01*
X95957141Y-110180238D02*
X96004760Y-110227857D01*
X96004760Y-110227857D02*
X96052379Y-110323095D01*
X96052379Y-110323095D02*
X96052379Y-110608809D01*
X96052379Y-110608809D02*
X96004760Y-110704047D01*
X96004760Y-110704047D02*
X95957141Y-110751666D01*
X95957141Y-110751666D02*
X95861903Y-110799285D01*
X95861903Y-110799285D02*
X95671427Y-110799285D01*
X95671427Y-110799285D02*
X95576189Y-110751666D01*
X94719046Y-110180238D02*
X94814284Y-110132619D01*
X94814284Y-110132619D02*
X95004760Y-110132619D01*
X95004760Y-110132619D02*
X95099998Y-110180238D01*
X95099998Y-110180238D02*
X95147617Y-110275476D01*
X95147617Y-110275476D02*
X95147617Y-110656428D01*
X95147617Y-110656428D02*
X95099998Y-110751666D01*
X95099998Y-110751666D02*
X95004760Y-110799285D01*
X95004760Y-110799285D02*
X94814284Y-110799285D01*
X94814284Y-110799285D02*
X94719046Y-110751666D01*
X94719046Y-110751666D02*
X94671427Y-110656428D01*
X94671427Y-110656428D02*
X94671427Y-110561190D01*
X94671427Y-110561190D02*
X95147617Y-110465952D01*
X93814284Y-110132619D02*
X93814284Y-111132619D01*
X93814284Y-110180238D02*
X93909522Y-110132619D01*
X93909522Y-110132619D02*
X94099998Y-110132619D01*
X94099998Y-110132619D02*
X94195236Y-110180238D01*
X94195236Y-110180238D02*
X94242855Y-110227857D01*
X94242855Y-110227857D02*
X94290474Y-110323095D01*
X94290474Y-110323095D02*
X94290474Y-110608809D01*
X94290474Y-110608809D02*
X94242855Y-110704047D01*
X94242855Y-110704047D02*
X94195236Y-110751666D01*
X94195236Y-110751666D02*
X94099998Y-110799285D01*
X94099998Y-110799285D02*
X93909522Y-110799285D01*
X93909522Y-110799285D02*
X93814284Y-110751666D01*
X114049999Y-66257166D02*
X113816666Y-65923833D01*
X113649999Y-66257166D02*
X113649999Y-65557166D01*
X113649999Y-65557166D02*
X113916666Y-65557166D01*
X113916666Y-65557166D02*
X113983333Y-65590500D01*
X113983333Y-65590500D02*
X114016666Y-65623833D01*
X114016666Y-65623833D02*
X114049999Y-65690500D01*
X114049999Y-65690500D02*
X114049999Y-65790500D01*
X114049999Y-65790500D02*
X114016666Y-65857166D01*
X114016666Y-65857166D02*
X113983333Y-65890500D01*
X113983333Y-65890500D02*
X113916666Y-65923833D01*
X113916666Y-65923833D02*
X113649999Y-65923833D01*
X114716666Y-66257166D02*
X114316666Y-66257166D01*
X114516666Y-66257166D02*
X114516666Y-65557166D01*
X114516666Y-65557166D02*
X114449999Y-65657166D01*
X114449999Y-65657166D02*
X114383333Y-65723833D01*
X114383333Y-65723833D02*
X114316666Y-65757166D01*
X115316666Y-65790500D02*
X115316666Y-66257166D01*
X115150000Y-65523833D02*
X114983333Y-66023833D01*
X114983333Y-66023833D02*
X115416666Y-66023833D01*
D12*
X90280952Y-76234761D02*
X89614285Y-75282380D01*
X89138095Y-76234761D02*
X89138095Y-74234761D01*
X89138095Y-74234761D02*
X89900000Y-74234761D01*
X89900000Y-74234761D02*
X90090476Y-74330000D01*
X90090476Y-74330000D02*
X90185714Y-74425238D01*
X90185714Y-74425238D02*
X90280952Y-74615714D01*
X90280952Y-74615714D02*
X90280952Y-74901428D01*
X90280952Y-74901428D02*
X90185714Y-75091904D01*
X90185714Y-75091904D02*
X90090476Y-75187142D01*
X90090476Y-75187142D02*
X89900000Y-75282380D01*
X89900000Y-75282380D02*
X89138095Y-75282380D01*
X91804762Y-75187142D02*
X91138095Y-75187142D01*
X91138095Y-76234761D02*
X91138095Y-74234761D01*
X91138095Y-74234761D02*
X92090476Y-74234761D01*
X94052381Y-76234761D02*
X94052381Y-74234761D01*
X95004762Y-74901428D02*
X95004762Y-76234761D01*
X95004762Y-75091904D02*
X95100000Y-74996666D01*
X95100000Y-74996666D02*
X95290476Y-74901428D01*
X95290476Y-74901428D02*
X95576191Y-74901428D01*
X95576191Y-74901428D02*
X95766667Y-74996666D01*
X95766667Y-74996666D02*
X95861905Y-75187142D01*
X95861905Y-75187142D02*
X95861905Y-76234761D01*
X148297618Y-41734761D02*
X147154761Y-41734761D01*
X147726189Y-41734761D02*
X147726189Y-39734761D01*
X147726189Y-39734761D02*
X147535713Y-40020476D01*
X147535713Y-40020476D02*
X147345237Y-40210952D01*
X147345237Y-40210952D02*
X147154761Y-40306190D01*
X149059523Y-39925238D02*
X149154761Y-39830000D01*
X149154761Y-39830000D02*
X149345237Y-39734761D01*
X149345237Y-39734761D02*
X149821428Y-39734761D01*
X149821428Y-39734761D02*
X150011904Y-39830000D01*
X150011904Y-39830000D02*
X150107142Y-39925238D01*
X150107142Y-39925238D02*
X150202380Y-40115714D01*
X150202380Y-40115714D02*
X150202380Y-40306190D01*
X150202380Y-40306190D02*
X150107142Y-40591904D01*
X150107142Y-40591904D02*
X148964285Y-41734761D01*
X148964285Y-41734761D02*
X150202380Y-41734761D01*
X150773809Y-39734761D02*
X151440475Y-41734761D01*
X151440475Y-41734761D02*
X152107142Y-39734761D01*
X153630952Y-41639523D02*
X153440476Y-41734761D01*
X153440476Y-41734761D02*
X153059523Y-41734761D01*
X153059523Y-41734761D02*
X152869047Y-41639523D01*
X152869047Y-41639523D02*
X152773809Y-41544285D01*
X152773809Y-41544285D02*
X152678571Y-41353809D01*
X152678571Y-41353809D02*
X152678571Y-40782380D01*
X152678571Y-40782380D02*
X152773809Y-40591904D01*
X152773809Y-40591904D02*
X152869047Y-40496666D01*
X152869047Y-40496666D02*
X153059523Y-40401428D01*
X153059523Y-40401428D02*
X153440476Y-40401428D01*
X153440476Y-40401428D02*
X153630952Y-40496666D01*
X155345238Y-41639523D02*
X155154762Y-41734761D01*
X155154762Y-41734761D02*
X154773809Y-41734761D01*
X154773809Y-41734761D02*
X154583333Y-41639523D01*
X154583333Y-41639523D02*
X154488095Y-41544285D01*
X154488095Y-41544285D02*
X154392857Y-41353809D01*
X154392857Y-41353809D02*
X154392857Y-40782380D01*
X154392857Y-40782380D02*
X154488095Y-40591904D01*
X154488095Y-40591904D02*
X154583333Y-40496666D01*
X154583333Y-40496666D02*
X154773809Y-40401428D01*
X154773809Y-40401428D02*
X155154762Y-40401428D01*
X155154762Y-40401428D02*
X155345238Y-40496666D01*
D10*
X113549999Y-92757166D02*
X113316666Y-92423833D01*
X113149999Y-92757166D02*
X113149999Y-92057166D01*
X113149999Y-92057166D02*
X113416666Y-92057166D01*
X113416666Y-92057166D02*
X113483333Y-92090500D01*
X113483333Y-92090500D02*
X113516666Y-92123833D01*
X113516666Y-92123833D02*
X113549999Y-92190500D01*
X113549999Y-92190500D02*
X113549999Y-92290500D01*
X113549999Y-92290500D02*
X113516666Y-92357166D01*
X113516666Y-92357166D02*
X113483333Y-92390500D01*
X113483333Y-92390500D02*
X113416666Y-92423833D01*
X113416666Y-92423833D02*
X113149999Y-92423833D01*
X114216666Y-92757166D02*
X113816666Y-92757166D01*
X114016666Y-92757166D02*
X114016666Y-92057166D01*
X114016666Y-92057166D02*
X113949999Y-92157166D01*
X113949999Y-92157166D02*
X113883333Y-92223833D01*
X113883333Y-92223833D02*
X113816666Y-92257166D01*
X114850000Y-92057166D02*
X114516666Y-92057166D01*
X114516666Y-92057166D02*
X114483333Y-92390500D01*
X114483333Y-92390500D02*
X114516666Y-92357166D01*
X114516666Y-92357166D02*
X114583333Y-92323833D01*
X114583333Y-92323833D02*
X114750000Y-92323833D01*
X114750000Y-92323833D02*
X114816666Y-92357166D01*
X114816666Y-92357166D02*
X114850000Y-92390500D01*
X114850000Y-92390500D02*
X114883333Y-92457166D01*
X114883333Y-92457166D02*
X114883333Y-92623833D01*
X114883333Y-92623833D02*
X114850000Y-92690500D01*
X114850000Y-92690500D02*
X114816666Y-92723833D01*
X114816666Y-92723833D02*
X114750000Y-92757166D01*
X114750000Y-92757166D02*
X114583333Y-92757166D01*
X114583333Y-92757166D02*
X114516666Y-92723833D01*
X114516666Y-92723833D02*
X114483333Y-92690500D01*
X163114286Y-110227857D02*
X163161905Y-110180238D01*
X163161905Y-110180238D02*
X163304762Y-110132619D01*
X163304762Y-110132619D02*
X163400000Y-110132619D01*
X163400000Y-110132619D02*
X163542857Y-110180238D01*
X163542857Y-110180238D02*
X163638095Y-110275476D01*
X163638095Y-110275476D02*
X163685714Y-110370714D01*
X163685714Y-110370714D02*
X163733333Y-110561190D01*
X163733333Y-110561190D02*
X163733333Y-110704047D01*
X163733333Y-110704047D02*
X163685714Y-110894523D01*
X163685714Y-110894523D02*
X163638095Y-110989761D01*
X163638095Y-110989761D02*
X163542857Y-111085000D01*
X163542857Y-111085000D02*
X163400000Y-111132619D01*
X163400000Y-111132619D02*
X163304762Y-111132619D01*
X163304762Y-111132619D02*
X163161905Y-111085000D01*
X163161905Y-111085000D02*
X163114286Y-111037380D01*
X162257143Y-110799285D02*
X162257143Y-110132619D01*
X162685714Y-110799285D02*
X162685714Y-110275476D01*
X162685714Y-110275476D02*
X162638095Y-110180238D01*
X162638095Y-110180238D02*
X162542857Y-110132619D01*
X162542857Y-110132619D02*
X162400000Y-110132619D01*
X162400000Y-110132619D02*
X162304762Y-110180238D01*
X162304762Y-110180238D02*
X162257143Y-110227857D01*
X161923809Y-110799285D02*
X161542857Y-110799285D01*
X161780952Y-111132619D02*
X161780952Y-110275476D01*
X161780952Y-110275476D02*
X161733333Y-110180238D01*
X161733333Y-110180238D02*
X161638095Y-110132619D01*
X161638095Y-110132619D02*
X161542857Y-110132619D01*
X160609523Y-110132619D02*
X160609523Y-111132619D01*
X160180952Y-110132619D02*
X160180952Y-110656428D01*
X160180952Y-110656428D02*
X160228571Y-110751666D01*
X160228571Y-110751666D02*
X160323809Y-110799285D01*
X160323809Y-110799285D02*
X160466666Y-110799285D01*
X160466666Y-110799285D02*
X160561904Y-110751666D01*
X160561904Y-110751666D02*
X160609523Y-110704047D01*
X159323809Y-110180238D02*
X159419047Y-110132619D01*
X159419047Y-110132619D02*
X159609523Y-110132619D01*
X159609523Y-110132619D02*
X159704761Y-110180238D01*
X159704761Y-110180238D02*
X159752380Y-110275476D01*
X159752380Y-110275476D02*
X159752380Y-110656428D01*
X159752380Y-110656428D02*
X159704761Y-110751666D01*
X159704761Y-110751666D02*
X159609523Y-110799285D01*
X159609523Y-110799285D02*
X159419047Y-110799285D01*
X159419047Y-110799285D02*
X159323809Y-110751666D01*
X159323809Y-110751666D02*
X159276190Y-110656428D01*
X159276190Y-110656428D02*
X159276190Y-110561190D01*
X159276190Y-110561190D02*
X159752380Y-110465952D01*
X158847618Y-110132619D02*
X158847618Y-110799285D01*
X158847618Y-110608809D02*
X158799999Y-110704047D01*
X158799999Y-110704047D02*
X158752380Y-110751666D01*
X158752380Y-110751666D02*
X158657142Y-110799285D01*
X158657142Y-110799285D02*
X158561904Y-110799285D01*
X157847618Y-110180238D02*
X157942856Y-110132619D01*
X157942856Y-110132619D02*
X158133332Y-110132619D01*
X158133332Y-110132619D02*
X158228570Y-110180238D01*
X158228570Y-110180238D02*
X158276189Y-110275476D01*
X158276189Y-110275476D02*
X158276189Y-110656428D01*
X158276189Y-110656428D02*
X158228570Y-110751666D01*
X158228570Y-110751666D02*
X158133332Y-110799285D01*
X158133332Y-110799285D02*
X157942856Y-110799285D01*
X157942856Y-110799285D02*
X157847618Y-110751666D01*
X157847618Y-110751666D02*
X157799999Y-110656428D01*
X157799999Y-110656428D02*
X157799999Y-110561190D01*
X157799999Y-110561190D02*
X158276189Y-110465952D01*
X156771427Y-110132619D02*
X156771427Y-110799285D01*
X156771427Y-111132619D02*
X156819046Y-111085000D01*
X156819046Y-111085000D02*
X156771427Y-111037380D01*
X156771427Y-111037380D02*
X156723808Y-111085000D01*
X156723808Y-111085000D02*
X156771427Y-111132619D01*
X156771427Y-111132619D02*
X156771427Y-111037380D01*
X156438094Y-110799285D02*
X156057142Y-110799285D01*
X156295237Y-110132619D02*
X156295237Y-110989761D01*
X156295237Y-110989761D02*
X156247618Y-111085000D01*
X156247618Y-111085000D02*
X156152380Y-111132619D01*
X156152380Y-111132619D02*
X156057142Y-111132619D01*
X155123808Y-110799285D02*
X155123808Y-110132619D01*
X155123808Y-110704047D02*
X155076189Y-110751666D01*
X155076189Y-110751666D02*
X154980951Y-110799285D01*
X154980951Y-110799285D02*
X154838094Y-110799285D01*
X154838094Y-110799285D02*
X154742856Y-110751666D01*
X154742856Y-110751666D02*
X154695237Y-110656428D01*
X154695237Y-110656428D02*
X154695237Y-110132619D01*
X153838094Y-110180238D02*
X153933332Y-110132619D01*
X153933332Y-110132619D02*
X154123808Y-110132619D01*
X154123808Y-110132619D02*
X154219046Y-110180238D01*
X154219046Y-110180238D02*
X154266665Y-110275476D01*
X154266665Y-110275476D02*
X154266665Y-110656428D01*
X154266665Y-110656428D02*
X154219046Y-110751666D01*
X154219046Y-110751666D02*
X154123808Y-110799285D01*
X154123808Y-110799285D02*
X153933332Y-110799285D01*
X153933332Y-110799285D02*
X153838094Y-110751666D01*
X153838094Y-110751666D02*
X153790475Y-110656428D01*
X153790475Y-110656428D02*
X153790475Y-110561190D01*
X153790475Y-110561190D02*
X154266665Y-110465952D01*
X152980951Y-110180238D02*
X153076189Y-110132619D01*
X153076189Y-110132619D02*
X153266665Y-110132619D01*
X153266665Y-110132619D02*
X153361903Y-110180238D01*
X153361903Y-110180238D02*
X153409522Y-110275476D01*
X153409522Y-110275476D02*
X153409522Y-110656428D01*
X153409522Y-110656428D02*
X153361903Y-110751666D01*
X153361903Y-110751666D02*
X153266665Y-110799285D01*
X153266665Y-110799285D02*
X153076189Y-110799285D01*
X153076189Y-110799285D02*
X152980951Y-110751666D01*
X152980951Y-110751666D02*
X152933332Y-110656428D01*
X152933332Y-110656428D02*
X152933332Y-110561190D01*
X152933332Y-110561190D02*
X153409522Y-110465952D01*
X152076189Y-110132619D02*
X152076189Y-111132619D01*
X152076189Y-110180238D02*
X152171427Y-110132619D01*
X152171427Y-110132619D02*
X152361903Y-110132619D01*
X152361903Y-110132619D02*
X152457141Y-110180238D01*
X152457141Y-110180238D02*
X152504760Y-110227857D01*
X152504760Y-110227857D02*
X152552379Y-110323095D01*
X152552379Y-110323095D02*
X152552379Y-110608809D01*
X152552379Y-110608809D02*
X152504760Y-110704047D01*
X152504760Y-110704047D02*
X152457141Y-110751666D01*
X152457141Y-110751666D02*
X152361903Y-110799285D01*
X152361903Y-110799285D02*
X152171427Y-110799285D01*
X152171427Y-110799285D02*
X152076189Y-110751666D01*
X151219046Y-110180238D02*
X151314284Y-110132619D01*
X151314284Y-110132619D02*
X151504760Y-110132619D01*
X151504760Y-110132619D02*
X151599998Y-110180238D01*
X151599998Y-110180238D02*
X151647617Y-110275476D01*
X151647617Y-110275476D02*
X151647617Y-110656428D01*
X151647617Y-110656428D02*
X151599998Y-110751666D01*
X151599998Y-110751666D02*
X151504760Y-110799285D01*
X151504760Y-110799285D02*
X151314284Y-110799285D01*
X151314284Y-110799285D02*
X151219046Y-110751666D01*
X151219046Y-110751666D02*
X151171427Y-110656428D01*
X151171427Y-110656428D02*
X151171427Y-110561190D01*
X151171427Y-110561190D02*
X151647617Y-110465952D01*
X150314284Y-110132619D02*
X150314284Y-111132619D01*
X150314284Y-110180238D02*
X150409522Y-110132619D01*
X150409522Y-110132619D02*
X150599998Y-110132619D01*
X150599998Y-110132619D02*
X150695236Y-110180238D01*
X150695236Y-110180238D02*
X150742855Y-110227857D01*
X150742855Y-110227857D02*
X150790474Y-110323095D01*
X150790474Y-110323095D02*
X150790474Y-110608809D01*
X150790474Y-110608809D02*
X150742855Y-110704047D01*
X150742855Y-110704047D02*
X150695236Y-110751666D01*
X150695236Y-110751666D02*
X150599998Y-110799285D01*
X150599998Y-110799285D02*
X150409522Y-110799285D01*
X150409522Y-110799285D02*
X150314284Y-110751666D01*
D12*
X132523808Y-99734761D02*
X133190474Y-97734761D01*
X133190474Y-97734761D02*
X133857141Y-99734761D01*
X133857141Y-99734761D02*
X132523808Y-99734761D01*
X134523808Y-98401428D02*
X134523808Y-99449047D01*
X134523808Y-99449047D02*
X134619046Y-99639523D01*
X134619046Y-99639523D02*
X134809522Y-99734761D01*
X135857141Y-99734761D02*
X135666665Y-99639523D01*
X135666665Y-99639523D02*
X135571427Y-99544285D01*
X135571427Y-99544285D02*
X135476189Y-99353809D01*
X135476189Y-99353809D02*
X135476189Y-98782380D01*
X135476189Y-98782380D02*
X135571427Y-98591904D01*
X135571427Y-98591904D02*
X135666665Y-98496666D01*
X135666665Y-98496666D02*
X135857141Y-98401428D01*
X135857141Y-98401428D02*
X136142856Y-98401428D01*
X136142856Y-98401428D02*
X136333332Y-98496666D01*
X136333332Y-98496666D02*
X136428570Y-98591904D01*
X136428570Y-98591904D02*
X136523808Y-98782380D01*
X136523808Y-98782380D02*
X136523808Y-99353809D01*
X136523808Y-99353809D02*
X136428570Y-99544285D01*
X136428570Y-99544285D02*
X136333332Y-99639523D01*
X136333332Y-99639523D02*
X136142856Y-99734761D01*
X136142856Y-99734761D02*
X135857141Y-99734761D01*
X137380951Y-98401428D02*
X137380951Y-100401428D01*
X138333332Y-99449047D02*
X138428570Y-99639523D01*
X138428570Y-99639523D02*
X138619046Y-99734761D01*
X137380951Y-99449047D02*
X137476189Y-99639523D01*
X137476189Y-99639523D02*
X137666665Y-99734761D01*
X137666665Y-99734761D02*
X138047618Y-99734761D01*
X138047618Y-99734761D02*
X138238094Y-99639523D01*
X138238094Y-99639523D02*
X138333332Y-99449047D01*
X138333332Y-99449047D02*
X138333332Y-98401428D01*
X139476189Y-98401428D02*
X139476189Y-99734761D01*
X139476189Y-98591904D02*
X139571427Y-98496666D01*
X139571427Y-98496666D02*
X139761903Y-98401428D01*
X139761903Y-98401428D02*
X140047618Y-98401428D01*
X140047618Y-98401428D02*
X140238094Y-98496666D01*
X140238094Y-98496666D02*
X140333332Y-98687142D01*
X140333332Y-98687142D02*
X140333332Y-100401428D01*
X140047618Y-97639523D02*
X139761903Y-97925238D01*
X141857142Y-98401428D02*
X141571427Y-98401428D01*
X141571427Y-98401428D02*
X141380951Y-98496666D01*
X141380951Y-98496666D02*
X141285713Y-98591904D01*
X141285713Y-98591904D02*
X141190475Y-98782380D01*
X141190475Y-98782380D02*
X141190475Y-99353809D01*
X141190475Y-99353809D02*
X141285713Y-99544285D01*
X141285713Y-99544285D02*
X141380951Y-99639523D01*
X141380951Y-99639523D02*
X141571427Y-99734761D01*
X141571427Y-99734761D02*
X141857142Y-99734761D01*
X141857142Y-99734761D02*
X142047618Y-99639523D01*
X142047618Y-99639523D02*
X142142856Y-99544285D01*
X142142856Y-99544285D02*
X142238094Y-99353809D01*
X142238094Y-99353809D02*
X142238094Y-98782380D01*
X142238094Y-98782380D02*
X142142856Y-98591904D01*
X142142856Y-98591904D02*
X142047618Y-98496666D01*
X142047618Y-98496666D02*
X141857142Y-98401428D01*
X141857142Y-98401428D02*
X141571427Y-98306190D01*
X141571427Y-98306190D02*
X141380951Y-98210952D01*
X141380951Y-98210952D02*
X141285713Y-98020476D01*
X141285713Y-98020476D02*
X141380951Y-97830000D01*
X141380951Y-97830000D02*
X141571427Y-97734761D01*
X141571427Y-97734761D02*
X141952380Y-97734761D01*
X141952380Y-97734761D02*
X142142856Y-97830000D01*
X143095237Y-98401428D02*
X143095237Y-99734761D01*
X143095237Y-98591904D02*
X143190475Y-98496666D01*
X143190475Y-98496666D02*
X143380951Y-98401428D01*
X143380951Y-98401428D02*
X143666666Y-98401428D01*
X143666666Y-98401428D02*
X143857142Y-98496666D01*
X143857142Y-98496666D02*
X143952380Y-98687142D01*
X143952380Y-98687142D02*
X143952380Y-100401428D01*
X145761904Y-98496666D02*
X145571428Y-98401428D01*
X145571428Y-98401428D02*
X145190475Y-98401428D01*
X145190475Y-98401428D02*
X144999999Y-98496666D01*
X144999999Y-98496666D02*
X144904761Y-98591904D01*
X144904761Y-98591904D02*
X144809523Y-98782380D01*
X144809523Y-98782380D02*
X144809523Y-99353809D01*
X144809523Y-99353809D02*
X144904761Y-99544285D01*
X144904761Y-99544285D02*
X144999999Y-99639523D01*
X144999999Y-99639523D02*
X145190475Y-99734761D01*
X145190475Y-99734761D02*
X145476190Y-99734761D01*
X145476190Y-99734761D02*
X145666666Y-99830000D01*
X145666666Y-99830000D02*
X145761904Y-100020476D01*
X145761904Y-100020476D02*
X145761904Y-100115714D01*
X145761904Y-100115714D02*
X145666666Y-100306190D01*
X145666666Y-100306190D02*
X145476190Y-100401428D01*
X151419047Y-99734761D02*
X151419047Y-97734761D01*
X151419047Y-97734761D02*
X151895237Y-97734761D01*
X151895237Y-97734761D02*
X152180952Y-97830000D01*
X152180952Y-97830000D02*
X152371428Y-98020476D01*
X152371428Y-98020476D02*
X152466666Y-98210952D01*
X152466666Y-98210952D02*
X152561904Y-98591904D01*
X152561904Y-98591904D02*
X152561904Y-98877619D01*
X152561904Y-98877619D02*
X152466666Y-99258571D01*
X152466666Y-99258571D02*
X152371428Y-99449047D01*
X152371428Y-99449047D02*
X152180952Y-99639523D01*
X152180952Y-99639523D02*
X151895237Y-99734761D01*
X151895237Y-99734761D02*
X151419047Y-99734761D01*
X153419047Y-99734761D02*
X153419047Y-98401428D01*
X153419047Y-97734761D02*
X153323809Y-97830000D01*
X153323809Y-97830000D02*
X153419047Y-97925238D01*
X153419047Y-97925238D02*
X153514285Y-97830000D01*
X153514285Y-97830000D02*
X153419047Y-97734761D01*
X153419047Y-97734761D02*
X153419047Y-97925238D01*
X154657142Y-99734761D02*
X154466666Y-99639523D01*
X154466666Y-99639523D02*
X154371428Y-99544285D01*
X154371428Y-99544285D02*
X154276190Y-99353809D01*
X154276190Y-99353809D02*
X154276190Y-98782380D01*
X154276190Y-98782380D02*
X154371428Y-98591904D01*
X154371428Y-98591904D02*
X154466666Y-98496666D01*
X154466666Y-98496666D02*
X154657142Y-98401428D01*
X154657142Y-98401428D02*
X154942857Y-98401428D01*
X154942857Y-98401428D02*
X155133333Y-98496666D01*
X155133333Y-98496666D02*
X155228571Y-98591904D01*
X155228571Y-98591904D02*
X155323809Y-98782380D01*
X155323809Y-98782380D02*
X155323809Y-99353809D01*
X155323809Y-99353809D02*
X155228571Y-99544285D01*
X155228571Y-99544285D02*
X155133333Y-99639523D01*
X155133333Y-99639523D02*
X154942857Y-99734761D01*
X154942857Y-99734761D02*
X154657142Y-99734761D01*
X156180952Y-99734761D02*
X156180952Y-98401428D01*
X156180952Y-98591904D02*
X156276190Y-98496666D01*
X156276190Y-98496666D02*
X156466666Y-98401428D01*
X156466666Y-98401428D02*
X156752381Y-98401428D01*
X156752381Y-98401428D02*
X156942857Y-98496666D01*
X156942857Y-98496666D02*
X157038095Y-98687142D01*
X157038095Y-98687142D02*
X157038095Y-99734761D01*
X157038095Y-98687142D02*
X157133333Y-98496666D01*
X157133333Y-98496666D02*
X157323809Y-98401428D01*
X157323809Y-98401428D02*
X157609523Y-98401428D01*
X157609523Y-98401428D02*
X157800000Y-98496666D01*
X157800000Y-98496666D02*
X157895238Y-98687142D01*
X157895238Y-98687142D02*
X157895238Y-99734761D01*
X159609524Y-99639523D02*
X159419048Y-99734761D01*
X159419048Y-99734761D02*
X159038095Y-99734761D01*
X159038095Y-99734761D02*
X158847619Y-99639523D01*
X158847619Y-99639523D02*
X158752381Y-99449047D01*
X158752381Y-99449047D02*
X158752381Y-98687142D01*
X158752381Y-98687142D02*
X158847619Y-98496666D01*
X158847619Y-98496666D02*
X159038095Y-98401428D01*
X159038095Y-98401428D02*
X159419048Y-98401428D01*
X159419048Y-98401428D02*
X159609524Y-98496666D01*
X159609524Y-98496666D02*
X159704762Y-98687142D01*
X159704762Y-98687142D02*
X159704762Y-98877619D01*
X159704762Y-98877619D02*
X158752381Y-99068095D01*
X161419048Y-99734761D02*
X161419048Y-97734761D01*
X161419048Y-99639523D02*
X161228572Y-99734761D01*
X161228572Y-99734761D02*
X160847619Y-99734761D01*
X160847619Y-99734761D02*
X160657143Y-99639523D01*
X160657143Y-99639523D02*
X160561905Y-99544285D01*
X160561905Y-99544285D02*
X160466667Y-99353809D01*
X160466667Y-99353809D02*
X160466667Y-98782380D01*
X160466667Y-98782380D02*
X160561905Y-98591904D01*
X160561905Y-98591904D02*
X160657143Y-98496666D01*
X160657143Y-98496666D02*
X160847619Y-98401428D01*
X160847619Y-98401428D02*
X161228572Y-98401428D01*
X161228572Y-98401428D02*
X161419048Y-98496666D01*
X163133334Y-99639523D02*
X162942858Y-99734761D01*
X162942858Y-99734761D02*
X162561905Y-99734761D01*
X162561905Y-99734761D02*
X162371429Y-99639523D01*
X162371429Y-99639523D02*
X162276191Y-99449047D01*
X162276191Y-99449047D02*
X162276191Y-98687142D01*
X162276191Y-98687142D02*
X162371429Y-98496666D01*
X162371429Y-98496666D02*
X162561905Y-98401428D01*
X162561905Y-98401428D02*
X162942858Y-98401428D01*
X162942858Y-98401428D02*
X163133334Y-98496666D01*
X163133334Y-98496666D02*
X163228572Y-98687142D01*
X163228572Y-98687142D02*
X163228572Y-98877619D01*
X163228572Y-98877619D02*
X162276191Y-99068095D01*
X163990477Y-99639523D02*
X164180953Y-99734761D01*
X164180953Y-99734761D02*
X164561905Y-99734761D01*
X164561905Y-99734761D02*
X164752382Y-99639523D01*
X164752382Y-99639523D02*
X164847620Y-99449047D01*
X164847620Y-99449047D02*
X164847620Y-99353809D01*
X164847620Y-99353809D02*
X164752382Y-99163333D01*
X164752382Y-99163333D02*
X164561905Y-99068095D01*
X164561905Y-99068095D02*
X164276191Y-99068095D01*
X164276191Y-99068095D02*
X164085715Y-98972857D01*
X164085715Y-98972857D02*
X163990477Y-98782380D01*
X163990477Y-98782380D02*
X163990477Y-98687142D01*
X163990477Y-98687142D02*
X164085715Y-98496666D01*
X164085715Y-98496666D02*
X164276191Y-98401428D01*
X164276191Y-98401428D02*
X164561905Y-98401428D01*
X164561905Y-98401428D02*
X164752382Y-98496666D01*
X166714287Y-98401428D02*
X167190477Y-99734761D01*
X167190477Y-99734761D02*
X167666668Y-98401428D01*
X168428573Y-99544285D02*
X168523811Y-99639523D01*
X168523811Y-99639523D02*
X168428573Y-99734761D01*
X168428573Y-99734761D02*
X168333335Y-99639523D01*
X168333335Y-99639523D02*
X168428573Y-99544285D01*
X168428573Y-99544285D02*
X168428573Y-99734761D01*
X169285716Y-97925238D02*
X169380954Y-97830000D01*
X169380954Y-97830000D02*
X169571430Y-97734761D01*
X169571430Y-97734761D02*
X170047621Y-97734761D01*
X170047621Y-97734761D02*
X170238097Y-97830000D01*
X170238097Y-97830000D02*
X170333335Y-97925238D01*
X170333335Y-97925238D02*
X170428573Y-98115714D01*
X170428573Y-98115714D02*
X170428573Y-98306190D01*
X170428573Y-98306190D02*
X170333335Y-98591904D01*
X170333335Y-98591904D02*
X169190478Y-99734761D01*
X169190478Y-99734761D02*
X170428573Y-99734761D01*
X171285716Y-99544285D02*
X171380954Y-99639523D01*
X171380954Y-99639523D02*
X171285716Y-99734761D01*
X171285716Y-99734761D02*
X171190478Y-99639523D01*
X171190478Y-99639523D02*
X171285716Y-99544285D01*
X171285716Y-99544285D02*
X171285716Y-99734761D01*
X172619049Y-97734761D02*
X172809526Y-97734761D01*
X172809526Y-97734761D02*
X173000002Y-97830000D01*
X173000002Y-97830000D02*
X173095240Y-97925238D01*
X173095240Y-97925238D02*
X173190478Y-98115714D01*
X173190478Y-98115714D02*
X173285716Y-98496666D01*
X173285716Y-98496666D02*
X173285716Y-98972857D01*
X173285716Y-98972857D02*
X173190478Y-99353809D01*
X173190478Y-99353809D02*
X173095240Y-99544285D01*
X173095240Y-99544285D02*
X173000002Y-99639523D01*
X173000002Y-99639523D02*
X172809526Y-99734761D01*
X172809526Y-99734761D02*
X172619049Y-99734761D01*
X172619049Y-99734761D02*
X172428573Y-99639523D01*
X172428573Y-99639523D02*
X172333335Y-99544285D01*
X172333335Y-99544285D02*
X172238097Y-99353809D01*
X172238097Y-99353809D02*
X172142859Y-98972857D01*
X172142859Y-98972857D02*
X172142859Y-98496666D01*
X172142859Y-98496666D02*
X172238097Y-98115714D01*
X172238097Y-98115714D02*
X172333335Y-97925238D01*
X172333335Y-97925238D02*
X172428573Y-97830000D01*
X172428573Y-97830000D02*
X172619049Y-97734761D01*
X167476190Y-40330000D02*
X167285714Y-40234761D01*
X167285714Y-40234761D02*
X167000000Y-40234761D01*
X167000000Y-40234761D02*
X166714285Y-40330000D01*
X166714285Y-40330000D02*
X166523809Y-40520476D01*
X166523809Y-40520476D02*
X166428571Y-40710952D01*
X166428571Y-40710952D02*
X166333333Y-41091904D01*
X166333333Y-41091904D02*
X166333333Y-41377619D01*
X166333333Y-41377619D02*
X166428571Y-41758571D01*
X166428571Y-41758571D02*
X166523809Y-41949047D01*
X166523809Y-41949047D02*
X166714285Y-42139523D01*
X166714285Y-42139523D02*
X167000000Y-42234761D01*
X167000000Y-42234761D02*
X167190476Y-42234761D01*
X167190476Y-42234761D02*
X167476190Y-42139523D01*
X167476190Y-42139523D02*
X167571428Y-42044285D01*
X167571428Y-42044285D02*
X167571428Y-41377619D01*
X167571428Y-41377619D02*
X167190476Y-41377619D01*
X168428571Y-42234761D02*
X168428571Y-40234761D01*
X168428571Y-40234761D02*
X169571428Y-42234761D01*
X169571428Y-42234761D02*
X169571428Y-40234761D01*
X170523809Y-42234761D02*
X170523809Y-40234761D01*
X170523809Y-40234761D02*
X170999999Y-40234761D01*
X170999999Y-40234761D02*
X171285714Y-40330000D01*
X171285714Y-40330000D02*
X171476190Y-40520476D01*
X171476190Y-40520476D02*
X171571428Y-40710952D01*
X171571428Y-40710952D02*
X171666666Y-41091904D01*
X171666666Y-41091904D02*
X171666666Y-41377619D01*
X171666666Y-41377619D02*
X171571428Y-41758571D01*
X171571428Y-41758571D02*
X171476190Y-41949047D01*
X171476190Y-41949047D02*
X171285714Y-42139523D01*
X171285714Y-42139523D02*
X170999999Y-42234761D01*
X170999999Y-42234761D02*
X170523809Y-42234761D01*
D10*
X91883333Y-81190500D02*
X91850000Y-81223833D01*
X91850000Y-81223833D02*
X91750000Y-81257166D01*
X91750000Y-81257166D02*
X91683333Y-81257166D01*
X91683333Y-81257166D02*
X91583333Y-81223833D01*
X91583333Y-81223833D02*
X91516667Y-81157166D01*
X91516667Y-81157166D02*
X91483333Y-81090500D01*
X91483333Y-81090500D02*
X91450000Y-80957166D01*
X91450000Y-80957166D02*
X91450000Y-80857166D01*
X91450000Y-80857166D02*
X91483333Y-80723833D01*
X91483333Y-80723833D02*
X91516667Y-80657166D01*
X91516667Y-80657166D02*
X91583333Y-80590500D01*
X91583333Y-80590500D02*
X91683333Y-80557166D01*
X91683333Y-80557166D02*
X91750000Y-80557166D01*
X91750000Y-80557166D02*
X91850000Y-80590500D01*
X91850000Y-80590500D02*
X91883333Y-80623833D01*
X92483333Y-80557166D02*
X92350000Y-80557166D01*
X92350000Y-80557166D02*
X92283333Y-80590500D01*
X92283333Y-80590500D02*
X92250000Y-80623833D01*
X92250000Y-80623833D02*
X92183333Y-80723833D01*
X92183333Y-80723833D02*
X92150000Y-80857166D01*
X92150000Y-80857166D02*
X92150000Y-81123833D01*
X92150000Y-81123833D02*
X92183333Y-81190500D01*
X92183333Y-81190500D02*
X92216667Y-81223833D01*
X92216667Y-81223833D02*
X92283333Y-81257166D01*
X92283333Y-81257166D02*
X92416667Y-81257166D01*
X92416667Y-81257166D02*
X92483333Y-81223833D01*
X92483333Y-81223833D02*
X92516667Y-81190500D01*
X92516667Y-81190500D02*
X92550000Y-81123833D01*
X92550000Y-81123833D02*
X92550000Y-80957166D01*
X92550000Y-80957166D02*
X92516667Y-80890500D01*
X92516667Y-80890500D02*
X92483333Y-80857166D01*
X92483333Y-80857166D02*
X92416667Y-80823833D01*
X92416667Y-80823833D02*
X92283333Y-80823833D01*
X92283333Y-80823833D02*
X92216667Y-80857166D01*
X92216667Y-80857166D02*
X92183333Y-80890500D01*
X92183333Y-80890500D02*
X92150000Y-80957166D01*
D14*
X105116666Y-70557166D02*
X105516666Y-70557166D01*
X105316666Y-71257166D02*
X105316666Y-70557166D01*
X106149999Y-71257166D02*
X105916666Y-70923833D01*
X105749999Y-71257166D02*
X105749999Y-70557166D01*
X105749999Y-70557166D02*
X106016666Y-70557166D01*
X106016666Y-70557166D02*
X106083333Y-70590500D01*
X106083333Y-70590500D02*
X106116666Y-70623833D01*
X106116666Y-70623833D02*
X106149999Y-70690500D01*
X106149999Y-70690500D02*
X106149999Y-70790500D01*
X106149999Y-70790500D02*
X106116666Y-70857166D01*
X106116666Y-70857166D02*
X106083333Y-70890500D01*
X106083333Y-70890500D02*
X106016666Y-70923833D01*
X106016666Y-70923833D02*
X105749999Y-70923833D01*
X106816666Y-71257166D02*
X106416666Y-71257166D01*
X106616666Y-71257166D02*
X106616666Y-70557166D01*
X106616666Y-70557166D02*
X106549999Y-70657166D01*
X106549999Y-70657166D02*
X106483333Y-70723833D01*
X106483333Y-70723833D02*
X106416666Y-70757166D01*
D10*
X111049999Y-76257166D02*
X110816666Y-75923833D01*
X110649999Y-76257166D02*
X110649999Y-75557166D01*
X110649999Y-75557166D02*
X110916666Y-75557166D01*
X110916666Y-75557166D02*
X110983333Y-75590500D01*
X110983333Y-75590500D02*
X111016666Y-75623833D01*
X111016666Y-75623833D02*
X111049999Y-75690500D01*
X111049999Y-75690500D02*
X111049999Y-75790500D01*
X111049999Y-75790500D02*
X111016666Y-75857166D01*
X111016666Y-75857166D02*
X110983333Y-75890500D01*
X110983333Y-75890500D02*
X110916666Y-75923833D01*
X110916666Y-75923833D02*
X110649999Y-75923833D01*
X111716666Y-76257166D02*
X111316666Y-76257166D01*
X111516666Y-76257166D02*
X111516666Y-75557166D01*
X111516666Y-75557166D02*
X111449999Y-75657166D01*
X111449999Y-75657166D02*
X111383333Y-75723833D01*
X111383333Y-75723833D02*
X111316666Y-75757166D01*
X111983333Y-75623833D02*
X112016666Y-75590500D01*
X112016666Y-75590500D02*
X112083333Y-75557166D01*
X112083333Y-75557166D02*
X112250000Y-75557166D01*
X112250000Y-75557166D02*
X112316666Y-75590500D01*
X112316666Y-75590500D02*
X112350000Y-75623833D01*
X112350000Y-75623833D02*
X112383333Y-75690500D01*
X112383333Y-75690500D02*
X112383333Y-75757166D01*
X112383333Y-75757166D02*
X112350000Y-75857166D01*
X112350000Y-75857166D02*
X111950000Y-76257166D01*
X111950000Y-76257166D02*
X112383333Y-76257166D01*
X98383333Y-103190500D02*
X98350000Y-103223833D01*
X98350000Y-103223833D02*
X98250000Y-103257166D01*
X98250000Y-103257166D02*
X98183333Y-103257166D01*
X98183333Y-103257166D02*
X98083333Y-103223833D01*
X98083333Y-103223833D02*
X98016667Y-103157166D01*
X98016667Y-103157166D02*
X97983333Y-103090500D01*
X97983333Y-103090500D02*
X97950000Y-102957166D01*
X97950000Y-102957166D02*
X97950000Y-102857166D01*
X97950000Y-102857166D02*
X97983333Y-102723833D01*
X97983333Y-102723833D02*
X98016667Y-102657166D01*
X98016667Y-102657166D02*
X98083333Y-102590500D01*
X98083333Y-102590500D02*
X98183333Y-102557166D01*
X98183333Y-102557166D02*
X98250000Y-102557166D01*
X98250000Y-102557166D02*
X98350000Y-102590500D01*
X98350000Y-102590500D02*
X98383333Y-102623833D01*
X98616667Y-102557166D02*
X99083333Y-102557166D01*
X99083333Y-102557166D02*
X98783333Y-103257166D01*
X91883333Y-82757166D02*
X91650000Y-82423833D01*
X91483333Y-82757166D02*
X91483333Y-82057166D01*
X91483333Y-82057166D02*
X91750000Y-82057166D01*
X91750000Y-82057166D02*
X91816667Y-82090500D01*
X91816667Y-82090500D02*
X91850000Y-82123833D01*
X91850000Y-82123833D02*
X91883333Y-82190500D01*
X91883333Y-82190500D02*
X91883333Y-82290500D01*
X91883333Y-82290500D02*
X91850000Y-82357166D01*
X91850000Y-82357166D02*
X91816667Y-82390500D01*
X91816667Y-82390500D02*
X91750000Y-82423833D01*
X91750000Y-82423833D02*
X91483333Y-82423833D01*
X92483333Y-82057166D02*
X92350000Y-82057166D01*
X92350000Y-82057166D02*
X92283333Y-82090500D01*
X92283333Y-82090500D02*
X92250000Y-82123833D01*
X92250000Y-82123833D02*
X92183333Y-82223833D01*
X92183333Y-82223833D02*
X92150000Y-82357166D01*
X92150000Y-82357166D02*
X92150000Y-82623833D01*
X92150000Y-82623833D02*
X92183333Y-82690500D01*
X92183333Y-82690500D02*
X92216667Y-82723833D01*
X92216667Y-82723833D02*
X92283333Y-82757166D01*
X92283333Y-82757166D02*
X92416667Y-82757166D01*
X92416667Y-82757166D02*
X92483333Y-82723833D01*
X92483333Y-82723833D02*
X92516667Y-82690500D01*
X92516667Y-82690500D02*
X92550000Y-82623833D01*
X92550000Y-82623833D02*
X92550000Y-82457166D01*
X92550000Y-82457166D02*
X92516667Y-82390500D01*
X92516667Y-82390500D02*
X92483333Y-82357166D01*
X92483333Y-82357166D02*
X92416667Y-82323833D01*
X92416667Y-82323833D02*
X92283333Y-82323833D01*
X92283333Y-82323833D02*
X92216667Y-82357166D01*
X92216667Y-82357166D02*
X92183333Y-82390500D01*
X92183333Y-82390500D02*
X92150000Y-82457166D01*
X101573833Y-95276666D02*
X101540500Y-95343333D01*
X101540500Y-95343333D02*
X101473833Y-95410000D01*
X101473833Y-95410000D02*
X101373833Y-95510000D01*
X101373833Y-95510000D02*
X101340500Y-95576666D01*
X101340500Y-95576666D02*
X101340500Y-95643333D01*
X101507166Y-95610000D02*
X101473833Y-95676666D01*
X101473833Y-95676666D02*
X101407166Y-95743333D01*
X101407166Y-95743333D02*
X101273833Y-95776666D01*
X101273833Y-95776666D02*
X101040500Y-95776666D01*
X101040500Y-95776666D02*
X100907166Y-95743333D01*
X100907166Y-95743333D02*
X100840500Y-95676666D01*
X100840500Y-95676666D02*
X100807166Y-95610000D01*
X100807166Y-95610000D02*
X100807166Y-95476666D01*
X100807166Y-95476666D02*
X100840500Y-95410000D01*
X100840500Y-95410000D02*
X100907166Y-95343333D01*
X100907166Y-95343333D02*
X101040500Y-95310000D01*
X101040500Y-95310000D02*
X101273833Y-95310000D01*
X101273833Y-95310000D02*
X101407166Y-95343333D01*
X101407166Y-95343333D02*
X101473833Y-95410000D01*
X101473833Y-95410000D02*
X101507166Y-95476666D01*
X101507166Y-95476666D02*
X101507166Y-95610000D01*
X100807166Y-95076667D02*
X100807166Y-94643333D01*
X100807166Y-94643333D02*
X101073833Y-94876667D01*
X101073833Y-94876667D02*
X101073833Y-94776667D01*
X101073833Y-94776667D02*
X101107166Y-94710000D01*
X101107166Y-94710000D02*
X101140500Y-94676667D01*
X101140500Y-94676667D02*
X101207166Y-94643333D01*
X101207166Y-94643333D02*
X101373833Y-94643333D01*
X101373833Y-94643333D02*
X101440500Y-94676667D01*
X101440500Y-94676667D02*
X101473833Y-94710000D01*
X101473833Y-94710000D02*
X101507166Y-94776667D01*
X101507166Y-94776667D02*
X101507166Y-94976667D01*
X101507166Y-94976667D02*
X101473833Y-95043333D01*
X101473833Y-95043333D02*
X101440500Y-95076667D01*
D14*
X125683333Y-69573833D02*
X125616666Y-69540500D01*
X125616666Y-69540500D02*
X125550000Y-69473833D01*
X125550000Y-69473833D02*
X125450000Y-69373833D01*
X125450000Y-69373833D02*
X125383333Y-69340500D01*
X125383333Y-69340500D02*
X125316666Y-69340500D01*
X125350000Y-69507166D02*
X125283333Y-69473833D01*
X125283333Y-69473833D02*
X125216666Y-69407166D01*
X125216666Y-69407166D02*
X125183333Y-69273833D01*
X125183333Y-69273833D02*
X125183333Y-69040500D01*
X125183333Y-69040500D02*
X125216666Y-68907166D01*
X125216666Y-68907166D02*
X125283333Y-68840500D01*
X125283333Y-68840500D02*
X125350000Y-68807166D01*
X125350000Y-68807166D02*
X125483333Y-68807166D01*
X125483333Y-68807166D02*
X125550000Y-68840500D01*
X125550000Y-68840500D02*
X125616666Y-68907166D01*
X125616666Y-68907166D02*
X125650000Y-69040500D01*
X125650000Y-69040500D02*
X125650000Y-69273833D01*
X125650000Y-69273833D02*
X125616666Y-69407166D01*
X125616666Y-69407166D02*
X125550000Y-69473833D01*
X125550000Y-69473833D02*
X125483333Y-69507166D01*
X125483333Y-69507166D02*
X125350000Y-69507166D01*
X126249999Y-69040500D02*
X126249999Y-69507166D01*
X126083333Y-68773833D02*
X125916666Y-69273833D01*
X125916666Y-69273833D02*
X126349999Y-69273833D01*
D10*
X105483333Y-35257166D02*
X105483333Y-34557166D01*
X105483333Y-34557166D02*
X105650000Y-34557166D01*
X105650000Y-34557166D02*
X105750000Y-34590500D01*
X105750000Y-34590500D02*
X105816667Y-34657166D01*
X105816667Y-34657166D02*
X105850000Y-34723833D01*
X105850000Y-34723833D02*
X105883333Y-34857166D01*
X105883333Y-34857166D02*
X105883333Y-34957166D01*
X105883333Y-34957166D02*
X105850000Y-35090500D01*
X105850000Y-35090500D02*
X105816667Y-35157166D01*
X105816667Y-35157166D02*
X105750000Y-35223833D01*
X105750000Y-35223833D02*
X105650000Y-35257166D01*
X105650000Y-35257166D02*
X105483333Y-35257166D01*
X106150000Y-34623833D02*
X106183333Y-34590500D01*
X106183333Y-34590500D02*
X106250000Y-34557166D01*
X106250000Y-34557166D02*
X106416667Y-34557166D01*
X106416667Y-34557166D02*
X106483333Y-34590500D01*
X106483333Y-34590500D02*
X106516667Y-34623833D01*
X106516667Y-34623833D02*
X106550000Y-34690500D01*
X106550000Y-34690500D02*
X106550000Y-34757166D01*
X106550000Y-34757166D02*
X106516667Y-34857166D01*
X106516667Y-34857166D02*
X106116667Y-35257166D01*
X106116667Y-35257166D02*
X106550000Y-35257166D01*
X92238095Y-42867380D02*
X92238095Y-43676904D01*
X92238095Y-43676904D02*
X92285714Y-43772142D01*
X92285714Y-43772142D02*
X92333333Y-43819761D01*
X92333333Y-43819761D02*
X92428571Y-43867380D01*
X92428571Y-43867380D02*
X92619047Y-43867380D01*
X92619047Y-43867380D02*
X92714285Y-43819761D01*
X92714285Y-43819761D02*
X92761904Y-43772142D01*
X92761904Y-43772142D02*
X92809523Y-43676904D01*
X92809523Y-43676904D02*
X92809523Y-42867380D01*
X93809523Y-43867380D02*
X93238095Y-43867380D01*
X93523809Y-43867380D02*
X93523809Y-42867380D01*
X93523809Y-42867380D02*
X93428571Y-43010238D01*
X93428571Y-43010238D02*
X93333333Y-43105476D01*
X93333333Y-43105476D02*
X93238095Y-43153095D01*
X87883333Y-71190500D02*
X87850000Y-71223833D01*
X87850000Y-71223833D02*
X87750000Y-71257166D01*
X87750000Y-71257166D02*
X87683333Y-71257166D01*
X87683333Y-71257166D02*
X87583333Y-71223833D01*
X87583333Y-71223833D02*
X87516667Y-71157166D01*
X87516667Y-71157166D02*
X87483333Y-71090500D01*
X87483333Y-71090500D02*
X87450000Y-70957166D01*
X87450000Y-70957166D02*
X87450000Y-70857166D01*
X87450000Y-70857166D02*
X87483333Y-70723833D01*
X87483333Y-70723833D02*
X87516667Y-70657166D01*
X87516667Y-70657166D02*
X87583333Y-70590500D01*
X87583333Y-70590500D02*
X87683333Y-70557166D01*
X87683333Y-70557166D02*
X87750000Y-70557166D01*
X87750000Y-70557166D02*
X87850000Y-70590500D01*
X87850000Y-70590500D02*
X87883333Y-70623833D01*
X88216667Y-71257166D02*
X88350000Y-71257166D01*
X88350000Y-71257166D02*
X88416667Y-71223833D01*
X88416667Y-71223833D02*
X88450000Y-71190500D01*
X88450000Y-71190500D02*
X88516667Y-71090500D01*
X88516667Y-71090500D02*
X88550000Y-70957166D01*
X88550000Y-70957166D02*
X88550000Y-70690500D01*
X88550000Y-70690500D02*
X88516667Y-70623833D01*
X88516667Y-70623833D02*
X88483333Y-70590500D01*
X88483333Y-70590500D02*
X88416667Y-70557166D01*
X88416667Y-70557166D02*
X88283333Y-70557166D01*
X88283333Y-70557166D02*
X88216667Y-70590500D01*
X88216667Y-70590500D02*
X88183333Y-70623833D01*
X88183333Y-70623833D02*
X88150000Y-70690500D01*
X88150000Y-70690500D02*
X88150000Y-70857166D01*
X88150000Y-70857166D02*
X88183333Y-70923833D01*
X88183333Y-70923833D02*
X88216667Y-70957166D01*
X88216667Y-70957166D02*
X88283333Y-70990500D01*
X88283333Y-70990500D02*
X88416667Y-70990500D01*
X88416667Y-70990500D02*
X88483333Y-70957166D01*
X88483333Y-70957166D02*
X88516667Y-70923833D01*
X88516667Y-70923833D02*
X88550000Y-70857166D01*
D14*
X87466666Y-99557166D02*
X87866666Y-99557166D01*
X87666666Y-100257166D02*
X87666666Y-99557166D01*
X88466666Y-100257166D02*
X88066666Y-100257166D01*
X88266666Y-100257166D02*
X88266666Y-99557166D01*
X88266666Y-99557166D02*
X88199999Y-99657166D01*
X88199999Y-99657166D02*
X88133333Y-99723833D01*
X88133333Y-99723833D02*
X88066666Y-99757166D01*
D10*
X102786666Y-44557166D02*
X102786666Y-45057166D01*
X102786666Y-45057166D02*
X102753333Y-45157166D01*
X102753333Y-45157166D02*
X102686666Y-45223833D01*
X102686666Y-45223833D02*
X102586666Y-45257166D01*
X102586666Y-45257166D02*
X102520000Y-45257166D01*
X103053333Y-44557166D02*
X103486666Y-44557166D01*
X103486666Y-44557166D02*
X103253333Y-44823833D01*
X103253333Y-44823833D02*
X103353333Y-44823833D01*
X103353333Y-44823833D02*
X103419999Y-44857166D01*
X103419999Y-44857166D02*
X103453333Y-44890500D01*
X103453333Y-44890500D02*
X103486666Y-44957166D01*
X103486666Y-44957166D02*
X103486666Y-45123833D01*
X103486666Y-45123833D02*
X103453333Y-45190500D01*
X103453333Y-45190500D02*
X103419999Y-45223833D01*
X103419999Y-45223833D02*
X103353333Y-45257166D01*
X103353333Y-45257166D02*
X103153333Y-45257166D01*
X103153333Y-45257166D02*
X103086666Y-45223833D01*
X103086666Y-45223833D02*
X103053333Y-45190500D01*
X108049999Y-80690500D02*
X108016666Y-80723833D01*
X108016666Y-80723833D02*
X107916666Y-80757166D01*
X107916666Y-80757166D02*
X107849999Y-80757166D01*
X107849999Y-80757166D02*
X107749999Y-80723833D01*
X107749999Y-80723833D02*
X107683333Y-80657166D01*
X107683333Y-80657166D02*
X107649999Y-80590500D01*
X107649999Y-80590500D02*
X107616666Y-80457166D01*
X107616666Y-80457166D02*
X107616666Y-80357166D01*
X107616666Y-80357166D02*
X107649999Y-80223833D01*
X107649999Y-80223833D02*
X107683333Y-80157166D01*
X107683333Y-80157166D02*
X107749999Y-80090500D01*
X107749999Y-80090500D02*
X107849999Y-80057166D01*
X107849999Y-80057166D02*
X107916666Y-80057166D01*
X107916666Y-80057166D02*
X108016666Y-80090500D01*
X108016666Y-80090500D02*
X108049999Y-80123833D01*
X108716666Y-80757166D02*
X108316666Y-80757166D01*
X108516666Y-80757166D02*
X108516666Y-80057166D01*
X108516666Y-80057166D02*
X108449999Y-80157166D01*
X108449999Y-80157166D02*
X108383333Y-80223833D01*
X108383333Y-80223833D02*
X108316666Y-80257166D01*
X109383333Y-80757166D02*
X108983333Y-80757166D01*
X109183333Y-80757166D02*
X109183333Y-80057166D01*
X109183333Y-80057166D02*
X109116666Y-80157166D01*
X109116666Y-80157166D02*
X109050000Y-80223833D01*
X109050000Y-80223833D02*
X108983333Y-80257166D01*
X130190500Y-44116666D02*
X130223833Y-44149999D01*
X130223833Y-44149999D02*
X130257166Y-44249999D01*
X130257166Y-44249999D02*
X130257166Y-44316666D01*
X130257166Y-44316666D02*
X130223833Y-44416666D01*
X130223833Y-44416666D02*
X130157166Y-44483333D01*
X130157166Y-44483333D02*
X130090500Y-44516666D01*
X130090500Y-44516666D02*
X129957166Y-44549999D01*
X129957166Y-44549999D02*
X129857166Y-44549999D01*
X129857166Y-44549999D02*
X129723833Y-44516666D01*
X129723833Y-44516666D02*
X129657166Y-44483333D01*
X129657166Y-44483333D02*
X129590500Y-44416666D01*
X129590500Y-44416666D02*
X129557166Y-44316666D01*
X129557166Y-44316666D02*
X129557166Y-44249999D01*
X129557166Y-44249999D02*
X129590500Y-44149999D01*
X129590500Y-44149999D02*
X129623833Y-44116666D01*
X129623833Y-43849999D02*
X129590500Y-43816666D01*
X129590500Y-43816666D02*
X129557166Y-43749999D01*
X129557166Y-43749999D02*
X129557166Y-43583333D01*
X129557166Y-43583333D02*
X129590500Y-43516666D01*
X129590500Y-43516666D02*
X129623833Y-43483333D01*
X129623833Y-43483333D02*
X129690500Y-43449999D01*
X129690500Y-43449999D02*
X129757166Y-43449999D01*
X129757166Y-43449999D02*
X129857166Y-43483333D01*
X129857166Y-43483333D02*
X130257166Y-43883333D01*
X130257166Y-43883333D02*
X130257166Y-43449999D01*
X126323833Y-44066666D02*
X126290500Y-44133333D01*
X126290500Y-44133333D02*
X126223833Y-44200000D01*
X126223833Y-44200000D02*
X126123833Y-44300000D01*
X126123833Y-44300000D02*
X126090500Y-44366666D01*
X126090500Y-44366666D02*
X126090500Y-44433333D01*
X126257166Y-44400000D02*
X126223833Y-44466666D01*
X126223833Y-44466666D02*
X126157166Y-44533333D01*
X126157166Y-44533333D02*
X126023833Y-44566666D01*
X126023833Y-44566666D02*
X125790500Y-44566666D01*
X125790500Y-44566666D02*
X125657166Y-44533333D01*
X125657166Y-44533333D02*
X125590500Y-44466666D01*
X125590500Y-44466666D02*
X125557166Y-44400000D01*
X125557166Y-44400000D02*
X125557166Y-44266666D01*
X125557166Y-44266666D02*
X125590500Y-44200000D01*
X125590500Y-44200000D02*
X125657166Y-44133333D01*
X125657166Y-44133333D02*
X125790500Y-44100000D01*
X125790500Y-44100000D02*
X126023833Y-44100000D01*
X126023833Y-44100000D02*
X126157166Y-44133333D01*
X126157166Y-44133333D02*
X126223833Y-44200000D01*
X126223833Y-44200000D02*
X126257166Y-44266666D01*
X126257166Y-44266666D02*
X126257166Y-44400000D01*
X126257166Y-43433333D02*
X126257166Y-43833333D01*
X126257166Y-43633333D02*
X125557166Y-43633333D01*
X125557166Y-43633333D02*
X125657166Y-43700000D01*
X125657166Y-43700000D02*
X125723833Y-43766667D01*
X125723833Y-43766667D02*
X125757166Y-43833333D01*
X132257166Y-44116666D02*
X131923833Y-44349999D01*
X132257166Y-44516666D02*
X131557166Y-44516666D01*
X131557166Y-44516666D02*
X131557166Y-44249999D01*
X131557166Y-44249999D02*
X131590500Y-44183333D01*
X131590500Y-44183333D02*
X131623833Y-44149999D01*
X131623833Y-44149999D02*
X131690500Y-44116666D01*
X131690500Y-44116666D02*
X131790500Y-44116666D01*
X131790500Y-44116666D02*
X131857166Y-44149999D01*
X131857166Y-44149999D02*
X131890500Y-44183333D01*
X131890500Y-44183333D02*
X131923833Y-44249999D01*
X131923833Y-44249999D02*
X131923833Y-44516666D01*
X132257166Y-43449999D02*
X132257166Y-43849999D01*
X132257166Y-43649999D02*
X131557166Y-43649999D01*
X131557166Y-43649999D02*
X131657166Y-43716666D01*
X131657166Y-43716666D02*
X131723833Y-43783333D01*
X131723833Y-43783333D02*
X131757166Y-43849999D01*
X111049999Y-82007166D02*
X110816666Y-81673833D01*
X110649999Y-82007166D02*
X110649999Y-81307166D01*
X110649999Y-81307166D02*
X110916666Y-81307166D01*
X110916666Y-81307166D02*
X110983333Y-81340500D01*
X110983333Y-81340500D02*
X111016666Y-81373833D01*
X111016666Y-81373833D02*
X111049999Y-81440500D01*
X111049999Y-81440500D02*
X111049999Y-81540500D01*
X111049999Y-81540500D02*
X111016666Y-81607166D01*
X111016666Y-81607166D02*
X110983333Y-81640500D01*
X110983333Y-81640500D02*
X110916666Y-81673833D01*
X110916666Y-81673833D02*
X110649999Y-81673833D01*
X111716666Y-82007166D02*
X111316666Y-82007166D01*
X111516666Y-82007166D02*
X111516666Y-81307166D01*
X111516666Y-81307166D02*
X111449999Y-81407166D01*
X111449999Y-81407166D02*
X111383333Y-81473833D01*
X111383333Y-81473833D02*
X111316666Y-81507166D01*
X111950000Y-81307166D02*
X112383333Y-81307166D01*
X112383333Y-81307166D02*
X112150000Y-81573833D01*
X112150000Y-81573833D02*
X112250000Y-81573833D01*
X112250000Y-81573833D02*
X112316666Y-81607166D01*
X112316666Y-81607166D02*
X112350000Y-81640500D01*
X112350000Y-81640500D02*
X112383333Y-81707166D01*
X112383333Y-81707166D02*
X112383333Y-81873833D01*
X112383333Y-81873833D02*
X112350000Y-81940500D01*
X112350000Y-81940500D02*
X112316666Y-81973833D01*
X112316666Y-81973833D02*
X112250000Y-82007166D01*
X112250000Y-82007166D02*
X112050000Y-82007166D01*
X112050000Y-82007166D02*
X111983333Y-81973833D01*
X111983333Y-81973833D02*
X111950000Y-81940500D01*
X102383333Y-65690500D02*
X102350000Y-65723833D01*
X102350000Y-65723833D02*
X102250000Y-65757166D01*
X102250000Y-65757166D02*
X102183333Y-65757166D01*
X102183333Y-65757166D02*
X102083333Y-65723833D01*
X102083333Y-65723833D02*
X102016667Y-65657166D01*
X102016667Y-65657166D02*
X101983333Y-65590500D01*
X101983333Y-65590500D02*
X101950000Y-65457166D01*
X101950000Y-65457166D02*
X101950000Y-65357166D01*
X101950000Y-65357166D02*
X101983333Y-65223833D01*
X101983333Y-65223833D02*
X102016667Y-65157166D01*
X102016667Y-65157166D02*
X102083333Y-65090500D01*
X102083333Y-65090500D02*
X102183333Y-65057166D01*
X102183333Y-65057166D02*
X102250000Y-65057166D01*
X102250000Y-65057166D02*
X102350000Y-65090500D01*
X102350000Y-65090500D02*
X102383333Y-65123833D01*
X103016667Y-65057166D02*
X102683333Y-65057166D01*
X102683333Y-65057166D02*
X102650000Y-65390500D01*
X102650000Y-65390500D02*
X102683333Y-65357166D01*
X102683333Y-65357166D02*
X102750000Y-65323833D01*
X102750000Y-65323833D02*
X102916667Y-65323833D01*
X102916667Y-65323833D02*
X102983333Y-65357166D01*
X102983333Y-65357166D02*
X103016667Y-65390500D01*
X103016667Y-65390500D02*
X103050000Y-65457166D01*
X103050000Y-65457166D02*
X103050000Y-65623833D01*
X103050000Y-65623833D02*
X103016667Y-65690500D01*
X103016667Y-65690500D02*
X102983333Y-65723833D01*
X102983333Y-65723833D02*
X102916667Y-65757166D01*
X102916667Y-65757166D02*
X102750000Y-65757166D01*
X102750000Y-65757166D02*
X102683333Y-65723833D01*
X102683333Y-65723833D02*
X102650000Y-65690500D01*
X119257166Y-43616666D02*
X118923833Y-43849999D01*
X119257166Y-44016666D02*
X118557166Y-44016666D01*
X118557166Y-44016666D02*
X118557166Y-43749999D01*
X118557166Y-43749999D02*
X118590500Y-43683333D01*
X118590500Y-43683333D02*
X118623833Y-43649999D01*
X118623833Y-43649999D02*
X118690500Y-43616666D01*
X118690500Y-43616666D02*
X118790500Y-43616666D01*
X118790500Y-43616666D02*
X118857166Y-43649999D01*
X118857166Y-43649999D02*
X118890500Y-43683333D01*
X118890500Y-43683333D02*
X118923833Y-43749999D01*
X118923833Y-43749999D02*
X118923833Y-44016666D01*
X118557166Y-43383333D02*
X118557166Y-42949999D01*
X118557166Y-42949999D02*
X118823833Y-43183333D01*
X118823833Y-43183333D02*
X118823833Y-43083333D01*
X118823833Y-43083333D02*
X118857166Y-43016666D01*
X118857166Y-43016666D02*
X118890500Y-42983333D01*
X118890500Y-42983333D02*
X118957166Y-42949999D01*
X118957166Y-42949999D02*
X119123833Y-42949999D01*
X119123833Y-42949999D02*
X119190500Y-42983333D01*
X119190500Y-42983333D02*
X119223833Y-43016666D01*
X119223833Y-43016666D02*
X119257166Y-43083333D01*
X119257166Y-43083333D02*
X119257166Y-43283333D01*
X119257166Y-43283333D02*
X119223833Y-43349999D01*
X119223833Y-43349999D02*
X119190500Y-43383333D01*
X91883333Y-79257166D02*
X91650000Y-78923833D01*
X91483333Y-79257166D02*
X91483333Y-78557166D01*
X91483333Y-78557166D02*
X91750000Y-78557166D01*
X91750000Y-78557166D02*
X91816667Y-78590500D01*
X91816667Y-78590500D02*
X91850000Y-78623833D01*
X91850000Y-78623833D02*
X91883333Y-78690500D01*
X91883333Y-78690500D02*
X91883333Y-78790500D01*
X91883333Y-78790500D02*
X91850000Y-78857166D01*
X91850000Y-78857166D02*
X91816667Y-78890500D01*
X91816667Y-78890500D02*
X91750000Y-78923833D01*
X91750000Y-78923833D02*
X91483333Y-78923833D01*
X92216667Y-79257166D02*
X92350000Y-79257166D01*
X92350000Y-79257166D02*
X92416667Y-79223833D01*
X92416667Y-79223833D02*
X92450000Y-79190500D01*
X92450000Y-79190500D02*
X92516667Y-79090500D01*
X92516667Y-79090500D02*
X92550000Y-78957166D01*
X92550000Y-78957166D02*
X92550000Y-78690500D01*
X92550000Y-78690500D02*
X92516667Y-78623833D01*
X92516667Y-78623833D02*
X92483333Y-78590500D01*
X92483333Y-78590500D02*
X92416667Y-78557166D01*
X92416667Y-78557166D02*
X92283333Y-78557166D01*
X92283333Y-78557166D02*
X92216667Y-78590500D01*
X92216667Y-78590500D02*
X92183333Y-78623833D01*
X92183333Y-78623833D02*
X92150000Y-78690500D01*
X92150000Y-78690500D02*
X92150000Y-78857166D01*
X92150000Y-78857166D02*
X92183333Y-78923833D01*
X92183333Y-78923833D02*
X92216667Y-78957166D01*
X92216667Y-78957166D02*
X92283333Y-78990500D01*
X92283333Y-78990500D02*
X92416667Y-78990500D01*
X92416667Y-78990500D02*
X92483333Y-78957166D01*
X92483333Y-78957166D02*
X92516667Y-78923833D01*
X92516667Y-78923833D02*
X92550000Y-78857166D01*
X86383333Y-85190500D02*
X86350000Y-85223833D01*
X86350000Y-85223833D02*
X86250000Y-85257166D01*
X86250000Y-85257166D02*
X86183333Y-85257166D01*
X86183333Y-85257166D02*
X86083333Y-85223833D01*
X86083333Y-85223833D02*
X86016667Y-85157166D01*
X86016667Y-85157166D02*
X85983333Y-85090500D01*
X85983333Y-85090500D02*
X85950000Y-84957166D01*
X85950000Y-84957166D02*
X85950000Y-84857166D01*
X85950000Y-84857166D02*
X85983333Y-84723833D01*
X85983333Y-84723833D02*
X86016667Y-84657166D01*
X86016667Y-84657166D02*
X86083333Y-84590500D01*
X86083333Y-84590500D02*
X86183333Y-84557166D01*
X86183333Y-84557166D02*
X86250000Y-84557166D01*
X86250000Y-84557166D02*
X86350000Y-84590500D01*
X86350000Y-84590500D02*
X86383333Y-84623833D01*
X86616667Y-84557166D02*
X87050000Y-84557166D01*
X87050000Y-84557166D02*
X86816667Y-84823833D01*
X86816667Y-84823833D02*
X86916667Y-84823833D01*
X86916667Y-84823833D02*
X86983333Y-84857166D01*
X86983333Y-84857166D02*
X87016667Y-84890500D01*
X87016667Y-84890500D02*
X87050000Y-84957166D01*
X87050000Y-84957166D02*
X87050000Y-85123833D01*
X87050000Y-85123833D02*
X87016667Y-85190500D01*
X87016667Y-85190500D02*
X86983333Y-85223833D01*
X86983333Y-85223833D02*
X86916667Y-85257166D01*
X86916667Y-85257166D02*
X86716667Y-85257166D01*
X86716667Y-85257166D02*
X86650000Y-85223833D01*
X86650000Y-85223833D02*
X86616667Y-85190500D01*
X91883333Y-85257166D02*
X91650000Y-84923833D01*
X91483333Y-85257166D02*
X91483333Y-84557166D01*
X91483333Y-84557166D02*
X91750000Y-84557166D01*
X91750000Y-84557166D02*
X91816667Y-84590500D01*
X91816667Y-84590500D02*
X91850000Y-84623833D01*
X91850000Y-84623833D02*
X91883333Y-84690500D01*
X91883333Y-84690500D02*
X91883333Y-84790500D01*
X91883333Y-84790500D02*
X91850000Y-84857166D01*
X91850000Y-84857166D02*
X91816667Y-84890500D01*
X91816667Y-84890500D02*
X91750000Y-84923833D01*
X91750000Y-84923833D02*
X91483333Y-84923833D01*
X92516667Y-84557166D02*
X92183333Y-84557166D01*
X92183333Y-84557166D02*
X92150000Y-84890500D01*
X92150000Y-84890500D02*
X92183333Y-84857166D01*
X92183333Y-84857166D02*
X92250000Y-84823833D01*
X92250000Y-84823833D02*
X92416667Y-84823833D01*
X92416667Y-84823833D02*
X92483333Y-84857166D01*
X92483333Y-84857166D02*
X92516667Y-84890500D01*
X92516667Y-84890500D02*
X92550000Y-84957166D01*
X92550000Y-84957166D02*
X92550000Y-85123833D01*
X92550000Y-85123833D02*
X92516667Y-85190500D01*
X92516667Y-85190500D02*
X92483333Y-85223833D01*
X92483333Y-85223833D02*
X92416667Y-85257166D01*
X92416667Y-85257166D02*
X92250000Y-85257166D01*
X92250000Y-85257166D02*
X92183333Y-85223833D01*
X92183333Y-85223833D02*
X92150000Y-85190500D01*
X108483333Y-66457166D02*
X108483333Y-65757166D01*
X108483333Y-65757166D02*
X108650000Y-65757166D01*
X108650000Y-65757166D02*
X108750000Y-65790500D01*
X108750000Y-65790500D02*
X108816667Y-65857166D01*
X108816667Y-65857166D02*
X108850000Y-65923833D01*
X108850000Y-65923833D02*
X108883333Y-66057166D01*
X108883333Y-66057166D02*
X108883333Y-66157166D01*
X108883333Y-66157166D02*
X108850000Y-66290500D01*
X108850000Y-66290500D02*
X108816667Y-66357166D01*
X108816667Y-66357166D02*
X108750000Y-66423833D01*
X108750000Y-66423833D02*
X108650000Y-66457166D01*
X108650000Y-66457166D02*
X108483333Y-66457166D01*
X109550000Y-66457166D02*
X109150000Y-66457166D01*
X109350000Y-66457166D02*
X109350000Y-65757166D01*
X109350000Y-65757166D02*
X109283333Y-65857166D01*
X109283333Y-65857166D02*
X109216667Y-65923833D01*
X109216667Y-65923833D02*
X109150000Y-65957166D01*
X130549999Y-92757166D02*
X130316666Y-92423833D01*
X130149999Y-92757166D02*
X130149999Y-92057166D01*
X130149999Y-92057166D02*
X130416666Y-92057166D01*
X130416666Y-92057166D02*
X130483333Y-92090500D01*
X130483333Y-92090500D02*
X130516666Y-92123833D01*
X130516666Y-92123833D02*
X130549999Y-92190500D01*
X130549999Y-92190500D02*
X130549999Y-92290500D01*
X130549999Y-92290500D02*
X130516666Y-92357166D01*
X130516666Y-92357166D02*
X130483333Y-92390500D01*
X130483333Y-92390500D02*
X130416666Y-92423833D01*
X130416666Y-92423833D02*
X130149999Y-92423833D01*
X131216666Y-92757166D02*
X130816666Y-92757166D01*
X131016666Y-92757166D02*
X131016666Y-92057166D01*
X131016666Y-92057166D02*
X130949999Y-92157166D01*
X130949999Y-92157166D02*
X130883333Y-92223833D01*
X130883333Y-92223833D02*
X130816666Y-92257166D01*
X131850000Y-92057166D02*
X131516666Y-92057166D01*
X131516666Y-92057166D02*
X131483333Y-92390500D01*
X131483333Y-92390500D02*
X131516666Y-92357166D01*
X131516666Y-92357166D02*
X131583333Y-92323833D01*
X131583333Y-92323833D02*
X131750000Y-92323833D01*
X131750000Y-92323833D02*
X131816666Y-92357166D01*
X131816666Y-92357166D02*
X131850000Y-92390500D01*
X131850000Y-92390500D02*
X131883333Y-92457166D01*
X131883333Y-92457166D02*
X131883333Y-92623833D01*
X131883333Y-92623833D02*
X131850000Y-92690500D01*
X131850000Y-92690500D02*
X131816666Y-92723833D01*
X131816666Y-92723833D02*
X131750000Y-92757166D01*
X131750000Y-92757166D02*
X131583333Y-92757166D01*
X131583333Y-92757166D02*
X131516666Y-92723833D01*
X131516666Y-92723833D02*
X131483333Y-92690500D01*
X91883333Y-87257166D02*
X91650000Y-86923833D01*
X91483333Y-87257166D02*
X91483333Y-86557166D01*
X91483333Y-86557166D02*
X91750000Y-86557166D01*
X91750000Y-86557166D02*
X91816667Y-86590500D01*
X91816667Y-86590500D02*
X91850000Y-86623833D01*
X91850000Y-86623833D02*
X91883333Y-86690500D01*
X91883333Y-86690500D02*
X91883333Y-86790500D01*
X91883333Y-86790500D02*
X91850000Y-86857166D01*
X91850000Y-86857166D02*
X91816667Y-86890500D01*
X91816667Y-86890500D02*
X91750000Y-86923833D01*
X91750000Y-86923833D02*
X91483333Y-86923833D01*
X92116667Y-86557166D02*
X92583333Y-86557166D01*
X92583333Y-86557166D02*
X92283333Y-87257166D01*
X103549999Y-103257166D02*
X103316666Y-102923833D01*
X103149999Y-103257166D02*
X103149999Y-102557166D01*
X103149999Y-102557166D02*
X103416666Y-102557166D01*
X103416666Y-102557166D02*
X103483333Y-102590500D01*
X103483333Y-102590500D02*
X103516666Y-102623833D01*
X103516666Y-102623833D02*
X103549999Y-102690500D01*
X103549999Y-102690500D02*
X103549999Y-102790500D01*
X103549999Y-102790500D02*
X103516666Y-102857166D01*
X103516666Y-102857166D02*
X103483333Y-102890500D01*
X103483333Y-102890500D02*
X103416666Y-102923833D01*
X103416666Y-102923833D02*
X103149999Y-102923833D01*
X104216666Y-103257166D02*
X103816666Y-103257166D01*
X104016666Y-103257166D02*
X104016666Y-102557166D01*
X104016666Y-102557166D02*
X103949999Y-102657166D01*
X103949999Y-102657166D02*
X103883333Y-102723833D01*
X103883333Y-102723833D02*
X103816666Y-102757166D01*
X104650000Y-102557166D02*
X104716666Y-102557166D01*
X104716666Y-102557166D02*
X104783333Y-102590500D01*
X104783333Y-102590500D02*
X104816666Y-102623833D01*
X104816666Y-102623833D02*
X104850000Y-102690500D01*
X104850000Y-102690500D02*
X104883333Y-102823833D01*
X104883333Y-102823833D02*
X104883333Y-102990500D01*
X104883333Y-102990500D02*
X104850000Y-103123833D01*
X104850000Y-103123833D02*
X104816666Y-103190500D01*
X104816666Y-103190500D02*
X104783333Y-103223833D01*
X104783333Y-103223833D02*
X104716666Y-103257166D01*
X104716666Y-103257166D02*
X104650000Y-103257166D01*
X104650000Y-103257166D02*
X104583333Y-103223833D01*
X104583333Y-103223833D02*
X104550000Y-103190500D01*
X104550000Y-103190500D02*
X104516666Y-103123833D01*
X104516666Y-103123833D02*
X104483333Y-102990500D01*
X104483333Y-102990500D02*
X104483333Y-102823833D01*
X104483333Y-102823833D02*
X104516666Y-102690500D01*
X104516666Y-102690500D02*
X104550000Y-102623833D01*
X104550000Y-102623833D02*
X104583333Y-102590500D01*
X104583333Y-102590500D02*
X104650000Y-102557166D01*
X107757166Y-75450000D02*
X107423833Y-75683333D01*
X107757166Y-75850000D02*
X107057166Y-75850000D01*
X107057166Y-75850000D02*
X107057166Y-75583333D01*
X107057166Y-75583333D02*
X107090500Y-75516667D01*
X107090500Y-75516667D02*
X107123833Y-75483333D01*
X107123833Y-75483333D02*
X107190500Y-75450000D01*
X107190500Y-75450000D02*
X107290500Y-75450000D01*
X107290500Y-75450000D02*
X107357166Y-75483333D01*
X107357166Y-75483333D02*
X107390500Y-75516667D01*
X107390500Y-75516667D02*
X107423833Y-75583333D01*
X107423833Y-75583333D02*
X107423833Y-75850000D01*
X107757166Y-74783333D02*
X107757166Y-75183333D01*
X107757166Y-74983333D02*
X107057166Y-74983333D01*
X107057166Y-74983333D02*
X107157166Y-75050000D01*
X107157166Y-75050000D02*
X107223833Y-75116667D01*
X107223833Y-75116667D02*
X107257166Y-75183333D01*
X107757166Y-74116666D02*
X107757166Y-74516666D01*
X107757166Y-74316666D02*
X107057166Y-74316666D01*
X107057166Y-74316666D02*
X107157166Y-74383333D01*
X107157166Y-74383333D02*
X107223833Y-74450000D01*
X107223833Y-74450000D02*
X107257166Y-74516666D01*
X110433333Y-52323833D02*
X110366666Y-52290500D01*
X110366666Y-52290500D02*
X110300000Y-52223833D01*
X110300000Y-52223833D02*
X110200000Y-52123833D01*
X110200000Y-52123833D02*
X110133333Y-52090500D01*
X110133333Y-52090500D02*
X110066666Y-52090500D01*
X110100000Y-52257166D02*
X110033333Y-52223833D01*
X110033333Y-52223833D02*
X109966666Y-52157166D01*
X109966666Y-52157166D02*
X109933333Y-52023833D01*
X109933333Y-52023833D02*
X109933333Y-51790500D01*
X109933333Y-51790500D02*
X109966666Y-51657166D01*
X109966666Y-51657166D02*
X110033333Y-51590500D01*
X110033333Y-51590500D02*
X110100000Y-51557166D01*
X110100000Y-51557166D02*
X110233333Y-51557166D01*
X110233333Y-51557166D02*
X110300000Y-51590500D01*
X110300000Y-51590500D02*
X110366666Y-51657166D01*
X110366666Y-51657166D02*
X110400000Y-51790500D01*
X110400000Y-51790500D02*
X110400000Y-52023833D01*
X110400000Y-52023833D02*
X110366666Y-52157166D01*
X110366666Y-52157166D02*
X110300000Y-52223833D01*
X110300000Y-52223833D02*
X110233333Y-52257166D01*
X110233333Y-52257166D02*
X110100000Y-52257166D01*
X110666666Y-51623833D02*
X110699999Y-51590500D01*
X110699999Y-51590500D02*
X110766666Y-51557166D01*
X110766666Y-51557166D02*
X110933333Y-51557166D01*
X110933333Y-51557166D02*
X110999999Y-51590500D01*
X110999999Y-51590500D02*
X111033333Y-51623833D01*
X111033333Y-51623833D02*
X111066666Y-51690500D01*
X111066666Y-51690500D02*
X111066666Y-51757166D01*
X111066666Y-51757166D02*
X111033333Y-51857166D01*
X111033333Y-51857166D02*
X110633333Y-52257166D01*
X110633333Y-52257166D02*
X111066666Y-52257166D01*
X117272142Y-68642857D02*
X117319761Y-68690476D01*
X117319761Y-68690476D02*
X117367380Y-68833333D01*
X117367380Y-68833333D02*
X117367380Y-68928571D01*
X117367380Y-68928571D02*
X117319761Y-69071428D01*
X117319761Y-69071428D02*
X117224523Y-69166666D01*
X117224523Y-69166666D02*
X117129285Y-69214285D01*
X117129285Y-69214285D02*
X116938809Y-69261904D01*
X116938809Y-69261904D02*
X116795952Y-69261904D01*
X116795952Y-69261904D02*
X116605476Y-69214285D01*
X116605476Y-69214285D02*
X116510238Y-69166666D01*
X116510238Y-69166666D02*
X116415000Y-69071428D01*
X116415000Y-69071428D02*
X116367380Y-68928571D01*
X116367380Y-68928571D02*
X116367380Y-68833333D01*
X116367380Y-68833333D02*
X116415000Y-68690476D01*
X116415000Y-68690476D02*
X116462619Y-68642857D01*
X117367380Y-67690476D02*
X117367380Y-68261904D01*
X117367380Y-67976190D02*
X116367380Y-67976190D01*
X116367380Y-67976190D02*
X116510238Y-68071428D01*
X116510238Y-68071428D02*
X116605476Y-68166666D01*
X116605476Y-68166666D02*
X116653095Y-68261904D01*
X116462619Y-67309523D02*
X116415000Y-67261904D01*
X116415000Y-67261904D02*
X116367380Y-67166666D01*
X116367380Y-67166666D02*
X116367380Y-66928571D01*
X116367380Y-66928571D02*
X116415000Y-66833333D01*
X116415000Y-66833333D02*
X116462619Y-66785714D01*
X116462619Y-66785714D02*
X116557857Y-66738095D01*
X116557857Y-66738095D02*
X116653095Y-66738095D01*
X116653095Y-66738095D02*
X116795952Y-66785714D01*
X116795952Y-66785714D02*
X117367380Y-67357142D01*
X117367380Y-67357142D02*
X117367380Y-66738095D01*
X130549999Y-66257166D02*
X130316666Y-65923833D01*
X130149999Y-66257166D02*
X130149999Y-65557166D01*
X130149999Y-65557166D02*
X130416666Y-65557166D01*
X130416666Y-65557166D02*
X130483333Y-65590500D01*
X130483333Y-65590500D02*
X130516666Y-65623833D01*
X130516666Y-65623833D02*
X130549999Y-65690500D01*
X130549999Y-65690500D02*
X130549999Y-65790500D01*
X130549999Y-65790500D02*
X130516666Y-65857166D01*
X130516666Y-65857166D02*
X130483333Y-65890500D01*
X130483333Y-65890500D02*
X130416666Y-65923833D01*
X130416666Y-65923833D02*
X130149999Y-65923833D01*
X131216666Y-66257166D02*
X130816666Y-66257166D01*
X131016666Y-66257166D02*
X131016666Y-65557166D01*
X131016666Y-65557166D02*
X130949999Y-65657166D01*
X130949999Y-65657166D02*
X130883333Y-65723833D01*
X130883333Y-65723833D02*
X130816666Y-65757166D01*
X131816666Y-65790500D02*
X131816666Y-66257166D01*
X131650000Y-65523833D02*
X131483333Y-66023833D01*
X131483333Y-66023833D02*
X131916666Y-66023833D01*
D14*
X142699166Y-77907166D02*
X143099166Y-77907166D01*
X142899166Y-78607166D02*
X142899166Y-77907166D01*
X143299166Y-77973833D02*
X143332499Y-77940500D01*
X143332499Y-77940500D02*
X143399166Y-77907166D01*
X143399166Y-77907166D02*
X143565833Y-77907166D01*
X143565833Y-77907166D02*
X143632499Y-77940500D01*
X143632499Y-77940500D02*
X143665833Y-77973833D01*
X143665833Y-77973833D02*
X143699166Y-78040500D01*
X143699166Y-78040500D02*
X143699166Y-78107166D01*
X143699166Y-78107166D02*
X143665833Y-78207166D01*
X143665833Y-78207166D02*
X143265833Y-78607166D01*
X143265833Y-78607166D02*
X143699166Y-78607166D01*
D10*
X83690500Y-84116666D02*
X83723833Y-84149999D01*
X83723833Y-84149999D02*
X83757166Y-84249999D01*
X83757166Y-84249999D02*
X83757166Y-84316666D01*
X83757166Y-84316666D02*
X83723833Y-84416666D01*
X83723833Y-84416666D02*
X83657166Y-84483333D01*
X83657166Y-84483333D02*
X83590500Y-84516666D01*
X83590500Y-84516666D02*
X83457166Y-84549999D01*
X83457166Y-84549999D02*
X83357166Y-84549999D01*
X83357166Y-84549999D02*
X83223833Y-84516666D01*
X83223833Y-84516666D02*
X83157166Y-84483333D01*
X83157166Y-84483333D02*
X83090500Y-84416666D01*
X83090500Y-84416666D02*
X83057166Y-84316666D01*
X83057166Y-84316666D02*
X83057166Y-84249999D01*
X83057166Y-84249999D02*
X83090500Y-84149999D01*
X83090500Y-84149999D02*
X83123833Y-84116666D01*
X83757166Y-83449999D02*
X83757166Y-83849999D01*
X83757166Y-83649999D02*
X83057166Y-83649999D01*
X83057166Y-83649999D02*
X83157166Y-83716666D01*
X83157166Y-83716666D02*
X83223833Y-83783333D01*
X83223833Y-83783333D02*
X83257166Y-83849999D01*
X137766666Y-44557166D02*
X137766666Y-45057166D01*
X137766666Y-45057166D02*
X137733333Y-45157166D01*
X137733333Y-45157166D02*
X137666666Y-45223833D01*
X137666666Y-45223833D02*
X137566666Y-45257166D01*
X137566666Y-45257166D02*
X137500000Y-45257166D01*
X138066666Y-44623833D02*
X138099999Y-44590500D01*
X138099999Y-44590500D02*
X138166666Y-44557166D01*
X138166666Y-44557166D02*
X138333333Y-44557166D01*
X138333333Y-44557166D02*
X138399999Y-44590500D01*
X138399999Y-44590500D02*
X138433333Y-44623833D01*
X138433333Y-44623833D02*
X138466666Y-44690500D01*
X138466666Y-44690500D02*
X138466666Y-44757166D01*
X138466666Y-44757166D02*
X138433333Y-44857166D01*
X138433333Y-44857166D02*
X138033333Y-45257166D01*
X138033333Y-45257166D02*
X138466666Y-45257166D01*
X98757166Y-59916666D02*
X98423833Y-60149999D01*
X98757166Y-60316666D02*
X98057166Y-60316666D01*
X98057166Y-60316666D02*
X98057166Y-60049999D01*
X98057166Y-60049999D02*
X98090500Y-59983333D01*
X98090500Y-59983333D02*
X98123833Y-59949999D01*
X98123833Y-59949999D02*
X98190500Y-59916666D01*
X98190500Y-59916666D02*
X98290500Y-59916666D01*
X98290500Y-59916666D02*
X98357166Y-59949999D01*
X98357166Y-59949999D02*
X98390500Y-59983333D01*
X98390500Y-59983333D02*
X98423833Y-60049999D01*
X98423833Y-60049999D02*
X98423833Y-60316666D01*
X98057166Y-59716666D02*
X98757166Y-59483333D01*
X98757166Y-59483333D02*
X98057166Y-59249999D01*
X98757166Y-58649999D02*
X98757166Y-59049999D01*
X98757166Y-58849999D02*
X98057166Y-58849999D01*
X98057166Y-58849999D02*
X98157166Y-58916666D01*
X98157166Y-58916666D02*
X98223833Y-58983333D01*
X98223833Y-58983333D02*
X98257166Y-59049999D01*
X130883333Y-37107166D02*
X130650000Y-36773833D01*
X130483333Y-37107166D02*
X130483333Y-36407166D01*
X130483333Y-36407166D02*
X130750000Y-36407166D01*
X130750000Y-36407166D02*
X130816667Y-36440500D01*
X130816667Y-36440500D02*
X130850000Y-36473833D01*
X130850000Y-36473833D02*
X130883333Y-36540500D01*
X130883333Y-36540500D02*
X130883333Y-36640500D01*
X130883333Y-36640500D02*
X130850000Y-36707166D01*
X130850000Y-36707166D02*
X130816667Y-36740500D01*
X130816667Y-36740500D02*
X130750000Y-36773833D01*
X130750000Y-36773833D02*
X130483333Y-36773833D01*
X131150000Y-36473833D02*
X131183333Y-36440500D01*
X131183333Y-36440500D02*
X131250000Y-36407166D01*
X131250000Y-36407166D02*
X131416667Y-36407166D01*
X131416667Y-36407166D02*
X131483333Y-36440500D01*
X131483333Y-36440500D02*
X131516667Y-36473833D01*
X131516667Y-36473833D02*
X131550000Y-36540500D01*
X131550000Y-36540500D02*
X131550000Y-36607166D01*
X131550000Y-36607166D02*
X131516667Y-36707166D01*
X131516667Y-36707166D02*
X131116667Y-37107166D01*
X131116667Y-37107166D02*
X131550000Y-37107166D01*
X116690500Y-43616666D02*
X116723833Y-43649999D01*
X116723833Y-43649999D02*
X116757166Y-43749999D01*
X116757166Y-43749999D02*
X116757166Y-43816666D01*
X116757166Y-43816666D02*
X116723833Y-43916666D01*
X116723833Y-43916666D02*
X116657166Y-43983333D01*
X116657166Y-43983333D02*
X116590500Y-44016666D01*
X116590500Y-44016666D02*
X116457166Y-44049999D01*
X116457166Y-44049999D02*
X116357166Y-44049999D01*
X116357166Y-44049999D02*
X116223833Y-44016666D01*
X116223833Y-44016666D02*
X116157166Y-43983333D01*
X116157166Y-43983333D02*
X116090500Y-43916666D01*
X116090500Y-43916666D02*
X116057166Y-43816666D01*
X116057166Y-43816666D02*
X116057166Y-43749999D01*
X116057166Y-43749999D02*
X116090500Y-43649999D01*
X116090500Y-43649999D02*
X116123833Y-43616666D01*
X116290500Y-43016666D02*
X116757166Y-43016666D01*
X116023833Y-43183333D02*
X116523833Y-43349999D01*
X116523833Y-43349999D02*
X116523833Y-42916666D01*
X87690500Y-60116666D02*
X87723833Y-60149999D01*
X87723833Y-60149999D02*
X87757166Y-60249999D01*
X87757166Y-60249999D02*
X87757166Y-60316666D01*
X87757166Y-60316666D02*
X87723833Y-60416666D01*
X87723833Y-60416666D02*
X87657166Y-60483333D01*
X87657166Y-60483333D02*
X87590500Y-60516666D01*
X87590500Y-60516666D02*
X87457166Y-60549999D01*
X87457166Y-60549999D02*
X87357166Y-60549999D01*
X87357166Y-60549999D02*
X87223833Y-60516666D01*
X87223833Y-60516666D02*
X87157166Y-60483333D01*
X87157166Y-60483333D02*
X87090500Y-60416666D01*
X87090500Y-60416666D02*
X87057166Y-60316666D01*
X87057166Y-60316666D02*
X87057166Y-60249999D01*
X87057166Y-60249999D02*
X87090500Y-60149999D01*
X87090500Y-60149999D02*
X87123833Y-60116666D01*
X87357166Y-59716666D02*
X87323833Y-59783333D01*
X87323833Y-59783333D02*
X87290500Y-59816666D01*
X87290500Y-59816666D02*
X87223833Y-59849999D01*
X87223833Y-59849999D02*
X87190500Y-59849999D01*
X87190500Y-59849999D02*
X87123833Y-59816666D01*
X87123833Y-59816666D02*
X87090500Y-59783333D01*
X87090500Y-59783333D02*
X87057166Y-59716666D01*
X87057166Y-59716666D02*
X87057166Y-59583333D01*
X87057166Y-59583333D02*
X87090500Y-59516666D01*
X87090500Y-59516666D02*
X87123833Y-59483333D01*
X87123833Y-59483333D02*
X87190500Y-59449999D01*
X87190500Y-59449999D02*
X87223833Y-59449999D01*
X87223833Y-59449999D02*
X87290500Y-59483333D01*
X87290500Y-59483333D02*
X87323833Y-59516666D01*
X87323833Y-59516666D02*
X87357166Y-59583333D01*
X87357166Y-59583333D02*
X87357166Y-59716666D01*
X87357166Y-59716666D02*
X87390500Y-59783333D01*
X87390500Y-59783333D02*
X87423833Y-59816666D01*
X87423833Y-59816666D02*
X87490500Y-59849999D01*
X87490500Y-59849999D02*
X87623833Y-59849999D01*
X87623833Y-59849999D02*
X87690500Y-59816666D01*
X87690500Y-59816666D02*
X87723833Y-59783333D01*
X87723833Y-59783333D02*
X87757166Y-59716666D01*
X87757166Y-59716666D02*
X87757166Y-59583333D01*
X87757166Y-59583333D02*
X87723833Y-59516666D01*
X87723833Y-59516666D02*
X87690500Y-59483333D01*
X87690500Y-59483333D02*
X87623833Y-59449999D01*
X87623833Y-59449999D02*
X87490500Y-59449999D01*
X87490500Y-59449999D02*
X87423833Y-59483333D01*
X87423833Y-59483333D02*
X87390500Y-59516666D01*
X87390500Y-59516666D02*
X87357166Y-59583333D01*
D14*
X150157166Y-79783333D02*
X150157166Y-79383333D01*
X150857166Y-79583333D02*
X150157166Y-79583333D01*
X150157166Y-79216667D02*
X150157166Y-78783333D01*
X150157166Y-78783333D02*
X150423833Y-79016667D01*
X150423833Y-79016667D02*
X150423833Y-78916667D01*
X150423833Y-78916667D02*
X150457166Y-78850000D01*
X150457166Y-78850000D02*
X150490500Y-78816667D01*
X150490500Y-78816667D02*
X150557166Y-78783333D01*
X150557166Y-78783333D02*
X150723833Y-78783333D01*
X150723833Y-78783333D02*
X150790500Y-78816667D01*
X150790500Y-78816667D02*
X150823833Y-78850000D01*
X150823833Y-78850000D02*
X150857166Y-78916667D01*
X150857166Y-78916667D02*
X150857166Y-79116667D01*
X150857166Y-79116667D02*
X150823833Y-79183333D01*
X150823833Y-79183333D02*
X150790500Y-79216667D01*
D10*
X87049999Y-67190500D02*
X87016666Y-67223833D01*
X87016666Y-67223833D02*
X86916666Y-67257166D01*
X86916666Y-67257166D02*
X86849999Y-67257166D01*
X86849999Y-67257166D02*
X86749999Y-67223833D01*
X86749999Y-67223833D02*
X86683333Y-67157166D01*
X86683333Y-67157166D02*
X86649999Y-67090500D01*
X86649999Y-67090500D02*
X86616666Y-66957166D01*
X86616666Y-66957166D02*
X86616666Y-66857166D01*
X86616666Y-66857166D02*
X86649999Y-66723833D01*
X86649999Y-66723833D02*
X86683333Y-66657166D01*
X86683333Y-66657166D02*
X86749999Y-66590500D01*
X86749999Y-66590500D02*
X86849999Y-66557166D01*
X86849999Y-66557166D02*
X86916666Y-66557166D01*
X86916666Y-66557166D02*
X87016666Y-66590500D01*
X87016666Y-66590500D02*
X87049999Y-66623833D01*
X87716666Y-67257166D02*
X87316666Y-67257166D01*
X87516666Y-67257166D02*
X87516666Y-66557166D01*
X87516666Y-66557166D02*
X87449999Y-66657166D01*
X87449999Y-66657166D02*
X87383333Y-66723833D01*
X87383333Y-66723833D02*
X87316666Y-66757166D01*
X88150000Y-66557166D02*
X88216666Y-66557166D01*
X88216666Y-66557166D02*
X88283333Y-66590500D01*
X88283333Y-66590500D02*
X88316666Y-66623833D01*
X88316666Y-66623833D02*
X88350000Y-66690500D01*
X88350000Y-66690500D02*
X88383333Y-66823833D01*
X88383333Y-66823833D02*
X88383333Y-66990500D01*
X88383333Y-66990500D02*
X88350000Y-67123833D01*
X88350000Y-67123833D02*
X88316666Y-67190500D01*
X88316666Y-67190500D02*
X88283333Y-67223833D01*
X88283333Y-67223833D02*
X88216666Y-67257166D01*
X88216666Y-67257166D02*
X88150000Y-67257166D01*
X88150000Y-67257166D02*
X88083333Y-67223833D01*
X88083333Y-67223833D02*
X88050000Y-67190500D01*
X88050000Y-67190500D02*
X88016666Y-67123833D01*
X88016666Y-67123833D02*
X87983333Y-66990500D01*
X87983333Y-66990500D02*
X87983333Y-66823833D01*
X87983333Y-66823833D02*
X88016666Y-66690500D01*
X88016666Y-66690500D02*
X88050000Y-66623833D01*
X88050000Y-66623833D02*
X88083333Y-66590500D01*
X88083333Y-66590500D02*
X88150000Y-66557166D01*
X99757166Y-70116666D02*
X99423833Y-70349999D01*
X99757166Y-70516666D02*
X99057166Y-70516666D01*
X99057166Y-70516666D02*
X99057166Y-70249999D01*
X99057166Y-70249999D02*
X99090500Y-70183333D01*
X99090500Y-70183333D02*
X99123833Y-70149999D01*
X99123833Y-70149999D02*
X99190500Y-70116666D01*
X99190500Y-70116666D02*
X99290500Y-70116666D01*
X99290500Y-70116666D02*
X99357166Y-70149999D01*
X99357166Y-70149999D02*
X99390500Y-70183333D01*
X99390500Y-70183333D02*
X99423833Y-70249999D01*
X99423833Y-70249999D02*
X99423833Y-70516666D01*
X99357166Y-69716666D02*
X99323833Y-69783333D01*
X99323833Y-69783333D02*
X99290500Y-69816666D01*
X99290500Y-69816666D02*
X99223833Y-69849999D01*
X99223833Y-69849999D02*
X99190500Y-69849999D01*
X99190500Y-69849999D02*
X99123833Y-69816666D01*
X99123833Y-69816666D02*
X99090500Y-69783333D01*
X99090500Y-69783333D02*
X99057166Y-69716666D01*
X99057166Y-69716666D02*
X99057166Y-69583333D01*
X99057166Y-69583333D02*
X99090500Y-69516666D01*
X99090500Y-69516666D02*
X99123833Y-69483333D01*
X99123833Y-69483333D02*
X99190500Y-69449999D01*
X99190500Y-69449999D02*
X99223833Y-69449999D01*
X99223833Y-69449999D02*
X99290500Y-69483333D01*
X99290500Y-69483333D02*
X99323833Y-69516666D01*
X99323833Y-69516666D02*
X99357166Y-69583333D01*
X99357166Y-69583333D02*
X99357166Y-69716666D01*
X99357166Y-69716666D02*
X99390500Y-69783333D01*
X99390500Y-69783333D02*
X99423833Y-69816666D01*
X99423833Y-69816666D02*
X99490500Y-69849999D01*
X99490500Y-69849999D02*
X99623833Y-69849999D01*
X99623833Y-69849999D02*
X99690500Y-69816666D01*
X99690500Y-69816666D02*
X99723833Y-69783333D01*
X99723833Y-69783333D02*
X99757166Y-69716666D01*
X99757166Y-69716666D02*
X99757166Y-69583333D01*
X99757166Y-69583333D02*
X99723833Y-69516666D01*
X99723833Y-69516666D02*
X99690500Y-69483333D01*
X99690500Y-69483333D02*
X99623833Y-69449999D01*
X99623833Y-69449999D02*
X99490500Y-69449999D01*
X99490500Y-69449999D02*
X99423833Y-69483333D01*
X99423833Y-69483333D02*
X99390500Y-69516666D01*
X99390500Y-69516666D02*
X99357166Y-69583333D01*
X117772142Y-91142857D02*
X117819761Y-91190476D01*
X117819761Y-91190476D02*
X117867380Y-91333333D01*
X117867380Y-91333333D02*
X117867380Y-91428571D01*
X117867380Y-91428571D02*
X117819761Y-91571428D01*
X117819761Y-91571428D02*
X117724523Y-91666666D01*
X117724523Y-91666666D02*
X117629285Y-91714285D01*
X117629285Y-91714285D02*
X117438809Y-91761904D01*
X117438809Y-91761904D02*
X117295952Y-91761904D01*
X117295952Y-91761904D02*
X117105476Y-91714285D01*
X117105476Y-91714285D02*
X117010238Y-91666666D01*
X117010238Y-91666666D02*
X116915000Y-91571428D01*
X116915000Y-91571428D02*
X116867380Y-91428571D01*
X116867380Y-91428571D02*
X116867380Y-91333333D01*
X116867380Y-91333333D02*
X116915000Y-91190476D01*
X116915000Y-91190476D02*
X116962619Y-91142857D01*
X117867380Y-90190476D02*
X117867380Y-90761904D01*
X117867380Y-90476190D02*
X116867380Y-90476190D01*
X116867380Y-90476190D02*
X117010238Y-90571428D01*
X117010238Y-90571428D02*
X117105476Y-90666666D01*
X117105476Y-90666666D02*
X117153095Y-90761904D01*
X116867380Y-89857142D02*
X116867380Y-89238095D01*
X116867380Y-89238095D02*
X117248333Y-89571428D01*
X117248333Y-89571428D02*
X117248333Y-89428571D01*
X117248333Y-89428571D02*
X117295952Y-89333333D01*
X117295952Y-89333333D02*
X117343571Y-89285714D01*
X117343571Y-89285714D02*
X117438809Y-89238095D01*
X117438809Y-89238095D02*
X117676904Y-89238095D01*
X117676904Y-89238095D02*
X117772142Y-89285714D01*
X117772142Y-89285714D02*
X117819761Y-89333333D01*
X117819761Y-89333333D02*
X117867380Y-89428571D01*
X117867380Y-89428571D02*
X117867380Y-89714285D01*
X117867380Y-89714285D02*
X117819761Y-89809523D01*
X117819761Y-89809523D02*
X117772142Y-89857142D01*
X121883333Y-43907166D02*
X121650000Y-43573833D01*
X121483333Y-43907166D02*
X121483333Y-43207166D01*
X121483333Y-43207166D02*
X121750000Y-43207166D01*
X121750000Y-43207166D02*
X121816667Y-43240500D01*
X121816667Y-43240500D02*
X121850000Y-43273833D01*
X121850000Y-43273833D02*
X121883333Y-43340500D01*
X121883333Y-43340500D02*
X121883333Y-43440500D01*
X121883333Y-43440500D02*
X121850000Y-43507166D01*
X121850000Y-43507166D02*
X121816667Y-43540500D01*
X121816667Y-43540500D02*
X121750000Y-43573833D01*
X121750000Y-43573833D02*
X121483333Y-43573833D01*
X122483333Y-43440500D02*
X122483333Y-43907166D01*
X122316667Y-43173833D02*
X122150000Y-43673833D01*
X122150000Y-43673833D02*
X122583333Y-43673833D01*
D15*
X179433690Y-72966666D02*
X179790833Y-72966666D01*
X179790833Y-72966666D02*
X179862261Y-72990475D01*
X179862261Y-72990475D02*
X179909880Y-73038094D01*
X179909880Y-73038094D02*
X179933690Y-73109523D01*
X179933690Y-73109523D02*
X179933690Y-73157142D01*
X179600357Y-72514285D02*
X179933690Y-72514285D01*
X179409880Y-72633333D02*
X179767023Y-72752380D01*
X179767023Y-72752380D02*
X179767023Y-72442857D01*
D16*
X95261252Y-81735000D02*
X94738748Y-81735000D01*
X95261252Y-80265000D02*
X94738748Y-80265000D01*
X110000000Y-85500000D02*
X104000000Y-85500000D01*
X104000000Y-85500000D02*
X104000000Y-72000000D01*
X104000000Y-72000000D02*
X110000000Y-72000000D01*
X110000000Y-72000000D02*
X110000000Y-85500000D01*
X114727064Y-76635000D02*
X114272936Y-76635000D01*
X114727064Y-75165000D02*
X114272936Y-75165000D01*
X98238748Y-100515000D02*
X98761252Y-100515000D01*
X98238748Y-101985000D02*
X98761252Y-101985000D01*
X95227064Y-83735000D02*
X94772936Y-83735000D01*
X95227064Y-82265000D02*
X94772936Y-82265000D01*
X97361961Y-99875856D02*
X98252916Y-98984902D01*
X96584144Y-99098039D02*
X97361961Y-99875856D01*
X97475098Y-98207084D02*
X96584144Y-99098039D01*
X98252629Y-98984673D02*
G75*
G03*
X97475099Y-98207084I2997371J3774673D01*
G01*
X128300000Y-70450000D02*
X119300000Y-70450000D01*
X119300000Y-70450000D02*
X119300000Y-87950000D01*
X119300000Y-87950000D02*
X128300000Y-87950000D01*
X128300000Y-87950000D02*
X128300000Y-70450000D01*
X125300000Y-87450000D02*
X122300000Y-87450000D01*
X122300000Y-87450000D02*
X122300000Y-88450000D01*
X122300000Y-88450000D02*
X125300000Y-88450000D01*
X125300000Y-88450000D02*
X125300000Y-87450000D01*
X125300000Y-69950000D02*
X122300000Y-69950000D01*
X122300000Y-69950000D02*
X122300000Y-70950000D01*
X122300000Y-70950000D02*
X125300000Y-70950000D01*
X125300000Y-70950000D02*
X125300000Y-69950000D01*
X127800000Y-85450000D02*
G75*
G03*
X127800000Y-85450000I-500000J0D01*
G01*
X126800000Y-72950000D02*
G75*
G03*
X126800000Y-72950000I-500000J0D01*
G01*
X121800000Y-85450000D02*
G75*
G03*
X121800000Y-85450000I-500000J0D01*
G01*
X98865000Y-33040000D02*
X98865000Y-36960000D01*
X98865000Y-36960000D02*
X104250000Y-36960000D01*
X104250000Y-33040000D02*
X98865000Y-33040000D01*
X89550000Y-52470000D02*
X89820000Y-52470000D01*
X89820000Y-52470000D02*
X89820000Y-55300000D01*
X96180000Y-52470000D02*
X96180000Y-53570000D01*
X96450000Y-52470000D02*
X96180000Y-52470000D01*
X89550000Y-50970000D02*
X89550000Y-52470000D01*
X96450000Y-50970000D02*
X96450000Y-52470000D01*
X98085000Y-73760000D02*
X98085000Y-69240000D01*
X98085000Y-69240000D02*
X89850000Y-69240000D01*
X89850000Y-73760000D02*
X98085000Y-73760000D01*
X91500000Y-98000000D02*
X84500000Y-98000000D01*
X84500000Y-98000000D02*
X84500000Y-92000000D01*
X84500000Y-92000000D02*
X91500000Y-92000000D01*
X91500000Y-92000000D02*
X91500000Y-98000000D01*
X99060000Y-39020000D02*
X99060000Y-43020000D01*
X99350000Y-37990000D02*
X99350000Y-44010000D01*
X99350000Y-44010000D02*
X104650000Y-44010000D01*
X99930000Y-37990000D02*
X99930000Y-38590000D01*
X99930000Y-38590000D02*
X101530000Y-38590000D01*
X100730000Y-43010000D02*
X100980000Y-42480000D01*
X100730000Y-43010000D02*
X103270000Y-43010000D01*
X100730000Y-44010000D02*
X100730000Y-43010000D01*
X100980000Y-42480000D02*
X103020000Y-42480000D01*
X100980000Y-44010000D02*
X100980000Y-43010000D01*
X101530000Y-38590000D02*
X101530000Y-37990000D01*
X102470000Y-37990000D02*
X102470000Y-38590000D01*
X102470000Y-38590000D02*
X104070000Y-38590000D01*
X103020000Y-42480000D02*
X103270000Y-43010000D01*
X103020000Y-44010000D02*
X103020000Y-43010000D01*
X103270000Y-43010000D02*
X103270000Y-44010000D01*
X104070000Y-38590000D02*
X104070000Y-37990000D01*
X104650000Y-37990000D02*
X99350000Y-37990000D01*
X104650000Y-44010000D02*
X104650000Y-37990000D01*
X108623752Y-79735000D02*
X108101248Y-79735000D01*
X108623752Y-78265000D02*
X108101248Y-78265000D01*
X130735000Y-41238748D02*
X130735000Y-41761252D01*
X129265000Y-41238748D02*
X129265000Y-41761252D01*
X127580000Y-41260000D02*
X127580000Y-38100000D01*
X127580000Y-41260000D02*
X126650000Y-41260000D01*
X124420000Y-41260000D02*
X124420000Y-39800000D01*
X124420000Y-41260000D02*
X125350000Y-41260000D01*
X131265000Y-41727064D02*
X131265000Y-41272936D01*
X132735000Y-41727064D02*
X132735000Y-41272936D01*
X114727064Y-82335000D02*
X114272936Y-82335000D01*
X114727064Y-80865000D02*
X114272936Y-80865000D01*
X102238748Y-66265000D02*
X102761252Y-66265000D01*
X102238748Y-67735000D02*
X102761252Y-67735000D01*
X119735000Y-40772936D02*
X119735000Y-41227064D01*
X118265000Y-40772936D02*
X118265000Y-41227064D01*
X95227064Y-79735000D02*
X94772936Y-79735000D01*
X95227064Y-78265000D02*
X94772936Y-78265000D01*
X88738748Y-84265000D02*
X89261252Y-84265000D01*
X88738748Y-85735000D02*
X89261252Y-85735000D01*
X95227064Y-85735000D02*
X94772936Y-85735000D01*
X95227064Y-84265000D02*
X94772936Y-84265000D01*
X111135000Y-64415000D02*
X106865000Y-64415000D01*
X106865000Y-64415000D02*
X106865000Y-70475000D01*
X111135000Y-70475000D02*
X111135000Y-64415000D01*
X129297369Y-91710000D02*
X127702631Y-91710000D01*
X129297369Y-87290000D02*
X127702631Y-87290000D01*
X94772936Y-86265000D02*
X95227064Y-86265000D01*
X94772936Y-87735000D02*
X95227064Y-87735000D01*
X104477064Y-101985000D02*
X104022936Y-101985000D01*
X104477064Y-100515000D02*
X104022936Y-100515000D01*
X109735000Y-75772936D02*
X109735000Y-76227064D01*
X108265000Y-75772936D02*
X108265000Y-76227064D01*
X113950000Y-43430000D02*
X113680000Y-43430000D01*
X113680000Y-43430000D02*
X113680000Y-40600000D01*
X107320000Y-43430000D02*
X107320000Y-42330000D01*
X107050000Y-43430000D02*
X107320000Y-43430000D01*
X113950000Y-44930000D02*
X113950000Y-43430000D01*
X107050000Y-44930000D02*
X107050000Y-43430000D01*
X116390000Y-72911252D02*
X116390000Y-71488748D01*
X118210000Y-72911252D02*
X118210000Y-71488748D01*
X129297369Y-71210000D02*
X127702631Y-71210000D01*
X129297369Y-66790000D02*
X127702631Y-66790000D01*
X150232500Y-86750000D02*
X136232500Y-86750000D01*
X136232500Y-86750000D02*
X136232500Y-73250000D01*
X136232500Y-73250000D02*
X150232500Y-73250000D01*
X150232500Y-73250000D02*
X150232500Y-86750000D01*
X85735000Y-83738748D02*
X85735000Y-84261252D01*
X84265000Y-83738748D02*
X84265000Y-84261252D01*
X134060000Y-39020000D02*
X134060000Y-43020000D01*
X134350000Y-37990000D02*
X134350000Y-44010000D01*
X134350000Y-44010000D02*
X139650000Y-44010000D01*
X134930000Y-37990000D02*
X134930000Y-38590000D01*
X134930000Y-38590000D02*
X136530000Y-38590000D01*
X135730000Y-43010000D02*
X135980000Y-42480000D01*
X135730000Y-43010000D02*
X138270000Y-43010000D01*
X135730000Y-44010000D02*
X135730000Y-43010000D01*
X135980000Y-42480000D02*
X138020000Y-42480000D01*
X135980000Y-44010000D02*
X135980000Y-43010000D01*
X136530000Y-38590000D02*
X136530000Y-37990000D01*
X137470000Y-37990000D02*
X137470000Y-38590000D01*
X137470000Y-38590000D02*
X139070000Y-38590000D01*
X138020000Y-42480000D02*
X138270000Y-43010000D01*
X138020000Y-44010000D02*
X138020000Y-43010000D01*
X138270000Y-43010000D02*
X138270000Y-44010000D01*
X139070000Y-38590000D02*
X139070000Y-37990000D01*
X139650000Y-37990000D02*
X134350000Y-37990000D01*
X139650000Y-44010000D02*
X139650000Y-37990000D01*
X93700000Y-63100000D02*
X94400000Y-63100000D01*
X95300000Y-62600000D02*
X95700000Y-62600000D01*
X93700000Y-62400000D02*
X93700000Y-63100000D01*
X93900000Y-61500000D02*
X93900000Y-58600000D01*
X97100000Y-61500000D02*
X97100000Y-58600000D01*
X93900000Y-58600000D02*
X94500000Y-58600000D01*
X97100000Y-58600000D02*
X96500000Y-58600000D01*
X130772936Y-37765000D02*
X131227064Y-37765000D01*
X130772936Y-39235000D02*
X131227064Y-39235000D01*
D17*
X87999740Y-75000260D02*
X87999740Y-80999740D01*
X82000260Y-75000260D02*
X87999740Y-75000260D01*
X87999740Y-80999740D02*
X82000260Y-80999740D01*
X82000260Y-80999740D02*
X82000260Y-75000260D01*
D18*
X85500380Y-78000000D02*
G75*
G03*
X85500380Y-78000000I-500380J0D01*
G01*
X86501140Y-78000000D02*
G75*
G03*
X86501140Y-78000000I-1501140J0D01*
G01*
D17*
X87371904Y-78000000D02*
G75*
G03*
X87371904Y-78000000I-2371904J0D01*
G01*
X87548957Y-78000000D02*
G75*
G03*
X87548957Y-78000000I-2548957J0D01*
G01*
D16*
X117235000Y-40738748D02*
X117235000Y-41261252D01*
X115765000Y-40738748D02*
X115765000Y-41261252D01*
X88290000Y-63935000D02*
X91710000Y-63935000D01*
X91710000Y-63935000D02*
X91710000Y-57000000D01*
X88290000Y-57000000D02*
X88290000Y-63935000D01*
X164000000Y-92250000D02*
X138000000Y-92250000D01*
X138000000Y-92250000D02*
X138000000Y-79750000D01*
X138000000Y-79750000D02*
X164000000Y-79750000D01*
X164000000Y-79750000D02*
X164000000Y-92250000D01*
X164000000Y-78750000D02*
X138000000Y-78750000D01*
X138000000Y-78750000D02*
X138000000Y-66250000D01*
X138000000Y-66250000D02*
X164000000Y-66250000D01*
X164000000Y-66250000D02*
X164000000Y-78750000D01*
X98085000Y-68760000D02*
X98085000Y-64240000D01*
X98085000Y-64240000D02*
X89850000Y-64240000D01*
X89850000Y-68760000D02*
X98085000Y-68760000D01*
X100265000Y-70227064D02*
X100265000Y-69772936D01*
X101735000Y-70227064D02*
X101735000Y-69772936D01*
X116490000Y-86911252D02*
X116490000Y-85488748D01*
X118310000Y-86911252D02*
X118310000Y-85488748D01*
X122227064Y-42735000D02*
X121772936Y-42735000D01*
X122227064Y-41265000D02*
X121772936Y-41265000D01*
D17*
X172000260Y-75799740D02*
X172000260Y-69800260D01*
X177999740Y-75799740D02*
X172000260Y-75799740D01*
X172000260Y-69800260D02*
X177999740Y-69800260D01*
X177999740Y-69800260D02*
X177999740Y-75799740D01*
D18*
X175500380Y-72800000D02*
G75*
G03*
X175500380Y-72800000I-500380J0D01*
G01*
X176501140Y-72800000D02*
G75*
G03*
X176501140Y-72800000I-1501140J0D01*
G01*
D17*
X177371904Y-72800000D02*
G75*
G03*
X177371904Y-72800000I-2371904J0D01*
G01*
X177548957Y-72800000D02*
G75*
G03*
X177548957Y-72800000I-2548957J0D01*
G01*
D19*
X85000000Y-78000000D03*
D20*
X87540000Y-75460000D03*
X82460000Y-75460000D03*
X87540000Y-80540000D03*
X82460000Y-80540000D03*
D19*
X175000000Y-72800000D03*
D20*
X172460000Y-75340000D03*
X177540000Y-75340000D03*
X172460000Y-70260000D03*
X177540000Y-70260000D03*
%LPC*%
D21*
X85000000Y-35000000D03*
D22*
X96037500Y-81000000D03*
X93962500Y-81000000D03*
D23*
X101500000Y-84000000D03*
X101500000Y-79000000D03*
X101500000Y-73500000D03*
X112500000Y-73500000D03*
X112500000Y-79000000D03*
X112500000Y-84000000D03*
D24*
X115500000Y-75900000D03*
X113500000Y-75900000D03*
D25*
X97462500Y-101250000D03*
X99537500Y-101250000D03*
D24*
X96000000Y-83000000D03*
X94000000Y-83000000D03*
D21*
X85000000Y-106000000D03*
D26*
X169000000Y-49000000D03*
D27*
X101250000Y-101750000D03*
D28*
X107750000Y-95250000D03*
D27*
X101250000Y-88750000D03*
D29*
X117899999Y-76499999D03*
X117899999Y-81899999D03*
X129699999Y-81899999D03*
X129699999Y-76499999D03*
D30*
X99775000Y-35000000D03*
X104225000Y-35000000D03*
D31*
X90719999Y-54199999D03*
D32*
X92999999Y-47899999D03*
D31*
X95279999Y-54199999D03*
D33*
X96700000Y-71500000D03*
X90300000Y-71500000D03*
D34*
X85000000Y-90000000D03*
X88000000Y-90000000D03*
X91000000Y-90000000D03*
D21*
X175000000Y-106000000D03*
D35*
X100730000Y-41020000D03*
D36*
X103269999Y-41019999D03*
D22*
X109400000Y-79000000D03*
X107325000Y-79000000D03*
D37*
X130000000Y-40462500D03*
X130000000Y-42537500D03*
D38*
X126949999Y-38999999D03*
X125049999Y-38999999D03*
X125999999Y-41999999D03*
D39*
X132000000Y-42500000D03*
X132000000Y-40500000D03*
D26*
X151000000Y-49000000D03*
D24*
X115500000Y-81600000D03*
X113500000Y-81600000D03*
D25*
X101462500Y-67000000D03*
X103537500Y-67000000D03*
D40*
X119000000Y-40000000D03*
X119000000Y-42000000D03*
D24*
X96000000Y-79000000D03*
X94000000Y-79000000D03*
D25*
X87962500Y-85000000D03*
X90037500Y-85000000D03*
D24*
X96000000Y-85000000D03*
X94000000Y-85000000D03*
D21*
X175000000Y-35000000D03*
D41*
X109000000Y-88000000D03*
X109000000Y-69000000D03*
D42*
X131100000Y-89500000D03*
X114000000Y-89500000D03*
D43*
X94000000Y-87000000D03*
X96000000Y-87000000D03*
D24*
X105250000Y-101250000D03*
X103250000Y-101250000D03*
D40*
X109000000Y-75000000D03*
X109000000Y-77000000D03*
D31*
X112779999Y-41699999D03*
D32*
X110499999Y-47999999D03*
D31*
X108219999Y-41699999D03*
D44*
X117300000Y-73762500D03*
X117300000Y-70637500D03*
D42*
X131100000Y-69000000D03*
X114000000Y-69000000D03*
D45*
X134232499Y-81249999D03*
X134232499Y-77249999D03*
D37*
X85000000Y-82962500D03*
X85000000Y-85037500D03*
D35*
X135730000Y-41020000D03*
D36*
X138269999Y-41019999D03*
D46*
X93999999Y-62299999D03*
D47*
X95499999Y-59049999D03*
D46*
X96999999Y-62299999D03*
D43*
X130000000Y-38500000D03*
X132000000Y-38500000D03*
D19*
X85000000Y-78000000D03*
D20*
X87540000Y-75460000D03*
X82460000Y-75460000D03*
X87540000Y-80540000D03*
X82460000Y-80540000D03*
D37*
X116500000Y-39962500D03*
X116500000Y-42037500D03*
D48*
X90000000Y-62550000D03*
X90000000Y-57450000D03*
D49*
X134500000Y-72750000D03*
X134500000Y-85750000D03*
X167500000Y-85750000D03*
X167500000Y-72750000D03*
D33*
X96700000Y-66500000D03*
X90300000Y-66500000D03*
D39*
X101000000Y-71000000D03*
X101000000Y-69000000D03*
D44*
X117400000Y-87762500D03*
X117400000Y-84637500D03*
D24*
X123000000Y-42000000D03*
X121000000Y-42000000D03*
D19*
X175000000Y-72800000D03*
D20*
X172460000Y-75340000D03*
X177540000Y-75340000D03*
X172460000Y-70260000D03*
X177540000Y-70260000D03*
M02*
