G04 #@! TF.GenerationSoftware,KiCad,Pcbnew,(7.0.0)*
G04 #@! TF.CreationDate,2023-02-14T12:16:20+01:00*
G04 #@! TF.ProjectId,Ampli_0_5W,416d706c-695f-4305-9f35-572e6b696361,rev?*
G04 #@! TF.SameCoordinates,Original*
G04 #@! TF.FileFunction,Copper,L1,Top*
G04 #@! TF.FilePolarity,Positive*
%FSLAX46Y46*%
G04 Gerber Fmt 4.6, Leading zero omitted, Abs format (unit mm)*
G04 Created by KiCad (PCBNEW (7.0.0)) date 2023-02-14 12:16:20*
%MOMM*%
%LPD*%
G01*
G04 APERTURE LIST*
G04 Aperture macros list*
%AMRoundRect*
0 Rectangle with rounded corners*
0 $1 Rounding radius*
0 $2 $3 $4 $5 $6 $7 $8 $9 X,Y pos of 4 corners*
0 Add a 4 corners polygon primitive as box body*
4,1,4,$2,$3,$4,$5,$6,$7,$8,$9,$2,$3,0*
0 Add four circle primitives for the rounded corners*
1,1,$1+$1,$2,$3*
1,1,$1+$1,$4,$5*
1,1,$1+$1,$6,$7*
1,1,$1+$1,$8,$9*
0 Add four rect primitives between the rounded corners*
20,1,$1+$1,$2,$3,$4,$5,0*
20,1,$1+$1,$4,$5,$6,$7,0*
20,1,$1+$1,$6,$7,$8,$9,0*
20,1,$1+$1,$8,$9,$2,$3,0*%
G04 Aperture macros list end*
G04 #@! TA.AperFunction,ComponentPad*
%ADD10C,5.600000*%
G04 #@! TD*
G04 #@! TA.AperFunction,SMDPad,CuDef*
%ADD11RoundRect,0.250000X0.337500X0.475000X-0.337500X0.475000X-0.337500X-0.475000X0.337500X-0.475000X0*%
G04 #@! TD*
G04 #@! TA.AperFunction,SMDPad,CuDef*
%ADD12RoundRect,0.625000X-1.375000X-0.625000X1.375000X-0.625000X1.375000X0.625000X-1.375000X0.625000X0*%
G04 #@! TD*
G04 #@! TA.AperFunction,SMDPad,CuDef*
%ADD13RoundRect,0.250000X0.350000X0.450000X-0.350000X0.450000X-0.350000X-0.450000X0.350000X-0.450000X0*%
G04 #@! TD*
G04 #@! TA.AperFunction,SMDPad,CuDef*
%ADD14RoundRect,0.250000X-0.337500X-0.475000X0.337500X-0.475000X0.337500X0.475000X-0.337500X0.475000X0*%
G04 #@! TD*
G04 #@! TA.AperFunction,ComponentPad*
%ADD15C,8.000000*%
G04 #@! TD*
G04 #@! TA.AperFunction,SMDPad,CuDef*
%ADD16RoundRect,0.500000X0.500000X1.500000X-0.500000X1.500000X-0.500000X-1.500000X0.500000X-1.500000X0*%
G04 #@! TD*
G04 #@! TA.AperFunction,SMDPad,CuDef*
%ADD17RoundRect,0.500000X1.500000X-0.500000X1.500000X0.500000X-1.500000X0.500000X-1.500000X-0.500000X0*%
G04 #@! TD*
G04 #@! TA.AperFunction,SMDPad,CuDef*
%ADD18R,2.700000X4.320000*%
G04 #@! TD*
G04 #@! TA.AperFunction,SMDPad,CuDef*
%ADD19RoundRect,0.250000X-0.400000X-1.450000X0.400000X-1.450000X0.400000X1.450000X-0.400000X1.450000X0*%
G04 #@! TD*
G04 #@! TA.AperFunction,SMDPad,CuDef*
%ADD20R,1.200000X2.200000*%
G04 #@! TD*
G04 #@! TA.AperFunction,SMDPad,CuDef*
%ADD21R,5.800000X6.400000*%
G04 #@! TD*
G04 #@! TA.AperFunction,SMDPad,CuDef*
%ADD22RoundRect,0.250000X0.875000X1.025000X-0.875000X1.025000X-0.875000X-1.025000X0.875000X-1.025000X0*%
G04 #@! TD*
G04 #@! TA.AperFunction,SMDPad,CuDef*
%ADD23RoundRect,0.500000X-0.500000X-1.500000X0.500000X-1.500000X0.500000X1.500000X-0.500000X1.500000X0*%
G04 #@! TD*
G04 #@! TA.AperFunction,ComponentPad*
%ADD24RoundRect,0.250000X-0.620000X-0.845000X0.620000X-0.845000X0.620000X0.845000X-0.620000X0.845000X0*%
G04 #@! TD*
G04 #@! TA.AperFunction,ComponentPad*
%ADD25O,1.740000X2.190000*%
G04 #@! TD*
G04 #@! TA.AperFunction,SMDPad,CuDef*
%ADD26RoundRect,0.250000X-0.475000X0.337500X-0.475000X-0.337500X0.475000X-0.337500X0.475000X0.337500X0*%
G04 #@! TD*
G04 #@! TA.AperFunction,SMDPad,CuDef*
%ADD27R,0.800000X1.900000*%
G04 #@! TD*
G04 #@! TA.AperFunction,SMDPad,CuDef*
%ADD28RoundRect,0.250000X0.450000X-0.350000X0.450000X0.350000X-0.450000X0.350000X-0.450000X-0.350000X0*%
G04 #@! TD*
G04 #@! TA.AperFunction,SMDPad,CuDef*
%ADD29RoundRect,0.250000X-0.450000X0.350000X-0.450000X-0.350000X0.450000X-0.350000X0.450000X0.350000X0*%
G04 #@! TD*
G04 #@! TA.AperFunction,SMDPad,CuDef*
%ADD30RoundRect,0.506757X-1.368243X1.368243X-1.368243X-1.368243X1.368243X-1.368243X1.368243X1.368243X0*%
G04 #@! TD*
G04 #@! TA.AperFunction,SMDPad,CuDef*
%ADD31RoundRect,0.250000X1.350000X1.975000X-1.350000X1.975000X-1.350000X-1.975000X1.350000X-1.975000X0*%
G04 #@! TD*
G04 #@! TA.AperFunction,SMDPad,CuDef*
%ADD32RoundRect,0.250000X-0.350000X-0.450000X0.350000X-0.450000X0.350000X0.450000X-0.350000X0.450000X0*%
G04 #@! TD*
G04 #@! TA.AperFunction,SMDPad,CuDef*
%ADD33RoundRect,0.250000X0.650000X-0.412500X0.650000X0.412500X-0.650000X0.412500X-0.650000X-0.412500X0*%
G04 #@! TD*
G04 #@! TA.AperFunction,ComponentPad*
%ADD34O,4.000000X3.000000*%
G04 #@! TD*
G04 #@! TA.AperFunction,SMDPad,CuDef*
%ADD35R,2.500000X2.000000*%
G04 #@! TD*
G04 #@! TA.AperFunction,SMDPad,CuDef*
%ADD36R,3.000000X3.000000*%
G04 #@! TD*
G04 #@! TA.AperFunction,ComponentPad*
%ADD37C,1.998980*%
G04 #@! TD*
G04 #@! TA.AperFunction,ComponentPad*
%ADD38C,2.499360*%
G04 #@! TD*
G04 #@! TA.AperFunction,SMDPad,CuDef*
%ADD39RoundRect,0.250000X0.925000X-0.875000X0.925000X0.875000X-0.925000X0.875000X-0.925000X-0.875000X0*%
G04 #@! TD*
G04 #@! TA.AperFunction,SMDPad,CuDef*
%ADD40RoundRect,1.000000X2.500000X-1.000000X2.500000X1.000000X-2.500000X1.000000X-2.500000X-1.000000X0*%
G04 #@! TD*
G04 #@! TA.AperFunction,ViaPad*
%ADD41C,0.800000*%
G04 #@! TD*
G04 #@! TA.AperFunction,Conductor*
%ADD42C,1.600000*%
G04 #@! TD*
G04 #@! TA.AperFunction,Conductor*
%ADD43C,1.000000*%
G04 #@! TD*
G04 #@! TA.AperFunction,Conductor*
%ADD44C,1.300000*%
G04 #@! TD*
G04 #@! TA.AperFunction,Conductor*
%ADD45C,2.000000*%
G04 #@! TD*
G04 #@! TA.AperFunction,Conductor*
%ADD46C,2.500000*%
G04 #@! TD*
G04 APERTURE END LIST*
D10*
X85000000Y-35000000D03*
D11*
X96037500Y-81000000D03*
X93962500Y-81000000D03*
D12*
X101500000Y-84000000D03*
X101500000Y-79000000D03*
X101500000Y-73500000D03*
X112500000Y-73500000D03*
X112500000Y-79000000D03*
X112500000Y-84000000D03*
D13*
X115500000Y-75900000D03*
X113500000Y-75900000D03*
D14*
X97462500Y-101250000D03*
X99537500Y-101250000D03*
D13*
X96000000Y-83000000D03*
X94000000Y-83000000D03*
D10*
X85000000Y-106000000D03*
D15*
X169000000Y-49000000D03*
D16*
X101250000Y-101750000D03*
D17*
X107750000Y-95250000D03*
D16*
X101250000Y-88750000D03*
D18*
X117899999Y-76499999D03*
X117899999Y-81899999D03*
X129699999Y-81899999D03*
X129699999Y-76499999D03*
D19*
X99775000Y-35000000D03*
X104225000Y-35000000D03*
D20*
X90719999Y-54199999D03*
D21*
X92999999Y-47899999D03*
D20*
X95279999Y-54199999D03*
D22*
X96700000Y-71500000D03*
X90300000Y-71500000D03*
D23*
X85000000Y-90000000D03*
X88000000Y-90000000D03*
X91000000Y-90000000D03*
D10*
X175000000Y-106000000D03*
D24*
X100730000Y-41020000D03*
D25*
X103269999Y-41019999D03*
D11*
X109400000Y-79000000D03*
X107325000Y-79000000D03*
D26*
X130000000Y-40462500D03*
X130000000Y-42537500D03*
D27*
X126949999Y-38999999D03*
X125049999Y-38999999D03*
X125999999Y-41999999D03*
D28*
X132000000Y-42500000D03*
X132000000Y-40500000D03*
D15*
X151000000Y-49000000D03*
D13*
X115500000Y-81600000D03*
X113500000Y-81600000D03*
D14*
X101462500Y-67000000D03*
X103537500Y-67000000D03*
D29*
X119000000Y-40000000D03*
X119000000Y-42000000D03*
D13*
X96000000Y-79000000D03*
X94000000Y-79000000D03*
D14*
X87962500Y-85000000D03*
X90037500Y-85000000D03*
D13*
X96000000Y-85000000D03*
X94000000Y-85000000D03*
D10*
X175000000Y-35000000D03*
D30*
X109000000Y-88000000D03*
X109000000Y-69000000D03*
D31*
X131100000Y-89500000D03*
X114000000Y-89500000D03*
D32*
X94000000Y-87000000D03*
X96000000Y-87000000D03*
D13*
X105250000Y-101250000D03*
X103250000Y-101250000D03*
D29*
X109000000Y-75000000D03*
X109000000Y-77000000D03*
D20*
X112779999Y-41699999D03*
D21*
X110499999Y-47999999D03*
D20*
X108219999Y-41699999D03*
D33*
X117300000Y-73762500D03*
X117300000Y-70637500D03*
D31*
X131100000Y-69000000D03*
X114000000Y-69000000D03*
D34*
X134232499Y-81249999D03*
X134232499Y-77249999D03*
D26*
X85000000Y-82962500D03*
X85000000Y-85037500D03*
D24*
X135730000Y-41020000D03*
D25*
X138269999Y-41019999D03*
D35*
X93999999Y-62299999D03*
D36*
X95499999Y-59049999D03*
D35*
X96999999Y-62299999D03*
D32*
X130000000Y-38500000D03*
X132000000Y-38500000D03*
D37*
X85000000Y-78000000D03*
D38*
X87540000Y-75460000D03*
X82460000Y-75460000D03*
X87540000Y-80540000D03*
X82460000Y-80540000D03*
D26*
X116500000Y-39962500D03*
X116500000Y-42037500D03*
D39*
X90000000Y-62550000D03*
X90000000Y-57450000D03*
D40*
X134500000Y-72750000D03*
X134500000Y-85750000D03*
X167500000Y-85750000D03*
X167500000Y-72750000D03*
D22*
X96700000Y-66500000D03*
X90300000Y-66500000D03*
D28*
X101000000Y-71000000D03*
X101000000Y-69000000D03*
D33*
X117400000Y-87762500D03*
X117400000Y-84637500D03*
D13*
X123000000Y-42000000D03*
X121000000Y-42000000D03*
D37*
X175000000Y-72800000D03*
D38*
X172460000Y-75340000D03*
X177540000Y-75340000D03*
X172460000Y-70260000D03*
X177540000Y-70260000D03*
D41*
X81500000Y-111500000D03*
X177500000Y-116500000D03*
X92000000Y-128000000D03*
X81500000Y-96500000D03*
X143500000Y-65000000D03*
X167000000Y-108500000D03*
X121500000Y-56500000D03*
X152500000Y-82500000D03*
X116500000Y-46500000D03*
X87000000Y-96500000D03*
X177500000Y-46500000D03*
X158000000Y-69000000D03*
X81500000Y-91500000D03*
X142000000Y-128000000D03*
X106500000Y-91500000D03*
X92000000Y-101500000D03*
X172000000Y-128000000D03*
X96500000Y-31500000D03*
X116500000Y-56500000D03*
X105000000Y-71500000D03*
X147000000Y-96500000D03*
X132000000Y-101500000D03*
X97000000Y-96500000D03*
X87000000Y-101500000D03*
X81500000Y-61500000D03*
X96000000Y-42000000D03*
X143500000Y-69000000D03*
X142000000Y-108500000D03*
X152000000Y-108500000D03*
X136500000Y-56500000D03*
X142000000Y-72500000D03*
X121500000Y-31500000D03*
X177500000Y-51500000D03*
X156500000Y-78500000D03*
X157000000Y-128000000D03*
X177000000Y-128000000D03*
X87000000Y-66500000D03*
X157000000Y-108500000D03*
X157000000Y-31500000D03*
X117000000Y-108500000D03*
X92000000Y-108500000D03*
X158000000Y-61000000D03*
X82000000Y-128000000D03*
X102000000Y-108500000D03*
X86500000Y-31500000D03*
X98000000Y-51000000D03*
X139500000Y-86500000D03*
X95500000Y-47500000D03*
X155000000Y-80000000D03*
X153500000Y-81000000D03*
X91000000Y-49000000D03*
X158000000Y-63000000D03*
X143500000Y-86500000D03*
X137000000Y-108500000D03*
X151000000Y-84000000D03*
X106500000Y-83500000D03*
X147000000Y-31500000D03*
X177500000Y-66500000D03*
X157000000Y-91500000D03*
X92000000Y-96500000D03*
X89000000Y-42000000D03*
X106500000Y-80500000D03*
X106500000Y-86500000D03*
X87000000Y-71500000D03*
X141500000Y-51500000D03*
X132000000Y-128000000D03*
X161500000Y-31500000D03*
X98000000Y-45500000D03*
X171500000Y-31500000D03*
X81500000Y-71500000D03*
X168000000Y-91500000D03*
X112000000Y-96500000D03*
X81500000Y-46500000D03*
X173000000Y-66500000D03*
X141500000Y-56500000D03*
X87000000Y-128000000D03*
X92500000Y-50500000D03*
X137000000Y-96500000D03*
X97000000Y-128000000D03*
X81500000Y-116500000D03*
X177500000Y-41500000D03*
X177500000Y-96500000D03*
X112000000Y-101500000D03*
X145500000Y-86500000D03*
X142000000Y-96500000D03*
X106500000Y-89000000D03*
X97000000Y-108500000D03*
X107000000Y-108500000D03*
X147000000Y-128000000D03*
X126500000Y-31500000D03*
X177500000Y-56500000D03*
X147000000Y-91500000D03*
X177500000Y-101500000D03*
X95500000Y-50500000D03*
X116500000Y-51500000D03*
X177500000Y-121500000D03*
X81500000Y-36500000D03*
X147000000Y-108500000D03*
X137000000Y-128000000D03*
X116500000Y-31500000D03*
X157500000Y-77000000D03*
X87000000Y-56500000D03*
X162500000Y-46500000D03*
X167500000Y-41500000D03*
X131500000Y-31500000D03*
X177500000Y-81500000D03*
X94000000Y-46000000D03*
X105000000Y-61500000D03*
X143500000Y-67000000D03*
X177500000Y-61500000D03*
X105000000Y-56500000D03*
X168000000Y-66500000D03*
X88000000Y-48500000D03*
X117000000Y-128000000D03*
X101500000Y-31500000D03*
X91500000Y-31500000D03*
X162000000Y-108500000D03*
X92500000Y-42000000D03*
X91000000Y-46000000D03*
X131500000Y-56500000D03*
X112000000Y-108500000D03*
X147500000Y-86500000D03*
X136500000Y-46500000D03*
X177500000Y-111500000D03*
X117000000Y-101500000D03*
X158000000Y-67000000D03*
X143500000Y-71500000D03*
X163000000Y-91500000D03*
X166500000Y-31500000D03*
X107000000Y-101500000D03*
X105000000Y-66500000D03*
X81500000Y-66500000D03*
X81500000Y-101500000D03*
X149500000Y-85500000D03*
X163000000Y-66500000D03*
X177500000Y-86500000D03*
X139500000Y-72500000D03*
X172500000Y-41500000D03*
X173000000Y-91500000D03*
X132000000Y-108500000D03*
X162000000Y-128000000D03*
X177500000Y-91500000D03*
X107000000Y-128000000D03*
X88000000Y-45500000D03*
X152500000Y-31500000D03*
X162500000Y-56500000D03*
X81500000Y-51500000D03*
X152000000Y-128000000D03*
X158000000Y-65000000D03*
X158000000Y-75000000D03*
X81500000Y-121500000D03*
X167000000Y-128000000D03*
X102000000Y-128000000D03*
X126500000Y-56500000D03*
X94000000Y-49000000D03*
X141500000Y-31500000D03*
X81500000Y-56500000D03*
X106500000Y-31500000D03*
X81500000Y-86500000D03*
X141500000Y-46500000D03*
X121500000Y-46500000D03*
X143500000Y-63000000D03*
X162500000Y-51500000D03*
X81500000Y-31500000D03*
X136500000Y-31500000D03*
X92500000Y-47500000D03*
X143500000Y-59000000D03*
X158000000Y-73000000D03*
X112000000Y-128000000D03*
X158000000Y-59000000D03*
X126500000Y-46500000D03*
X98000000Y-48500000D03*
X87000000Y-61500000D03*
X117000000Y-96500000D03*
X141500000Y-86500000D03*
X131500000Y-46500000D03*
X143500000Y-61000000D03*
X111500000Y-31500000D03*
X132000000Y-96500000D03*
X163000000Y-61500000D03*
X81500000Y-41500000D03*
X158000000Y-71000000D03*
X152000000Y-91500000D03*
X162500000Y-41500000D03*
X177500000Y-106500000D03*
D42*
X85000000Y-78000000D02*
X85000000Y-82962500D01*
D43*
X85000000Y-85037500D02*
X85000000Y-90000000D01*
D44*
X126950000Y-39000000D02*
X129500000Y-39000000D01*
X130000000Y-40462500D02*
X130000000Y-38500000D01*
X129500000Y-39000000D02*
X130000000Y-38500000D01*
D43*
X88000000Y-85037500D02*
X87962500Y-85000000D01*
X88000000Y-90000000D02*
X88000000Y-85037500D01*
X90037500Y-85000000D02*
X94000000Y-85000000D01*
D44*
X116500000Y-42037500D02*
X113117500Y-42037500D01*
X121000000Y-42000000D02*
X119000000Y-42000000D01*
X116537500Y-42000000D02*
X116500000Y-42037500D01*
X119000000Y-42000000D02*
X116537500Y-42000000D01*
X113117500Y-42037500D02*
X112780000Y-41700000D01*
X116500000Y-39962500D02*
X117537500Y-39962500D01*
X117537500Y-39962500D02*
X118962500Y-39962500D01*
D42*
X144000000Y-35000000D02*
X151000000Y-42000000D01*
X108220000Y-37280000D02*
X110500000Y-35000000D01*
X151000000Y-42000000D02*
X151000000Y-49000000D01*
X119500000Y-35000000D02*
X119500000Y-38000000D01*
D44*
X118962500Y-39962500D02*
X119000000Y-40000000D01*
D42*
X110500000Y-35000000D02*
X144000000Y-35000000D01*
X119500000Y-38000000D02*
X117537500Y-39962500D01*
X108220000Y-41700000D02*
X108220000Y-37280000D01*
X100500000Y-41250000D02*
X100500000Y-44500000D01*
X100730000Y-41020000D02*
X100500000Y-41250000D01*
X85500000Y-51000000D02*
X88700000Y-54200000D01*
X99210000Y-39500000D02*
X87500000Y-39500000D01*
D44*
X101000000Y-45000000D02*
X100500000Y-44500000D01*
D42*
X99775000Y-40065000D02*
X100730000Y-41020000D01*
X102250000Y-46250000D02*
X104000000Y-48000000D01*
X100500000Y-44500000D02*
X102250000Y-46250000D01*
X99775000Y-35000000D02*
X99775000Y-40065000D01*
X85500000Y-41500000D02*
X85500000Y-51000000D01*
D44*
X101000000Y-69000000D02*
X101000000Y-45000000D01*
D42*
X104000000Y-48000000D02*
X110500000Y-48000000D01*
X88700000Y-54200000D02*
X90720000Y-54200000D01*
X100730000Y-41020000D02*
X99210000Y-39500000D01*
X87500000Y-39500000D02*
X85500000Y-41500000D01*
D43*
X101750000Y-95250000D02*
X107750000Y-95250000D01*
X96000000Y-87000000D02*
X96000000Y-89500000D01*
X96000000Y-85000000D02*
X96000000Y-83000000D01*
X96000000Y-85000000D02*
X96000000Y-87000000D01*
X96000000Y-89500000D02*
X101750000Y-95250000D01*
X96000000Y-83000000D02*
X96000000Y-81037500D01*
X96000000Y-81037500D02*
X96037500Y-81000000D01*
X94000000Y-81037500D02*
X93962500Y-81000000D01*
X94000000Y-83000000D02*
X94000000Y-81037500D01*
X93962500Y-79037500D02*
X94000000Y-79000000D01*
X93962500Y-81000000D02*
X93962500Y-79037500D01*
D44*
X103250000Y-101250000D02*
X101750000Y-101250000D01*
X101750000Y-101250000D02*
X101250000Y-101750000D01*
X100750000Y-101250000D02*
X101250000Y-101750000D01*
X99537500Y-101250000D02*
X100750000Y-101250000D01*
X95280000Y-58830000D02*
X95500000Y-59050000D01*
X90250000Y-62300000D02*
X90000000Y-62550000D01*
X95280000Y-54200000D02*
X95280000Y-58830000D01*
X94000000Y-62300000D02*
X94000000Y-60550000D01*
X94000000Y-62300000D02*
X90250000Y-62300000D01*
X94000000Y-60550000D02*
X95500000Y-59050000D01*
D42*
X96700000Y-66500000D02*
X96700000Y-71500000D01*
D43*
X109400000Y-79000000D02*
X112500000Y-79000000D01*
X105000000Y-77000000D02*
X104500000Y-76500000D01*
X96700000Y-75200000D02*
X96700000Y-71500000D01*
D42*
X96700000Y-66500000D02*
X96700000Y-62600000D01*
D43*
X98000000Y-76500000D02*
X96700000Y-75200000D01*
D42*
X96700000Y-62600000D02*
X97000000Y-62300000D01*
D43*
X109400000Y-79000000D02*
X109400000Y-77400000D01*
X109400000Y-77400000D02*
X109000000Y-77000000D01*
X109000000Y-77000000D02*
X105000000Y-77000000D01*
X104500000Y-76500000D02*
X98000000Y-76500000D01*
X117300000Y-75900000D02*
X117900000Y-76500000D01*
X115500000Y-75900000D02*
X117300000Y-75900000D01*
D42*
X117300000Y-70637500D02*
X115637500Y-70637500D01*
X115637500Y-70637500D02*
X114000000Y-69000000D01*
X115737500Y-87762500D02*
X114000000Y-89500000D01*
X117400000Y-87762500D02*
X115737500Y-87762500D01*
D43*
X117600000Y-81600000D02*
X117900000Y-81900000D01*
X117400000Y-82400000D02*
X117900000Y-81900000D01*
X115500000Y-81600000D02*
X117600000Y-81600000D01*
X109000000Y-75000000D02*
X109000000Y-69000000D01*
D44*
X133210000Y-38500000D02*
X135730000Y-41020000D01*
X132000000Y-38500000D02*
X133210000Y-38500000D01*
X132000000Y-38500000D02*
X132000000Y-40500000D01*
D45*
X167550000Y-72800000D02*
X167500000Y-72750000D01*
X167500000Y-72750000D02*
X174950000Y-72750000D01*
X174950000Y-72750000D02*
X175000000Y-72800000D01*
D44*
X126000000Y-42000000D02*
X123000000Y-42000000D01*
X101250000Y-84250000D02*
X101500000Y-84000000D01*
X101250000Y-88750000D02*
X101250000Y-84250000D01*
D42*
X131100000Y-69000000D02*
X131100000Y-72900000D01*
X131100000Y-89500000D02*
X131100000Y-85850000D01*
D46*
X130050020Y-73949980D02*
X130050020Y-76149980D01*
X131250000Y-72750000D02*
X130050020Y-73949980D01*
D42*
X131100000Y-72900000D02*
X130050020Y-73949980D01*
D46*
X131000000Y-85750000D02*
X130300020Y-85050020D01*
D42*
X131100000Y-85850000D02*
X130300020Y-85050020D01*
D46*
X134500000Y-85750000D02*
X131000000Y-85750000D01*
X134500000Y-72750000D02*
X131250000Y-72750000D01*
X130300020Y-85050020D02*
X130300020Y-82500020D01*
D44*
X101000000Y-71000000D02*
X101000000Y-73000000D01*
D43*
X96000000Y-79000000D02*
X101500000Y-79000000D01*
X113500000Y-74500000D02*
X112500000Y-73500000D01*
X113500000Y-75900000D02*
X113500000Y-74500000D01*
X113500000Y-83000000D02*
X112500000Y-84000000D01*
X113500000Y-81600000D02*
X113500000Y-83000000D01*
G04 #@! TA.AperFunction,Conductor*
G36*
X179936500Y-30017381D02*
G01*
X179982619Y-30063500D01*
X179999500Y-30126500D01*
X179999500Y-70874000D01*
X179982619Y-70937000D01*
X179936500Y-70983119D01*
X179873500Y-71000000D01*
X176022847Y-71000000D01*
X175978605Y-70991977D01*
X172010612Y-69503979D01*
X172010609Y-69503978D01*
X172000000Y-69500000D01*
X162500000Y-69500000D01*
X162491227Y-69508772D01*
X162491224Y-69508775D01*
X162008775Y-69991224D01*
X162008772Y-69991227D01*
X162000000Y-70000000D01*
X162000000Y-75500000D01*
X162500000Y-76000000D01*
X171992273Y-76000000D01*
X172000000Y-76000000D01*
X175984952Y-75003762D01*
X176015511Y-75000000D01*
X179873500Y-75000000D01*
X179936500Y-75016881D01*
X179982619Y-75063000D01*
X179999500Y-75126000D01*
X179999500Y-129873500D01*
X179982619Y-129936500D01*
X179936500Y-129982619D01*
X179873500Y-129999500D01*
X129126500Y-129999500D01*
X129063500Y-129982619D01*
X129017381Y-129936500D01*
X129000500Y-129873500D01*
X129000500Y-93126000D01*
X129017381Y-93063000D01*
X129063500Y-93016881D01*
X129126500Y-93000000D01*
X137487590Y-93000000D01*
X137500000Y-93000000D01*
X139000000Y-91500000D01*
X139000000Y-69500000D01*
X139000000Y-67000000D01*
X137500000Y-65500000D01*
X137487590Y-65500000D01*
X129126500Y-65500000D01*
X129063500Y-65483119D01*
X129017381Y-65437000D01*
X129000500Y-65374000D01*
X129000500Y-60012222D01*
X129000500Y-60000099D01*
X129000541Y-60000000D01*
X129000383Y-59999617D01*
X129000099Y-59999500D01*
X129000000Y-59999459D01*
X128999901Y-59999500D01*
X119500099Y-59999500D01*
X119500000Y-59999459D01*
X119499901Y-59999500D01*
X119499617Y-59999617D01*
X119499459Y-60000000D01*
X119499500Y-60000099D01*
X119499500Y-60012222D01*
X119499500Y-73712929D01*
X119486923Y-73767803D01*
X119451703Y-73811723D01*
X119400871Y-73835920D01*
X119359453Y-73835658D01*
X119359201Y-73838011D01*
X119301988Y-73831860D01*
X119301985Y-73831859D01*
X119298638Y-73831500D01*
X119295269Y-73831500D01*
X118834500Y-73831500D01*
X118771500Y-73814619D01*
X118725381Y-73768500D01*
X118708500Y-73705500D01*
X118708499Y-73302661D01*
X118708499Y-73299456D01*
X118697887Y-73195574D01*
X118694335Y-73184856D01*
X118644422Y-73034225D01*
X118642115Y-73027262D01*
X118549030Y-72876348D01*
X118536905Y-72864223D01*
X118509591Y-72823346D01*
X118500000Y-72775128D01*
X118500000Y-71624872D01*
X118509591Y-71576654D01*
X118536905Y-71535777D01*
X118536905Y-71535776D01*
X118549030Y-71523652D01*
X118642115Y-71372738D01*
X118697887Y-71204426D01*
X118708500Y-71100545D01*
X118708499Y-70174456D01*
X118697887Y-70070574D01*
X118642115Y-69902262D01*
X118549030Y-69751348D01*
X118536905Y-69739223D01*
X118509591Y-69698346D01*
X118500000Y-69650128D01*
X118500000Y-66512410D01*
X118500000Y-66500000D01*
X117500000Y-65500000D01*
X106500000Y-65500000D01*
X106500000Y-65516590D01*
X106500000Y-75865500D01*
X106483119Y-75928500D01*
X106437000Y-75974619D01*
X106374000Y-75991500D01*
X105469924Y-75991500D01*
X105421706Y-75981909D01*
X105380829Y-75954595D01*
X105252532Y-75826298D01*
X105244238Y-75817148D01*
X105216568Y-75783432D01*
X105063004Y-75657405D01*
X104887804Y-75563759D01*
X104885315Y-75563004D01*
X104881889Y-75561964D01*
X104881885Y-75561963D01*
X104703629Y-75507889D01*
X104703626Y-75507888D01*
X104697701Y-75506091D01*
X104691542Y-75505484D01*
X104691535Y-75505483D01*
X104506163Y-75487227D01*
X104500000Y-75486620D01*
X104493837Y-75487227D01*
X104493836Y-75487227D01*
X104456612Y-75490893D01*
X104444263Y-75491500D01*
X103097753Y-75491500D01*
X103038688Y-75476798D01*
X102993406Y-75436124D01*
X102972475Y-75378969D01*
X102980779Y-75318670D01*
X103016380Y-75269300D01*
X103070970Y-75242379D01*
X103221705Y-75209589D01*
X103420700Y-75124374D01*
X103599971Y-75003040D01*
X103753040Y-74849971D01*
X103874374Y-74670700D01*
X103959589Y-74471705D01*
X104005603Y-74260180D01*
X104008500Y-74211550D01*
X104008500Y-72788450D01*
X104005603Y-72739820D01*
X103959589Y-72528295D01*
X103874374Y-72329300D01*
X103753040Y-72150029D01*
X103599971Y-71996960D01*
X103420700Y-71875626D01*
X103415193Y-71873268D01*
X103415190Y-71873266D01*
X103227221Y-71792773D01*
X103227220Y-71792772D01*
X103221705Y-71790411D01*
X103215847Y-71789136D01*
X103215842Y-71789135D01*
X103014935Y-71745431D01*
X103014930Y-71745430D01*
X103010180Y-71744397D01*
X103005322Y-71744107D01*
X103005318Y-71744107D01*
X102963413Y-71741610D01*
X102963380Y-71741609D01*
X102961550Y-71741500D01*
X102959684Y-71741500D01*
X102293819Y-71741500D01*
X102236453Y-71727684D01*
X102191668Y-71689264D01*
X102169286Y-71634668D01*
X102174214Y-71575868D01*
X102191516Y-71523652D01*
X102197887Y-71504426D01*
X102208500Y-71400545D01*
X102208499Y-70599456D01*
X102197887Y-70495574D01*
X102142115Y-70327262D01*
X102049030Y-70176348D01*
X101961777Y-70089095D01*
X101929165Y-70032611D01*
X101929165Y-69967389D01*
X101961777Y-69910905D01*
X101976664Y-69896018D01*
X102049030Y-69823652D01*
X102142115Y-69672738D01*
X102197887Y-69504426D01*
X102208500Y-69400545D01*
X102208499Y-68599456D01*
X102197887Y-68495574D01*
X102164895Y-68396009D01*
X102158500Y-68356377D01*
X102158500Y-68215380D01*
X102174476Y-68153974D01*
X102218353Y-68108139D01*
X102273652Y-68074030D01*
X102399030Y-67948652D01*
X102492115Y-67797738D01*
X102547887Y-67629426D01*
X102558500Y-67525545D01*
X102558499Y-66474456D01*
X102547887Y-66370574D01*
X102492115Y-66202262D01*
X102399030Y-66051348D01*
X102273652Y-65925970D01*
X102218352Y-65891860D01*
X102174476Y-65846026D01*
X102158500Y-65784620D01*
X102158500Y-54433759D01*
X102170936Y-54379177D01*
X102205788Y-54335370D01*
X103806586Y-53054731D01*
X104465486Y-52527610D01*
X104502491Y-52507103D01*
X104544198Y-52500000D01*
X114487590Y-52500000D01*
X114500000Y-52500000D01*
X115500000Y-51500000D01*
X115500000Y-43500000D01*
X113656684Y-43500000D01*
X113590084Y-43480960D01*
X113543612Y-43429594D01*
X113531313Y-43361426D01*
X113556904Y-43297058D01*
X113612652Y-43255944D01*
X113617761Y-43254038D01*
X113617760Y-43254038D01*
X113626204Y-43250889D01*
X113665953Y-43221132D01*
X113701673Y-43202448D01*
X113741464Y-43196000D01*
X116470309Y-43196000D01*
X116476128Y-43196134D01*
X116553733Y-43199722D01*
X116559510Y-43198916D01*
X116559512Y-43198916D01*
X116630660Y-43188991D01*
X116636420Y-43188321D01*
X116713786Y-43181153D01*
X116731283Y-43176173D01*
X116748350Y-43172573D01*
X116766376Y-43170059D01*
X116781375Y-43165031D01*
X116821416Y-43158500D01*
X118946440Y-43158500D01*
X119053560Y-43158500D01*
X120356377Y-43158500D01*
X120396009Y-43164895D01*
X120403533Y-43167388D01*
X120495574Y-43197887D01*
X120599455Y-43208500D01*
X121400544Y-43208499D01*
X121504426Y-43197887D01*
X121672738Y-43142115D01*
X121823652Y-43049030D01*
X121910905Y-42961776D01*
X121967389Y-42929165D01*
X122032611Y-42929165D01*
X122089095Y-42961776D01*
X122176348Y-43049030D01*
X122192838Y-43059201D01*
X122321018Y-43138264D01*
X122321020Y-43138265D01*
X122327262Y-43142115D01*
X122495574Y-43197887D01*
X122599455Y-43208500D01*
X123400544Y-43208499D01*
X123504426Y-43197887D01*
X123593990Y-43168209D01*
X123603991Y-43164895D01*
X123643623Y-43158500D01*
X125057815Y-43158500D01*
X125114215Y-43171828D01*
X125158683Y-43208991D01*
X125228301Y-43301989D01*
X125236739Y-43313261D01*
X125243950Y-43318659D01*
X125343766Y-43393381D01*
X125353796Y-43400889D01*
X125490799Y-43451989D01*
X125551362Y-43458500D01*
X126445269Y-43458500D01*
X126448638Y-43458500D01*
X126509201Y-43451989D01*
X126646204Y-43400889D01*
X126763261Y-43313261D01*
X126850889Y-43196204D01*
X126901989Y-43059201D01*
X126908500Y-42998638D01*
X126908500Y-42768919D01*
X126915032Y-42728876D01*
X126929359Y-42701697D01*
X126928464Y-42701143D01*
X126976538Y-42623500D01*
X127041489Y-42518600D01*
X127119049Y-42318397D01*
X127158500Y-42107351D01*
X127158500Y-41892649D01*
X127119049Y-41681603D01*
X127108692Y-41654870D01*
X127080287Y-41581549D01*
X127041489Y-41481400D01*
X126928464Y-41298857D01*
X126929359Y-41298302D01*
X126915032Y-41271124D01*
X126908500Y-41231081D01*
X126908500Y-41004731D01*
X126908500Y-41001362D01*
X126901989Y-40940799D01*
X126850889Y-40803796D01*
X126841928Y-40791826D01*
X126768659Y-40693950D01*
X126763261Y-40686739D01*
X126756049Y-40681340D01*
X126749675Y-40674966D01*
X126751541Y-40673099D01*
X126722321Y-40636832D01*
X126711261Y-40575503D01*
X126730944Y-40516374D01*
X126776556Y-40473911D01*
X126836939Y-40458500D01*
X127395269Y-40458500D01*
X127398638Y-40458500D01*
X127459201Y-40451989D01*
X127596204Y-40400889D01*
X127713261Y-40313261D01*
X127791316Y-40208991D01*
X127835785Y-40171828D01*
X127892185Y-40158500D01*
X128640500Y-40158500D01*
X128703500Y-40175381D01*
X128749619Y-40221500D01*
X128766500Y-40284500D01*
X128766500Y-40847338D01*
X128766500Y-40847357D01*
X128766501Y-40850544D01*
X128766825Y-40853721D01*
X128766826Y-40853729D01*
X128775720Y-40940799D01*
X128777113Y-40954426D01*
X128779272Y-40960943D01*
X128779274Y-40960950D01*
X128830577Y-41115774D01*
X128832885Y-41122738D01*
X128836732Y-41128976D01*
X128836735Y-41128981D01*
X128912228Y-41251373D01*
X128925970Y-41273652D01*
X129051348Y-41399030D01*
X129069323Y-41410117D01*
X129196018Y-41488264D01*
X129196020Y-41488265D01*
X129202262Y-41492115D01*
X129370574Y-41547887D01*
X129474455Y-41558500D01*
X129598551Y-41558499D01*
X129644070Y-41567008D01*
X129681603Y-41581549D01*
X129892649Y-41621000D01*
X130101523Y-41621000D01*
X130107351Y-41621000D01*
X130318397Y-41581549D01*
X130355930Y-41567007D01*
X130401448Y-41558499D01*
X130522338Y-41558499D01*
X130525544Y-41558499D01*
X130629426Y-41547887D01*
X130797738Y-41492115D01*
X130911915Y-41421689D01*
X130964645Y-41403647D01*
X131020003Y-41410117D01*
X131067154Y-41439836D01*
X131076348Y-41449030D01*
X131082596Y-41452883D01*
X131082595Y-41452883D01*
X131221018Y-41538264D01*
X131221020Y-41538265D01*
X131227262Y-41542115D01*
X131395574Y-41597887D01*
X131499455Y-41608500D01*
X131630815Y-41608499D01*
X131670409Y-41615901D01*
X131670566Y-41615350D01*
X131676173Y-41616945D01*
X131681603Y-41619049D01*
X131892649Y-41658500D01*
X132101523Y-41658500D01*
X132107351Y-41658500D01*
X132318397Y-41619049D01*
X132323827Y-41616945D01*
X132329434Y-41615350D01*
X132329590Y-41615900D01*
X132369184Y-41608499D01*
X132497338Y-41608499D01*
X132500544Y-41608499D01*
X132604426Y-41597887D01*
X132772738Y-41542115D01*
X132923652Y-41449030D01*
X133049030Y-41323652D01*
X133142115Y-41172738D01*
X133197887Y-41004426D01*
X133208500Y-40900545D01*
X133208499Y-40441054D01*
X133222232Y-40383853D01*
X133260438Y-40339120D01*
X133314788Y-40316607D01*
X133373435Y-40321223D01*
X133423594Y-40351961D01*
X134314595Y-41242962D01*
X134341909Y-41283839D01*
X134351500Y-41332057D01*
X134351500Y-41912338D01*
X134351500Y-41912357D01*
X134351501Y-41915544D01*
X134351825Y-41918721D01*
X134351826Y-41918729D01*
X134360648Y-42005093D01*
X134362113Y-42019426D01*
X134364272Y-42025943D01*
X134364274Y-42025950D01*
X134393145Y-42113077D01*
X134417885Y-42187738D01*
X134421732Y-42193976D01*
X134421735Y-42193981D01*
X134507116Y-42332404D01*
X134510970Y-42338652D01*
X134636348Y-42464030D01*
X134642596Y-42467883D01*
X134642595Y-42467883D01*
X134781018Y-42553264D01*
X134781020Y-42553265D01*
X134787262Y-42557115D01*
X134955574Y-42612887D01*
X135059455Y-42623500D01*
X136400544Y-42623499D01*
X136504426Y-42612887D01*
X136672738Y-42557115D01*
X136823652Y-42464030D01*
X136949030Y-42338652D01*
X137042115Y-42187738D01*
X137097887Y-42019426D01*
X137108500Y-41915545D01*
X137108499Y-40124456D01*
X137097887Y-40020574D01*
X137042115Y-39852262D01*
X136949030Y-39701348D01*
X136823652Y-39575970D01*
X136816032Y-39571270D01*
X136678981Y-39486735D01*
X136678976Y-39486732D01*
X136672738Y-39482885D01*
X136665776Y-39480578D01*
X136665774Y-39480577D01*
X136510951Y-39429275D01*
X136510949Y-39429274D01*
X136504426Y-39427113D01*
X136497589Y-39426414D01*
X136497587Y-39426414D01*
X136403729Y-39416825D01*
X136403723Y-39416824D01*
X136400545Y-39416500D01*
X136397340Y-39416500D01*
X135817057Y-39416500D01*
X135768839Y-39406909D01*
X135727962Y-39379595D01*
X134050176Y-37701809D01*
X134046156Y-37697600D01*
X133997745Y-37644495D01*
X133997742Y-37644492D01*
X133993820Y-37640190D01*
X133989173Y-37636681D01*
X133989170Y-37636678D01*
X133931835Y-37593382D01*
X133927271Y-37589767D01*
X133871995Y-37543866D01*
X133871993Y-37543865D01*
X133867515Y-37540146D01*
X133862426Y-37537311D01*
X133862424Y-37537310D01*
X133851618Y-37531291D01*
X133837004Y-37521769D01*
X133822484Y-37510804D01*
X133817275Y-37508210D01*
X133817265Y-37508204D01*
X133752940Y-37476174D01*
X133747804Y-37473467D01*
X133679947Y-37435671D01*
X133674430Y-37433821D01*
X133674417Y-37433816D01*
X133662687Y-37429885D01*
X133646573Y-37423210D01*
X133635509Y-37417701D01*
X133635507Y-37417700D01*
X133630291Y-37415103D01*
X133624687Y-37413508D01*
X133624686Y-37413508D01*
X133555583Y-37393846D01*
X133550025Y-37392125D01*
X133481895Y-37369290D01*
X133481887Y-37369288D01*
X133476376Y-37367441D01*
X133458356Y-37364927D01*
X133441286Y-37361326D01*
X133429397Y-37357943D01*
X133429392Y-37357942D01*
X133423786Y-37356347D01*
X133417984Y-37355809D01*
X133417977Y-37355808D01*
X133346456Y-37349180D01*
X133340678Y-37348510D01*
X133269506Y-37338583D01*
X133269503Y-37338582D01*
X133263733Y-37337778D01*
X133257913Y-37338047D01*
X133186128Y-37341366D01*
X133180309Y-37341500D01*
X132643623Y-37341500D01*
X132603991Y-37335105D01*
X132510951Y-37304275D01*
X132510949Y-37304274D01*
X132504426Y-37302113D01*
X132497589Y-37301414D01*
X132497587Y-37301414D01*
X132403729Y-37291825D01*
X132403723Y-37291824D01*
X132400545Y-37291500D01*
X132397339Y-37291500D01*
X131602661Y-37291500D01*
X131602641Y-37291500D01*
X131599456Y-37291501D01*
X131596279Y-37291825D01*
X131596270Y-37291826D01*
X131502411Y-37301414D01*
X131502405Y-37301415D01*
X131495574Y-37302113D01*
X131489058Y-37304271D01*
X131489049Y-37304274D01*
X131334225Y-37355577D01*
X131334219Y-37355579D01*
X131327262Y-37357885D01*
X131321026Y-37361730D01*
X131321018Y-37361735D01*
X131182595Y-37447116D01*
X131182590Y-37447119D01*
X131176348Y-37450970D01*
X131171158Y-37456159D01*
X131171154Y-37456163D01*
X131089095Y-37538223D01*
X131032611Y-37570835D01*
X130967389Y-37570835D01*
X130910905Y-37538223D01*
X130828845Y-37456163D01*
X130828845Y-37456162D01*
X130823652Y-37450970D01*
X130817404Y-37447116D01*
X130678981Y-37361735D01*
X130678976Y-37361732D01*
X130672738Y-37357885D01*
X130665776Y-37355578D01*
X130665774Y-37355577D01*
X130510951Y-37304275D01*
X130510949Y-37304274D01*
X130504426Y-37302113D01*
X130497589Y-37301414D01*
X130497587Y-37301414D01*
X130403729Y-37291825D01*
X130403723Y-37291824D01*
X130400545Y-37291500D01*
X130397339Y-37291500D01*
X129602661Y-37291500D01*
X129602641Y-37291500D01*
X129599456Y-37291501D01*
X129596279Y-37291825D01*
X129596270Y-37291826D01*
X129502411Y-37301414D01*
X129502405Y-37301415D01*
X129495574Y-37302113D01*
X129489058Y-37304271D01*
X129489049Y-37304274D01*
X129334225Y-37355577D01*
X129334219Y-37355579D01*
X129327262Y-37357885D01*
X129321026Y-37361730D01*
X129321018Y-37361735D01*
X129182595Y-37447116D01*
X129182590Y-37447119D01*
X129176348Y-37450970D01*
X129171158Y-37456159D01*
X129171154Y-37456163D01*
X129056163Y-37571154D01*
X129056159Y-37571158D01*
X129050970Y-37576348D01*
X129047119Y-37582590D01*
X129047116Y-37582595D01*
X128961735Y-37721018D01*
X128961730Y-37721026D01*
X128957885Y-37727262D01*
X128955579Y-37734219D01*
X128955577Y-37734225D01*
X128948650Y-37755132D01*
X128922354Y-37800173D01*
X128880071Y-37830706D01*
X128829045Y-37841500D01*
X127892185Y-37841500D01*
X127835785Y-37828172D01*
X127791317Y-37791009D01*
X127718659Y-37693950D01*
X127713261Y-37686739D01*
X127706049Y-37681340D01*
X127603417Y-37604510D01*
X127603414Y-37604508D01*
X127596204Y-37599111D01*
X127587766Y-37595964D01*
X127587763Y-37595962D01*
X127466580Y-37550763D01*
X127466578Y-37550762D01*
X127459201Y-37548011D01*
X127451373Y-37547169D01*
X127451367Y-37547168D01*
X127401988Y-37541860D01*
X127401985Y-37541859D01*
X127398638Y-37541500D01*
X126501362Y-37541500D01*
X126498015Y-37541859D01*
X126498011Y-37541860D01*
X126448632Y-37547168D01*
X126448625Y-37547169D01*
X126440799Y-37548011D01*
X126433423Y-37550761D01*
X126433419Y-37550763D01*
X126312236Y-37595962D01*
X126312230Y-37595965D01*
X126303796Y-37599111D01*
X126296588Y-37604506D01*
X126296582Y-37604510D01*
X126193950Y-37681340D01*
X126193946Y-37681343D01*
X126186739Y-37686739D01*
X126181343Y-37693946D01*
X126181340Y-37693950D01*
X126104510Y-37796582D01*
X126104506Y-37796588D01*
X126099111Y-37803796D01*
X126095965Y-37812230D01*
X126095962Y-37812236D01*
X126050763Y-37933419D01*
X126050761Y-37933423D01*
X126048011Y-37940799D01*
X126047169Y-37948625D01*
X126047168Y-37948632D01*
X126041860Y-37998011D01*
X126041500Y-38001362D01*
X126041500Y-38004731D01*
X126041500Y-38231081D01*
X126034968Y-38271124D01*
X126020640Y-38298302D01*
X126021536Y-38298857D01*
X125911576Y-38476449D01*
X125911573Y-38476453D01*
X125908511Y-38481400D01*
X125906408Y-38486826D01*
X125906406Y-38486832D01*
X125833055Y-38676169D01*
X125833051Y-38676180D01*
X125830951Y-38681603D01*
X125829882Y-38687316D01*
X125829880Y-38687327D01*
X125792570Y-38886922D01*
X125792569Y-38886927D01*
X125791500Y-38892649D01*
X125791500Y-39107351D01*
X125792569Y-39113073D01*
X125792570Y-39113077D01*
X125829880Y-39312672D01*
X125829882Y-39312680D01*
X125830951Y-39318397D01*
X125833052Y-39323822D01*
X125833055Y-39323830D01*
X125902239Y-39502411D01*
X125908511Y-39518600D01*
X125943095Y-39574455D01*
X126021536Y-39701143D01*
X126020640Y-39701697D01*
X126034968Y-39728876D01*
X126041500Y-39768919D01*
X126041500Y-39998638D01*
X126041859Y-40001985D01*
X126041860Y-40001988D01*
X126047168Y-40051367D01*
X126047169Y-40051373D01*
X126048011Y-40059201D01*
X126050762Y-40066578D01*
X126050763Y-40066580D01*
X126095962Y-40187763D01*
X126095964Y-40187766D01*
X126099111Y-40196204D01*
X126104508Y-40203414D01*
X126104510Y-40203417D01*
X126181340Y-40306049D01*
X126186739Y-40313261D01*
X126193950Y-40318659D01*
X126200325Y-40325034D01*
X126198458Y-40326900D01*
X126227679Y-40363168D01*
X126238739Y-40424497D01*
X126219056Y-40483626D01*
X126173444Y-40526089D01*
X126113061Y-40541500D01*
X125551362Y-40541500D01*
X125548015Y-40541859D01*
X125548011Y-40541860D01*
X125498632Y-40547168D01*
X125498625Y-40547169D01*
X125490799Y-40548011D01*
X125483423Y-40550761D01*
X125483419Y-40550763D01*
X125362236Y-40595962D01*
X125362230Y-40595965D01*
X125353796Y-40599111D01*
X125346588Y-40604506D01*
X125346582Y-40604510D01*
X125243950Y-40681340D01*
X125243946Y-40681343D01*
X125236739Y-40686739D01*
X125231343Y-40693946D01*
X125231340Y-40693950D01*
X125158683Y-40791009D01*
X125114215Y-40828172D01*
X125057815Y-40841500D01*
X123643623Y-40841500D01*
X123603991Y-40835105D01*
X123510951Y-40804275D01*
X123510949Y-40804274D01*
X123504426Y-40802113D01*
X123497589Y-40801414D01*
X123497587Y-40801414D01*
X123403729Y-40791825D01*
X123403723Y-40791824D01*
X123400545Y-40791500D01*
X123397339Y-40791500D01*
X122602661Y-40791500D01*
X122602641Y-40791500D01*
X122599456Y-40791501D01*
X122596279Y-40791825D01*
X122596270Y-40791826D01*
X122502411Y-40801414D01*
X122502405Y-40801415D01*
X122495574Y-40802113D01*
X122489058Y-40804271D01*
X122489049Y-40804274D01*
X122334225Y-40855577D01*
X122334219Y-40855579D01*
X122327262Y-40857885D01*
X122321026Y-40861730D01*
X122321018Y-40861735D01*
X122182595Y-40947116D01*
X122182590Y-40947119D01*
X122176348Y-40950970D01*
X122171158Y-40956159D01*
X122171154Y-40956163D01*
X122089095Y-41038223D01*
X122032611Y-41070835D01*
X121967389Y-41070835D01*
X121910905Y-41038223D01*
X121828845Y-40956163D01*
X121823652Y-40950970D01*
X121813798Y-40944892D01*
X121678981Y-40861735D01*
X121678976Y-40861732D01*
X121672738Y-40857885D01*
X121665776Y-40855578D01*
X121665774Y-40855577D01*
X121510951Y-40804275D01*
X121510949Y-40804274D01*
X121504426Y-40802113D01*
X121497589Y-40801414D01*
X121497587Y-40801414D01*
X121403729Y-40791825D01*
X121403723Y-40791824D01*
X121400545Y-40791500D01*
X121397339Y-40791500D01*
X120602661Y-40791500D01*
X120602641Y-40791500D01*
X120599456Y-40791501D01*
X120596279Y-40791825D01*
X120596270Y-40791826D01*
X120502411Y-40801414D01*
X120502405Y-40801415D01*
X120495574Y-40802113D01*
X120489058Y-40804271D01*
X120489049Y-40804274D01*
X120396009Y-40835105D01*
X120356377Y-40841500D01*
X120260260Y-40841500D01*
X120199652Y-40825966D01*
X120153989Y-40783193D01*
X120134529Y-40723729D01*
X120143984Y-40673357D01*
X120142115Y-40672738D01*
X120158683Y-40622738D01*
X120197887Y-40504426D01*
X120208500Y-40400545D01*
X120208499Y-39599456D01*
X120197887Y-39495574D01*
X120142115Y-39327262D01*
X120140412Y-39324501D01*
X120129202Y-39277205D01*
X120138051Y-39227019D01*
X120166054Y-39184443D01*
X120465644Y-38884854D01*
X120465645Y-38884851D01*
X120506198Y-38844300D01*
X120535946Y-38801813D01*
X120542620Y-38793115D01*
X120575955Y-38753391D01*
X120601886Y-38708474D01*
X120607769Y-38699240D01*
X120637523Y-38656749D01*
X120659440Y-38609745D01*
X120664511Y-38600005D01*
X120687685Y-38559867D01*
X120690433Y-38555108D01*
X120708169Y-38506376D01*
X120712366Y-38496244D01*
X120734284Y-38449243D01*
X120747709Y-38399135D01*
X120750996Y-38388710D01*
X120768742Y-38339959D01*
X120777748Y-38288880D01*
X120780119Y-38278182D01*
X120793543Y-38228087D01*
X120798062Y-38176418D01*
X120799491Y-38165560D01*
X120808500Y-38114479D01*
X120808500Y-37885521D01*
X120808500Y-36434500D01*
X120825381Y-36371500D01*
X120871500Y-36325381D01*
X120934500Y-36308500D01*
X143405812Y-36308500D01*
X143454030Y-36318091D01*
X143494907Y-36345405D01*
X149434407Y-42284905D01*
X149465145Y-42335064D01*
X149469761Y-42393711D01*
X149447248Y-42448061D01*
X149402515Y-42486267D01*
X149345312Y-42500000D01*
X144500000Y-42500000D01*
X144500000Y-54500000D01*
X156983410Y-54500000D01*
X157000000Y-54500000D01*
X157000000Y-42500000D01*
X156983410Y-42500000D01*
X152434500Y-42500000D01*
X152371500Y-42483119D01*
X152325381Y-42437000D01*
X152308500Y-42374000D01*
X152308500Y-41891021D01*
X152308500Y-41885521D01*
X152299496Y-41834466D01*
X152298061Y-41823564D01*
X152294022Y-41777392D01*
X152293543Y-41771913D01*
X152280122Y-41721827D01*
X152277746Y-41711109D01*
X152268742Y-41660041D01*
X152251005Y-41611312D01*
X152247700Y-41600828D01*
X152246333Y-41595725D01*
X152234284Y-41550757D01*
X152212363Y-41503747D01*
X152208165Y-41493610D01*
X152193341Y-41452883D01*
X152190433Y-41444892D01*
X152164512Y-41399995D01*
X152159439Y-41390250D01*
X152139848Y-41348238D01*
X152137523Y-41343251D01*
X152127572Y-41329040D01*
X152107783Y-41300778D01*
X152101876Y-41291506D01*
X152090564Y-41271913D01*
X152075955Y-41246609D01*
X152042627Y-41206890D01*
X152035937Y-41198172D01*
X152009354Y-41160207D01*
X152009352Y-41160205D01*
X152006198Y-41155700D01*
X151844300Y-40993802D01*
X144884857Y-34034359D01*
X144884854Y-34034355D01*
X144848190Y-33997691D01*
X144848184Y-33997686D01*
X144844300Y-33993802D01*
X144839793Y-33990646D01*
X144801826Y-33964061D01*
X144793106Y-33957370D01*
X144757607Y-33927583D01*
X144753391Y-33924045D01*
X144708482Y-33898116D01*
X144699229Y-33892222D01*
X144656749Y-33862477D01*
X144609751Y-33840561D01*
X144600007Y-33835489D01*
X144559871Y-33812317D01*
X144559872Y-33812317D01*
X144555108Y-33809567D01*
X144549945Y-33807687D01*
X144549935Y-33807683D01*
X144506376Y-33791828D01*
X144496227Y-33787624D01*
X144482129Y-33781050D01*
X144449243Y-33765716D01*
X144443932Y-33764293D01*
X144443927Y-33764291D01*
X144399169Y-33752298D01*
X144388689Y-33748994D01*
X144361151Y-33738971D01*
X144339959Y-33731258D01*
X144334544Y-33730303D01*
X144334540Y-33730302D01*
X144288887Y-33722252D01*
X144278158Y-33719873D01*
X144233394Y-33707879D01*
X144228087Y-33706457D01*
X144222618Y-33705978D01*
X144222615Y-33705978D01*
X144176436Y-33701938D01*
X144165539Y-33700503D01*
X144119900Y-33692455D01*
X144119890Y-33692454D01*
X144114479Y-33691500D01*
X144108975Y-33691500D01*
X119562634Y-33691500D01*
X119551652Y-33691021D01*
X119505475Y-33686981D01*
X119500000Y-33686502D01*
X119494525Y-33686981D01*
X119448348Y-33691021D01*
X119437366Y-33691500D01*
X110614479Y-33691500D01*
X110385521Y-33691500D01*
X110380110Y-33692453D01*
X110380099Y-33692455D01*
X110334461Y-33700503D01*
X110323564Y-33701938D01*
X110277384Y-33705978D01*
X110277380Y-33705978D01*
X110271913Y-33706457D01*
X110266614Y-33707876D01*
X110266601Y-33707879D01*
X110221839Y-33719873D01*
X110211112Y-33722251D01*
X110165464Y-33730300D01*
X110165445Y-33730305D01*
X110160041Y-33731258D01*
X110154875Y-33733138D01*
X110154872Y-33733139D01*
X110111312Y-33748993D01*
X110100834Y-33752297D01*
X110078451Y-33758295D01*
X110050757Y-33765716D01*
X110045776Y-33768038D01*
X110045772Y-33768040D01*
X110003754Y-33787632D01*
X109993608Y-33791834D01*
X109944892Y-33809567D01*
X109899980Y-33835495D01*
X109890254Y-33840558D01*
X109869241Y-33850356D01*
X109848234Y-33860153D01*
X109848231Y-33860154D01*
X109843251Y-33862477D01*
X109838751Y-33865627D01*
X109838742Y-33865633D01*
X109800774Y-33892218D01*
X109791508Y-33898121D01*
X109751372Y-33921294D01*
X109751363Y-33921299D01*
X109746609Y-33924045D01*
X109742408Y-33927569D01*
X109742398Y-33927577D01*
X109706888Y-33957374D01*
X109698172Y-33964061D01*
X109655700Y-33993802D01*
X109651813Y-33997688D01*
X109651808Y-33997693D01*
X107375697Y-36273804D01*
X107375698Y-36273804D01*
X107213802Y-36435700D01*
X107210651Y-36440198D01*
X107210650Y-36440201D01*
X107184063Y-36478171D01*
X107177374Y-36486888D01*
X107147577Y-36522398D01*
X107147569Y-36522408D01*
X107144045Y-36526609D01*
X107141299Y-36531363D01*
X107141294Y-36531372D01*
X107118121Y-36571508D01*
X107112218Y-36580774D01*
X107085633Y-36618742D01*
X107085627Y-36618751D01*
X107082477Y-36623251D01*
X107080154Y-36628231D01*
X107080153Y-36628234D01*
X107060561Y-36670249D01*
X107055495Y-36679980D01*
X107029567Y-36724892D01*
X107027686Y-36730060D01*
X107011835Y-36773607D01*
X107007632Y-36783754D01*
X106988040Y-36825772D01*
X106985716Y-36830757D01*
X106984293Y-36836069D01*
X106972297Y-36880834D01*
X106968993Y-36891312D01*
X106953139Y-36934872D01*
X106951258Y-36940041D01*
X106950305Y-36945445D01*
X106950300Y-36945464D01*
X106942251Y-36991112D01*
X106939873Y-37001839D01*
X106927879Y-37046601D01*
X106927876Y-37046614D01*
X106926457Y-37051913D01*
X106925978Y-37057380D01*
X106925978Y-37057384D01*
X106921938Y-37103564D01*
X106920503Y-37114461D01*
X106912455Y-37160099D01*
X106912453Y-37160110D01*
X106911500Y-37165521D01*
X106911500Y-37222873D01*
X106911500Y-41757127D01*
X106911737Y-41759844D01*
X106911738Y-41759850D01*
X106925359Y-41915545D01*
X106926457Y-41928087D01*
X106985716Y-42149243D01*
X106988038Y-42154223D01*
X106988039Y-42154225D01*
X107048976Y-42284905D01*
X107082477Y-42356749D01*
X107085633Y-42361256D01*
X107085637Y-42361263D01*
X107088713Y-42365656D01*
X107105668Y-42400037D01*
X107111500Y-42437926D01*
X107111500Y-42848638D01*
X107111859Y-42851985D01*
X107111860Y-42851988D01*
X107117168Y-42901367D01*
X107117169Y-42901373D01*
X107118011Y-42909201D01*
X107120762Y-42916578D01*
X107120763Y-42916580D01*
X107165962Y-43037763D01*
X107165964Y-43037766D01*
X107169111Y-43046204D01*
X107174508Y-43053414D01*
X107174510Y-43053417D01*
X107178840Y-43059201D01*
X107256739Y-43163261D01*
X107268183Y-43171828D01*
X107316735Y-43208174D01*
X107373796Y-43250889D01*
X107382236Y-43254037D01*
X107382238Y-43254038D01*
X107387348Y-43255944D01*
X107443096Y-43297058D01*
X107468687Y-43361426D01*
X107456388Y-43429594D01*
X107409916Y-43480960D01*
X107343316Y-43500000D01*
X102000000Y-43500000D01*
X102000000Y-43504445D01*
X101978222Y-43510280D01*
X101973436Y-43513214D01*
X101914789Y-43517830D01*
X101860439Y-43495317D01*
X101822233Y-43450584D01*
X101808500Y-43393381D01*
X101808500Y-42531372D01*
X101818091Y-42483154D01*
X101845405Y-42442277D01*
X101893971Y-42393711D01*
X101949030Y-42338652D01*
X102042115Y-42187738D01*
X102097887Y-42019426D01*
X102108500Y-41915545D01*
X102108499Y-40124456D01*
X102097887Y-40020574D01*
X102042115Y-39852262D01*
X101949030Y-39701348D01*
X101823652Y-39575970D01*
X101816032Y-39571270D01*
X101678981Y-39486735D01*
X101678976Y-39486732D01*
X101672738Y-39482885D01*
X101665776Y-39480578D01*
X101665774Y-39480577D01*
X101510951Y-39429275D01*
X101510949Y-39429274D01*
X101504426Y-39427113D01*
X101497589Y-39426414D01*
X101497587Y-39426414D01*
X101403729Y-39416825D01*
X101403723Y-39416824D01*
X101400545Y-39416500D01*
X101397340Y-39416500D01*
X101209500Y-39416500D01*
X101146500Y-39399619D01*
X101100381Y-39353500D01*
X101083500Y-39290500D01*
X101083500Y-34945613D01*
X101083500Y-34942873D01*
X101068543Y-34771913D01*
X101009284Y-34550757D01*
X100945303Y-34413550D01*
X100933499Y-34360301D01*
X100933499Y-33502662D01*
X100933499Y-33502661D01*
X100933499Y-33499456D01*
X100922887Y-33395574D01*
X100867115Y-33227262D01*
X100774030Y-33076348D01*
X100648652Y-32950970D01*
X100642404Y-32947116D01*
X100503981Y-32861735D01*
X100503976Y-32861732D01*
X100497738Y-32857885D01*
X100490776Y-32855578D01*
X100490774Y-32855577D01*
X100335951Y-32804275D01*
X100335949Y-32804274D01*
X100329426Y-32802113D01*
X100322589Y-32801414D01*
X100322587Y-32801414D01*
X100228729Y-32791825D01*
X100228723Y-32791824D01*
X100225545Y-32791500D01*
X100222339Y-32791500D01*
X99327661Y-32791500D01*
X99327641Y-32791500D01*
X99324456Y-32791501D01*
X99321279Y-32791825D01*
X99321270Y-32791826D01*
X99227411Y-32801414D01*
X99227405Y-32801415D01*
X99220574Y-32802113D01*
X99214058Y-32804271D01*
X99214049Y-32804274D01*
X99059225Y-32855577D01*
X99059219Y-32855579D01*
X99052262Y-32857885D01*
X99046026Y-32861730D01*
X99046018Y-32861735D01*
X98907595Y-32947116D01*
X98907590Y-32947119D01*
X98901348Y-32950970D01*
X98896158Y-32956159D01*
X98896154Y-32956163D01*
X98781163Y-33071154D01*
X98781159Y-33071158D01*
X98775970Y-33076348D01*
X98772119Y-33082590D01*
X98772116Y-33082595D01*
X98686735Y-33221018D01*
X98686730Y-33221026D01*
X98682885Y-33227262D01*
X98680579Y-33234219D01*
X98680577Y-33234225D01*
X98629275Y-33389048D01*
X98627113Y-33395574D01*
X98616500Y-33499455D01*
X98616500Y-33502661D01*
X98616500Y-34360302D01*
X98604694Y-34413551D01*
X98540716Y-34550757D01*
X98539295Y-34556059D01*
X98539291Y-34556071D01*
X98482881Y-34766598D01*
X98481457Y-34771913D01*
X98480978Y-34777386D01*
X98480977Y-34777393D01*
X98466738Y-34940149D01*
X98466500Y-34942873D01*
X98466500Y-34945613D01*
X98466500Y-38065500D01*
X98449619Y-38128500D01*
X98403500Y-38174619D01*
X98340500Y-38191500D01*
X87614479Y-38191500D01*
X87385521Y-38191500D01*
X87380110Y-38192453D01*
X87380099Y-38192455D01*
X87334461Y-38200503D01*
X87323564Y-38201938D01*
X87277384Y-38205978D01*
X87277380Y-38205978D01*
X87271913Y-38206457D01*
X87266614Y-38207876D01*
X87266601Y-38207879D01*
X87221839Y-38219873D01*
X87211112Y-38222251D01*
X87165464Y-38230300D01*
X87165445Y-38230305D01*
X87160041Y-38231258D01*
X87154875Y-38233138D01*
X87154872Y-38233139D01*
X87111312Y-38248993D01*
X87100834Y-38252297D01*
X87078451Y-38258295D01*
X87050757Y-38265716D01*
X87045776Y-38268038D01*
X87045772Y-38268040D01*
X87003754Y-38287632D01*
X86993608Y-38291834D01*
X86944892Y-38309567D01*
X86899980Y-38335495D01*
X86890254Y-38340558D01*
X86880457Y-38345127D01*
X86848234Y-38360153D01*
X86848231Y-38360154D01*
X86843251Y-38362477D01*
X86838751Y-38365627D01*
X86838742Y-38365633D01*
X86800774Y-38392218D01*
X86791508Y-38398121D01*
X86751372Y-38421294D01*
X86751363Y-38421299D01*
X86746609Y-38424045D01*
X86742408Y-38427569D01*
X86742398Y-38427577D01*
X86706888Y-38457374D01*
X86698171Y-38464063D01*
X86673412Y-38481400D01*
X86655700Y-38493802D01*
X86651813Y-38497688D01*
X86651808Y-38497693D01*
X84655697Y-40493804D01*
X84655698Y-40493804D01*
X84493802Y-40655700D01*
X84490651Y-40660198D01*
X84490650Y-40660201D01*
X84464063Y-40698171D01*
X84457374Y-40706888D01*
X84427577Y-40742398D01*
X84427569Y-40742408D01*
X84424045Y-40746609D01*
X84421299Y-40751363D01*
X84421294Y-40751372D01*
X84398121Y-40791508D01*
X84392218Y-40800774D01*
X84365633Y-40838742D01*
X84365627Y-40838751D01*
X84362477Y-40843251D01*
X84345807Y-40879000D01*
X84340561Y-40890249D01*
X84335495Y-40899980D01*
X84309567Y-40944892D01*
X84303722Y-40960950D01*
X84291835Y-40993607D01*
X84287632Y-41003754D01*
X84271560Y-41038223D01*
X84265716Y-41050757D01*
X84264293Y-41056069D01*
X84252297Y-41100834D01*
X84248993Y-41111312D01*
X84234254Y-41151809D01*
X84231258Y-41160041D01*
X84230305Y-41165445D01*
X84230300Y-41165464D01*
X84222251Y-41211112D01*
X84219873Y-41221839D01*
X84207879Y-41266601D01*
X84207876Y-41266614D01*
X84206457Y-41271913D01*
X84205978Y-41277380D01*
X84205978Y-41277384D01*
X84201938Y-41323564D01*
X84200503Y-41334461D01*
X84192455Y-41380099D01*
X84192453Y-41380110D01*
X84191500Y-41385521D01*
X84191500Y-41442873D01*
X84191500Y-50885521D01*
X84191500Y-51114479D01*
X84192454Y-51119890D01*
X84192455Y-51119900D01*
X84200503Y-51165539D01*
X84201938Y-51176436D01*
X84206457Y-51228087D01*
X84207879Y-51233394D01*
X84219873Y-51278158D01*
X84222252Y-51288887D01*
X84231258Y-51339959D01*
X84233140Y-51345129D01*
X84248994Y-51388689D01*
X84252298Y-51399169D01*
X84264291Y-51443927D01*
X84264293Y-51443932D01*
X84265716Y-51449243D01*
X84281050Y-51482129D01*
X84287624Y-51496227D01*
X84291828Y-51506376D01*
X84307683Y-51549935D01*
X84307687Y-51549945D01*
X84309567Y-51555108D01*
X84312317Y-51559871D01*
X84335489Y-51600007D01*
X84340562Y-51609754D01*
X84362477Y-51656749D01*
X84365633Y-51661256D01*
X84392218Y-51699223D01*
X84398116Y-51708482D01*
X84424045Y-51753391D01*
X84427583Y-51757607D01*
X84457370Y-51793106D01*
X84464061Y-51801826D01*
X84493802Y-51844300D01*
X84534356Y-51884854D01*
X87815145Y-55165644D01*
X87815151Y-55165649D01*
X87855700Y-55206198D01*
X87860217Y-55209360D01*
X87860216Y-55209360D01*
X87898168Y-55235935D01*
X87906887Y-55242624D01*
X87946609Y-55275955D01*
X87989138Y-55300508D01*
X87991506Y-55301876D01*
X88000778Y-55307783D01*
X88043251Y-55337523D01*
X88080957Y-55355105D01*
X88090250Y-55359439D01*
X88099995Y-55364512D01*
X88144892Y-55390433D01*
X88193614Y-55408166D01*
X88203747Y-55412363D01*
X88250757Y-55434284D01*
X88300828Y-55447700D01*
X88311312Y-55451005D01*
X88360041Y-55468742D01*
X88411104Y-55477745D01*
X88421837Y-55480124D01*
X88471913Y-55493543D01*
X88523573Y-55498062D01*
X88534454Y-55499494D01*
X88585521Y-55508499D01*
X88642851Y-55508499D01*
X88642865Y-55508499D01*
X88642873Y-55508500D01*
X89577815Y-55508500D01*
X89634215Y-55521828D01*
X89678683Y-55558991D01*
X89756739Y-55663261D01*
X89873796Y-55750889D01*
X90010799Y-55801989D01*
X90071362Y-55808500D01*
X91365269Y-55808500D01*
X91368638Y-55808500D01*
X91429201Y-55801989D01*
X91566204Y-55750889D01*
X91683261Y-55663261D01*
X91770889Y-55546204D01*
X91821989Y-55409201D01*
X91828500Y-55348638D01*
X91828500Y-54937926D01*
X91834332Y-54900037D01*
X91851287Y-54865656D01*
X91854362Y-54861263D01*
X91857523Y-54856749D01*
X91954284Y-54649243D01*
X92013543Y-54428087D01*
X92033498Y-54200000D01*
X92013543Y-53971913D01*
X91954284Y-53750757D01*
X91857523Y-53543251D01*
X91854362Y-53538736D01*
X91851287Y-53534344D01*
X91834332Y-53499963D01*
X91828500Y-53462074D01*
X91828500Y-53054731D01*
X91828500Y-53051362D01*
X91821989Y-52990799D01*
X91770889Y-52853796D01*
X91683261Y-52736739D01*
X91676049Y-52731340D01*
X91573417Y-52654510D01*
X91573414Y-52654508D01*
X91566204Y-52649111D01*
X91557766Y-52645964D01*
X91557763Y-52645962D01*
X91436580Y-52600763D01*
X91436578Y-52600762D01*
X91429201Y-52598011D01*
X91421373Y-52597169D01*
X91421367Y-52597168D01*
X91371988Y-52591860D01*
X91371985Y-52591859D01*
X91368638Y-52591500D01*
X90071362Y-52591500D01*
X90068015Y-52591859D01*
X90068011Y-52591860D01*
X90018632Y-52597168D01*
X90018625Y-52597169D01*
X90010799Y-52598011D01*
X90003423Y-52600761D01*
X90003419Y-52600763D01*
X89882236Y-52645962D01*
X89882230Y-52645965D01*
X89873796Y-52649111D01*
X89866588Y-52654506D01*
X89866582Y-52654510D01*
X89763950Y-52731340D01*
X89763946Y-52731343D01*
X89756739Y-52736739D01*
X89751343Y-52743946D01*
X89751340Y-52743950D01*
X89678683Y-52841009D01*
X89634215Y-52878172D01*
X89577815Y-52891500D01*
X89294189Y-52891500D01*
X89245971Y-52881909D01*
X89205094Y-52854595D01*
X86845405Y-50494907D01*
X86818091Y-50454030D01*
X86808500Y-50405812D01*
X86808500Y-42094188D01*
X86818091Y-42045970D01*
X86845405Y-42005093D01*
X88005093Y-40845405D01*
X88045970Y-40818091D01*
X88094188Y-40808500D01*
X98615812Y-40808500D01*
X98664030Y-40818091D01*
X98704907Y-40845405D01*
X99154595Y-41295093D01*
X99181909Y-41335970D01*
X99191500Y-41384188D01*
X99191500Y-44385521D01*
X99191500Y-44614479D01*
X99192454Y-44619890D01*
X99192455Y-44619900D01*
X99200503Y-44665539D01*
X99201938Y-44676436D01*
X99206457Y-44728087D01*
X99207879Y-44733394D01*
X99219873Y-44778158D01*
X99222252Y-44788887D01*
X99231258Y-44839959D01*
X99233140Y-44845129D01*
X99248994Y-44888689D01*
X99252298Y-44899169D01*
X99264291Y-44943927D01*
X99264293Y-44943932D01*
X99265716Y-44949243D01*
X99281050Y-44982129D01*
X99287624Y-44996227D01*
X99291828Y-45006376D01*
X99307683Y-45049935D01*
X99307687Y-45049945D01*
X99309567Y-45055108D01*
X99312317Y-45059871D01*
X99335489Y-45100007D01*
X99340562Y-45109754D01*
X99362477Y-45156749D01*
X99365633Y-45161256D01*
X99392218Y-45199223D01*
X99398116Y-45208482D01*
X99424045Y-45253391D01*
X99427583Y-45257607D01*
X99457370Y-45293106D01*
X99464061Y-45301826D01*
X99493802Y-45344300D01*
X99534356Y-45384853D01*
X99534356Y-45384854D01*
X99534357Y-45384855D01*
X99804595Y-45655093D01*
X99831909Y-45695970D01*
X99841500Y-45744188D01*
X99841500Y-51866241D01*
X99829064Y-51920823D01*
X99794212Y-51964630D01*
X98548813Y-52960950D01*
X98534514Y-52972389D01*
X98497509Y-52992897D01*
X98455802Y-53000000D01*
X96472904Y-53000000D01*
X96423304Y-52989827D01*
X96381713Y-52960950D01*
X96354848Y-52918032D01*
X96334038Y-52862238D01*
X96334037Y-52862236D01*
X96330889Y-52853796D01*
X96243261Y-52736739D01*
X96236049Y-52731340D01*
X96133417Y-52654510D01*
X96133414Y-52654508D01*
X96126204Y-52649111D01*
X96117766Y-52645964D01*
X96117763Y-52645962D01*
X95996580Y-52600763D01*
X95996578Y-52600762D01*
X95989201Y-52598011D01*
X95981373Y-52597169D01*
X95981367Y-52597168D01*
X95931988Y-52591860D01*
X95931985Y-52591859D01*
X95928638Y-52591500D01*
X94631362Y-52591500D01*
X94628015Y-52591859D01*
X94628011Y-52591860D01*
X94578632Y-52597168D01*
X94578625Y-52597169D01*
X94570799Y-52598011D01*
X94563423Y-52600761D01*
X94563419Y-52600763D01*
X94442236Y-52645962D01*
X94442230Y-52645965D01*
X94433796Y-52649111D01*
X94426588Y-52654506D01*
X94426582Y-52654510D01*
X94323950Y-52731340D01*
X94323946Y-52731343D01*
X94316739Y-52736739D01*
X94311343Y-52743946D01*
X94311340Y-52743950D01*
X94234510Y-52846582D01*
X94234506Y-52846588D01*
X94229111Y-52853796D01*
X94225965Y-52862230D01*
X94225962Y-52862236D01*
X94180763Y-52983419D01*
X94180761Y-52983423D01*
X94178011Y-52990799D01*
X94177169Y-52998625D01*
X94177168Y-52998632D01*
X94171860Y-53048011D01*
X94171500Y-53051362D01*
X94171500Y-53054731D01*
X94171500Y-53845088D01*
X94166690Y-53879570D01*
X94138857Y-53977393D01*
X94136347Y-53986214D01*
X94121500Y-54146440D01*
X94121500Y-54149353D01*
X94121500Y-56915500D01*
X94104619Y-56978500D01*
X94058500Y-57024619D01*
X93995500Y-57041500D01*
X93951362Y-57041500D01*
X93948015Y-57041859D01*
X93948011Y-57041860D01*
X93898632Y-57047168D01*
X93898625Y-57047169D01*
X93890799Y-57048011D01*
X93883423Y-57050761D01*
X93883419Y-57050763D01*
X93762236Y-57095962D01*
X93762230Y-57095965D01*
X93753796Y-57099111D01*
X93746588Y-57104506D01*
X93746582Y-57104510D01*
X93643950Y-57181340D01*
X93643946Y-57181343D01*
X93636739Y-57186739D01*
X93631343Y-57193946D01*
X93631340Y-57193950D01*
X93554510Y-57296582D01*
X93554506Y-57296588D01*
X93549111Y-57303796D01*
X93545965Y-57312230D01*
X93545962Y-57312236D01*
X93500763Y-57433419D01*
X93500761Y-57433423D01*
X93498011Y-57440799D01*
X93497169Y-57448625D01*
X93497168Y-57448632D01*
X93491860Y-57498011D01*
X93491500Y-57501362D01*
X93491500Y-57504731D01*
X93491500Y-59367942D01*
X93481909Y-59416160D01*
X93454595Y-59457038D01*
X93201786Y-59709845D01*
X93197576Y-59713863D01*
X93140190Y-59766180D01*
X93136682Y-59770825D01*
X93136675Y-59770833D01*
X93093384Y-59828159D01*
X93089773Y-59832719D01*
X93043864Y-59888006D01*
X93043858Y-59888014D01*
X93040146Y-59892485D01*
X93037315Y-59897566D01*
X93037311Y-59897573D01*
X93031289Y-59908384D01*
X93021775Y-59922985D01*
X93014316Y-59932862D01*
X93014305Y-59932879D01*
X93010804Y-59937516D01*
X93008210Y-59942724D01*
X93008207Y-59942730D01*
X92976188Y-60007033D01*
X92973475Y-60012181D01*
X92938506Y-60074962D01*
X92938503Y-60074967D01*
X92935671Y-60080053D01*
X92933821Y-60085569D01*
X92933815Y-60085585D01*
X92929885Y-60097311D01*
X92923215Y-60113416D01*
X92917698Y-60124496D01*
X92917695Y-60124501D01*
X92915103Y-60129709D01*
X92913511Y-60135300D01*
X92913506Y-60135316D01*
X92893843Y-60204423D01*
X92892123Y-60209979D01*
X92867441Y-60283624D01*
X92866637Y-60289390D01*
X92864927Y-60301644D01*
X92861328Y-60318702D01*
X92857940Y-60330610D01*
X92857937Y-60330623D01*
X92856347Y-60336214D01*
X92855810Y-60342002D01*
X92855809Y-60342011D01*
X92849180Y-60413542D01*
X92848510Y-60419319D01*
X92838583Y-60490491D01*
X92838582Y-60490498D01*
X92837778Y-60496267D01*
X92838047Y-60502085D01*
X92838047Y-60502086D01*
X92841366Y-60573872D01*
X92841500Y-60579691D01*
X92841500Y-60665500D01*
X92824619Y-60728500D01*
X92778500Y-60774619D01*
X92715500Y-60791500D01*
X92701362Y-60791500D01*
X92698015Y-60791859D01*
X92698011Y-60791860D01*
X92648632Y-60797168D01*
X92648625Y-60797169D01*
X92640799Y-60798011D01*
X92633423Y-60800761D01*
X92633419Y-60800763D01*
X92512236Y-60845962D01*
X92512230Y-60845965D01*
X92503796Y-60849111D01*
X92496588Y-60854506D01*
X92496582Y-60854510D01*
X92393950Y-60931340D01*
X92393946Y-60931343D01*
X92386739Y-60936739D01*
X92381343Y-60943946D01*
X92381340Y-60943950D01*
X92304510Y-61046582D01*
X92304506Y-61046588D01*
X92299111Y-61053796D01*
X92295963Y-61062234D01*
X92291641Y-61070151D01*
X92290659Y-61069615D01*
X92270104Y-61102452D01*
X92228514Y-61131327D01*
X92178915Y-61141500D01*
X91516372Y-61141500D01*
X91468154Y-61131909D01*
X91427277Y-61104595D01*
X91403845Y-61081163D01*
X91403845Y-61081162D01*
X91398652Y-61075970D01*
X91388349Y-61069615D01*
X91253981Y-60986735D01*
X91253976Y-60986732D01*
X91247738Y-60982885D01*
X91240776Y-60980578D01*
X91240774Y-60980577D01*
X91085951Y-60929275D01*
X91085949Y-60929274D01*
X91079426Y-60927113D01*
X91072589Y-60926414D01*
X91072587Y-60926414D01*
X90978729Y-60916825D01*
X90978723Y-60916824D01*
X90975545Y-60916500D01*
X90972339Y-60916500D01*
X89027661Y-60916500D01*
X89027641Y-60916500D01*
X89024456Y-60916501D01*
X89021279Y-60916825D01*
X89021270Y-60916826D01*
X88927411Y-60926414D01*
X88927405Y-60926415D01*
X88920574Y-60927113D01*
X88914058Y-60929271D01*
X88914049Y-60929274D01*
X88759225Y-60980577D01*
X88759219Y-60980579D01*
X88752262Y-60982885D01*
X88746026Y-60986730D01*
X88746018Y-60986735D01*
X88607595Y-61072116D01*
X88607590Y-61072119D01*
X88601348Y-61075970D01*
X88596158Y-61081159D01*
X88596154Y-61081163D01*
X88481163Y-61196154D01*
X88481159Y-61196158D01*
X88475970Y-61201348D01*
X88472119Y-61207590D01*
X88472116Y-61207595D01*
X88386735Y-61346018D01*
X88386730Y-61346026D01*
X88382885Y-61352262D01*
X88380579Y-61359219D01*
X88380577Y-61359225D01*
X88329275Y-61514048D01*
X88327113Y-61520574D01*
X88316500Y-61624455D01*
X88316500Y-61627659D01*
X88316500Y-61627660D01*
X88316500Y-63472338D01*
X88316500Y-63472357D01*
X88316501Y-63475544D01*
X88316825Y-63478721D01*
X88316826Y-63478729D01*
X88326413Y-63572579D01*
X88327113Y-63579426D01*
X88329272Y-63585943D01*
X88329274Y-63585950D01*
X88356681Y-63668659D01*
X88382885Y-63747738D01*
X88386732Y-63753976D01*
X88386735Y-63753981D01*
X88459222Y-63871500D01*
X88475970Y-63898652D01*
X88601348Y-64024030D01*
X88607596Y-64027883D01*
X88607595Y-64027883D01*
X88746018Y-64113264D01*
X88746020Y-64113265D01*
X88752262Y-64117115D01*
X88920574Y-64172887D01*
X89024455Y-64183500D01*
X90975544Y-64183499D01*
X91079426Y-64172887D01*
X91247738Y-64117115D01*
X91398652Y-64024030D01*
X91524030Y-63898652D01*
X91617115Y-63747738D01*
X91672887Y-63579426D01*
X91673587Y-63572579D01*
X91673678Y-63571693D01*
X91673921Y-63571018D01*
X91675027Y-63565855D01*
X91675732Y-63566005D01*
X91694430Y-63514244D01*
X91739764Y-63473306D01*
X91799025Y-63458500D01*
X92178915Y-63458500D01*
X92228514Y-63468673D01*
X92270104Y-63497548D01*
X92290659Y-63530384D01*
X92291641Y-63529849D01*
X92295963Y-63537764D01*
X92299111Y-63546204D01*
X92304508Y-63553414D01*
X92304510Y-63553417D01*
X92328865Y-63585951D01*
X92386739Y-63663261D01*
X92503796Y-63750889D01*
X92640799Y-63801989D01*
X92701362Y-63808500D01*
X94374000Y-63808500D01*
X94437000Y-63825381D01*
X94483119Y-63871500D01*
X94500000Y-63934500D01*
X94500000Y-76000000D01*
X96021576Y-76000000D01*
X96069794Y-76009591D01*
X96110671Y-76036905D01*
X96858671Y-76784905D01*
X96889409Y-76835064D01*
X96894025Y-76893711D01*
X96871512Y-76948061D01*
X96826779Y-76986267D01*
X96769576Y-77000000D01*
X92500000Y-77000000D01*
X92500000Y-77016590D01*
X92500000Y-83374000D01*
X92483119Y-83437000D01*
X92437000Y-83483119D01*
X92374000Y-83500000D01*
X87626000Y-83500000D01*
X87563000Y-83483119D01*
X87516881Y-83437000D01*
X87500000Y-83374000D01*
X87500000Y-76016590D01*
X87500000Y-76000000D01*
X83000000Y-76000000D01*
X83000000Y-93000000D01*
X89483410Y-93000000D01*
X89500000Y-93000000D01*
X89500000Y-91642035D01*
X89500607Y-91629685D01*
X89503152Y-91603847D01*
X89508500Y-91549547D01*
X89508499Y-88450454D01*
X89500607Y-88370319D01*
X89500000Y-88357970D01*
X89500000Y-88060559D01*
X89512436Y-88005977D01*
X89547288Y-87962170D01*
X91660626Y-86271499D01*
X91954861Y-86036110D01*
X91991866Y-86015603D01*
X92033573Y-86008500D01*
X93083628Y-86008500D01*
X93131846Y-86018091D01*
X93164772Y-86040092D01*
X93165406Y-86039291D01*
X93171154Y-86043836D01*
X93176348Y-86049030D01*
X93182596Y-86052883D01*
X93182595Y-86052883D01*
X93321018Y-86138264D01*
X93321020Y-86138265D01*
X93327262Y-86142115D01*
X93495574Y-86197887D01*
X93599455Y-86208500D01*
X94374000Y-86208499D01*
X94437000Y-86225380D01*
X94483119Y-86271499D01*
X94500000Y-86334499D01*
X94500000Y-90500000D01*
X94509155Y-90508816D01*
X94509156Y-90508817D01*
X97078926Y-92983410D01*
X101250000Y-97000000D01*
X110487590Y-97000000D01*
X110500000Y-97000000D01*
X111000000Y-96500000D01*
X111000000Y-95500000D01*
X111000000Y-94000000D01*
X110500000Y-93500000D01*
X110487590Y-93500000D01*
X105052190Y-93500000D01*
X105003972Y-93490409D01*
X104963095Y-93463095D01*
X104036905Y-92536905D01*
X104009591Y-92496028D01*
X104000000Y-92447810D01*
X104000000Y-84799485D01*
X104002880Y-84772702D01*
X104004566Y-84764948D01*
X104004566Y-84764945D01*
X104005603Y-84760180D01*
X104008500Y-84711550D01*
X104008500Y-83288450D01*
X104005603Y-83239820D01*
X104004566Y-83235051D01*
X104002880Y-83227298D01*
X104000000Y-83200515D01*
X104000000Y-79799485D01*
X104002880Y-79772702D01*
X104004566Y-79764948D01*
X104004566Y-79764945D01*
X104005603Y-79760180D01*
X104008500Y-79711550D01*
X104008500Y-78288450D01*
X104005603Y-78239820D01*
X104004566Y-78235051D01*
X104002880Y-78227298D01*
X104000000Y-78200515D01*
X104000000Y-77730424D01*
X104013733Y-77673221D01*
X104051939Y-77628488D01*
X104106289Y-77605975D01*
X104164936Y-77610591D01*
X104215095Y-77641329D01*
X104247462Y-77673696D01*
X104255766Y-77682857D01*
X104283432Y-77716568D01*
X104436996Y-77842595D01*
X104612196Y-77936241D01*
X104634059Y-77942873D01*
X104802299Y-77993909D01*
X105000000Y-78013380D01*
X105006163Y-78012773D01*
X105006164Y-78012773D01*
X105043388Y-78009107D01*
X105055737Y-78008500D01*
X108137030Y-78008500D01*
X108203178Y-78027260D01*
X108221016Y-78038263D01*
X108221020Y-78038264D01*
X108227262Y-78042115D01*
X108284436Y-78061060D01*
X108338928Y-78096900D01*
X108368200Y-78155185D01*
X108364408Y-78220297D01*
X108316775Y-78364047D01*
X108316773Y-78364053D01*
X108314613Y-78370574D01*
X108304000Y-78474455D01*
X108304000Y-78477659D01*
X108304000Y-78477660D01*
X108304000Y-79522338D01*
X108304000Y-79522357D01*
X108304001Y-79525544D01*
X108314613Y-79629426D01*
X108316772Y-79635943D01*
X108316774Y-79635950D01*
X108368077Y-79790774D01*
X108370385Y-79797738D01*
X108374232Y-79803976D01*
X108374235Y-79803981D01*
X108459615Y-79942403D01*
X108459617Y-79942406D01*
X108463470Y-79948652D01*
X108468662Y-79953844D01*
X108472835Y-79959121D01*
X108493015Y-79995904D01*
X108500000Y-80037273D01*
X108500000Y-91500000D01*
X109500000Y-92500000D01*
X117487590Y-92500000D01*
X117500000Y-92500000D01*
X118500000Y-91500000D01*
X118500000Y-88849872D01*
X118509591Y-88801654D01*
X118536905Y-88760777D01*
X118536905Y-88760776D01*
X118649030Y-88648652D01*
X118742115Y-88497738D01*
X118797887Y-88329426D01*
X118808500Y-88225545D01*
X118808499Y-87299456D01*
X118797887Y-87195574D01*
X118742115Y-87027262D01*
X118649030Y-86876348D01*
X118536904Y-86764222D01*
X118509591Y-86723346D01*
X118500000Y-86675128D01*
X118500000Y-85724872D01*
X118509591Y-85676654D01*
X118536905Y-85635777D01*
X118572137Y-85600545D01*
X118649030Y-85523652D01*
X118742115Y-85372738D01*
X118797887Y-85204426D01*
X118808500Y-85100545D01*
X118808499Y-84694499D01*
X118825380Y-84631500D01*
X118871499Y-84585381D01*
X118934499Y-84568500D01*
X119295269Y-84568500D01*
X119298638Y-84568500D01*
X119359201Y-84561989D01*
X119359453Y-84564341D01*
X119400871Y-84564080D01*
X119451703Y-84588277D01*
X119486923Y-84632197D01*
X119499500Y-84687071D01*
X119499500Y-129873500D01*
X119482619Y-129936500D01*
X119436500Y-129982619D01*
X119373500Y-129999500D01*
X80126500Y-129999500D01*
X80063500Y-129982619D01*
X80017381Y-129936500D01*
X80000500Y-129873500D01*
X80000500Y-101357351D01*
X98379000Y-101357351D01*
X98380069Y-101363073D01*
X98380070Y-101363077D01*
X98417380Y-101562672D01*
X98418451Y-101568397D01*
X98420551Y-101573820D01*
X98420553Y-101573824D01*
X98432992Y-101605932D01*
X98441500Y-101651447D01*
X98441500Y-101772337D01*
X98441500Y-101772356D01*
X98441501Y-101775544D01*
X98441825Y-101778720D01*
X98441826Y-101778730D01*
X98450225Y-101860951D01*
X98452113Y-101879426D01*
X98454272Y-101885943D01*
X98454274Y-101885950D01*
X98505577Y-102040774D01*
X98507885Y-102047738D01*
X98511732Y-102053976D01*
X98511735Y-102053981D01*
X98581696Y-102167404D01*
X98600970Y-102198652D01*
X98726348Y-102324030D01*
X98732596Y-102327883D01*
X98732595Y-102327883D01*
X98871018Y-102413264D01*
X98871020Y-102413265D01*
X98877262Y-102417115D01*
X99045574Y-102472887D01*
X99149455Y-102483500D01*
X99615500Y-102483499D01*
X99678500Y-102500380D01*
X99724619Y-102546499D01*
X99741500Y-102609499D01*
X99741500Y-103296452D01*
X99741500Y-103296472D01*
X99741501Y-103299546D01*
X99741803Y-103302617D01*
X99741804Y-103302628D01*
X99755485Y-103441538D01*
X99756092Y-103447701D01*
X99813759Y-103637804D01*
X99907405Y-103813004D01*
X100033432Y-103966568D01*
X100186996Y-104092595D01*
X100362196Y-104186241D01*
X100552299Y-104243908D01*
X100558460Y-104244514D01*
X100558461Y-104244515D01*
X100578427Y-104246481D01*
X100700453Y-104258500D01*
X101799546Y-104258499D01*
X101947701Y-104243908D01*
X102137804Y-104186241D01*
X102313004Y-104092595D01*
X102466568Y-103966568D01*
X102592595Y-103813004D01*
X102686241Y-103637804D01*
X102743908Y-103447701D01*
X102758500Y-103299547D01*
X102758499Y-102584498D01*
X102775380Y-102521499D01*
X102821499Y-102475380D01*
X102884495Y-102458499D01*
X103650544Y-102458499D01*
X103754426Y-102447887D01*
X103922738Y-102392115D01*
X104073652Y-102299030D01*
X104199030Y-102173652D01*
X104292115Y-102022738D01*
X104347887Y-101854426D01*
X104358500Y-101750545D01*
X104358499Y-101619181D01*
X104365902Y-101579589D01*
X104365350Y-101579432D01*
X104366946Y-101573824D01*
X104369049Y-101568397D01*
X104408500Y-101357351D01*
X104408500Y-101142649D01*
X104369049Y-100931603D01*
X104366944Y-100926169D01*
X104365351Y-100920571D01*
X104365901Y-100920414D01*
X104358499Y-100880818D01*
X104358499Y-100752662D01*
X104358499Y-100749456D01*
X104347887Y-100645574D01*
X104292115Y-100477262D01*
X104272843Y-100446018D01*
X104202883Y-100332595D01*
X104199030Y-100326348D01*
X104073652Y-100200970D01*
X104033121Y-100175970D01*
X103928981Y-100111735D01*
X103928976Y-100111732D01*
X103922738Y-100107885D01*
X103915776Y-100105578D01*
X103915774Y-100105577D01*
X103760951Y-100054275D01*
X103760949Y-100054274D01*
X103754426Y-100052113D01*
X103747589Y-100051414D01*
X103747587Y-100051414D01*
X103653729Y-100041825D01*
X103653723Y-100041824D01*
X103650545Y-100041500D01*
X103647339Y-100041500D01*
X102852661Y-100041500D01*
X102852641Y-100041500D01*
X102849456Y-100041501D01*
X102846277Y-100041825D01*
X102843058Y-100041990D01*
X102843017Y-100041204D01*
X102790250Y-100034418D01*
X102742491Y-100002631D01*
X102713775Y-99952964D01*
X102705922Y-99927077D01*
X102686241Y-99862196D01*
X102592595Y-99686996D01*
X102466568Y-99533432D01*
X102313004Y-99407405D01*
X102137804Y-99313759D01*
X102122845Y-99309221D01*
X101953623Y-99257888D01*
X101953619Y-99257887D01*
X101947701Y-99256092D01*
X101941547Y-99255485D01*
X101941538Y-99255484D01*
X101802627Y-99241803D01*
X101802619Y-99241802D01*
X101799547Y-99241500D01*
X101796454Y-99241500D01*
X100703547Y-99241500D01*
X100703526Y-99241500D01*
X100700454Y-99241501D01*
X100697383Y-99241803D01*
X100697371Y-99241804D01*
X100558461Y-99255485D01*
X100558459Y-99255485D01*
X100552299Y-99256092D01*
X100546379Y-99257887D01*
X100546378Y-99257888D01*
X100368119Y-99311962D01*
X100368116Y-99311963D01*
X100362196Y-99313759D01*
X100356738Y-99316676D01*
X100356734Y-99316678D01*
X100192454Y-99404487D01*
X100192449Y-99404490D01*
X100186996Y-99407405D01*
X100182217Y-99411326D01*
X100182211Y-99411331D01*
X100038211Y-99529509D01*
X100038205Y-99529514D01*
X100033432Y-99533432D01*
X100029514Y-99538205D01*
X100029509Y-99538211D01*
X99911331Y-99682211D01*
X99911326Y-99682217D01*
X99907405Y-99686996D01*
X99904490Y-99692449D01*
X99904487Y-99692454D01*
X99816676Y-99856737D01*
X99816672Y-99856744D01*
X99813759Y-99862196D01*
X99811965Y-99868109D01*
X99811962Y-99868117D01*
X99794077Y-99927077D01*
X99768234Y-99973578D01*
X99725504Y-100005269D01*
X99673503Y-100016500D01*
X99152661Y-100016500D01*
X99152641Y-100016500D01*
X99149456Y-100016501D01*
X99146279Y-100016825D01*
X99146270Y-100016826D01*
X99052411Y-100026414D01*
X99052405Y-100026415D01*
X99045574Y-100027113D01*
X99039058Y-100029271D01*
X99039049Y-100029274D01*
X98884225Y-100080577D01*
X98884219Y-100080579D01*
X98877262Y-100082885D01*
X98871026Y-100086730D01*
X98871018Y-100086735D01*
X98732595Y-100172116D01*
X98732590Y-100172119D01*
X98726348Y-100175970D01*
X98721158Y-100181159D01*
X98721154Y-100181163D01*
X98606163Y-100296154D01*
X98606159Y-100296158D01*
X98600970Y-100301348D01*
X98597119Y-100307590D01*
X98597116Y-100307595D01*
X98511735Y-100446018D01*
X98511730Y-100446026D01*
X98507885Y-100452262D01*
X98505579Y-100459219D01*
X98505577Y-100459225D01*
X98454275Y-100614048D01*
X98452113Y-100620574D01*
X98451414Y-100627408D01*
X98451414Y-100627412D01*
X98448860Y-100652411D01*
X98441500Y-100724455D01*
X98441500Y-100727661D01*
X98441500Y-100848554D01*
X98432991Y-100894071D01*
X98420555Y-100926169D01*
X98420551Y-100926180D01*
X98418451Y-100931603D01*
X98417382Y-100937316D01*
X98417380Y-100937327D01*
X98380070Y-101136922D01*
X98380069Y-101136927D01*
X98379000Y-101142649D01*
X98379000Y-101357351D01*
X80000500Y-101357351D01*
X80000500Y-30126500D01*
X80017381Y-30063500D01*
X80063500Y-30017381D01*
X80126500Y-30000500D01*
X179873500Y-30000500D01*
X179936500Y-30017381D01*
G37*
G04 #@! TD.AperFunction*
M02*
