G04 #@! TF.GenerationSoftware,KiCad,Pcbnew,(7.0.0)*
G04 #@! TF.CreationDate,2023-03-31T08:32:28+02:00*
G04 #@! TF.ProjectId,Ampli_0_5W,416d706c-695f-4305-9f35-572e6b696361,rev?*
G04 #@! TF.SameCoordinates,Original*
G04 #@! TF.FileFunction,Paste,Bot*
G04 #@! TF.FilePolarity,Positive*
%FSLAX46Y46*%
G04 Gerber Fmt 4.6, Leading zero omitted, Abs format (unit mm)*
G04 Created by KiCad (PCBNEW (7.0.0)) date 2023-03-31 08:32:28*
%MOMM*%
%LPD*%
G01*
G04 APERTURE LIST*
G04 Aperture macros list*
%AMRoundRect*
0 Rectangle with rounded corners*
0 $1 Rounding radius*
0 $2 $3 $4 $5 $6 $7 $8 $9 X,Y pos of 4 corners*
0 Add a 4 corners polygon primitive as box body*
4,1,4,$2,$3,$4,$5,$6,$7,$8,$9,$2,$3,0*
0 Add four circle primitives for the rounded corners*
1,1,$1+$1,$2,$3*
1,1,$1+$1,$4,$5*
1,1,$1+$1,$6,$7*
1,1,$1+$1,$8,$9*
0 Add four rect primitives between the rounded corners*
20,1,$1+$1,$2,$3,$4,$5,0*
20,1,$1+$1,$4,$5,$6,$7,0*
20,1,$1+$1,$6,$7,$8,$9,0*
20,1,$1+$1,$8,$9,$2,$3,0*%
G04 Aperture macros list end*
%ADD10RoundRect,0.250000X1.069499X0.486136X0.486136X1.069499X-1.069499X-0.486136X-0.486136X-1.069499X0*%
%ADD11RoundRect,0.250000X1.100000X-0.412500X1.100000X0.412500X-1.100000X0.412500X-1.100000X-0.412500X0*%
%ADD12RoundRect,0.250000X-1.100000X0.412500X-1.100000X-0.412500X1.100000X-0.412500X1.100000X0.412500X0*%
%ADD13RoundRect,0.250000X0.412500X1.100000X-0.412500X1.100000X-0.412500X-1.100000X0.412500X-1.100000X0*%
%ADD14RoundRect,0.250000X-0.412500X-1.100000X0.412500X-1.100000X0.412500X1.100000X-0.412500X1.100000X0*%
%ADD15RoundRect,0.250000X-1.069499X-0.486136X-0.486136X-1.069499X1.069499X0.486136X0.486136X1.069499X0*%
G04 APERTURE END LIST*
D10*
X149604854Y-82854854D03*
X147395146Y-80645146D03*
D11*
X144250000Y-84812500D03*
X144250000Y-81687500D03*
D12*
X141000000Y-73937500D03*
X141000000Y-77062500D03*
X137750000Y-73937500D03*
X137750000Y-77062500D03*
D13*
X156562500Y-72600000D03*
X153437500Y-72600000D03*
D14*
X145237500Y-62200000D03*
X148362500Y-62200000D03*
D11*
X141000000Y-84812500D03*
X141000000Y-81687500D03*
D13*
X156562500Y-66200000D03*
X153437500Y-66200000D03*
D11*
X137750000Y-84812500D03*
X137750000Y-81687500D03*
D10*
X154304854Y-78104854D03*
X152095146Y-75895146D03*
D14*
X145237500Y-68800000D03*
X148362500Y-68800000D03*
D13*
X156562500Y-69400000D03*
X153437500Y-69400000D03*
D15*
X144395146Y-72895146D03*
X146604854Y-75104854D03*
D14*
X145237500Y-65400000D03*
X148362500Y-65400000D03*
D13*
X156562500Y-63000000D03*
X153437500Y-63000000D03*
D10*
X151854854Y-80604854D03*
X149645146Y-78395146D03*
G36*
X132938000Y-55016613D02*
G01*
X132983387Y-55062000D01*
X133000000Y-55124000D01*
X133000000Y-73876000D01*
X132983387Y-73938000D01*
X132938000Y-73983387D01*
X132876000Y-74000000D01*
X131016326Y-74000000D01*
X131003450Y-74003450D01*
X131000000Y-74016326D01*
X131000000Y-84983674D01*
X131003450Y-84996549D01*
X131016326Y-85000000D01*
X132876000Y-85000000D01*
X132938000Y-85016613D01*
X132983387Y-85062000D01*
X133000000Y-85124000D01*
X133000000Y-97376000D01*
X132983387Y-97438000D01*
X132938000Y-97483387D01*
X132876000Y-97500000D01*
X129124000Y-97500000D01*
X129062000Y-97483387D01*
X129016613Y-97438000D01*
X129000000Y-97376000D01*
X129000000Y-60016326D01*
X128996549Y-60003450D01*
X128983674Y-60000000D01*
X119516326Y-60000000D01*
X119503450Y-60003450D01*
X119500000Y-60016326D01*
X119500000Y-97376000D01*
X119483387Y-97438000D01*
X119438000Y-97483387D01*
X119376000Y-97500000D01*
X115124000Y-97500000D01*
X115062000Y-97483387D01*
X115016613Y-97438000D01*
X115000000Y-97376000D01*
X115000000Y-55124000D01*
X115016613Y-55062000D01*
X115062000Y-55016613D01*
X115124000Y-55000000D01*
X132876000Y-55000000D01*
X132938000Y-55016613D01*
G37*
G36*
X179937000Y-30016881D02*
G01*
X179983119Y-30063000D01*
X180000000Y-30126000D01*
X180000000Y-129874000D01*
X179983119Y-129937000D01*
X179937000Y-129983119D01*
X179874000Y-130000000D01*
X129126000Y-130000000D01*
X129063000Y-129983119D01*
X129016881Y-129937000D01*
X129000000Y-129874000D01*
X129000000Y-127626000D01*
X129016881Y-127563000D01*
X129063000Y-127516881D01*
X129126000Y-127500000D01*
X176983410Y-127500000D01*
X176996493Y-127496493D01*
X177000000Y-127483410D01*
X177000000Y-32016590D01*
X176996493Y-32003506D01*
X176983410Y-32000000D01*
X82016590Y-32000000D01*
X82003506Y-32003506D01*
X82000000Y-32016590D01*
X82000000Y-127483410D01*
X82003506Y-127496493D01*
X82016590Y-127500000D01*
X119374000Y-127500000D01*
X119437000Y-127516881D01*
X119483119Y-127563000D01*
X119500000Y-127626000D01*
X119500000Y-129874000D01*
X119483119Y-129937000D01*
X119437000Y-129983119D01*
X119374000Y-130000000D01*
X80126000Y-130000000D01*
X80063000Y-129983119D01*
X80016881Y-129937000D01*
X80000000Y-129874000D01*
X80000000Y-30126000D01*
X80016881Y-30063000D01*
X80063000Y-30016881D01*
X80126000Y-30000000D01*
X179874000Y-30000000D01*
X179937000Y-30016881D01*
G37*
G36*
X96937000Y-44016881D02*
G01*
X96983119Y-44063000D01*
X97000000Y-44126000D01*
X97000000Y-53374000D01*
X96983119Y-53437000D01*
X96937000Y-53483119D01*
X96874000Y-53500000D01*
X89126000Y-53500000D01*
X89063000Y-53483119D01*
X89016881Y-53437000D01*
X89000000Y-53374000D01*
X89000000Y-44126000D01*
X89016881Y-44063000D01*
X89063000Y-44016881D01*
X89126000Y-44000000D01*
X96874000Y-44000000D01*
X96937000Y-44016881D01*
G37*
M02*
