G04 #@! TF.GenerationSoftware,KiCad,Pcbnew,(6.0.0)*
G04 #@! TF.CreationDate,2023-02-12T17:08:04+01:00*
G04 #@! TF.ProjectId,Ampli_0_5W,416d706c-695f-4305-9f35-572e6b696361,rev?*
G04 #@! TF.SameCoordinates,Original*
G04 #@! TF.FileFunction,Legend,Top*
G04 #@! TF.FilePolarity,Positive*
%FSLAX46Y46*%
G04 Gerber Fmt 4.6, Leading zero omitted, Abs format (unit mm)*
G04 Created by KiCad (PCBNEW (6.0.0)) date 2023-02-12 17:08:04*
%MOMM*%
%LPD*%
G01*
G04 APERTURE LIST*
G04 Aperture macros list*
%AMRoundRect*
0 Rectangle with rounded corners*
0 $1 Rounding radius*
0 $2 $3 $4 $5 $6 $7 $8 $9 X,Y pos of 4 corners*
0 Add a 4 corners polygon primitive as box body*
4,1,4,$2,$3,$4,$5,$6,$7,$8,$9,$2,$3,0*
0 Add four circle primitives for the rounded corners*
1,1,$1+$1,$2,$3*
1,1,$1+$1,$4,$5*
1,1,$1+$1,$6,$7*
1,1,$1+$1,$8,$9*
0 Add four rect primitives between the rounded corners*
20,1,$1+$1,$2,$3,$4,$5,0*
20,1,$1+$1,$4,$5,$6,$7,0*
20,1,$1+$1,$6,$7,$8,$9,0*
20,1,$1+$1,$8,$9,$2,$3,0*%
G04 Aperture macros list end*
%ADD10C,0.150000*%
%ADD11C,0.400000*%
%ADD12C,0.375000*%
%ADD13C,0.175000*%
%ADD14C,0.100000*%
%ADD15C,0.120000*%
%ADD16C,0.381000*%
%ADD17C,0.099060*%
%ADD18C,1.998980*%
%ADD19C,2.499360*%
%ADD20C,5.600000*%
%ADD21RoundRect,0.250000X0.337500X0.475000X-0.337500X0.475000X-0.337500X-0.475000X0.337500X-0.475000X0*%
%ADD22RoundRect,0.625000X-1.375000X-0.625000X1.375000X-0.625000X1.375000X0.625000X-1.375000X0.625000X0*%
%ADD23RoundRect,0.250000X0.350000X0.450000X-0.350000X0.450000X-0.350000X-0.450000X0.350000X-0.450000X0*%
%ADD24RoundRect,0.250000X-0.337500X-0.475000X0.337500X-0.475000X0.337500X0.475000X-0.337500X0.475000X0*%
%ADD25C,8.000000*%
%ADD26RoundRect,0.500000X0.500000X1.500000X-0.500000X1.500000X-0.500000X-1.500000X0.500000X-1.500000X0*%
%ADD27RoundRect,0.500000X1.500000X-0.500000X1.500000X0.500000X-1.500000X0.500000X-1.500000X-0.500000X0*%
%ADD28R,2.700000X4.320000*%
%ADD29RoundRect,0.250000X-0.400000X-1.450000X0.400000X-1.450000X0.400000X1.450000X-0.400000X1.450000X0*%
%ADD30R,1.200000X2.200000*%
%ADD31R,5.800000X6.400000*%
%ADD32RoundRect,0.250000X0.875000X1.025000X-0.875000X1.025000X-0.875000X-1.025000X0.875000X-1.025000X0*%
%ADD33RoundRect,0.500000X-0.500000X-1.500000X0.500000X-1.500000X0.500000X1.500000X-0.500000X1.500000X0*%
%ADD34RoundRect,0.250000X-0.620000X-0.845000X0.620000X-0.845000X0.620000X0.845000X-0.620000X0.845000X0*%
%ADD35O,1.740000X2.190000*%
%ADD36RoundRect,0.250000X-0.475000X0.337500X-0.475000X-0.337500X0.475000X-0.337500X0.475000X0.337500X0*%
%ADD37R,0.800000X1.900000*%
%ADD38RoundRect,0.250000X0.450000X-0.350000X0.450000X0.350000X-0.450000X0.350000X-0.450000X-0.350000X0*%
%ADD39RoundRect,0.250000X-0.450000X0.350000X-0.450000X-0.350000X0.450000X-0.350000X0.450000X0.350000X0*%
%ADD40RoundRect,0.250000X-1.625000X0.675000X-1.625000X-0.675000X1.625000X-0.675000X1.625000X0.675000X0*%
%ADD41RoundRect,0.250000X1.350000X1.975000X-1.350000X1.975000X-1.350000X-1.975000X1.350000X-1.975000X0*%
%ADD42RoundRect,0.250000X-0.350000X-0.450000X0.350000X-0.450000X0.350000X0.450000X-0.350000X0.450000X0*%
%ADD43RoundRect,0.250000X0.650000X-0.412500X0.650000X0.412500X-0.650000X0.412500X-0.650000X-0.412500X0*%
%ADD44O,4.000000X3.000000*%
%ADD45R,2.500000X2.000000*%
%ADD46R,3.000000X3.000000*%
%ADD47RoundRect,0.250000X0.925000X-0.875000X0.925000X0.875000X-0.925000X0.875000X-0.925000X-0.875000X0*%
%ADD48RoundRect,1.000000X2.500000X-1.000000X2.500000X1.000000X-2.500000X1.000000X-2.500000X-1.000000X0*%
G04 APERTURE END LIST*
D10*
X80000000Y-110000000D02*
X179500000Y-109500000D01*
D11*
X131714285Y-99904761D02*
X132380952Y-97904761D01*
X133047619Y-99904761D01*
X131714285Y-99904761D01*
X133714285Y-98571428D02*
X133714285Y-99619047D01*
X133809523Y-99809523D01*
X134000000Y-99904761D01*
X135047619Y-99904761D02*
X134857142Y-99809523D01*
X134761904Y-99714285D01*
X134666666Y-99523809D01*
X134666666Y-98952380D01*
X134761904Y-98761904D01*
X134857142Y-98666666D01*
X135047619Y-98571428D01*
X135333333Y-98571428D01*
X135523809Y-98666666D01*
X135619047Y-98761904D01*
X135714285Y-98952380D01*
X135714285Y-99523809D01*
X135619047Y-99714285D01*
X135523809Y-99809523D01*
X135333333Y-99904761D01*
X135047619Y-99904761D01*
X136571428Y-98571428D02*
X136571428Y-100571428D01*
X137523809Y-99619047D02*
X137619047Y-99809523D01*
X137809523Y-99904761D01*
X136571428Y-99619047D02*
X136666666Y-99809523D01*
X136857142Y-99904761D01*
X137238095Y-99904761D01*
X137428571Y-99809523D01*
X137523809Y-99619047D01*
X137523809Y-98571428D01*
X138666666Y-98571428D02*
X138666666Y-99904761D01*
X138666666Y-98761904D02*
X138761904Y-98666666D01*
X138952380Y-98571428D01*
X139238095Y-98571428D01*
X139428571Y-98666666D01*
X139523809Y-98857142D01*
X139523809Y-100571428D01*
X139238095Y-97809523D02*
X138952380Y-98095238D01*
X141047619Y-98571428D02*
X140761904Y-98571428D01*
X140571428Y-98666666D01*
X140476190Y-98761904D01*
X140380952Y-98952380D01*
X140380952Y-99523809D01*
X140476190Y-99714285D01*
X140571428Y-99809523D01*
X140761904Y-99904761D01*
X141047619Y-99904761D01*
X141238095Y-99809523D01*
X141333333Y-99714285D01*
X141428571Y-99523809D01*
X141428571Y-98952380D01*
X141333333Y-98761904D01*
X141238095Y-98666666D01*
X141047619Y-98571428D01*
X140761904Y-98476190D01*
X140571428Y-98380952D01*
X140476190Y-98190476D01*
X140571428Y-98000000D01*
X140761904Y-97904761D01*
X141142857Y-97904761D01*
X141333333Y-98000000D01*
X142285714Y-98571428D02*
X142285714Y-99904761D01*
X142285714Y-98761904D02*
X142380952Y-98666666D01*
X142571428Y-98571428D01*
X142857142Y-98571428D01*
X143047619Y-98666666D01*
X143142857Y-98857142D01*
X143142857Y-100571428D01*
X144952380Y-98666666D02*
X144761904Y-98571428D01*
X144380952Y-98571428D01*
X144190476Y-98666666D01*
X144095238Y-98761904D01*
X144000000Y-98952380D01*
X144000000Y-99523809D01*
X144095238Y-99714285D01*
X144190476Y-99809523D01*
X144380952Y-99904761D01*
X144666666Y-99904761D01*
X144857142Y-100000000D01*
X144952380Y-100190476D01*
X144952380Y-100285714D01*
X144857142Y-100476190D01*
X144666666Y-100571428D01*
X151904761Y-99904761D02*
X151904761Y-97904761D01*
X152380952Y-97904761D01*
X152666666Y-98000000D01*
X152857142Y-98190476D01*
X152952380Y-98380952D01*
X153047619Y-98761904D01*
X153047619Y-99047619D01*
X152952380Y-99428571D01*
X152857142Y-99619047D01*
X152666666Y-99809523D01*
X152380952Y-99904761D01*
X151904761Y-99904761D01*
X153904761Y-99904761D02*
X153904761Y-98571428D01*
X153904761Y-97904761D02*
X153809523Y-98000000D01*
X153904761Y-98095238D01*
X154000000Y-98000000D01*
X153904761Y-97904761D01*
X153904761Y-98095238D01*
X155142857Y-99904761D02*
X154952380Y-99809523D01*
X154857142Y-99714285D01*
X154761904Y-99523809D01*
X154761904Y-98952380D01*
X154857142Y-98761904D01*
X154952380Y-98666666D01*
X155142857Y-98571428D01*
X155428571Y-98571428D01*
X155619047Y-98666666D01*
X155714285Y-98761904D01*
X155809523Y-98952380D01*
X155809523Y-99523809D01*
X155714285Y-99714285D01*
X155619047Y-99809523D01*
X155428571Y-99904761D01*
X155142857Y-99904761D01*
X156666666Y-99904761D02*
X156666666Y-98571428D01*
X156666666Y-98761904D02*
X156761904Y-98666666D01*
X156952380Y-98571428D01*
X157238095Y-98571428D01*
X157428571Y-98666666D01*
X157523809Y-98857142D01*
X157523809Y-99904761D01*
X157523809Y-98857142D02*
X157619047Y-98666666D01*
X157809523Y-98571428D01*
X158095238Y-98571428D01*
X158285714Y-98666666D01*
X158380952Y-98857142D01*
X158380952Y-99904761D01*
X160095238Y-99809523D02*
X159904761Y-99904761D01*
X159523809Y-99904761D01*
X159333333Y-99809523D01*
X159238095Y-99619047D01*
X159238095Y-98857142D01*
X159333333Y-98666666D01*
X159523809Y-98571428D01*
X159904761Y-98571428D01*
X160095238Y-98666666D01*
X160190476Y-98857142D01*
X160190476Y-99047619D01*
X159238095Y-99238095D01*
X161904761Y-99904761D02*
X161904761Y-97904761D01*
X161904761Y-99809523D02*
X161714285Y-99904761D01*
X161333333Y-99904761D01*
X161142857Y-99809523D01*
X161047619Y-99714285D01*
X160952380Y-99523809D01*
X160952380Y-98952380D01*
X161047619Y-98761904D01*
X161142857Y-98666666D01*
X161333333Y-98571428D01*
X161714285Y-98571428D01*
X161904761Y-98666666D01*
X163619047Y-99809523D02*
X163428571Y-99904761D01*
X163047619Y-99904761D01*
X162857142Y-99809523D01*
X162761904Y-99619047D01*
X162761904Y-98857142D01*
X162857142Y-98666666D01*
X163047619Y-98571428D01*
X163428571Y-98571428D01*
X163619047Y-98666666D01*
X163714285Y-98857142D01*
X163714285Y-99047619D01*
X162761904Y-99238095D01*
X164476190Y-99809523D02*
X164666666Y-99904761D01*
X165047619Y-99904761D01*
X165238095Y-99809523D01*
X165333333Y-99619047D01*
X165333333Y-99523809D01*
X165238095Y-99333333D01*
X165047619Y-99238095D01*
X164761904Y-99238095D01*
X164571428Y-99142857D01*
X164476190Y-98952380D01*
X164476190Y-98857142D01*
X164571428Y-98666666D01*
X164761904Y-98571428D01*
X165047619Y-98571428D01*
X165238095Y-98666666D01*
X167523809Y-98571428D02*
X168000000Y-99904761D01*
X168476190Y-98571428D01*
X169238095Y-99714285D02*
X169333333Y-99809523D01*
X169238095Y-99904761D01*
X169142857Y-99809523D01*
X169238095Y-99714285D01*
X169238095Y-99904761D01*
X170095238Y-98095238D02*
X170190476Y-98000000D01*
X170380952Y-97904761D01*
X170857142Y-97904761D01*
X171047619Y-98000000D01*
X171142857Y-98095238D01*
X171238095Y-98285714D01*
X171238095Y-98476190D01*
X171142857Y-98761904D01*
X170000000Y-99904761D01*
X171238095Y-99904761D01*
X172095238Y-99714285D02*
X172190476Y-99809523D01*
X172095238Y-99904761D01*
X172000000Y-99809523D01*
X172095238Y-99714285D01*
X172095238Y-99904761D01*
X173428571Y-97904761D02*
X173619047Y-97904761D01*
X173809523Y-98000000D01*
X173904761Y-98095238D01*
X174000000Y-98285714D01*
X174095238Y-98666666D01*
X174095238Y-99142857D01*
X174000000Y-99523809D01*
X173904761Y-99714285D01*
X173809523Y-99809523D01*
X173619047Y-99904761D01*
X173428571Y-99904761D01*
X173238095Y-99809523D01*
X173142857Y-99714285D01*
X173047619Y-99523809D01*
X172952380Y-99142857D01*
X172952380Y-98666666D01*
X173047619Y-98285714D01*
X173142857Y-98095238D01*
X173238095Y-98000000D01*
X173428571Y-97904761D01*
D12*
X110309523Y-34571428D02*
X108785714Y-35142857D01*
X110309523Y-35714285D01*
X111642857Y-33904761D02*
X112023809Y-33904761D01*
X112214285Y-34000000D01*
X112404761Y-34190476D01*
X112500000Y-34571428D01*
X112500000Y-35238095D01*
X112404761Y-35619047D01*
X112214285Y-35809523D01*
X112023809Y-35904761D01*
X111642857Y-35904761D01*
X111452380Y-35809523D01*
X111261904Y-35619047D01*
X111166666Y-35238095D01*
X111166666Y-34571428D01*
X111261904Y-34190476D01*
X111452380Y-34000000D01*
X111642857Y-33904761D01*
X114214285Y-34571428D02*
X114214285Y-35904761D01*
X113357142Y-34571428D02*
X113357142Y-35619047D01*
X113452380Y-35809523D01*
X113642857Y-35904761D01*
X113928571Y-35904761D01*
X114119047Y-35809523D01*
X114214285Y-35714285D01*
X114880952Y-34571428D02*
X115642857Y-34571428D01*
X115166666Y-33904761D02*
X115166666Y-35619047D01*
X115261904Y-35809523D01*
X115452380Y-35904761D01*
X115642857Y-35904761D01*
X120880952Y-35904761D02*
X120880952Y-33904761D01*
X121642857Y-33904761D01*
X121833333Y-34000000D01*
X121928571Y-34095238D01*
X122023809Y-34285714D01*
X122023809Y-34571428D01*
X121928571Y-34761904D01*
X121833333Y-34857142D01*
X121642857Y-34952380D01*
X120880952Y-34952380D01*
X122595238Y-33904761D02*
X123738095Y-33904761D01*
X123166666Y-35904761D02*
X123166666Y-33904761D01*
X124119047Y-33904761D02*
X125261904Y-33904761D01*
X124690476Y-35904761D02*
X124690476Y-33904761D01*
X127452380Y-35904761D02*
X127452380Y-33904761D01*
X128404761Y-34571428D02*
X128404761Y-35904761D01*
X128404761Y-34761904D02*
X128500000Y-34666666D01*
X128690476Y-34571428D01*
X128976190Y-34571428D01*
X129166666Y-34666666D01*
X129261904Y-34857142D01*
X129261904Y-35904761D01*
X130214285Y-34571428D02*
X131738095Y-35142857D01*
X130214285Y-35714285D01*
D11*
X167476190Y-68404761D02*
X166809523Y-67452380D01*
X166333333Y-68404761D02*
X166333333Y-66404761D01*
X167095238Y-66404761D01*
X167285714Y-66500000D01*
X167380952Y-66595238D01*
X167476190Y-66785714D01*
X167476190Y-67071428D01*
X167380952Y-67261904D01*
X167285714Y-67357142D01*
X167095238Y-67452380D01*
X166333333Y-67452380D01*
X169000000Y-67357142D02*
X168333333Y-67357142D01*
X168333333Y-68404761D02*
X168333333Y-66404761D01*
X169285714Y-66404761D01*
X171952380Y-66404761D02*
X172333333Y-66404761D01*
X172523809Y-66500000D01*
X172714285Y-66690476D01*
X172809523Y-67071428D01*
X172809523Y-67738095D01*
X172714285Y-68119047D01*
X172523809Y-68309523D01*
X172333333Y-68404761D01*
X171952380Y-68404761D01*
X171761904Y-68309523D01*
X171571428Y-68119047D01*
X171476190Y-67738095D01*
X171476190Y-67071428D01*
X171571428Y-66690476D01*
X171761904Y-66500000D01*
X171952380Y-66404761D01*
X174523809Y-67071428D02*
X174523809Y-68404761D01*
X173666666Y-67071428D02*
X173666666Y-68119047D01*
X173761904Y-68309523D01*
X173952380Y-68404761D01*
X174238095Y-68404761D01*
X174428571Y-68309523D01*
X174523809Y-68214285D01*
X175190476Y-67071428D02*
X175952380Y-67071428D01*
X175476190Y-66404761D02*
X175476190Y-68119047D01*
X175571428Y-68309523D01*
X175761904Y-68404761D01*
X175952380Y-68404761D01*
X147666666Y-118684761D02*
X149000000Y-120684761D01*
X149000000Y-118684761D02*
X147666666Y-120684761D01*
X151095238Y-120875238D02*
X150904761Y-120780000D01*
X150714285Y-120589523D01*
X150428571Y-120303809D01*
X150238095Y-120208571D01*
X150047619Y-120208571D01*
X150142857Y-120684761D02*
X149952380Y-120589523D01*
X149761904Y-120399047D01*
X149666666Y-120018095D01*
X149666666Y-119351428D01*
X149761904Y-118970476D01*
X149952380Y-118780000D01*
X150142857Y-118684761D01*
X150523809Y-118684761D01*
X150714285Y-118780000D01*
X150904761Y-118970476D01*
X151000000Y-119351428D01*
X151000000Y-120018095D01*
X150904761Y-120399047D01*
X150714285Y-120589523D01*
X150523809Y-120684761D01*
X150142857Y-120684761D01*
X152714285Y-118684761D02*
X152333333Y-118684761D01*
X152142857Y-118780000D01*
X152047619Y-118875238D01*
X151857142Y-119160952D01*
X151761904Y-119541904D01*
X151761904Y-120303809D01*
X151857142Y-120494285D01*
X151952380Y-120589523D01*
X152142857Y-120684761D01*
X152523809Y-120684761D01*
X152714285Y-120589523D01*
X152809523Y-120494285D01*
X152904761Y-120303809D01*
X152904761Y-119827619D01*
X152809523Y-119637142D01*
X152714285Y-119541904D01*
X152523809Y-119446666D01*
X152142857Y-119446666D01*
X151952380Y-119541904D01*
X151857142Y-119637142D01*
X151761904Y-119827619D01*
X154428571Y-119637142D02*
X153761904Y-119637142D01*
X153761904Y-120684761D02*
X153761904Y-118684761D01*
X154714285Y-118684761D01*
X155857142Y-118684761D02*
X156238095Y-118684761D01*
X156428571Y-118780000D01*
X156619047Y-118970476D01*
X156714285Y-119351428D01*
X156714285Y-120018095D01*
X156619047Y-120399047D01*
X156428571Y-120589523D01*
X156238095Y-120684761D01*
X155857142Y-120684761D01*
X155666666Y-120589523D01*
X155476190Y-120399047D01*
X155380952Y-120018095D01*
X155380952Y-119351428D01*
X155476190Y-118970476D01*
X155666666Y-118780000D01*
X155857142Y-118684761D01*
X157571428Y-120684761D02*
X157571428Y-118684761D01*
X158047619Y-118684761D01*
X158333333Y-118780000D01*
X158523809Y-118970476D01*
X158619047Y-119160952D01*
X158714285Y-119541904D01*
X158714285Y-119827619D01*
X158619047Y-120208571D01*
X158523809Y-120399047D01*
X158333333Y-120589523D01*
X158047619Y-120684761D01*
X157571428Y-120684761D01*
X143238095Y-121904761D02*
X142285714Y-121904761D01*
X142190476Y-122857142D01*
X142285714Y-122761904D01*
X142476190Y-122666666D01*
X142952380Y-122666666D01*
X143142857Y-122761904D01*
X143238095Y-122857142D01*
X143333333Y-123047619D01*
X143333333Y-123523809D01*
X143238095Y-123714285D01*
X143142857Y-123809523D01*
X142952380Y-123904761D01*
X142476190Y-123904761D01*
X142285714Y-123809523D01*
X142190476Y-123714285D01*
X144571428Y-121904761D02*
X144761904Y-121904761D01*
X144952380Y-122000000D01*
X145047619Y-122095238D01*
X145142857Y-122285714D01*
X145238095Y-122666666D01*
X145238095Y-123142857D01*
X145142857Y-123523809D01*
X145047619Y-123714285D01*
X144952380Y-123809523D01*
X144761904Y-123904761D01*
X144571428Y-123904761D01*
X144380952Y-123809523D01*
X144285714Y-123714285D01*
X144190476Y-123523809D01*
X144095238Y-123142857D01*
X144095238Y-122666666D01*
X144190476Y-122285714D01*
X144285714Y-122095238D01*
X144380952Y-122000000D01*
X144571428Y-121904761D01*
X145904761Y-121904761D02*
X146380952Y-123904761D01*
X146761904Y-122476190D01*
X147142857Y-123904761D01*
X147619047Y-121904761D01*
X150857142Y-123904761D02*
X149904761Y-123904761D01*
X149904761Y-121904761D01*
X151523809Y-123904761D02*
X151523809Y-121904761D01*
X152000000Y-121904761D01*
X152285714Y-122000000D01*
X152476190Y-122190476D01*
X152571428Y-122380952D01*
X152666666Y-122761904D01*
X152666666Y-123047619D01*
X152571428Y-123428571D01*
X152476190Y-123619047D01*
X152285714Y-123809523D01*
X152000000Y-123904761D01*
X151523809Y-123904761D01*
X153523809Y-123904761D02*
X153523809Y-121904761D01*
X154190476Y-123333333D01*
X154857142Y-121904761D01*
X154857142Y-123904761D01*
X156190476Y-121904761D02*
X156571428Y-121904761D01*
X156761904Y-122000000D01*
X156952380Y-122190476D01*
X157047619Y-122571428D01*
X157047619Y-123238095D01*
X156952380Y-123619047D01*
X156761904Y-123809523D01*
X156571428Y-123904761D01*
X156190476Y-123904761D01*
X156000000Y-123809523D01*
X155809523Y-123619047D01*
X155714285Y-123238095D01*
X155714285Y-122571428D01*
X155809523Y-122190476D01*
X156000000Y-122000000D01*
X156190476Y-121904761D01*
X157809523Y-123809523D02*
X158095238Y-123904761D01*
X158571428Y-123904761D01*
X158761904Y-123809523D01*
X158857142Y-123714285D01*
X158952380Y-123523809D01*
X158952380Y-123333333D01*
X158857142Y-123142857D01*
X158761904Y-123047619D01*
X158571428Y-122952380D01*
X158190476Y-122857142D01*
X158000000Y-122761904D01*
X157904761Y-122666666D01*
X157809523Y-122476190D01*
X157809523Y-122285714D01*
X157904761Y-122095238D01*
X158000000Y-122000000D01*
X158190476Y-121904761D01*
X158666666Y-121904761D01*
X158952380Y-122000000D01*
X161333333Y-123904761D02*
X161333333Y-121904761D01*
X161333333Y-122857142D02*
X162476190Y-122857142D01*
X162476190Y-123904761D02*
X162476190Y-121904761D01*
X164095238Y-122857142D02*
X163428571Y-122857142D01*
X163428571Y-123904761D02*
X163428571Y-121904761D01*
X164380952Y-121904761D01*
X143476190Y-127124761D02*
X142523809Y-127124761D01*
X142523809Y-125124761D01*
X144142857Y-127124761D02*
X144142857Y-125791428D01*
X144142857Y-125124761D02*
X144047619Y-125220000D01*
X144142857Y-125315238D01*
X144238095Y-125220000D01*
X144142857Y-125124761D01*
X144142857Y-125315238D01*
X145095238Y-125791428D02*
X145095238Y-127124761D01*
X145095238Y-125981904D02*
X145190476Y-125886666D01*
X145380952Y-125791428D01*
X145666666Y-125791428D01*
X145857142Y-125886666D01*
X145952380Y-126077142D01*
X145952380Y-127124761D01*
X147666666Y-127029523D02*
X147476190Y-127124761D01*
X147095238Y-127124761D01*
X146904761Y-127029523D01*
X146809523Y-126839047D01*
X146809523Y-126077142D01*
X146904761Y-125886666D01*
X147095238Y-125791428D01*
X147476190Y-125791428D01*
X147666666Y-125886666D01*
X147761904Y-126077142D01*
X147761904Y-126267619D01*
X146809523Y-126458095D01*
X149476190Y-127124761D02*
X149476190Y-126077142D01*
X149380952Y-125886666D01*
X149190476Y-125791428D01*
X148809523Y-125791428D01*
X148619047Y-125886666D01*
X149476190Y-127029523D02*
X149285714Y-127124761D01*
X148809523Y-127124761D01*
X148619047Y-127029523D01*
X148523809Y-126839047D01*
X148523809Y-126648571D01*
X148619047Y-126458095D01*
X148809523Y-126362857D01*
X149285714Y-126362857D01*
X149476190Y-126267619D01*
X150428571Y-127124761D02*
X150428571Y-125791428D01*
X150428571Y-126172380D02*
X150523809Y-125981904D01*
X150619047Y-125886666D01*
X150809523Y-125791428D01*
X151000000Y-125791428D01*
X153095238Y-126553333D02*
X154047619Y-126553333D01*
X152904761Y-127124761D02*
X153571428Y-125124761D01*
X154238095Y-127124761D01*
X154904761Y-127124761D02*
X154904761Y-125791428D01*
X154904761Y-125981904D02*
X155000000Y-125886666D01*
X155190476Y-125791428D01*
X155476190Y-125791428D01*
X155666666Y-125886666D01*
X155761904Y-126077142D01*
X155761904Y-127124761D01*
X155761904Y-126077142D02*
X155857142Y-125886666D01*
X156047619Y-125791428D01*
X156333333Y-125791428D01*
X156523809Y-125886666D01*
X156619047Y-126077142D01*
X156619047Y-127124761D01*
X157571428Y-125791428D02*
X157571428Y-127791428D01*
X157571428Y-125886666D02*
X157761904Y-125791428D01*
X158142857Y-125791428D01*
X158333333Y-125886666D01*
X158428571Y-125981904D01*
X158523809Y-126172380D01*
X158523809Y-126743809D01*
X158428571Y-126934285D01*
X158333333Y-127029523D01*
X158142857Y-127124761D01*
X157761904Y-127124761D01*
X157571428Y-127029523D01*
X159666666Y-127124761D02*
X159476190Y-127029523D01*
X159380952Y-126839047D01*
X159380952Y-125124761D01*
X160428571Y-127124761D02*
X160428571Y-125791428D01*
X160428571Y-125124761D02*
X160333333Y-125220000D01*
X160428571Y-125315238D01*
X160523809Y-125220000D01*
X160428571Y-125124761D01*
X160428571Y-125315238D01*
X161095238Y-125791428D02*
X161857142Y-125791428D01*
X161380952Y-127124761D02*
X161380952Y-125410476D01*
X161476190Y-125220000D01*
X161666666Y-125124761D01*
X161857142Y-125124761D01*
X162523809Y-127124761D02*
X162523809Y-125791428D01*
X162523809Y-125124761D02*
X162428571Y-125220000D01*
X162523809Y-125315238D01*
X162619047Y-125220000D01*
X162523809Y-125124761D01*
X162523809Y-125315238D01*
X164238095Y-127029523D02*
X164047619Y-127124761D01*
X163666666Y-127124761D01*
X163476190Y-127029523D01*
X163380952Y-126839047D01*
X163380952Y-126077142D01*
X163476190Y-125886666D01*
X163666666Y-125791428D01*
X164047619Y-125791428D01*
X164238095Y-125886666D01*
X164333333Y-126077142D01*
X164333333Y-126267619D01*
X163380952Y-126458095D01*
X165190476Y-127124761D02*
X165190476Y-125791428D01*
X165190476Y-126172380D02*
X165285714Y-125981904D01*
X165380952Y-125886666D01*
X165571428Y-125791428D01*
X165761904Y-125791428D01*
D10*
X106857142Y-110142857D02*
X106904761Y-110095238D01*
X107047619Y-110047619D01*
X107142857Y-110047619D01*
X107285714Y-110095238D01*
X107380952Y-110190476D01*
X107428571Y-110285714D01*
X107476190Y-110476190D01*
X107476190Y-110619047D01*
X107428571Y-110809523D01*
X107380952Y-110904761D01*
X107285714Y-111000000D01*
X107142857Y-111047619D01*
X107047619Y-111047619D01*
X106904761Y-111000000D01*
X106857142Y-110952380D01*
X106000000Y-110714285D02*
X106000000Y-110047619D01*
X106428571Y-110714285D02*
X106428571Y-110190476D01*
X106380952Y-110095238D01*
X106285714Y-110047619D01*
X106142857Y-110047619D01*
X106047619Y-110095238D01*
X106000000Y-110142857D01*
X105666666Y-110714285D02*
X105285714Y-110714285D01*
X105523809Y-111047619D02*
X105523809Y-110190476D01*
X105476190Y-110095238D01*
X105380952Y-110047619D01*
X105285714Y-110047619D01*
X104190476Y-110047619D02*
X104190476Y-111047619D01*
X103761904Y-110047619D02*
X103761904Y-110571428D01*
X103809523Y-110666666D01*
X103904761Y-110714285D01*
X104047619Y-110714285D01*
X104142857Y-110666666D01*
X104190476Y-110619047D01*
X102904761Y-110095238D02*
X103000000Y-110047619D01*
X103190476Y-110047619D01*
X103285714Y-110095238D01*
X103333333Y-110190476D01*
X103333333Y-110571428D01*
X103285714Y-110666666D01*
X103190476Y-110714285D01*
X103000000Y-110714285D01*
X102904761Y-110666666D01*
X102857142Y-110571428D01*
X102857142Y-110476190D01*
X103333333Y-110380952D01*
X102428571Y-110047619D02*
X102428571Y-110714285D01*
X102428571Y-110523809D02*
X102380952Y-110619047D01*
X102333333Y-110666666D01*
X102238095Y-110714285D01*
X102142857Y-110714285D01*
X101428571Y-110095238D02*
X101523809Y-110047619D01*
X101714285Y-110047619D01*
X101809523Y-110095238D01*
X101857142Y-110190476D01*
X101857142Y-110571428D01*
X101809523Y-110666666D01*
X101714285Y-110714285D01*
X101523809Y-110714285D01*
X101428571Y-110666666D01*
X101380952Y-110571428D01*
X101380952Y-110476190D01*
X101857142Y-110380952D01*
X100190476Y-110047619D02*
X100190476Y-110714285D01*
X100190476Y-111047619D02*
X100238095Y-111000000D01*
X100190476Y-110952380D01*
X100142857Y-111000000D01*
X100190476Y-111047619D01*
X100190476Y-110952380D01*
X99857142Y-110714285D02*
X99476190Y-110714285D01*
X99714285Y-110047619D02*
X99714285Y-110904761D01*
X99666666Y-111000000D01*
X99571428Y-111047619D01*
X99476190Y-111047619D01*
X98380952Y-110714285D02*
X98380952Y-110047619D01*
X98380952Y-110619047D02*
X98333333Y-110666666D01*
X98238095Y-110714285D01*
X98095238Y-110714285D01*
X98000000Y-110666666D01*
X97952380Y-110571428D01*
X97952380Y-110047619D01*
X97095238Y-110095238D02*
X97190476Y-110047619D01*
X97380952Y-110047619D01*
X97476190Y-110095238D01*
X97523809Y-110190476D01*
X97523809Y-110571428D01*
X97476190Y-110666666D01*
X97380952Y-110714285D01*
X97190476Y-110714285D01*
X97095238Y-110666666D01*
X97047619Y-110571428D01*
X97047619Y-110476190D01*
X97523809Y-110380952D01*
X96238095Y-110095238D02*
X96333333Y-110047619D01*
X96523809Y-110047619D01*
X96619047Y-110095238D01*
X96666666Y-110190476D01*
X96666666Y-110571428D01*
X96619047Y-110666666D01*
X96523809Y-110714285D01*
X96333333Y-110714285D01*
X96238095Y-110666666D01*
X96190476Y-110571428D01*
X96190476Y-110476190D01*
X96666666Y-110380952D01*
X95333333Y-110047619D02*
X95333333Y-111047619D01*
X95333333Y-110095238D02*
X95428571Y-110047619D01*
X95619047Y-110047619D01*
X95714285Y-110095238D01*
X95761904Y-110142857D01*
X95809523Y-110238095D01*
X95809523Y-110523809D01*
X95761904Y-110619047D01*
X95714285Y-110666666D01*
X95619047Y-110714285D01*
X95428571Y-110714285D01*
X95333333Y-110666666D01*
X94476190Y-110095238D02*
X94571428Y-110047619D01*
X94761904Y-110047619D01*
X94857142Y-110095238D01*
X94904761Y-110190476D01*
X94904761Y-110571428D01*
X94857142Y-110666666D01*
X94761904Y-110714285D01*
X94571428Y-110714285D01*
X94476190Y-110666666D01*
X94428571Y-110571428D01*
X94428571Y-110476190D01*
X94904761Y-110380952D01*
X93571428Y-110047619D02*
X93571428Y-111047619D01*
X93571428Y-110095238D02*
X93666666Y-110047619D01*
X93857142Y-110047619D01*
X93952380Y-110095238D01*
X94000000Y-110142857D01*
X94047619Y-110238095D01*
X94047619Y-110523809D01*
X94000000Y-110619047D01*
X93952380Y-110666666D01*
X93857142Y-110714285D01*
X93666666Y-110714285D01*
X93571428Y-110666666D01*
X114050000Y-66316666D02*
X113816666Y-65983333D01*
X113650000Y-66316666D02*
X113650000Y-65616666D01*
X113916666Y-65616666D01*
X113983333Y-65650000D01*
X114016666Y-65683333D01*
X114050000Y-65750000D01*
X114050000Y-65850000D01*
X114016666Y-65916666D01*
X113983333Y-65950000D01*
X113916666Y-65983333D01*
X113650000Y-65983333D01*
X114716666Y-66316666D02*
X114316666Y-66316666D01*
X114516666Y-66316666D02*
X114516666Y-65616666D01*
X114450000Y-65716666D01*
X114383333Y-65783333D01*
X114316666Y-65816666D01*
X115316666Y-65850000D02*
X115316666Y-66316666D01*
X115150000Y-65583333D02*
X114983333Y-66083333D01*
X115416666Y-66083333D01*
D11*
X90119047Y-76404761D02*
X89452380Y-75452380D01*
X88976190Y-76404761D02*
X88976190Y-74404761D01*
X89738095Y-74404761D01*
X89928571Y-74500000D01*
X90023809Y-74595238D01*
X90119047Y-74785714D01*
X90119047Y-75071428D01*
X90023809Y-75261904D01*
X89928571Y-75357142D01*
X89738095Y-75452380D01*
X88976190Y-75452380D01*
X91642857Y-75357142D02*
X90976190Y-75357142D01*
X90976190Y-76404761D02*
X90976190Y-74404761D01*
X91928571Y-74404761D01*
X94214285Y-76404761D02*
X94214285Y-74404761D01*
X95166666Y-75071428D02*
X95166666Y-76404761D01*
X95166666Y-75261904D02*
X95261904Y-75166666D01*
X95452380Y-75071428D01*
X95738095Y-75071428D01*
X95928571Y-75166666D01*
X96023809Y-75357142D01*
X96023809Y-76404761D01*
X148297619Y-41904761D02*
X147154761Y-41904761D01*
X147726190Y-41904761D02*
X147726190Y-39904761D01*
X147535714Y-40190476D01*
X147345238Y-40380952D01*
X147154761Y-40476190D01*
X149059523Y-40095238D02*
X149154761Y-40000000D01*
X149345238Y-39904761D01*
X149821428Y-39904761D01*
X150011904Y-40000000D01*
X150107142Y-40095238D01*
X150202380Y-40285714D01*
X150202380Y-40476190D01*
X150107142Y-40761904D01*
X148964285Y-41904761D01*
X150202380Y-41904761D01*
X150773809Y-39904761D02*
X151440476Y-41904761D01*
X152107142Y-39904761D01*
X153630952Y-41809523D02*
X153440476Y-41904761D01*
X153059523Y-41904761D01*
X152869047Y-41809523D01*
X152773809Y-41714285D01*
X152678571Y-41523809D01*
X152678571Y-40952380D01*
X152773809Y-40761904D01*
X152869047Y-40666666D01*
X153059523Y-40571428D01*
X153440476Y-40571428D01*
X153630952Y-40666666D01*
X155345238Y-41809523D02*
X155154761Y-41904761D01*
X154773809Y-41904761D01*
X154583333Y-41809523D01*
X154488095Y-41714285D01*
X154392857Y-41523809D01*
X154392857Y-40952380D01*
X154488095Y-40761904D01*
X154583333Y-40666666D01*
X154773809Y-40571428D01*
X155154761Y-40571428D01*
X155345238Y-40666666D01*
D10*
X113550000Y-92816666D02*
X113316666Y-92483333D01*
X113150000Y-92816666D02*
X113150000Y-92116666D01*
X113416666Y-92116666D01*
X113483333Y-92150000D01*
X113516666Y-92183333D01*
X113550000Y-92250000D01*
X113550000Y-92350000D01*
X113516666Y-92416666D01*
X113483333Y-92450000D01*
X113416666Y-92483333D01*
X113150000Y-92483333D01*
X114216666Y-92816666D02*
X113816666Y-92816666D01*
X114016666Y-92816666D02*
X114016666Y-92116666D01*
X113950000Y-92216666D01*
X113883333Y-92283333D01*
X113816666Y-92316666D01*
X114850000Y-92116666D02*
X114516666Y-92116666D01*
X114483333Y-92450000D01*
X114516666Y-92416666D01*
X114583333Y-92383333D01*
X114750000Y-92383333D01*
X114816666Y-92416666D01*
X114850000Y-92450000D01*
X114883333Y-92516666D01*
X114883333Y-92683333D01*
X114850000Y-92750000D01*
X114816666Y-92783333D01*
X114750000Y-92816666D01*
X114583333Y-92816666D01*
X114516666Y-92783333D01*
X114483333Y-92750000D01*
X163357142Y-110142857D02*
X163404761Y-110095238D01*
X163547619Y-110047619D01*
X163642857Y-110047619D01*
X163785714Y-110095238D01*
X163880952Y-110190476D01*
X163928571Y-110285714D01*
X163976190Y-110476190D01*
X163976190Y-110619047D01*
X163928571Y-110809523D01*
X163880952Y-110904761D01*
X163785714Y-111000000D01*
X163642857Y-111047619D01*
X163547619Y-111047619D01*
X163404761Y-111000000D01*
X163357142Y-110952380D01*
X162500000Y-110714285D02*
X162500000Y-110047619D01*
X162928571Y-110714285D02*
X162928571Y-110190476D01*
X162880952Y-110095238D01*
X162785714Y-110047619D01*
X162642857Y-110047619D01*
X162547619Y-110095238D01*
X162500000Y-110142857D01*
X162166666Y-110714285D02*
X161785714Y-110714285D01*
X162023809Y-111047619D02*
X162023809Y-110190476D01*
X161976190Y-110095238D01*
X161880952Y-110047619D01*
X161785714Y-110047619D01*
X160690476Y-110047619D02*
X160690476Y-111047619D01*
X160261904Y-110047619D02*
X160261904Y-110571428D01*
X160309523Y-110666666D01*
X160404761Y-110714285D01*
X160547619Y-110714285D01*
X160642857Y-110666666D01*
X160690476Y-110619047D01*
X159404761Y-110095238D02*
X159500000Y-110047619D01*
X159690476Y-110047619D01*
X159785714Y-110095238D01*
X159833333Y-110190476D01*
X159833333Y-110571428D01*
X159785714Y-110666666D01*
X159690476Y-110714285D01*
X159500000Y-110714285D01*
X159404761Y-110666666D01*
X159357142Y-110571428D01*
X159357142Y-110476190D01*
X159833333Y-110380952D01*
X158928571Y-110047619D02*
X158928571Y-110714285D01*
X158928571Y-110523809D02*
X158880952Y-110619047D01*
X158833333Y-110666666D01*
X158738095Y-110714285D01*
X158642857Y-110714285D01*
X157928571Y-110095238D02*
X158023809Y-110047619D01*
X158214285Y-110047619D01*
X158309523Y-110095238D01*
X158357142Y-110190476D01*
X158357142Y-110571428D01*
X158309523Y-110666666D01*
X158214285Y-110714285D01*
X158023809Y-110714285D01*
X157928571Y-110666666D01*
X157880952Y-110571428D01*
X157880952Y-110476190D01*
X158357142Y-110380952D01*
X156690476Y-110047619D02*
X156690476Y-110714285D01*
X156690476Y-111047619D02*
X156738095Y-111000000D01*
X156690476Y-110952380D01*
X156642857Y-111000000D01*
X156690476Y-111047619D01*
X156690476Y-110952380D01*
X156357142Y-110714285D02*
X155976190Y-110714285D01*
X156214285Y-110047619D02*
X156214285Y-110904761D01*
X156166666Y-111000000D01*
X156071428Y-111047619D01*
X155976190Y-111047619D01*
X154880952Y-110714285D02*
X154880952Y-110047619D01*
X154880952Y-110619047D02*
X154833333Y-110666666D01*
X154738095Y-110714285D01*
X154595238Y-110714285D01*
X154500000Y-110666666D01*
X154452380Y-110571428D01*
X154452380Y-110047619D01*
X153595238Y-110095238D02*
X153690476Y-110047619D01*
X153880952Y-110047619D01*
X153976190Y-110095238D01*
X154023809Y-110190476D01*
X154023809Y-110571428D01*
X153976190Y-110666666D01*
X153880952Y-110714285D01*
X153690476Y-110714285D01*
X153595238Y-110666666D01*
X153547619Y-110571428D01*
X153547619Y-110476190D01*
X154023809Y-110380952D01*
X152738095Y-110095238D02*
X152833333Y-110047619D01*
X153023809Y-110047619D01*
X153119047Y-110095238D01*
X153166666Y-110190476D01*
X153166666Y-110571428D01*
X153119047Y-110666666D01*
X153023809Y-110714285D01*
X152833333Y-110714285D01*
X152738095Y-110666666D01*
X152690476Y-110571428D01*
X152690476Y-110476190D01*
X153166666Y-110380952D01*
X151833333Y-110047619D02*
X151833333Y-111047619D01*
X151833333Y-110095238D02*
X151928571Y-110047619D01*
X152119047Y-110047619D01*
X152214285Y-110095238D01*
X152261904Y-110142857D01*
X152309523Y-110238095D01*
X152309523Y-110523809D01*
X152261904Y-110619047D01*
X152214285Y-110666666D01*
X152119047Y-110714285D01*
X151928571Y-110714285D01*
X151833333Y-110666666D01*
X150976190Y-110095238D02*
X151071428Y-110047619D01*
X151261904Y-110047619D01*
X151357142Y-110095238D01*
X151404761Y-110190476D01*
X151404761Y-110571428D01*
X151357142Y-110666666D01*
X151261904Y-110714285D01*
X151071428Y-110714285D01*
X150976190Y-110666666D01*
X150928571Y-110571428D01*
X150928571Y-110476190D01*
X151404761Y-110380952D01*
X150071428Y-110047619D02*
X150071428Y-111047619D01*
X150071428Y-110095238D02*
X150166666Y-110047619D01*
X150357142Y-110047619D01*
X150452380Y-110095238D01*
X150500000Y-110142857D01*
X150547619Y-110238095D01*
X150547619Y-110523809D01*
X150500000Y-110619047D01*
X150452380Y-110666666D01*
X150357142Y-110714285D01*
X150166666Y-110714285D01*
X150071428Y-110666666D01*
D11*
X167476190Y-40500000D02*
X167285714Y-40404761D01*
X167000000Y-40404761D01*
X166714285Y-40500000D01*
X166523809Y-40690476D01*
X166428571Y-40880952D01*
X166333333Y-41261904D01*
X166333333Y-41547619D01*
X166428571Y-41928571D01*
X166523809Y-42119047D01*
X166714285Y-42309523D01*
X167000000Y-42404761D01*
X167190476Y-42404761D01*
X167476190Y-42309523D01*
X167571428Y-42214285D01*
X167571428Y-41547619D01*
X167190476Y-41547619D01*
X168428571Y-42404761D02*
X168428571Y-40404761D01*
X169571428Y-42404761D01*
X169571428Y-40404761D01*
X170523809Y-42404761D02*
X170523809Y-40404761D01*
X171000000Y-40404761D01*
X171285714Y-40500000D01*
X171476190Y-40690476D01*
X171571428Y-40880952D01*
X171666666Y-41261904D01*
X171666666Y-41547619D01*
X171571428Y-41928571D01*
X171476190Y-42119047D01*
X171285714Y-42309523D01*
X171000000Y-42404761D01*
X170523809Y-42404761D01*
D10*
X91883333Y-81250000D02*
X91850000Y-81283333D01*
X91750000Y-81316666D01*
X91683333Y-81316666D01*
X91583333Y-81283333D01*
X91516666Y-81216666D01*
X91483333Y-81150000D01*
X91450000Y-81016666D01*
X91450000Y-80916666D01*
X91483333Y-80783333D01*
X91516666Y-80716666D01*
X91583333Y-80650000D01*
X91683333Y-80616666D01*
X91750000Y-80616666D01*
X91850000Y-80650000D01*
X91883333Y-80683333D01*
X92483333Y-80616666D02*
X92350000Y-80616666D01*
X92283333Y-80650000D01*
X92250000Y-80683333D01*
X92183333Y-80783333D01*
X92150000Y-80916666D01*
X92150000Y-81183333D01*
X92183333Y-81250000D01*
X92216666Y-81283333D01*
X92283333Y-81316666D01*
X92416666Y-81316666D01*
X92483333Y-81283333D01*
X92516666Y-81250000D01*
X92550000Y-81183333D01*
X92550000Y-81016666D01*
X92516666Y-80950000D01*
X92483333Y-80916666D01*
X92416666Y-80883333D01*
X92283333Y-80883333D01*
X92216666Y-80916666D01*
X92183333Y-80950000D01*
X92150000Y-81016666D01*
D13*
X105116666Y-70616666D02*
X105516666Y-70616666D01*
X105316666Y-71316666D02*
X105316666Y-70616666D01*
X106150000Y-71316666D02*
X105916666Y-70983333D01*
X105750000Y-71316666D02*
X105750000Y-70616666D01*
X106016666Y-70616666D01*
X106083333Y-70650000D01*
X106116666Y-70683333D01*
X106150000Y-70750000D01*
X106150000Y-70850000D01*
X106116666Y-70916666D01*
X106083333Y-70950000D01*
X106016666Y-70983333D01*
X105750000Y-70983333D01*
X106816666Y-71316666D02*
X106416666Y-71316666D01*
X106616666Y-71316666D02*
X106616666Y-70616666D01*
X106550000Y-70716666D01*
X106483333Y-70783333D01*
X106416666Y-70816666D01*
D10*
X111050000Y-76316666D02*
X110816666Y-75983333D01*
X110650000Y-76316666D02*
X110650000Y-75616666D01*
X110916666Y-75616666D01*
X110983333Y-75650000D01*
X111016666Y-75683333D01*
X111050000Y-75750000D01*
X111050000Y-75850000D01*
X111016666Y-75916666D01*
X110983333Y-75950000D01*
X110916666Y-75983333D01*
X110650000Y-75983333D01*
X111716666Y-76316666D02*
X111316666Y-76316666D01*
X111516666Y-76316666D02*
X111516666Y-75616666D01*
X111450000Y-75716666D01*
X111383333Y-75783333D01*
X111316666Y-75816666D01*
X111983333Y-75683333D02*
X112016666Y-75650000D01*
X112083333Y-75616666D01*
X112250000Y-75616666D01*
X112316666Y-75650000D01*
X112350000Y-75683333D01*
X112383333Y-75750000D01*
X112383333Y-75816666D01*
X112350000Y-75916666D01*
X111950000Y-76316666D01*
X112383333Y-76316666D01*
X98383333Y-103250000D02*
X98350000Y-103283333D01*
X98250000Y-103316666D01*
X98183333Y-103316666D01*
X98083333Y-103283333D01*
X98016666Y-103216666D01*
X97983333Y-103150000D01*
X97950000Y-103016666D01*
X97950000Y-102916666D01*
X97983333Y-102783333D01*
X98016666Y-102716666D01*
X98083333Y-102650000D01*
X98183333Y-102616666D01*
X98250000Y-102616666D01*
X98350000Y-102650000D01*
X98383333Y-102683333D01*
X98616666Y-102616666D02*
X99083333Y-102616666D01*
X98783333Y-103316666D01*
X91883333Y-82816666D02*
X91650000Y-82483333D01*
X91483333Y-82816666D02*
X91483333Y-82116666D01*
X91750000Y-82116666D01*
X91816666Y-82150000D01*
X91850000Y-82183333D01*
X91883333Y-82250000D01*
X91883333Y-82350000D01*
X91850000Y-82416666D01*
X91816666Y-82450000D01*
X91750000Y-82483333D01*
X91483333Y-82483333D01*
X92483333Y-82116666D02*
X92350000Y-82116666D01*
X92283333Y-82150000D01*
X92250000Y-82183333D01*
X92183333Y-82283333D01*
X92150000Y-82416666D01*
X92150000Y-82683333D01*
X92183333Y-82750000D01*
X92216666Y-82783333D01*
X92283333Y-82816666D01*
X92416666Y-82816666D01*
X92483333Y-82783333D01*
X92516666Y-82750000D01*
X92550000Y-82683333D01*
X92550000Y-82516666D01*
X92516666Y-82450000D01*
X92483333Y-82416666D01*
X92416666Y-82383333D01*
X92283333Y-82383333D01*
X92216666Y-82416666D01*
X92183333Y-82450000D01*
X92150000Y-82516666D01*
X101633333Y-95276666D02*
X101600000Y-95343333D01*
X101533333Y-95410000D01*
X101433333Y-95510000D01*
X101400000Y-95576666D01*
X101400000Y-95643333D01*
X101566666Y-95610000D02*
X101533333Y-95676666D01*
X101466666Y-95743333D01*
X101333333Y-95776666D01*
X101100000Y-95776666D01*
X100966666Y-95743333D01*
X100900000Y-95676666D01*
X100866666Y-95610000D01*
X100866666Y-95476666D01*
X100900000Y-95410000D01*
X100966666Y-95343333D01*
X101100000Y-95310000D01*
X101333333Y-95310000D01*
X101466666Y-95343333D01*
X101533333Y-95410000D01*
X101566666Y-95476666D01*
X101566666Y-95610000D01*
X100866666Y-95076666D02*
X100866666Y-94643333D01*
X101133333Y-94876666D01*
X101133333Y-94776666D01*
X101166666Y-94710000D01*
X101200000Y-94676666D01*
X101266666Y-94643333D01*
X101433333Y-94643333D01*
X101500000Y-94676666D01*
X101533333Y-94710000D01*
X101566666Y-94776666D01*
X101566666Y-94976666D01*
X101533333Y-95043333D01*
X101500000Y-95076666D01*
D13*
X125683333Y-69633333D02*
X125616666Y-69600000D01*
X125550000Y-69533333D01*
X125450000Y-69433333D01*
X125383333Y-69400000D01*
X125316666Y-69400000D01*
X125350000Y-69566666D02*
X125283333Y-69533333D01*
X125216666Y-69466666D01*
X125183333Y-69333333D01*
X125183333Y-69100000D01*
X125216666Y-68966666D01*
X125283333Y-68900000D01*
X125350000Y-68866666D01*
X125483333Y-68866666D01*
X125550000Y-68900000D01*
X125616666Y-68966666D01*
X125650000Y-69100000D01*
X125650000Y-69333333D01*
X125616666Y-69466666D01*
X125550000Y-69533333D01*
X125483333Y-69566666D01*
X125350000Y-69566666D01*
X126250000Y-69100000D02*
X126250000Y-69566666D01*
X126083333Y-68833333D02*
X125916666Y-69333333D01*
X126350000Y-69333333D01*
D10*
X105483333Y-35316666D02*
X105483333Y-34616666D01*
X105650000Y-34616666D01*
X105750000Y-34650000D01*
X105816666Y-34716666D01*
X105850000Y-34783333D01*
X105883333Y-34916666D01*
X105883333Y-35016666D01*
X105850000Y-35150000D01*
X105816666Y-35216666D01*
X105750000Y-35283333D01*
X105650000Y-35316666D01*
X105483333Y-35316666D01*
X106150000Y-34683333D02*
X106183333Y-34650000D01*
X106250000Y-34616666D01*
X106416666Y-34616666D01*
X106483333Y-34650000D01*
X106516666Y-34683333D01*
X106550000Y-34750000D01*
X106550000Y-34816666D01*
X106516666Y-34916666D01*
X106116666Y-35316666D01*
X106550000Y-35316666D01*
X92238095Y-42952380D02*
X92238095Y-43761904D01*
X92285714Y-43857142D01*
X92333333Y-43904761D01*
X92428571Y-43952380D01*
X92619047Y-43952380D01*
X92714285Y-43904761D01*
X92761904Y-43857142D01*
X92809523Y-43761904D01*
X92809523Y-42952380D01*
X93809523Y-43952380D02*
X93238095Y-43952380D01*
X93523809Y-43952380D02*
X93523809Y-42952380D01*
X93428571Y-43095238D01*
X93333333Y-43190476D01*
X93238095Y-43238095D01*
X87883333Y-71250000D02*
X87850000Y-71283333D01*
X87750000Y-71316666D01*
X87683333Y-71316666D01*
X87583333Y-71283333D01*
X87516666Y-71216666D01*
X87483333Y-71150000D01*
X87450000Y-71016666D01*
X87450000Y-70916666D01*
X87483333Y-70783333D01*
X87516666Y-70716666D01*
X87583333Y-70650000D01*
X87683333Y-70616666D01*
X87750000Y-70616666D01*
X87850000Y-70650000D01*
X87883333Y-70683333D01*
X88216666Y-71316666D02*
X88350000Y-71316666D01*
X88416666Y-71283333D01*
X88450000Y-71250000D01*
X88516666Y-71150000D01*
X88550000Y-71016666D01*
X88550000Y-70750000D01*
X88516666Y-70683333D01*
X88483333Y-70650000D01*
X88416666Y-70616666D01*
X88283333Y-70616666D01*
X88216666Y-70650000D01*
X88183333Y-70683333D01*
X88150000Y-70750000D01*
X88150000Y-70916666D01*
X88183333Y-70983333D01*
X88216666Y-71016666D01*
X88283333Y-71050000D01*
X88416666Y-71050000D01*
X88483333Y-71016666D01*
X88516666Y-70983333D01*
X88550000Y-70916666D01*
D13*
X87466666Y-99616666D02*
X87866666Y-99616666D01*
X87666666Y-100316666D02*
X87666666Y-99616666D01*
X88466666Y-100316666D02*
X88066666Y-100316666D01*
X88266666Y-100316666D02*
X88266666Y-99616666D01*
X88200000Y-99716666D01*
X88133333Y-99783333D01*
X88066666Y-99816666D01*
D10*
X102786666Y-44616666D02*
X102786666Y-45116666D01*
X102753333Y-45216666D01*
X102686666Y-45283333D01*
X102586666Y-45316666D01*
X102520000Y-45316666D01*
X103053333Y-44616666D02*
X103486666Y-44616666D01*
X103253333Y-44883333D01*
X103353333Y-44883333D01*
X103420000Y-44916666D01*
X103453333Y-44950000D01*
X103486666Y-45016666D01*
X103486666Y-45183333D01*
X103453333Y-45250000D01*
X103420000Y-45283333D01*
X103353333Y-45316666D01*
X103153333Y-45316666D01*
X103086666Y-45283333D01*
X103053333Y-45250000D01*
X108050000Y-80750000D02*
X108016666Y-80783333D01*
X107916666Y-80816666D01*
X107850000Y-80816666D01*
X107750000Y-80783333D01*
X107683333Y-80716666D01*
X107650000Y-80650000D01*
X107616666Y-80516666D01*
X107616666Y-80416666D01*
X107650000Y-80283333D01*
X107683333Y-80216666D01*
X107750000Y-80150000D01*
X107850000Y-80116666D01*
X107916666Y-80116666D01*
X108016666Y-80150000D01*
X108050000Y-80183333D01*
X108716666Y-80816666D02*
X108316666Y-80816666D01*
X108516666Y-80816666D02*
X108516666Y-80116666D01*
X108450000Y-80216666D01*
X108383333Y-80283333D01*
X108316666Y-80316666D01*
X109383333Y-80816666D02*
X108983333Y-80816666D01*
X109183333Y-80816666D02*
X109183333Y-80116666D01*
X109116666Y-80216666D01*
X109050000Y-80283333D01*
X108983333Y-80316666D01*
X130250000Y-44116666D02*
X130283333Y-44150000D01*
X130316666Y-44250000D01*
X130316666Y-44316666D01*
X130283333Y-44416666D01*
X130216666Y-44483333D01*
X130150000Y-44516666D01*
X130016666Y-44550000D01*
X129916666Y-44550000D01*
X129783333Y-44516666D01*
X129716666Y-44483333D01*
X129650000Y-44416666D01*
X129616666Y-44316666D01*
X129616666Y-44250000D01*
X129650000Y-44150000D01*
X129683333Y-44116666D01*
X129683333Y-43850000D02*
X129650000Y-43816666D01*
X129616666Y-43750000D01*
X129616666Y-43583333D01*
X129650000Y-43516666D01*
X129683333Y-43483333D01*
X129750000Y-43450000D01*
X129816666Y-43450000D01*
X129916666Y-43483333D01*
X130316666Y-43883333D01*
X130316666Y-43450000D01*
X126383333Y-44066666D02*
X126350000Y-44133333D01*
X126283333Y-44200000D01*
X126183333Y-44300000D01*
X126150000Y-44366666D01*
X126150000Y-44433333D01*
X126316666Y-44400000D02*
X126283333Y-44466666D01*
X126216666Y-44533333D01*
X126083333Y-44566666D01*
X125850000Y-44566666D01*
X125716666Y-44533333D01*
X125650000Y-44466666D01*
X125616666Y-44400000D01*
X125616666Y-44266666D01*
X125650000Y-44200000D01*
X125716666Y-44133333D01*
X125850000Y-44100000D01*
X126083333Y-44100000D01*
X126216666Y-44133333D01*
X126283333Y-44200000D01*
X126316666Y-44266666D01*
X126316666Y-44400000D01*
X126316666Y-43433333D02*
X126316666Y-43833333D01*
X126316666Y-43633333D02*
X125616666Y-43633333D01*
X125716666Y-43700000D01*
X125783333Y-43766666D01*
X125816666Y-43833333D01*
X132316666Y-44116666D02*
X131983333Y-44350000D01*
X132316666Y-44516666D02*
X131616666Y-44516666D01*
X131616666Y-44250000D01*
X131650000Y-44183333D01*
X131683333Y-44150000D01*
X131750000Y-44116666D01*
X131850000Y-44116666D01*
X131916666Y-44150000D01*
X131950000Y-44183333D01*
X131983333Y-44250000D01*
X131983333Y-44516666D01*
X132316666Y-43450000D02*
X132316666Y-43850000D01*
X132316666Y-43650000D02*
X131616666Y-43650000D01*
X131716666Y-43716666D01*
X131783333Y-43783333D01*
X131816666Y-43850000D01*
X111050000Y-82066666D02*
X110816666Y-81733333D01*
X110650000Y-82066666D02*
X110650000Y-81366666D01*
X110916666Y-81366666D01*
X110983333Y-81400000D01*
X111016666Y-81433333D01*
X111050000Y-81500000D01*
X111050000Y-81600000D01*
X111016666Y-81666666D01*
X110983333Y-81700000D01*
X110916666Y-81733333D01*
X110650000Y-81733333D01*
X111716666Y-82066666D02*
X111316666Y-82066666D01*
X111516666Y-82066666D02*
X111516666Y-81366666D01*
X111450000Y-81466666D01*
X111383333Y-81533333D01*
X111316666Y-81566666D01*
X111950000Y-81366666D02*
X112383333Y-81366666D01*
X112150000Y-81633333D01*
X112250000Y-81633333D01*
X112316666Y-81666666D01*
X112350000Y-81700000D01*
X112383333Y-81766666D01*
X112383333Y-81933333D01*
X112350000Y-82000000D01*
X112316666Y-82033333D01*
X112250000Y-82066666D01*
X112050000Y-82066666D01*
X111983333Y-82033333D01*
X111950000Y-82000000D01*
X102383333Y-65750000D02*
X102350000Y-65783333D01*
X102250000Y-65816666D01*
X102183333Y-65816666D01*
X102083333Y-65783333D01*
X102016666Y-65716666D01*
X101983333Y-65650000D01*
X101950000Y-65516666D01*
X101950000Y-65416666D01*
X101983333Y-65283333D01*
X102016666Y-65216666D01*
X102083333Y-65150000D01*
X102183333Y-65116666D01*
X102250000Y-65116666D01*
X102350000Y-65150000D01*
X102383333Y-65183333D01*
X103016666Y-65116666D02*
X102683333Y-65116666D01*
X102650000Y-65450000D01*
X102683333Y-65416666D01*
X102750000Y-65383333D01*
X102916666Y-65383333D01*
X102983333Y-65416666D01*
X103016666Y-65450000D01*
X103050000Y-65516666D01*
X103050000Y-65683333D01*
X103016666Y-65750000D01*
X102983333Y-65783333D01*
X102916666Y-65816666D01*
X102750000Y-65816666D01*
X102683333Y-65783333D01*
X102650000Y-65750000D01*
X119316666Y-43616666D02*
X118983333Y-43850000D01*
X119316666Y-44016666D02*
X118616666Y-44016666D01*
X118616666Y-43750000D01*
X118650000Y-43683333D01*
X118683333Y-43650000D01*
X118750000Y-43616666D01*
X118850000Y-43616666D01*
X118916666Y-43650000D01*
X118950000Y-43683333D01*
X118983333Y-43750000D01*
X118983333Y-44016666D01*
X118616666Y-43383333D02*
X118616666Y-42950000D01*
X118883333Y-43183333D01*
X118883333Y-43083333D01*
X118916666Y-43016666D01*
X118950000Y-42983333D01*
X119016666Y-42950000D01*
X119183333Y-42950000D01*
X119250000Y-42983333D01*
X119283333Y-43016666D01*
X119316666Y-43083333D01*
X119316666Y-43283333D01*
X119283333Y-43350000D01*
X119250000Y-43383333D01*
X91883333Y-79316666D02*
X91650000Y-78983333D01*
X91483333Y-79316666D02*
X91483333Y-78616666D01*
X91750000Y-78616666D01*
X91816666Y-78650000D01*
X91850000Y-78683333D01*
X91883333Y-78750000D01*
X91883333Y-78850000D01*
X91850000Y-78916666D01*
X91816666Y-78950000D01*
X91750000Y-78983333D01*
X91483333Y-78983333D01*
X92216666Y-79316666D02*
X92350000Y-79316666D01*
X92416666Y-79283333D01*
X92450000Y-79250000D01*
X92516666Y-79150000D01*
X92550000Y-79016666D01*
X92550000Y-78750000D01*
X92516666Y-78683333D01*
X92483333Y-78650000D01*
X92416666Y-78616666D01*
X92283333Y-78616666D01*
X92216666Y-78650000D01*
X92183333Y-78683333D01*
X92150000Y-78750000D01*
X92150000Y-78916666D01*
X92183333Y-78983333D01*
X92216666Y-79016666D01*
X92283333Y-79050000D01*
X92416666Y-79050000D01*
X92483333Y-79016666D01*
X92516666Y-78983333D01*
X92550000Y-78916666D01*
X86383333Y-85250000D02*
X86350000Y-85283333D01*
X86250000Y-85316666D01*
X86183333Y-85316666D01*
X86083333Y-85283333D01*
X86016666Y-85216666D01*
X85983333Y-85150000D01*
X85950000Y-85016666D01*
X85950000Y-84916666D01*
X85983333Y-84783333D01*
X86016666Y-84716666D01*
X86083333Y-84650000D01*
X86183333Y-84616666D01*
X86250000Y-84616666D01*
X86350000Y-84650000D01*
X86383333Y-84683333D01*
X86616666Y-84616666D02*
X87050000Y-84616666D01*
X86816666Y-84883333D01*
X86916666Y-84883333D01*
X86983333Y-84916666D01*
X87016666Y-84950000D01*
X87050000Y-85016666D01*
X87050000Y-85183333D01*
X87016666Y-85250000D01*
X86983333Y-85283333D01*
X86916666Y-85316666D01*
X86716666Y-85316666D01*
X86650000Y-85283333D01*
X86616666Y-85250000D01*
X91883333Y-85316666D02*
X91650000Y-84983333D01*
X91483333Y-85316666D02*
X91483333Y-84616666D01*
X91750000Y-84616666D01*
X91816666Y-84650000D01*
X91850000Y-84683333D01*
X91883333Y-84750000D01*
X91883333Y-84850000D01*
X91850000Y-84916666D01*
X91816666Y-84950000D01*
X91750000Y-84983333D01*
X91483333Y-84983333D01*
X92516666Y-84616666D02*
X92183333Y-84616666D01*
X92150000Y-84950000D01*
X92183333Y-84916666D01*
X92250000Y-84883333D01*
X92416666Y-84883333D01*
X92483333Y-84916666D01*
X92516666Y-84950000D01*
X92550000Y-85016666D01*
X92550000Y-85183333D01*
X92516666Y-85250000D01*
X92483333Y-85283333D01*
X92416666Y-85316666D01*
X92250000Y-85316666D01*
X92183333Y-85283333D01*
X92150000Y-85250000D01*
X111636666Y-67516666D02*
X110936666Y-67516666D01*
X110936666Y-67350000D01*
X110970000Y-67250000D01*
X111036666Y-67183333D01*
X111103333Y-67150000D01*
X111236666Y-67116666D01*
X111336666Y-67116666D01*
X111470000Y-67150000D01*
X111536666Y-67183333D01*
X111603333Y-67250000D01*
X111636666Y-67350000D01*
X111636666Y-67516666D01*
X111636666Y-66450000D02*
X111636666Y-66850000D01*
X111636666Y-66650000D02*
X110936666Y-66650000D01*
X111036666Y-66716666D01*
X111103333Y-66783333D01*
X111136666Y-66850000D01*
X130550000Y-92816666D02*
X130316666Y-92483333D01*
X130150000Y-92816666D02*
X130150000Y-92116666D01*
X130416666Y-92116666D01*
X130483333Y-92150000D01*
X130516666Y-92183333D01*
X130550000Y-92250000D01*
X130550000Y-92350000D01*
X130516666Y-92416666D01*
X130483333Y-92450000D01*
X130416666Y-92483333D01*
X130150000Y-92483333D01*
X131216666Y-92816666D02*
X130816666Y-92816666D01*
X131016666Y-92816666D02*
X131016666Y-92116666D01*
X130950000Y-92216666D01*
X130883333Y-92283333D01*
X130816666Y-92316666D01*
X131850000Y-92116666D02*
X131516666Y-92116666D01*
X131483333Y-92450000D01*
X131516666Y-92416666D01*
X131583333Y-92383333D01*
X131750000Y-92383333D01*
X131816666Y-92416666D01*
X131850000Y-92450000D01*
X131883333Y-92516666D01*
X131883333Y-92683333D01*
X131850000Y-92750000D01*
X131816666Y-92783333D01*
X131750000Y-92816666D01*
X131583333Y-92816666D01*
X131516666Y-92783333D01*
X131483333Y-92750000D01*
X91883333Y-87316666D02*
X91650000Y-86983333D01*
X91483333Y-87316666D02*
X91483333Y-86616666D01*
X91750000Y-86616666D01*
X91816666Y-86650000D01*
X91850000Y-86683333D01*
X91883333Y-86750000D01*
X91883333Y-86850000D01*
X91850000Y-86916666D01*
X91816666Y-86950000D01*
X91750000Y-86983333D01*
X91483333Y-86983333D01*
X92116666Y-86616666D02*
X92583333Y-86616666D01*
X92283333Y-87316666D01*
X103550000Y-103316666D02*
X103316666Y-102983333D01*
X103150000Y-103316666D02*
X103150000Y-102616666D01*
X103416666Y-102616666D01*
X103483333Y-102650000D01*
X103516666Y-102683333D01*
X103550000Y-102750000D01*
X103550000Y-102850000D01*
X103516666Y-102916666D01*
X103483333Y-102950000D01*
X103416666Y-102983333D01*
X103150000Y-102983333D01*
X104216666Y-103316666D02*
X103816666Y-103316666D01*
X104016666Y-103316666D02*
X104016666Y-102616666D01*
X103950000Y-102716666D01*
X103883333Y-102783333D01*
X103816666Y-102816666D01*
X104650000Y-102616666D02*
X104716666Y-102616666D01*
X104783333Y-102650000D01*
X104816666Y-102683333D01*
X104850000Y-102750000D01*
X104883333Y-102883333D01*
X104883333Y-103050000D01*
X104850000Y-103183333D01*
X104816666Y-103250000D01*
X104783333Y-103283333D01*
X104716666Y-103316666D01*
X104650000Y-103316666D01*
X104583333Y-103283333D01*
X104550000Y-103250000D01*
X104516666Y-103183333D01*
X104483333Y-103050000D01*
X104483333Y-102883333D01*
X104516666Y-102750000D01*
X104550000Y-102683333D01*
X104583333Y-102650000D01*
X104650000Y-102616666D01*
X107816666Y-75450000D02*
X107483333Y-75683333D01*
X107816666Y-75850000D02*
X107116666Y-75850000D01*
X107116666Y-75583333D01*
X107150000Y-75516666D01*
X107183333Y-75483333D01*
X107250000Y-75450000D01*
X107350000Y-75450000D01*
X107416666Y-75483333D01*
X107450000Y-75516666D01*
X107483333Y-75583333D01*
X107483333Y-75850000D01*
X107816666Y-74783333D02*
X107816666Y-75183333D01*
X107816666Y-74983333D02*
X107116666Y-74983333D01*
X107216666Y-75050000D01*
X107283333Y-75116666D01*
X107316666Y-75183333D01*
X107816666Y-74116666D02*
X107816666Y-74516666D01*
X107816666Y-74316666D02*
X107116666Y-74316666D01*
X107216666Y-74383333D01*
X107283333Y-74450000D01*
X107316666Y-74516666D01*
X110433333Y-52383333D02*
X110366666Y-52350000D01*
X110300000Y-52283333D01*
X110200000Y-52183333D01*
X110133333Y-52150000D01*
X110066666Y-52150000D01*
X110100000Y-52316666D02*
X110033333Y-52283333D01*
X109966666Y-52216666D01*
X109933333Y-52083333D01*
X109933333Y-51850000D01*
X109966666Y-51716666D01*
X110033333Y-51650000D01*
X110100000Y-51616666D01*
X110233333Y-51616666D01*
X110300000Y-51650000D01*
X110366666Y-51716666D01*
X110400000Y-51850000D01*
X110400000Y-52083333D01*
X110366666Y-52216666D01*
X110300000Y-52283333D01*
X110233333Y-52316666D01*
X110100000Y-52316666D01*
X110666666Y-51683333D02*
X110700000Y-51650000D01*
X110766666Y-51616666D01*
X110933333Y-51616666D01*
X111000000Y-51650000D01*
X111033333Y-51683333D01*
X111066666Y-51750000D01*
X111066666Y-51816666D01*
X111033333Y-51916666D01*
X110633333Y-52316666D01*
X111066666Y-52316666D01*
X117357142Y-68642857D02*
X117404761Y-68690476D01*
X117452380Y-68833333D01*
X117452380Y-68928571D01*
X117404761Y-69071428D01*
X117309523Y-69166666D01*
X117214285Y-69214285D01*
X117023809Y-69261904D01*
X116880952Y-69261904D01*
X116690476Y-69214285D01*
X116595238Y-69166666D01*
X116500000Y-69071428D01*
X116452380Y-68928571D01*
X116452380Y-68833333D01*
X116500000Y-68690476D01*
X116547619Y-68642857D01*
X117452380Y-67690476D02*
X117452380Y-68261904D01*
X117452380Y-67976190D02*
X116452380Y-67976190D01*
X116595238Y-68071428D01*
X116690476Y-68166666D01*
X116738095Y-68261904D01*
X116547619Y-67309523D02*
X116500000Y-67261904D01*
X116452380Y-67166666D01*
X116452380Y-66928571D01*
X116500000Y-66833333D01*
X116547619Y-66785714D01*
X116642857Y-66738095D01*
X116738095Y-66738095D01*
X116880952Y-66785714D01*
X117452380Y-67357142D01*
X117452380Y-66738095D01*
X130550000Y-66316666D02*
X130316666Y-65983333D01*
X130150000Y-66316666D02*
X130150000Y-65616666D01*
X130416666Y-65616666D01*
X130483333Y-65650000D01*
X130516666Y-65683333D01*
X130550000Y-65750000D01*
X130550000Y-65850000D01*
X130516666Y-65916666D01*
X130483333Y-65950000D01*
X130416666Y-65983333D01*
X130150000Y-65983333D01*
X131216666Y-66316666D02*
X130816666Y-66316666D01*
X131016666Y-66316666D02*
X131016666Y-65616666D01*
X130950000Y-65716666D01*
X130883333Y-65783333D01*
X130816666Y-65816666D01*
X131816666Y-65850000D02*
X131816666Y-66316666D01*
X131650000Y-65583333D02*
X131483333Y-66083333D01*
X131916666Y-66083333D01*
D13*
X142699166Y-77966666D02*
X143099166Y-77966666D01*
X142899166Y-78666666D02*
X142899166Y-77966666D01*
X143299166Y-78033333D02*
X143332500Y-78000000D01*
X143399166Y-77966666D01*
X143565833Y-77966666D01*
X143632500Y-78000000D01*
X143665833Y-78033333D01*
X143699166Y-78100000D01*
X143699166Y-78166666D01*
X143665833Y-78266666D01*
X143265833Y-78666666D01*
X143699166Y-78666666D01*
D10*
X83750000Y-84116666D02*
X83783333Y-84150000D01*
X83816666Y-84250000D01*
X83816666Y-84316666D01*
X83783333Y-84416666D01*
X83716666Y-84483333D01*
X83650000Y-84516666D01*
X83516666Y-84550000D01*
X83416666Y-84550000D01*
X83283333Y-84516666D01*
X83216666Y-84483333D01*
X83150000Y-84416666D01*
X83116666Y-84316666D01*
X83116666Y-84250000D01*
X83150000Y-84150000D01*
X83183333Y-84116666D01*
X83816666Y-83450000D02*
X83816666Y-83850000D01*
X83816666Y-83650000D02*
X83116666Y-83650000D01*
X83216666Y-83716666D01*
X83283333Y-83783333D01*
X83316666Y-83850000D01*
X137766666Y-44616666D02*
X137766666Y-45116666D01*
X137733333Y-45216666D01*
X137666666Y-45283333D01*
X137566666Y-45316666D01*
X137500000Y-45316666D01*
X138066666Y-44683333D02*
X138100000Y-44650000D01*
X138166666Y-44616666D01*
X138333333Y-44616666D01*
X138400000Y-44650000D01*
X138433333Y-44683333D01*
X138466666Y-44750000D01*
X138466666Y-44816666D01*
X138433333Y-44916666D01*
X138033333Y-45316666D01*
X138466666Y-45316666D01*
X98816666Y-59916666D02*
X98483333Y-60150000D01*
X98816666Y-60316666D02*
X98116666Y-60316666D01*
X98116666Y-60050000D01*
X98150000Y-59983333D01*
X98183333Y-59950000D01*
X98250000Y-59916666D01*
X98350000Y-59916666D01*
X98416666Y-59950000D01*
X98450000Y-59983333D01*
X98483333Y-60050000D01*
X98483333Y-60316666D01*
X98116666Y-59716666D02*
X98816666Y-59483333D01*
X98116666Y-59250000D01*
X98816666Y-58650000D02*
X98816666Y-59050000D01*
X98816666Y-58850000D02*
X98116666Y-58850000D01*
X98216666Y-58916666D01*
X98283333Y-58983333D01*
X98316666Y-59050000D01*
X130883333Y-37166666D02*
X130650000Y-36833333D01*
X130483333Y-37166666D02*
X130483333Y-36466666D01*
X130750000Y-36466666D01*
X130816666Y-36500000D01*
X130850000Y-36533333D01*
X130883333Y-36600000D01*
X130883333Y-36700000D01*
X130850000Y-36766666D01*
X130816666Y-36800000D01*
X130750000Y-36833333D01*
X130483333Y-36833333D01*
X131150000Y-36533333D02*
X131183333Y-36500000D01*
X131250000Y-36466666D01*
X131416666Y-36466666D01*
X131483333Y-36500000D01*
X131516666Y-36533333D01*
X131550000Y-36600000D01*
X131550000Y-36666666D01*
X131516666Y-36766666D01*
X131116666Y-37166666D01*
X131550000Y-37166666D01*
X116750000Y-43616666D02*
X116783333Y-43650000D01*
X116816666Y-43750000D01*
X116816666Y-43816666D01*
X116783333Y-43916666D01*
X116716666Y-43983333D01*
X116650000Y-44016666D01*
X116516666Y-44050000D01*
X116416666Y-44050000D01*
X116283333Y-44016666D01*
X116216666Y-43983333D01*
X116150000Y-43916666D01*
X116116666Y-43816666D01*
X116116666Y-43750000D01*
X116150000Y-43650000D01*
X116183333Y-43616666D01*
X116350000Y-43016666D02*
X116816666Y-43016666D01*
X116083333Y-43183333D02*
X116583333Y-43350000D01*
X116583333Y-42916666D01*
X87750000Y-60116666D02*
X87783333Y-60150000D01*
X87816666Y-60250000D01*
X87816666Y-60316666D01*
X87783333Y-60416666D01*
X87716666Y-60483333D01*
X87650000Y-60516666D01*
X87516666Y-60550000D01*
X87416666Y-60550000D01*
X87283333Y-60516666D01*
X87216666Y-60483333D01*
X87150000Y-60416666D01*
X87116666Y-60316666D01*
X87116666Y-60250000D01*
X87150000Y-60150000D01*
X87183333Y-60116666D01*
X87416666Y-59716666D02*
X87383333Y-59783333D01*
X87350000Y-59816666D01*
X87283333Y-59850000D01*
X87250000Y-59850000D01*
X87183333Y-59816666D01*
X87150000Y-59783333D01*
X87116666Y-59716666D01*
X87116666Y-59583333D01*
X87150000Y-59516666D01*
X87183333Y-59483333D01*
X87250000Y-59450000D01*
X87283333Y-59450000D01*
X87350000Y-59483333D01*
X87383333Y-59516666D01*
X87416666Y-59583333D01*
X87416666Y-59716666D01*
X87450000Y-59783333D01*
X87483333Y-59816666D01*
X87550000Y-59850000D01*
X87683333Y-59850000D01*
X87750000Y-59816666D01*
X87783333Y-59783333D01*
X87816666Y-59716666D01*
X87816666Y-59583333D01*
X87783333Y-59516666D01*
X87750000Y-59483333D01*
X87683333Y-59450000D01*
X87550000Y-59450000D01*
X87483333Y-59483333D01*
X87450000Y-59516666D01*
X87416666Y-59583333D01*
D13*
X150216666Y-79783333D02*
X150216666Y-79383333D01*
X150916666Y-79583333D02*
X150216666Y-79583333D01*
X150216666Y-79216666D02*
X150216666Y-78783333D01*
X150483333Y-79016666D01*
X150483333Y-78916666D01*
X150516666Y-78850000D01*
X150550000Y-78816666D01*
X150616666Y-78783333D01*
X150783333Y-78783333D01*
X150850000Y-78816666D01*
X150883333Y-78850000D01*
X150916666Y-78916666D01*
X150916666Y-79116666D01*
X150883333Y-79183333D01*
X150850000Y-79216666D01*
D10*
X87050000Y-67250000D02*
X87016666Y-67283333D01*
X86916666Y-67316666D01*
X86850000Y-67316666D01*
X86750000Y-67283333D01*
X86683333Y-67216666D01*
X86650000Y-67150000D01*
X86616666Y-67016666D01*
X86616666Y-66916666D01*
X86650000Y-66783333D01*
X86683333Y-66716666D01*
X86750000Y-66650000D01*
X86850000Y-66616666D01*
X86916666Y-66616666D01*
X87016666Y-66650000D01*
X87050000Y-66683333D01*
X87716666Y-67316666D02*
X87316666Y-67316666D01*
X87516666Y-67316666D02*
X87516666Y-66616666D01*
X87450000Y-66716666D01*
X87383333Y-66783333D01*
X87316666Y-66816666D01*
X88150000Y-66616666D02*
X88216666Y-66616666D01*
X88283333Y-66650000D01*
X88316666Y-66683333D01*
X88350000Y-66750000D01*
X88383333Y-66883333D01*
X88383333Y-67050000D01*
X88350000Y-67183333D01*
X88316666Y-67250000D01*
X88283333Y-67283333D01*
X88216666Y-67316666D01*
X88150000Y-67316666D01*
X88083333Y-67283333D01*
X88050000Y-67250000D01*
X88016666Y-67183333D01*
X87983333Y-67050000D01*
X87983333Y-66883333D01*
X88016666Y-66750000D01*
X88050000Y-66683333D01*
X88083333Y-66650000D01*
X88150000Y-66616666D01*
X99816666Y-70116666D02*
X99483333Y-70350000D01*
X99816666Y-70516666D02*
X99116666Y-70516666D01*
X99116666Y-70250000D01*
X99150000Y-70183333D01*
X99183333Y-70150000D01*
X99250000Y-70116666D01*
X99350000Y-70116666D01*
X99416666Y-70150000D01*
X99450000Y-70183333D01*
X99483333Y-70250000D01*
X99483333Y-70516666D01*
X99416666Y-69716666D02*
X99383333Y-69783333D01*
X99350000Y-69816666D01*
X99283333Y-69850000D01*
X99250000Y-69850000D01*
X99183333Y-69816666D01*
X99150000Y-69783333D01*
X99116666Y-69716666D01*
X99116666Y-69583333D01*
X99150000Y-69516666D01*
X99183333Y-69483333D01*
X99250000Y-69450000D01*
X99283333Y-69450000D01*
X99350000Y-69483333D01*
X99383333Y-69516666D01*
X99416666Y-69583333D01*
X99416666Y-69716666D01*
X99450000Y-69783333D01*
X99483333Y-69816666D01*
X99550000Y-69850000D01*
X99683333Y-69850000D01*
X99750000Y-69816666D01*
X99783333Y-69783333D01*
X99816666Y-69716666D01*
X99816666Y-69583333D01*
X99783333Y-69516666D01*
X99750000Y-69483333D01*
X99683333Y-69450000D01*
X99550000Y-69450000D01*
X99483333Y-69483333D01*
X99450000Y-69516666D01*
X99416666Y-69583333D01*
X117857142Y-91142857D02*
X117904761Y-91190476D01*
X117952380Y-91333333D01*
X117952380Y-91428571D01*
X117904761Y-91571428D01*
X117809523Y-91666666D01*
X117714285Y-91714285D01*
X117523809Y-91761904D01*
X117380952Y-91761904D01*
X117190476Y-91714285D01*
X117095238Y-91666666D01*
X117000000Y-91571428D01*
X116952380Y-91428571D01*
X116952380Y-91333333D01*
X117000000Y-91190476D01*
X117047619Y-91142857D01*
X117952380Y-90190476D02*
X117952380Y-90761904D01*
X117952380Y-90476190D02*
X116952380Y-90476190D01*
X117095238Y-90571428D01*
X117190476Y-90666666D01*
X117238095Y-90761904D01*
X116952380Y-89857142D02*
X116952380Y-89238095D01*
X117333333Y-89571428D01*
X117333333Y-89428571D01*
X117380952Y-89333333D01*
X117428571Y-89285714D01*
X117523809Y-89238095D01*
X117761904Y-89238095D01*
X117857142Y-89285714D01*
X117904761Y-89333333D01*
X117952380Y-89428571D01*
X117952380Y-89714285D01*
X117904761Y-89809523D01*
X117857142Y-89857142D01*
X121883333Y-43966666D02*
X121650000Y-43633333D01*
X121483333Y-43966666D02*
X121483333Y-43266666D01*
X121750000Y-43266666D01*
X121816666Y-43300000D01*
X121850000Y-43333333D01*
X121883333Y-43400000D01*
X121883333Y-43500000D01*
X121850000Y-43566666D01*
X121816666Y-43600000D01*
X121750000Y-43633333D01*
X121483333Y-43633333D01*
X122483333Y-43500000D02*
X122483333Y-43966666D01*
X122316666Y-43233333D02*
X122150000Y-43733333D01*
X122583333Y-43733333D01*
D14*
X179476190Y-72966666D02*
X179833333Y-72966666D01*
X179904761Y-72990476D01*
X179952380Y-73038095D01*
X179976190Y-73109523D01*
X179976190Y-73157142D01*
X179642857Y-72514285D02*
X179976190Y-72514285D01*
X179452380Y-72633333D02*
X179809523Y-72752380D01*
X179809523Y-72442857D01*
D15*
X95261252Y-80265000D02*
X94738748Y-80265000D01*
X95261252Y-81735000D02*
X94738748Y-81735000D01*
X110000000Y-85500000D02*
X104000000Y-85500000D01*
X104000000Y-85500000D02*
X104000000Y-72000000D01*
X104000000Y-72000000D02*
X110000000Y-72000000D01*
X110000000Y-72000000D02*
X110000000Y-85500000D01*
X114727064Y-75165000D02*
X114272936Y-75165000D01*
X114727064Y-76635000D02*
X114272936Y-76635000D01*
X98238748Y-100515000D02*
X98761252Y-100515000D01*
X98238748Y-101985000D02*
X98761252Y-101985000D01*
X95227064Y-83735000D02*
X94772936Y-83735000D01*
X95227064Y-82265000D02*
X94772936Y-82265000D01*
X97361961Y-99875856D02*
X98252916Y-98984902D01*
X97475098Y-98207084D02*
X96584144Y-99098039D01*
X96584144Y-99098039D02*
X97361961Y-99875856D01*
X98252629Y-98984674D02*
G75*
G03*
X97475098Y-98207084I2997371J3774674D01*
G01*
X128300000Y-70450000D02*
X119300000Y-70450000D01*
X119300000Y-70450000D02*
X119300000Y-87950000D01*
X119300000Y-87950000D02*
X128300000Y-87950000D01*
X128300000Y-87950000D02*
X128300000Y-70450000D01*
X125300000Y-87450000D02*
X122300000Y-87450000D01*
X122300000Y-87450000D02*
X122300000Y-88450000D01*
X122300000Y-88450000D02*
X125300000Y-88450000D01*
X125300000Y-88450000D02*
X125300000Y-87450000D01*
X125300000Y-69950000D02*
X122300000Y-69950000D01*
X122300000Y-69950000D02*
X122300000Y-70950000D01*
X122300000Y-70950000D02*
X125300000Y-70950000D01*
X125300000Y-70950000D02*
X125300000Y-69950000D01*
X121800000Y-85450000D02*
G75*
G03*
X121800000Y-85450000I-500000J0D01*
G01*
X126800000Y-72950000D02*
G75*
G03*
X126800000Y-72950000I-500000J0D01*
G01*
X127800000Y-85450000D02*
G75*
G03*
X127800000Y-85450000I-500000J0D01*
G01*
X98865000Y-33040000D02*
X98865000Y-36960000D01*
X98865000Y-36960000D02*
X104250000Y-36960000D01*
X104250000Y-33040000D02*
X98865000Y-33040000D01*
X89820000Y-52470000D02*
X89820000Y-55300000D01*
X96180000Y-52470000D02*
X96180000Y-53570000D01*
X96450000Y-50970000D02*
X96450000Y-52470000D01*
X89550000Y-50970000D02*
X89550000Y-52470000D01*
X89550000Y-52470000D02*
X89820000Y-52470000D01*
X96450000Y-52470000D02*
X96180000Y-52470000D01*
X98085000Y-73760000D02*
X98085000Y-69240000D01*
X89850000Y-73760000D02*
X98085000Y-73760000D01*
X98085000Y-69240000D02*
X89850000Y-69240000D01*
X91500000Y-98000000D02*
X84500000Y-98000000D01*
X84500000Y-98000000D02*
X84500000Y-92000000D01*
X84500000Y-92000000D02*
X91500000Y-92000000D01*
X91500000Y-92000000D02*
X91500000Y-98000000D01*
X100730000Y-43010000D02*
X103270000Y-43010000D01*
X104650000Y-37990000D02*
X99350000Y-37990000D01*
X100980000Y-42480000D02*
X103020000Y-42480000D01*
X99930000Y-37990000D02*
X99930000Y-38590000D01*
X99930000Y-38590000D02*
X101530000Y-38590000D01*
X99350000Y-44010000D02*
X104650000Y-44010000D01*
X104070000Y-38590000D02*
X104070000Y-37990000D01*
X100730000Y-44010000D02*
X100730000Y-43010000D01*
X102470000Y-37990000D02*
X102470000Y-38590000D01*
X104650000Y-44010000D02*
X104650000Y-37990000D01*
X99350000Y-37990000D02*
X99350000Y-44010000D01*
X103020000Y-42480000D02*
X103270000Y-43010000D01*
X103270000Y-43010000D02*
X103270000Y-44010000D01*
X103020000Y-44010000D02*
X103020000Y-43010000D01*
X100980000Y-44010000D02*
X100980000Y-43010000D01*
X99060000Y-39020000D02*
X99060000Y-43020000D01*
X101530000Y-38590000D02*
X101530000Y-37990000D01*
X102470000Y-38590000D02*
X104070000Y-38590000D01*
X100730000Y-43010000D02*
X100980000Y-42480000D01*
X108623752Y-79735000D02*
X108101248Y-79735000D01*
X108623752Y-78265000D02*
X108101248Y-78265000D01*
X130735000Y-41238748D02*
X130735000Y-41761252D01*
X129265000Y-41238748D02*
X129265000Y-41761252D01*
X124420000Y-41260000D02*
X124420000Y-39800000D01*
X127580000Y-41260000D02*
X127580000Y-38100000D01*
X127580000Y-41260000D02*
X126650000Y-41260000D01*
X124420000Y-41260000D02*
X125350000Y-41260000D01*
X132735000Y-41727064D02*
X132735000Y-41272936D01*
X131265000Y-41727064D02*
X131265000Y-41272936D01*
X114727064Y-80865000D02*
X114272936Y-80865000D01*
X114727064Y-82335000D02*
X114272936Y-82335000D01*
X102238748Y-67735000D02*
X102761252Y-67735000D01*
X102238748Y-66265000D02*
X102761252Y-66265000D01*
X119735000Y-40772936D02*
X119735000Y-41227064D01*
X118265000Y-40772936D02*
X118265000Y-41227064D01*
X95227064Y-79735000D02*
X94772936Y-79735000D01*
X95227064Y-78265000D02*
X94772936Y-78265000D01*
X88738748Y-85735000D02*
X89261252Y-85735000D01*
X88738748Y-84265000D02*
X89261252Y-84265000D01*
X95227064Y-84265000D02*
X94772936Y-84265000D01*
X95227064Y-85735000D02*
X94772936Y-85735000D01*
X106365000Y-63540000D02*
X106365000Y-69600000D01*
X110635000Y-63540000D02*
X106365000Y-63540000D01*
X110635000Y-69600000D02*
X110635000Y-63540000D01*
X129297369Y-91710000D02*
X127702631Y-91710000D01*
X129297369Y-87290000D02*
X127702631Y-87290000D01*
X94772936Y-86265000D02*
X95227064Y-86265000D01*
X94772936Y-87735000D02*
X95227064Y-87735000D01*
X104477064Y-101985000D02*
X104022936Y-101985000D01*
X104477064Y-100515000D02*
X104022936Y-100515000D01*
X109735000Y-75772936D02*
X109735000Y-76227064D01*
X108265000Y-75772936D02*
X108265000Y-76227064D01*
X107050000Y-43430000D02*
X107320000Y-43430000D01*
X107050000Y-44930000D02*
X107050000Y-43430000D01*
X113950000Y-43430000D02*
X113680000Y-43430000D01*
X107320000Y-43430000D02*
X107320000Y-42330000D01*
X113680000Y-43430000D02*
X113680000Y-40600000D01*
X113950000Y-44930000D02*
X113950000Y-43430000D01*
X118210000Y-72911252D02*
X118210000Y-71488748D01*
X116390000Y-72911252D02*
X116390000Y-71488748D01*
X129297369Y-71210000D02*
X127702631Y-71210000D01*
X129297369Y-66790000D02*
X127702631Y-66790000D01*
X150232500Y-86750000D02*
X136232500Y-86750000D01*
X136232500Y-86750000D02*
X136232500Y-73250000D01*
X136232500Y-73250000D02*
X150232500Y-73250000D01*
X150232500Y-73250000D02*
X150232500Y-86750000D01*
X84265000Y-83738748D02*
X84265000Y-84261252D01*
X85735000Y-83738748D02*
X85735000Y-84261252D01*
X139070000Y-38590000D02*
X139070000Y-37990000D01*
X139650000Y-37990000D02*
X134350000Y-37990000D01*
X135730000Y-43010000D02*
X135980000Y-42480000D01*
X138270000Y-43010000D02*
X138270000Y-44010000D01*
X137470000Y-37990000D02*
X137470000Y-38590000D01*
X137470000Y-38590000D02*
X139070000Y-38590000D01*
X134060000Y-39020000D02*
X134060000Y-43020000D01*
X134930000Y-37990000D02*
X134930000Y-38590000D01*
X134350000Y-44010000D02*
X139650000Y-44010000D01*
X134350000Y-37990000D02*
X134350000Y-44010000D01*
X138020000Y-42480000D02*
X138270000Y-43010000D01*
X135980000Y-44010000D02*
X135980000Y-43010000D01*
X135730000Y-44010000D02*
X135730000Y-43010000D01*
X135730000Y-43010000D02*
X138270000Y-43010000D01*
X138020000Y-44010000D02*
X138020000Y-43010000D01*
X134930000Y-38590000D02*
X136530000Y-38590000D01*
X136530000Y-38590000D02*
X136530000Y-37990000D01*
X139650000Y-44010000D02*
X139650000Y-37990000D01*
X135980000Y-42480000D02*
X138020000Y-42480000D01*
X97100000Y-61500000D02*
X97100000Y-58600000D01*
X95300000Y-62600000D02*
X95700000Y-62600000D01*
X93700000Y-62400000D02*
X93700000Y-63100000D01*
X97100000Y-58600000D02*
X96500000Y-58600000D01*
X93900000Y-61500000D02*
X93900000Y-58600000D01*
X93700000Y-63100000D02*
X94400000Y-63100000D01*
X93900000Y-58600000D02*
X94500000Y-58600000D01*
X130772936Y-39235000D02*
X131227064Y-39235000D01*
X130772936Y-37765000D02*
X131227064Y-37765000D01*
D16*
X82000260Y-80999740D02*
X82000260Y-75000260D01*
X87999740Y-80999740D02*
X82000260Y-80999740D01*
X87999740Y-75000260D02*
X87999740Y-80999740D01*
X82000260Y-75000260D02*
X87999740Y-75000260D01*
D17*
X86501140Y-78000000D02*
G75*
G03*
X86501140Y-78000000I-1501140J0D01*
G01*
X85500380Y-78000000D02*
G75*
G03*
X85500380Y-78000000I-500380J0D01*
G01*
D16*
X87371904Y-78000000D02*
G75*
G03*
X87371904Y-78000000I-2371904J0D01*
G01*
X87548957Y-78000000D02*
G75*
G03*
X87548957Y-78000000I-2548957J0D01*
G01*
D15*
X117235000Y-40738748D02*
X117235000Y-41261252D01*
X115765000Y-40738748D02*
X115765000Y-41261252D01*
X88290000Y-57000000D02*
X88290000Y-63935000D01*
X88290000Y-63935000D02*
X91710000Y-63935000D01*
X91710000Y-63935000D02*
X91710000Y-57000000D01*
X164000000Y-92250000D02*
X138000000Y-92250000D01*
X138000000Y-92250000D02*
X138000000Y-79750000D01*
X138000000Y-79750000D02*
X164000000Y-79750000D01*
X164000000Y-79750000D02*
X164000000Y-92250000D01*
X164000000Y-78750000D02*
X138000000Y-78750000D01*
X138000000Y-78750000D02*
X138000000Y-66250000D01*
X138000000Y-66250000D02*
X164000000Y-66250000D01*
X164000000Y-66250000D02*
X164000000Y-78750000D01*
X98085000Y-64240000D02*
X89850000Y-64240000D01*
X98085000Y-68760000D02*
X98085000Y-64240000D01*
X89850000Y-68760000D02*
X98085000Y-68760000D01*
X101735000Y-70227064D02*
X101735000Y-69772936D01*
X100265000Y-70227064D02*
X100265000Y-69772936D01*
X118310000Y-86911252D02*
X118310000Y-85488748D01*
X116490000Y-86911252D02*
X116490000Y-85488748D01*
X122227064Y-41265000D02*
X121772936Y-41265000D01*
X122227064Y-42735000D02*
X121772936Y-42735000D01*
D16*
X177999740Y-75799740D02*
X172000260Y-75799740D01*
X177999740Y-69800260D02*
X177999740Y-75799740D01*
X172000260Y-69800260D02*
X177999740Y-69800260D01*
X172000260Y-75799740D02*
X172000260Y-69800260D01*
D17*
X175500380Y-72800000D02*
G75*
G03*
X175500380Y-72800000I-500380J0D01*
G01*
D16*
X177371904Y-72800000D02*
G75*
G03*
X177371904Y-72800000I-2371904J0D01*
G01*
D17*
X176501140Y-72800000D02*
G75*
G03*
X176501140Y-72800000I-1501140J0D01*
G01*
D16*
X177548957Y-72800000D02*
G75*
G03*
X177548957Y-72800000I-2548957J0D01*
G01*
D18*
X85000000Y-78000000D03*
D19*
X82460000Y-75460000D03*
X87540000Y-75460000D03*
X82460000Y-80540000D03*
X87540000Y-80540000D03*
D18*
X175000000Y-72800000D03*
D19*
X172460000Y-75340000D03*
X172460000Y-70260000D03*
X177540000Y-70260000D03*
X177540000Y-75340000D03*
%LPC*%
D20*
X85000000Y-35000000D03*
D21*
X96037500Y-81000000D03*
X93962500Y-81000000D03*
D22*
X101500000Y-84000000D03*
X101500000Y-79000000D03*
X101500000Y-73500000D03*
X112500000Y-73500000D03*
X112500000Y-79000000D03*
X112500000Y-84000000D03*
D23*
X115500000Y-75900000D03*
X113500000Y-75900000D03*
D24*
X97462500Y-101250000D03*
X99537500Y-101250000D03*
D23*
X96000000Y-83000000D03*
X94000000Y-83000000D03*
D20*
X85000000Y-106000000D03*
D25*
X169000000Y-49000000D03*
D26*
X101250000Y-101750000D03*
D27*
X107750000Y-95250000D03*
D26*
X101250000Y-88750000D03*
D28*
X117900000Y-76500000D03*
X117900000Y-81900000D03*
X129700000Y-81900000D03*
X129700000Y-76500000D03*
D29*
X99775000Y-35000000D03*
X104225000Y-35000000D03*
D30*
X90720000Y-54200000D03*
D31*
X93000000Y-47900000D03*
D30*
X95280000Y-54200000D03*
D32*
X96700000Y-71500000D03*
X90300000Y-71500000D03*
D33*
X85000000Y-90000000D03*
X88000000Y-90000000D03*
X91000000Y-90000000D03*
D20*
X175000000Y-106000000D03*
D34*
X100730000Y-41020000D03*
D35*
X103270000Y-41020000D03*
D21*
X109400000Y-79000000D03*
X107325000Y-79000000D03*
D36*
X130000000Y-40462500D03*
X130000000Y-42537500D03*
D37*
X126950000Y-39000000D03*
X125050000Y-39000000D03*
X126000000Y-42000000D03*
D38*
X132000000Y-42500000D03*
X132000000Y-40500000D03*
D25*
X151000000Y-49000000D03*
D23*
X115500000Y-81600000D03*
X113500000Y-81600000D03*
D24*
X101462500Y-67000000D03*
X103537500Y-67000000D03*
D39*
X119000000Y-40000000D03*
X119000000Y-42000000D03*
D23*
X96000000Y-79000000D03*
X94000000Y-79000000D03*
D24*
X87962500Y-85000000D03*
X90037500Y-85000000D03*
D23*
X96000000Y-85000000D03*
X94000000Y-85000000D03*
D20*
X175000000Y-35000000D03*
D40*
X108500000Y-64725000D03*
X108500000Y-69275000D03*
D41*
X131100000Y-89500000D03*
X114000000Y-89500000D03*
D42*
X94000000Y-87000000D03*
X96000000Y-87000000D03*
D23*
X105250000Y-101250000D03*
X103250000Y-101250000D03*
D39*
X109000000Y-75000000D03*
X109000000Y-77000000D03*
D30*
X112780000Y-41700000D03*
D31*
X110500000Y-48000000D03*
D30*
X108220000Y-41700000D03*
D43*
X117300000Y-73762500D03*
X117300000Y-70637500D03*
D41*
X131100000Y-69000000D03*
X114000000Y-69000000D03*
D44*
X134232500Y-81250000D03*
X134232500Y-77250000D03*
D36*
X85000000Y-82962500D03*
X85000000Y-85037500D03*
D34*
X135730000Y-41020000D03*
D35*
X138270000Y-41020000D03*
D45*
X94000000Y-62300000D03*
D46*
X95500000Y-59050000D03*
D45*
X97000000Y-62300000D03*
D42*
X130000000Y-38500000D03*
X132000000Y-38500000D03*
D18*
X85000000Y-78000000D03*
D19*
X82460000Y-75460000D03*
X87540000Y-75460000D03*
X82460000Y-80540000D03*
X87540000Y-80540000D03*
D36*
X116500000Y-39962500D03*
X116500000Y-42037500D03*
D47*
X90000000Y-62550000D03*
X90000000Y-57450000D03*
D48*
X134500000Y-72750000D03*
X134500000Y-85750000D03*
X167500000Y-85750000D03*
X167500000Y-72750000D03*
D32*
X96700000Y-66500000D03*
X90300000Y-66500000D03*
D38*
X101000000Y-71000000D03*
X101000000Y-69000000D03*
D43*
X117400000Y-87762500D03*
X117400000Y-84637500D03*
D23*
X123000000Y-42000000D03*
X121000000Y-42000000D03*
D18*
X175000000Y-72800000D03*
D19*
X172460000Y-75340000D03*
X172460000Y-70260000D03*
X177540000Y-70260000D03*
X177540000Y-75340000D03*
M02*
